<?xml version="1.0" encoding="utf-8"?>
<!-- Generator: Adobe Illustrator 22.1.0, SVG Export Plug-In . SVG Version: 6.00 Build 0)  -->
<svg version="1.1" id="Layer_1" xmlns="http://www.w3.org/2000/svg" xmlns:xlink="http://www.w3.org/1999/xlink" x="0px" y="0px"
	 viewBox="0 0 334.9 46" style="enable-background:new 0 0 334.9 46;" xml:space="preserve">
<style type="text/css">
	.st0{fill:#1399AA;}
	.st1{fill:#29394B;}
	.st2{enable-background:new    ;}
	.st3{fill:#FFFFFF;}
</style>
<g id="Layer_1_1_">
	<polygon class="st0" points="18.3,0 0.3,0 24.3,23 0.3,46.3 18.3,46.3 41.3,23 	"/>
	<rect x="40.3" y="-0.9" class="st1" width="258" height="47.2"/>
	<polygon class="st1" points="41.3,-0.2 41.4,23.9 17.2,-0.2 	"/>
	<polygon class="st1" points="42.1,46.2 42.1,21.4 17.2,46.3 	"/>
	<polygon class="st1" points="334.9,23 298.3,46 298.3,0 	"/>
	<path class="st1" d="M295.8,1.6c0.5,11.2-1.8,22.3-0.8,33.5c0,0.8,0.7,1.5,1.5,1.5c0.5,0,1-0.3,1.3-0.7c3-5.2,1.4-11.6,2.4-17.2
		c0.3-1.9-2.6-2.7-2.9-0.8c-0.8,5.2,0.6,11.9-2,16.5l2.8,0.8c-0.9-11.2,1.4-22.3,0.8-33.5C298.7-0.3,295.7-0.4,295.8,1.6z"/>
	<path class="st1" d="M299.1,44.1V33.4c0-0.8-0.7-1.5-1.5-1.5s-1.5,0.7-1.5,1.5v10.7c0,0.8,0.7,1.5,1.5,1.5S299.1,44.9,299.1,44.1z"
		/>
	<path class="st1" d="M297.5,2.8c0.8,0,1.5-0.7,1.5-1.5s-0.7-1.5-1.5-1.5S296,0.5,296,1.3S296.7,2.8,297.5,2.8z"/>
	<path class="st1" d="M297.4,46.2c0.8,0,1.5-0.7,1.5-1.5s-0.7-1.5-1.5-1.5s-1.5,0.7-1.5,1.5S296.5,46.2,297.4,46.2z"/>
</g>
<g id="Layer_2_1_">
	<g class="st2">
		<path class="st3" d="M63.4,16.5h-4.8v13h-3.2v-13h-4.7v-2.6h12.7V16.5z"/>
		<path class="st3" d="M77.9,29.6h-3.2v-6.7h-6.3v6.7h-3.2V13.9h3.2v6.3h6.3v-6.3h3.2V29.6z"/>
		<path class="st3" d="M90.2,22.8H84V27h7.3v2.6H80.8V13.9h10.5v2.6H84v3.7h6.2V22.8z"/>
		<path class="st3" d="M101.8,24.1v5.5h-3.2V13.9h6.1c0.9,0,1.7,0.1,2.5,0.4c0.7,0.3,1.3,0.6,1.8,1.1c0.5,0.5,0.9,1,1.2,1.6
			c0.3,0.6,0.4,1.3,0.4,2.1c0,0.8-0.1,1.4-0.4,2.1c-0.3,0.6-0.6,1.1-1.2,1.6s-1.1,0.8-1.8,1c-0.7,0.2-1.6,0.3-2.5,0.3H101.8z
			 M101.8,21.5h2.9c0.5,0,0.9-0.1,1.2-0.2s0.6-0.3,0.8-0.5c0.2-0.2,0.4-0.4,0.5-0.7c0.1-0.3,0.2-0.6,0.2-0.9s-0.1-0.7-0.2-1
			c-0.1-0.3-0.3-0.6-0.5-0.8c-0.2-0.2-0.5-0.4-0.8-0.6s-0.7-0.2-1.2-0.2h-2.9V21.5z"/>
		<path class="st3" d="M118.6,23.9H116v5.7h-3.2V13.9h5.8c0.9,0,1.7,0.1,2.4,0.3c0.7,0.2,1.3,0.5,1.8,0.9c0.5,0.4,0.9,0.9,1.1,1.5
			c0.3,0.6,0.4,1.3,0.4,2c0,0.6-0.1,1.1-0.2,1.5c-0.1,0.5-0.3,0.9-0.6,1.2c-0.2,0.4-0.5,0.7-0.9,0.9s-0.7,0.5-1.2,0.7l3.4,6.4v0.2
			h-3.5L118.6,23.9z M116,21.2h2.6c0.4,0,0.8-0.1,1.1-0.2c0.3-0.1,0.6-0.3,0.8-0.5c0.2-0.2,0.4-0.4,0.5-0.7c0.1-0.3,0.2-0.6,0.2-1
			c0-0.7-0.2-1.3-0.6-1.7s-1.1-0.6-1.9-0.6H116V21.2z"/>
		<path class="st3" d="M139.7,22.1c0,1.2-0.2,2.3-0.5,3.2c-0.3,0.9-0.8,1.8-1.4,2.4c-0.6,0.7-1.3,1.2-2.1,1.5
			c-0.8,0.4-1.7,0.5-2.7,0.5c-1,0-1.9-0.2-2.7-0.5c-0.8-0.4-1.5-0.9-2.1-1.5s-1.1-1.5-1.4-2.4c-0.3-0.9-0.5-2-0.5-3.2v-0.7
			c0-1.2,0.2-2.3,0.5-3.2c0.3-1,0.8-1.8,1.4-2.4c0.6-0.7,1.3-1.2,2.1-1.5c0.8-0.4,1.7-0.5,2.7-0.5c1,0,1.9,0.2,2.7,0.5
			c0.8,0.4,1.5,0.9,2.1,1.5c0.6,0.7,1,1.5,1.4,2.4c0.3,1,0.5,2,0.5,3.2V22.1z M136.4,21.4c0-1.6-0.3-2.9-0.9-3.7
			c-0.6-0.9-1.4-1.3-2.5-1.3c-1.1,0-1.9,0.4-2.5,1.3c-0.6,0.9-0.9,2.1-0.9,3.7v0.7c0,0.8,0.1,1.5,0.2,2.2c0.2,0.6,0.4,1.2,0.7,1.6
			c0.3,0.4,0.6,0.7,1.1,1c0.4,0.2,0.9,0.3,1.5,0.3c1.1,0,1.9-0.4,2.5-1.3s0.9-2.1,0.9-3.7V21.4z"/>
		<path class="st3" d="M142,29.6V13.9h5.5c0.9,0,1.7,0.1,2.4,0.3c0.7,0.2,1.3,0.4,1.8,0.8c0.5,0.4,0.9,0.8,1.1,1.3
			c0.3,0.5,0.4,1.2,0.4,1.9c0,0.4,0,0.7-0.1,1c-0.1,0.3-0.2,0.6-0.4,0.9s-0.4,0.5-0.7,0.8c-0.3,0.2-0.6,0.4-1,0.6
			c0.5,0.1,0.9,0.3,1.2,0.5c0.3,0.2,0.6,0.5,0.8,0.8c0.2,0.3,0.4,0.6,0.5,1c0.1,0.4,0.1,0.7,0.1,1.1c0,1.5-0.5,2.7-1.5,3.4
			s-2.4,1.2-4.2,1.2H142z M145.3,20.5h2.4c0.8,0,1.4-0.2,1.8-0.5c0.4-0.3,0.6-0.8,0.6-1.4c0-0.7-0.2-1.2-0.6-1.5
			c-0.4-0.3-1.1-0.5-1.9-0.5h-2.3V20.5z M145.3,22.8V27h2.8c0.4,0,0.8-0.1,1.1-0.2c0.3-0.1,0.6-0.2,0.8-0.4c0.2-0.2,0.3-0.4,0.4-0.6
			c0.1-0.2,0.1-0.5,0.1-0.8c0-0.3,0-0.6-0.1-0.9c-0.1-0.3-0.2-0.5-0.4-0.7c-0.2-0.2-0.4-0.3-0.7-0.4c-0.3-0.1-0.6-0.2-1.1-0.2H145.3
			z"/>
		<path class="st3" d="M159.3,27h6.8v2.6h-10.1V13.9h3.2V27z"/>
		<path class="st3" d="M177.4,22.8h-6.2V27h7.3v2.6H168V13.9h10.5v2.6h-7.2v3.7h6.2V22.8z"/>
		<path class="st3" d="M184.6,13.9l4,11.3l4-11.3h4.2v15.6h-3.2v-4.3l0.3-7.4l-4.2,11.7h-2.2l-4.2-11.6l0.3,7.4v4.3h-3.2V13.9H184.6
			z"/>
	</g>
</g>
</svg>
