<?xml version="1.0" encoding="utf-8"?>
<!-- Generator: Adobe Illustrator 22.1.0, SVG Export Plug-In . SVG Version: 6.00 Build 0)  -->
<svg version="1.1" id="Layer_1" xmlns="http://www.w3.org/2000/svg" xmlns:xlink="http://www.w3.org/1999/xlink" x="0px" y="0px"
	 viewBox="0 0 334.7 46" style="enable-background:new 0 0 334.7 46;" xml:space="preserve">
<style type="text/css">
	.st0{fill:#1399AA;}
	.st1{fill:#29394B;}
	.st2{enable-background:new    ;}
	.st3{fill:#FFFFFF;}
</style>
<g id="Layer_1_1_">
	<polygon class="st0" points="18,0 0,0 24,23.1 0,46.3 18,46.3 41,23.1 	"/>
	<rect x="40" y="-0.9" class="st1" width="258" height="47.2"/>
	<polygon class="st1" points="41,-0.2 41.1,23.9 17,-0.2 	"/>
	<polygon class="st1" points="41.8,46.2 41.9,21.4 17,46.3 	"/>
	<polygon class="st1" points="334.7,23 298,46 298,0 	"/>
	<path class="st1" d="M295.6,1.6c0.5,11.2-1.8,22.3-0.8,33.5c0,0.8,0.7,1.5,1.5,1.5c0.5,0,1-0.3,1.3-0.7c3-5.2,1.4-11.6,2.4-17.2
		c0.3-1.9-2.6-2.7-2.9-0.8c-0.8,5.2,0.6,11.9-2,16.5l2.8,0.8c-0.9-11.2,1.4-22.3,0.8-33.5C298.5-0.3,295.5-0.4,295.6,1.6z"/>
	<path class="st1" d="M298.8,44.1V33.4c0-0.8-0.7-1.5-1.5-1.5s-1.5,0.7-1.5,1.5v10.7c0,0.8,0.7,1.5,1.5,1.5S298.8,44.9,298.8,44.1z"
		/>
	<path class="st1" d="M297.3,2.8c0.8,0,1.5-0.7,1.5-1.5s-0.7-1.5-1.5-1.5s-1.5,0.7-1.5,1.5S296.4,2.8,297.3,2.8z"/>
	<path class="st1" d="M297.1,46.2c0.8,0,1.5-0.7,1.5-1.5s-0.7-1.5-1.5-1.5s-1.5,0.7-1.5,1.5S296.3,46.2,297.1,46.2z"/>
</g>
<g class="st2">
	<path class="st3" d="M60.5,16.6h-3.9v13h-3.2v-13h-3.8V14h10.8V16.6z"/>
	<path class="st3" d="M70.4,22.9h-4.9V27h5.8v2.6h-9V14h9v2.6h-5.8v3.7h4.9V22.9z"/>
	<path class="st3" d="M79.8,25.5c0-0.6-0.2-1.1-0.5-1.4c-0.3-0.3-0.9-0.7-1.8-1c-1.6-0.6-2.7-1.3-3.4-2.1c-0.7-0.8-1-1.7-1-2.8
		c0-1.3,0.5-2.4,1.4-3.2c0.9-0.8,2.1-1.2,3.6-1.2c1,0,1.8,0.2,2.6,0.6c0.8,0.4,1.3,1,1.7,1.7c0.4,0.7,0.6,1.6,0.6,2.5h-3.1
		c0-0.7-0.2-1.3-0.5-1.7c-0.3-0.4-0.8-0.6-1.3-0.6c-0.6,0-1,0.2-1.3,0.5c-0.3,0.3-0.5,0.8-0.5,1.3c0,0.4,0.2,0.8,0.5,1.2
		c0.3,0.3,1,0.7,1.8,1.1c1.5,0.6,2.6,1.2,3.3,2c0.7,0.8,1,1.8,1,3.1c0,1.4-0.4,2.4-1.3,3.2c-0.9,0.8-2,1.1-3.5,1.1
		c-1,0-1.9-0.2-2.8-0.6c-0.8-0.4-1.5-1-1.9-1.8c-0.5-0.8-0.7-1.7-0.7-2.7h3.2c0,0.9,0.2,1.6,0.5,2c0.4,0.4,0.9,0.6,1.7,0.6
		C79.2,27.3,79.8,26.7,79.8,25.5z"/>
	<path class="st3" d="M95.2,16.6h-3.9v13h-3.2v-13h-3.8V14h10.8V16.6z"/>
	<path class="st3" d="M100.3,29.6h-3.2V14h3.2V29.6z"/>
	<path class="st3" d="M113.9,29.6h-3.2l-4.6-10.3v10.3h-3.2V14h3.2l4.6,10.3V14h3.1V29.6z"/>
	<path class="st3" d="M127,27.9c-0.6,0.7-1.4,1.2-2.2,1.5c-0.9,0.3-1.9,0.5-2.9,0.5c-1.8,0-3.2-0.6-4.2-1.7c-1-1.1-1.5-2.7-1.5-4.9
		v-2.8c0-2.2,0.5-3.8,1.4-5c0.9-1.2,2.3-1.7,4.1-1.7c1.7,0,3,0.4,3.8,1.3c0.9,0.8,1.4,2.2,1.5,3.9H124c-0.1-1-0.3-1.7-0.6-2
		c-0.3-0.4-0.8-0.5-1.5-0.5c-0.9,0-1.5,0.3-1.9,0.9s-0.6,1.6-0.6,3v2.8c0,1.4,0.2,2.5,0.6,3.1c0.4,0.6,1.1,1,2.1,1
		c0.6,0,1.1-0.1,1.5-0.4l0.3-0.2v-2.9h-2.2v-2.4h5.4V27.9z"/>
	<path class="st3" d="M130,33.6l-1.6-0.8l0.4-0.8c0.5-0.8,0.7-1.7,0.7-2.6V27h2.6l0,2.2c0,0.8-0.2,1.5-0.6,2.4
		C131.2,32.3,130.7,33,130,33.6z"/>
	<path class="st3" d="M144.5,23.9h-1.6v5.7h-3.2V14h5c1.6,0,2.8,0.4,3.7,1.2c0.9,0.8,1.3,2,1.3,3.5c0,2.1-0.8,3.5-2.3,4.4l2.7,6.4
		v0.2h-3.4L144.5,23.9z M142.9,21.3h1.8c0.6,0,1.1-0.2,1.4-0.6c0.3-0.4,0.5-1,0.5-1.7c0-1.6-0.6-2.4-1.8-2.4h-1.8V21.3z"/>
	<path class="st3" d="M162.9,23.2c0,2.1-0.5,3.7-1.5,4.9c-1,1.2-2.4,1.7-4.1,1.7c-1.8,0-3.1-0.6-4.1-1.7c-1-1.1-1.5-2.8-1.5-4.8
		v-2.7c0-2.1,0.5-3.8,1.5-5c1-1.2,2.4-1.8,4.1-1.8c1.7,0,3.1,0.6,4.1,1.8c1,1.2,1.5,2.8,1.5,5V23.2z M159.8,20.6
		c0-1.4-0.2-2.5-0.6-3.1c-0.4-0.7-1-1-1.9-1c-0.8,0-1.5,0.3-1.9,1c-0.4,0.7-0.6,1.7-0.6,3v2.8c0,1.4,0.2,2.4,0.6,3
		c0.4,0.6,1,1,1.9,1c0.8,0,1.4-0.3,1.8-1c0.4-0.6,0.6-1.6,0.6-2.9V20.6z"/>
	<path class="st3" d="M175.4,14v10.8c0,1.6-0.5,2.9-1.3,3.7c-0.9,0.9-2.1,1.3-3.8,1.3c-1.7,0-3-0.4-3.8-1.3
		c-0.9-0.9-1.3-2.1-1.3-3.8V14h3.2v10.8c0,0.9,0.1,1.5,0.4,1.9c0.3,0.4,0.8,0.6,1.6,0.6s1.3-0.2,1.5-0.6c0.3-0.4,0.4-1,0.4-1.9V14
		H175.4z"/>
	<path class="st3" d="M188.7,29.6h-3.2l-4.6-10.3v10.3h-3.2V14h3.2l4.6,10.3V14h3.1V29.6z"/>
	<path class="st3" d="M191.2,29.6V14h4.1c1.8,0,3.3,0.6,4.4,1.7s1.6,2.8,1.7,4.8V23c0,2.1-0.5,3.7-1.6,4.8c-1.1,1.2-2.6,1.8-4.5,1.8
		H191.2z M194.4,16.6V27h0.9c1.1,0,1.8-0.3,2.2-0.8c0.4-0.6,0.7-1.5,0.7-2.9v-2.7c0-1.5-0.2-2.5-0.6-3.1c-0.4-0.6-1.1-0.9-2.1-0.9
		H194.4z"/>
	<path class="st3" d="M217.7,29.6h-9.2v-2.1l4.2-5.4c0.5-0.7,0.9-1.4,1.2-2c0.3-0.6,0.4-1.1,0.4-1.6c0-0.7-0.1-1.2-0.4-1.6
		s-0.6-0.6-1-0.6c-0.5,0-0.9,0.2-1.2,0.7s-0.4,1.1-0.4,1.9h-3.1c0-1,0.2-1.8,0.6-2.6s1-1.4,1.7-1.9c0.7-0.4,1.5-0.7,2.4-0.7
		c1.4,0,2.5,0.4,3.2,1.2c0.8,0.8,1.2,1.9,1.2,3.3c0,0.9-0.2,1.8-0.6,2.7c-0.4,0.9-1.2,2-2.3,3.3l-2,2.9h5.3V29.6z"/>
</g>
</svg>
