<?xml version="1.0" encoding="utf-8"?>
<!-- Generator: Adobe Illustrator 22.1.0, SVG Export Plug-In . SVG Version: 6.00 Build 0)  -->
<svg version="1.1" id="Layer_1" xmlns="http://www.w3.org/2000/svg" xmlns:xlink="http://www.w3.org/1999/xlink" x="0px" y="0px"
	 viewBox="0 0 334.7 46" style="enable-background:new 0 0 334.7 46;" xml:space="preserve">
<style type="text/css">
	.st0{fill:#1399AA;}
	.st1{fill:#29394B;}
	.st2{enable-background:new    ;}
	.st3{fill:#FFFFFF;}
</style>
<g id="Layer_1_1_">
	<polygon class="st0" points="18,0 0,0 24,23.1 0,46.3 18,46.3 41,23.1 	"/>
	<rect x="40" y="-0.9" class="st1" width="258" height="47.2"/>
	<polygon class="st1" points="41,-0.2 41.1,23.9 17,-0.2 	"/>
	<polygon class="st1" points="41.8,46.2 41.9,21.4 17,46.3 	"/>
	<polygon class="st1" points="334.7,23 298,46 298,0 	"/>
	<path class="st1" d="M295.6,1.6c0.5,11.2-1.8,22.3-0.8,33.5c0,0.8,0.7,1.5,1.5,1.5c0.5,0,1-0.3,1.3-0.7c3-5.2,1.4-11.6,2.4-17.2
		c0.3-1.9-2.6-2.7-2.9-0.8c-0.8,5.2,0.6,11.9-2,16.5l2.8,0.8c-0.9-11.2,1.4-22.3,0.8-33.5C298.5-0.3,295.5-0.4,295.6,1.6z"/>
	<path class="st1" d="M298.8,44.1V33.4c0-0.8-0.7-1.5-1.5-1.5s-1.5,0.7-1.5,1.5v10.7c0,0.8,0.7,1.5,1.5,1.5S298.8,44.9,298.8,44.1z"
		/>
	<path class="st1" d="M297.3,2.8c0.8,0,1.5-0.7,1.5-1.5s-0.7-1.5-1.5-1.5s-1.5,0.7-1.5,1.5S296.4,2.8,297.3,2.8z"/>
	<path class="st1" d="M297.1,46.2c0.8,0,1.5-0.7,1.5-1.5s-0.7-1.5-1.5-1.5s-1.5,0.7-1.5,1.5S296.3,46.2,297.1,46.2z"/>
</g>
<g class="st2">
	<path class="st3" d="M61.1,16.6h-3.9v13h-3.2v-13h-3.8V14h10.8V16.6z"/>
	<path class="st3" d="M69.1,26.4h-4.3L64,29.6h-3.3L65.5,14h2.9l4.9,15.6H70L69.1,26.4z M65.5,23.8h2.9L67,18.2L65.5,23.8z"/>
	<path class="st3" d="M79.2,23.6L78,25.1v4.5h-3.2V14H78v6.8l1-1.7l2.9-5.1h3.9l-4.5,6.9l4.6,8.8h-3.7L79.2,23.6z"/>
	<path class="st3" d="M95.1,22.8h-4.9V27H96v2.6h-9V14h9v2.6h-5.8v3.7h4.9V22.8z"/>
	<path class="st3" d="M105.2,26.4h-4.3l-0.8,3.2h-3.3l4.9-15.6h2.9l4.9,15.6h-3.4L105.2,26.4z M101.6,23.8h2.9l-1.5-5.6L101.6,23.8z
		"/>
	<path class="st3" d="M120.7,23.8l1.5-9.8h3.1l-2.8,15.6h-3.2l-1.8-9.2l-1.8,9.2h-3.2L109.7,14h3.1l1.5,9.8l1.8-9.8h2.7L120.7,23.8z
		"/>
	<path class="st3" d="M134,26.4h-4.3l-0.8,3.2h-3.3l4.9-15.6h2.9l4.9,15.6h-3.4L134,26.4z M130.4,23.8h2.9l-1.5-5.6L130.4,23.8z"/>
	<path class="st3" d="M142.8,21l2.4-7h3.4l-4.2,10v5.7h-3.2v-5.7L137,14h3.4L142.8,21z"/>
	<path class="st3" d="M156.4,25.5c0-0.6-0.2-1.1-0.5-1.4c-0.3-0.3-0.9-0.7-1.8-1c-1.6-0.6-2.7-1.3-3.4-2.1c-0.7-0.8-1-1.7-1-2.8
		c0-1.3,0.5-2.4,1.4-3.2c0.9-0.8,2.1-1.2,3.6-1.2c1,0,1.8,0.2,2.6,0.6c0.8,0.4,1.3,1,1.7,1.7c0.4,0.7,0.6,1.6,0.6,2.5h-3.1
		c0-0.7-0.2-1.3-0.5-1.7c-0.3-0.4-0.8-0.6-1.3-0.6c-0.6,0-1,0.2-1.3,0.5c-0.3,0.3-0.5,0.8-0.5,1.3c0,0.4,0.2,0.8,0.5,1.2
		c0.3,0.3,1,0.7,1.8,1.1c1.5,0.6,2.6,1.2,3.3,2c0.7,0.8,1,1.8,1,3.1c0,1.4-0.4,2.4-1.3,3.2c-0.9,0.8-2,1.1-3.5,1.1
		c-1,0-1.9-0.2-2.8-0.6c-0.8-0.4-1.5-1-1.9-1.8c-0.5-0.8-0.7-1.7-0.7-2.7h3.2c0,0.9,0.2,1.6,0.5,2c0.4,0.4,0.9,0.6,1.7,0.6
		C155.9,27.2,156.4,26.7,156.4,25.5z"/>
</g>
</svg>
