<?xml version="1.0" encoding="utf-8"?>
<!-- Generator: Adobe Illustrator 23.0.1, SVG Export Plug-In . SVG Version: 6.00 Build 0)  -->
<svg version="1.1" id="Layer_1" xmlns="http://www.w3.org/2000/svg" xmlns:xlink="http://www.w3.org/1999/xlink" x="0px" y="0px"
	 viewBox="0 0 4067.8 4067.8" style="enable-background:new 0 0 4067.8 4067.8;" xml:space="preserve">
<style type="text/css">
	.st0{fill:#FFFFFF;}
	.st1{fill:#FF7F18;}
</style>
<circle class="st0" cx="2033.9" cy="2033.9" r="2033.9"/>
<path class="st1" d="M888.1,919.3h2291.7v2229.2H888.1V919.3z M783.9,3252.7h2500V815.2h-2500L783.9,3252.7L783.9,3252.7z
	 M2421.4,1683.9c0-8.3,3.1-12.5,12.5-12.5h163.5c8.3,0,12.5,3.1,12.5,12.5v821.9c0,8.3-2.1,12.5-12.5,12.5H2436
	c-10.4,0-13.5-5.2-13.5-13.5V1684L2421.4,1683.9L2421.4,1683.9z M2410,1447.5c0-66.7,46.9-106.2,106.3-106.2
	c63.5,0,106.2,42.7,106.2,106.2c0,68.7-44.8,106.2-108.3,106.2C2453.7,1553.7,2410,1516.2,2410,1447.5z M1941.2,2026.6
	c-29.2-115.6-97.9-367.7-124-489.6h-2.1c-21.9,121.9-77.1,328.1-120.8,489.6H1941.2z M1651.6,2195.4l-82.3,312.5
	c-2.1,8.3-5.2,10.4-15.6,10.4h-153.1c-10.4,0-12.5-3.1-10.4-15.6L1686,1467.2c5.2-18.7,8.3-35.4,10.4-86.5c0-7.3,3.1-10.4,8.3-10.4
	h218.8c7.3,0,10.4,2.1,12.5,10.4l331.2,1124c2.1,8.3,0,13.5-8.3,13.5H2086c-8.3,0-13.5-2.1-15.6-9.4l-85.4-313.5L1651.6,2195.4
	L1651.6,2195.4z"/>
</svg>
