<?xml version="1.0" encoding="utf-8"?>
<!-- Generator: Adobe Illustrator 23.0.1, SVG Export Plug-In . SVG Version: 6.00 Build 0)  -->
<svg version="1.1" id="Layer_1" xmlns="http://www.w3.org/2000/svg" xmlns:xlink="http://www.w3.org/1999/xlink" x="0px" y="0px"
	 viewBox="0 0 4214 4160.9" style="enable-background:new 0 0 4214 4160.9;" xml:space="preserve">
<style type="text/css">
	.st0{fill:#FFFFFF;}
	.st1{fill:#31C5F0;}
</style>
<g>
	
		<image style="overflow:visible;opacity:0.5;" width="4188" height="4188" xlink:href="8A673B8CBBAE811C.png"  transform="matrix(1 0 0 1 40 19.8)">
	</image>
	<g>
		<circle class="st0" cx="2033.9" cy="2033.9" r="2033.9"/>
	</g>
</g>
<path class="st1" d="M888.2,916.4h2291.7v2229.2H888.2V916.4z M784,3249.8h2500V812.2H784V3249.8z M2469.4,1812.2
	c-82.3,0-110.4,41.7-110.4,76c0,37.5,18.7,63.5,129.2,120.8c163.5,79.2,214.6,155.2,214.6,266.7c0,166.7-127.1,256.2-299,256.2
	c-90.6,0-168.8-18.8-213.5-44.8c-7.3-3.1-8.3-8.3-8.3-16.7v-153.1c0-10.4,5.2-13.5,12.5-8.3c65.6,42.7,140.6,61.5,209.4,61.5
	c82.3,0,116.7-34.4,116.7-81.3c0-37.5-24-70.8-129.2-125c-147.9-70.8-209.4-142.7-209.4-262.5c0-134.4,105.2-245.8,287.5-245.8
	c89.6,0,152.1,13.5,186.5,29.2c8.3,5.2,10.4,13.5,10.4,20.8v142.7c0,8.3-5.2,13.5-15.6,10.4
	C2604.8,1830,2537.1,1812.2,2469.4,1812.2L2469.4,1812.2z M1573.6,1936.2c24,2.1,42.7,2.1,84.4,2.1c121.9,0,236.5-42.7,236.5-208.3
	c0-132.3-82.3-199-220.8-199c-41.7,0-81.3,2.1-100,3.1L1573.6,1936.2L1573.6,1936.2z M1388.2,1383.1c0-7.3,14.6-12.5,22.9-12.5
	c66.7-3.1,165.6-5.2,268.8-5.2c288.5,0,401,158.3,401,360.4c0,264.6-191.7,378.1-427.1,378.1c-39.6,0-53.1-2.1-81.3-2.1v400
	c0,8.3-3.1,12.5-12.5,12.5h-159.4c-8.3,0-12.5-3.1-12.5-12.5L1388.2,1383.1L1388.2,1383.1z"/>
</svg>
