<?xml version="1.0" encoding="utf-8"?>
<!-- Generator: Adobe Illustrator 23.0.1, SVG Export Plug-In . SVG Version: 6.00 Build 0)  -->
<svg version="1.1" id="Layer_1" xmlns="http://www.w3.org/2000/svg" xmlns:xlink="http://www.w3.org/1999/xlink" x="0px" y="0px"
	 viewBox="0 0 4254.5 4217.3" style="enable-background:new 0 0 4254.5 4217.3;" xml:space="preserve">
<style type="text/css">
	.st0{fill:#FFFFFF;}
	.st1{fill:#F57F22;}
</style>
<g>
	
		<image style="overflow:visible;opacity:0.5;enable-background:new    ;" width="4188" height="4188" xlink:href="3D7AE023FB742929.png"  transform="matrix(1 0 0 1 66.5437 24.5264)">
	</image>
	<g>
		<circle class="st0" cx="2060.4" cy="2038.6" r="2033.9"/>
	</g>
</g>
<path class="st1" d="M914.6,924h2291.7v2229.2H914.6V924z M810.4,3257.4h2500V819.9h-2500L810.4,3257.4L810.4,3257.4z
	 M2447.9,1688.6c0-8.3,3.1-12.5,12.5-12.5h163.5c8.3,0,12.5,3.1,12.5,12.5v821.9c0,8.3-2.1,12.5-12.5,12.5h-161.4
	c-10.4,0-13.5-5.2-13.5-13.5v-820.8L2447.9,1688.6L2447.9,1688.6z M2436.5,1452.2c0-66.7,46.9-106.2,106.3-106.2
	c63.5,0,106.2,42.7,106.2,106.2c0,68.7-44.8,106.2-108.3,106.2C2480.2,1558.4,2436.5,1520.9,2436.5,1452.2z M1967.7,2031.3
	c-29.2-115.6-97.9-367.7-124-489.6h-2.1c-21.9,121.9-77.1,328.1-120.8,489.6H1967.7z M1678.1,2200.1l-82.3,312.5
	c-2.1,8.3-5.2,10.4-15.6,10.4h-153.1c-10.4,0-12.5-3.1-10.4-15.6l295.8-1035.5c5.2-18.7,8.3-35.4,10.4-86.5c0-7.3,3.1-10.4,8.3-10.4
	H1950c7.3,0,10.4,2.1,12.5,10.4l331.2,1124c2.1,8.3,0,13.5-8.3,13.5h-172.9c-8.3,0-13.5-2.1-15.6-9.4l-85.4-313.5L1678.1,2200.1
	L1678.1,2200.1z"/>
</svg>
