<?xml version="1.0" encoding="utf-8"?>
<!-- Generator: Adobe Illustrator 23.0.1, SVG Export Plug-In . SVG Version: 6.00 Build 0)  -->
<svg version="1.1" id="Layer_1" xmlns="http://www.w3.org/2000/svg" xmlns:xlink="http://www.w3.org/1999/xlink" x="0px" y="0px"
	 viewBox="0 0 1950 1950" style="enable-background:new 0 0 1950 1950;" xml:space="preserve">
<style type="text/css">
	.st0{fill:#FFFFFF;}
	.st1{fill:none;stroke:#000000;stroke-miterlimit:10;}
	.st2{fill:#F57F22;}
</style>
<g>
	
		<image style="overflow:visible;opacity:0.3;" width="8006" height="8005" xlink:href="420AB1D9918AD9E2.png"  transform="matrix(0.24 0 0 0.24 42.48 45.12)">
	</image>
	<g>
		<circle class="st0" cx="903.2" cy="925.7" r="900"/>
		<circle class="st1" cx="903.2" cy="925.7" r="900"/>
	</g>
</g>
<path class="st2" d="M427.9,463.4h950.6V1388H427.9V463.4z M384.7,1431.2h1037V420.1h-1037V1431.2z M1063.9,780.5
	c0-3.5,1.3-5.2,5.2-5.2h67.8c3.5,0,5.2,1.3,5.2,5.2v340.9c0,3.5-0.9,5.2-5.2,5.2h-67c-4.3,0-5.6-2.2-5.6-5.6V780.5L1063.9,780.5
	L1063.9,780.5z M1059.2,682.4c0-27.7,19.4-44.1,44.1-44.1c26.4,0,44.1,17.7,44.1,44.1c0,28.5-18.6,44.1-44.9,44.1
	C1077.3,726.5,1059.2,710.9,1059.2,682.4z M864.7,922.7c-12.1-48-40.6-152.5-51.4-203.1h-0.9c-9.1,50.6-32,136.1-50.1,203.1H864.7z
	 M744.6,992.7l-34.1,129.6c-0.9,3.5-2.2,4.3-6.5,4.3h-63.5c-4.3,0-5.2-1.3-4.3-6.5l122.7-429.5c2.2-7.8,3.5-14.7,4.3-35.9
	c0-3,1.3-4.3,3.5-4.3h90.7c3,0,4.3,0.9,5.2,4.3L1000,1121c0.9,3.5,0,5.6-3.5,5.6h-71.7c-3.5,0-5.6-0.9-6.5-3.9l-35.4-130.1H744.6
	L744.6,992.7z"/>
</svg>
