<?xml version="1.0" encoding="utf-8"?>
<!-- Generator: Adobe Illustrator 23.0.1, SVG Export Plug-In . SVG Version: 6.00 Build 0)  -->
<svg version="1.1" id="Layer_1" xmlns="http://www.w3.org/2000/svg" xmlns:xlink="http://www.w3.org/1999/xlink" x="0px" y="0px"
	 viewBox="0 0 1950 1950" style="enable-background:new 0 0 1950 1950;" xml:space="preserve">
<style type="text/css">
	.st0{fill:#FFFFFF;}
	.st1{fill:none;stroke:#000000;stroke-miterlimit:10;}
	.st2{fill:#34C5EE;}
</style>
<g>
	
		<image style="overflow:visible;opacity:0.3;" width="8006" height="8005" xlink:href="478B584587A02499.png"  transform="matrix(0.24 0 0 0.24 37.6966 19.44)">
	</image>
	<g>
		<circle class="st0" cx="898.4" cy="900" r="900"/>
		<circle class="st1" cx="898.4" cy="900" r="900"/>
	</g>
</g>
<path class="st2" d="M422.8,437.3h951.3v925.3H422.8V437.3z M379.6,1405.9h1037.7V394.1H379.6V1405.9z M1079.2,809.2
	c-34.2,0-45.8,17.3-45.8,31.6c0,15.6,7.8,26.4,53.6,50.2c67.9,32.9,89.1,64.4,89.1,110.7c0,69.2-52.8,106.4-124.1,106.4
	c-37.6,0-70-7.8-88.6-18.6c-3-1.3-3.5-3.5-3.5-6.9v-63.6c0-4.3,2.2-5.6,5.2-3.5c27.2,17.7,58.4,25.5,86.9,25.5
	c34.2,0,48.4-14.3,48.4-33.7c0-15.6-9.9-29.4-53.6-51.9c-61.4-29.4-86.9-59.2-86.9-109c0-55.8,43.7-102,119.3-102
	c37.2,0,63.1,5.6,77.4,12.1c3.5,2.2,4.3,5.6,4.3,8.6v59.2c0,3.5-2.2,5.6-6.5,4.3C1135.4,816.5,1107.3,809.2,1079.2,809.2
	L1079.2,809.2z M707.3,860.7c9.9,0.9,17.7,0.9,35,0.9c50.6,0,98.2-17.7,98.2-86.5c0-54.9-34.2-82.6-91.7-82.6
	c-17.3,0-33.7,0.9-41.5,1.3V860.7z M630.4,631.1c0-3,6.1-5.2,9.5-5.2c27.7-1.3,68.8-2.2,111.6-2.2c119.8,0,166.5,65.7,166.5,149.6
	c0,109.8-79.6,157-177.3,157c-16.4,0-22.1-0.9-33.7-0.9v166c0,3.5-1.3,5.2-5.2,5.2h-66.2c-3.5,0-5.2-1.3-5.2-5.2L630.4,631.1
	L630.4,631.1z"/>
</svg>
