<?xml version="1.0" encoding="utf-8"?>
<!-- Generator: Adobe Illustrator 23.0.1, SVG Export Plug-In . SVG Version: 6.00 Build 0)  -->
<svg version="1.1" id="Layer_1" xmlns="http://www.w3.org/2000/svg" xmlns:xlink="http://www.w3.org/1999/xlink" x="0px" y="0px"
	 viewBox="0 0 1950 1950" style="enable-background:new 0 0 1950 1950;" xml:space="preserve">
<style type="text/css">
	.st0{fill:#FFFFFF;}
	.st1{fill:#FCB316;}
	.st2{fill:#E86E24;}
	.st3{fill:#FCD234;}
	.st4{fill:#FBAD18;}
	.st5{fill:#FEEEB8;}
	.st6{fill:url(#Fill-1_2_);}
</style>
<g>
	
		<image style="overflow:visible;opacity:0.3;" width="8001" height="8001" xlink:href="5D11BC1C323CA909.png"  transform="matrix(0.24 0 0 0.24 39.7652 19.8905)">
	</image>
	<g>
		<circle class="st0" cx="900" cy="900" r="900"/>
	</g>
</g>
<g>
	<polygon id="Fill-1" class="st1" points="890,219.6 501.3,262 200.4,650.4 890,1483.8 1579.6,650.4 1278.7,262 	"/>
	<polygon id="Fill-2" class="st2" points="200.4,650.4 890,1483.8 890,1483.8 479.7,650.4 	"/>
	<polygon id="Fill-3" class="st2" points="1300.3,650.4 890,1483.8 890,1483.8 1579.6,650.4 	"/>
	<polygon id="Fill-5" class="st3" points="501.3,262 479.7,650.4 890,219.6 	"/>
	<polygon id="Fill-6" class="st3" points="1300.3,650.4 1278.7,262 890,219.6 	"/>
	<polygon id="Fill-7" class="st4" points="1300.3,650.4 1579.6,650.4 1278.7,262 	"/>
	<polygon id="Fill-8" class="st4" points="200.4,650.4 479.7,650.4 501.3,262 	"/>
	<polygon id="Fill-9" class="st5" points="890,219.6 479.7,650.4 1300.3,650.4 	"/>
	<polygon id="Fill-4" class="st4" points="479.7,650.4 890,1483.8 890,1483.8 1300.3,650.4 	"/>
	
		<linearGradient id="Fill-1_2_" gradientUnits="userSpaceOnUse" x1="273.0867" y1="1403.2292" x2="1405.907" y2="874.9866" gradientTransform="matrix(1 0 0 -1 0 1897.8334)">
		<stop  offset="0" style="stop-color:#FFFFFF;stop-opacity:0.2"/>
		<stop  offset="1" style="stop-color:#FFFFFF;stop-opacity:0"/>
	</linearGradient>
	<polygon id="Fill-1_1_" class="st6" points="890,219.6 501.3,262 200.4,650.4 890,1483.8 1579.6,650.4 1278.7,262 	"/>
</g>
</svg>
