<?xml version="1.0" encoding="utf-8"?>
<!-- Generator: Adobe Illustrator 23.0.1, SVG Export Plug-In . SVG Version: 6.00 Build 0)  -->
<svg version="1.1" id="toolbox_xA0_Image_1_" xmlns="http://www.w3.org/2000/svg" xmlns:xlink="http://www.w3.org/1999/xlink"
	 x="0px" y="0px" viewBox="0 0 544.8 438.5" style="enable-background:new 0 0 544.8 438.5;" xml:space="preserve">
<style type="text/css">
	.st0{fill:#010101;}
	.st1{fill:#E04658;}
	.st2{fill:#22252C;}
	.st3{fill:#AAAAAA;}
	.st4{fill:#881624;}
	.st5{fill:#131418;}
</style>
<g>
	<g>
		<path class="st0" d="M486.4,197.9c6.8,3.5,13.7,7,20.5,10.4c2,1,3.9,2.2,6.2,2.6c1.7,0.3,3.5,0.3,5.2,0.6c3.3,0.6,6.7,0.8,10,0.8
			c1.5,0,2.6,1,3,2.8c0.5,2,0.7,4.1,0.7,6.2c0.1,3,0.3,6,0.7,9c0.3,2.4,1.7,3.9,3.7,5c0.9,0.5,1.8,1,2.3,2c0,0.1,0.1,0.3,0.2,0.3
			c1.6,0,1.1,1.2,1.1,2c0,31.8-0.2,63.7,0.1,95.5c0.3,30.8,0,61.6,0.2,92.3c0,1.8-0.5,2.3-2.3,2.5c-3.9,0.4-7.8,0.5-11.6,0.5
			c-0.5,0-1,0.1-1.5,0.3c-2.2,0.6-4.5,0.1-6.3-0.7c-2.2-1-4.3-0.7-6.5-0.7c-4.3-0.1-8.6-0.2-13,0c-14.1,0.5-28.3-0.1-42.4,0.3
			c-13.7,0.3-27.4-0.1-41.1,0.2c-14.2,0.4-28.4-0.1-42.7,0.2c-13.7,0.3-27.4-0.1-41.1,0.2c-14.2,0.4-28.4-0.1-42.7,0.2
			c-13.7,0.3-27.3-0.1-41,0.2c-14.3,0.4-28.5-0.1-42.8,0.2c-13.7,0.3-27.4-0.1-41.1,0.2c-14.2,0.4-28.4-0.1-42.7,0.2
			c-13.6,0.3-27.2-0.1-40.9,0.2c-14.3,0.4-28.6,0-42.9,0.3c-3.7,0.1-7.5,0-11.2,0.2c-1.4,0.1-2.7,0.9-4.1,1.2
			c-0.8,0.2-1.6,0.4-2.4,0.5c-1.9,0.1-3.8,0.2-5.8,0.5c-1.4,0.2-2.7-0.4-4-0.6c-0.5-0.1-1.1-0.1-1.6-0.3c-2.4-0.9-2.8-1.8-2.8-3.6
			c0.1-19.4,0.3-38.8,0-58.2c-0.3-21.3,0.1-42.7-0.2-64c-0.3-20.3,0-40.7-0.2-61c0-1.3,0.1-2.7-0.2-4c-0.5-2.3,0.4-4.1,2.4-5.4
			c1.2-0.7,2.2-1.6,3.1-2.7c1.7-2,1.8-4.4,1.4-6.9c-0.8-5.4,2.2-10.7,7.8-12.8c0.6-0.2,1.2,0,1.9-0.1c3.7-0.6,6.8-2.3,9.7-4.7
			c3.9-3.4,8-6.8,12-10.1c0.6-0.5,0.7-1,0.6-1.8c-0.3-2.9-0.6-5.9-0.8-8.8c-0.3-2.9-0.6-5.9-0.9-8.8c-0.3-2.8-0.5-5.6-0.8-8.4
			c-0.3-3-0.6-6.1-0.9-9.1c-0.3-2.9-0.5-5.7-0.8-8.6c-0.3-3-0.6-5.9-0.9-8.9c-0.3-2.8-0.5-5.5-0.8-8.3c-0.3-3.1-0.6-6.2-0.9-9.3
			c-0.3-2.8-0.5-5.5-0.8-8.3c-0.3-3-0.6-6.1-0.9-9.1c-0.3-2.8-0.5-5.6-0.8-8.4c-0.3-3-0.6-6-0.9-9c-0.3-2.9-0.5-5.7-0.8-8.6
			c-0.3-3-0.6-5.9-0.9-8.9c-0.3-2.8-0.5-5.6-0.8-8.4c-0.3-3-0.6-6.1-0.9-9.1c-0.3-2.8-0.5-5.6-0.8-8.4c-0.3-3-0.6-6-0.9-9
			c-0.3-4-0.8-7.9-0.9-11.9c0-2.6,0.9-5.1,2.2-7.4c0.6-1.1,1.3-2.2,1.7-3.4c0.5-1.5,2.5-2.7,4.1-2.6c4,0.2,8,0.4,12,0.5
			c1.1,0,2.1,0.2,3,0.7c1.3,0.7,2.6,0.7,3.9,0.7c63.4,0,126.7,0,190.1,0c1.7,0,3.4,0.2,5.1,0c1.4-0.2,2.8-0.7,3.6-1.7
			c1.3-1.8,3.1-2.6,5.1-2.5c4,0.1,8,0.2,12,0.6c1,0.1,2.1-0.1,3.1,0.2s1.9,0.6,2.7,1.4c0.4,0.3,0.8,0.5,1.3,0.6
			c3.2,0.8,6.5,0.7,9.8,0.7c7,0.1,14-0.2,21-0.3c8.5-0.1,16.9-0.3,25.4-0.5c8.4-0.2,16.9-0.3,25.3-0.5s16.9-0.3,25.3-0.5
			c8.5-0.2,16.9-0.3,25.4-0.5c8.4-0.2,16.9-0.3,25.3-0.5s16.9-0.3,25.3-0.5c4.2-0.1,8.5-0.1,12.7-0.2c1.6,0,3.2-0.2,4.5-1.2
			c1.3-0.9,2.7-1.1,4.1-1.2c3.4-0.1,6.8-0.2,10.2,0c1.6,0.1,3.2,0.8,4.4,1.9c1.5,1.4,3,2.9,4.1,4.6c1,1.4,1.4,2.9,1,4.7
			c-0.8,3.3-1,6.7-1.2,10s-0.6,6.6-0.9,9.8c-0.2,2.2-0.3,4.4-0.5,6.5c-0.3,3.6-0.6,7.1-0.9,10.7c-0.2,2.2-0.3,4.4-0.5,6.7
			c-0.3,3.5-0.6,7-0.9,10.6c-0.2,2.3-0.3,4.5-0.5,6.8c-0.3,3.5-0.6,7-0.9,10.4c-0.2,2.3-0.3,4.5-0.5,6.8c-0.3,3.5-0.6,7-0.9,10.4
			c-0.2,2.1-0.3,4.3-0.5,6.4c-0.3,3.6-0.5,7.3-0.9,10.9c-0.3,2.3-0.3,4.7-0.5,7c-0.3,3.4-0.7,6.8-0.9,10.2c-0.1,2.1-0.3,4.3-0.5,6.4
			c-0.3,3.6-0.7,7.2-0.9,10.8c-0.1,2.1-0.3,4.3-0.5,6.4c-0.3,3.6-0.6,7.2-0.9,10.8c-0.2,2.3-0.3,4.5-0.5,6.8
			C487.1,190,486.8,193.9,486.4,197.9z M38.8,213.8c0.5,0,1,0.1,1.4,0.1c13.5-0.1,27,0.1,40.5-0.2c16.8-0.4,33.6,0.1,50.4-0.2
			c16.4-0.3,32.9,0.1,49.3-0.2c16.7-0.4,33.4,0.1,50.1-0.2c16.6-0.3,33.2,0.1,49.8-0.2c16.7-0.4,33.3,0.1,50-0.2
			c16.6-0.4,33.3,0.1,49.9-0.2c16.6-0.4,33.3,0.1,49.9-0.2c16.7-0.4,33.3,0.2,50-0.3c4.5-0.1,9-0.1,13.4-0.1
			c2.4,0.5,4.7,0.8,7.4,0.3c-0.9-1-1.5-1.9-2.6-2.4c-6.1-3.1-12.2-6.2-18.2-9.3c-0.5-0.2-1-0.3-1.5-0.3c-6.3-0.2-12.6-0.3-19-0.2
			c-9.7,0.1-19.3,0.5-29,0.3c-12.7-0.3-25.3-0.2-38,0c-10.2,0.2-20.4,0.1-30.6,0.2c-10.6,0.1-21.1-0.3-31.7,0
			c-10.7,0.3-21.3,0.2-32,0.3c-10.4,0.1-20.9-0.2-31.3,0.2c-9.8,0.4-19.7,0.3-29.5,0.4c-5.2,0.1-10.5-0.1-15.7,0
			c-11.8,0.4-23.5,0.4-35.3,0.4c-13.2,0-26.3-0.1-39.5,0.1c-16.6,0.2-33.2,0.1-49.8,0.1c-8.8,0-17.5,0.1-26.3,0.2
			c-6.1,0.1-12.2-0.1-18.3-0.2c-1,0-1.9,0.2-2.8,0.7c-2.4,1.4-4.4,3.2-6.5,4.8c-3,2.2-5.8,4.5-8.8,6.8C36,213.8,37.4,214,38.8,213.8
			z M516.4,238.5c-72,0.6-143.8,0.8-215.8,0.8c0.8,2.1,1.1,4.2,0.9,6.2c-0.5,5.7-0.3,11.4-0.1,17.1c0.1,3.1,0.1,6.2-2.1,8.7
			c-0.8,0.9-1.2,1.9-1.4,3.1c-0.2,0.8-0.1,1.6-0.2,2.4c-0.7,4.6-1.9,9.2-2.4,13.8c-0.3,2.5-2.1,4.4-4.3,4.7
			c-1.6,0.2-1.9,0.6-2.2,2.1c-0.4,2.5-0.4,4.9-0.5,7.4c-0.2,3.9-1.4,5.8-4.7,6.4c-2.5,0.5-5,0.6-7.5,0.8c-3.5,0.2-7.1,0.4-10.7,0
			c-3.7-0.3-6.5-1.8-7.8-5.6c-0.7-2-0.9-4.2-1-6.3c-0.2-2.5-0.6-5-2.5-6.9c-0.3-0.3-0.5-0.8-0.6-1.3c-1-4.1-1.9-8.2-2.6-12.4
			c-0.6-3.4-1.5-6.7-3.6-9.5c-1.6-2.1-2.2-4.6-1.7-7.3c0.2-0.9,0.3-1.9,0.5-2.8c0.5-2.4,0-4.9,0.4-7.3c0.2-1.3,0.1-2.7-0.1-4
			c-0.3-1.9-0.8-3.7-0.3-5.7c0.2-1.1,0.8-2,1.3-3.2c-73.3,0.3-146.4,0.8-219.6,0.5c0,3.2-0.1,6.3-0.2,9.3
			c-0.2,10.9,0.1,21.8-0.2,32.7c-0.3,10.9,0.1,21.8-0.2,32.7c-0.3,10.9,0.1,21.7-0.2,32.6c-0.3,10.8,0,21.7-0.2,32.5
			c-0.2,14.3-0.1,28.5-0.4,42.8c0,1.2,0.5,1.9,1.4,2.3c1,0.4,1.9,0.8,3.1,0.8c9.6-0.1,19.1,0,28.7-0.2c15.4-0.3,30.7,0.1,46.1-0.2
			c15.3-0.3,30.5,0.1,45.8-0.2c15.4-0.3,30.9,0.1,46.3-0.2c15.2-0.3,30.5,0.1,45.7-0.2c15.4-0.3,30.8,0.1,46.2-0.2
			c15.2-0.3,30.5,0.1,45.7-0.2c15.5-0.3,31,0.1,46.5-0.2c15.1-0.3,30.2,0.1,45.3-0.2c15.6-0.3,31.1,0,46.7-0.2
			c12.4-0.2,24.9,0,37.3-0.1c1.8,0,3.7,0.1,5.5-0.3C516.4,361.8,516.4,300.2,516.4,238.5z M14.9,235.5c0.5,0,1,0,1.4,0
			c6.8-0.1,13.7,0,20.5-0.1c13.8-0.2,27.7-0.1,41.5-0.1c0.4,0,0.7,0,1.1,0c1.9-0.4,3.9-0.2,5.8-0.1c5.2,0.2,10.4,0.7,15.6,0.8
			c3.4,0.1,6.8-0.7,10.2-0.7c5.1,0,10.2,0.2,15.3,0.1c2.7-0.1,5.5-0.1,8.2,0.1c1.9,0.2,3.9,0.1,5.9,0c1.9-0.1,3.7-0.2,5.6,0
			c1.8,0.2,3.6,0.6,5.4,0.2c1.9-0.3,3.8-0.5,5.7-0.4c2.2,0.2,4.4,0.6,6.6,0.7c6,0.2,12,0,17.9-0.4c4.4-0.3,8.8,0.1,13.2-0.2
			c3.4-0.2,6.8-0.1,10.2-0.2c3.6-0.1,7.3,0,10.9,0.1c4.8,0.1,9.6,0.7,14.4,0.5c2.7-0.1,5.5,0,8.3-0.2c2.2-0.2,4.4-0.1,6.6,0.1
			c2.3,0.2,4.5-0.1,6.8-0.2c0.8,0,1.7,0,2.5,0c3.5-0.3,6.9-0.6,10.4-0.4c2.3,0.1,4.6,0.1,6.9,0c4.9-0.2,9.7-0.7,14.6-0.6
			c13.8,0.3,27.6-0.1,41.4,0.3c3.3,0.1,6.6-0.1,9.9-0.1c4.3-0.1,8.6-0.3,12.9-0.2c7.9,0.3,15.9,0.1,23.8,0.3
			c3.6,0.1,7.3-0.4,10.9-0.2c2.2,0.1,4.3,0,6.5,0c5.5,0.1,10.9,0,16.4,0.2c6.3,0.2,12.7,0.1,19,0.5c2.5,0.2,5.1-0.1,7.6-0.1
			c13.4-0.3,26.8,0.2,40.2-0.3c3.9-0.1,7.7,0,11.6,0.1c4.7,0.2,9.5-0.2,14.2-0.4c4.9-0.2,9.7,0,14.6-0.2c4.1-0.2,8.2-0.1,12.2-0.1
			c2.3,0,2.3,0,1.8-2.1s-0.5-4.3-0.3-6.5c0.4-3.1-0.7-5.9-1.6-8.8c-0.3-0.8-1-1-1.8-1.1c-1.3,0-2.5,0.2-3.8,0.2
			c-12.2,0.2-24.4-0.2-36.6,0.2c-7.3,0.2-14.5,0.1-21.8,0.2c-13.3,0.3-26.6,0.1-39.9,0.3c-13.4,0.2-26.8,0.1-40.3,0.1
			c-5.1,0-10.1-0.1-15.2-0.2c-10.7-0.1-21.5-0.4-32.2,0.4c-3.1,0.2-6.1-0.1-9.2-0.1c-5.9-0.1-11.9-0.1-17.8,0.1
			c-10.3,0.3-20.7,0.1-31,0.2c-22.2,0.2-44.4,0-66.6,0.3c-8.1,0.1-16.3-0.1-24.4,0.2c-6.6,0.2-13.2,0.1-19.8,0.2
			c-13.3,0.2-26.5-0.2-39.8,0.3c-3.9,0.1-7.8,0-11.7,0.2c-5.5,0.3-10.9,0.2-16.4,0.2c-13.4,0.1-26.9,0.1-40.3,0.3
			c-5.1,0.1-10.3-0.1-15.4,0.2c-4,0.2-8.1,0.2-12.1-0.1c-4.6-0.4-9,0.3-13.3,1.9c-1,0.4-1.7,1.1-1.9,2.4c-0.2,1-0.2,2-0.2,3
			C15.9,229.3,15.6,232.3,14.9,235.5z M479.5,196.8c-0.1-1.8,0.2-3.6,0.3-5.3c0.2-3.5,0.6-7,0.9-10.5c0.2-2.2,0.3-4.4,0.5-6.5
			c0.3-3.4,0.6-6.7,0.9-10.1c0.2-2.3,0.3-4.5,0.5-6.8c0.3-3.4,0.6-6.9,0.9-10.3c0.2-2.2,0.3-4.4,0.5-6.5c0.3-3.5,0.6-7,0.9-10.6
			c0.2-2.1,0.3-4.3,0.5-6.4c0.3-3.4,0.6-6.7,0.9-10.1c0.2-2.3,0.3-4.5,0.5-6.8c0.3-3.5,0.6-7,0.9-10.5c0.2-2.1,0.3-4.3,0.5-6.4
			c0.3-3.3,0.6-6.6,0.9-9.9c0.2-2.3,0.3-4.7,0.5-7c0.4-4.2,0.8-8.3,1.2-12.5c0.3-3.3,0.5-6.7,0.8-10c0.4-4.2,0.8-8.3,1.2-12.5
			c0.3-3.6,0.5-7.3,1-10.9c0.1-0.6-0.1-0.9-0.7-1c-0.7-0.1-1.3-0.5-2-0.7c-0.5-0.2-1-0.5-1-0.9c0-0.7-0.5-0.9-1-1
			c-2.7-0.7-5.4-1.3-8.2-1.2c-2.4,0-4.7,0.2-7.1,0.2c-6.9,0.2-13.8,0.3-20.7,0.5c-11.2,0.4-22.5,0.8-33.7,1.2
			c-8.3,0.3-16.5,0.5-24.8,0.8c-8.2,0.3-16.4,0.7-24.6,0.8c-8.6,0.1-17.1,0.1-25.7-0.1c-10.8-0.2-21.5-0.1-32.3,0.1
			c-19.8,0.2-39.5,0.2-59.3,0.7c-13.8,0.3-27.6,0.1-41.4,0.3c-14.3,0.2-28.6,0-43,0c-9.2,0-18.4,0-27.6,0.1c-2.6,0-5.2,0.1-7.7,0.9
			c-1.1,0.3-2.3,0.5-3.4,0.5c-18,0-36.1,0.3-54.1,0.3c-11.7,0.1-23.4-0.1-35.1-0.6c-1.5-0.1-3-0.1-3.7,1.6c0,0.1-0.2,0.2-0.3,0.3
			c-1.6,1-1.5,2.5-1.3,4.1c0.3,3.3,0.6,6.6,0.9,9.9c0.3,3,0.5,6,0.8,8.9c0.4,4.2,0.8,8.3,1.1,12.5c0.3,3,0.5,6,0.8,9.1
			c0.3,3.2,0.6,6.4,0.9,9.7c0.3,3.1,0.5,6.1,0.8,9.2c0.4,4.1,0.8,8.2,1.1,12.3c0.3,3.1,0.5,6.1,0.8,9.2c0.4,4.1,0.8,8.2,1.1,12.3
			c0.3,3.1,0.5,6.1,0.8,9.2c0.3,3.3,0.6,6.6,0.9,9.9c0.3,3,0.5,6,0.8,8.9c0.4,4.1,0.8,8.1,1.1,12.1c0.4,4,0.7,7.9,1,11.9
			c0.4,4.3,0.8,8.6,1.2,12.9c0.2,2,0.4,3.9,0.6,6c0.5,0,0.9,0,1.3,0c2.8-0.1,5.7-0.2,8.5-0.2c11.3,0,22.6-0.1,33.8-0.1
			c15.9,0,31.8-0.1,47.6-0.4c8.7-0.1,17.4,0.2,26.1,0c9.4-0.2,18.9-0.2,28.3,0.1c10.2,0.2,20.4-0.2,30.6-0.3
			c17.9-0.1,35.8-0.7,53.7-0.7c6,0,12.1-0.1,18.1-0.1c38.6,0,77.1,0,115.7,0c20.9,0,41.7-0.2,62.6,0.2
			C477.4,196.6,478.4,197,479.5,196.8z M524.8,238.7c0,0.7-0.4,1.2-0.9,1.6c-0.3,0.2-0.5,0.4-0.5,0.8c0,2.2-0.5,4.4-0.5,6.6
			c0.1,7.7,0.2,15.3,0.2,23c0.1,34.7-0.2,69.4,0.2,104.1c0.2,15.6,0,31.3,0.1,46.9c0,0.3,0,0.6,0,1c0.3,1.7,0.7,2.7,2.9,2.7
			c2.5-0.1,5-0.2,7.5-0.2c1.7,0,2.1-0.4,2-2c-0.1-10.7,0.1-21.3-0.1-32c-0.1-6-0.1-12.1-0.1-18.1c-0.1-35,0.2-70-0.2-105
			c-0.1-8.2-0.1-16.5-0.1-24.7c0-1.3,0.1-2.6-1.4-3.2c-0.2-0.1-0.3-0.3-0.3-0.5c-0.1-0.9-0.7-0.9-1.3-0.9
			C530,238.7,527.4,238.7,524.8,238.7z M10.7,240.1c-0.3,0.6-0.2,1.1-0.2,1.5c0,29.5,0,58.9,0.2,88.4c0.2,28,0,56,0.1,84
			c0,4.3,0.2,8.6,0.2,12.9c0,0.8,0.2,1.1,1.1,1.3c2.1,0.5,4-0.2,6.1-0.1c0.4,0,0.6-0.3,0.9-0.5c1.3-1,1.3-2.5,1.3-3.9
			c-0.1-57,0.2-114-0.1-171c0-4.2,0-8.3,0-12.6C17,239.9,13.8,240.1,10.7,240.1z M48.3,25.9c2.3,0.3,4.5-0.3,6.7-0.1
			c2,0.1,3.9,0,5.9,0c12.4-0.2,24.9-0.4,37.3-0.5c10.7-0.1,21.4-0.4,32.1-0.6c14-0.4,28-0.4,42-0.6c4.9-0.1,9.8,0.6,14.7-0.2
			c0.9-0.2,2-0.7,2.8-0.4c2.2,0.8,4.4,0.5,6.6,0.4c5.5-0.2,11-0.2,16.6-0.3c8.6,0,17.1,0,25.7-0.2c0.6,0,1.3,0.2,1.6-0.7
			c-0.4,0-0.7-0.1-1-0.1c-31.2,0.1-62.5-0.1-93.7,0.2c-28.8,0.2-57.6,0.1-86.3,0c-2.4,0-4.8,0.4-7.1-0.6c-0.5-0.2-1,0-1.5,0.3
			C49.5,23.4,48.7,24.4,48.3,25.9z M479.5,19.4c-0.4-1-1.2-1.3-2-1.3c-1.5,0-3.1,0.1-4.6,0.1c-4.3,0.1-8.6-0.1-12.9,0.2
			c-4.9,0.3-9.9-0.1-14.9,0.2c-4.9,0.3-9.7-0.1-14.6,0.2c-4.9,0.3-9.7,0.2-14.6,0.2c-7.8,0.1-15.6,0.4-23.4,0.3
			c-2.2,0-4.3,0.1-6.5,0.1c-6.8,0.1-13.7,0.2-20.5,0.5c-5.6,0.2-11.3,0.4-16.9,0.5c-4.9,0.1-9.8,0.2-14.6,0.2
			c-14.1,0.1-28.2,0.1-42.2,0.1c-0.7,0-1.2,0.1-1.5,0.8c0.5,0.8,1.2,0.9,2.1,0.9c8-0.1,16,0,24-0.2c9.8-0.3,19.6,0,29.4-0.2
			c17.7-0.4,35.5-0.6,53.2-0.9c22.2-0.3,44.5-0.2,66.7-0.8C470.2,20.3,474.8,20.3,479.5,19.4z M264.2,308.8c0.6,0.1,1.2,0.2,1.7,0.3
			c5.3,0.5,10.6,0.4,15.9,0c2-0.1,3-0.9,3.4-2.7c0.3-1.1,0.5-2.3,0.5-3.4c0.2-4.7-0.1-9.4-0.3-14.1c-0.3-6.1-0.2-12.3,1.2-18.3
			c0.3-1.3,0.6-2.7,0.6-4.1c-0.1-2.3-0.9-4.3-2.9-5.6c-4.1-2.8-8.5-4.4-13.5-3.4c-1.9,0.4-3.4,1.6-5.2,2.3c-3.8,1.5-5.5,4.4-5.6,8.4
			c0,2.3,0,4.6,0.3,6.9c0.3,2.6-0.1,5.3,0,7.9c0.2,5.3-0.4,10.5-1.1,15.7c-0.4,2.6-0.3,5.2,0.7,7.6c0.7,1.7,2,2.6,3.5,2.3v-0.1
			c-0.2-0.2-0.4-0.4-0.5-0.6c-1.3-1.4-2-3.2-2-5.1c0-3.9,0.1-7.7,0.2-11.6c0-2,0.5-4.1,0.2-6.1c-0.3-2.1-0.1-4.2,0.2-6.3
			c0.4-3,0.8-5.9,0.2-8.9c-0.6-2.8-0.1-5.7,2.3-7.6c5.5-4.5,12.5-5.3,18.6-1.3c1,0.6,1.6,1.5,1.8,2.7c0.3,2.2,0.5,4.4,0.4,6.7
			c-0.4,6.1-0.7,12.1-1.1,18.2c-0.3,5.2-0.6,10.4-0.5,15.7c0,1.6-0.6,3-2.1,3.7c-1.4,0.7-3,0.9-4.5,0.8
			C272.4,308.3,268.3,308.6,264.2,308.8z M280.9,297.7c-0.4-0.2-0.8-0.2-1.2-0.2c-4.7,0-9.4,0-14.1,0c-0.5,0-1,0.1-1.5,0.1
			s-0.8,0.3-1,0.7c-1.2,2,0.3,5.9,2.6,6.4c3.2,0.7,6.3,1.5,9.6,1.3c2.9-0.1,5.3-1.7,5.9-4.1C281.5,300.6,281.3,299.1,280.9,297.7z
			 M271.3,286.2c1.6,0.5,2.7,0.6,3.4,0.2c1.4-0.8,2.8-3.9,2.3-5.4c-0.5-1.3-0.4-2.6-0.4-3.9c0-0.8,0.2-1.7-0.1-2.5
			c-0.3-0.7,0-1.1,0.5-1.5c1-0.8,1.7-1.8,1.7-3c0-2-0.2-4-0.5-6.1c-0.1-0.5-0.5-1-1.1-1.2c-1-0.3-2-0.5-2.5-1.7
			c-0.2-0.4-1.1-1-1.3-0.2c-0.4,1.5-1.5,1.7-2.6,2c-1.9,0.5-2.3,1.3-1.9,3.2c0.3,1.1,0.4,2.2,0.1,3.4c-0.2,1-0.4,2.1,0.6,2.9
			c1.2,0.9,1.5,2.1,1.5,3.5C271,279.5,270.7,282.8,271.3,286.2z M284.7,255.2c0.8-1,0.8-1.7-0.2-2.4c-1.1-0.8-1.6-1.9-1.6-3.2
			c-0.1-2.6,0.1-5.1,0.4-7.6c0.2-1.7-0.4-2.4-2.1-2.4c-5.4,0-10.8,0-16.2,0c-1.7,0-2.2,0.5-2.2,2.2c0.1,2.6,0.2,5.2,0.4,7.8
			c0.1,1,0,1.9-0.7,2.7c-1.4,1.6-1.3,2.7,0.7,3.8c0.1-1,0.8-1.8,1.4-2.6c0.5-0.6,0.7-1.2,0.9-1.9c0.6-2.9,0.9-5.8,0.5-8.8
			c-0.2-1.3,0.4-1.8,1.7-1.9c1.4,0,2.9,0.1,4.3-0.1c2.3-0.4,4.7-0.4,7-0.3c1.4,0,1.8,0.5,1.8,2c0,1.9,0.1,3.7,0.4,5.6
			c0.2,1.8-0.3,3.5-1.5,5c-0.4,0.4-0.9,0.6-1.2,1.1c0.6,0.9,0.6,0.9,1.5,0.3c1.3-1,2.5-1,3.8-0.1
			C284.1,254.6,284.3,254.9,284.7,255.2z M255.5,19.1c0.9-0.2,1.4-0.8,1.9-1.4c0.5-0.4,1-0.8,1.7-0.5c1.9,0.6,3.8,0.5,5.7,0.3
			c2.2-0.2,4.4-0.7,6.7-0.5c1.4,0.1,1.9,0.7,2,1.9c0,0.6,0.1,1.3-0.2,1.9c-0.6,1.1-0.1,1.4,0.9,1.6c3.6,0.5,7.2,0.1,10.7-0.8
			c0.3-0.1,0.8-0.1,0.9-0.7c-2.1-0.2-4.1-0.5-6.2-0.7c-2-0.2-3.6-1.2-4.7-3c-0.8-1.3-2-2.1-3.6-2.2c-3.5-0.2-7-0.3-10.5,0.1
			c-2,0.2-4.1,0.4-5.2,2.5c-0.7,1.4-1.9,2.1-3.2,2.7c-1.6,0.8-3.2,1.1-4.9,1.4c-0.8,0.1-1.7-0.1-2.8,0.6c5.2,0.6,10.1,0.9,15,0.5
			C257.9,22,256.4,21.1,255.5,19.1z M38.9,25.7L38.9,25.7c1.5,0,3,0,4.6,0c0.8,0,1.5-0.3,2-0.9c1-1.4,2.3-2.6,3-4.2
			c0.2-0.5,0.5-1,0.2-1.6s-1-0.6-1.6-0.6s-1.1,0.2-1.7,0.1c-3.3-0.3-6.5-0.1-9.8,0c-0.9,0-1.4,0.4-1.8,1.2c-0.4,1-0.9,2-1.4,3
			c-0.8,1.8-0.1,2.9,1.8,3C35.8,25.8,37.3,25.7,38.9,25.7z M290.7,240c0.2,0.4,0.6,0.2,1,0.2c3.2,0.1,4.7,1.6,4.8,4.7
			c0.1,5.4,0.2,10.7,0.3,16.1c0,2.5-0.1,5.1-1.7,7.2c-2,2.6-2.4,5.6-2.7,8.7c-0.3,3.2-0.6,6.4-1.6,9.5c-0.8,2.3-2,4.5-2.8,6.9
			c2.8-0.5,4-1.8,4.2-4.4c0.1-0.8,0.2-1.6,0.3-2.4c0.6-4.2,1.8-8.4,2.3-12.6c0.2-1.5,0.4-3.2,1.8-4.1c0.7-0.5,1-1.1,1.1-1.8
			c0.3-1.6,0.7-3.1,0.6-4.7c-0.2-5-0.5-10-0.8-14.9c-0.2-2.2,0-4.4-0.4-6.6c-0.3-1.6-0.9-2.3-2.6-2.3c-1.2,0-2.3,0.2-3.5,0.2
			C290.9,239.7,290.7,239.8,290.7,240z M485,12.3c-1.2,0-2.5,0-3.7,0c-0.5,0-1.1,0.2-1.3,0.7c-0.2,0.6-0.1,1.1,0.4,1.5
			c0.3,0.2,0.5,0.5,0.8,0.7c0.8,0.6,1.6,1.1,2,2.1c0.4,0.8,1.1,1.3,2.2,1.2c0.7,0,1.4,0.1,2.1,0.1c2.8,0,5.5,0.5,8.3-0.4
			c1.1-0.3,1.4-0.9,0.7-1.8c-0.7-0.9-1.4-1.7-2.1-2.6c-1.2-1.5-2.8-2.1-4.7-1.8C488.2,12.3,486.6,12.3,485,12.3z M260.3,242.6
			c-2.1-0.3-3.9,0.4-5.8,0.5c-1,0.1-1.7,0.9-2,1.9c-0.3,0.9-0.2,1.7-0.2,2.6c-0.1,2.2,0.1,4.3,0.4,6.6c1.3-0.3,2.4-0.5,3.6-0.3
			s2.2-0.3,2.9-1.3c0.6-0.8,1-1.7,1.2-2.7C261,247.5,260.3,245.1,260.3,242.6z M294,253.8c0-3.2,0-6.3,0-9.3c0-0.7-0.5-1.2-1.3-1.4
			c-1.7-0.3-3.4-0.7-5.2-0.6c-1,0.1-1.5,0.6-1.6,1.5c0,1,0,1.9,0,2.9c0,1.8,0.4,3.5,1.2,5.1c0.3,0.5,0.6,1,1.2,1
			C290.2,252.8,292,253.2,294,253.8z M265.3,264.2c-1,1.2-1.9,2.3-1.3,4c0.3,0.8,0.3,1.7,0.3,2.6c-0.1,5.5,0.2,11,0.5,16.5
			c0.1,1.5,1,2.7,2.5,3c1.8,0.4,3.6,0.4,5.5-0.1c-2.7-0.3-3.5-2.2-4.1-4.4c-0.7-2.7-0.5-5.4-0.5-8.1c0-1.4-0.4-2.7-1.1-3.9
			c-1.3-2.1-1.8-4.4-1.3-6.8C265.7,266,266,265.1,265.3,264.2z M257.2,292.1c0.4-1.1,0.1-2-0.2-2.9c-2.1-5.5-3.2-11.1-3-17
			c0.1-2.3-0.5-4.5-2.1-6.3c-0.9-1-1.2-2.2-1.3-3.4c-0.1-1.2-0.2-2.3-0.2-3.5c-0.1-3.9-0.1-7.8-0.4-11.7c-0.2-2.9,0-5.4,2.6-7.2
			c-0.2-0.3-0.4-0.3-0.6-0.3c-1.5,0-3.1,1.9-3.1,3.8c0.1,3.1,0.3,6.3,0.5,9.4c0.2,3,0.2,6,0,9c-0.3,3.2,0,6.3,2.3,8.9
			c0.6,0.7,0.9,1.7,1,2.6C253,280,254.8,286,257.2,292.1z M280.8,290.1c0.3-4,0.6-8,0.9-12c0.2-2.4,0.3-4.8,0.6-7.3
			c0.2-2.2,0.2-4.3,0.1-6.5c-0.1-1.5-0.8-2-2.1-1.9c-0.2,0.5,0.1,0.9,0.3,1.4c0.5,1.9,0.8,3.9,0.2,5.8c-1.2,3.9-1.7,7.8-1.7,11.9
			c0,3.1-0.2,6-2.7,8.5C277.9,290,279.3,290.4,280.8,290.1z M279.1,248.3c0-1.1,0.1-2.3,0-3.5c-0.1-0.9-0.5-1.4-1.6-1.4
			c-2.9,0-5.7,0.2-8.6,0.5c-0.5,0-0.9,0.2-1.1,0.6c-0.4,1.2-0.4,2.5,0.2,3.6c0.5,0.9,1.6,0.6,2.4,0.5c2.1-0.3,4.2-0.4,6.3-0.5
			C277.5,248.2,278.2,248.6,279.1,248.3z M286.4,259.2c2.1,1.1,2.7,3,3,5c0.1,0.7,0.4,1.3,1.1,1.5s1.3,0,1.8-0.5
			c1.8-1.6,2.5-4.2,1.6-6.4c-0.9-2.2-2.7-3.6-5.5-1.8C287.6,257.6,287,258.3,286.4,259.2z M255.4,265.9c1.4,0,2.2-0.6,2.3-1.6
			c0.2-2,1.4-3.5,2.5-5c0.8-1.1,0.7-2-0.6-2.3c-1.9-0.5-3.7-0.1-5.3,1.1c-1,0.8-1.5,1.9-0.8,3.2c0.3,0.5,0.2,1,0,1.5
			C252.6,264.5,254.1,265.7,255.4,265.9z M262.7,292.2c-0.3,2.3,0.4,3.1,2.6,3.1c1.2,0,2.4,0,3.6,0c4.1,0.1,8.1-0.3,12.2-0.8
			c0.1-0.8-0.1-1.3-0.9-1.4c-2.9-0.6-5.8-0.6-8.7-0.3C268.5,293,265.6,292.7,262.7,292.2z M288.7,284.8c1.4-5.2,1.5-10.7,3.4-15.7
			c-0.2-0.4-0.4-0.5-0.7-0.6c-1.3-0.7-1.8-0.3-1.9,1.2c-0.1,1.8-0.4,3.6-0.6,5.3C288.4,278.2,287.9,281.5,288.7,284.8z M277,251.5
			c-1.9-1-3.8-0.6-5.9-0.6c0.6,1.2,0.2,2.9,1.9,3.1C275,254.3,276.1,253.1,277,251.5z M257,269.2c-0.1,0-0.3,0-0.4,0
			c-1,3.1,0.1,6.1,0.4,9.2C257,275.3,257,272.3,257,269.2z"/>
		<path class="st1" d="M516.4,238.5c0,61.7,0,123.3,0,184.9c-1.9,0.4-3.7,0.3-5.5,0.3c-12.4,0-24.9-0.1-37.3,0.1
			c-15.6,0.3-31.1-0.1-46.7,0.2c-15.1,0.3-30.2-0.1-45.3,0.2c-15.5,0.3-31-0.1-46.5,0.2c-15.2,0.3-30.5-0.1-45.7,0.2
			c-15.4,0.3-30.8-0.1-46.2,0.2c-15.2,0.3-30.5-0.1-45.7,0.2c-15.4,0.3-30.9-0.1-46.3,0.2c-15.3,0.3-30.6-0.1-45.8,0.2
			c-15.4,0.3-30.7,0-46.1,0.2c-9.6,0.2-19.1,0.1-28.7,0.2c-1.1,0-2.1-0.4-3.1-0.8s-1.5-1.1-1.4-2.3c0.3-14.3,0.1-28.6,0.4-42.8
			c0.2-10.8-0.1-21.7,0.2-32.5c0.3-10.9-0.1-21.8,0.2-32.6c0.3-10.9-0.1-21.8,0.2-32.7c0.3-10.9,0-21.8,0.2-32.7
			c0.1-3,0.2-6.1,0.2-9.3c73.2,0.3,146.3-0.2,219.6-0.5c-0.5,1.2-1.1,2.1-1.3,3.2c-0.4,1.9,0.1,3.8,0.3,5.7c0.2,1.4,0.3,2.7,0.1,4
			c-0.4,2.4,0.1,4.9-0.4,7.3c-0.2,0.9-0.3,1.9-0.5,2.8c-0.6,2.7,0.1,5.2,1.7,7.3c2.1,2.9,3.1,6.1,3.6,9.5c0.7,4.2,1.6,8.3,2.6,12.4
			c0.1,0.5,0.3,0.9,0.6,1.3c1.9,1.9,2.4,4.3,2.5,6.9c0.2,2.1,0.3,4.3,1,6.3c1.3,3.8,4.1,5.2,7.8,5.6c3.6,0.3,7.1,0.2,10.7,0
			c2.5-0.2,5-0.3,7.5-0.8c3.4-0.7,4.5-2.5,4.7-6.4c0.1-2.5,0.2-4.9,0.5-7.4c0.2-1.6,0.6-1.9,2.2-2.1c2.1-0.3,4-2.1,4.3-4.7
			c0.5-4.7,1.7-9.2,2.4-13.8c0.1-0.8,0-1.6,0.2-2.4c0.2-1.2,0.7-2.2,1.4-3.1c2.2-2.5,2.2-5.6,2.1-8.7c-0.2-5.7-0.5-11.4,0.1-17.1
			c0.2-2.1,0-4.1-0.9-6.2C372.6,239.3,444.5,239.1,516.4,238.5z M480.6,266.1c0-2.3,0.1-4.5,0-6.8c-0.1-2.8-2.3-4.8-5.2-4.7
			c-2.2,0-4.1,2.3-4.1,4.9c0,1.2,0.2,2.4,0.2,3.6c0.1,11.9-0.1,23.7,0.2,35.6c0.2,11.9,0.1,23.8,0.2,35.7
			c0.2,23.1,0.1,46.2,0.1,69.4c0,1,0,2-0.1,3c-0.3,2.6,0,5.2,0.9,7.8c0.4,1.1,1.1,1.4,2.1,1.1c1-0.2,1.9-0.4,2.9-0.5
			c1.6-0.2,2.8-1.5,2.8-3.1c0-1.2-0.2-2.3-0.2-3.5c0.2-18-0.2-35.9,0.1-53.9c0.1-7.7,0-15.4-0.1-23.1c-0.2-12-0.2-24,0.1-36
			C480.7,285.8,480.5,276,480.6,266.1z M141.9,270.5c-0.1-4.1,0-8.2-0.2-12.3c-0.1-1.7-0.8-2.9-2-3.8c-1.4-1.1-3-1.1-4.5-0.5
			s-1.6,2.1-1.5,3.4c0.2,2.6,0.7,5.3,0.7,7.9c0,3.7-0.4,7.5-0.4,11.2c0.1,19.2-0.1,38.5,0.2,57.7c0.2,18,0.1,36.1,0,54.1
			c0,2.5-0.4,5-0.2,7.5c0.2,2.8,0.2,5.7,0.1,8.5c-0.1,3.3-0.2,6.7-0.2,10c0,1.1,0.7,1.7,1.8,1.8c1.2,0,2.5,0,3.7,0
			c1.1,0.1,1.8-0.5,2.3-1.3s0.8-1.7,0.9-2.7c0.1-1.7-0.3-3.4-0.3-5.1c0.1-19.3-0.3-38.7,0.2-58c0.1-3.2,0.1-6.4-0.1-9.6
			c-0.3-4.4-0.1-8.8-0.2-13.2c-0.3-15.7,0.2-31.3-0.3-47C141.8,276.3,141.9,273.4,141.9,270.5z M198.7,267.9c0-1.7,0-3.4,0-5
			c-0.1-2.8-0.9-3.9-3.6-4.5c-4.2-1-7,2-6.9,5.2c0.1,2.1,0.6,4.2,0.5,6.3c-0.1,7.4-0.1,14.8,0.1,22.2c0.1,4.9,0.4,9.7,0.2,14.6
			c-0.2,6.1,0.3,12.1,0,18.2c-0.1,3.3,0.1,6.5,0.1,9.8c0,2.4-0.3,4.9-0.2,7.3c0.3,4.4,0.2,8.7,0.3,13.1c0,9.9,0,19.8-0.1,29.8
			c0,9.2,0.2,18.3-0.2,27.5c-0.1,1.1,0.2,2,1.1,2.8c1.6,1.4,3.5,1,5.3,0.8c1.5-0.1,2-0.9,2-2.5c0-6,0-11.9,0.2-17.9
			c0.3-7.8,0-15.7,0.2-23.5c0.1-4.8,0.1-9.7,0.2-14.5c0.2-5.8,0.1-11.7,0.2-17.5c0.2-11,0.1-21.9,0.2-32.9
			C198.5,294,198.4,280.9,198.7,267.9z M368.6,267.3c0-1.4,0-2.9,0-4.3c0-2.1-0.9-3.3-2.9-3.8s-4.6-0.2-5.4,2.1
			c-0.5,1.4-0.6,3-0.4,4.6s0.4,3.3,0.4,5c-0.1,5.5,0.2,10.9-0.2,16.4c-0.3,4-0.1,8-0.2,12.1c-0.1,7.5-0.3,14.9,0.1,22.4
			c0.3,4.1-0.1,8.3,0.2,12.4c0.2,2,0.1,4.1-0.1,6.2c-0.3,2.9-0.2,5.8-0.2,8.7c-0.2,13.7,0.2,27.4-0.3,41.1c-0.1,3.1-0.1,6.2-0.3,9.3
			c-0.1,1.5-0.1,3-0.2,4.5c-0.2,3-0.5,5.9-0.7,8.9c-0.1,1,0.5,1.6,1.4,1.9c1.8,0.6,3.4-0.1,4.9-1.1c0.8-0.5,1.3-1.3,1.6-2.4
			c0.3-1.4,0.3-2.8,0.3-4.1c0.3-5.1-0.1-10.3,0.3-15.4c0.3-4.3-0.1-8.6,0.2-12.9c0.3-4.4,0-8.8,0.2-13.2c0.3-5.1,0-10.1,0.2-15.2
			c0.3-6.5,0-12.9,0.2-19.4c0.4-10.4-0.2-20.8,0.3-31.1c0.2-4.4,0-8.8,0.2-13.3C368.6,280.2,368.2,273.8,368.6,267.3z M77.3,336.3
			c0.2,16.8-0.3,37.9,0.2,58.9c0.1,5.5,0.2,11-0.2,16.5c-0.1,2,1.2,3.3,3.2,3.3c2.1,0.1,4-2.1,4-4.7c-0.1-25.7,0.3-51.5-0.2-77.2
			c-0.3-15.3,0.2-30.6-0.2-45.9c-0.2-9.1-0.1-18.2,0-27.4c0-1.5-0.5-2.8-1.3-3.9c-0.9-1.2-2.3-1.5-3.7-1.2c-1.2,0.2-2.1,0.9-2.4,2.2
			c-0.5,1.9-0.5,3.8-0.2,5.7c0.5,3.1,0.8,6.1,0.8,9.2C77.3,291.9,77.3,312,77.3,336.3z M417.4,399.5c0,4.2,0,8.4,0,12.6
			c0,2.8,0,3,2.6,3.3c2.7,0.3,3.7,0.7,3.7-2.8c0.1-12.8-0.2-25.6,0.2-38.4c0.2-6.6,0.1-13.3,0.3-19.9c0.2-10.5,0.1-21,0.1-31.5
			c0-16.3,0-32.6,0-48.9c0-3.6,0.3-7.3,0.2-10.9c-0.1-3.2-1.8-5.7-5.3-5.4c-2.2,0.2-2.7,0.5-2.6,2.7c0.1,8.2,0,16.4,0.2,24.6
			c0.3,16.6-0.2,33.2,0.5,49.8c0.2,5.7,0,11.5,0,17.3c0,2.5,0.4,5,0.2,7.5c-0.2,2.8-0.2,5.5-0.2,8.3c0,6.5,0,13.1,0.2,19.6
			C417.5,391.4,417.4,395.5,417.4,399.5z M301.7,403.3c0,3.2,0.1,6.4,0,9.6c0,1.2,0.6,1.9,1.5,2.3c0.5,0.2,1,0.3,1.6,0.4
			c2.7,0.3,4.3-1,4.4-3.2c0.1-2.3,0.1-4.5,0.2-6.8c0.1-3.9,0.1-7.9,0.3-11.8c0.1-2,0-4,0.2-6c0.3-2.7,0-5.5,0.3-8.2
			c0.2-2,0.1-4.1,0.2-6.2c0.2-4.3,0.4-8.7,0.5-13c0.1-3.3,0.3-6.7,0.5-10c0.2-4.2,0.3-8.3,0.5-12.5c0.1-2.3,0-4.6,0-6.8
			c0-2.7-1.9-4.5-4.6-4.4c-1.7,0.1-4,2-4,3.5c-0.1,1.6-0.2,3.3-0.2,4.9c-0.2,8.9,0.1,17.7-0.3,26.6c-0.1,2.6,0,5.2,0.2,7.8
			c0.2,3.4-0.6,6.7-0.6,10c0,5.5-0.3,10.9-0.5,16.3C301.6,398.3,301.7,400.8,301.7,403.3z M247,408.5c0,1.4,0,2.9,0,4.3
			c0,1,0.6,1.7,1.4,2.1c1.1,0.5,2.2,0.5,3.4,0.3c2.2-0.5,2.7-2.8,2.4-4.9c-0.2-1.5-0.4-3-0.4-4.5c0-2.4,0.1-4.8,0.2-7.2
			c0.4-10.7-0.3-21.4,0.4-32.1c0.5-7.5,0.1-15,0.1-22.5c0-0.5,0.1-1,0.1-1.5c0.2-2.6,0.3-5.3-1.1-7.7c-0.9-1.5-2-1.9-4.1-1.3
			c-1.3,0.4-1.9,1.3-1.9,2.9c-0.1,11.8,0.3,23.6-0.2,35.3c-0.2,4.8,0.1,9.6-0.2,14.5c-0.1,1.9,0.1,3.9,0.2,5.8
			C247.2,397.5,247.3,403,247,408.5z"/>
		<path class="st1" d="M14.9,235.5c0.7-3.1,0.9-6.2,0.9-9.2c0-1,0-2,0.2-3c0.2-1.2,0.9-2,1.9-2.4c4.3-1.6,8.7-2.3,13.3-1.9
			c4,0.4,8.1,0.3,12.1,0.1c5.2-0.2,10.3-0.1,15.4-0.2c13.4-0.2,26.9-0.2,40.3-0.3c5.5-0.1,10.9,0.1,16.4-0.2
			c3.9-0.2,7.8-0.1,11.7-0.2c13.3-0.4,26.5,0,39.8-0.3c6.6-0.1,13.2,0,19.8-0.2c8.2-0.3,16.3-0.1,24.4-0.2
			c22.2-0.3,44.4-0.1,66.6-0.3c10.3-0.1,20.7,0.1,31-0.2c6-0.2,11.9-0.2,17.8-0.1c3.1,0.1,6.1,0.4,9.2,0.1
			c10.7-0.8,21.5-0.5,32.2-0.4c5.1,0.1,10.1,0.2,15.2,0.2c13.4,0,26.8,0.1,40.3-0.1c13.3-0.2,26.6,0,39.9-0.3
			c7.3-0.1,14.5,0,21.8-0.2c12.2-0.4,24.4-0.1,36.6-0.2c1.3,0,2.5-0.3,3.8-0.2c0.8,0,1.5,0.2,1.8,1.1c1,2.9,2,5.7,1.6,8.8
			c-0.3,2.2-0.3,4.3,0.3,6.5c0.5,2.1,0.5,2.1-1.8,2.1c-4.1,0-8.2-0.1-12.2,0.1c-4.9,0.3-9.7,0-14.6,0.2c-4.7,0.2-9.5,0.6-14.2,0.4
			c-3.9-0.2-7.7-0.3-11.6-0.1c-13.4,0.4-26.8,0-40.2,0.3c-2.5,0.1-5.1,0.3-7.6,0.1c-6.3-0.4-12.7-0.3-19-0.5
			c-5.5-0.2-10.9-0.1-16.4-0.2c-2.2,0-4.3,0-6.5,0c-3.6-0.1-7.3,0.3-10.9,0.2c-7.9-0.2-15.9,0-23.8-0.3c-4.3-0.1-8.6,0.1-12.9,0.2
			c-3.3,0-6.6,0.2-9.9,0.1c-13.8-0.4-27.6,0-41.4-0.3c-4.9-0.1-9.7,0.5-14.6,0.6c-2.3,0.1-4.6,0.1-6.9,0c-3.5-0.2-6.9,0.1-10.4,0.4
			c-0.8,0.1-1.7,0-2.5,0c-2.3,0.1-4.6,0.3-6.8,0.2c-2.2-0.2-4.4-0.3-6.6-0.1c-2.8,0.2-5.5,0.1-8.3,0.2c-4.8,0.2-9.6-0.4-14.4-0.5
			c-3.6-0.1-7.3-0.2-10.9-0.1c-3.4,0.1-6.8,0-10.2,0.2c-4.4,0.3-8.8,0-13.2,0.2c-6,0.4-12,0.6-17.9,0.4c-2.2-0.1-4.4-0.5-6.6-0.7
			c-1.9-0.1-3.8,0.1-5.7,0.4c-1.8,0.3-3.6-0.1-5.4-0.2c-1.9-0.2-3.7-0.1-5.6,0c-2,0.1-3.9,0.2-5.9,0c-2.8-0.3-5.5-0.2-8.2-0.1
			c-5.1,0.1-10.2-0.1-15.3-0.1c-3.4,0-6.8,0.7-10.2,0.7c-5.2-0.1-10.4-0.6-15.6-0.8c-1.9-0.1-3.9-0.3-5.8,0.1c-0.3,0.1-0.7,0-1.1,0
			c-13.8,0-27.7-0.1-41.5,0.1c-6.8,0.1-13.7,0-20.5,0.1C15.9,235.5,15.5,235.5,14.9,235.5z"/>
		<path class="st2" d="M493.5,211.7c-4.5,0-9-0.1-13.4,0.1c-16.7,0.5-33.3-0.1-50,0.3c-16.6,0.4-33.3-0.1-49.9,0.2
			c-16.6,0.4-33.3-0.1-49.9,0.2c-16.7,0.4-33.3-0.1-50,0.2c-16.6,0.3-33.2-0.1-49.8,0.2c-16.7,0.4-33.4-0.1-50.1,0.2
			c-16.4,0.3-32.9-0.1-49.3,0.2c-16.8,0.4-33.6-0.1-50.4,0.2c-13.5,0.3-27,0-40.5,0.2c-0.5,0-1,0-1.4-0.1c0.7-0.3,1.4-0.6,2-1.1
			c3.5-2.7,7.1-5.3,10.5-8c0.9-0.7,1.8-0.9,2.9-0.9c7.4-0.2,14.7,0.3,22.1,0.1c8.8-0.3,17.7-0.2,26.5-0.3c6.3,0,12.6,0,18.8,0
			c21.6-0.1,43.3-0.3,64.9,0.2c6.9,0.1,13.8-0.2,20.7-0.1c10.3,0.3,20.5-0.2,30.8-0.3c13.3-0.2,26.6,0,39.9-0.2
			c6-0.1,11.9,0.1,17.9-0.3c3.2-0.2,6.4,0.2,9.6,0.2c5.4,0,10.9,0.1,16.3-0.4c5.3-0.5,10.7-0.3,16.1-0.3c16.5,0,32.9,0,49.4-0.1
			c19.7-0.2,39.3-0.3,59-0.6c5-0.1,9.9,0,14.9,0c2,0,3.9-0.1,5.9-0.2c3.6-0.2,7.2-0.2,10.5,1.9c3.9,2.5,8.6,3.3,12.5,6
			C491,210.2,492.3,210.9,493.5,211.7z"/>
		<path class="st1" d="M479.5,196.8c-1.1,0.2-2.1-0.1-3.1-0.2c-20.9-0.4-41.7-0.2-62.6-0.2c-38.6,0-77.1,0-115.7,0
			c-6,0-12.1,0.1-18.1,0.1c-17.9-0.1-35.8,0.6-53.7,0.7c-10.2,0.1-20.4,0.5-30.6,0.3c-9.4-0.2-18.9-0.3-28.3-0.1
			c-8.7,0.2-17.4-0.1-26.1,0c-15.9,0.3-31.8,0.3-47.6,0.4c-11.3,0-22.6,0-33.8,0.1c-2.8,0-5.7,0.1-8.5,0.2c-0.4,0-0.8,0-1.3,0
			c-0.2-2.1-0.4-4-0.6-6c-0.4-4.3-0.8-8.6-1.2-12.9c-0.3-4-0.7-7.9-1-11.9c-0.4-4.1-0.8-8.1-1.1-12.1c-0.3-3-0.5-6-0.8-8.9
			c-0.3-3.3-0.6-6.6-0.9-9.9c-0.3-3.1-0.5-6.1-0.8-9.2c-0.4-4.1-0.8-8.2-1.1-12.3c-0.3-3.1-0.5-6.1-0.8-9.2
			c-0.4-4.1-0.8-8.2-1.1-12.3c-0.3-3.1-0.5-6.1-0.8-9.2c-0.3-3.2-0.6-6.4-0.9-9.7c-0.3-3-0.5-6-0.8-9.1c-0.4-4.2-0.8-8.3-1.1-12.5
			c-0.3-3-0.5-6-0.8-8.9c-0.3-3.3-0.6-6.6-0.9-9.9C35.2,32.6,35,31,36.6,30c0.1-0.1,0.2-0.2,0.3-0.3c0.7-1.7,2.2-1.7,3.7-1.6
			c11.7,0.5,23.4,0.6,35.1,0.6c18-0.1,36.1-0.4,54.1-0.3c1.2,0,2.3-0.2,3.4-0.5c2.5-0.7,5.1-0.9,7.7-0.9c9.2-0.1,18.4-0.1,27.6-0.1
			c14.3,0,28.6,0.2,43,0c13.8-0.2,27.6,0,41.4-0.3c19.8-0.5,39.5-0.4,59.3-0.7c10.8-0.1,21.5-0.3,32.3-0.1
			c8.6,0.2,17.1,0.2,25.7,0.1c8.2-0.1,16.4-0.6,24.6-0.8c8.3-0.3,16.5-0.5,24.8-0.8c11.2-0.4,22.5-0.8,33.7-1.2
			c6.9-0.2,13.8-0.3,20.7-0.5c2.4-0.1,4.7-0.2,7.1-0.2c2.8,0,5.5,0.6,8.2,1.2c0.4,0.1,1,0.2,1,1c0,0.4,0.5,0.7,1,0.9
			c0.7,0.2,1.3,0.6,2,0.7c0.6,0.1,0.8,0.4,0.7,1c-0.4,3.6-0.7,7.3-1,10.9c-0.3,4.2-0.8,8.3-1.2,12.5c-0.3,3.3-0.5,6.7-0.8,10
			c-0.4,4.2-0.8,8.3-1.2,12.5c-0.2,2.3-0.3,4.7-0.5,7c-0.3,3.3-0.6,6.6-0.9,9.9c-0.2,2.1-0.3,4.3-0.5,6.4c-0.3,3.5-0.6,7-0.9,10.5
			c-0.2,2.3-0.3,4.5-0.5,6.8c-0.3,3.4-0.6,6.7-0.9,10.1c-0.2,2.1-0.3,4.3-0.5,6.4c-0.3,3.5-0.6,7-0.9,10.6c-0.2,2.2-0.3,4.4-0.5,6.5
			c-0.3,3.4-0.6,6.9-0.9,10.3c-0.2,2.3-0.3,4.5-0.5,6.8c-0.3,3.4-0.6,6.7-0.9,10.1c-0.2,2.2-0.3,4.4-0.5,6.5
			c-0.3,3.5-0.7,7-0.9,10.5C479.7,193.2,479.4,195,479.5,196.8z M422.9,195.7c15.2,0,30.4,0,45.6,0c0.3,0,0.6,0,1,0
			c1.6-0.2,2.2-0.6,2.4-1.8c0.7-3.3,1.1-6.7,1.5-10.1c0.4-3.3,0.7-6.6,1-9.9c0.2-2.1,0.3-4.2,0.5-6.3c0.2-2.9,0.6-5.7,0.9-8.6
			c0.3-2.8,0.4-5.6,0.8-8.4c0.4-3.3,0.6-6.7,0.9-10c0.2-2,0.4-3.9,0.5-5.9c0.2-3.2,0.7-6.4,0.9-9.6c0.2-2.1,0.4-4.2,0.6-6.3
			c0.2-2.9,0.6-5.7,0.9-8.6c0.2-1.9,0.3-3.9,0.5-5.8c0.3-3.2,0.6-6.4,0.9-9.6c0.2-2,0.3-4,0.5-6c0.3-3.1,0.6-6.3,0.9-9.4
			c0.2-1.8,0.3-3.7,0.5-5.6c0.3-2.7,0.6-5.4,0.9-8.1c0.2-1.8,0.3-3.7,0.5-5.6c0.3-2.9,0.6-5.8,0.9-8.7c0.3-2.3,0.5-4.6,0.9-6.9
			c0.3-2.1,0.7-4.2,0.1-6.2c-1.3-4.4-3.9-7.7-8.2-9.6c-2.4-1-4.9-1-7.3-1.1c-4.1-0.2-8.2,0.4-12.3,0.4c-17.1,0.1-34.2,0-51.4,0
			c-2.9,0-5.9-0.1-8.8,0.2c-3.4,0.3-6.8,0.2-10.3,0.2c-10.8,0.3-21.7-0.2-32.5,0.3c-4.5,0.2-9,0.1-13.5,0.2
			c-14.7,0.3-29.5-0.2-44.2,0.3c-5.1,0.2-10.2-0.1-15.3,0.2c-5.3,0.3-10.6,0.1-15.9,0.2c-4.5,0.1-9.1,0.1-13.6-0.1
			c-3.4-0.2-6.8-0.1-10.2,0.1c-6.1,0.3-12.2,0-18.3,0.2c-7.4,0.3-14.8,0-22.3,0.2c-9.5,0.4-19.1-0.2-28.6,0.3
			c-6.7,0.3-13.5-0.2-20.2,0.2c-4.5,0.3-9,0-13.5,0.2c-7.6,0.3-15.2,0.1-22.9,0.2C102.1,31.1,86.5,31,70.9,31
			c-1.7,0-3.4,0.1-5.1,0.2c-4,0-8,0.3-12.1,0.3c-1.2,0-2.5,0.1-3.7,0.3c-0.7,0.1-1.4,0.4-1.9,1.1c-0.9,1.4-2.2,2.4-3.3,3.6
			c-0.8,0.8-1.3,1.7-1.7,2.7c-1.3,3.4-0.6,6.8-0.4,10.2c0.2,2.9,0.6,5.8,0.9,8.7c0.2,1.9,0.3,3.9,0.5,5.8c0.4,3,0.7,6,0.9,9
			c0.2,2,0.4,3.9,0.5,5.9c0.2,3.3,0.6,6.6,0.9,9.9c0.2,1.9,0.3,3.7,0.5,5.5c0.4,2.6,0.7,5.2,0.9,7.9c0.2,2,0.4,3.9,0.5,5.9
			c0.2,3.5,0.6,7,0.9,10.5c0.2,2,0.3,3.9,0.5,5.9c0.4,3.1,0.8,6.2,1.2,9.3c0.3,2.4,0.5,4.8,0.8,7.2c0.4,3.3,0.5,6.5,0.9,9.8
			c0.3,3,0.5,6,0.7,9c0.3,4.7,0.5,9.4,1,14.1c0.3,3,0.5,6,1,8.9c0.6,3.6,1,7.3,1.1,10.9c0.1,2.1,1.6,3.2,3.3,2.9
			c1.6-0.2,3.3-0.2,4.9-0.2c9.1-0.1,18.3,0.1,27.4-0.2c12.5-0.4,24.9,0,37.4-0.2c16.4-0.4,32.8-0.1,49.3-0.2c31-0.1,62-0.4,93,0.2
			c2.3,0,4.7-0.1,7-0.2c4.5-0.1,9-0.1,13.5,0.2c1.8,0.1,3.7,0,5.5,0c3.1,0,6.3,0.1,9.4-0.1c4.2-0.3,8.5-0.2,12.7-0.2
			c19.2-0.1,38.4-0.1,57.6-0.1C392.6,195.7,407.8,195.7,422.9,195.7z"/>
		<path class="st1" d="M524.8,238.7c2.7,0,5.2,0,7.7,0c0.6,0,1.2,0.1,1.3,0.9c0,0.2,0.2,0.4,0.3,0.5c1.5,0.7,1.4,1.9,1.4,3.2
			c0,8.2,0,16.5,0.1,24.7c0.4,35,0,70,0.2,105c0,6,0,12.1,0.1,18.1c0.2,10.7,0.1,21.3,0.1,32c0,1.6-0.4,2-2,2
			c-2.5,0.1-5,0.2-7.5,0.2c-2.2,0-2.6-1-2.9-2.7c0-0.3,0-0.6,0-1c0-15.6,0.1-31.3-0.1-46.9c-0.4-34.7-0.1-69.4-0.2-104.1
			c0-7.7-0.1-15.3-0.2-23c0-2.2,0.5-4.4,0.5-6.6c0-0.4,0.2-0.6,0.5-0.8C524.4,239.9,524.8,239.4,524.8,238.7z"/>
		<path class="st1" d="M10.7,240.1c3.1,0,6.2-0.2,9.5,0.2c0,4.3,0,8.4,0,12.6c0.3,57,0.1,114,0.1,171c0,1.4,0,2.9-1.3,3.9
			c-0.3,0.2-0.5,0.5-0.9,0.5c-2-0.2-4,0.6-6.1,0.1c-0.9-0.2-1.1-0.5-1.1-1.3c-0.1-4.3-0.2-8.6-0.2-12.9c0-28,0.1-56-0.1-84
			c-0.2-29.5-0.1-58.9-0.2-88.4C10.6,241.2,10.5,240.7,10.7,240.1z"/>
		<path class="st1" d="M493.5,211.7c-1.2-0.8-2.5-1.4-3.7-2.3c-3.8-2.7-8.6-3.5-12.5-6c-3.3-2.1-6.9-2.1-10.5-1.9
			c-2,0.1-3.9,0.2-5.9,0.2c-5,0-9.9-0.1-14.9,0c-19.7,0.3-39.3,0.4-59,0.6c-16.5,0.2-32.9,0.1-49.4,0.1c-5.4,0-10.7-0.2-16.1,0.3
			s-10.9,0.4-16.3,0.4c-3.2,0-6.4-0.4-9.6-0.2c-5.9,0.4-11.9,0.2-17.9,0.3c-13.3,0.2-26.6,0-39.9,0.2c-10.3,0.1-20.5,0.6-30.8,0.3
			c-6.9-0.2-13.8,0.2-20.7,0.1c-21.6-0.5-43.3-0.3-64.9-0.2c-6.3,0-12.6,0-18.8,0c-8.8,0.1-17.7,0-26.5,0.3
			c-7.4,0.2-14.7-0.3-22.1-0.1c-1.1,0-2,0.2-2.9,0.9c-3.5,2.7-7,5.4-10.5,8c-0.6,0.5-1.3,0.8-2,1.1c-1.4,0.1-2.8,0-4.2,0.4
			c2.9-2.3,5.8-4.6,8.8-6.8c2.2-1.6,4.2-3.4,6.5-4.8c0.9-0.5,1.8-0.8,2.8-0.7c6.1,0.1,12.2,0.3,18.3,0.2c8.8-0.1,17.5-0.2,26.3-0.2
			c16.6,0,33.2,0.1,49.8-0.1c13.2-0.2,26.3-0.1,39.5-0.1c11.8,0,23.5,0,35.3-0.4c5.2-0.2,10.5,0,15.7,0c9.8-0.1,19.7,0,29.5-0.4
			c10.4-0.5,20.9-0.1,31.3-0.2c10.7-0.1,21.4,0,32-0.3s21.1,0.1,31.7,0c10.2-0.1,20.4,0,30.6-0.2c12.7-0.2,25.4-0.3,38,0
			c9.7,0.2,19.3-0.2,29-0.3c6.3-0.1,12.6,0,19,0.2c0.5,0,1,0.1,1.5,0.3c6.1,3.1,12.1,6.2,18.2,9.3c1,0.5,1.7,1.4,2.6,2.4
			C498.2,212.5,495.9,212.2,493.5,211.7z"/>
		<path class="st1" d="M48.3,25.9c0.3-1.5,1.2-2.5,2.4-3.4c0.4-0.3,1-0.6,1.5-0.3c2.3,1,4.7,0.6,7.1,0.6c28.8,0,57.5,0.2,86.3-0.1
			c31.2-0.2,62.5-0.1,93.7-0.2c0.3,0,0.6,0,1,0.1c-0.3,0.9-1.1,0.7-1.6,0.7c-8.6,0.3-17.1,0.2-25.7,0.2c-5.5,0-11,0.1-16.6,0.3
			c-2.2,0.1-4.4,0.3-6.6-0.4c-0.8-0.3-1.9,0.2-2.8,0.4c-4.9,0.8-9.8,0.2-14.7,0.2c-14,0.2-28,0.2-42,0.6
			c-10.7,0.3-21.4,0.6-32.1,0.6c-12.4,0.1-24.9,0.3-37.3,0.5c-2,0-3.9,0.1-5.9,0C52.8,25.7,50.6,26.2,48.3,25.9z"/>
		<path class="st1" d="M479.5,19.4c-4.6,0.8-9.3,0.9-13.9,1c-22.2,0.7-44.5,0.5-66.7,0.8c-17.7,0.3-35.5,0.5-53.2,0.9
			c-9.8,0.2-19.6-0.1-29.4,0.2c-8,0.2-16,0.1-24,0.2c-0.8,0-1.6-0.1-2.1-0.9c0.3-0.7,0.9-0.8,1.5-0.8c14.1,0,28.2,0,42.2-0.1
			c4.9,0,9.8-0.1,14.6-0.2c5.6-0.1,11.3-0.3,16.9-0.5c6.8-0.3,13.7-0.4,20.5-0.5c2.2,0,4.3-0.2,6.5-0.1c7.8,0.1,15.6-0.2,23.4-0.3
			c4.9-0.1,9.8,0.1,14.6-0.2c4.9-0.3,9.8,0.1,14.6-0.2c5-0.3,9.9,0.1,14.9-0.2c4.3-0.3,8.6-0.1,12.9-0.2c1.5,0,3.1-0.2,4.6-0.1
			C478.3,18.2,479,18.5,479.5,19.4z"/>
		<path class="st3" d="M264.2,308.8c4.1-0.2,8.2-0.5,12.3-0.2c1.6,0.1,3.1-0.1,4.5-0.8c1.5-0.7,2.1-2.1,2.1-3.7
			c-0.1-5.2,0.2-10.5,0.5-15.7c0.4-6.1,0.8-12.1,1.1-18.2c0.1-2.2-0.1-4.5-0.4-6.7c-0.2-1.2-0.8-2.1-1.8-2.7
			c-6.2-4-13.1-3.3-18.6,1.3c-2.4,2-2.9,4.8-2.3,7.6c0.6,3,0.2,5.9-0.2,8.9c-0.3,2.1-0.5,4.2-0.2,6.3c0.3,2-0.2,4.1-0.2,6.1
			c-0.1,3.9-0.2,7.7-0.2,11.6c0,1.9,0.7,3.6,2,5.1c0.2,0.2,0.4,0.4,0.5,0.6v0.1c-1.5,0.3-2.8-0.6-3.5-2.3c-1-2.5-1.1-5-0.7-7.6
			c0.8-5.2,1.3-10.4,1.1-15.7c-0.1-2.6,0.3-5.2,0-7.9c-0.2-2.3-0.3-4.6-0.3-6.9c0.1-4,1.7-7,5.6-8.4c1.8-0.7,3.3-1.9,5.2-2.3
			c5-1,9.4,0.6,13.5,3.4c1.9,1.3,2.8,3.3,2.9,5.6c0.1,1.4-0.3,2.8-0.6,4.1c-1.5,6-1.5,12.2-1.2,18.3c0.2,4.7,0.5,9.4,0.3,14.1
			c0,1.1-0.3,2.3-0.5,3.4c-0.4,1.8-1.4,2.6-3.4,2.7c-5.3,0.4-10.6,0.5-15.9,0C265.4,309.1,264.8,308.9,264.2,308.8z"/>
		<path class="st1" d="M280.9,297.7c0.3,1.5,0.6,2.9,0.2,4.3c-0.6,2.4-3.1,4-5.9,4.1c-3.3,0.2-6.5-0.7-9.6-1.3
			c-2.3-0.5-3.8-4.4-2.6-6.4c0.2-0.4,0.5-0.7,1-0.7s1-0.1,1.5-0.1c4.7,0,9.4,0,14.1,0C280.1,297.5,280.5,297.4,280.9,297.7z"/>
		<path class="st3" d="M271.3,286.2c-0.5-3.4-0.3-6.8-0.3-10.1c0-1.4-0.3-2.6-1.5-3.5c-1-0.7-0.8-1.9-0.6-2.9
			c0.2-1.2,0.1-2.3-0.1-3.4c-0.5-1.9,0-2.7,1.9-3.2c1.1-0.3,2.3-0.5,2.6-2c0.2-0.8,1.1-0.2,1.3,0.2c0.5,1.2,1.4,1.4,2.5,1.7
			c0.6,0.1,1,0.6,1.1,1.2c0.2,2,0.4,4,0.5,6.1c0,1.2-0.7,2.3-1.7,3c-0.5,0.4-0.8,0.8-0.5,1.5c0.3,0.8,0.1,1.7,0.1,2.5
			c0,1.3,0,2.6,0.4,3.9c0.5,1.5-0.9,4.6-2.3,5.4C274,286.8,272.9,286.8,271.3,286.2z M273.8,265.5c-2.2,0-3.9,1.4-3.9,3.3
			s1.9,3.7,3.9,3.7c1.7,0,3.7-2,3.8-3.7C277.7,267.1,275.9,265.5,273.8,265.5z"/>
		<path class="st3" d="M284.7,255.2c-0.4-0.3-0.7-0.6-1-0.9c-1.3-1-2.5-0.9-3.8,0.1c-0.9,0.7-0.9,0.7-1.5-0.3
			c0.3-0.5,0.8-0.7,1.2-1.1c1.3-1.4,1.7-3.1,1.5-5s-0.4-3.7-0.4-5.6c0-1.4-0.4-1.9-1.8-2c-2.4-0.1-4.7-0.1-7,0.3
			c-1.4,0.2-2.9,0.1-4.3,0.1c-1.3,0-1.8,0.6-1.7,1.9c0.4,3,0.1,5.9-0.5,8.8c-0.2,0.7-0.4,1.3-0.9,1.9c-0.6,0.8-1.3,1.5-1.4,2.6
			c-1.9-1.1-2.1-2.2-0.7-3.8c0.7-0.8,0.8-1.7,0.7-2.7c-0.1-2.6-0.3-5.2-0.4-7.8c-0.1-1.7,0.5-2.2,2.2-2.2c5.4,0,10.8,0,16.2,0
			c1.7,0,2.3,0.7,2.1,2.4c-0.2,2.5-0.4,5.1-0.4,7.6c0,1.3,0.6,2.4,1.6,3.2C285.5,253.5,285.5,254.3,284.7,255.2z"/>
		<path class="st3" d="M255.5,19.1c0.9,1.9,2.5,2.8,4.1,3.7c-4.9,0.4-9.8,0.1-15-0.5c1.1-0.6,2-0.4,2.8-0.6c1.7-0.3,3.4-0.6,4.9-1.4
			c1.3-0.6,2.5-1.3,3.2-2.7c1.1-2,3.2-2.3,5.2-2.5c3.5-0.3,7-0.3,10.5-0.1c1.6,0.1,2.8,0.9,3.6,2.2c1.1,1.7,2.6,2.7,4.7,3
			s4.1,0.5,6.2,0.7c-0.1,0.5-0.6,0.6-0.9,0.7c-3.5,0.9-7.1,1.2-10.7,0.8c-1-0.1-1.5-0.5-0.9-1.6c0.3-0.6,0.3-1.2,0.2-1.9
			c-0.1-1.3-0.6-1.8-2-1.9c-2.2-0.2-4.4,0.3-6.7,0.5c-1.9,0.2-3.8,0.2-5.7-0.3c-0.7-0.2-1.2,0.1-1.7,0.5
			C256.8,18.3,256.4,19,255.5,19.1z"/>
		<path class="st4" d="M38.9,25.7c-1.5,0-3,0-4.6,0c-1.9,0-2.7-1.2-1.8-3c0.5-1,0.9-2,1.4-3c0.3-0.8,0.9-1.1,1.8-1.2
			c3.3-0.2,6.5-0.4,9.8,0c0.5,0.1,1.1-0.1,1.7-0.1c0.6,0,1.3,0,1.6,0.6c0.3,0.5,0,1.1-0.2,1.6c-0.7,1.6-2,2.8-3,4.2
			c-0.5,0.7-1.1,0.9-2,0.9C41.9,25.7,40.4,25.7,38.9,25.7L38.9,25.7z"/>
		<path class="st3" d="M290.7,240c0-0.3,0.2-0.4,0.4-0.4c1.2-0.1,2.3-0.2,3.5-0.2c1.7,0,2.3,0.7,2.6,2.3c0.4,2.2,0.2,4.4,0.4,6.6
			c0.4,5,0.6,10,0.8,14.9c0.1,1.6-0.3,3.2-0.6,4.7c-0.1,0.8-0.4,1.4-1.1,1.8c-1.5,1-1.7,2.6-1.8,4.1c-0.5,4.3-1.7,8.4-2.3,12.6
			c-0.1,0.8-0.3,1.6-0.3,2.4c-0.2,2.6-1.4,3.9-4.2,4.4c0.8-2.4,2-4.5,2.8-6.9c1-3.1,1.3-6.3,1.6-9.5c0.3-3.1,0.7-6.1,2.7-8.7
			c1.6-2.1,1.8-4.6,1.7-7.2c-0.1-5.4-0.2-10.7-0.3-16.1c-0.1-3.1-1.6-4.6-4.8-4.7C291.3,240.3,290.9,240.4,290.7,240z"/>
		<path class="st4" d="M485,12.3c1.6,0,3.2,0,4.8-0.2c1.8-0.2,3.5,0.3,4.7,1.8c0.7,0.9,1.4,1.7,2.1,2.6s0.4,1.5-0.7,1.8
			c-2.7,0.9-5.5,0.4-8.3,0.4c-0.7,0-1.4-0.1-2.1-0.1c-1,0-1.8-0.4-2.2-1.2c-0.5-1-1.2-1.5-2-2.1c-0.3-0.2-0.6-0.4-0.8-0.7
			c-0.5-0.4-0.6-1-0.4-1.5c0.2-0.6,0.7-0.7,1.3-0.7C482.6,12.3,483.8,12.3,485,12.3z"/>
		<path class="st1" d="M260.3,242.6c0,2.5,0.7,5,0,7.4c-0.2,1-0.7,1.9-1.2,2.7c-0.7,1-1.6,1.5-2.9,1.3c-1.2-0.2-2.4-0.1-3.6,0.3
			c-0.3-2.2-0.5-4.4-0.4-6.6c0-0.9,0-1.7,0.2-2.6c0.3-1,1-1.9,2-1.9C256.4,243,258.3,242.2,260.3,242.6z"/>
		<path class="st1" d="M294,253.8c-1.9-0.6-3.7-1-5.6-0.8c-0.6,0.1-1-0.5-1.2-1c-0.9-1.6-1.3-3.3-1.2-5.1c0-1,0-1.9,0-2.9
			s0.6-1.5,1.6-1.5c1.8-0.1,3.5,0.3,5.2,0.6c0.7,0.1,1.3,0.6,1.3,1.4C294,247.5,294,250.6,294,253.8z"/>
		<path class="st1" d="M265.3,264.2c0.7,0.9,0.5,1.8,0.3,2.6c-0.4,2.5,0,4.7,1.3,6.8c0.8,1.2,1.1,2.5,1.1,3.9c0,2.7-0.2,5.4,0.5,8.1
			c0.6,2.2,1.4,4.2,4.1,4.4c-1.8,0.5-3.7,0.5-5.5,0.1c-1.4-0.3-2.4-1.5-2.5-3c-0.3-5.5-0.6-11-0.5-16.5c0-0.9,0.1-1.8-0.3-2.6
			C263.4,266.5,264.2,265.4,265.3,264.2z"/>
		<path class="st3" d="M257.2,292.1c-2.4-6.1-4.1-12.1-4.4-18.5c0-1-0.3-1.9-1-2.6c-2.3-2.6-2.6-5.6-2.3-8.9c0.3-3,0.2-6,0-9
			c-0.2-3.1-0.4-6.3-0.5-9.4c-0.1-1.9,1.5-3.8,3.1-3.8c0.2,0,0.4,0,0.6,0.3c-2.6,1.7-2.8,4.3-2.6,7.2c0.3,3.9,0.2,7.8,0.4,11.7
			c0,1.2,0.1,2.3,0.2,3.5c0.1,1.2,0.4,2.4,1.3,3.4c1.6,1.8,2.2,3.9,2.1,6.3c-0.2,5.9,0.9,11.5,3,17
			C257.3,290.1,257.5,291,257.2,292.1z"/>
		<path class="st1" d="M280.8,290.1c-1.6,0.3-2.9-0.2-4.5-0.2c2.5-2.4,2.7-5.4,2.7-8.5c0-4,0.5-8,1.7-11.9c0.6-1.9,0.3-3.9-0.2-5.8
			c-0.1-0.4-0.4-0.9-0.3-1.4c1.3-0.1,2,0.4,2.1,1.9c0.1,2.1,0.1,4.3-0.1,6.5c-0.3,2.4-0.4,4.8-0.6,7.3
			C281.5,282.1,281.1,286.1,280.8,290.1z"/>
		<path class="st1" d="M279.1,248.3c-0.9,0.3-1.6-0.2-2.3-0.1c-2.1,0-4.2,0.2-6.3,0.5c-0.8,0.1-1.9,0.4-2.4-0.5
			c-0.6-1.1-0.6-2.4-0.2-3.6c0.1-0.4,0.6-0.6,1.1-0.6c2.9-0.3,5.7-0.5,8.6-0.5c1,0,1.5,0.5,1.6,1.4
			C279.2,246,279.1,247.2,279.1,248.3z"/>
		<path class="st3" d="M286.4,259.2c0.6-0.8,1.2-1.6,2.1-2.2c2.8-1.8,4.5-0.3,5.5,1.8c0.9,2.1,0.2,4.8-1.6,6.4
			c-0.5,0.5-1.1,0.8-1.8,0.5c-0.7-0.2-1-0.8-1.1-1.5C289.1,262.1,288.5,260.2,286.4,259.2z"/>
		<path class="st3" d="M255.4,265.9c-1.4-0.2-2.8-1.4-2-3.2c0.2-0.5,0.3-0.9,0-1.5c-0.6-1.3-0.2-2.4,0.8-3.2
			c1.5-1.2,3.4-1.7,5.3-1.1c1.3,0.4,1.4,1.2,0.6,2.3c-1.1,1.5-2.3,2.9-2.5,5C257.6,265.3,256.8,265.8,255.4,265.9z"/>
		<path class="st3" d="M262.7,292.2c2.9,0.5,5.8,0.8,8.7,0.6c2.9-0.2,5.8-0.3,8.7,0.3c0.8,0.2,1,0.6,0.9,1.4
			c-4.1,0.5-8.1,0.8-12.2,0.8c-1.2,0-2.4,0-3.6,0C263,295.3,262.4,294.5,262.7,292.2z"/>
		<path class="st1" d="M288.7,284.8c-0.8-3.3-0.2-6.5,0.2-9.8c0.2-1.8,0.5-3.5,0.6-5.3c0.1-1.5,0.6-1.8,1.9-1.2
			c0.2,0.1,0.5,0.2,0.7,0.6C290.1,274.1,290,279.6,288.7,284.8z"/>
		<path class="st3" d="M277,251.5c-0.9,1.6-2,2.8-4,2.5c-1.7-0.3-1.3-1.9-1.9-3.1C273.2,250.9,275.1,250.5,277,251.5z"/>
		<path class="st1" d="M257,269.2c0,3,0,6.1,0,9.1c-0.3-3.1-1.4-6.1-0.4-9.2C256.7,269.2,256.8,269.2,257,269.2z"/>
		<path class="st0" d="M480.6,266.1c-0.1,9.8,0.2,19.7-0.1,29.5c-0.3,12-0.3,24-0.1,36c0.1,7.7,0.2,15.4,0.1,23.1
			c-0.3,18,0,35.9-0.1,53.9c0,1.1,0.2,2.3,0.2,3.5c0,1.6-1.2,2.9-2.8,3.1c-1,0.1-2,0.2-2.9,0.5c-1,0.2-1.7,0-2.1-1.1
			c-0.9-2.5-1.2-5.1-0.9-7.8c0.1-1,0.1-2,0.1-3c0-23.1,0.1-46.2-0.1-69.4c-0.1-11.9,0-23.8-0.2-35.7c-0.2-11.9-0.1-23.7-0.2-35.6
			c0-1.2-0.2-2.4-0.2-3.6c0-2.6,1.9-4.8,4.1-4.9c2.9-0.1,5.1,1.9,5.2,4.7C480.6,261.6,480.6,263.9,480.6,266.1z M476.6,259.5
			c-1.4,1-2.1,2.4-2.1,4c0.1,6.8-0.2,13.7,0.2,20.5c0.2,2.4-0.1,4.9-0.2,7.3c-0.1,7.3,0,14.5,0.2,21.8c0.2,10.6,0,21.2,0,31.8
			c0,16-0.2,32,0.2,48.1c0,1.4,0.2,2.9,0,4.3c-0.4,2.6-0.3,5.2-0.1,7.8c0.1,1.9,0.2,3.9,0.9,5.7c0.2,0.5,0.3,1,1,0.9
			c0.6-0.8,0.7-1.8,0.7-2.7c0.1-39.3-0.3-78.6,0.2-117.9c0.1-9.4,0-18.9,0-28.3C477.6,261.7,477.3,260.6,476.6,259.5z"/>
		<path class="st0" d="M141.9,270.5c0,2.9-0.1,5.8,0,8.8c0.5,15.7-0.1,31.3,0.3,47c0.1,4.4-0.1,8.8,0.2,13.2
			c0.2,3.2,0.2,6.4,0.1,9.6c-0.5,19.3-0.1,38.7-0.2,58c0,1.7,0.3,3.4,0.3,5.1c0,1-0.3,1.9-0.9,2.7c-0.5,0.8-1.2,1.3-2.3,1.3
			c-1.2-0.1-2.5,0-3.7,0c-1.1,0-1.8-0.7-1.8-1.8c-0.1-3.3,0.1-6.7,0.2-10c0.1-2.8,0.1-5.7-0.1-8.5c-0.2-2.5,0.2-5,0.2-7.5
			c0-18,0.2-36.1,0-54.1c-0.3-19.2-0.1-38.5-0.2-57.7c0-3.7,0.4-7.5,0.4-11.2c0-2.6-0.5-5.3-0.7-7.9c-0.1-1.4,0-2.8,1.5-3.4
			c1.5-0.7,3.1-0.6,4.5,0.5c1.2,0.9,1.9,2.1,2,3.8C141.8,262.2,141.8,266.4,141.9,270.5z M137.2,257.5c-0.3,1.4-0.6,2.5-0.6,3.7
			c0.1,9.7-0.2,19.5,0.2,29.2c0.3,6.6,0.2,13.3,0.2,19.9c0.1,33.2,0.1,66.4,0.1,99.6c0,0.4,0,0.9,0.1,1.3s0.2,0.9,0.8,0.9
			c0.5,0,0.6-0.5,0.7-0.8c0.6-2.2,1.1-4.5,0.7-6.8c-0.2-1.2-0.2-2.4-0.2-3.6c0.1-3.8,0.1-7.6,0.2-11.4c0.1-10.9,0.3-21.7-0.1-32.6
			c-0.1-2.7,0-5.3,0.1-8c0.1-3.9,0.2-7.9-0.1-11.8c-0.2-2.8-0.2-5.6-0.2-8.4c-0.1-5.1-0.2-10.2,0.1-15.3c0.2-2.4-0.1-4.9-0.1-7.3
			c-0.3-8.8,0.2-17.6-0.3-26.4c-0.3-6.4,0.4-12.8,0-19.2C138.6,259.4,138.7,258.1,137.2,257.5z"/>
		<path class="st0" d="M198.7,267.9c-0.3,13.1-0.2,26.1-0.3,39.2c-0.1,11-0.1,21.9-0.2,32.9c-0.1,5.8,0,11.7-0.2,17.5
			c-0.2,4.8-0.1,9.7-0.2,14.5c-0.2,7.8,0,15.7-0.2,23.5c-0.2,6-0.2,11.9-0.2,17.9c0,1.6-0.5,2.4-2,2.5c-1.8,0.2-3.7,0.5-5.3-0.8
			c-0.9-0.8-1.1-1.7-1.1-2.8c0.4-9.1,0.2-18.3,0.2-27.5c0-9.9,0.1-19.8,0.1-29.8c0-4.4,0-8.7-0.3-13.1c-0.2-2.4,0.2-4.9,0.2-7.3
			c0-3.3-0.2-6.6-0.1-9.8c0.3-6.1-0.3-12.1,0-18.2c0.2-4.9,0-9.7-0.2-14.6c-0.2-7.4-0.2-14.8-0.1-22.2c0-2.1-0.4-4.2-0.5-6.3
			c-0.2-3.2,2.7-6.2,6.9-5.2c2.7,0.6,3.6,1.8,3.6,4.5C198.7,264.5,198.7,266.2,198.7,267.9z M193.7,412.5c0.5-1.1,0.9-2.2,0.9-3.3
			c0.1-3.4,0.1-6.9,0.2-10.3c0.2-10.8-0.2-21.6,0.2-32.4c0.2-4.2,0.2-8.4,0.2-12.6c0.2-19.9-0.2-39.7,0.2-59.6c0.2-9.7,0-19.4,0-29
			c0-1-0.2-1.9-0.8-2.7c-0.3-0.5-0.5-1.2-1.3-1c-0.7,0.2-1.1,0.8-1.2,1.5c-0.3,1.5-0.6,3-0.7,4.6c-0.2,3.3-0.1,6.6-0.2,9.9
			c-0.1,3.5-0.2,7,0.3,10.5c0.4,2.6-0.2,5.4-0.3,8.1c-0.1,2.1,0,4.1,0.1,6.2c0.2,3.5,0.2,7.1,0.2,10.6c0.1,30.6,0.1,61.1,0,91.7
			c0,2.4,0.6,4.6,1,6.9C192.8,412.1,193.1,412.4,193.7,412.5z"/>
		<path class="st0" d="M368.6,267.3c-0.4,6.5,0,12.9-0.3,19.4c-0.2,4.4,0,8.9-0.2,13.3c-0.5,10.4,0.1,20.8-0.3,31.1
			c-0.2,6.5,0.1,12.9-0.2,19.4c-0.3,5.1,0.1,10.1-0.2,15.2c-0.3,4.4,0.1,8.8-0.2,13.2c-0.3,4.3,0.1,8.6-0.2,12.9
			c-0.4,5.1,0,10.3-0.3,15.4c-0.1,1.4,0,2.7-0.3,4.1c-0.2,1.1-0.7,1.8-1.6,2.4c-1.5,1-3,1.7-4.9,1.1c-1-0.3-1.5-1-1.4-1.9
			c0.2-3,0.5-5.9,0.7-8.9c0.1-1.5,0.1-3,0.2-4.5c0.2-3.1,0.2-6.2,0.3-9.3c0.5-13.7,0-27.4,0.3-41.1c0.1-2.9-0.1-5.8,0.2-8.7
			c0.2-2.1,0.3-4.2,0.1-6.2c-0.3-4.1,0-8.3-0.2-12.4c-0.5-7.5-0.3-14.9-0.1-22.4c0.1-4-0.1-8.1,0.2-12.1c0.4-5.5,0.1-10.9,0.2-16.4
			c0-1.7-0.2-3.3-0.4-5c-0.2-1.5-0.1-3.1,0.4-4.6c0.8-2.3,3.4-2.6,5.4-2.1c2,0.4,2.8,1.7,2.9,3.8
			C368.6,264.4,368.6,265.9,368.6,267.3z M362.3,410.9c1-0.8,1.4-1.8,1.5-2.9c0.4-3.3,0.3-6.7,0.5-10c0.3-5.9-0.1-11.8,0.2-17.7
			c0.3-6-0.2-12,0.3-18c0.3-3.8,0.1-7.6,0.2-11.4c0.2-11.6,0-23.2,0.3-34.8c0.2-7.5,0-15,0.2-22.5c0.2-8.7,0.2-17.5,0.3-26.2
			c0-1,0-2-0.3-3c-0.2-0.7-0.1-1.8-1.2-1.8c-1,0.1-1.2,1.1-1.4,2c0,0.2,0,0.4,0,0.6c-0.1,6.1,0.1,12.1-0.2,18.2
			c-0.4,8.9,0,17.8-0.2,26.7c-0.2,6.5,0,12.9,0.1,19.4c0.1,10.7,0.3,21.3-0.1,32c-0.3,9,0.2,18-0.3,27c-0.1,2.5-0.1,5.1-0.2,7.6
			c-0.2,3.5-0.5,6.9-0.3,10.4c0,0.4-0.2,0.8-0.2,1.2C361.5,408.8,361,410,362.3,410.9z"/>
		<path class="st0" d="M77.3,336.3c0-24.3,0-44.4,0-64.5c0-3.1-0.3-6.1-0.8-9.2c-0.3-1.8-0.3-3.8,0.2-5.7c0.3-1.2,1.2-1.9,2.4-2.2
			c1.4-0.3,2.8,0,3.7,1.2c0.9,1.1,1.3,2.4,1.3,3.9c-0.1,9.1-0.2,18.2,0,27.4c0.4,15.3-0.1,30.6,0.2,45.9c0.5,25.7,0.1,51.5,0.2,77.2
			c0,2.6-1.8,4.7-4,4.7c-2,0-3.3-1.3-3.2-3.3c0.3-5.5,0.3-11,0.2-16.5C77,374.1,77.5,353.1,77.3,336.3z M80.4,258.5
			c-0.5,0.3-0.6,0.7-0.8,1.1c-0.5,1.4-0.2,2.9-0.2,4.4c0.1,29-0.3,58,0.2,87.1c0.1,6.9,0.1,13.7,0.2,20.6
			c0.2,12.6,0.1,25.1,0.1,37.7c0,0.5-0.2,1,0.5,1.5c0.1-0.1,0.1-0.3,0.2-0.4c1-1.5,1.2-3.2,1.2-4.9c0-5.3-0.1-10.5-0.1-15.8
			c-0.3-21,0-42-0.2-63.1c-0.3-19.7-0.1-39.5-0.1-59.3c0-1.7-0.2-3.4-0.3-5.1C80.9,261.2,81.3,259.8,80.4,258.5z"/>
		<path class="st0" d="M417.4,399.5c0-4,0.1-8.1,0-12.1c-0.2-6.5-0.2-13.1-0.2-19.6c0-2.7,0-5.5,0.2-8.3c0.2-2.5-0.2-5-0.2-7.5
			c0-5.8,0.2-11.5,0-17.3c-0.7-16.6-0.2-33.2-0.5-49.8c-0.1-8.2-0.1-16.4-0.2-24.6c0-2.2,0.4-2.5,2.6-2.7c3.5-0.3,5.2,2.2,5.3,5.4
			c0.1,3.6-0.2,7.3-0.2,10.9c-0.1,16.3,0,32.6,0,48.9c0,10.5,0.2,21-0.1,31.5c-0.1,6.6,0,13.3-0.3,19.9c-0.4,12.8-0.1,25.6-0.2,38.4
			c0,3.5-1,3.1-3.7,2.8c-2.6-0.3-2.6-0.6-2.6-3.3C417.4,407.9,417.4,403.7,417.4,399.5z M420.2,411.5c0.8-1,1-1.9,1-2.8
			c0.1-10.8-0.2-21.6,0.2-32.4c0.3-8.8,0-17.6,0.3-26.4c0.1-3.2-0.1-6.5-0.1-9.7c0-20.9-0.4-41.9,0.2-62.8c0.1-4.2,0-8.4,0-12.6
			c0-1.2-0.4-2.3-1-3.4c-0.1-0.2-0.3-0.5-0.6-0.5c-0.2,0-0.5,0.1-0.5,0.4c0.2,1.4-0.8,2.7-0.8,4.1c0.2,8.3-0.2,16.7,0.2,25
			c0.3,6.5,0,12.9,0.2,19.4c0.4,10.3-0.1,20.6,0.2,30.9c0.2,6.1,0.3,12.2,0.3,18.3c0.1,7.8-0.1,15.6,0.2,23.4
			c0.3,9.1,0.5,18.2,0.3,27.3C420.2,410.3,420.2,410.8,420.2,411.5z"/>
		<path class="st0" d="M301.7,403.3c0-2.5-0.1-5,0-7.6c0.2-5.4,0.5-10.9,0.5-16.3c0-3.4,0.8-6.7,0.6-10c-0.1-2.6-0.3-5.2-0.2-7.8
			c0.4-8.9,0.1-17.7,0.3-26.6c0-1.6,0.1-3.2,0.2-4.9c0.1-1.5,2.3-3.4,4-3.5c2.7-0.1,4.6,1.7,4.6,4.4c0,2.3,0.1,4.6,0,6.8
			c-0.2,4.2-0.3,8.3-0.5,12.5c-0.1,3.3-0.3,6.7-0.5,10c-0.1,4.3-0.3,8.7-0.5,13c-0.1,2.1,0,4.1-0.2,6.2c-0.3,2.7,0,5.5-0.3,8.2
			c-0.2,2-0.1,4-0.2,6c-0.2,3.9-0.2,7.9-0.3,11.8c-0.1,2.3-0.1,4.5-0.2,6.8c-0.1,2.2-1.7,3.6-4.4,3.2c-0.5-0.1-1.1-0.2-1.6-0.4
			c-1-0.4-1.6-1.1-1.5-2.3C301.7,409.7,301.7,406.5,301.7,403.3z M307.5,331.4c-1.1,0.8-1.5,1.9-1.5,3.1c-0.1,5.7,0.2,11.5-0.2,17.2
			c-0.2,3.4-0.3,6.9-0.5,10.4s0,7-0.2,10.5c-0.3,4.5,0,8.9-0.2,13.4c-0.3,4.6,0,9.2-0.3,13.8c-0.3,3.7,0.3,7.4,0.2,11.1
			c0,0.3-0.1,0.7,0.4,0.8c1.2-1.8,1.1-3.9,1.3-5.8c0.3-3.9,0-7.9,0.2-11.8c0.2-4.1,0.3-8.3,0.5-12.4c0.2-5,0.2-10,0.5-15
			c0.1-2.3,0.1-4.7,0.2-7c0.2-4.4,0.3-8.9,0.5-13.4c0.2-4,0-7.9,0-11.9C308.4,333.3,308,332.4,307.5,331.4z"/>
		<path class="st0" d="M247,408.5c0.3-5.5,0.3-11.1,0.2-16.6c0-1.9-0.3-3.9-0.2-5.8c0.4-4.8,0-9.6,0.2-14.5
			c0.5-11.8,0.1-23.6,0.2-35.3c0-1.6,0.6-2.5,1.9-2.9c2.1-0.6,3.2-0.2,4.1,1.3c1.4,2.4,1.3,5.1,1.1,7.7c0,0.5-0.1,1-0.1,1.5
			c0,7.5,0.4,15.1-0.1,22.5c-0.7,10.7,0,21.4-0.4,32.1c-0.1,2.4-0.2,4.8-0.2,7.2c0,1.5,0.2,3,0.4,4.5c0.3,2.1-0.2,4.4-2.4,4.9
			c-1.1,0.3-2.3,0.2-3.4-0.3c-0.8-0.4-1.4-1-1.4-2.1C247,411.4,247,410,247,408.5z M251,411.1c0.4-0.4,0.3-0.7,0.3-1.1
			c0.2-1.2-0.3-2.3-0.3-3.4c0.1-5.1-0.1-10.3,0.2-15.4c0.3-6.8,0-13.6,0.2-20.5c0.3-7,0-14.1,0.3-21.1c0.1-2.3,0.1-4.6,0-6.9
			c-0.1-1.7-0.5-3.4-1.3-5.1c-0.2,0.6-0.4,1.1-0.4,1.6c-0.1,6.4,0,12.8-0.2,19.2c-0.3,13.9,0.2,27.8-0.3,41.7
			c-0.1,3.1,0.4,6.2,0.3,9.3C249.8,410.1,250,410.9,251,411.1z"/>
		<path class="st2" d="M422.9,195.7c-15.1,0-30.2,0-45.4,0c-19.2,0-38.4-0.1-57.6,0.1c-4.2,0-8.5-0.1-12.7,0.2
			c-3.2,0.2-6.3,0.2-9.4,0.1c-1.9,0-3.7,0.1-5.5,0c-4.5-0.3-9-0.3-13.5-0.2c-2.3,0.1-4.7,0.2-7,0.2c-31-0.5-62-0.3-93-0.2
			c-16.4,0.1-32.9-0.2-49.3,0.2c-12.5,0.3-24.9-0.1-37.4,0.2c-9.1,0.3-18.3,0.1-27.4,0.2c-1.6,0-3.3,0-4.9,0.2
			c-1.8,0.2-3.3-0.8-3.3-2.9c-0.1-3.7-0.6-7.3-1.1-10.9c-0.5-3-0.7-6-1-8.9c-0.5-4.7-0.7-9.4-1-14.1c-0.2-3-0.4-6-0.7-9
			c-0.3-3.3-0.5-6.5-0.9-9.8c-0.3-2.4-0.5-4.8-0.8-7.2c-0.4-3.1-0.8-6.2-1.2-9.3c-0.2-2-0.3-3.9-0.5-5.9c-0.3-3.5-0.7-7-0.9-10.5
			c-0.1-2-0.3-3.9-0.5-5.9c-0.3-2.6-0.5-5.3-0.9-7.9c-0.3-1.8-0.4-3.7-0.5-5.5c-0.3-3.3-0.7-6.6-0.9-9.9c-0.1-2-0.3-3.9-0.5-5.9
			c-0.3-3-0.5-6-0.9-9c-0.3-1.9-0.3-3.9-0.5-5.8c-0.3-2.9-0.7-5.8-0.9-8.7c-0.2-3.4-0.9-6.9,0.4-10.2c0.4-1,0.9-1.9,1.7-2.7
			c1.2-1.2,2.4-2.2,3.3-3.6c0.5-0.7,1.2-1,1.9-1.1c1.2-0.2,2.4-0.3,3.7-0.3c4,0,8-0.3,12.1-0.3c1.7,0,3.4-0.2,5.1-0.2
			c15.6,0,31.2,0.2,46.8-0.1c7.6-0.1,15.3,0.1,22.9-0.2c4.5-0.2,9,0.1,13.5-0.2c6.7-0.4,13.5,0.1,20.2-0.2
			c9.5-0.4,19.1,0.1,28.6-0.3c7.4-0.3,14.9,0.1,22.3-0.2c6.1-0.3,12.2,0.1,18.3-0.2c3.4-0.2,6.8-0.3,10.2-0.1
			c4.6,0.3,9.1,0.2,13.6,0.1c5.3-0.1,10.6,0,15.9-0.2c5.1-0.3,10.2,0,15.3-0.2c14.7-0.5,29.5,0,44.2-0.3c4.5-0.1,9,0,13.5-0.2
			c10.8-0.5,21.7,0,32.5-0.3c3.4-0.1,6.9,0,10.3-0.2c3-0.2,5.9-0.2,8.8-0.2c17.1,0,34.2,0,51.4,0c4.1,0,8.2-0.6,12.3-0.4
			c2.5,0.1,5,0.1,7.3,1.1c4.3,1.9,7,5.2,8.2,9.6c0.6,2.1,0.2,4.2-0.1,6.2c-0.3,2.3-0.6,4.6-0.9,6.9c-0.3,2.9-0.6,5.8-0.9,8.7
			c-0.2,1.8-0.3,3.7-0.5,5.6c-0.3,2.7-0.6,5.4-0.9,8.1c-0.2,1.8-0.3,3.7-0.5,5.6c-0.3,3.1-0.6,6.3-0.9,9.4c-0.2,2-0.3,4-0.5,6
			c-0.3,3.2-0.6,6.4-0.9,9.6c-0.2,1.9-0.3,3.9-0.5,5.8c-0.3,2.9-0.7,5.7-0.9,8.6c-0.1,2.1-0.4,4.2-0.6,6.3c-0.2,3.2-0.7,6.4-0.9,9.6
			c-0.1,2-0.3,3.9-0.5,5.9c-0.3,3.3-0.6,6.7-0.9,10c-0.3,2.8-0.5,5.6-0.8,8.4c-0.3,2.9-0.7,5.7-0.9,8.6c-0.2,2.1-0.3,4.2-0.5,6.3
			c-0.2,3.3-0.6,6.6-1,9.9c-0.4,3.4-0.8,6.7-1.5,10.1c-0.2,1.1-0.8,1.6-2.4,1.8c-0.3,0-0.6,0-1,0
			C453.3,195.7,438.1,195.7,422.9,195.7z M251.2,61c3.1,0.1,6.6-0.5,10.2-0.6c4-0.2,8-0.7,12-0.6c1.6,0.1,3.3-0.2,4.9-0.3
			c1.1-0.1,2.1-1.1,2-2c-0.1-1.2-1.1-1.4-2-1.3c-1.5,0.1-3-0.4-4.5-0.2c-3.8,0.5-7.7,0.2-11.6,0.4c-5.4,0.2-10.7,0.2-16.1,0.8
			c-1.5,0.2-2.2,0.7-2.2,1.9s0.9,1.9,2.4,1.9C247.7,61,249.2,61,251.2,61z M260.4,144.3c2.8,0,6.3,0.1,9.8-0.2
			c2.8-0.2,5.6-0.3,8.3-0.5c0.9-0.1,1.9-1.4,1.8-2.3c-0.1-1.1-0.9-1.3-1.8-1.3c-3.8,0.1-7.6-0.1-11.4,0.2c-3.6,0.3-7.3,0.1-11,0.2
			c-2.6,0.1-5.3,0.5-8,0.1c-0.4-0.1-0.9,0-1.3,0.3c-0.7,0.4-1,1.1-0.8,1.8c0.2,0.8,0.6,1.5,1.5,1.5c1.6,0,3.3,0.2,4.9,0.2
			C254.9,144.3,257.3,144.3,260.4,144.3z M321.4,85.5c-2,0-3,0.6-3.2,1.9c-0.1,1,0,1.9,0.4,2.8c0.9,1.9,3.5,2.4,5,1
			c0.8-0.8,1.4-2.9,1-3.7C323.9,86.2,323,85.1,321.4,85.5z M321.5,120.1c2.4,0,2.9-0.5,3-2.5c0.1-2.5-1-2.8-3.9-3.2
			c-1.7-0.2-2,1.4-2.1,3.1C318.4,119,319.7,120.1,321.5,120.1z M204.5,114.8c-1.8-0.4-3.2,1.7-3.1,3.1c0,1.6,1,2.5,2.8,2.4
			c2.3-0.2,3.1-0.8,3.2-3.4C207.4,115.5,206.4,114.8,204.5,114.8z M204.4,91.5c1,0.2,2-0.1,2.4-1.2c0.5-1.3,0-2.9-1-3.5
			c-0.7-0.5-1.5-0.2-2.3-0.3c-1-0.1-1.7,0.4-2,1.3c-0.4,1.1-0.7,2.3,0.4,3.2C202.6,91.5,203.4,91.5,204.4,91.5z"/>
		<path class="st0" d="M273.8,265.5c2,0,3.9,1.6,3.8,3.3c-0.1,1.7-2.1,3.7-3.8,3.7c-2,0-3.9-1.8-3.9-3.7
			C270,266.9,271.6,265.5,273.8,265.5z M273.3,270.3c1.1,0,2.3-0.9,2.2-1.7c-0.1-0.8-0.7-1.1-1.4-1.1c-1.1,0-2,0.7-2,1.6
			C272.1,269.8,272.4,270.3,273.3,270.3z"/>
		<path class="st4" d="M476.6,259.5c0.7,1.1,1,2.1,1,3.3c0,9.4,0.1,18.9,0,28.3c-0.5,39.3-0.1,78.6-0.2,117.9c0,1-0.1,1.9-0.7,2.7
			c-0.7,0-0.8-0.5-1-0.9c-0.7-1.8-0.8-3.8-0.9-5.7c-0.1-2.6-0.2-5.2,0.1-7.8c0.2-1.4,0.1-2.9,0-4.3c-0.4-16-0.2-32-0.2-48.1
			c0-10.6,0.1-21.2,0-31.8c-0.1-7.3-0.3-14.5-0.2-21.8c0-2.4,0.3-4.9,0.2-7.3c-0.4-6.8-0.1-13.7-0.2-20.5
			C474.5,261.9,475.1,260.5,476.6,259.5z"/>
		<path class="st4" d="M137.2,257.5c1.5,0.7,1.5,1.9,1.5,3.1c0.4,6.4-0.3,12.8,0,19.2c0.4,8.8,0,17.6,0.3,26.4
			c0.1,2.4,0.3,4.9,0.1,7.3c-0.4,5.1-0.2,10.2-0.1,15.3c0,2.8,0,5.6,0.2,8.4c0.3,4,0.3,7.9,0.1,11.8c-0.1,2.7-0.3,5.3-0.1,8
			c0.5,10.9,0.2,21.7,0.1,32.6c0,3.8-0.1,7.6-0.2,11.4c0,1.2,0,2.4,0.2,3.6c0.3,2.3-0.1,4.6-0.7,6.8c-0.1,0.4-0.2,0.8-0.7,0.8
			c-0.6,0-0.7-0.5-0.8-0.9s-0.1-0.9-0.1-1.3c0-33.2,0.1-66.4-0.1-99.6c0-6.6,0.1-13.3-0.2-19.9c-0.4-9.7-0.1-19.5-0.2-29.2
			C136.5,260,136.9,258.8,137.2,257.5z"/>
		<path class="st4" d="M193.7,412.5c-0.7-0.1-0.9-0.5-1-0.9c-0.4-2.3-1-4.5-1-6.9c0-30.6,0.1-61.1,0-91.7c0-3.5,0-7.1-0.2-10.6
			c-0.1-2.1-0.2-4.1-0.1-6.2c0.1-2.7,0.8-5.4,0.3-8.1c-0.6-3.5-0.5-7-0.3-10.5c0.1-3.3,0-6.6,0.2-9.9c0.1-1.5,0.4-3,0.7-4.6
			c0.1-0.7,0.5-1.3,1.2-1.5c0.8-0.2,1,0.5,1.3,1c0.6,0.8,0.8,1.7,0.8,2.7c0,9.7,0.2,19.4,0,29c-0.4,19.9,0,39.7-0.2,59.6
			c-0.1,4.2-0.1,8.4-0.2,12.6c-0.5,10.8,0,21.6-0.2,32.4c-0.1,3.4-0.1,6.9-0.2,10.3C194.6,410.3,194.3,411.4,193.7,412.5z"/>
		<path class="st4" d="M362.3,410.9c-1.3-0.8-0.8-2-0.8-3.1c0-0.4,0.2-0.8,0.2-1.2c-0.2-3.5,0.2-6.9,0.3-10.4c0.1-2.6,0-5.1,0.2-7.6
			c0.5-9-0.1-18,0.3-27c0.4-10.7,0.3-21.3,0.1-32c-0.1-6.5-0.3-12.9-0.1-19.4c0.3-8.9-0.1-17.8,0.2-26.7c0.2-6.1,0-12.1,0.2-18.2
			c0-0.2,0-0.4,0-0.6c0.2-0.8,0.3-1.9,1.4-2s1,1.1,1.2,1.8c0.3,0.9,0.3,2,0.3,3c-0.1,8.7-0.1,17.5-0.3,26.2c-0.2,7.5,0,15-0.2,22.5
			c-0.3,11.6-0.1,23.2-0.3,34.8c-0.1,3.8,0.1,7.6-0.2,11.4c-0.4,6,0.1,12-0.3,18c-0.3,5.9,0,11.8-0.2,17.7c-0.2,3.3-0.1,6.7-0.5,10
			C363.7,409.1,363.3,410.1,362.3,410.9z"/>
		<path class="st4" d="M80.4,258.5c0.8,1.2,0.5,2.6,0.6,3.9c0.2,1.7,0.3,3.4,0.3,5.1c0,19.8-0.2,39.5,0.1,59.3
			c0.3,21-0.1,42,0.2,63.1c0.1,5.3,0.1,10.5,0.1,15.8c0,1.7-0.2,3.4-1.2,4.9c-0.1,0.1-0.1,0.3-0.2,0.4c-0.7-0.5-0.5-1.1-0.5-1.5
			c0-12.6,0.2-25.1-0.1-37.7c-0.1-6.9,0-13.7-0.2-20.6c-0.5-29-0.1-58-0.2-87.1c0-1.5-0.3-2.9,0.2-4.4
			C79.8,259.3,79.9,258.8,80.4,258.5z"/>
		<path class="st4" d="M420.2,411.5c0-0.8,0-1.2,0-1.6c0.2-9.1,0-18.2-0.3-27.3c-0.2-7.8-0.1-15.6-0.2-23.4
			c-0.1-6.1-0.1-12.2-0.3-18.3c-0.3-10.3,0.1-20.6-0.2-30.9c-0.2-6.5,0.1-12.9-0.2-19.4c-0.4-8.3-0.1-16.7-0.2-25
			c0-1.4,1-2.6,0.8-4.1c0-0.3,0.3-0.4,0.5-0.4c0.3,0,0.5,0.2,0.6,0.5c0.6,1.1,1,2.2,1,3.4c0,4.2,0.1,8.4,0,12.6
			c-0.5,20.9-0.1,41.9-0.2,62.8c0,3.2,0.2,6.5,0.1,9.7c-0.3,8.8,0,17.6-0.3,26.4c-0.3,10.8,0,21.6-0.2,32.4
			C421.2,409.7,421.1,410.5,420.2,411.5z"/>
		<path class="st4" d="M307.5,331.4c0.5,1,0.9,1.9,0.9,3c0,4,0.1,7.9,0,11.9c-0.2,4.5-0.3,8.9-0.5,13.4c-0.1,2.4,0,4.7-0.2,7
			c-0.3,5-0.3,10-0.5,15c-0.2,4.1-0.3,8.3-0.5,12.4c-0.2,4,0,7.9-0.2,11.8c-0.1,2-0.1,4-1.3,5.8c-0.5-0.2-0.4-0.5-0.4-0.8
			c0.1-3.7-0.5-7.4-0.2-11.1c0.3-4.6,0-9.2,0.3-13.8c0.3-4.5-0.1-8.9,0.2-13.4c0.2-3.5,0-7,0.2-10.5s0.2-6.9,0.5-10.4
			c0.4-5.7,0.1-11.5,0.2-17.2C306,333.3,306.4,332.3,307.5,331.4z"/>
		<path class="st4" d="M251,411.1c-1-0.2-1.1-1-1.1-1.7c0.1-3.1-0.4-6.2-0.3-9.3c0.5-13.9,0-27.8,0.3-41.7
			c0.2-6.4,0.1-12.8,0.2-19.2c0-0.5,0.1-1,0.4-1.6c0.7,1.7,1.2,3.4,1.3,5.1c0.1,2.3,0.1,4.6,0,6.9c-0.3,7,0,14.1-0.3,21.1
			c-0.3,6.8,0.1,13.7-0.2,20.5c-0.3,5.2-0.1,10.3-0.2,15.4c0,1.2,0.4,2.3,0.3,3.4C251.2,410.3,251.4,410.7,251,411.1z"/>
		<path class="st5" d="M251.2,61c-2,0-3.5,0-4.9,0c-1.5,0-2.4-0.7-2.4-1.9s0.7-1.8,2.2-1.9c5.4-0.6,10.7-0.6,16.1-0.8
			c3.9-0.1,7.7,0.1,11.6-0.4c1.5-0.2,3,0.3,4.5,0.2c1-0.1,1.9,0.1,2,1.3c0.1,0.9-0.9,2-2,2c-1.6,0.1-3.2,0.3-4.9,0.3
			c-4-0.1-8,0.4-12,0.6C257.8,60.6,254.3,61.1,251.2,61z"/>
		<path class="st5" d="M260.4,144.3c-3.1,0-5.5,0-8,0c-1.6,0-3.2-0.3-4.9-0.2c-0.9,0-1.3-0.7-1.5-1.5s0.2-1.4,0.8-1.8
			c0.4-0.3,0.8-0.4,1.3-0.3c2.7,0.5,5.3,0,8-0.1c3.7-0.1,7.3,0,11-0.2c3.8-0.3,7.6-0.1,11.4-0.2c0.9,0,1.7,0.2,1.8,1.3
			c0.1,1-0.9,2.3-1.8,2.3c-2.8,0.2-5.6,0.3-8.3,0.5C266.7,144.4,263.2,144.3,260.4,144.3z"/>
		<path class="st5" d="M321.4,85.5c1.6-0.4,2.5,0.7,3.2,2c0.5,0.9-0.1,3-1,3.7c-1.5,1.4-4.1,0.8-5-1c-0.4-0.9-0.6-1.8-0.4-2.8
			C318.4,86.1,319.4,85.5,321.4,85.5z"/>
		<path class="st5" d="M321.5,120.1c-1.8,0-3.1-1.1-3-2.6c0.1-1.7,0.5-3.3,2.1-3.1c2.9,0.4,4,0.7,3.9,3.2
			C324.4,119.6,323.9,120.1,321.5,120.1z"/>
		<path class="st5" d="M204.5,114.8c1.9,0,2.9,0.7,2.9,2.1c-0.2,2.6-1,3.2-3.2,3.4c-1.7,0.2-2.7-0.8-2.8-2.4
			C201.3,116.4,202.7,114.4,204.5,114.8z"/>
		<path class="st5" d="M204.4,91.5c-1,0-1.8,0-2.5-0.6c-1.1-0.9-0.8-2.1-0.4-3.2c0.3-0.9,1-1.4,2-1.3c0.8,0.1,1.6-0.2,2.3,0.3
			c1,0.6,1.5,2.2,1,3.5C206.4,91.4,205.4,91.7,204.4,91.5z"/>
		<path class="st3" d="M273.3,270.3c-0.8,0.1-1.2-0.4-1.2-1.2c0-0.9,0.8-1.6,2-1.6c0.8,0,1.3,0.4,1.4,1.1
			C275.5,269.4,274.4,270.3,273.3,270.3z"/>
	</g>
</g>
</svg>
