<?xml version="1.0" encoding="utf-8"?>
<!-- Generator: Adobe Illustrator 23.0.1, SVG Export Plug-In . SVG Version: 6.00 Build 0)  -->
<svg version="1.1" id="toolbox_xA0_Image_1_" xmlns="http://www.w3.org/2000/svg" xmlns:xlink="http://www.w3.org/1999/xlink"
	 x="0px" y="0px" viewBox="0 0 544.8 438.5" style="enable-background:new 0 0 544.8 438.5;" xml:space="preserve">
<style type="text/css">
	.st0{fill:#FEFEFE;}
	.st1{fill:#140305;}
	.st2{fill:#E04658;}
	.st3{fill:#B1B1B1;}
	.st4{fill:#828282;}
	.st5{fill:#881624;}
	.st6{fill:#AF606A;}
</style>
<g>
	<g>
		<path class="st0" d="M545,438.8c-181.6,0-363.2,0-544.8,0c0-146.2,0-292.5,0-438.7c181.6,0,363.2,0,544.8,0
			C545,146.3,545,292.5,545,438.8z M539.2,428.6c0-1,0-1.9,0-2.8c0-27.6,0-55.1-0.2-82.7c-0.1-20-0.2-39.9-0.2-59.9
			c0-14.7,0-29.4,0-44c0-1.8-0.6-2.9-2.2-3.7c-2.3-1.1-3.7-2.9-4-5.4c-0.3-2.5-0.4-4.9-0.5-7.4c-0.2-2.7-0.1-5.4-1-8
			c-0.6-1.6-1.5-2.3-3.1-2.4c-3.1,0-6.3-0.2-9.4,0c-5,0.3-9.5-1-13.8-3.3c-5.5-2.9-10.8-6.3-16.6-8.9c-2.5-1.2-3.4-3.2-3-6.2
			c0.7-5.2,1.1-10.4,1.6-15.6c0.8-9.2,1.5-18.4,2.2-27.6c0.7-8.5,1.4-17,2.1-25.6c0.8-9.5,1.6-18.9,2.5-28.4
			c0.8-8.6,1.6-17.3,2.3-25.9c0.9-10.5,1.9-21,2.5-31.5c0.3-5.3,0.8-10.6,1.2-15.9c0.2-3.6-3.7-9.4-7.1-10.6c-0.3-0.1-0.7-0.2-1-0.3
			c-3.3-0.7-6.6-0.2-9.8,0.5c-0.4,0.1-0.7,0.2-0.8,0.6c-0.6,1.4-1.7,1.7-3.1,1.8c-8.7,0.4-17.4,0.1-26,0.3
			c-12.5,0.2-25,0.4-37.5,0.5c-23.1,0.2-46.1,0.5-69.2,0.7c-12.4,0.1-24.8,0-37.2,0.5c-5.9,0.2-11.8,0.2-17.7,0.3
			c-3.2,0.1-6.4,0.7-9.7,0.3c-1.3-0.2-2.4-0.6-3.1-1.8c-1-1.6-2.4-2.5-4.3-2.7c-4.8-0.4-9.6-0.7-14.5-0.7c-2.2,0-4,0.9-5.1,3
			c-1,1.8-2.6,2.6-4.6,2.6c-8.1,0-16.2,0.1-24.4,0.1c-19.6,0-39.2,0-58.8,0.1c-8.6,0-17.1,0.1-25.7,0.2c-26.3,0.1-52.6,0.1-79,0.1
			c-2.1,0-4.2,0.1-6.2,0.1c-1.6,0-3.2-0.1-4.7-0.7c-1-0.4-2.1-0.7-3.2-0.5c-2.4,0.5-4.7,0.1-7,0.2c-2.4,0.1-4.2,0.9-5.5,3
			c-1.7,2.7-3.1,5.4-4.4,8.3c-0.5,1.2-0.6,2.4-0.4,3.6c0.2,1.8,0.5,3.6,0.6,5.3c0.2,4.7,0.3,9.4,0.9,14.1c0.5,3.4,0.8,6.8,1.2,10.2
			c0.5,4.1,0.7,8.3,1.1,12.4c0.4,4.3,0.9,8.6,1.3,12.9c0.6,6.2,1.2,12.3,1.8,18.5c0.5,5.8,1.1,11.5,1.6,17.3
			c0.6,6,1.1,12.1,1.7,18.1c0.6,6.1,1.2,12.1,1.8,18.2c0.7,6.8,1.3,13.7,2,20.5c0.6,6,1.1,12.1,1.6,18.1c0.1,1.1-0.2,2-1,2.7
			c-0.6,0.6-1.2,1.2-1.8,1.7c-3.9,3.2-8.2,6-12.1,9.2c-2.6,2.1-5.6,3.3-9.1,2.6c-0.6-0.1-1.3,0-1.9,0.3c-5.2,2.2-8.1,7.4-7.1,13.3
			c0.5,3.1-0.4,5.5-2.7,7.4c-1.1,0.9-2.2,1.8-3.3,2.7c-0.3,0.3-0.7,0.7-0.5,1.1c1,1.5,0.6,3.2,0.6,4.8c0,14.7,0,29.4,0.1,44
			c0.1,18.2,0.3,36.3,0.3,54.5c0.1,28.6,0.1,57.1,0.1,85.7c0,1,0,2.1,0.5,3c0.2,0.5,0.5,0.9,1.1,1c4.1,0.8,8.1,1.1,12.2,0
			c2-0.5,3.9-1.5,6-1.5c25.6,0.1,51.3-0.4,76.9-0.5c23.9-0.1,47.9,0.1,71.8-0.4c3.2-0.1,6.4-0.1,9.6-0.1c25.9,0.1,51.7-0.3,77.6-0.4
			c26.1-0.1,52.2-0.1,78.4-0.3c10.8-0.1,21.5-0.2,32.3-0.2c20.8,0,41.6-0.4,62.4-0.5c8.8,0,17.7,0,26.5,0c8.4,0,16.7-0.2,25.1-0.3
			c9.4-0.1,18.7-0.2,28.1-0.3c1.7,0,3.3,0.2,4.7,1.4c0.9,0.7,2.1,0.9,3.2,0.4c1.5-0.7,3.1-0.6,4.7-0.6
			C531.7,429.5,535.4,429.7,539.2,428.6z"/>
		<path class="st1" d="M539.2,428.6c-3.7,1.1-7.5,0.9-11.2,0.7c-1.6-0.1-3.2-0.1-4.7,0.6c-1.1,0.5-2.3,0.3-3.2-0.4
			c-1.4-1.1-3-1.4-4.7-1.4c-9.4,0.1-18.7,0.2-28.1,0.3c-8.4,0.1-16.7,0.2-25.1,0.3c-8.8,0-17.7,0-26.5,0
			c-20.8,0.1-41.6,0.5-62.4,0.5c-10.8,0-21.5,0.1-32.3,0.2c-26.1,0.2-52.2,0.2-78.4,0.3c-25.9,0.1-51.7,0.5-77.6,0.4
			c-3.2,0-6.4,0-9.6,0.1c-23.9,0.5-47.9,0.3-71.8,0.4c-25.6,0.1-51.3,0.6-76.9,0.5c-2.1,0-4,1-6,1.5c-4.1,1.1-8.2,0.7-12.2,0
			c-0.6-0.1-0.9-0.5-1.1-1c-0.5-1-0.5-2-0.5-3c0-28.6,0-57.1-0.1-85.7c0-18.2-0.2-36.3-0.3-54.5c-0.1-14.7,0-29.4-0.1-44
			c0-1.6,0.4-3.3-0.6-4.8c-0.3-0.4,0.1-0.8,0.5-1.1c1.1-0.9,2.2-1.8,3.3-2.7c2.3-2,3.2-4.3,2.7-7.4c-1-5.9,1.9-11,7.1-13.3
			c0.6-0.3,1.2-0.4,1.9-0.3c3.5,0.7,6.5-0.5,9.1-2.6c3.9-3.2,8.2-5.9,12.1-9.2c0.6-0.5,1.3-1.1,1.8-1.7c0.7-0.7,1.1-1.7,1-2.7
			c-0.5-6-0.9-12.1-1.6-18.1c-0.7-6.8-1.3-13.7-2-20.5c-0.6-6.1-1.2-12.2-1.8-18.2c-0.6-6-1.2-12.1-1.7-18.1
			c-0.5-5.8-1.1-11.5-1.6-17.3c-0.6-6.2-1.2-12.3-1.8-18.5c-0.4-4.3-0.9-8.6-1.3-12.9c-0.4-4.1-0.6-8.3-1.1-12.4
			c-0.4-3.4-0.8-6.8-1.2-10.2c-0.7-4.7-0.8-9.4-0.9-14.1c-0.1-1.8-0.4-3.6-0.6-5.3c-0.2-1.3-0.1-2.4,0.4-3.6
			c1.2-2.9,2.7-5.7,4.4-8.3c1.3-2,3.2-2.9,5.5-3c2.3-0.1,4.7,0.3,7-0.2c1-0.2,2.2,0.1,3.2,0.5c1.5,0.6,3.1,0.7,4.7,0.7
			c2.1,0,4.2-0.1,6.2-0.1c26.3,0,52.6-0.1,79-0.1c8.6,0,17.1-0.1,25.7-0.2c19.6,0,39.2-0.1,58.8-0.1c8.1,0,16.2-0.1,24.4-0.1
			c2,0,3.7-0.8,4.6-2.6c1.1-2.1,2.8-3,5.1-3c4.8,0,9.7,0.3,14.5,0.7c1.9,0.1,3.3,1,4.3,2.7c0.7,1.2,1.8,1.6,3.1,1.8
			c3.3,0.4,6.5-0.2,9.7-0.3c5.9-0.1,11.8-0.1,17.7-0.3c12.4-0.5,24.8-0.4,37.2-0.5c23.1-0.2,46.1-0.4,69.2-0.7
			c12.5-0.1,25-0.3,37.5-0.5c8.7-0.1,17.4,0.1,26-0.3c1.4-0.1,2.5-0.4,3.1-1.8c0.2-0.4,0.4-0.5,0.8-0.6c3.3-0.7,6.5-1.1,9.8-0.5
			c0.4,0.1,0.7,0.2,1,0.3c3.4,1.2,7.3,6.9,7.1,10.6c-0.4,5.3-0.9,10.6-1.2,15.9c-0.6,10.5-1.5,21-2.5,31.5
			c-0.8,8.6-1.6,17.3-2.3,25.9c-0.8,9.5-1.7,18.9-2.5,28.4c-0.7,8.5-1.4,17-2.1,25.6c-0.7,9.2-1.4,18.4-2.2,27.6
			c-0.5,5.2-0.9,10.4-1.6,15.6c-0.4,3,0.4,5,3,6.2c5.7,2.6,11,6,16.6,8.9c4.3,2.3,8.8,3.6,13.8,3.3c3.1-0.2,6.2,0,9.4,0
			c1.6,0,2.5,0.7,3.1,2.4c0.9,2.6,0.8,5.3,1,8c0.2,2.5,0.2,5,0.5,7.4c0.3,2.5,1.8,4.3,4,5.4c1.6,0.8,2.2,1.9,2.2,3.7
			c0,14.7-0.1,29.4,0,44c0.1,20,0.1,39.9,0.2,59.9c0.2,27.6,0.2,55.1,0.2,82.7C539.2,426.7,539.2,427.6,539.2,428.6z M239.5,21.5
			c-0.4,0-0.9-0.1-1.3-0.1c-20.5,0-41.1,0-61.6,0c-5.1,0-10.2,0-15.3,0c-0.4,0-0.9,0-1.3,0c-13.5,0-27,0-40.4,0c-13,0-26,0.2-39,0.2
			c-5.3,0-10.6,0-16-0.1c-3.9-0.1-7.7-0.4-11.6,0.1c-2.4,0.3-4.4,2.2-4.6,4.4c0.7,0,1.4,0,2.1,0c1.2,0,2.5,0.1,3.5-0.8
			c0.2-0.2,0.5-0.2,0.8,0c1,0.8,2.2,0.8,3.4,0.8c6.4-0.2,12.8-0.3,19.2-0.4c6.9-0.1,13.8-0.1,20.6-0.2c11.8-0.1,23.7-0.4,35.5-0.7
			c7.1-0.2,14.2,0,21.3-0.3c4.5-0.1,9,0,13.4-0.2c3-0.2,5.9-0.1,8.9,0c3.5,0.2,7,0.2,10.5-0.4c1.3-0.2,2.4-0.3,3.7,0.1
			c1.8,0.6,3.6,0.1,5.3,0c5.4-0.2,10.9-0.1,16.3-0.2c6.9-0.2,13.8-0.1,20.6-0.1c1.9,0,3.8,0.1,5.6-0.1c0.6-0.1,1.1-0.3,1.2-0.9
			C240.6,21.8,240,21.6,239.5,21.5z M304.3,26c-10.4,0-20.8,0-31.1,0c-0.2,0-0.4,0.1-0.6,0.1c-3.4,0-6.8,0.2-10.2,0.2
			c-17.3,0.2-34.6,0.2-51.9,0.5c-5.8,0.1-11.5,0-17.3-0.1c-11.9-0.1-23.8-0.1-35.6,0.1c-5.5,0.1-11,0-16.6,0c-2.7,0-5.4,0.1-8,0.9
			c-1.2,0.3-2.4,0.5-3.7,0.5c-13.8,0.2-27.6-0.1-41.4,0.3c-13,0.4-25.9-0.3-38.9-0.2c-1.6,0-3.3,0-4.9-0.2C42.1,28,40,28,37.9,28.4
			c-3,0.6-4.4,1.9-4.5,4.5c0,1.1,0.1,2.2,0.2,3.3c0.3,3.2,0.6,6.4,0.9,9.6c0.3,3.4,0.5,6.8,0.8,10.1c0.4,4.3,0.7,8.6,1.1,12.9
			c0.3,3.3,0.5,6.5,0.8,9.8c0.3,3.3,0.6,6.5,0.9,9.8c0.3,3.2,0.5,6.4,0.8,9.5c0.4,4,0.7,8,1.1,12c0.3,3.2,0.5,6.4,0.8,9.5
			c0.3,3.1,0.6,6.2,0.9,9.3c0.3,3.2,0.5,6.4,0.8,9.7c0.3,3.2,0.6,6.4,0.9,9.6c0.3,3.1,0.5,6.1,0.8,9.2c0.3,3.5,0.7,7.1,1.1,10.6
			c0.4,4.3,0.8,8.6,1.3,12.8c0.5,4.7,0.8,9.5,1.1,14.2c0.1,2.3,1,3.2,3.2,3.2c4.5-0.1,9-0.2,13.6-0.2c26.8,0,53.7-0.1,80.5-0.3
			c8.5-0.1,17,0,25.5-0.1c7.8-0.1,15.7,0,23.5,0.1c13,0.3,25.9-0.2,38.9-0.4c9.4-0.1,18.9-0.2,28.3-0.5c9.5-0.3,19,0.1,28.5-0.2
			c3.1-0.1,6.2,0.1,9.2,0.1c26.1,0,52.2,0,78.3,0c17.9,0,35.8,0,53.6,0c13.2,0,26.3,0,39.5,0.1c0.4,0,0.7-0.1,1,0.2
			c0.5,0.5,1.1,0.4,1.7,0.2c1-0.4,1.9-0.4,2.9-0.4c1.3,0.1,2.6,0.1,3.8,0.3c1,0.1,1.4-0.3,1.4-1.3c0-1.2,0.2-2.4,0.3-3.6
			c0.4-4.2,0.8-8.5,1.1-12.7c0.3-3.1,0.5-6.1,0.8-9.2c0.3-3.3,0.6-6.6,0.9-9.9c0.3-3.2,0.5-6.4,0.8-9.5c0.3-3.5,0.6-7.1,0.9-10.6
			c0.3-3.5,0.5-7,0.8-10.5c0.3-4,0.6-8,0.9-11.9c0.3-3.2,0.5-6.4,0.8-9.7c0.4-4.1,0.8-8.2,1.1-12.3c0.4-3.9,0.7-7.9,1-11.8
			c0.4-4.7,0.8-9.4,1.2-14.1c0.3-4.1,0.7-8.1,1-12.2c0.4-5,0.8-10,1.2-15c0.2-2.9,0.6-5.7,0.9-8.6c0.2-2.4,0.8-4.8,0.8-7.2
			c0-0.9-0.5-1.6-1.3-1.8c-4.3-1.3-8.6-2.6-13.2-2.7c-2.6,0-5.1,0.1-7.7,0.2c-5.7,0.1-11.4,0.3-17.1,0.5c-7.8,0.2-15.6,0.5-23.4,0.7
			c-7,0.2-14.1,0.5-21.1,0.7c-6.7,0.2-13.4,0.5-20.1,0.7c-7.3,0.3-14.6,0.6-21.9,0.7c-7.4,0.1-14.7,0.1-22.1-0.1
			C333.3,25.5,318.8,25.6,304.3,26z M470.9,426.1c9.8-0.1,19.6,0.1,29.3-0.2c5.3-0.1,10.6-0.1,15.9-0.1c1.9,0,2.2-0.4,2.3-2.2
			c0-3-0.3-6-0.3-9c0.1-3.1,0-6.1,0-9.2c0.3-1.7,0.1-3.3,0.2-5c0-16.8,0.1-33.6,0.1-50.3c0-3,0.1-6-0.2-9c0-34.2,0.8-68.4,0.5-102.7
			c-0.5,0-0.9,0-1.3,0c-3.3,0-6.6,0.1-10,0.2c-11.8,0.3-23.6,0.1-35.4,0.2c-18.1,0.3-36.1,0.1-54.2,0.3c-9.5,0.1-19,0-28.5,0
			c-0.5,0-1,0-1.4,0c-13.8,0-27.5,0.1-41.2,0.1c-14.8,0-29.7,0-44.5,0c-0.4,0-0.9-0.2-1.3,0.2c0,0.2-0.1,0.4,0,0.6
			c0.8,2.1,0.7,4.2,0.5,6.4c-0.5,5.7-0.1,11.5,0,17.2c0.1,2.8-0.1,5.6-2.2,7.8c-0.7,0.7-1,1.6-1.3,2.5c-0.3,0.9-0.1,1.8-0.3,2.7
			c-0.7,4.6-1.9,9.1-2.4,13.8c-0.3,2.9-1.9,4.3-4.8,4.8c-0.7,0.1-1.2,0.4-1.4,1.1c-0.3,0.8-0.4,1.7-0.5,2.6c-0.4,2.5-0.1,5-0.4,7.5
			c-0.4,2.4-1.7,4.1-4,4.6c-2.6,0.6-5.3,0.8-8,0.9c-3.5,0.2-6.9,0.3-10.4,0c-3.9-0.4-6.6-1.7-8-5.8c-0.7-2-0.8-4.1-1-6.2
			c-0.2-2.5-0.6-4.8-2.4-6.7c-0.3-0.3-0.6-0.8-0.7-1.2c-1-4.2-1.9-8.4-2.7-12.6c-0.6-3.3-1.5-6.5-3.6-9.3c-1.5-2.1-2.2-4.5-1.7-7.1
			c0.2-0.9,0.3-1.9,0.5-2.8c0.5-2.4,0.1-4.9,0.4-7.4c0.2-1.4,0.1-2.9-0.1-4.4c-0.5-2.9-1-5.9,1.2-8.7c-1.9,0-3.7,0-5.4,0
			c-9.9,0-19.8,0-29.6,0c-5.7,0-11.5,0-17.2,0c-2.3,0-4.5-0.1-6.8,0.2c-10.2,0-20.5,0-30.7,0c-5.7,0-11.5,0-17.2,0
			c-2.6,0-5.2-0.1-7.7,0.2c-2.8,0-5.5,0-8.3,0c-32.4,0-64.8,0-97.2,0c-0.5,0-1-0.1-1.6,0.2c0,0.4,0,0.9,0,1.3c0,7.9,0.1,15.8,0,23.7
			c-0.1,8.6,0.1,17.3-0.2,25.9c-0.3,7.5,0,15-0.2,22.5c-0.3,8.4,0,16.7-0.2,25.1c-0.3,8.4,0,16.9-0.2,25.3c-0.3,8.9,0,17.8-0.2,26.7
			c-0.3,11.4-0.2,22.7-0.3,34.1c0,1.4,0.7,2.1,2,2.1c5.5,0,11,0,16.4,0c9.5,0,19.1,0,28.6-0.1c1.5,0,3,0.1,4.5-0.1
			c1.8,0,3.7,0,5.5,0c17.9,0,35.8,0.1,53.8,0.1c8.4,0,16.7-0.4,25.1-0.2c5.3,0.2,10.6,0,16,0.2c6.2,0.1,12.5,0.5,18.7,0.6
			c14.5,0.2,29-0.2,43.5-0.4c22.7-0.3,45.4,0.1,68.1-0.5c9.4-0.2,18.7,0,28.1,0c13.8,0,27.7,0,41.5,0c4.1,0,8.3,0,12.4,0
			c2.4,0,4.8,0.1,7.3-0.2c10-0.1,20,0.1,30.1-0.2c6.9-0.2,13.7-0.1,20.6-0.1c5.1,0,10.2,0,15.3,0
			C464.8,426.2,467.8,426.3,470.9,426.1z M14.9,235.4c0.4,0.2,0.9,0.1,1.3,0.1c6.9-0.1,13.7,0,20.6-0.1c13.8-0.2,27.7-0.1,41.5-0.1
			c0.4,0,0.7,0,1.1,0c1.9-0.4,3.9-0.2,5.9-0.1c4.6,0.2,9.3,0.5,13.9,0.8c3.1,0.2,6.3-0.5,9.4-0.6c5.1-0.3,10.2,0.1,15.3,0
			c3.6-0.1,7.2-0.1,10.8,0.1c2.4,0.2,4.8,0.1,7.2-0.1c2.9-0.3,5.8,0.5,8.7,0.4c2.3-0.1,4.7-0.7,7-0.4c2,0.2,3.9,0.6,5.9,0.7
			c6.1,0.2,12.1,0,18.2-0.4c4.5-0.3,9.1,0.1,13.6-0.3c3.2-0.2,6.5-0.1,9.7-0.2c3.6-0.1,7.3,0,10.9,0.1c4.9,0.1,9.8,0.7,14.7,0.5
			c2.7-0.1,5.4,0.1,8.1-0.2c2.4-0.2,4.8,0.1,7.2,0.1c5.1,0,10.1-0.3,15.1-0.6c3.6-0.2,7.2,0.3,10.9,0.1c4.8-0.3,9.6-0.7,14.5-0.6
			c13.7,0.3,27.5-0.1,41.2,0.3c3.4,0.1,6.8,0,10.2-0.1c4.3-0.1,8.5-0.4,12.8-0.2c6.8,0.4,13.6-0.1,20.4,0.3c2.9,0.1,5.7,0,8.6-0.1
			c4-0.2,8,0,12,0c5.5,0,11.1,0,16.6,0.1c6.4,0.2,12.8,0.1,19.1,0.5c2.5,0.1,5.1-0.1,7.6-0.1c14-0.3,28,0.2,42-0.3
			c3.2-0.1,6.5,0,9.7,0.1c4.7,0.2,9.4-0.3,14.1-0.4c6.3-0.1,12.7-0.2,19-0.3c3-0.1,6,0,9,0c0.6,0,1.4,0.1,1.1-0.9
			c-1-2.7-1-5.4-0.7-8.2c0.3-2.9-0.7-5.5-1.5-8.2c-0.3-0.9-1-1.2-1.9-1.2c-1.3-0.1-2.6,0.2-3.9,0.2c-12.2,0.2-24.4-0.1-36.6,0.2
			c-10,0.2-20.1,0.2-30.1,0.3c-9.3,0.1-18.6,0-27.9,0.2c-14.3,0.2-28.6,0-42.9,0.1c-7.8,0-15.5-0.3-23.2-0.3
			c-8.5,0-17.1-0.1-25.6,0.5c-2.9,0.2-5.8-0.1-8.7-0.2c-6-0.1-12-0.1-18,0.1c-10.3,0.3-20.7,0.1-31,0.2c-19,0.3-38.1-0.1-57.1,0.3
			c-11.3,0.2-22.6-0.1-33.9,0.2c-6.5,0.2-13,0.1-19.5,0.2c-13.3,0.2-26.7-0.1-40,0.3c-3.9,0.1-7.8,0.1-11.7,0.2
			c-9.1,0.2-18.3,0.2-27.4,0.3c-6.6,0.1-13.2,0-19.8,0.2c-8.6,0.3-17.2-0.1-25.8,0.3c-5.2,0.2-10.5-0.2-15.7-0.2
			c-3.2,0-6.1,1.1-9.1,2.1c-0.3,0.1-0.5,0.3-0.7,0.4c-1.1,0.8-1.1,2.1-1.1,3.2C15.9,228.3,15.7,231.9,14.9,235.4z M521.5,335.2
			c0.1,19-0.2,40.8,0.4,62.7c0.2,8.6,0.1,17.3,0.1,25.9c0,2.2,0.7,3,2.9,3c3.4,0,6.7,0,10.1,0c1.7,0,2.2-0.6,2.2-2.3
			c0-3.5,0-7,0-10.6c-0.1-30.7,0.1-61.4-0.2-92.1c-0.2-26.8,0-53.5,0-80.3c0-1.7-0.5-2.5-2.1-2.7c-3.9-0.5-7.8-0.2-11.7-0.3
			c-1.2,0-1.6,0.7-1.6,1.8c0,1,0,1.9,0,2.9c0,13.8,0,27.7,0,41.5C521.5,300.6,521.5,316.5,521.5,335.2z M8.8,331.5
			c0.1,18.4,0,33.6,0.2,48.8c0.2,15.7,0.2,31.3,0.3,47c0,0.2,0,0.4,0,0.6c0.1,1.5,0.9,2.3,2.5,2.3c2.1-0.1,4.3-0.4,6.4-0.5
			c2.7-0.1,3.5-0.9,3.6-3.7c0-5.2,0-10.5,0-15.7c0.1-19,0-37.9,0.1-56.9c0.2-21.9,0.4-43.8-0.1-65.7c-0.2-9.4-0.1-18.7,0.2-28.1
			c0.1-3.2,0.2-6.4,0.2-9.6c0-2.4,0-4.7,0-7.1c0-2.3-0.4-2.8-2.8-2.9c-3-0.1-6,0-9,0c-1.8,0-1.9,0.1-1.9,2c0,2.4,0.1,4.7,0.2,7.1
			c0,10.1,0,20.2,0,30.4C8.8,297.9,8.8,316.3,8.8,331.5z M502.3,211.8c-1-1-1.8-2.3-3.2-3c-4.7-2.4-9.4-4.8-14-7.2
			c-1.9-1-3.9-1.6-6-1.7c-5-0.2-10.1-0.2-15.1-0.2c-8.4,0-16.7,0.3-25.1,0.4c-5.8,0.1-11.6-0.1-17.4-0.2
			c-15.7-0.1-31.4,0.1-47.1,0.3c-13.6,0.2-27.3-0.2-40.9,0.1c-12.2,0.3-24.5,0.2-36.7,0.3c-7.4,0-14.9,0.1-22.3,0
			c-5.6,0-11.3,0.5-16.9,0.5c-4.2,0-8.3,0-12.5,0c-11.9,0-23.8,0.1-35.7,0.4c-12.2,0.3-24.5,0.2-36.7,0.1
			c-12.7-0.1-25.4,0.1-38.1,0.3c-9,0.1-18-0.3-27-0.1c-8.4,0.2-16.8,0.2-25.2,0.3c-2.3,0-4.6-0.2-6.9-0.1c-2.8,0-5.6,0.3-8.4,0.3
			c-5.7,0-11.4-0.1-17-0.2c-1,0-1.9,0.2-2.7,0.8c-1,0.7-2,1.4-2.9,2.1c-3.7,2.9-7.2,6.2-11.2,8.8c-0.2,0.1-0.3,0.2-0.2,0.5
			c0.8,0,1.6,0,2.5-0.1c3.1-0.6,5.9-2,8.5-3.8c2.3-1.5,4.4-3.2,5.8-5.6c0.4-0.7,0.8-0.8,1.5-0.9c5.4-0.2,10.7-0.3,16.1,0
			c3.2,0.1,6.5-0.3,9.7-0.3c14.5-0.1,29-0.1,43.5-0.1c19.6,0,39.2,0,58.8,0c2.3,0,4.6,0.1,6.8-0.2c3.3-0.3,6.7-0.7,10-0.8
			c12.1-0.2,24.2-0.2,36.2-0.2c23.9-0.1,47.8,0,71.6,0c15,0,29.9,0,44.9,0c14.2,0,28.3,0,42.5-0.2c16.4-0.2,32.8-0.1,49.2-0.5
			c10.4-0.2,20.8,0,31.2-0.3c2.2,0,4.3,0.4,6.1,1.8c2.2,1.7,4.6,2.7,7.2,3.5c2.7,0.8,5.2,1.9,7.3,3.9c0.7,0.7,1.7,1.1,2.8,1.3
			C497.5,212.5,499.9,212.2,502.3,211.8z M479.6,19.4c-1.2-2-3.1-2.3-5-2.2c-5.6,0.2-11.2,0.2-16.8,0.3c-8.1,0.2-16.2,0.3-24.3,0.5
			c-9,0.2-18,0.3-27,0.5c-9.6,0.2-19.1,0.1-28.7,0.4c-7.3,0.2-14.7,0.5-22,0.7c-6.7,0.2-13.4,0.4-20.1,0.5c-15,0.1-30,0-45,0.1
			c-0.4,0-0.9-0.1-1.3,0.1c0.8,2,1.3,2.4,3.2,2.3c8.6-0.1,17.1,0,25.7-0.2c10.3-0.3,20.6,0,30.9-0.2c9.3-0.3,18.6-0.2,27.8-0.3
			c8.1-0.1,16.2-0.6,24.3-0.6c17.7-0.1,35.4,0,53.1-0.5c6.2-0.2,12.5-0.3,18.7-0.6C475.3,20.1,477.4,19.9,479.6,19.4z M264.1,308.5
			c0,0.1,0,0.2,0,0.4c1.5,0.4,3.1,0.5,4.6,0.5c4.5,0.1,8.9,0.1,13.4-0.2c1.8-0.1,2.7-0.8,3.2-2.5c0.3-1.3,0.6-2.6,0.6-4
			c0.1-5.2-0.2-10.5-0.4-15.7c-0.3-6.2,0.3-12.3,1.7-18.4c0.8-3.4-0.4-6.4-3.3-8.3c-0.7-0.4-1.4-0.8-2.1-1.2
			c-3.5-1.7-7.1-2.6-10.9-1.8c-1.9,0.4-3.4,1.6-5.2,2.3c-3.7,1.4-5.4,4.2-5.5,8.1c0,2.5,0.1,4.9,0.2,7.4c0.1,2.9-0.1,5.7,0,8.6
			c0.1,5.5-0.7,10.9-1.3,16.3c-0.3,2.5,0,4.9,1.4,7.1c0.8,1.2,1.9,1.6,3.3,1.3c-1.8-1.5-2.8-3.5-2.8-5.8c0-3.9,0.1-7.7,0.2-11.6
			c0-2,0.5-4.1,0.2-6.1c-0.3-2.2-0.1-4.3,0.2-6.4c0.4-3,0.8-5.9,0.2-8.9c-0.6-2.8-0.1-5.7,2.3-7.6c5.5-4.5,12.4-5.2,18.6-1.3
			c1,0.6,1.7,1.5,1.9,2.8c0.3,2.3,0.5,4.6,0.4,6.9c-0.3,6-0.7,12-1.1,18c-0.3,5.2-0.6,10.4-0.5,15.6c0,1.8-0.8,3.2-2.6,3.9
			c-1.2,0.4-2.4,0.7-3.6,0.6c-1.8-0.2-3.7-0.1-5.5-0.1C269,308.5,266.6,308.5,264.1,308.5z M281,297.7c-0.5-0.3-0.9-0.2-1.4-0.2
			c-4.3,0-8.6,0-12.9,0c-0.8,0-1.6,0.1-2.4,0.1c-0.8,0-1.2,0.5-1.4,1.1c-0.8,2.1,0.8,6.3,3.5,6.2c0.5,0,1.1,0.2,1.6,0.4
			c2.9,0.6,5.8,1.2,8.8,0.6c2.5-0.5,4.6-2.6,4.5-5.4C281.2,299.5,281.1,298.7,281,297.7z M271.3,286.3c1.1,0.3,2.3,0.7,3.4,0.2
			c1.4-0.7,2.8-3.9,2.3-5.4c-0.5-1.3-0.4-2.5-0.4-3.8c0-0.8,0.2-1.7-0.1-2.4c-0.3-0.9,0-1.4,0.6-1.9c0.9-0.7,1.4-1.5,1.5-2.6
			c0.2-2.1-0.3-4.2-0.4-6.3c0-0.6-0.6-1.1-1.2-1.2c-1-0.2-1.8-0.5-2.3-1.6c-0.2-0.4-1.1-1.1-1.3-0.2c-0.4,1.5-1.5,1.6-2.7,1.9
			c-1.7,0.5-2.3,1.4-1.9,3.1c0.3,1.2,0.4,2.4,0.2,3.6c-0.2,1-0.4,2.1,0.6,2.9c1.1,0.8,1.5,2,1.5,3.3
			C271,279.4,270.7,282.8,271.3,286.3z M285.9,20.8c-1.4-0.1-2.7-0.2-4-0.3c-2.9-0.2-5.6-0.8-7.2-3.7c-0.7-1.2-2-1.8-3.5-1.8
			c-1.5,0-3-0.1-4.4-0.1c-2.4,0-4.8-0.2-7.2,0.3c-1.7,0.3-3.4,0.6-4.3,2.4c-0.5,1.1-1.3,1.6-2.3,2.2c-1.6,0.9-3.4,1.4-5.3,1.8
			c-1.1,0.2-2.2,0-3.2,0.7c5,1,10,0.9,15.1,0.6c-1.6-0.9-3-1.9-4-3.5c0.7-0.3,1.2-0.7,1.6-1.2c0.6-0.7,1.2-0.9,2.2-0.6
			c1.8,0.5,3.7,0.4,5.6,0.2c2-0.2,3.9-0.6,5.9-0.5c1.1,0,2,0.4,2.3,1.5c0.2,0.7,0,1.5-0.2,2.2c-0.4,1.4-0.3,1.6,1.1,1.7
			c3.5,0.4,7.1,0.1,10.5-0.7C285.2,21.7,285.7,21.6,285.9,20.8z M263.2,256.2c0.2-0.9,0.6-1.7,1.2-2.4c0.5-0.6,0.9-1.3,1.1-2.1
			c0.7-2.8,0.8-5.7,0.7-8.5c-0.1-1.9,0.1-2.2,2-2.2c1.2,0,2.5,0.1,3.7-0.1c2.3-0.3,4.7-0.4,7-0.4c1.5,0.1,1.9,0.6,1.9,2.1
			c0,1.2-0.1,2.4,0.1,3.6c0.5,2.8,0.5,5.5-2.1,7.4c-0.4,0.3-0.4,0.5-0.2,0.9c0.3,0.4,0.6,0.4,1,0.2c0.1-0.1,0.2-0.2,0.4-0.3
			c1.5-1.1,2.5-1.1,4,0.1c0.3,0.2,0.5,0.6,0.9,0.6c0.8-1,0.8-1.8-0.1-2.4c-1.3-0.9-1.7-2.2-1.7-3.7c0-2.4,0.1-4.7,0.4-7
			c0.2-1.7-0.4-2.5-2.2-2.5c-5.4,0-10.9,0-16.3,0c-1.7,0-2.2,0.5-2.1,2.2c0.1,2.7,0.2,5.4,0.3,8.1c0,0.9-0.1,1.8-0.8,2.5
			C260.9,253.9,261.3,255.2,263.2,256.2z M290.5,239.8c0.3,0.7,0.7,0.5,1.1,0.5c3.3,0.1,4.8,1.5,4.8,4.7c0,5.8,0.4,11.5,0.3,17.3
			c-0.1,2.4-0.7,4.6-2.1,6.6c-0.9,1.1-1.4,2.4-1.7,3.8c-0.4,2-0.6,4.1-0.8,6.1c-0.3,3.2-0.8,6.3-2,9.2c-0.7,1.8-1.5,3.5-2.3,5.3
			c2.6-0.3,4.1-1.7,4.3-3.8c0.2-1.9,0.5-3.7,0.9-5.5c0.6-3.3,1.5-6.6,1.8-9.9c0.2-1.8,0.5-3.6,2.4-4.7c0.3-0.2,0.4-0.6,0.5-0.9
			c0.4-1.7,0.8-3.4,0.7-5.2c-0.2-5.3-0.4-10.6-0.8-15.9c-0.1-2,0.1-4-0.4-6c-0.2-0.8-0.4-1.7-1.4-1.9
			C294,239,292.3,239.5,290.5,239.8z M260.3,242.6c-2.1-0.4-4,0.4-5.9,0.5c-1,0.1-1.6,0.8-2,1.8c-0.3,0.9-0.2,1.7-0.2,2.6
			c-0.1,2.2,0.1,4.5,0.4,6.8c1.3-0.5,2.6-0.4,3.9-0.3c1.2,0.1,2.1-0.4,2.7-1.4c0.6-0.8,1-1.6,1.2-2.6
			C261,247.6,260.4,245.1,260.3,242.6z M294,253.8c0-3.2,0-6.4,0-9.5c0-0.5-0.3-1-0.9-1.1c-2-0.5-4-0.8-6-0.7
			c-0.7,0.1-1.2,0.5-1.2,1.2c0,2.3-0.3,4.5,0.5,6.7c0.7,2.2,1.2,2.6,3.5,2.5C291.2,253,292.5,253.5,294,253.8z M265.3,264.2
			c-1.2,1.2-1.9,2.4-1.3,4c0.3,0.8,0.3,1.6,0.2,2.5c-0.1,5.5,0.2,11,0.5,16.5c0.1,1.4,1,2.7,2.4,2.9c1.8,0.4,3.7,0.4,5.5-0.1
			c-2.3-0.3-3.3-1.8-3.9-3.9c-0.8-2.9-0.6-5.8-0.6-8.6c0-1.4-0.4-2.7-1.1-3.9c-1.3-2.1-1.8-4.4-1.3-6.8
			C265.7,266,266,265.1,265.3,264.2z M253,240c-2.3-0.4-4.2,1.2-4.1,3.4c0.1,3.5,0.4,7,0.6,10.5c0.1,2.5,0.2,5,0,7.5
			c-0.3,3.4-0.1,6.8,2.3,9.6c0.7,0.8,0.9,1.7,0.9,2.7c0.2,3.9,0.9,7.6,2,11.3c0.7,2.4,1.5,4.8,2.5,7.2c0.6-1.3,0.1-2.3-0.3-3.3
			c-1.9-5.4-3.2-10.9-2.9-16.6c0.1-2.5-0.6-4.8-2.3-6.7c-0.6-0.6-0.9-1.4-1-2.2c-0.3-2.2-0.4-4.4-0.4-6.6c-0.1-2.4,0-4.9-0.2-7.3
			c-0.1-1.4-0.1-2.8-0.1-4.2C250,243.1,250.8,241.3,253,240z M280.8,290.1c0.3-4,0.6-8,0.9-12c0.2-2.4,0.3-4.9,0.6-7.3
			c0.3-2.2,0.2-4.3,0.1-6.5c-0.1-1.5-0.8-2.1-2.1-1.9c0,0.2,0,0.3,0,0.5c1.1,3.2,0.9,6.4-0.2,9.6c-0.5,1.5-0.7,3-0.8,4.6
			c-0.1,2.7-0.2,5.5-0.5,8.2c-0.2,1.8-1.1,3.2-2.4,4.6C278,289.9,279.3,290.4,280.8,290.1z M286,259.2c2,1.1,2.8,2.9,3.2,5
			c0.1,0.8,0.4,1.4,1.1,1.7c0.8,0.2,1.6,0.2,2.2-0.5c2.2-2.3,2.7-5.2,1-7.9c-1-1.5-2.6-2-4.3-1.3C287.9,256.8,286.9,257.8,286,259.2
			z M279.1,248.3c0-1.2,0-2.3,0-3.4c0-0.8-0.3-1.5-1.2-1.5c-3.1-0.1-6.2,0.1-9.3,0.5c-0.4,0-0.8,0.2-0.9,0.6
			c-0.2,1.3-0.4,2.5,0.2,3.7c0.2,0.3,0.5,0.5,0.9,0.5c0.8,0,1.5,0,2.3-0.1c1.9-0.2,3.9-0.5,5.8-0.4
			C277.6,248.3,278.3,248.6,279.1,248.3z M255.6,266.1c1.3,0.1,2.3-0.5,2.4-1.6c0.1-2,1.4-3.5,2.5-5c0.9-1.2,0.7-2.3-0.7-2.7
			c-1.7-0.6-3.4-0.1-5,0.7c-1.7,0.8-2.1,2.2-1.5,4c0.1,0.4,0.2,0.7,0,1.1C252.5,264.5,253.4,265.9,255.6,266.1z M35.1,24.1
			c2.3,1,4.6,1.1,6.9,0.7c1.6-0.2,3.1-0.9,4.1-2.4c0.4-0.6,0.6-1.1,0.3-1.8c-0.3-0.7-1-0.7-1.6-0.7c-1.1,0.2-2.2,0.1-3.3-0.2
			C38.5,19,36,20.8,35.1,24.1z M262.7,292.2c-0.4,2.3,0.3,3.1,2.5,3.1c1.2,0,2.4,0,3.6,0c4.1,0.1,8.1-0.3,12.1-0.8
			c0.1-0.8-0.1-1.2-0.9-1.4c-2.6-0.5-5.2-0.6-7.9-0.4C269,293,265.8,292.8,262.7,292.2z M492.2,14.6c-2.9-0.5-5.4,0.3-7.8,1.4
			c-0.4,0.2-1.1,0.2-1,0.9c0.1,0.7,0.5,1.3,1.1,1.6c0.5,0.2,1.1,0.3,1.6,0.3c1.5,0,3,0,4.4,0c0.9,0.1,1.7,0.3,2.6,0
			C493.3,17.3,491.4,16.3,492.2,14.6z M288.8,285c0.3-1.6,0.6-3.1,0.9-4.7c0.6-3.5,1-7.1,2.2-10.5c0.1-0.4,0.4-0.8-0.1-1.1
			c-0.6-0.3-1.1-0.6-1.8-0.4c-0.6,0.2-0.5,0.6-0.5,1.1c-0.1,2.5-0.5,4.9-0.9,7.3C288.2,279.4,288,282.2,288.8,285z M271,250.6
			c0.3,2.5,0.8,3.4,1.9,3.6c2.1,0.3,3.5-0.7,4.5-3C275.3,250.3,273.2,250.7,271,250.6z M257,278.7c0-3.2,0-6.3,0-9.6
			c-0.2,0.1-0.5,0-0.5,0.1C255.5,272.4,256.6,275.5,257,278.7z"/>
		<path class="st2" d="M389.3,239.1c9.5,0,19,0.1,28.5,0c18.1-0.2,36.1-0.1,54.2-0.3c11.8-0.2,23.6,0,35.4-0.2
			c3.3-0.1,6.6-0.1,10-0.2c0.4,0,0.8,0,1.3,0c0.3,34.3-0.6,68.5-0.5,102.7c0,21.4,0,42.9,0,64.3c0,3.1,0.1,6.2,0,9.2
			c-0.1,3,0.3,6,0.3,9c0,1.8-0.4,2.2-2.3,2.2c-5.3,0-10.6-0.1-15.9,0.1c-9.8,0.3-19.6,0.1-29.3,0.2c-7.9,0-15.7,0-23.6,0
			c-0.3,0-0.6-0.1-0.9,0.2c-6.9,0-13.7-0.1-20.6,0.1c-10,0.3-20,0.1-30.1,0.2c-6.2,0-12.4,0-18.6,0c-0.3,0-0.7-0.1-1,0.2
			c-13.8,0-27.7,0-41.5,0c-9.4,0-18.7-0.2-28.1,0c-22.7,0.6-45.4,0.2-68.1,0.5c-14.5,0.2-29,0.5-43.5,0.4
			c-6.2-0.1-12.5-0.5-18.7-0.6c-5.3-0.1-10.6,0-16-0.2c-8.4-0.2-16.7,0.2-25.1,0.2c-17.9,0-35.8-0.1-53.8-0.1c-1.8,0-3.7,0-5.5,0
			c-10.7,0-21.5,0-32.2,0c-0.3,0-0.6-0.1-0.9,0.2c-5.5,0-11,0-16.4,0c-1.4,0-2-0.7-2-2.1c0.1-11.4,0.1-22.7,0.3-34.1
			c0.2-8.9-0.1-17.8,0.2-26.7c0.3-8.4-0.1-16.9,0.2-25.3c0.3-8.4-0.1-16.7,0.2-25.1c0.3-7.5,0-15,0.2-22.5
			c0.3-8.6,0.1-17.3,0.2-25.9c0.1-7.9,0-15.8,0-23.7c0-0.4,0-0.9,0-1.3c0.6-0.3,1.1-0.2,1.6-0.2c32.4,0,64.8,0,97.2,0
			c2.8,0,5.5,0,8.3,0c8,0,16,0,24.1,0c0.3,0,0.6,0.1,0.9-0.2c10.2,0,20.5,0,30.7,0c7.7,0,15.3,0,23,0c0.3,0,0.7,0.1,1-0.2
			c9.9,0,19.8,0,29.6,0c1.7,0,3.5,0,5.4,0c-2.2,2.7-1.7,5.7-1.2,8.7c0.3,1.5,0.3,3,0.1,4.4c-0.4,2.5,0.1,5-0.4,7.4
			c-0.2,0.9-0.3,1.9-0.5,2.8c-0.5,2.6,0.2,5,1.7,7.1c2.1,2.8,3,6,3.6,9.3c0.7,4.2,1.7,8.4,2.7,12.6c0.1,0.5,0.3,0.9,0.7,1.2
			c1.8,1.9,2.3,4.2,2.4,6.7c0.2,2.1,0.3,4.2,1,6.2c1.4,4.1,4.1,5.5,8,5.8c3.5,0.3,7,0.2,10.4,0c2.7-0.2,5.4-0.3,8-0.9
			c2.3-0.6,3.7-2.3,4-4.6c0.4-2.5,0.1-5,0.4-7.5c0.1-0.9,0.2-1.7,0.5-2.6c0.2-0.7,0.7-1,1.4-1.1c2.9-0.5,4.5-1.9,4.8-4.8
			c0.5-4.7,1.7-9.2,2.4-13.8c0.1-0.9,0-1.8,0.3-2.7c0.3-0.9,0.6-1.8,1.3-2.5c2.1-2.2,2.3-5,2.2-7.8c-0.2-5.7-0.5-11.5,0-17.2
			c0.2-2.2,0.3-4.3-0.5-6.4c-0.1-0.2,0-0.4,0-0.6c29,0,58,0,87,0C388.3,239.3,388.8,239.5,389.3,239.1z M189.7,400.6
			c-0.1,3.2-0.1,6.4-0.2,9.6c0,0.2-0.1,0.3-0.1,0.5c-0.3,2.1,0.1,3.8,2.3,4.6c1.1,0.4,2.1,0.2,3.2,0c1.2-0.3,1.7-1,1.7-2.1
			c0-4.8-0.1-9.6,0.2-14.4c0.1-2.8,0.1-5.5,0.1-8.3c0.2-0.4,0.1-0.8,0.1-1.2c0-8,0.1-16,0.1-24c0.2-0.3,0.1-0.6,0.1-1
			c0.1-4.2,0.1-8.5,0.2-12.7c0.2-0.3,0.1-0.6,0.1-1c0-0.2,0-0.3,0-0.5c0-7.5,0.1-15,0.1-22.5c0.3-0.8,0.1-1.6,0.1-2.4
			c0-5.6,0.1-11.1,0.1-16.7c0-5.9,0-11.8,0-17.6c0.3-0.8,0.1-1.6,0.1-2.4c0-1.2,0-2.4,0-3.6c0-7,0.1-14.1,0.1-21.1
			c0.2-0.4,0.2-0.8,0-1.2c0-1.1-0.3-2.2-1.2-2.9c-1.6-1.2-3.6-1.6-5.4-0.6c-1.7,0.9-3,2.3-2.9,4.5c0,1.4,0.3,2.7,0.6,4.1
			c0,0.1,0.1,0.2,0.1,0.3c0,1.9,0,3.8,0,5.7c-0.2,0.2-0.2,0.5-0.1,0.7c-0.2,7.3,0.2,14.6,0.2,21.8c0,0.1,0.1,0.2,0.1,0.3
			c0,3,0,6.1,0,9.1c-0.1,11.3,0.2,22.5-0.1,33.8c-0.1,1.6,0.1,3.2,0.2,4.9c0.2,2.1,0.1,4.2,0.1,6.2c-0.1,0.4-0.1,0.8,0.1,1.2
			c0,7.5,0,15,0,22.5c-0.2,0.5-0.1,1-0.1,1.4c0,6.6,0,13.1,0,19.7C189.6,397.1,189.7,398.9,189.7,400.6z M480,410.2
			c0-0.1,0-0.2-0.1-0.3c0-5.6,0-11.3,0.1-16.9c0.1-10.3-0.3-20.6,0-30.9c0.1-3.8,0.1-7.7,0.2-11.5c0.1-8.4,0-16.8-0.2-25.2
			c0-0.1,0-0.2,0-0.3c0-4.9,0-9.9,0-14.8c0-0.1,0-0.2,0-0.3c0.1-5.6,0-11.3,0.2-16.9c0.2-5.4-0.1-10.7,0.1-16.1
			c0.1-6,0.3-12-0.2-18.1c-0.2-1.9-2-3.7-4-3.9c-2-0.1-3.7,1.2-4.1,3.2c-0.3,1.6,0,3.3,0,4.9c0,14.2,0.1,28.3,0.1,42.5
			c0,3.5,0,7,0,10.6c0.1,5.9,0.2,11.7,0.2,17.6c0.1,23.4,0.1,46.8,0.1,70.2c0,0.8,0,1.7-0.1,2.5c-0.6,2.8,0.2,5.4,1.1,8
			c0.2,0.5,0.6,0.7,1.1,0.6c1-0.3,2-0.4,2.9-0.5c1.6-0.2,2.5-1.3,2.5-2.9C480,411.3,480,410.7,480,410.2z M141.3,268.4
			c-0.1-3.6,0.1-7.1-0.2-10.7c-0.2-2.1-2.6-4-4.6-3.7c-1.9,0.3-2.6,1.8-2.2,4.2c0.3,2.4,0.7,4.8,0.6,7.2c-0.1,3.7-0.4,7.4-0.4,11.1
			c0,19.2-0.1,38.4,0.1,57.6c0.2,19.4,0.3,38.9-0.1,58.3c-0.1,4.3,0,8.7,0,13c0,2.3,0.1,4.6-0.2,6.9c-0.3,2.3,0.3,2.9,2.6,3.1
			c0.2,0,0.3,0.1,0.5,0.1c2.9,0.5,4.6-0.9,4.7-4c0-1.2-0.2-2.5-0.2-3.7c0.1-18.2-0.2-36.4,0.1-54.6c0.1-5.3,0.2-10.7-0.1-16.1
			c-0.2-4.3-0.2-8.6-0.2-12.9C141.5,305.7,141.7,287.1,141.3,268.4z M368.4,267.3c0-1.4,0-2.8,0-4.2c-0.1-2-1-3.2-2.9-3.8
			c-1.4-0.4-4,0.2-4.7,1.6c-0.8,1.5-0.7,3.1-0.7,4.7c0,1.7,0.4,3.4,0.4,5.2c-0.1,5.5,0.2,11.1-0.2,16.6c-0.3,4-0.1,8-0.2,12.1
			c-0.1,7.3-0.3,14.6,0.1,21.9c0.3,4.2-0.1,8.4,0.2,12.6c0.2,2.2,0,4.4-0.1,6.6c-0.2,3.1-0.2,6.3-0.3,9.4
			c-0.3,12.6,0.3,25.2-0.3,37.9c-0.1,2.7-0.1,5.4-0.2,8.1c-0.1,3.8-0.4,7.6-0.6,11.4c-0.1,1.2-0.1,2.4-0.4,3.6
			c-0.5,2,0.2,3.2,1.7,3.7c2.1,0.6,5.2-1.3,5.8-3.4c0.4-1.5,0.3-3,0.4-4.5c0.3-5-0.1-10,0.3-15.1c0.3-4.4-0.1-8.8,0.2-13.2
			c0.3-4.3,0-8.7,0.2-13c0.3-5.1,0-10.2,0.2-15.3c0.3-6.9,0-13.8,0.3-20.7c0.3-9.9-0.2-19.8,0.3-29.7c0.2-4.5,0-8.9,0.2-13.4
			C368.4,280.1,368.1,273.7,368.4,267.3z M423.7,340.4c0-11.5,0-20.8,0-30.1c0-8.2,0-16.4,0.1-24.6c0-7.5,0.1-15,0.1-22.6
			c0-3.9-2.6-6-6-5c-1,0.3-1.4,0.8-1.3,1.9c0.1,8.1,0.2,16.2,0.3,24.3c0.2,17.6,0.1,35.2,0.5,52.8c0.3,9.8,0.2,19.6,0.1,29.4
			c-0.1,9.4,0.1,18.9,0.1,28.3c0,5.6,0.3,11.3,0,16.9c0,0.9,0.1,1.7,0.5,2.6c0.2,0.3,0.3,0.6,0.8,0.6c0.6,0,1.3,0.2,1.9,0.2
			c2,0.3,2.5-0.1,2.5-2.2c0.1-13.1,0.2-26.2,0.2-39.3C423.4,361.8,424,350,423.7,340.4z M83.5,274.4
			C83.5,274.4,83.5,274.4,83.5,274.4c-0.1-4.9-0.1-9.8-0.1-14.8c0-1.3-0.5-2.4-1.3-3.4c-0.8-1-1.9-1.3-3.1-1c-1.1,0.3-1.7,1-2,2.1
			c-0.4,1.7-0.3,3.4-0.1,5.1c0.4,2.8,0.7,5.6,0.7,8.4c0,25.6,0.1,51.3,0.1,76.9c0,14.9,0,29.8,0,44.6c0,5.9,0.6,11.8,0,17.7
			c-0.1,0.6-0.1,1.3,0,1.9c0.2,1.3,1,2,2.3,2.3c1.1,0.2,2-0.1,2.7-1.1c0.9-1.3,1.3-2.6,1.2-4.1c0-0.8-0.1-1.6-0.1-2.4
			c-0.1-24.5,0.1-48.9-0.1-73.4c-0.2-14.8,0-29.6-0.2-44.4C83.5,284.1,83.5,279.3,83.5,274.4z M301.9,403.8c0,2.9,0,5.6,0,8.2
			c0,2.1,1.2,3.2,3.4,3.3c1.9,0.1,3.4-1.3,3.5-3.2c0.1-4.8,0.3-9.6,0.4-14.4c0.1-4.6,0.2-9.2,0.3-13.8c0.3-7.1,0.6-14.1,0.8-21.2
			c0.2-5,0.3-10,0.6-15c0.3-5.6,0.5-11.3,0.5-16.9c0-2.3-2.2-4.2-4.4-3.9c-1.8,0.3-3.6,2.3-3.7,4.2c0,0.9,0,1.8,0,2.8
			c-0.1,11.1-0.2,22.1-0.3,33.2c0,1.5,0.4,3,0.2,4.5c-0.2,1.9-0.6,3.8-0.6,5.7C302.6,386.3,301.7,395.1,301.9,403.8z M247.4,395.1
			C247.4,395.1,247.4,395.1,247.4,395.1c-0.1,5.7-0.1,11.4-0.1,17c0,0.8,0.1,1.5,0.8,2c1.5,1.1,4.9,1.1,5.5-1.7
			c0.2-0.8,0.2-1.5,0.1-2.2c-0.3-2.6-0.4-5.3-0.3-7.9c0.5-12-0.3-24,0.5-36.1c0.6-8.9-0.1-17.8,0.3-26.7c0.1-1.7-0.4-3.3-1.3-4.8
			c-0.6-1-1.5-1.3-2.5-1.1c-1.2,0.2-2.2,0.7-2.6,2.1c-0.3,1.4,0,2.8,0.1,4.2c0.1,14.7-0.2,29.4-0.4,44.1
			C247.4,387.8,247.4,391.4,247.4,395.1z"/>
		<path class="st2" d="M14.9,235.4c0.8-3.5,0.9-7.1,0.9-10.7c0-1.2,0.1-2.4,1.1-3.2c0.2-0.2,0.4-0.4,0.7-0.4c3-1,5.9-2.1,9.1-2.1
			c5.2,0,10.5,0.4,15.7,0.2c8.6-0.3,17.2,0,25.8-0.3c6.6-0.2,13.2-0.1,19.8-0.2c9.1-0.1,18.3-0.1,27.4-0.3c3.9-0.1,7.8-0.1,11.7-0.2
			c13.3-0.4,26.7-0.1,40-0.3c6.5-0.1,13,0,19.5-0.2c11.3-0.4,22.6,0,33.9-0.2c19-0.4,38.1,0.1,57.1-0.3c10.3-0.2,20.7,0,31-0.2
			c6-0.2,12-0.2,18-0.1c2.9,0.1,5.8,0.4,8.7,0.2c8.5-0.6,17.1-0.5,25.6-0.5c7.7,0,15.5,0.3,23.2,0.3c14.3-0.1,28.6,0.1,42.9-0.1
			c9.3-0.2,18.6,0,27.9-0.2c10-0.1,20.1,0,30.1-0.3c12.2-0.3,24.4-0.1,36.6-0.2c1.3,0,2.6-0.3,3.9-0.2c0.9,0,1.6,0.3,1.9,1.2
			c0.8,2.7,1.9,5.4,1.5,8.2c-0.3,2.8-0.3,5.5,0.7,8.2c0.3,0.9-0.5,0.9-1.1,0.9c-3,0-6-0.1-9,0c-6.3,0.2-12.7,0.2-19,0.3
			c-4.7,0.1-9.4,0.5-14.1,0.4c-3.2-0.1-6.5-0.2-9.7-0.1c-14,0.4-28,0-42,0.3c-2.5,0-5.1,0.3-7.6,0.1c-6.4-0.4-12.8-0.3-19.1-0.5
			c-5.6-0.2-11.1-0.1-16.6-0.1c-4,0-8-0.1-12,0c-2.9,0.1-5.7,0.3-8.6,0.1c-6.8-0.3-13.6,0.1-20.4-0.3c-4.3-0.2-8.5,0.1-12.8,0.2
			c-3.4,0-6.8,0.2-10.2,0.1c-13.7-0.4-27.5,0-41.2-0.3c-4.9-0.1-9.7,0.3-14.5,0.6c-3.6,0.2-7.2-0.3-10.9-0.1
			c-5,0.3-10.1,0.6-15.1,0.6c-2.4,0-4.8-0.3-7.2-0.1c-2.7,0.2-5.4,0.1-8.1,0.2c-4.9,0.2-9.8-0.4-14.7-0.5c-3.6-0.1-7.3-0.2-10.9-0.1
			c-3.2,0.1-6.5,0-9.7,0.2c-4.5,0.3-9.1,0-13.6,0.3c-6.1,0.4-12.1,0.6-18.2,0.4c-2-0.1-3.9-0.4-5.9-0.7c-2.4-0.3-4.7,0.3-7,0.4
			c-2.9,0.1-5.8-0.7-8.7-0.4c-2.4,0.2-4.8,0.3-7.2,0.1c-3.6-0.3-7.2-0.2-10.8-0.1c-5.1,0.1-10.2-0.3-15.3,0
			c-3.1,0.2-6.2,0.8-9.4,0.6c-4.6-0.3-9.3-0.7-13.9-0.8c-1.9-0.1-3.9-0.2-5.9,0.1c-0.3,0.1-0.7,0-1.1,0c-13.8,0-27.7-0.1-41.5,0.1
			c-6.9,0.1-13.7,0-20.6,0.1C15.8,235.5,15.4,235.6,14.9,235.4z"/>
		<path class="st2" d="M304.3,26c14.5-0.4,29-0.5,43.5-0.2c7.4,0.2,14.7,0.2,22.1,0.1c7.3-0.1,14.6-0.4,21.9-0.7
			c6.7-0.3,13.4-0.5,20.1-0.7c7-0.2,14.1-0.5,21.1-0.7c7.8-0.3,15.6-0.5,23.4-0.7c5.7-0.2,11.4-0.4,17.1-0.5c2.6,0,5.1-0.2,7.7-0.2
			c4.6,0.1,8.9,1.4,13.2,2.7c0.8,0.2,1.3,0.9,1.3,1.8c0,2.4-0.6,4.8-0.8,7.2c-0.2,2.9-0.6,5.7-0.9,8.6c-0.4,5-0.8,10-1.2,15
			c-0.3,4.1-0.7,8.1-1,12.2c-0.4,4.7-0.8,9.4-1.2,14.1c-0.3,3.9-0.6,7.9-1,11.8c-0.4,4.1-0.8,8.2-1.1,12.3c-0.3,3.2-0.5,6.4-0.8,9.7
			c-0.3,4-0.6,8-0.9,11.9c-0.3,3.5-0.5,7-0.8,10.5c-0.3,3.5-0.6,7.1-0.9,10.6c-0.3,3.2-0.5,6.4-0.8,9.5c-0.3,3.3-0.6,6.6-0.9,9.9
			c-0.3,3.1-0.5,6.1-0.8,9.2c-0.4,4.2-0.8,8.5-1.1,12.7c-0.1,1.2-0.2,2.4-0.3,3.6c0,1-0.4,1.4-1.4,1.3c-1.3-0.1-2.5-0.2-3.8-0.3
			c-1-0.1-2-0.1-2.9,0.4c-0.6,0.2-1.2,0.3-1.7-0.2c-0.3-0.3-0.7-0.2-1-0.2c-13.2,0-26.3,0-39.5-0.1c-17.9,0-35.8,0-53.6,0
			c-26.1,0-52.2,0-78.3,0c-3.1,0-6.2-0.2-9.2-0.1c-9.5,0.3-19-0.1-28.5,0.2c-9.4,0.3-18.9,0.4-28.3,0.5c-13,0.1-25.9,0.6-38.9,0.4
			c-7.8-0.2-15.7-0.3-23.5-0.1c-8.5,0.2-17,0-25.5,0.1c-26.8,0.3-53.7,0.3-80.5,0.3c-4.5,0-9,0.2-13.6,0.2c-2.2,0-3.1-0.9-3.2-3.2
			c-0.3-4.7-0.6-9.5-1.1-14.2c-0.5-4.3-0.9-8.6-1.3-12.8c-0.4-3.5-0.8-7.1-1.1-10.6c-0.3-3.1-0.5-6.1-0.8-9.2
			c-0.3-3.2-0.6-6.4-0.9-9.6c-0.3-3.2-0.5-6.4-0.8-9.7c-0.3-3.1-0.6-6.2-0.9-9.3c-0.3-3.2-0.5-6.4-0.8-9.5c-0.4-4-0.7-8-1.1-12
			c-0.3-3.2-0.5-6.4-0.8-9.5c-0.3-3.3-0.6-6.5-0.9-9.8c-0.3-3.3-0.5-6.5-0.8-9.8c-0.4-4.3-0.8-8.6-1.1-12.9
			c-0.3-3.4-0.5-6.8-0.8-10.1c-0.3-3.2-0.6-6.4-0.9-9.6c-0.1-1.1-0.3-2.2-0.2-3.3c0.1-2.6,1.5-4,4.5-4.5c2.1-0.4,4.1-0.3,6.2-0.2
			c1.6,0.1,3.3,0.2,4.9,0.2c13-0.1,25.9,0.6,38.9,0.2c13.8-0.4,27.6-0.1,41.4-0.3c1.2,0,2.5-0.1,3.7-0.5c2.6-0.8,5.3-0.9,8-0.9
			c5.5,0,11,0.1,16.6,0c11.9-0.2,23.8-0.2,35.6-0.1c5.8,0.1,11.5,0.2,17.3,0.1c17.3-0.3,34.6-0.2,51.9-0.5c3.4,0,6.8-0.2,10.2-0.2
			c10.3,0,20.7,0,31,0C303.9,26.2,304.1,26.2,304.3,26z M422.8,195.6c15.2,0,30.3,0,45.5,0c0.4,0,0.9,0.1,1.2,0c0.8-0.3,2,0,2.3-1.2
			c0.2-1,0.3-2,0.5-3c0.5-3.3,0.9-6.6,1.3-10c0.3-3.4,0.7-6.8,0.9-10.1c0.2-2.1,0.3-4.2,0.5-6.3c0.3-2.8,0.6-5.6,0.9-8.5
			c0.2-2,0.3-3.9,0.5-5.9c0.3-3.1,0.6-6.3,0.9-9.4c0.2-2.1,0.3-4.3,0.5-6.4c0.3-3.1,0.6-6.3,0.9-9.4c0.2-2.1,0.3-4.3,0.5-6.4
			c0.3-3,0.6-6,0.9-9c0.2-1.8,0.3-3.6,0.5-5.4c0.3-3.1,0.6-6.2,0.9-9.3c0.2-2.1,0.3-4.2,0.5-6.3c0.3-3.1,0.6-6.2,0.9-9.3
			c0.2-1.9,0.3-3.8,0.5-5.7c0.3-2.7,0.6-5.3,0.9-8c0.2-1.9,0.3-3.8,0.5-5.7c0.3-2.9,0.6-5.8,0.9-8.7c0.3-2.3,0.5-4.6,0.9-6.9
			c0.3-2,0.5-3.9,0.1-5.9c-0.6-2.8-2-5.1-4-7.1c-1.5-1.5-3.2-2.8-5.3-3.2c-2.5-0.5-5-0.8-7.5-0.7c-3.6,0.1-7.1,0.4-10.7,0.4
			c-14.3,0.1-28.6,0-43,0c-5.9,0-11.8-0.2-17.7,0.2c-3.5,0.2-7,0.1-10.5,0.2c-10.7,0.3-21.4-0.2-32.1,0.3c-4.5,0.2-9,0.1-13.5,0.2
			c-14.7,0.3-29.4-0.2-44.1,0.3c-5.1,0.2-10.3-0.1-15.4,0.2c-5.1,0.3-10.2,0.1-15.3,0.2c-4.6,0.1-9.2,0.1-13.9-0.1
			c-3.5-0.2-7-0.1-10.5,0.1c-6.1,0.3-12.1,0-18.2,0.2c-7.5,0.3-15.1,0-22.6,0.2c-9.3,0.3-18.7-0.1-28,0.3
			c-6.9,0.3-13.8-0.2-20.7,0.2c-4.4,0.3-8.8,0-13.3,0.2c-7.7,0.3-15.3,0-23,0.2c-6.6,0.2-13.1,0-19.7,0.1
			c-7.9,0.1-15.9-0.2-23.8,0.2c-2.8,0.1-5.7-0.1-8.6,0c-4.1,0.1-8.2,0.3-12.3,0.3c-1.1,0-2.2,0.1-3.3,0.3c-0.7,0.1-1.3,0.3-1.8,1
			c-1,1.4-2.3,2.6-3.5,3.8c-0.7,0.7-1.2,1.6-1.6,2.6c-1.3,3.4-0.6,6.8-0.4,10.2c0.2,3,0.6,5.9,0.9,8.8c0.2,1.9,0.3,3.9,0.5,5.8
			c0.4,2.9,0.6,5.7,0.9,8.6c0.2,2,0.3,4.1,0.5,6.2c0.3,3.3,0.6,6.7,0.9,10c0.2,1.8,0.2,3.6,0.5,5.4c0.4,2.5,0.6,4.9,0.9,7.4
			c0.3,2.1,0.3,4.3,0.5,6.4c0.3,3.3,0.6,6.6,0.9,9.9c0.2,2.1,0.3,4.3,0.5,6.4c0.5,4.3,1.2,8.6,1.6,12.9c0.5,4.4,0.8,8.9,1.2,13.4
			c0.3,3.1,0.5,6.2,0.7,9.2c0.2,4.6,0.6,9.3,1,13.9c0.2,3,0.7,6,1.1,9.1c0.5,3.6,1,7.3,1.1,11c0.1,2.1,1.5,3.2,3.3,2.9
			c1.6-0.2,3.1-0.2,4.7-0.2c9.2-0.1,18.4,0.1,27.6-0.2c12.5-0.3,25,0,37.5-0.2c16.5-0.3,33-0.1,49.5-0.2c31.2-0.2,62.4-0.4,93.6,0.1
			c1.9,0,3.8-0.1,5.7-0.2c3.7,0,7.3-0.2,11,0.1c2.8,0.2,5.5,0.1,8.3,0c3.2-0.1,6.4,0.1,9.7-0.2c4.1-0.3,8.3-0.2,12.4-0.2
			c19.2-0.1,38.4-0.1,57.6-0.1C392.5,195.6,407.6,195.6,422.8,195.6z"/>
		<path class="st2" d="M521.5,335.2c0-18.7,0-34.6,0-50.5c0-13.8,0-27.7,0-41.5c0-1,0-1.9,0-2.9c0-1.1,0.5-1.8,1.6-1.8
			c3.9,0.1,7.8-0.2,11.7,0.3c1.5,0.2,2.1,0.9,2.1,2.7c0,26.8-0.1,53.5,0,80.3c0.2,30.7,0,61.4,0.2,92.1c0,3.5,0,7,0,10.6
			c0,1.6-0.6,2.2-2.2,2.3c-3.4,0-6.7,0.1-10.1,0c-2.2,0-2.9-0.8-2.9-3c0-8.6,0.2-17.3-0.1-25.9C521.3,376,521.6,354.2,521.5,335.2z"
			/>
		<path class="st2" d="M8.8,331.5c0-15.2,0-33.6,0-52c0-10.1,0-20.2,0-30.4c0-2.4-0.1-4.7-0.2-7.1c0-1.9,0.1-2,1.9-2c3,0,6,0,9,0
			c2.4,0.1,2.8,0.5,2.8,2.9c0,2.4,0,4.7,0,7.1c0,3.2-0.1,6.4-0.2,9.6c-0.3,9.4-0.4,18.7-0.2,28.1c0.4,21.9,0.3,43.8,0.1,65.7
			c-0.2,19,0,37.9-0.1,56.9c0,5.2,0,10.5,0,15.7c0,2.7-0.9,3.6-3.6,3.7c-2.1,0.1-4.3,0.4-6.4,0.5c-1.6,0.1-2.4-0.7-2.5-2.3
			c0-0.2,0-0.4,0-0.6c-0.1-15.7-0.1-31.4-0.3-47C8.8,365.1,8.9,349.9,8.8,331.5z"/>
		<path class="st2" d="M502.3,211.8c-2.5,0.4-4.9,0.7-7.2,0.2c-1-0.2-2-0.6-2.8-1.3c-2.1-2-4.6-3.1-7.3-3.9
			c-2.6-0.8-5.1-1.8-7.2-3.5c-1.8-1.4-3.9-1.8-6.1-1.8c-10.4,0.2-20.8,0-31.2,0.3c-16.4,0.3-32.8,0.3-49.2,0.5
			c-14.2,0.2-28.3,0.2-42.5,0.2c-15,0-29.9,0-44.9,0c-23.9,0-47.8-0.1-71.6,0c-12.1,0.1-24.2,0-36.2,0.2c-3.3,0.1-6.7,0.4-10,0.8
			c-2.3,0.2-4.6,0.2-6.8,0.2c-19.6,0-39.2,0-58.8,0c-14.5,0-29,0-43.5,0.1c-3.2,0-6.5,0.5-9.7,0.3c-5.4-0.2-10.7-0.2-16.1,0
			c-0.7,0-1.1,0.2-1.5,0.9c-1.3,2.4-3.5,4.1-5.8,5.6c-2.6,1.7-5.4,3.1-8.5,3.8c-0.8,0.2-1.7,0.1-2.5,0.1c-0.1-0.3,0-0.4,0.2-0.5
			c4-2.6,7.5-5.9,11.2-8.8c0.9-0.7,1.9-1.4,2.9-2.1c0.8-0.6,1.7-0.8,2.7-0.8c5.7,0.1,11.4,0.2,17,0.2c2.8,0,5.6-0.3,8.4-0.3
			c2.3,0,4.6,0.1,6.9,0.1c8.4-0.1,16.8,0,25.2-0.3c9-0.2,18,0.2,27,0.1c12.7-0.2,25.4-0.4,38.1-0.3c12.2,0.1,24.5,0.2,36.7-0.1
			c11.9-0.3,23.8-0.3,35.7-0.4c4.2,0,8.3-0.1,12.5,0c5.6,0,11.3-0.5,16.9-0.5c7.4,0.1,14.9,0,22.3,0c12.2-0.1,24.5,0,36.7-0.3
			c13.6-0.3,27.3,0,40.9-0.1c15.7-0.2,31.4-0.4,47.1-0.3c5.8,0,11.6,0.2,17.4,0.2c8.4-0.1,16.7-0.4,25.1-0.4c5,0,10.1,0,15.1,0.2
			c2.2,0.1,4.1,0.7,6,1.7c4.7,2.4,9.3,4.8,14,7.2C500.6,209.5,501.3,210.8,502.3,211.8z"/>
		<path class="st2" d="M239.5,21.5c0.5,0.2,1.1,0.3,0.9,1c-0.1,0.6-0.6,0.8-1.2,0.9c-1.9,0.2-3.8,0.1-5.6,0.1
			c-6.9,0-13.8,0-20.6,0.1c-5.4,0.1-10.9,0-16.3,0.2c-1.8,0.1-3.6,0.5-5.3,0c-1.3-0.4-2.4-0.3-3.7-0.1c-3.5,0.6-7,0.6-10.5,0.4
			c-2.9-0.2-5.9-0.2-8.9,0c-4.5,0.2-9,0.1-13.4,0.2c-7.1,0.2-14.2,0.1-21.3,0.3c-11.8,0.3-23.7,0.6-35.5,0.7
			c-6.9,0.1-13.8,0.1-20.6,0.2c-6.4,0.1-12.8,0.3-19.2,0.4c-1.2,0-2.4,0-3.4-0.8c-0.3-0.2-0.5-0.2-0.8,0c-1,1-2.3,0.8-3.5,0.8
			c-0.7,0-1.4,0-2.1,0c0.2-2.1,2.2-4.1,4.6-4.4c3.9-0.5,7.7-0.2,11.6-0.1c5.3,0.1,10.6,0.1,16,0.1c13,0,26-0.2,39-0.2
			c13.5,0,27,0,40.4,0c0.4,0,0.9,0,1.3,0c0.4,0.4,0.8,0.2,1.3,0.2c25.2,0,50.5,0,75.7,0C238.7,21.6,239.1,21.8,239.5,21.5z"/>
		<path class="st2" d="M479.6,19.4c-2.2,0.5-4.3,0.7-6.4,0.7c-6.2,0.2-12.5,0.4-18.7,0.6c-17.7,0.4-35.4,0.4-53.1,0.5
			c-8.1,0-16.2,0.5-24.3,0.6c-9.3,0.2-18.6,0.1-27.8,0.3c-10.3,0.3-20.6,0-30.9,0.2c-8.6,0.2-17.1,0.1-25.7,0.2
			c-1.9,0-2.4-0.4-3.2-2.3c0.4-0.2,0.9-0.1,1.3-0.1c15,0,30,0,45-0.1c6.7,0,13.4-0.2,20.1-0.5c7.3-0.3,14.7-0.5,22-0.7
			c9.6-0.3,19.1-0.3,28.7-0.4c9-0.2,18-0.3,27-0.5c8.1-0.2,16.2-0.3,24.3-0.5c5.6-0.1,11.2-0.1,16.8-0.3
			C476.5,17.1,478.4,17.4,479.6,19.4z"/>
		<path class="st3" d="M264.1,308.5c2.5,0,4.9,0,7.4,0c1.8,0,3.7-0.1,5.5,0.1c1.2,0.1,2.5-0.2,3.6-0.6c1.8-0.7,2.6-2.1,2.6-3.9
			c-0.1-5.2,0.2-10.4,0.5-15.6c0.4-6,0.8-12,1.1-18c0.1-2.3,0-4.6-0.4-6.9c-0.2-1.3-0.9-2.1-1.9-2.8c-6.2-4-13-3.2-18.6,1.3
			c-2.4,2-2.9,4.8-2.3,7.6c0.6,3,0.2,5.9-0.2,8.9c-0.3,2.1-0.5,4.2-0.2,6.4c0.3,2-0.2,4.1-0.2,6.1c-0.1,3.9-0.2,7.7-0.2,11.6
			c0,2.3,1,4.2,2.8,5.8c-1.4,0.3-2.5,0-3.3-1.3c-1.4-2.2-1.7-4.6-1.4-7.1c0.7-5.4,1.5-10.8,1.3-16.3c-0.1-2.9,0.1-5.7,0-8.6
			c-0.1-2.5-0.3-4.9-0.2-7.4c0.1-3.9,1.7-6.7,5.5-8.1c1.8-0.7,3.3-1.9,5.2-2.3c3.9-0.9,7.5,0.1,10.9,1.8c0.7,0.3,1.4,0.7,2.1,1.2
			c2.9,1.9,4.1,4.9,3.3,8.3c-1.4,6-2,12.2-1.7,18.4c0.3,5.2,0.5,10.5,0.4,15.7c0,1.4-0.3,2.7-0.6,4c-0.4,1.7-1.4,2.4-3.2,2.5
			c-4.5,0.3-8.9,0.4-13.4,0.2c-1.5,0-3.1-0.2-4.6-0.5C264.1,308.8,264.1,308.6,264.1,308.5z"/>
		<path class="st2" d="M281,297.7c0.1,1,0.3,1.8,0.3,2.8c0.2,2.8-2,4.8-4.5,5.4c-3,0.7-5.9,0-8.8-0.6c-0.5-0.1-1.1-0.4-1.6-0.4
			c-2.7,0.1-4.3-4.1-3.5-6.2c0.2-0.6,0.6-1.1,1.4-1.1c0.8,0,1.6-0.1,2.4-0.1c4.3,0,8.6,0,12.9,0C280,297.5,280.5,297.4,281,297.7z"
			/>
		<path class="st3" d="M271.3,286.3c-0.5-3.5-0.3-6.9-0.3-10.3c0-1.4-0.3-2.5-1.5-3.3c-1-0.8-0.8-1.9-0.6-2.9
			c0.2-1.3,0.1-2.4-0.2-3.6c-0.4-1.7,0.2-2.6,1.9-3.1c1.1-0.3,2.3-0.4,2.7-1.9c0.2-0.9,1.2-0.2,1.3,0.2c0.5,1.1,1.2,1.4,2.3,1.6
			c0.6,0.1,1.2,0.6,1.2,1.2c0.2,2.1,0.6,4.2,0.4,6.3c-0.1,1.1-0.6,2-1.5,2.6c-0.7,0.5-1,1-0.6,1.9c0.3,0.7,0.1,1.6,0.1,2.4
			c0,1.3,0,2.5,0.4,3.8c0.5,1.5-0.9,4.7-2.3,5.4C273.5,287,272.4,286.6,271.3,286.3z M273.8,272.5c1.8,0.1,3.9-1.9,3.9-3.7
			c0-1.6-1.7-3.2-3.6-3.3c-2.3-0.1-4.1,1.3-4.1,3.2C269.9,270.7,271.7,272.5,273.8,272.5z"/>
		<path class="st3" d="M285.9,20.8c-0.2,0.8-0.7,0.9-1.1,1c-3.5,0.8-7,1.1-10.5,0.7c-1.4-0.2-1.5-0.3-1.1-1.7
			c0.2-0.7,0.4-1.5,0.2-2.2c-0.4-1.1-1.2-1.5-2.3-1.5c-2,0-4,0.3-5.9,0.5c-1.9,0.2-3.8,0.3-5.6-0.2c-1-0.3-1.6,0-2.2,0.6
			c-0.4,0.5-0.9,0.9-1.6,1.2c1,1.6,2.4,2.7,4,3.5c-5.1,0.3-10.1,0.4-15.1-0.6c1-0.7,2.2-0.5,3.2-0.7c1.9-0.3,3.6-0.9,5.3-1.8
			c0.9-0.5,1.8-1.1,2.3-2.2c0.8-1.8,2.6-2.1,4.3-2.4c2.4-0.4,4.8-0.3,7.2-0.3c1.5,0,3,0,4.4,0.1c1.5,0,2.8,0.6,3.5,1.8
			c1.6,2.9,4.3,3.5,7.2,3.7C283.2,20.6,284.5,20.7,285.9,20.8z"/>
		<path class="st3" d="M263.2,256.2c-1.9-1-2.3-2.3-0.9-3.8c0.7-0.7,0.8-1.6,0.8-2.5c-0.1-2.7-0.2-5.4-0.3-8.1
			c0-1.8,0.4-2.2,2.1-2.2c5.4,0,10.9,0,16.3,0c1.7,0,2.4,0.8,2.2,2.5c-0.3,2.3-0.5,4.7-0.4,7c0,1.5,0.4,2.8,1.7,3.7
			c0.9,0.7,0.9,1.4,0.1,2.4c-0.4,0-0.6-0.4-0.9-0.6c-1.5-1.1-2.5-1.2-4-0.1c-0.1,0.1-0.2,0.2-0.4,0.3c-0.4,0.2-0.8,0.2-1-0.2
			c-0.2-0.4-0.2-0.6,0.2-0.9c2.6-1.9,2.6-4.6,2.1-7.4c-0.2-1.2,0-2.4-0.1-3.6c0-1.6-0.4-2.1-1.9-2.1c-2.4-0.1-4.7,0-7,0.4
			c-1.2,0.2-2.5,0.1-3.7,0.1c-1.9,0-2.1,0.3-2,2.2c0.1,2.9,0,5.7-0.7,8.5c-0.2,0.8-0.6,1.5-1.1,2.1
			C263.8,254.5,263.3,255.3,263.2,256.2z"/>
		<path class="st3" d="M290.5,239.8c1.8-0.3,3.6-0.7,5.3-0.2c0.9,0.3,1.2,1.1,1.4,1.9c0.4,2,0.2,4,0.4,6c0.4,5.3,0.6,10.6,0.8,15.9
			c0.1,1.8-0.3,3.5-0.7,5.2c-0.1,0.4-0.2,0.7-0.5,0.9c-1.9,1-2.2,2.8-2.4,4.7c-0.3,3.4-1.2,6.6-1.8,9.9c-0.3,1.8-0.7,3.7-0.9,5.5
			c-0.2,2.1-1.8,3.5-4.3,3.8c0.8-1.8,1.6-3.6,2.3-5.3c1.3-3,1.7-6.1,2-9.2c0.2-2.1,0.4-4.1,0.8-6.1c0.2-1.4,0.8-2.6,1.7-3.8
			c1.5-1.9,2.1-4.1,2.1-6.6c0.1-5.8-0.3-11.5-0.3-17.3c0-3.2-1.6-4.6-4.8-4.7C291.2,240.3,290.8,240.4,290.5,239.8z"/>
		<path class="st2" d="M260.3,242.6c0.1,2.5,0.6,5,0.1,7.5c-0.2,0.9-0.6,1.8-1.2,2.6c-0.7,0.9-1.5,1.4-2.7,1.4
			c-1.3-0.1-2.5-0.2-3.9,0.3c-0.3-2.3-0.5-4.5-0.4-6.8c0-0.9,0-1.7,0.2-2.6c0.3-1,1-1.8,2-1.8C256.4,242.9,258.2,242.2,260.3,242.6z
			"/>
		<path class="st2" d="M294,253.8c-1.5-0.2-2.8-0.8-4.2-0.8c-2.3,0.1-2.7-0.3-3.5-2.5c-0.7-2.2-0.5-4.5-0.5-6.7
			c0-0.7,0.5-1.2,1.2-1.2c2-0.2,4,0.2,6,0.7c0.6,0.1,0.9,0.6,0.9,1.1C294,247.4,294,250.6,294,253.8z"/>
		<path class="st2" d="M265.3,264.2c0.7,0.9,0.4,1.8,0.3,2.5c-0.4,2.5,0,4.7,1.3,6.8c0.8,1.2,1.1,2.5,1.1,3.9c0,2.9-0.2,5.8,0.6,8.6
			c0.6,2.1,1.6,3.6,3.9,3.9c-1.9,0.5-3.7,0.5-5.5,0.1c-1.3-0.3-2.3-1.5-2.4-2.9c-0.3-5.5-0.6-11-0.5-16.5c0-0.8,0.1-1.7-0.2-2.5
			C263.4,266.7,264.1,265.4,265.3,264.2z"/>
		<path class="st3" d="M253,240c-2.2,1.3-3,3.1-3,5.3c0,1.4,0,2.8,0.1,4.2c0.2,2.4,0.1,4.9,0.2,7.3c0.1,2.2,0.2,4.4,0.4,6.6
			c0.1,0.9,0.4,1.6,1,2.2c1.7,1.9,2.5,4.2,2.3,6.7c-0.3,5.8,0.9,11.3,2.9,16.6c0.4,1,0.8,2,0.3,3.3c-1.1-2.4-1.8-4.8-2.5-7.2
			c-1.1-3.7-1.8-7.5-2-11.3c0-0.9-0.3-1.9-0.9-2.7c-2.5-2.8-2.6-6.1-2.3-9.6c0.2-2.5,0.2-5,0-7.5c-0.2-3.5-0.5-7-0.6-10.5
			C248.8,241.2,250.7,239.6,253,240z"/>
		<path class="st2" d="M280.8,290.1c-1.6,0.3-2.9-0.2-4.4-0.2c1.3-1.4,2.3-2.8,2.4-4.6c0.3-2.7,0.4-5.5,0.5-8.2
			c0-1.6,0.2-3.1,0.8-4.6c1.1-3.2,1.4-6.3,0.2-9.6c0-0.1,0-0.3,0-0.5c1.3-0.2,2,0.3,2.1,1.9c0.1,2.1,0.1,4.3-0.1,6.5
			c-0.3,2.4-0.4,4.8-0.6,7.3C281.4,282.1,281.1,286.1,280.8,290.1z"/>
		<path class="st4" d="M286,259.2c0.9-1.4,1.9-2.4,3.2-3c1.7-0.7,3.3-0.3,4.3,1.3c1.7,2.7,1.2,5.6-1,7.9c-0.6,0.6-1.4,0.7-2.2,0.5
			c-0.7-0.2-1-0.9-1.1-1.7C288.8,262.2,288,260.4,286,259.2z"/>
		<path class="st2" d="M279.1,248.3c-0.8,0.3-1.5-0.1-2.1-0.1c-2-0.1-3.9,0.1-5.8,0.4c-0.8,0.1-1.5,0.1-2.3,0.1
			c-0.4,0-0.7-0.2-0.9-0.5c-0.6-1.2-0.4-2.5-0.2-3.7c0.1-0.3,0.5-0.5,0.9-0.6c3.1-0.4,6.2-0.6,9.3-0.5c0.9,0,1.2,0.7,1.2,1.5
			C279.1,246.1,279.1,247.2,279.1,248.3z"/>
		<path class="st4" d="M255.6,266.1c-2.2-0.1-3.1-1.5-2.3-3.6c0.2-0.4,0.1-0.7,0-1.1c-0.6-1.8-0.2-3.1,1.5-4c1.6-0.8,3.3-1.3,5-0.7
			c1.4,0.5,1.6,1.5,0.7,2.7c-1.1,1.5-2.4,3-2.5,5C257.9,265.5,256.9,266.1,255.6,266.1z"/>
		<path class="st5" d="M35.1,24.1c0.9-3.3,3.4-5.1,6.4-4.2c1.1,0.3,2.2,0.3,3.3,0.2c0.7-0.1,1.3,0,1.6,0.7c0.3,0.6,0.1,1.2-0.3,1.8
			c-1,1.5-2.5,2.1-4.1,2.4C39.7,25.2,37.3,25.2,35.1,24.1z"/>
		<path class="st3" d="M262.7,292.2c3.1,0.6,6.3,0.8,9.5,0.5c2.6-0.2,5.3-0.2,7.9,0.4c0.8,0.2,1,0.6,0.9,1.4
			c-4,0.5-8.1,0.8-12.1,0.8c-1.2,0-2.4,0-3.6,0C263,295.3,262.3,294.4,262.7,292.2z"/>
		<path class="st5" d="M492.2,14.6c-0.8,1.7,1.1,2.7,1,4.3c-0.9,0.3-1.8,0-2.6,0c-1.5-0.1-3-0.1-4.4,0c-0.6,0-1.1-0.1-1.6-0.3
			c-0.6-0.3-1.1-0.8-1.1-1.6c-0.1-0.7,0.6-0.8,1-0.9C486.8,14.9,489.3,14.1,492.2,14.6z"/>
		<path class="st2" d="M288.8,285c-0.8-2.8-0.6-5.6-0.2-8.4c0.3-2.4,0.7-4.9,0.9-7.3c0-0.4-0.1-0.9,0.5-1.1c0.7-0.2,1.2,0.1,1.8,0.4
			c0.6,0.3,0.3,0.7,0.1,1.1c-1.2,3.4-1.6,7-2.2,10.5C289.4,281.9,289.1,283.5,288.8,285z"/>
		<path class="st6" d="M389.3,239.1c-0.5,0.4-1,0.2-1.5,0.2c-29,0-58,0-87,0c0.4-0.4,0.9-0.2,1.3-0.2c14.8,0,29.7,0,44.5,0
			c13.8,0,27.5,0,41.2-0.1C388.3,239.1,388.8,239.1,389.3,239.1z"/>
		<path class="st6" d="M239.5,21.5c-0.4,0.3-0.9,0.2-1.3,0.2c-25.2,0-50.5,0-75.7,0c-0.4,0-0.9,0.2-1.3-0.2c5.1,0,10.2,0,15.3,0
			c20.5,0,41.1,0,61.6,0C238.7,21.4,239.1,21.5,239.5,21.5z"/>
		<path class="st4" d="M271,250.6c2.2,0.1,4.3-0.4,6.4,0.6c-0.9,2.3-2.4,3.2-4.5,3C271.8,254.1,271.3,253.1,271,250.6z"/>
		<path class="st6" d="M518.2,405.4c0-21.4,0-42.9,0-64.3c0.3,3,0.2,6,0.2,9c0,16.8,0,33.6-0.1,50.3
			C518.3,402.1,518.4,403.8,518.2,405.4z"/>
		<path class="st6" d="M42.7,427.2c0.3-0.3,0.6-0.2,0.9-0.2c10.7,0,21.5,0,32.2,0c-1.5,0.3-3,0.1-4.5,0.1
			C61.8,427.2,52.2,427.2,42.7,427.2z"/>
		<path class="st6" d="M304.3,26c-0.2,0.2-0.4,0.2-0.7,0.2c-10.3,0-20.7,0-31,0c0.2,0,0.4-0.1,0.6-0.1C283.6,26,293.9,26,304.3,26z"
			/>
		<path class="st2" d="M257,278.7c-0.4-3.2-1.5-6.3-0.5-9.5c0-0.1,0.3-0.1,0.5-0.1C257,272.3,257,275.5,257,278.7z"/>
		<path class="st6" d="M157.7,240.1c-0.3,0.3-0.6,0.2-0.9,0.2c-8,0-16,0-24.1,0c2.6-0.2,5.2-0.2,7.7-0.2
			C146.2,240.1,152,240.1,157.7,240.1z"/>
		<path class="st6" d="M446.4,426.3c0.3-0.3,0.6-0.2,0.9-0.2c7.9,0,15.7,0,23.6,0c-3.1,0.3-6.1,0.2-9.2,0.2
			C456.6,426.3,451.5,426.3,446.4,426.3z"/>
		<path class="st6" d="M212.4,239.9c-0.3,0.3-0.7,0.2-1,0.2c-7.7,0-15.3,0-23,0c2.3-0.3,4.5-0.2,6.8-0.2
			C200.9,239.8,206.7,239.9,212.4,239.9z"/>
		<path class="st6" d="M376.1,426.7c0.3-0.3,0.7-0.2,1-0.2c6.2,0,12.4,0,18.6,0c-2.4,0.3-4.8,0.2-7.3,0.2
			C384.3,426.8,380.2,426.8,376.1,426.7z"/>
		<path class="st1" d="M479.9,310.4c0,4.9,0,9.9,0,14.8c0,0-0.1,0.1-0.1,0.1c0,0.1,0,0.1,0.1,0.2c0.2,8.4,0.3,16.8,0.2,25.2
			c0,3.8-0.1,7.7-0.2,11.5c-0.3,10.3,0.1,20.6,0,30.9c0,5.6-0.1,11.3-0.1,16.9c0,0-0.1,0.1-0.1,0.1c0,0.1,0.1,0.1,0.1,0.2
			c0,0.5,0,1,0,1.6c0,1.7-0.9,2.7-2.5,2.9c-1,0.2-2,0.2-2.9,0.5c-0.6,0.2-0.9,0-1.1-0.6c-1-2.6-1.7-5.2-1.1-8
			c0.2-0.8,0.1-1.7,0.1-2.5c0-23.4,0-46.8-0.1-70.2c0-5.9-0.2-11.7-0.2-17.6c0-3.5,0-7,0-10.6c0-14.2-0.1-28.3-0.1-42.5
			c0-1.6-0.4-3.3,0-4.9c0.4-2,2.2-3.4,4.1-3.2c2,0.1,3.8,1.9,4,3.9c0.5,6,0.3,12,0.2,18.1c-0.1,5.4,0.1,10.7-0.1,16.1
			c-0.2,5.6-0.1,11.3-0.2,16.9c0,0-0.1,0.1-0.1,0.1C479.9,310.3,479.9,310.3,479.9,310.4z M478.3,277.1c0-4.9,0-9.8,0-14.8
			c0-1-0.2-2-0.7-2.8c-0.4-0.7-0.9-1.2-1.9-0.4c-1.2,1.1-1.9,2.4-1.9,4c0.1,7.4-0.2,14.9,0.2,22.3c0.1,1.9-0.3,3.8-0.2,5.7
			c0.1,6.5,0,12.9,0.2,19.4c0.2,11.1,0.1,22.3,0.1,33.4c0,13.9,0,27.8,0,41.7c0,0.3,0,0.6,0,1c0.5,3.4,0.3,6.9,0.1,10.3
			c-0.2,3.8-0.2,7.6,0.1,11.3c0.1,1.2,0.3,2.3,0.8,3.5c0.3,0.7,0.9,1,1.5,1.1c0.6,0.1,0.9-0.6,1.1-1.1c0.3-0.6,0.4-1.3,0.4-2
			c0.1-40-0.3-79.9,0.2-119.9C478.4,285.6,478.3,281.3,478.3,277.1z"/>
		<path class="st1" d="M141.3,268.4c0.4,18.7,0.2,37.3,0.3,56c0,4.3,0,8.6,0.2,12.9c0.3,5.4,0.2,10.7,0.1,16.1
			c-0.3,18.2,0,36.4-0.1,54.6c0,1.2,0.2,2.5,0.2,3.7c-0.1,3-1.8,4.4-4.7,4c-0.2,0-0.3-0.1-0.5-0.1c-2.3-0.2-2.9-0.8-2.6-3.1
			c0.3-2.3,0.2-4.6,0.2-6.9c0-4.3-0.1-8.7,0-13c0.4-19.4,0.3-38.9,0.1-58.3c-0.2-19.2-0.1-38.4-0.1-57.6c0-3.7,0.3-7.4,0.4-11.1
			c0.1-2.4-0.3-4.8-0.6-7.2c-0.3-2.5,0.3-4,2.2-4.2c2.1-0.3,4.4,1.6,4.6,3.7C141.5,261.3,141.2,264.8,141.3,268.4z M139.7,264.4
			c0.2-1.6-0.2-3.3-0.3-4.9c0-1-0.3-2.1-1.5-2.7c-0.8-0.4-1.4-0.2-1.5,0.6c-0.2,1-0.5,2-0.5,3c0.1,10.1-0.2,20.2,0.2,30.3
			c0.3,6.4,0.2,12.9,0.2,19.3c0.1,33.4,0.1,66.8,0.1,100.2c0,0.3,0,0.6,0,1c0,1.1,0.6,1.7,1.6,1.8c0.8,0.1,1.3-0.6,1.5-1.4
			c0.4-1.9,0.8-3.7,0.8-5.6c0-1.6-0.3-3.1-0.3-4.6c0.1-3.9,0.2-7.9,0.2-11.8c0-11,0.3-22-0.2-33.1c-0.1-2.4,0.1-4.8,0.2-7.2
			c0.1-4.2,0.1-8.4-0.1-12.7c-0.2-3.3-0.4-6.5-0.3-9.8c0.1-4.3-0.1-8.7,0.2-13c0.2-2.7-0.1-5.4-0.1-8.1c-0.2-9.3,0.1-18.5-0.3-27.8
			C139.3,273.3,139.3,268.8,139.7,264.4z"/>
		<path class="st1" d="M368.4,267.3c-0.4,6.4,0,12.8-0.3,19.1c-0.2,4.5,0,8.9-0.2,13.4c-0.5,9.9,0.1,19.8-0.3,29.7
			c-0.2,6.9,0.1,13.8-0.3,20.7c-0.2,5.1,0.1,10.2-0.2,15.3c-0.3,4.4,0.1,8.7-0.2,13c-0.3,4.4,0.1,8.8-0.2,13.2
			c-0.4,5,0,10.1-0.3,15.1c-0.1,1.5,0,3-0.4,4.5c-0.6,2.1-3.7,4-5.8,3.4c-1.5-0.4-2.1-1.6-1.7-3.7c0.3-1.2,0.3-2.5,0.4-3.6
			c0.2-3.8,0.5-7.6,0.6-11.4c0.1-2.7,0.1-5.4,0.2-8.1c0.5-12.6,0-25.2,0.3-37.9c0.1-3.1,0-6.3,0.3-9.4c0.2-2.2,0.3-4.4,0.1-6.6
			c-0.3-4.2,0-8.4-0.2-12.6c-0.4-7.3-0.3-14.6-0.1-21.9c0.1-4-0.1-8.1,0.2-12.1c0.4-5.5,0.1-11.1,0.2-16.6c0-1.7-0.4-3.5-0.4-5.2
			c0-1.6-0.1-3.2,0.7-4.7c0.7-1.4,3.3-2,4.7-1.6c1.9,0.6,2.8,1.7,2.9,3.8C368.4,264.5,368.4,265.9,368.4,267.3z M366.5,270.5
			c0-1.6,0-3.1,0-4.7c0-1-0.2-2-0.6-2.9c-0.5-1.5-2-1.7-3-0.5c-0.5,0.6-0.7,1.3-0.8,2.2c-0.1,6.1,0.1,12.2-0.2,18.3
			c-0.3,8.9,0,17.8-0.2,26.7c-0.2,6.8,0,13.7,0.1,20.5c0.1,10.4,0.2,20.8-0.1,31.2c-0.3,10.8,0.1,21.7-0.3,32.5
			c-0.1,2,0,4.1-0.2,6.1c-0.3,3.3-0.1,6.7-0.4,10c-0.1,1,0.6,1.4,1.3,1.8c0.8,0.4,1-0.4,1.3-0.7c0.7-0.7,1.1-1.7,1.2-2.7
			c0.4-3.2,0.3-6.5,0.4-9.8c0.3-6.2-0.1-12.4,0.3-18.6c0.3-5.7-0.2-11.5,0.2-17.2c0.3-3.8,0.1-7.6,0.2-11.4c0.3-10-0.1-20,0.3-30
			c0.3-9.1-0.1-18.3,0.2-27.4C366.4,286.2,366.1,278.4,366.5,270.5z"/>
		<path class="st1" d="M423.7,340.4c0.3,9.6-0.3,21.4-0.3,33.2c0,13.1-0.1,26.2-0.2,39.3c0,2-0.5,2.5-2.5,2.2
			c-0.6-0.1-1.3-0.2-1.9-0.2c-0.5,0-0.6-0.3-0.8-0.6c-0.4-0.8-0.5-1.7-0.5-2.6c0.3-5.6,0-11.3,0-16.9c0-9.4-0.2-18.9-0.1-28.3
			c0.1-9.8,0.2-19.6-0.1-29.4c-0.5-17.6-0.3-35.2-0.5-52.8c-0.1-8.1-0.1-16.2-0.3-24.3c0-1.1,0.3-1.6,1.3-1.9c3.4-1,6,1.1,6,5
			c0,7.5-0.1,15-0.1,22.6c0,8.2-0.1,16.4-0.1,24.6C423.7,319.6,423.7,328.9,423.7,340.4z M420.3,412.8c1.1-0.9,1.6-2,1.6-3.6
			c0.1-10.8-0.1-21.6,0.2-32.4c0.3-9.7,0-19.5,0.3-29.2c0.1-2.6-0.2-5.3-0.2-7.9c0.1-20.6-0.3-41.2,0.2-61.7c0.1-4.5,0-9,0-13.4
			c0-1.4-0.5-2.7-1.3-3.9c-0.2-0.3-0.4-0.6-0.9-0.5c-0.5,0.2-1.3,0.2-1.2,0.8c0.1,1.5-0.8,2.8-0.8,4.3c0.2,8.6-0.2,17.2,0.2,25.9
			c0.3,6.7,0,13.3,0.2,20c0.3,10.1-0.1,20.1,0.2,30.2c0.2,6,0.3,12,0.3,18c0.1,7.9-0.1,15.9,0.2,23.8c0.3,9.1,0.5,18.1,0.3,27.2
			c0,0.3,0,0.6,0,0.8C419.5,411.8,419.8,412.4,420.3,412.8z"/>
		<path class="st1" d="M197.9,290.9c0,5.9,0,11.8,0,17.6c0,5.6-0.1,11.1-0.1,16.7c-0.3,0.8-0.2,1.6-0.1,2.4c0,7.5-0.1,15-0.1,22.5
			c0,0.2,0,0.3,0,0.5c-0.2,0.3-0.2,0.6-0.1,1c-0.1,4.2-0.1,8.5-0.2,12.7c-0.2,0.3-0.2,0.6-0.1,1c0,8-0.1,16-0.1,24
			c-0.3,0.4-0.2,0.8-0.1,1.2c0,2.8,0,5.5-0.1,8.3c-0.2,4.8-0.1,9.6-0.2,14.4c0,1.1-0.5,1.8-1.7,2.1c-1.1,0.3-2.2,0.4-3.2,0
			c-2.3-0.8-2.6-2.5-2.3-4.6c0.2-0.1,0.2-0.3,0.1-0.5c0.1-3.2,0.1-6.4,0.2-9.6c0.3-1.8,0.3-3.5,0-5.3c0-6.6,0-13.1,0-19.7
			c0.3-0.5,0.2-1,0.1-1.4c0-7.5,0-15,0-22.5c0.1-0.4,0.2-0.8-0.1-1.2c0-2.1,0.1-4.2-0.1-6.2c-0.1-1.6-0.3-3.2-0.2-4.9
			c0.4-11.3,0.1-22.5,0.1-33.8c0-3,0-6.1,0-9.1c0.1-0.1,0-0.2-0.1-0.3c0-7.3-0.4-14.6-0.2-21.8c0.2-0.2,0.2-0.5,0.1-0.7
			c0-1.9,0-3.8,0-5.7c0-0.1-0.1-0.2-0.1-0.3c-0.3-1.3-0.5-2.7-0.6-4.1c0-2.2,1.2-3.6,2.9-4.5c1.8-0.9,3.8-0.5,5.4,0.6
			c0.9,0.6,1.2,1.7,1.2,2.9c-0.1,0.4-0.1,0.8,0,1.2c0,7-0.1,14.1-0.1,21.1c0,1.2,0,2.4,0,3.6C197.6,289.3,197.8,290.1,197.9,290.9z
			 M191.1,359.8c0,15.5,0,31,0,46.5c0,2,0.6,4,1.1,5.9c0.1,0.7,0.7,1,1.4,1c0.7,0,1-0.4,1.2-1c0.3-0.9,0.5-1.8,0.6-2.7
			c0.1-3,0.1-6,0.2-9c0.3-11.3-0.2-22.5,0.3-33.8c0.2-3.7,0.1-7.3,0.2-11c0.3-20.4-0.2-40.8,0.3-61.1c0.2-9.9,0-19.8,0.1-29.8
			c0-0.7-0.1-1.3-0.3-2c-0.3-1.2-1.5-2.4-2.3-2.3c-1.1,0.1-1.8,0.9-2.1,1.9c-0.5,1.6-0.8,3.2-0.7,4.8c0.1,5.7-0.4,11.3-0.3,17
			c0,1.2,0.1,2.4,0.4,3.5c0.2,0.9,0.2,1.8,0.1,2.6c-0.3,2.5-0.3,4.9-0.4,7.4c-0.1,1.7,0.1,3.4,0.2,5.1c0.2,3.6,0.2,7.3,0.2,10.9
			C191.1,329.2,191.1,344.5,191.1,359.8z"/>
		<path class="st1" d="M83.5,274.4c0,4.8-0.1,9.7,0,14.5c0.3,14.8,0.1,29.6,0.2,44.4c0.3,24.5,0,48.9,0.1,73.4c0,0.8,0,1.6,0.1,2.4
			c0,1.5-0.4,2.9-1.2,4.1c-0.7,1-1.5,1.4-2.7,1.1c-1.2-0.2-2.1-1-2.3-2.3c-0.1-0.6-0.1-1.3,0-1.9c0.6-5.9,0-11.8,0-17.7
			c0-14.9,0-29.7,0-44.6c0-25.6,0-51.3-0.1-76.9c0-2.8-0.3-5.6-0.7-8.4c-0.3-1.7-0.3-3.4,0.1-5.1c0.2-1.1,0.9-1.9,2-2.1
			c1.2-0.3,2.3,0,3.1,1c0.8,1,1.3,2.1,1.3,3.4C83.4,264.6,83.4,269.5,83.5,274.4C83.5,274.4,83.5,274.4,83.5,274.4z M80.1,412.4
			c0.5-0.5,1-0.9,1.4-1.5c1-1.7,1.2-3.5,1.1-5.4c-0.1-5.3-0.1-10.7-0.2-16c-0.3-21.2,0-42.4-0.2-63.7c-0.3-19.3-0.1-38.7,0-58.1
			c0-1.9-0.3-3.8-0.3-5.7c0-1,0-2.1-0.3-3.2c-0.1-0.5-0.3-1-0.9-1.1c-0.6-0.1-1,0.3-1.3,0.8c-0.4,0.7-0.5,1.5-0.5,2.3
			c0,9.2,0,18.3,0,27.5c0.1,21.1-0.3,42.2,0.2,63.3c0.2,6.9,0.1,13.7,0.2,20.6c0.2,12.6,0.1,25.1,0.1,37.7
			C79.2,410.8,79.4,411.6,80.1,412.4z"/>
		<path class="st1" d="M301.9,403.8c-0.2-8.6,0.7-17.4,0.8-26.3c0-1.9,0.4-3.8,0.6-5.7c0.2-1.5-0.2-3-0.2-4.5
			c0.1-11.1,0.2-22.1,0.3-33.2c0-0.9,0-1.8,0-2.8c0.1-1.9,1.9-3.9,3.7-4.2c2.2-0.3,4.3,1.6,4.4,3.9c0.1,5.6-0.2,11.3-0.5,16.9
			c-0.3,5-0.4,10-0.6,15c-0.3,7.1-0.6,14.1-0.8,21.2c-0.2,4.6-0.2,9.2-0.3,13.8c-0.1,4.8-0.3,9.6-0.4,14.4c-0.1,1.9-1.6,3.2-3.5,3.2
			c-2.2-0.1-3.4-1.2-3.4-3.3C301.9,409.3,301.9,406.7,301.9,403.8z M307.9,330.4c-1.9,0.8-2.6,1.8-2.6,3.8
			c-0.1,5.7,0.2,11.4-0.2,17.1c-0.3,3.5-0.3,7-0.5,10.5c-0.2,3.4,0,6.8-0.2,10.3c-0.3,4.5,0.1,9.1-0.2,13.6
			c-0.3,4.2,0.1,8.4-0.2,12.7c-0.3,4.3,0.2,8.7,0.2,13c0,0.2,0,0.3,0,0.5c0.1,0.3,0.2,0.7,0.7,0.7c0.4,0,0.9,0.1,1.2-0.4
			c0.3-0.6,0.6-1.2,0.7-1.8c0.3-1.6,0.5-3.3,0.5-5c0-5.8,0.1-11.6,0.4-17.3c0.2-4.2,0.3-8.4,0.5-12.5c0.2-2.7,0.1-5.4,0.2-8.1
			c0.2-4.6,0.3-9.1,0.5-13.7c0.1-3.3,0.3-6.7,0.3-10c0-3,0-6.1,0-9.1C309.2,333.1,308.7,331.8,307.9,330.4z"/>
		<path class="st1" d="M247.4,395.1c0-3.7-0.1-7.4,0-11c0.2-14.7,0.5-29.4,0.4-44.1c0-1.4-0.4-2.8-0.1-4.2c0.3-1.4,1.4-1.9,2.6-2.1
			c1.1-0.2,1.9,0.1,2.5,1.1c0.9,1.5,1.4,3.1,1.3,4.8c-0.4,8.9,0.2,17.9-0.3,26.7c-0.8,12,0,24-0.5,36.1c-0.1,2.6,0,5.3,0.3,7.9
			c0.1,0.7,0.1,1.5-0.1,2.2c-0.6,2.8-4,2.8-5.5,1.7c-0.7-0.5-0.8-1.3-0.8-2C247.4,406.5,247.4,400.8,247.4,395.1
			C247.4,395.1,247.4,395.1,247.4,395.1z M250.7,336.1c-1,0.7-1.3,1.3-1.3,2.6c-0.1,6.3,0,12.7-0.2,19c-0.4,14,0.2,28-0.3,41.9
			c-0.1,3.4,0.1,6.8,0.2,10.2c0,0.3,0.1,0.7,0.2,1c0.3,0.9,1,1.2,1.8,1.1c0.8-0.1,0.8-0.8,0.9-1.5c0.1-1.5-0.3-3-0.3-4.5
			c0-5.5,0-11.1,0.2-16.6c0.2-6,0-12,0.2-18.1c0.3-7.6,0-15.2,0.3-22.7c0.1-2.7,0.1-5.3-0.3-7.9C252,339,251.5,337.4,250.7,336.1z"
			/>
		<path class="st5" d="M189.6,395.3c0.3,1.8,0.3,3.5,0,5.3C189.7,398.9,189.6,397.1,189.6,395.3z"/>
		<path class="st5" d="M197.6,327.7c-0.1-0.8-0.2-1.6,0.1-2.4C197.7,326.1,197.9,326.9,197.6,327.7z"/>
		<path class="st5" d="M197.9,290.9c-0.1-0.8-0.2-1.6,0.1-2.4C198,289.3,198.1,290.2,197.9,290.9z"/>
		<path class="st5" d="M189.7,374.2c0.1,0.5,0.2,1-0.1,1.4C189.6,375.2,189.5,374.7,189.7,374.2z"/>
		<path class="st5" d="M189.7,350.5c0.3,0.4,0.2,0.8,0.1,1.2C189.5,351.3,189.6,350.9,189.7,350.5z"/>
		<path class="st5" d="M196.9,390.5c-0.1-0.4-0.2-0.8,0.1-1.2C197,389.7,197.1,390.2,196.9,390.5z"/>
		<path class="st5" d="M198.1,263.8c-0.1-0.4-0.1-0.8,0-1.2C198.3,263,198.3,263.4,198.1,263.8z"/>
		<path class="st5" d="M197.4,351.7c-0.1-0.3-0.2-0.7,0.1-1C197.5,351,197.6,351.4,197.4,351.7z"/>
		<path class="st5" d="M197.1,365.3c-0.1-0.3-0.2-0.7,0.1-1C197.3,364.7,197.4,365,197.1,365.3z"/>
		<path class="st5" d="M189.3,273.6c0.1,0.3,0.1,0.5-0.1,0.7C189.1,274.1,189.1,273.9,189.3,273.6z"/>
		<path class="st5" d="M189.5,410.2c0.1,0.2,0,0.4-0.1,0.5C189.4,410.5,189.5,410.4,189.5,410.2z"/>
		<path class="st5" d="M189.4,296.2c0.1,0.1,0.2,0.1,0.1,0.3C189.5,296.4,189.4,296.3,189.4,296.2z"/>
		<path class="st5" d="M479.9,310.4c0-0.1,0-0.1-0.1-0.2c0,0,0-0.1,0.1-0.1C479.9,310.2,479.9,310.3,479.9,310.4z"/>
		<path class="st5" d="M479.9,325.5c0-0.1-0.1-0.1-0.1-0.2c0,0,0-0.1,0.1-0.1C479.9,325.3,479.9,325.4,479.9,325.5z"/>
		<path class="st5" d="M189.2,267.6c0,0.1,0.1,0.2,0.1,0.3C189.2,267.8,189.2,267.7,189.2,267.6z"/>
		<path class="st5" d="M480,410.2c0-0.1-0.1-0.1-0.1-0.2c0,0,0-0.1,0.1-0.1C479.9,410,480,410.1,480,410.2z"/>
		<path class="st1" d="M422.8,195.6c-15.2,0-30.3,0-45.5,0c-19.2,0-38.4-0.1-57.6,0.1c-4.1,0-8.3-0.1-12.4,0.2
			c-3.2,0.2-6.5,0.1-9.7,0.2c-2.8,0.1-5.6,0.2-8.3,0c-3.7-0.3-7.3-0.2-11-0.1c-1.9,0-3.8,0.2-5.7,0.2c-31.2-0.5-62.4-0.3-93.6-0.1
			c-16.5,0.1-33-0.1-49.5,0.2c-12.5,0.3-25-0.1-37.5,0.2c-9.2,0.3-18.4,0.1-27.6,0.2c-1.6,0-3.1,0-4.7,0.2c-1.8,0.2-3.2-0.8-3.3-2.9
			c-0.1-3.7-0.6-7.3-1.1-11c-0.4-3-0.8-6-1.1-9.1c-0.4-4.6-0.7-9.2-1-13.9c-0.2-3.1-0.4-6.2-0.7-9.2c-0.4-4.5-0.7-8.9-1.2-13.4
			c-0.5-4.3-1.1-8.6-1.6-12.9c-0.2-2.1-0.3-4.3-0.5-6.4c-0.3-3.3-0.6-6.6-0.9-9.9c-0.2-2.1-0.3-4.3-0.5-6.4
			c-0.3-2.5-0.5-4.9-0.9-7.4c-0.3-1.8-0.4-3.6-0.5-5.4c-0.3-3.3-0.6-6.7-0.9-10c-0.2-2-0.3-4.1-0.5-6.2c-0.3-2.9-0.5-5.7-0.9-8.6
			c-0.3-1.9-0.3-3.9-0.5-5.8c-0.3-2.9-0.7-5.9-0.9-8.8c-0.2-3.4-0.9-6.9,0.4-10.2c0.4-1,0.8-1.8,1.6-2.6c1.2-1.2,2.5-2.4,3.5-3.8
			c0.4-0.6,1.1-0.9,1.8-1c1.1-0.2,2.2-0.3,3.3-0.3c4.1,0,8.2-0.2,12.3-0.3c2.9-0.1,5.7,0.2,8.6,0c7.9-0.4,15.9-0.1,23.8-0.2
			c6.6-0.1,13.1,0.2,19.7-0.1c7.7-0.3,15.3,0.1,23-0.2c4.4-0.2,8.9,0,13.3-0.2c6.9-0.4,13.8,0,20.7-0.2c9.3-0.4,18.7,0.1,28-0.3
			c7.5-0.3,15.1,0.1,22.6-0.2c6.1-0.3,12.1,0.1,18.2-0.2c3.5-0.2,7-0.3,10.5-0.1c4.6,0.2,9.3,0.2,13.9,0.1c5.1-0.1,10.2,0,15.3-0.2
			c5.2-0.3,10.3,0,15.4-0.2c14.7-0.5,29.4,0,44.1-0.3c4.5-0.1,9,0,13.5-0.2c10.7-0.5,21.4,0,32.1-0.3c3.5-0.1,7,0,10.5-0.2
			c5.9-0.4,11.8-0.2,17.7-0.2c14.3,0,28.6,0,43,0c3.6,0,7.1-0.3,10.7-0.4c2.5-0.1,5.1,0.2,7.5,0.7c2.1,0.4,3.8,1.7,5.3,3.2
			c1.9,2,3.4,4.3,4,7.1c0.4,2,0.1,3.9-0.1,5.9c-0.3,2.3-0.6,4.6-0.9,6.9c-0.3,2.9-0.6,5.8-0.9,8.7c-0.2,1.9-0.3,3.8-0.5,5.7
			c-0.3,2.7-0.6,5.3-0.9,8c-0.2,1.9-0.3,3.8-0.5,5.7c-0.3,3.1-0.6,6.2-0.9,9.3c-0.2,2.1-0.3,4.2-0.5,6.3c-0.3,3.1-0.6,6.2-0.9,9.3
			c-0.2,1.8-0.3,3.6-0.5,5.4c-0.3,3-0.6,6-0.9,9c-0.2,2.1-0.3,4.3-0.5,6.4c-0.3,3.1-0.6,6.3-0.9,9.4c-0.2,2.1-0.3,4.3-0.5,6.4
			c-0.3,3.1-0.6,6.3-0.9,9.4c-0.2,2-0.3,3.9-0.5,5.9c-0.3,2.8-0.6,5.6-0.9,8.5c-0.2,2.1-0.4,4.2-0.5,6.3c-0.2,3.4-0.6,6.8-0.9,10.1
			c-0.3,3.3-0.7,6.7-1.3,10c-0.2,1-0.3,2-0.5,3c-0.3,1.2-1.5,0.9-2.3,1.2c-0.3,0.1-0.8,0-1.2,0C453.1,195.6,438,195.6,422.8,195.6z
			 M272.5,56c0,0.1,0,0.2,0,0.3c-4.6,0-9.3-0.1-13.9,0c-3.3,0.1-6.6,0.2-9.9,0.5c-1.2,0.1-2.4,0-3.6,0.4c-1.2,0.4-1.5,1.3-1.5,2.3
			c0,1,0.8,1.3,1.7,1.5c1.8,0.4,3.7,0,5.5,0c2.2,0,4.5,0.2,6.7-0.1c4.2-0.6,8.4-0.5,12.6-0.9c2.3-0.2,4.6-0.2,6.9-0.3
			c0.7,0,1.4-0.2,2-0.4c0.8-0.3,1.3-1,1.2-1.9c-0.1-0.8-0.6-1.2-1.4-1.3C276.8,55.8,274.6,56.1,272.5,56z M262.7,144.6
			c5.1-0.3,9.9-0.5,14.8-0.8c1.7-0.1,2.2-0.3,2.7-1.9c0.4-1.1,0-1.6-1-2c-1.2-0.4-2.3,0.1-3.4,0.1c-6.1,0-12.2-0.1-18.3,0.2
			c-0.7,0-1.4,0.2-2.1,0.1c-2.6-0.3-5.2,0.3-7.8,0.1c-0.9-0.1-1.7,1-1.6,2.1c0,1,0.7,1.4,1.6,1.5c0.7,0.1,1.3,0.2,2,0.2
			C254,144.4,258.4,144.2,262.7,144.6z M318.2,88c0,2.6,1.1,3.9,3.4,3.9c2,0,3.5-1.3,3.3-3.5c-0.1-1.5-1.1-3.3-3.5-3.2
			C318.8,85.3,318.2,85.8,318.2,88z M318.5,117.3c0,1.1,0.5,2.1,1.6,2.6c1.2,0.6,2.6,0.5,3.7-0.3c1-0.7,1-1.8,0.8-2.9
			c-0.2-1.6-1.4-1.8-2.6-2.2C319.4,113.7,318.7,115,318.5,117.3z M207.4,116.9c0-1.7-0.6-2.3-2.3-2.4c-0.3,0-0.6,0-1,0
			c-1.7,0.1-2.9,1.5-2.8,3.4c0,1.6,1,2.4,2.8,2.4C206.3,120.3,207.4,119.2,207.4,116.9z M201.1,89.2c0,0.7,0.1,1.4,0.7,1.8
			c1.3,0.7,2.6,1,4,0.4c0.5-0.2,0.8-0.5,1-1c0.5-1.2,0.3-2.4-0.5-3.2c-1.2-1.2-2.7-1.1-4-0.6C201.2,86.9,201.2,88.2,201.1,89.2z"/>
		<path class="st1" d="M273.8,272.5c-2.1-0.1-3.9-1.9-3.8-3.8c0-1.9,1.8-3.3,4.1-3.2c1.9,0.1,3.6,1.7,3.6,3.3
			C277.6,270.6,275.5,272.6,273.8,272.5z M273.3,270.3c1.2,0,2.3-0.9,2.2-1.7c-0.1-0.8-0.7-1.2-1.5-1.2c-1.2,0-2.1,0.7-2,1.7
			C272.1,270,272.5,270.4,273.3,270.3z"/>
		<path class="st5" d="M478.3,277.1c0,4.2,0,8.5,0,12.7c-0.5,40-0.1,79.9-0.2,119.9c0,0.7-0.1,1.3-0.4,2c-0.2,0.5-0.5,1.2-1.1,1.1
			c-0.6-0.1-1.2-0.4-1.5-1.1c-0.4-1.1-0.7-2.3-0.8-3.5c-0.3-3.8-0.3-7.5-0.1-11.3c0.2-3.4,0.3-6.9-0.1-10.3c0-0.3,0-0.6,0-1
			c0-13.9,0-27.8,0-41.7c0-11.1,0.2-22.3-0.1-33.4c-0.1-6.5,0-12.9-0.2-19.4c0-1.9,0.4-3.8,0.2-5.7c-0.5-7.4-0.2-14.9-0.2-22.3
			c0-1.6,0.7-2.9,1.9-4c1-0.8,1.4-0.3,1.9,0.4c0.5,0.9,0.7,1.8,0.7,2.8C478.3,267.2,478.3,272.2,478.3,277.1z"/>
		<path class="st5" d="M139.7,264.4c-0.4,4.5-0.4,8.9-0.2,13.4c0.3,9.3,0,18.5,0.3,27.8c0.1,2.7,0.3,5.4,0.1,8.1
			c-0.3,4.4-0.1,8.7-0.2,13c-0.1,3.3,0.1,6.5,0.3,9.8c0.2,4.2,0.2,8.5,0.1,12.7c-0.1,2.4-0.3,4.8-0.2,7.2c0.5,11,0.2,22,0.2,33.1
			c0,3.9-0.1,7.9-0.2,11.8c0,1.6,0.3,3.1,0.3,4.6c0,1.9-0.4,3.8-0.8,5.6c-0.2,0.8-0.7,1.5-1.5,1.4c-0.9-0.1-1.6-0.7-1.6-1.8
			c0-0.3,0-0.6,0-1c0-33.4,0.1-66.8-0.1-100.2c0-6.4,0.1-12.9-0.2-19.3c-0.4-10.1-0.1-20.2-0.2-30.3c0-1,0.2-2,0.5-3
			c0.2-0.8,0.7-1,1.5-0.6c1.2,0.5,1.4,1.6,1.5,2.7C139.5,261.1,139.9,262.7,139.7,264.4z"/>
		<path class="st5" d="M366.5,270.5c-0.4,7.8,0,15.7-0.3,23.5c-0.3,9.1,0.1,18.3-0.2,27.4c-0.4,10,0.1,20-0.3,30
			c-0.1,3.8,0.1,7.6-0.2,11.4c-0.4,5.7,0.1,11.5-0.2,17.2c-0.3,6.2,0,12.4-0.3,18.6c-0.2,3.3,0,6.5-0.4,9.8c-0.1,1-0.4,2-1.2,2.7
			c-0.3,0.3-0.6,1.1-1.3,0.7c-0.7-0.4-1.4-0.8-1.3-1.8c0.3-3.3,0.1-6.7,0.4-10c0.2-2,0.2-4.1,0.2-6.1c0.4-10.8,0.1-21.7,0.3-32.5
			c0.3-10.4,0.2-20.8,0.1-31.2c-0.1-6.8-0.3-13.7-0.1-20.5c0.3-8.9-0.1-17.8,0.2-26.7c0.2-6.1,0.1-12.2,0.2-18.3
			c0-0.9,0.2-1.6,0.8-2.2c1-1.2,2.4-1,3,0.5c0.3,0.9,0.6,1.9,0.6,2.9C366.5,267.4,366.5,269,366.5,270.5z"/>
		<path class="st5" d="M420.3,412.8c-0.6-0.4-0.8-0.9-0.8-1.6c0-0.3,0-0.6,0-0.8c0.2-9.1,0-18.1-0.3-27.2
			c-0.2-7.9-0.1-15.9-0.2-23.8c-0.1-6-0.1-12-0.3-18c-0.3-10.1,0.1-20.1-0.2-30.2c-0.2-6.7,0.1-13.3-0.2-20
			c-0.4-8.6,0-17.3-0.2-25.9c0-1.5,0.9-2.8,0.8-4.3c0-0.5,0.7-0.6,1.2-0.8c0.5-0.2,0.7,0.2,0.9,0.5c0.9,1.2,1.3,2.5,1.3,3.9
			c0,4.5,0.1,9,0,13.4c-0.5,20.6-0.1,41.2-0.2,61.7c0,2.6,0.2,5.3,0.2,7.9c-0.3,9.7,0,19.5-0.3,29.2c-0.3,10.8,0,21.6-0.2,32.4
			C421.9,410.8,421.4,411.8,420.3,412.8z"/>
		<path class="st5" d="M191.1,359.8c0-15.3,0.1-30.6,0-45.9c0-3.6-0.1-7.3-0.2-10.9c-0.1-1.7-0.2-3.4-0.2-5.1
			c0.1-2.5,0.1-4.9,0.4-7.4c0.1-0.8,0.1-1.7-0.1-2.6c-0.3-1.1-0.4-2.3-0.4-3.5c-0.1-5.7,0.4-11.3,0.3-17c0-1.6,0.3-3.2,0.7-4.8
			c0.3-1,1-1.8,2.1-1.9c0.8-0.1,2,1.1,2.3,2.3c0.2,0.6,0.3,1.3,0.3,2c0,9.9,0.2,19.8-0.1,29.8c-0.4,20.4,0,40.8-0.3,61.1
			c0,3.7,0,7.3-0.2,11c-0.5,11.3,0,22.5-0.3,33.8c-0.1,3-0.1,6-0.2,9c0,0.9-0.3,1.8-0.6,2.7c-0.2,0.5-0.5,1-1.2,1
			c-0.7,0-1.3-0.3-1.4-1c-0.4-2-1.1-3.9-1.1-5.9C191,390.8,191.1,375.3,191.1,359.8z"/>
		<path class="st5" d="M80.1,412.4c-0.7-0.8-0.9-1.6-0.9-2.5c0-12.6,0.2-25.1-0.1-37.7c-0.1-6.9,0-13.7-0.2-20.6
			c-0.5-21.1-0.1-42.2-0.2-63.3c-0.1-9.2,0-18.3,0-27.5c0-0.8,0.1-1.6,0.5-2.3c0.3-0.5,0.7-0.9,1.3-0.8c0.6,0.1,0.8,0.6,0.9,1.1
			c0.3,1,0.2,2.1,0.3,3.2c0.1,1.9,0.3,3.8,0.3,5.7c0,19.4-0.2,38.7,0,58.1c0.3,21.2-0.1,42.4,0.2,63.7c0.1,5.3,0.1,10.7,0.2,16
			c0,1.9-0.1,3.7-1.1,5.4C81,411.4,80.5,411.8,80.1,412.4z"/>
		<path class="st5" d="M307.9,330.4c0.8,1.4,1.2,2.7,1.2,4.3c-0.1,3,0,6.1,0,9.1c0,3.4-0.2,6.7-0.3,10c-0.1,4.6-0.3,9.2-0.5,13.7
			c-0.1,2.7,0,5.4-0.2,8.1c-0.3,4.2-0.3,8.4-0.5,12.5c-0.3,5.8-0.5,11.5-0.4,17.3c0,1.7-0.3,3.3-0.5,5c-0.1,0.6-0.4,1.2-0.7,1.8
			c-0.2,0.5-0.7,0.4-1.2,0.4c-0.5,0-0.5-0.4-0.7-0.7c-0.1-0.1,0-0.3,0-0.5c0-4.3-0.5-8.7-0.2-13c0.3-4.2-0.1-8.5,0.2-12.7
			c0.3-4.6-0.1-9.1,0.2-13.6c0.2-3.4,0-6.9,0.2-10.3c0.2-3.5,0.2-7,0.5-10.5c0.4-5.7,0.1-11.4,0.2-17.1
			C305.3,332.2,306,331.2,307.9,330.4z"/>
		<path class="st5" d="M250.7,336.1c0.8,1.4,1.3,2.9,1.5,4.4c0.4,2.6,0.4,5.3,0.3,7.9c-0.4,7.6-0.1,15.2-0.3,22.7
			c-0.2,6,0,12.1-0.2,18.1c-0.2,5.5-0.2,11.1-0.2,16.6c0,1.5,0.4,3,0.3,4.5c0,0.7,0,1.4-0.9,1.5c-0.8,0.1-1.5-0.2-1.8-1.1
			c-0.1-0.3-0.2-0.7-0.2-1c-0.1-3.4-0.3-6.8-0.2-10.2c0.5-14-0.1-28,0.3-41.9c0.2-6.3,0-12.7,0.2-19
			C249.4,337.4,249.7,336.7,250.7,336.1z"/>
		<path class="st5" d="M272.5,56c2.1,0.1,4.2-0.2,6.3,0.2c0.8,0.1,1.4,0.5,1.4,1.3c0.1,0.9-0.3,1.6-1.2,1.9c-0.6,0.2-1.3,0.4-2,0.4
			c-2.3,0.1-4.6,0.1-6.9,0.3c-4.2,0.4-8.4,0.3-12.6,0.9c-2.2,0.3-4.5,0.1-6.7,0.1c-1.8,0-3.6,0.4-5.5,0c-0.9-0.2-1.7-0.6-1.7-1.5
			c0-1,0.2-2,1.5-2.3c1.2-0.4,2.4-0.3,3.6-0.4c3.3-0.3,6.6-0.4,9.9-0.5c4.6-0.1,9.3,0,13.9,0C272.5,56.2,272.5,56.1,272.5,56z"/>
		<path class="st5" d="M262.7,144.6c-4.2-0.4-8.7-0.2-13.2-0.3c-0.7,0-1.4-0.1-2-0.2c-0.9-0.1-1.5-0.6-1.6-1.5
			c-0.1-1,0.8-2.1,1.6-2.1c2.6,0.2,5.2-0.5,7.8-0.1c0.7,0.1,1.4-0.1,2.1-0.1c6.1-0.3,12.2-0.2,18.3-0.2c1.2,0,2.3-0.4,3.4-0.1
			c1.1,0.3,1.4,0.9,1,2c-0.6,1.6-1,1.9-2.7,1.9C272.6,144.1,267.8,144.3,262.7,144.6z"/>
		<path class="st5" d="M318.2,88c0-2.2,0.6-2.7,3.2-2.8c2.4,0,3.4,1.7,3.5,3.2c0.1,2.1-1.3,3.5-3.3,3.5
			C319.3,92,318.2,90.7,318.2,88z"/>
		<path class="st5" d="M318.5,117.3c0.2-2.3,1-3.7,3.6-2.8c1.2,0.4,2.4,0.7,2.6,2.2c0.2,1.1,0.2,2.2-0.8,2.9
			c-1.1,0.8-2.5,0.9-3.7,0.3C319,119.4,318.4,118.4,318.5,117.3z"/>
		<path class="st5" d="M207.4,116.9c0,2.3-1,3.4-3.2,3.4c-1.8,0-2.8-0.8-2.8-2.4c0-1.9,1.1-3.3,2.8-3.4c0.3,0,0.6,0,1,0
			C206.8,114.6,207.4,115.2,207.4,116.9z"/>
		<path class="st5" d="M201.1,89.2c0.1-1,0.1-2.3,1.2-2.6c1.3-0.5,2.8-0.6,4,0.6c0.8,0.8,1,2,0.5,3.2c-0.2,0.5-0.5,0.8-1,1
			c-1.4,0.6-2.7,0.3-4-0.4C201.2,90.6,201.1,89.9,201.1,89.2z"/>
		<path class="st4" d="M273.3,270.3c-0.8,0.1-1.2-0.3-1.3-1.1c-0.1-1,0.8-1.7,2-1.7c0.8,0,1.4,0.3,1.5,1.2
			C275.5,269.4,274.4,270.3,273.3,270.3z"/>
	</g>
</g>
</svg>
