<?xml version="1.0" encoding="utf-8"?>
<!-- Generator: Adobe Illustrator 23.0.1, SVG Export Plug-In . SVG Version: 6.00 Build 0)  -->
<svg version="1.1" id="Layer_1" xmlns="http://www.w3.org/2000/svg" xmlns:xlink="http://www.w3.org/1999/xlink" x="0px" y="0px"
	 viewBox="0 0 334.9 46" style="enable-background:new 0 0 334.9 46;" xml:space="preserve">
<style type="text/css">
	.st0{fill:#1399AA;}
	.st1{fill:#29394B;}
	.st2{fill:#FFFFFF;}
	.st3{font-family:'RobotoCondensed-Bold';}
	.st4{font-size:22px;}
</style>
<g id="Layer_1_1_">
	<polygon class="st0" points="18.3,0 0.3,0 24.3,23 0.3,46.3 18.3,46.3 41.3,23 	"/>
	<rect x="40.3" y="-0.9" class="st1" width="258" height="47.2"/>
	<polygon class="st1" points="41.3,-0.2 41.4,23.9 17.2,-0.2 	"/>
	<polygon class="st1" points="42.1,46.2 42.1,21.4 17.2,46.3 	"/>
	<polygon class="st1" points="334.9,23 298.3,46 298.3,0 	"/>
	<path class="st1" d="M295.8,1.6c0.5,11.2-1.8,22.3-0.8,33.5c0,0.8,0.7,1.5,1.5,1.5c0.5,0,1-0.3,1.3-0.7c3-5.2,1.4-11.6,2.4-17.2
		c0.3-1.9-2.6-2.7-2.9-0.8c-0.8,5.2,0.6,11.9-2,16.5l2.8,0.8c-0.9-11.2,1.4-22.3,0.8-33.5C298.7-0.3,295.7-0.4,295.8,1.6z"/>
	<path class="st1" d="M299.1,44.1V33.4c0-0.8-0.7-1.5-1.5-1.5s-1.5,0.7-1.5,1.5v10.7c0,0.8,0.7,1.5,1.5,1.5S299.1,44.9,299.1,44.1z"
		/>
	<path class="st1" d="M297.5,2.8c0.8,0,1.5-0.7,1.5-1.5s-0.7-1.5-1.5-1.5S296,0.5,296,1.3S296.7,2.8,297.5,2.8z"/>
	<path class="st1" d="M297.4,46.2c0.8,0,1.5-0.7,1.5-1.5s-0.7-1.5-1.5-1.5s-1.5,0.7-1.5,1.5S296.5,46.2,297.4,46.2z"/>
</g>
<text transform="matrix(1 0 0 1 50.6263 29.4239)" class="st2 st3 st4">THE PROBLEM</text>
</svg>
