<?xml version="1.0" encoding="utf-8"?>
<!-- Generator: Adobe Illustrator 22.1.0, SVG Export Plug-In . SVG Version: 6.00 Build 0)  -->
<svg version="1.1" xmlns="http://www.w3.org/2000/svg" xmlns:xlink="http://www.w3.org/1999/xlink" x="0px" y="0px"
	 viewBox="0 0 377 69" style="enable-background:new 0 0 377 69;" xml:space="preserve">
<style type="text/css">
	.st0{display:none;}
	.st1{display:inline;fill:#22252C;stroke:#FFFFFF;stroke-miterlimit:10;}
	.st2{fill:#FFFFFF;}
	.st3{fill:#22252C;}
	.st4{fill:#0099AB;}
	.st5{fill:#1399AA;}
	.st6{fill:#E14658;}
	.st7{font-family:'AppleCasual';}
	.st8{font-size:14px;}
</style>
<g id="Layer_5" class="st0">
	<rect x="4.5" y="4.5" class="st1" width="367" height="62"/>
</g>
<g id="Layer_4">
	<g>
		<g>
			<path class="st2" d="M35.7,32.7c-0.3,1.2-0.7,2.5-1.1,3.7c-0.2,0.6,0.8,0.9,1,0.3c0.4-1.2,0.7-2.4,1.1-3.7
				C36.8,32.3,35.9,32,35.7,32.7L35.7,32.7z"/>
		</g>
	</g>
	<g>
		<g>
			<path class="st2" d="M23.6,38.6c-0.1-2.6,0.1-4.8,1.5-7.1c0.9-1.7,1.9-3.2,2.5-5c0.6-1.8-2.3-2.6-2.9-0.8
				c-0.8,2.2-2.3,4.1-3.2,6.3c-0.9,2.2-1,4.3-0.9,6.6C20.7,40.5,23.7,40.6,23.6,38.6L23.6,38.6z"/>
		</g>
	</g>
	<g>
		<g>
			<path class="st2" d="M26,40.1c-0.2-3.6,0.9-6.8,3.5-9.4c-1.4-0.8-2.8-1.6-4.2-2.4c-0.7,4.8-2.2,9.3-2.7,14.1
				c-0.1,1.4,1.3,2.4,2.5,2.5c2.5,0.1,3.6-2.2,4.8-4.1c1.4-2.4,2.6-5,3.6-7.6c1.1-3-3.7-4.3-4.8-1.3c-1.1,2.8-2.5,6.7-4.8,8.8
				c0.6-0.2,1.2-0.5,1.8-0.7c-0.2,0-0.4,0-0.5,0c0.8,0.8,1.7,1.7,2.5,2.5c0.4-4.3,1.9-8.5,2.5-12.8c0.3-2.3-2.3-4.4-4.2-2.4
				c-3.4,3.5-5.2,8-4.9,12.9C21.1,43.3,26.1,43.3,26,40.1L26,40.1z"/>
		</g>
	</g>
	<g>
		<g>
			<path class="st2" d="M28,24.4c0.9,0.3,1.2,0.3,0.6,0c-0.2-0.1-0.3-0.3-0.5-0.4c-0.4-0.2-0.8-0.3-1.2-0.3
				c-0.9-0.1-1.8,0.2-2.5,0.9c1.4,0.6,2.8,1.2,4.3,1.8c0-0.2,0-0.4,0-0.7c-0.1-1.2-0.9-2.3-2.2-2.5c-1.2-0.1-2.5,0.6-2.7,1.8
				c-0.2,1-0.9,1.9-1.4,2.8c-0.7,1.2-1.1,2.4-1.2,3.8c-0.2,3.2,4.8,3.2,5,0c0-0.7,0.6-1.5,1.1-2.1c0.6-1,1.2-2,1.4-3.1
				c-1.6-0.2-3.3-0.4-4.9-0.7c0,0.2,0,0.4,0,0.7c0.1,2,2.8,3.6,4.3,1.8c0-0.1,0.1-0.1,0.1-0.2c-0.4,0.2-0.7,0.4-1.1,0.6
				c0.1,0,0.1,0,0.2-0.1c-0.4,0-0.9,0-1.3,0c-0.1-0.1-0.2-0.1-0.3-0.2c0.2,0.1,0.3,0.3,0.5,0.4c0.3,0.2,0.7,0.4,1,0.5
				c0.7,0.2,1.4,0.1,2.1,0c1.3-0.2,2.1-1.9,1.7-3.1C30.7,24.7,29.3,24.2,28,24.4L28,24.4z"/>
		</g>
	</g>
	<g>
		<g>
			<path class="st2" d="M33.9,40.2c1.7-2.3,6.5-8.3,1.5-9.9c-3.1-1-4.4,3.8-1.3,4.8c-1.2-0.6-1.7-1.4-1.4-2.3c0,0.1-0.1,0.2-0.1,0.3
				c-0.1,0.2-0.1,0.2,0,0c-0.1,0.1-0.1,0.3-0.2,0.4c-0.3,0.6-0.6,1.1-1,1.6c-0.6,0.9-1.2,1.7-1.8,2.6c-0.8,1.1-0.2,2.8,0.9,3.4
				C31.8,41.8,33.1,41.3,33.9,40.2L33.9,40.2z"/>
		</g>
	</g>
	<g>
		<g>
			<path class="st2" d="M30.3,39.5C29.8,39.8,30.7,39.4,30.3,39.5c-0.3,0.1-0.4,0.1-0.6,0.2c-0.2,0-0.3,0.1-0.5,0.1
				c-0.7,0.1,0.4,0-0.1,0c-1.3,0.1-2.6,1.1-2.5,2.5c0.1,1.4,1.1,2.4,2.5,2.5c0.1,0,0.3,0,0.4,0c-0.3,0-0.6,0-0.9-0.2
				c-0.1-0.1-0.5-0.5-0.3-0.2c0.1,0.1,0.2,0.2,0.3,0.3c0.8-1.4,1.6-2.8,2.4-4.2c-0.1,0-0.2,0-0.3-0.1c0.4,0.2,0.4,0.2,0.2,0.1
				c-0.2-0.1-0.4-0.2-0.5-0.4c0.2,1.3,0.3,2.6,0.5,3.9c0.6-0.6,1.1-1.3,1.6-1.9c0.4-0.5,0.7-1.1,0.7-1.8c0-0.6-0.3-1.3-0.7-1.8
				c-0.9-0.8-2.7-1.1-3.5,0c-0.5,0.7-1.1,1.3-1.6,1.9c-1.1,1.3-0.9,3,0.5,3.9c0.6,0.4,1.2,0.7,1.9,0.9c1.1,0.2,2.3-0.1,2.8-1.1
				c0.5-1,0.4-2.2-0.4-3c-0.3-0.3-0.6-0.7-1.1-0.9c-0.6-0.3-1.3-0.4-2-0.4c0,1.7,0,3.3,0,5c1.4-0.1,2.6-0.5,3.8-1
				c1.2-0.5,1.6-2.4,0.9-3.4C32.9,39.2,31.5,38.9,30.3,39.5L30.3,39.5z"/>
		</g>
	</g>
	<g>
		<g>
			<path class="st2" d="M36.9,31.9c-0.6-0.2-1.1-0.5-1.7-0.7c0,0.1,0.1,0.3,0.1,0.4c0,0.1,0,0.5,0.1,0.7c0,0.7-0.1,1.2-0.4,1.9
				c-0.7,2.1-2.2,3.8-4,5c-2.7,1.7-0.2,6.1,2.5,4.3c3.7-2.3,6.9-6.6,6.8-11.1c-0.1-4.3-3.3-6.8-7-3.9C30.9,30.3,34.4,33.8,36.9,31.9
				L36.9,31.9z"/>
		</g>
	</g>
	<g>
		<g>
			<path class="st2" d="M30.2,38.9c-1,0.2-2,0.4-2.9,0.9c-1.7,1-2.3,3-1.3,4.7c0.6,1.1,2.3,1.6,3.4,0.9c1.2-0.7,1.6-2.2,0.9-3.4
				c-0.1-0.2-0.1-0.1,0.1,0.3c0.1,0.3,0.1,0.7,0,1c-0.2,0.5-0.3,0.6-0.2,0.4c-0.3,0.4-0.4,0.5-0.2,0.3c-0.5,0.5-0.3,0.3-0.1,0.1
				c0.3-0.2-0.7,0.2-0.1,0c0.6-0.2,1.1-0.3,1.7-0.4c1.3-0.3,2.1-1.8,1.7-3.1C32.9,39.3,31.6,38.6,30.2,38.9L30.2,38.9z"/>
		</g>
	</g>
	<g>
		<g>
			<path class="st2" d="M39.5,34.2c3.2,0,3.2-5,0-5C36.2,29.2,36.2,34.2,39.5,34.2L39.5,34.2z"/>
		</g>
	</g>
	<g>
		<g>
			<path class="st2" d="M52.7,36.8c0,4.7,0,9.5,0,14.2c0,3.2,5,3.2,5,0c0-4.7,0-9.5,0-14.2C57.7,33.6,52.7,33.6,52.7,36.8L52.7,36.8
				z"/>
		</g>
	</g>
	<g>
		<g>
			<path class="st2" d="M56.5,48.9c-1.5-1.9-1.2-4.5-1.3-6.8c-0.1-3.2-5.1-3.2-5,0c0.1,1.9,0,4,0.4,5.9c0.4,1.7,1.3,3.1,2.4,4.4
				c0.8,1.1,2.7,0.9,3.5,0C57.5,51.4,57.3,50,56.5,48.9L56.5,48.9z"/>
		</g>
	</g>
	<g>
		<g>
			<path class="st2" d="M54,47.2c0-2.1-0.7-5.6,0.5-7.4c1.1-1.8,1.6-2.9,0.4-4.8c0.1,0.6,0.2,1.3,0.3,1.9c0-0.1,0-0.1,0.1-0.2
				c0.8-3.1-4-4.4-4.8-1.3c-0.4,1.3,0.1,2.3,1,3.2c-0.2-0.8-0.4-1.6-0.6-2.4c-0.1,0.7-0.8,1.3-1.1,1.9c-0.4,0.8-0.6,1.7-0.7,2.6
				c-0.2,2.1,0,4.4,0,6.5C49,50.4,54,50.4,54,47.2L54,47.2z"/>
		</g>
	</g>
	<g>
		<g>
			<path class="st2" d="M66,36.5c-1.9,1-3,2.9-4.4,4.5c-1.4,1.6-3,3.2-4.6,4.6c-2.4,2.1,1.1,5.6,3.5,3.5c1.5-1.3,2.9-2.7,4.3-4.1
				c1.1-1.3,2.2-3.4,3.7-4.2C71.4,39.4,68.9,35.1,66,36.5L66,36.5z"/>
		</g>
	</g>
	<g>
		<g>
			<path class="st2" d="M56.5,43.7c0.6,0.1,1.1,0.2,1.7,0.3c0.2,0,0.5,0.1,0.7,0.2c0,0,0.9,0.3,0.6,0.1c-0.4-0.5-0.8-1-1.1-1.5
				c0,0.1,0,0.1,0.1,0.2c0.1-0.6,0.2-1.3,0.3-1.9c0.2-0.3,0.5-0.4,0-0.2c-0.2,0.1-0.4,0.3-0.6,0.4c-0.5,0.4-1,0.7-1.5,1.1
				c-0.8,0.6-1.5,1.2-2.2,1.9c-2.3,2.2,1.2,5.8,3.5,3.5c0.7-0.7,1.4-1.3,2.2-1.9c1-0.7,2.2-1.2,2.8-2.3c0.9-1.6-0.1-3.4-1.7-3.9
				c-1.1-0.4-2.3-0.6-3.4-0.7c-1.3-0.2-2.7,0.3-3.1,1.7C54.4,41.8,55.1,43.5,56.5,43.7L56.5,43.7z"/>
		</g>
	</g>
	<g>
		<g>
			<path class="st2" d="M65.4,40.6c0.2,0,0.4,0,0.6,0c0.1,0,0.2,0,0.4,0c-0.3,0-0.4-0.1-0.2,0c0.4,0.1,0.8,0.2,1.2,0.3
				c1.3,0.4,2.8-0.5,3.1-1.7c0.3-1.4-0.4-2.7-1.7-3.1c-1-0.3-2.1-0.5-3.2-0.5c-1.3,0-2.6,1.2-2.5,2.5C63,39.5,64,40.6,65.4,40.6
				L65.4,40.6z"/>
		</g>
	</g>
	<g>
		<g>
			<path class="st2" d="M65.4,39.3c-2.1,3.7-4.1,8.4-8.9,9c-1.3,0.2-2.1,1.9-1.7,3.1c0.4,1.4,1.7,1.9,3.1,1.7
				c6.1-0.9,9.1-6.5,11.8-11.3C71.3,39,67,36.5,65.4,39.3L65.4,39.3z"/>
		</g>
	</g>
	<g>
		<g>
			<path class="st2" d="M78,40.6c0,7.1-0.6,16,8.7,16.8c4,0.4,6.7-0.9,9.2-4.1c2.4-3,3.6-6.5,3.5-10.4c-0.1-3.2-5.1-3.2-5,0
				c0.1,4.4-2.6,10.2-7.7,9.5c-5.1-0.7-3.7-8.1-3.7-11.8C83,37.4,78,37.4,78,40.6L78,40.6z"/>
		</g>
	</g>
	<g>
		<g>
			<path class="st2" d="M96.7,40.4c-2.3,0.1-4.6,0.1-6.9-0.1c-1.3-0.1-2.6-0.2-3.9-0.4c-0.4-0.1-2.4-0.6-2.2-0.2
				c-0.9,1.2-1.9,2.4-2.8,3.7c0.9,0.2,1.8,0.3,2.7,0.5c3.1,0.6,4.5-4.3,1.3-4.8c-0.9-0.2-1.8-0.3-2.7-0.5c-2.1-0.4-3.9,1.7-2.8,3.7
				c1.3,2.4,4.2,2.4,6.6,2.7c3.5,0.5,7,0.6,10.6,0.4C99.9,45.3,99.9,40.3,96.7,40.4L96.7,40.4z"/>
		</g>
	</g>
	<g>
		<g>
			<path class="st2" d="M82.1,41.5c0,1.9-0.2,4,0.1,5.9c0.3,2.1,2.3,3.1,3.9,4.2c2.6,1.8,5.1-2.5,2.5-4.3c-0.7-0.5-1.5-0.9-2-1.6
				c0.2,0.4,0.4,0.7,0.6,1.1c-0.2-0.7,0-1.7,0-2.5c0-1,0-1.9,0-2.9C87.1,38.3,82.1,38.3,82.1,41.5L82.1,41.5z"/>
		</g>
	</g>
	<g>
		<g>
			<path class="st2" d="M83.4,52.4c2.4-0.1,4.4,0.2,6.5-1.2c1.8-1.2,3.3-2.8,4.5-4.6c1.2-1.6-0.5-3.7-2.2-3.8
				c-1.8-0.1-3.5-0.1-5.2,0c-2,0-2.9,2.1-2.2,3.8c0.4,0.9,1.1,1.1,1.2,2c0.1,1.3,0.1,2.6,0.2,3.9c0.1,2.5,3.3,3.3,4.7,1.3
				c0.7-1,1.5-1.6,2.6-2.2c2.9-1.4,0.4-5.7-2.5-4.3c-1.9,0.9-3.3,2.3-4.4,4c1.6,0.4,3.1,0.8,4.7,1.3c-0.1-1.7,0-3.4-0.3-5
				c-0.1-0.7-0.3-1.4-0.6-2.1c-0.3-0.5-0.9-0.9-1.1-1.4c-0.7,1.3-1.4,2.5-2.2,3.8c1.8,0,3.5,0,5.2,0c-0.7-1.3-1.4-2.5-2.2-3.8
				c-0.8,1-1.7,2.1-2.8,2.8c-1.2,0.8-2.6,0.5-4,0.6C80.2,47.6,80.2,52.6,83.4,52.4L83.4,52.4z"/>
		</g>
	</g>
	<g>
		<g>
			<path class="st2" d="M108.2,44.1c-0.1,1.4,0.1,2.7,0.5,4c0.4,1,1.2,2.7,1,3.8c0.6-0.6,1.2-1.2,1.7-1.7c-0.1,0-0.1,0-0.2,0
				c0.8,0.2,1.6,0.4,2.4,0.6c0,0-0.1-0.1-0.1-0.1c-2.1-2.4-5.7,1.1-3.5,3.5c0,0,0.1,0.1,0.1,0.1c0.6,0.7,1.6,0.9,2.4,0.6
				c0.1,0,0.1,0,0.2,0c0.8-0.2,1.6-0.9,1.7-1.7c0.3-1.6,0-3.5-0.5-5c-0.4-1.5-1-2.6-0.9-4.2C113.5,40.9,108.5,40.9,108.2,44.1
				L108.2,44.1z"/>
		</g>
	</g>
	<g>
		<g>
			<path class="st2" d="M108.2,47c-0.3,5.8,3.5,14,10.4,13.1c2.9-0.3,4.8-2.4,6.4-4.7c0.9-1.2,1.8-2.5,2.3-4
				c0.7-1.9,0.3-3.7,0.6-5.6c0.5-3.1-4.3-4.5-4.8-1.3c-0.3,2,0.1,4-0.7,5.8c-0.6,1.3-1.7,3-2.8,3.9c-4.1,3.8-6.5-4.6-6.3-7.3
				C113.4,43.8,108.4,43.8,108.2,47L108.2,47z"/>
		</g>
	</g>
	<g>
		<g>
			<path class="st2" d="M125.4,42.6c-3.7,0.1-7.4,0.2-11.1,0.4c-1.5,0-3,1.6-2.4,3.2c0.7,2.1,1.2,4.2,1.4,6.4c0.2,1.9,0.8,3.5,2.8,4
				c3.3,0.8,7.4-1.1,8.5-4.3c1.2-3.3,0.3-7.3-3.8-6.8c-1.6,0.2-3.7,0.7-4.5,2.2c-0.4,0.9-0.4,1.7,0,2.6c0.3,0.7,1.3,1,1.5,1.6
				c1.2,2.9,6.1,1.6,4.8-1.3c-0.6-1.5-1.4-2.4-2.8-3.3c0.4,0.5,0.8,1,1.1,1.5c-0.1-0.1-0.1-0.2-0.2-0.4c-0.1,0.6-0.2,1.3-0.3,1.9
				c-0.6,1,0.3,0,1,0.2c-0.5-0.4-1-0.8-1.5-1.1c-0.2-0.3-0.1,0.7-0.1,0.8c-0.1,0.5-0.2,0.8-0.6,1.1c-0.4,0.3-0.9,0.3-1.3,0.5
				c-0.2,0-0.4,0.1-0.6,0c-0.7,0-0.4,0.1,0.7,0.5c0.3-0.2-0.4-2.9-0.5-3.3c-0.3-1.4-0.6-2.7-1.1-4c-0.8,1.1-1.6,2.1-2.4,3.2
				c3.7-0.1,7.4-0.2,11.1-0.4C128.6,47.4,128.6,42.4,125.4,42.6L125.4,42.6z"/>
		</g>
	</g>
	<g>
		<g>
			<path class="st2" d="M136.6,45c-0.1,5.1-1.6,10.8,2.8,14.5c4.3,3.5,8.7,0.6,11.9-2.8c2.2-2.3,6.9-8.5,4.5-11.7
				c-1.1-1.5-3.1-1.7-4.8-0.9c-1,0.5-1.7,1.4-2.5,2.2c-0.4,0.4-0.7,0.9-1.3,1.2c-0.1,0.1-2.6,0.9-2.3,0.1c0.4-1.5-0.7-3.3-2.4-3.2
				c0.1,0,0.3,0.1,0.4,0.1c0.4,0.5,0.8,1,1.1,1.5c0-0.1-0.1-0.3-0.1-0.4c-0.9-2.6-4.8-2.2-4.9,0.7c-0.1,2.8-1.3,7.7,0.5,10.1
				c1.6,2.1,4.8,2.7,7,1.3c5.3-3.4-0.9-9.7-4.8-5.7c-0.7,0.7-1,2.1-0.4,3c0.7,1,1.3,1.5,2.5,1.8c0.6,0.1,1.1,0.1,1.7,0.1
				c0.7,0,2,0.3,1.9-0.3c0.1-0.6,0.2-1.3,0.3-1.9c-0.4,0.6-1.7,1.1-2.3,1.5c-2.7,1.7-0.2,6,2.5,4.3c2.1-1.3,5.4-2.9,4.2-6
				c-1.3-3.4-4.9-2.1-7.6-2.7c0.5,0.4,1,0.8,1.5,1.1c-0.1-0.2-0.2-0.3-0.3-0.5c-0.1,1-0.3,2-0.4,3c0.1-0.1,0.3-0.3,0.4-0.4
				c-0.6,0.2-1.2,0.5-1.8,0.7c1.1,0.2,1.3,0.1,0.5-0.3c-0.2-0.6-0.5-1.2-0.7-1.8c-0.2-0.3-0.4-0.7-0.6-1c0.2,0.6,0.5,1.2,0.7,1.8
				c-0.3-2.7,0.1-5.6,0.2-8.3c-1.6,0.2-3.3,0.4-4.9,0.7c0.5,1.5,1.6,2.6,3.4,2.5c-0.8-1.1-1.6-2.1-2.4-3.2c-0.9,3.4,1.5,6.2,4.9,6.6
				c1.5,0.2,3.1-0.1,4.5-0.8c0.5-0.3,3.5-3.4,3.5-3.4c-0.5-0.4-1-0.8-1.5-1.1c0.1,0.2-2.1,3.8-2.6,4.4c-1,1.3-2.6,3.2-4.1,3.9
				c-4.8,2.1-3.2-8.2-3.1-10.6C141.7,41.8,136.7,41.8,136.6,45L136.6,45z"/>
		</g>
	</g>
	<g>
		<g>
			<path class="st2" d="M166.7,49.1c4.2-0.2,8.1,0.2,12.2,0.6c2.5,0.2,5.2,0.3,6.2-2.3c1.1-3-3.7-4.3-4.8-1.3c0,0.1-0.1,0.2-0.1,0.3
				c0.4-0.5,0.8-1,1.1-1.5c-1.5,0.6-4.8-0.5-6.4-0.7c-2.7-0.3-5.5-0.3-8.2-0.1C163.5,44.3,163.5,49.3,166.7,49.1L166.7,49.1z"/>
		</g>
	</g>
	<g>
		<g>
			<path class="st2" d="M165,48.9c0.2,6.7,2.2,14.5,10.2,14.6c7.1,0.1,9.4-7.2,10.3-13c0.5-3.1-4.4-4.5-4.8-1.3
				c-0.4,3-0.9,8.3-4.4,9.3c-5.3,1.4-6.1-5.9-6.2-9.5C169.9,45.7,164.9,45.6,165,48.9L165,48.9z"/>
		</g>
	</g>
	<g>
		<g>
			<path class="st2" d="M182.8,47.6c-4.7,0.2-9.4,0.1-14-0.2c-2.9-0.2-3.2,4.1-0.7,4.9c4.1,1.4,8.2,2.7,12.3,3.8
				c0.2-1.6,0.4-3.3,0.7-4.9c-2.4,0.1-4.6-0.1-6.9-0.6c-1.5-0.3-2.6-0.5-3.9,0.3c-1.6,1-1.6,3.3,0,4.3c1,0.6,2.1,1.2,3.2,1.6
				c0.4,0.1,2.5,0.6,2.5,0.7c0.7-1.3,1.4-2.5,2.2-3.8c-2.2,0.3-4.1,0.2-6.2-0.4c-3.1-0.9-4.4,4-1.3,4.8c2.5,0.7,5,0.9,7.5,0.6
				c1.6-0.2,3.5-2.1,2.2-3.8c-1.9-2.5-5-2.6-7.6-4.1c0,1.4,0,2.9,0,4.3c-0.8,0.5,0.4,0.3,1.1,0.4c0.7,0.1,1.4,0.3,2.2,0.3
				c1.7,0.2,3.4,0.3,5.1,0.2c2.8-0.1,3.4-4.1,0.7-4.9c-4.1-1.2-8.2-2.5-12.3-3.8c-0.2,1.6-0.4,3.3-0.7,4.9c4.7,0.3,9.4,0.4,14,0.2
				C186.1,52.5,186.1,47.5,182.8,47.6L182.8,47.6z"/>
		</g>
	</g>
	<g>
		<g>
			<path class="st2" d="M196.3,48.4c5.3,1.2,10.5,1.6,15.9,1.2c-0.8-1.1-1.6-2.1-2.4-3.2c-0.1,0.8-0.1,1.6-0.4,2.4
				c0.6-0.6,1.2-1.2,1.7-1.7c-0.1,0-0.2,0.1-0.4,0.1c0.6,0.1,1.3,0.2,1.9,0.3c-5-2.5-10.2-0.6-15.4-2.2c-1.8-0.6-3.6,1.3-3.1,3.1
				c0.8,2.6,1,5.8,4,6.6c3.5,1,7.7,0.6,11.3,0.5c3.2-0.1,3.2-5.1,0-5c-3.4,0.1-7.6,0.6-10.8-0.7c0.5,0.4,1,0.8,1.5,1.1
				c-0.6-1.2-0.8-2.7-1.2-4c-1,1-2.1,2.1-3.1,3.1c2,0.6,4.1,1,6.2,1.1c2.4,0.1,4.7-0.6,7,0.2c1.3,0.4,2.2,1.2,3.6,0.5
				c1.6-0.8,1.6-2.4,1.8-4c0.2-1.5-0.6-3.3-2.4-3.2c-4.9,0.4-9.8,0-14.6-1C194.5,42.9,193.2,47.7,196.3,48.4L196.3,48.4z"/>
		</g>
	</g>
	<g>
		<g>
			<path class="st2" d="M208.9,51.8c0,2-0.6,4.8-3.1,4.9c-0.9,0-1.8-0.4-2.5-0.8c-0.6-0.4-1.2-0.8-1.7-1.2c-0.7-0.8-0.9-0.8-0.5-0.2
				c-1,1-2.1,2.1-3.1,3.1c3,0.5,6,1.1,8.9,1.7c3.1,0.7,4.5-4.1,1.3-4.8c-3-0.6-6-1.2-8.9-1.7c-1.7-0.3-3.8,1.1-3.1,3.1
				c1.3,3.7,7,6.3,10.7,5.8c4.8-0.7,6.9-5.4,7-9.8C213.9,48.6,208.9,48.6,208.9,51.8L208.9,51.8z"/>
		</g>
	</g>
	<g>
		<g>
			<path class="st2" d="M231.5,58.8c-1.4-1.5-1.8-3.5-2-5.5c-0.1-1-0.2-2-0.3-3c0-0.4-0.1-0.7-0.1-1.1c0-1.3-0.1-1.4-0.3-0.4
				c-0.5,0.4-1,0.8-1.5,1.1c1.9-0.5,4.3-0.4,6.3-0.5c2.5-0.2,5-0.2,7.4,0.3c-0.5-1.2-1-2.4-1.5-3.7c-1.6,2.6-2.6,5.3-3,8.3
				c-0.3,2.6,3.1,4.7,4.6,1.9c0.8-1.4,1.5-2.8,2.3-4.3c1.5-2.9-2.5-5.1-4.3-2.5c-1.3,1.9-3,9.4-6.3,8.6c0.5,0.4,1,0.8,1.5,1.1
				c-0.4-1-0.4-2.9-0.6-4c-0.3-1.8-0.5-3.6-0.5-5.4c-1.1,0.8-2.1,1.6-3.2,2.4c2.7,0.8,5.3,0.8,8,0.3c-1-1-2.1-2.1-3.1-3.1
				c-0.7,2-1.5,4-2.4,6c1.4,0,2.9,0,4.3,0c-0.5-0.9-0.7-1.7-0.9-2.7c-0.6-3.2-5.4-1.8-4.8,1.3c0.3,1.4,0.7,2.7,1.4,3.9
				c0.8,1.6,3.6,1.7,4.3,0c1-2.4,2-4.8,2.9-7.2c0.7-2-1.4-3.4-3.1-3.1c-1.9,0.3-3.6,0.2-5.4-0.3c-1.6-0.5-3.1,0.8-3.2,2.4
				c-0.2,3.3,0.6,6.5,1.1,9.7c0.4,2.4,1.2,3.7,3.8,3.5c2.5-0.2,4.8-1.6,6.4-3.5c1.8-2.2,2.2-5.2,3.8-7.5c-1.4-0.8-2.9-1.7-4.3-2.5
				c-0.8,1.4-1.5,2.8-2.3,4.3c1.5,0.6,3,1.3,4.6,1.9c0.4-2.6,1.1-4.9,2.5-7.1c0.8-1.3,0.1-3.3-1.5-3.7c-3.5-0.7-6.9-0.6-10.4-0.4
				c-2.2,0.2-6.3-0.4-7.5,1.8c-1.2,2,0,5.9,0.3,8.1c0.4,3,1.3,5.6,3.4,7.8C230.2,64.7,233.7,61.2,231.5,58.8L231.5,58.8z"/>
		</g>
	</g>
	<g>
		<g>
			<path class="st2" d="M254.7,50c3.2,0,3.2-5,0-5C251.5,45,251.5,50,254.7,50L254.7,50z"/>
		</g>
	</g>
	<g>
		<g>
			<path class="st2" d="M254.5,49.3c5.2,0.4,10.3-0.7,15.5-1.1c3.2-0.3,3.2-5.3,0-5c-5.2,0.4-10.3,1.5-15.5,1.1
				C251.3,44.1,251.3,49.1,254.5,49.3L254.5,49.3z"/>
		</g>
	</g>
	<g>
		<g>
			<path class="st2" d="M267.6,46.4c0.3,2.7,0.3,12.2-3.8,11.8c-3.3-0.3-5.5-7-6.3-9.7c-0.7-2.4-4.1-2.3-4.8,0
				c-1.1,3.2,0.9,8,2.4,10.8c1.7,3.2,4.7,3.3,7.8,2c3.5-1.4,6.7-3.8,8-7.5c1.1-3.2,0.4-7.3-2.8-8.9c-3.5-1.7-6.5-0.3-9,2.2
				c-1.1,1.1-2.7,2.3-2.5,4c0.2,1.4,1.5,2.5,2.7,3.1c2.6,1.4,7.2,1.1,8.3-2.2c1-3.1-2.4-5.4-5.1-4.2c-2.6,1.2-5.1,7.1-3.7,9.7
				c0.8,1.4,2.5,1.9,4,1.4c1.9-0.6,2.6-2.2,2.8-4c0.3-3.2-4.7-3.2-5,0c0.2-0.3,0.5-0.5,0.7-0.8c0.6,0.2,1.2,0.5,1.8,0.7
				c-0.1-0.1-0.2-0.2-0.4-0.3c0.2,0.6,0.5,1.2,0.7,1.8c0-0.8,0.3-1.7,0.6-2.4c0.1-0.3,0.2-0.7,0.4-1c0.5-0.7,0.2-0.9-1-0.5
				c-0.2-0.6-0.5-1.2-0.7-1.8c0,0.2,0,0.5,0,0.7c0.2-0.6,0.5-1.2,0.7-1.8c-0.8,0.6-1.5,0.6-2.1,0c0,0.8,0,1.7,0,2.5
				c0.7-1.3,3.9-4.2,5.1-2.1c1.1,2-1.5,4.6-2.9,5.5c-0.8,0.5-2.1,1.4-3,1.5c-1.1,0.1-0.8,0.1-1.3-1.2c-0.6-1.5-2.1-4.4-1.6-6
				c-1.6,0-3.2,0-4.8,0c1.5,5.2,5.3,14.5,12,13.5c3.5-0.5,5-2.2,6.3-5.4c1.5-3.7,1.9-7.6,1.6-11.6C272.3,43.3,267.3,43.2,267.6,46.4
				L267.6,46.4z"/>
		</g>
	</g>
	<g>
		<g>
			<path class="st2" d="M284.6,48.2c5.3-0.4,10.6-1.1,15.8-2.1c3.2-0.6,1.8-5.4-1.3-4.8c-4.8,0.9-9.6,1.5-14.5,1.9
				C281.4,43.5,281.4,48.5,284.6,48.2L284.6,48.2z"/>
		</g>
	</g>
	<g>
		<g>
			<path class="st2" d="M297.1,43.5c0.1,1.8,0.2,3.7,0,5.5c-0.1,1.4-0.1,5-1.7,5.7c-2.3,1.1-6.6-5.3-7.6-6.9
				c-1.5-2.4-5.4-0.9-4.6,1.9c1.3,4.2,3.7,10.2,9,10.2c6.5,0,3.7-7.8,5.8-11.2c1.3-2-0.8-4-2.8-3.7c-2.7,0.4-5.2,1.3-7.5,2.6
				c-1.3,0.7-1.8,2.9-0.5,3.9c1.3,1.1,2.7,2.1,4,3.1c2.6,1.9,5.1-2.5,2.5-4.3c-1-0.7-2-1.5-3-2.3c-0.2,1.3-0.3,2.6-0.5,3.9
				c2-1.1,4-1.8,6.3-2.1c-0.9-1.2-1.9-2.4-2.8-3.7c-0.7,1.1-1.2,2.3-1.4,3.6c-0.2,1.2,0.1,2.9-0.3,4c-0.2,0.6,0.1,0.9-0.8,0.7
				c-0.5-0.1-1.2-1.3-1.5-1.8c-0.8-1.3-1.3-2.9-1.7-4.4c-1.5,0.6-3,1.3-4.6,1.9c2.5,4,7.6,11,13.1,9.2c6.1-2,5.8-11,5.4-16.1
				C301.8,40.3,296.8,40.3,297.1,43.5L297.1,43.5z"/>
		</g>
	</g>
	<g>
		<g>
			<path class="st2" d="M322.5,49.6c-2.8-0.5-4.9-2.1-5.9-4.8c-0.9-2.3-0.4-5.1-2.6-6.5c-0.7-0.5-1.8-0.4-2.5,0
				c-3,1.8-0.8,5.8-0.1,8.3c0.9,3.1,5.7,1.8,4.8-1.3c-0.2-0.8-0.4-1.5-0.7-2.3c-0.1-0.4-0.7-1.6-0.6-1.7c-0.4,0.5-0.8,1-1.1,1.5
				c0.1-0.1,0.2-0.1,0.3-0.2c-0.8,0-1.7,0-2.5,0c0.1,0.1,0.2,0.1,0.3,0.2c-0.4-0.5-0.8-1-1.1-1.5c0.9,3,1,5.9,3.1,8.5
				c1.8,2.4,4.5,4,7.4,4.5C324.3,55,325.6,50.1,322.5,49.6L322.5,49.6z"/>
		</g>
	</g>
	<g>
		<g>
			<path class="st2" d="M314.1,42.8c4.3,0.4,8.3-1.4,12.2-3c-1-1-2.1-2.1-3.1-3.1c-0.5,2.2-0.8,4.4-1.1,6.6c-0.2,1.9,0,4.3-1.1,5.9
				c-1.9,2.6,2.4,5.1,4.3,2.5c1.2-1.6,1.4-3.4,1.5-5.4c0.2-2.8,0.6-5.6,1.2-8.3c0.4-1.7-1.2-3.9-3.1-3.1c-3.5,1.4-7,3.2-10.8,2.8
				C310.9,37.5,310.9,42.5,314.1,42.8L314.1,42.8z"/>
		</g>
	</g>
	<g>
		<g>
			<path class="st2" d="M323.2,47.7c-0.8-0.4-1.5-1.7-2-2.5c-0.6-0.9-1.2-2-1.5-3c0,0.4,0,0.9,0,1.3c0-0.1,0.1-0.2,0.1-0.3
				c-0.6,0.6-1.2,1.2-1.7,1.7c0.8-0.4,2.4-0.7,3.3-0.7c-0.6-0.2-1.2-0.5-1.8-0.7c0.1,0.1,0.1,0.2,0.2,0.3c-0.2-0.6-0.5-1.2-0.7-1.8
				c0.2,1.9-0.2,4-0.6,5.9c-0.7,3.1,4.1,4.5,4.8,1.3c0.3-1.4,0.6-2.9,0.7-4.4c0.1-1.2,0.4-3-0.3-4.1c-1.3-2.4-4.8-1.3-6.8-0.6
				c-3.1,1-1.8,4.2-0.7,6.2c1,2,2.5,4.7,4.6,5.7C323.6,53.4,326.2,49.1,323.2,47.7L323.2,47.7z"/>
		</g>
	</g>
	<g>
		<g>
			<path class="st2" d="M335.2,35.1c2.6,4.6,6.8,7.8,11.8,9.1c3.1,0.8,4.4-3.8,1.3-4.8c-1.6-0.5-3-1.2-4.5-1.8
				c-1.9-0.8-4.3,0.5-3.7,2.8c1.5,5.2,8,4.8,11.3,1.7c-1.4-0.8-2.8-1.6-4.2-2.4c-0.2,0.2-0.3,0.3-0.5,0.5c0.6,1.5,1.3,3,1.9,4.6
				c0.8-0.4,1.5-0.8,2.1-1.4c0.5-0.5,1-1.6,1.6-1.9c-1.3-0.7-2.5-1.4-3.8-2.2c0-0.4-1.9,1.6-2,1.9c-1.4,2.9,2.4,5.1,4.3,2.5
				c2.3-3.2,3.8-7,3.6-11c-0.2-3.4-1.7-6.2-5.5-5.7c-3.1,0.4-3.2,5.4,0,5c0.8,0.1,1,0,0.6-0.3c-0.5-0.5-0.5-0.2,0,1
				c0.1,1,0,2.1-0.2,3.1c-0.5,2-1.5,3.7-2.7,5.4c1.4,0.8,2.9,1.7,4.3,2.5c0.4-0.8,1.4-1.2,1.9-1.9c0.6-0.8,0.7-1.5,0.8-2.5
				c0.2-2.1-2.2-2.9-3.8-2.2c-1.7,0.8-2.1,2.6-3.7,3.4c-2.6,1.2-0.7,5.3,1.9,4.6c2.1-0.6,3.4-1.9,4-4c0.7-2.5-2.4-4.1-4.2-2.4
				c-0.4,0.4-2.6,1.7-2.9,0.5c-1.2,0.9-2.4,1.9-3.7,2.8c1.9,0.8,3.8,1.7,5.7,2.3c0.4-1.6,0.9-3.2,1.3-4.8c-3.9-1-6.9-3.3-8.8-6.8
				C338,29.8,333.7,32.3,335.2,35.1L335.2,35.1z"/>
		</g>
	</g>
	<g>
		<g>
			<path class="st2" d="M348.2,26.7c-2.2,0.3-4,1.5-5.9,2.5c-1.7,1-3.8,2.2-3.5,4.5c0.3,1.9,2,4,3.2,5.4c1.4,1.6,3,2.7,5,3.5
				c1.2,0.5,2.8-0.5,3.1-1.7c0.6-2.8,3.7-10.8-1.5-10.9c-3.6,0-7.3,5-4.1,7.8c2.4,2.1,6-1.4,3.5-3.5c-0.1,1.1,0,1.4,0.4,1
				c0.1-0.1,0.2-0.2,0.4-0.2c-0.6-0.2-1.2-0.5-1.8-0.7c0.1,0.1,0.2,0.2,0.3,0.3c-0.2-0.6-0.5-1.2-0.7-1.8c-0.1,2.2-0.9,4.6-1.3,6.7
				c1-0.6,2.1-1.2,3.1-1.7c-2.3-0.9-4-3.6-4.9-5.7c0.1,0.6,0.2,1.3,0.3,1.9c-0.1,0.6,0.5-0.2,0.8-0.4c0.5-0.3,1.1-0.6,1.6-0.9
				c1.1-0.6,2.1-1.1,3.4-1.3C352.7,31.1,351.4,26.3,348.2,26.7L348.2,26.7z"/>
		</g>
	</g>
</g>
<g id="Layer_3">
	<g>
		<g>
			<path class="st3" d="M31.6,28.8c0.6,0,0.6-1,0-1C30.9,27.8,30.9,28.8,31.6,28.8L31.6,28.8z"/>
		</g>
	</g>
	<g>
		<g>
			<path class="st3" d="M33,27.9c-0.2,0-2.2,0.3-2.3,0.1c0-0.2-0.1-0.4-0.4-0.5c-0.8-0.2-1.2,0.5-0.9,1.2c0.2,0.6,1.2,0.4,1-0.3
				c0-0.1,0-0.1-0.1-0.2c-0.2-0.6-1.2-0.4-1,0.3c0,0.1,0,0.1,0.1,0.2c0.3-0.1,0.6-0.2,1-0.3c0-0.3-0.1-0.2-0.3,0.1
				c-0.1-0.2-0.2-0.3-0.4-0.5c0.1,1.5,2.5,1.1,3.5,0.9C33.9,28.8,33.6,27.8,33,27.9L33,27.9z"/>
		</g>
	</g>
	<g>
		<g>
			<path class="st3" d="M30.6,28.5c-0.2-0.4-0.4-2-0.2-2.5c-0.2,0.1-0.4,0.2-0.6,0.2c0.8,0.3,1.6,0.8,2.4,1.1c1,0.4,2.1,1,3.1,1.5
				c0.6,0.3,1.1-0.6,0.5-0.9c-1-0.5-1.9-1-2.9-1.4c-0.9-0.4-1.8-0.8-2.7-1.2c-0.2-0.1-0.5,0.1-0.6,0.2c-0.3,0.5-0.2,1.3-0.2,1.8
				c0,0.6,0.1,1.1,0.3,1.7C30,29.5,30.9,29,30.6,28.5L30.6,28.5z"/>
		</g>
	</g>
	<g>
		<g>
			<path class="st3" d="M31.2,29.4c-0.1,0-0.3,0.1-0.4,0.1c-0.2,0.1-0.5,0.1-0.7,0.2c1.1,0.7,1.8,1.3,3.1,0.9
				c0.9-0.3,2.1-0.7,2.5-1.6c0.2-0.3,0-0.7-0.4-0.8c-1.2,0-2.8,0.8-4,0.4c0,0.3-0.1,0.7-0.1,1c0.8,0,1.5,0.1,2.3,0
				c0-0.3-0.1-0.7-0.1-1c-0.5,0.1-1.1,0.2-1.6,0.2c-0.4,0.1-0.5,0.7-0.1,0.9c0.4,0.2,0.8,0.3,1.3,0.1c0.3-0.1,0.3-0.6,0.1-0.8
				c-0.4-0.5-0.7-1-1.1-1.6c-0.1-0.2-0.8-0.7-0.8-0.8c-0.1-0.6-1-0.7-1,0c0,0.6,0,1.8,0.8,2c0.4,0.1,0.7-0.2,0.6-0.6
				c-0.1-0.3-0.3-1-0.3-1.3c-0.2,0.1-0.3,0.2-0.5,0.4c1-0.1,2.2,1.2,3.1,1.6c0.1-0.3,0.2-0.6,0.3-0.9c-0.6-0.1-1.2-0.2-1.8-0.5
				c-0.6-0.3-1.1,0.6-0.5,0.9c0.7,0.4,1.5,0.6,2.3,0.7c0.5,0,0.7-0.7,0.3-0.9c-1.1-0.5-2.4-1.8-3.6-1.7c-0.2,0-0.4,0.1-0.5,0.4
				c-0.1,0.6,0.2,1.3,0.3,1.8c0.2-0.2,0.4-0.4,0.6-0.6c-0.1,0-0.1-0.9,0-1c-0.3,0-0.7,0-1,0c0.1,0.6,0.4,0.8,0.8,1.2
				c0.5,0.6,0.9,1.3,1.3,1.9c0-0.3,0.1-0.5,0.1-0.8C32.2,29,32.1,29,32,29c0,0.3-0.1,0.6-0.1,0.9c0.5-0.1,1.1-0.2,1.6-0.2
				c0.6-0.1,0.4-1-0.1-1c-0.8,0-1.5,0-2.3,0c-0.6,0-0.7,0.8-0.1,1c1.3,0.5,2.9-0.4,4.3-0.3c-0.1-0.3-0.3-0.5-0.4-0.8
				c-0.3,0.6-1.3,0.9-1.9,1.1c-1,0.3-1.6-0.3-2.3-0.8c-0.2-0.2-0.6,0-0.7,0.2c-0.5,0.8,0.6,1.4,1.3,1.4
				C31.8,30.4,31.8,29.4,31.2,29.4L31.2,29.4z"/>
		</g>
	</g>
	<g>
		<g>
			<path class="st3" d="M56.1,34.8c-0.1,1.7,0.4,2.8,1.6,4c0.7,0.7,1.6,1.7,2.7,1.5c0.2,0,0.3-0.2,0.3-0.3c0.2-0.5-0.2-0.8-0.6-1.1
				c-1.3-1.1-2.6-1.7-2.5-3.7c-0.2,0.2-0.4,0.3-0.6,0.5c1,0.4,2.1,0.4,3.1,0.8c0-0.3,0-0.6,0-0.9c-0.3,0.1-1.9,1.4-2,0.5
				c-0.1,0.2-0.2,0.3-0.4,0.5c0.2,0,2.2,0.6,2.2,0.8c-0.1,0.1-0.2,0.2-0.3,0.3c-0.2,0.1-0.2,0.3,0,0.5c0,0.2-0.1,0.4-0.1,0.6
				c0.2,0.8,0.6,1.2,1.5,1.1c2.2-0.1,2.6-2.3,1.5-3.9c-0.3-0.5-1.3-1-1.9-0.7c-0.2,0.1-0.3,0.3-0.4,0.5c-0.1,0.4,0.1,1,0,1.4
				c0,0.4-0.2,1-0.1,1.4c0.1,0.6,0.6,0.9,1.1,0.7c1.2-0.4,0.5-2.7,0.6-2.7c-0.2-0.2-0.4-0.3-0.6-0.5c0.1,0.6-0.3,3.6,1.3,2.7
				c1.2-0.6,1.3-2.3,0.5-3.2c-0.2,0.3-0.3,0.6-0.5,0.8c0.4,0.1,0.6,0.1,0.6,0.5c0,0.2-0.5,0.8-0.6,1c-0.4,0.5,0.5,1,0.9,0.5
				c0.3-0.5,1.2-1.3,1-2c-0.2-0.6-1-0.7-1.5-0.9c-0.5-0.2-0.8,0.5-0.5,0.8c0.3,0.4,0.3,0.8,0,1.2c0,0.2-0.1,0.2-0.2,0.1
				c0-0.5,0.1-1,0-1.5c0-0.3-0.3-0.6-0.6-0.5C61.1,35.9,61,36.3,61,37c0.2,2.6,0.2-0.5,0.3-0.5c0.4-0.2,0.9,1.3,0.8,1.7
				c-0.1,0.3-0.5,0.8-0.9,0.8c-0.1,0-0.2,0-0.3-0.2c-0.3-0.1-0.4-0.2-0.2-0.5c-0.1-0.2,0-0.4-0.1-0.6c-0.3-0.5-1.4-0.5-1.8-0.3
				c-0.2,0.1-0.2,0.3-0.2,0.4c0,1.2,2.2,1.1,2.3,0c0.1-1.2-2.5-1.1-2.5,0.1c0,1.9,2.3,0.9,2.7-0.3c0.4-1.3-2.7-2.1-3.5-2
				c-0.2,0-0.4,0.3-0.4,0.5c0,0.5,0.5,1.4,1.1,1.5c0.8,0.2,1.7-0.8,2.4-1.1c0.3-0.1,0.3-0.7,0-0.9c-1.1-0.5-2.2-0.5-3.3-0.9
				c-0.3-0.1-0.6,0.2-0.6,0.5c-0.1,1.6,0.6,2.7,1.8,3.6c0.3,0.2,0.7,0.8,0.9,0.4c0.1-0.3-0.6-0.8-0.9-1c-1-1-1.4-2-1.4-3.4
				C57.2,34.2,56.2,34.2,56.1,34.8L56.1,34.8z"/>
		</g>
	</g>
	<g>
		<g>
			<path class="st3" d="M84.5,39.6c0.4,2.3,1.4,4.3,4,4.6c2.1,0.2,3.6-1.8,3.8-3.7c0-0.3-0.2-0.5-0.5-0.5c-2.2,0-4.4-0.2-6.5-0.7
				c-0.5-0.1-0.9,0.5-0.5,0.8c1.1,1.1,1.4,3,3.2,3.4c1.7,0.3,2.9-0.7,3.7-2.1c0.2-0.3-0.1-0.7-0.4-0.8c-1.7,0-3.6,0.1-5.2-0.3
				c-0.6-0.2-0.9,0.6-0.4,0.9c0.9,0.6,1.9,1.2,3,1.4c0.5,0.1,1.6,0.3,2-0.3c0.2-0.4,0-0.8-0.3-1c-0.9-0.6-2,0.4-2.8,0.6
				c-0.5,0.2-0.5,0.8,0,1c0.3,0.1,0.5,0.1,0.8,0.2c0.6,0.2,0.9-0.8,0.3-1c-0.3-0.1-0.5-0.1-0.8-0.2c0,0.3,0,0.6,0,1
				c0.4-0.1,0.5-0.2,0.9-0.4c0.2-0.1,0.5-0.2,0.7-0.3c0.1-0.5-0.1-0.7-0.5-0.6c-0.4-0.2-1-0.3-1.5-0.5c-0.4-0.2-0.8-0.5-1.1-0.7
				c-0.1,0.3-0.3,0.6-0.4,0.9c1.8,0.5,3.7,0.3,5.5,0.4c-0.1-0.3-0.3-0.5-0.4-0.8c-0.8,1.4-2.6,2.6-3.7,0.8c-0.5-0.8-0.9-1.5-1.6-2.2
				c-0.2,0.3-0.3,0.6-0.5,0.8c2.2,0.5,4.5,0.8,6.8,0.8c-0.2-0.2-0.3-0.3-0.5-0.5c-0.2,1.7-1.7,3.1-3.4,2.6c-1.7-0.5-2.1-2.2-2.4-3.7
				C85.3,38.7,84.4,39,84.5,39.6L84.5,39.6z"/>
		</g>
	</g>
	<g>
		<g>
			<path class="st3" d="M113,43c0.2,2,1.2,3.8,3,4.6c1.4,0.6,2.7,0.2,3.7-0.9c0.5-0.6,2.2-2.9,1.2-3.7c-0.6-0.4-2-0.3-2.7-0.4
				c-1.4-0.1-2.8-0.3-4.2-0.1c-0.3,0-0.6,0.3-0.5,0.6c0.6,1.8,0.9,3.6,3.1,3.8c2.1,0.2,3.5-1.3,4.1-3.1c0.1-0.4-0.3-0.7-0.6-0.6
				c-1.9,0.3-3.7-0.1-5.5-0.5c-0.3-0.1-0.7,0.1-0.6,0.5c0.2,1.2,0.2,3,1.6,3.4c1.7,0.4,2.9-0.5,4-1.7c0.3-0.3,0.1-0.7-0.2-0.8
				c-1.4-0.5-2.8-0.1-4.2-0.6c-0.3-0.1-0.7,0.2-0.6,0.5c0,0.7,0.2,1.5,0.9,1.8c0.8,0.4,2,0.2,2.9-0.2c0.4-0.2,0.3-0.8-0.1-0.9
				c-0.9-0.2-1.8-0.1-2.7-0.2c-0.6-0.1-0.9,0.9-0.3,1c0.9,0.1,1.9,0,2.7,0.2c0-0.3-0.1-0.6-0.1-0.9c-0.7,0.3-2.2,0.5-2.2-0.7
				c-0.2,0.2-0.4,0.3-0.6,0.5c1.4,0.5,2.9,0.1,4.2,0.6c-0.1-0.3-0.1-0.6-0.2-0.8c-0.6,0.7-1.5,1.6-2.5,1.5c-1.3-0.1-1.3-1.3-1.4-2.4
				c-0.2,0.2-0.4,0.3-0.6,0.5c2,0.4,4,0.7,6,0.5c-0.2-0.2-0.4-0.4-0.6-0.6c-0.5,1.4-1.7,2.7-3.3,2.4c-1.4-0.3-1.6-1.8-2-3.1
				c-0.2,0.2-0.3,0.4-0.5,0.6c1.2-0.1,2.4,0,3.6,0.1c0.5,0,1.3,0,1.8,0.2c0.7,0.3,0.5,0.6,0.2,1.2c-0.8,1.5-1.9,2.5-3.6,1.6
				c-1.2-0.6-2-2.2-2.1-3.5C113.9,42.3,112.9,42.3,113,43L113,43z"/>
		</g>
	</g>
	<g>
		<g>
			<path class="st3" d="M142.2,44c0.5,2,1.5,4,3.8,4.5c2.6,0.5,3.1-2.2,4.3-3.7c-0.3-0.1-0.6-0.2-0.9-0.4c0,0.7-0.4,1.2-0.7,1.8
				c0.3,0.1,0.6,0.2,0.9,0.3c0.1-1.1,1.2-2.3-0.3-2.8c-0.8-0.3-1.9-0.2-2.8-0.2c-1.2-0.1-2.3-0.3-3.5-0.4c-0.3,0-0.5,0.3-0.5,0.6
				c0.3,1.2,0.7,3.2,1.8,3.9c1.2,0.8,2.8,0.7,4-0.1c0.7-0.6,1.8-2.1,1.1-3c-1-1.3-4,0-5.3-0.6c-0.4-0.2-0.8,0.1-0.7,0.6
				c0.2,1.1,0.7,2.5,1.9,2.9c1,0.3,2.5,0,3.3-0.7c0.4-0.4,1.1-1.4,0.5-1.9c-0.3-0.2-0.8-0.1-1.1-0.1c-1.1,0-2.2,0.1-3.2,0.1
				c-0.3,0-0.5,0.2-0.5,0.5c0,0.9,0.3,2.1,1.4,2.2c1.1,0.1,2.3-1.1,3.2-1.5c0.5-0.2,0.2-0.9-0.3-0.9c-1.2,0-2.3,0.2-3.4,0.4
				c-0.5,0.1-0.4,0.8,0,1c0.3,0.1,0.9,0.2,1.1,0.4c0-0.3-0.1-0.5-0.1-0.8c0,0,0,0,0,0c-0.5,0.4,0.2,1.1,0.7,0.7c0,0,0,0,0,0
				c0.3-0.2,0.1-0.6-0.1-0.8c-0.4-0.3-1-0.4-1.4-0.5c0,0.3,0,0.6,0,1c1.1-0.2,2.1-0.4,3.2-0.3c-0.1-0.3-0.2-0.6-0.3-0.9
				c-0.8,0.4-3,2.3-3.1,0.2c-0.2,0.2-0.3,0.3-0.5,0.5c0.2,0,3.6-0.1,3.6-0.1c0.1,0.4-1.8,0.8-2,0.8c-1.5,0-1.8-1.1-1.9-2.2
				c-0.2,0.2-0.5,0.4-0.7,0.6c0.7,0.3,1.4,0.3,2.2,0.3c0.9,0,3.1-0.5,2.4,1.1c-0.8,1.6-3.2,0.9-3.8-0.3c-0.4-0.7-0.6-1.7-0.8-2.5
				c-0.2,0.2-0.3,0.4-0.5,0.6c1.5,0.2,2.9,0.4,4.3,0.4c0.4,0,0.7,0,1.1,0.1c0.7,0,0.9,0.3,0.5,0.7c-0.1,0.4-0.2,0.7-0.3,1.2
				c-0.1,0.5,0.7,0.7,0.9,0.3c0.4-0.8,0.8-1.4,0.8-2.3c0-0.4-0.6-0.7-0.9-0.4c-0.9,1-1.4,3.4-2.9,3.5c-2.1,0.2-3.1-2.2-3.5-3.8
				C143,43.1,142.1,43.4,142.2,44L142.2,44z"/>
		</g>
	</g>
	<g>
		<g>
			<path class="st3" d="M170.8,44.9c0,1.3,0.4,3.8,1.7,4.4c1.3,0.6,3.6-0.3,4.6-0.9c0.2-0.1,0.3-0.5,0.2-0.7
				c0.1,0.1,0.9-1.2,0.9-1.3c0.2-0.4,0.2-0.7,0.2-1.2c0-0.3-0.2-0.5-0.5-0.5c-2.1,0-4.5,0.6-6.6,0.3c0.1,0.2,0.2,0.5,0.3,0.7
				c0.3-0.4,1.9-0.1,2.4-0.1c0.8,0,2.3-0.2,2.6,0.6c0.2-0.2,0.3-0.4,0.5-0.6c-0.9,0-5.2-1.2-5.3,0.3c-0.2,1.6,4.5,0.8,5.3,1
				c0-0.3,0-0.6,0-1c-0.9,0.3-1.9,0.5-2.8,0.5c-0.4,0-0.8,0-1.2,0c-0.3,0-0.5-0.1-0.8-0.1c-0.5-0.2-0.6-0.2-0.3,0
				c-0.1,0.2-0.2,0.4-0.2,0.6c0.4-0.2,2.2,1,2.8,1.1c0.7,0.1,1.5-0.2,2.2-0.4c0.4-0.1,0.5-0.9,0-1c-0.5-0.1-0.9-0.1-1.4,0
				c-1,0.4-1.8,0.8-2.8,0.1c-0.4-0.3-0.8,0.2-0.7,0.6c0.4,1.9,2.8,1.7,4.1,1c0.6-0.3,0.1-1.2-0.5-0.9c-0.7,0.4-2.4,0.8-2.6-0.4
				c-0.2,0.2-0.5,0.4-0.7,0.6c0.6,0.4,1.1,0.8,1.8,0.8c1-0.1,1.6-1,2.6-0.8c0-0.3,0-0.6,0-1c-0.7,0.2-1.3,0.5-2.1,0.3
				c-0.6-0.1-1-0.5-1.6-0.8c-0.5-0.2-1.1-0.4-1.6-0.2c-0.2,0.1-0.3,0.4-0.2,0.6c0.2,0.8,1.4,0.7,2.1,0.8c1.5,0.1,2.9-0.1,4.3-0.5
				c0.5-0.1,0.5-0.8,0-1c-0.6-0.2-1.2-0.1-1.9-0.1c-0.3,0-2.3-0.2-2.5-0.1c-0.5,0.6,1.6,0.6,1.8,0.6c0.8,0.1,1.5,0.2,2.3,0.3
				c0.3,0,0.6-0.3,0.5-0.6c-0.2-0.4-0.3-0.9-0.6-1.1c-0.5-0.4-1.8-0.2-2.4-0.2c-1.2,0-3-0.6-3.7,0.6c-0.2,0.2,0,0.7,0.3,0.7
				c2.2,0.3,4.6-0.3,6.9-0.3c-0.2-0.2-0.3-0.3-0.5-0.5c-0.1,1-1,1.6-1.1,2.5c0,0.2,0,0.4,0.1,0.6c0.1-0.2,0.1-0.5,0.2-0.7
				c-0.8,0.4-2.4,1.1-3.3,0.9c-1.3-0.3-1.5-2.4-1.5-3.5C171.8,44.3,170.8,44.3,170.8,44.9L170.8,44.9z"/>
		</g>
	</g>
	<g>
		<g>
			<path class="st3" d="M199.3,45c0.4,1.1,0.9,2.4,1.7,3.2c0.8,0.8,2,1,3.1,1c2.3,0.2,3.1-2.3,3.6-4.3c0.1-0.3-0.2-0.6-0.5-0.6
				c-1.3,0-2.5,0.4-3.8,0.4c-1.2,0.1-2.3-0.3-3.5-0.4c-0.5,0-0.6,0.6-0.4,0.9c1.2,1.4,1.6,3.6,3.8,3.4c1.8-0.2,3.6-1.7,3.6-3.6
				c0-0.4-0.4-0.7-0.8-0.4c-1.8,1.3-3.8,1.2-5.8,0.4c-0.6-0.2-0.8,0.6-0.4,0.9c1.6,1.1,2.2,3.4,4.6,3c1.4-0.2,1.7-1.9,1-3
				c-0.1-0.1-0.3-0.3-0.4-0.2c-1.2,0-2,0.7-3.3,0.4c-0.4-0.1-0.9,0.5-0.5,0.8c1.4,1.1,2.3,1.1,3.7,0.2c-0.2-0.1-0.5-0.1-0.7-0.2
				c0.1,0.1,0.1,0.2,0.2,0.4c0.3,0.6,1.2,0.1,0.9-0.5c-0.1-0.1-0.1-0.2-0.2-0.4c-0.1-0.2-0.5-0.3-0.7-0.2c-0.9,0.6-1.5,0.7-2.5,0
				c-0.2,0.3-0.3,0.6-0.5,0.8c0.6,0.1,1.1,0.2,1.8,0.1c0.4-0.1,0.8-0.2,1.1-0.3c0.1-0.1,0.2-0.1,0.3-0.1c0.4,0.1,0.3,0.5-0.6,1.1
				c-1.7,0.3-2.6-2.1-3.7-2.9c-0.1,0.3-0.3,0.6-0.4,0.9c2.3,0.9,4.6,1,6.6-0.5c-0.3-0.1-0.5-0.3-0.8-0.4c0,1.7-2.6,3.6-3.9,2.1
				c-0.7-0.8-1.1-1.8-1.7-2.6c-0.1,0.3-0.2,0.6-0.4,0.9c1.2,0.1,2.3,0.5,3.5,0.4c1.3-0.1,2.5-0.4,3.8-0.4c-0.2-0.2-0.3-0.4-0.5-0.6
				c-0.3,1.2-0.9,3.4-2.4,3.5c-2.4,0.2-3.4-1.7-4.1-3.6C200.1,44.2,199.1,44.4,199.3,45L199.3,45z"/>
		</g>
	</g>
	<g>
		<g>
			<path class="st3" d="M229.7,46.2c0.9,1.8,1.8,2.8,3.7,3.3c0-0.3,0-0.6,0-1c-1.1,0.4-1.5-0.3-2.1-1.1c-0.3-0.5-1.1-0.2-0.9,0.4
				c0.6,2.2,2.1,2.9,4.3,2.6c2-0.3,3.2-2.7,3.4-4.5c0-0.3-0.1-0.6-0.5-0.6c-2.4-0.1-4.8-0.3-7.1,0c-0.4,0-0.6,0.4-0.4,0.8
				c0.5,0.9,1.1,2.1,1.8,2.8c0.5,0.5,1.2,0.6,2,0.7c0.7,0.1,1.5,0.1,2.1-0.4c0.3-0.3,1.2-2.6,1.1-2.6c0-0.3,0-0.6,0-1
				c-1.9,0.6-4-0.1-5.9-0.2c-0.4,0-0.6,0.4-0.4,0.8c0.9,1.5,2.6,4.3,4.7,2.7c0.5-0.4,1.2-1.5,0.7-2.2c-0.2-0.2-0.4-0.3-0.6-0.3
				c-1.2-0.3-2.2,0.2-3.3-0.4c-0.5-0.2-1.1,0.4-0.6,0.8c0.9,0.8,2.8,3,4,1.4c1.1-1.4-1.1-1.5-1.9-1.2c-0.5,0.2-0.5,0.8,0,1
				c0.3,0.1,0.7,0.2,1,0.2c0.6,0.1,0.9-0.8,0.3-1c-0.3,0-0.7-0.1-1-0.2c0,0.3,0,0.6,0,1c0.8-0.3,0-0.5-0.5-0.9
				c-0.4-0.3-0.8-0.7-1.1-1c-0.2,0.3-0.4,0.5-0.6,0.8c0.5,0.2,1,0.4,1.5,0.5c0.5,0.1,1.7-0.2,1.8,0.2c0.1,0.3-0.1,0.5-0.6,0.5
				c-0.4,0.4-0.7,0.4-0.9,0c-0.2-0.1-0.4-0.4-0.6-0.6c-0.5-0.6-1-1.1-1.3-1.7c-0.1,0.3-0.3,0.5-0.4,0.8c2,0.1,4.2,0.8,6.2,0.1
				c0.4-0.2,0.5-0.8,0-1c-1.1-0.3-1.2,1-1.5,1.7c-0.6,1.4-2.2,1.8-3.3,0.6c-0.6-0.6-1.1-1.6-1.5-2.4c-0.1,0.3-0.3,0.5-0.4,0.8
				c2.4-0.3,4.7-0.1,7.1,0c-0.2-0.2-0.3-0.4-0.5-0.6c-0.2,1.1-1,3.3-2.2,3.7c-0.3,0.1-1.1,0.2-1.5,0.1c-1.2-0.1-1.8-0.8-2-1.9
				c-0.3,0.1-0.6,0.3-0.9,0.4c0.9,1.3,1.6,2.1,3.3,1.6c0.5-0.1,0.5-0.8,0-1c-1.6-0.4-2.4-1.4-3.1-2.8
				C230.3,45.1,229.4,45.6,229.7,46.2L229.7,46.2z"/>
		</g>
	</g>
	<g>
		<g>
			<path class="st3" d="M232.3,48.1C232.2,48.1,232.2,48.1,232.3,48.1c-0.7,0-0.7,1-0.1,1c0,0,0.1,0,0.1,0
				C232.9,49.1,232.9,48.1,232.3,48.1L232.3,48.1z"/>
		</g>
	</g>
	<g>
		<g>
			<path class="st3" d="M262.1,47.4c0.6,0,0.6-1,0-1C261.5,46.4,261.5,47.4,262.1,47.4L262.1,47.4z"/>
		</g>
	</g>
	<g>
		<g>
			<path class="st3" d="M262.8,48.3c-1.3,0.1-2.3-0.2-3.2-1.1c-0.2-0.2-0.4-0.4-0.5-0.6c-0.2-0.7,0.3-0.7,0.8-0.7
				c1.9-0.2,3.8,0,5.7-0.3c-0.2-0.2-0.4-0.3-0.6-0.5c0.1,1.4-0.8,3.3-2.4,3.1c-0.8-0.1-3.5-0.9-3.5-2.1c-0.1,0.2-0.2,0.3-0.4,0.5
				c0.6-0.2,1.4-0.2,2.1-0.4c0.9-0.2,2.3-0.7,3.2-0.3c0.5,0.2,0.8,0.3,0.1,1c-0.5,0.5-1.2,0.6-1.8,0.5c-0.9-0.1-2.3-0.5-2.8-1.3
				c-0.2,0.2-0.4,0.5-0.6,0.7c1,0.1,2.1,0.3,3.1,0.2c1.1-0.1,2.1-0.5,3.1-0.4c0-0.3-0.1-0.7-0.1-1c-0.4,0.2-0.7,0.4-1.1,0.7
				c-0.3,0.2-2.4,1-2.7,0.4c0,0.2-0.1,0.4-0.1,0.6c0.7-0.8,2.1-1,3.1-1c0-0.3,0-0.7,0-1c-1,0.1-2.1,0.5-3.1,0.4
				c-0.6-0.1-0.6,0.9,0,1c1,0.1,2.1-0.3,3.1-0.4c0.6-0.1,0.7-1,0-1c-1.3,0-2.9,0.3-3.8,1.3c-0.2,0.2-0.2,0.4-0.1,0.6
				c0.4,0.7,1.3,0.7,2,0.6c0.4,0,0.9-0.1,1.3-0.3c0.6-0.2,1-0.7,1.6-1c0.5-0.2,0.5-0.9-0.1-1c-0.8-0.1-1.5,0.1-2.3,0.3
				c-1.2,0.2-2.5,0.1-3.7-0.1c-0.4-0.1-0.8,0.3-0.6,0.7c1.2,2.1,5.9,2.7,6.8,0c0.4-1.1-0.1-1.6-1.2-1.8c-0.9-0.1-1.8,0-2.7,0.2
				c-1,0.2-2.1,0.3-3,0.6c-0.2,0.1-0.4,0.3-0.4,0.5c-0.1,0.8,0.6,1.5,1.2,1.8c0.9,0.5,2.3,1.2,3.3,1.2c2.2,0.2,3.5-2.2,3.3-4.1
				c0-0.4-0.3-0.5-0.6-0.5c-2,0.3-4,0.1-6,0.3c-0.8,0.1-1.2,0.3-1.3,1.1c-0.3,2.5,2.8,3.5,4.7,3.4C263.4,49.2,263.4,48.2,262.8,48.3
				L262.8,48.3z"/>
		</g>
	</g>
	<g>
		<g>
			<path class="st3" d="M286.8,43.7c0.8,1.6,1,3.5,3.2,3.9c2,0.4,3.6-0.5,4.7-2.2c0.5-0.8,1.6-3.2-0.2-3.2c-1,0-2,1.1-2.9,1.3
				c-1.2,0.2-2.7,0-3.9-0.2c0,0.3-0.1,0.7-0.1,1c1.3,0.1,2.5-0.1,3.8-0.3c0.3-0.1,2.4-0.5,2.6-0.1c-0.2-0.3-1.4,1.8-1.4,1.8
				c-0.9,0.8-2.4,0.5-3.4-0.2c-0.3-0.2-0.7-0.6-0.7-0.6c-0.1,0,0.8,0.1,0.9,0.1c1.2-0.1,3.1-1,4.3-0.6c-0.1-0.2-0.2-0.3-0.4-0.5
				c-0.1,0.9-1.4,1.8-2.1,1.8c-0.7-0.1-1.5-0.7-2.1-1.1c-0.1,0.3-0.2,0.6-0.3,0.9c0.9,0,1.6-0.2,2.4-0.5c0.3-0.1,0.9-0.4,1.2-0.1
				c-0.1-0.2-1.4,0.8-1.9,0.3c-0.1,0.3-0.1,0.6-0.2,0.8c0.9-0.1,1.7-0.4,2.4-1c0.4-0.3,0.3-0.9-0.3-0.9c-0.1,0-0.2,0-0.2,0
				c-0.2,0-0.3,0.1-0.4,0.2c0,0.1-0.1,0.1-0.1,0.2c-0.3,0.6,0.5,1.1,0.9,0.5c0,0,0,0-0.1,0c-0.1-0.3-0.2-0.6-0.3-0.9
				c-0.7,0.5-1.4,0.8-2.2,0.9c-0.4,0.1-0.5,0.6-0.2,0.8c1.2,1.1,3.6,0.3,3.8-1.3c0-0.4-0.1-0.7-0.5-0.9c-1.3-0.4-2.9,0.9-4.2,0.8
				c-0.5,0-0.6,0.7-0.3,0.9c1,0.7,2.6,1.7,3.9,1.3c0.9-0.3,1.8-1.9,1.8-2.8c0-0.2-0.2-0.4-0.4-0.5c-0.8-0.3-2,0-2.8,0.2
				c-0.9,0.2-1.7,0.4-2.6,0.4c-0.5,0-0.6,0-1,0.1c-0.1,0.1-0.3,0.3-0.2,0.4c0.1,1.3,1.9,2.3,3,2.7c1.8,0.6,2.7-0.4,3.6-1.8
				c0.4-0.7,1.5-2,0.3-2.5c-0.8-0.3-1.9-0.1-2.7,0c-1.4,0.3-2.6,0.5-4,0.4c-0.6,0-0.7,0.9-0.1,1c1,0.2,2.1,0.4,3.1,0.4
				c0.6,0,1.2-0.1,1.7-0.2c0.5-0.1,1.1-0.7,1.6-0.7c1-0.1,0,1.4-0.4,1.8c-0.7,0.9-1.7,1.4-2.8,1.3c-2.1-0.1-2.2-1.9-2.9-3.4
				C287.4,42.6,286.6,43.1,286.8,43.7L286.8,43.7z"/>
		</g>
	</g>
	<g>
		<g>
			<path class="st3" d="M314.4,39c0.7,1.4,2.3,3.7,4,3.6c2-0.1,1.5-3.5,1.7-4.8c0.1-0.4-0.2-0.7-0.6-0.6c-0.9,0.2-1.7,0.5-2.5,0.7
				c-0.8,0.2-1.6,0.2-2.4,0.4C314.3,38.3,314.2,38.7,314.4,39c0.2,0.4,0.3,0.9,0.4,1.4c0.1,0.4,0.1,1,0.3,1.3
				c0.4,0.5,1.9,0.8,2.5,0.7c0.7-0.2,1.1-1.1,1.4-1.6c0.4-0.8,0.7-1.7,0.6-2.6c0-0.2-0.2-0.3-0.3-0.3c-0.6-0.1-1.2,0.2-1.7,0.4
				c-0.8,0.3-1.5,0.5-2.3,0.7c-0.5,0.1-0.4,0.7-0.1,0.9c0.8,0.5,1.4,1.1,2.1,1.8c0.3,0.3,0.7,0.1,0.8-0.2c0.2-0.7,0.6-1.4,0.9-2
				c0.2-0.4-0.1-0.8-0.6-0.7c-0.8,0.1-1.7,0.3-2.5,0.6c-0.4,0.1-0.5,0.7-0.1,0.9c0.6,0.3,1.3,0.5,1.9,0.6c0.6,0.1,0.9-0.8,0.3-1
				c-0.6-0.1-1.1-0.3-1.7-0.5c0,0.3-0.1,0.6-0.1,0.9c0.8-0.3,1.6-0.5,2.5-0.6c-0.2-0.2-0.4-0.5-0.6-0.7c-0.4,0.7-0.7,1.5-1,2.3
				c0.3-0.1,0.6-0.1,0.8-0.2c-0.7-0.8-1.4-1.4-2.3-2c0,0.3-0.1,0.6-0.1,0.9c0.6-0.1,1.2-0.3,1.8-0.5c0.4-0.1,1.3-0.6,1.7-0.6
				c-0.1-0.1-0.2-0.2-0.3-0.3c0.1,0.7-0.3,1.5-0.6,2.1c-0.1,0.2-0.2,0.5-0.4,0.6c-0.4,0.4-0.8,0.1-1.2,0c-0.4-0.1-0.4,0-0.5-0.4
				c-0.1-0.3-0.1-0.7-0.2-0.9c-0.1-0.5-0.2-1-0.5-1.4c-0.1,0.2-0.2,0.5-0.3,0.7c0.8-0.2,1.6-0.2,2.4-0.4c0.9-0.2,1.7-0.5,2.5-0.7
				c-0.2-0.2-0.4-0.4-0.6-0.6c-0.1,0.6-0.2,1.3-0.2,1.9c0,0.3,0,0.6,0,0.8c0,0.2,0,0.5-0.1,0.7c0,0.4-0.2,0.6-0.5,0.5
				c-1.2,0.3-2.6-2.1-3-3C315,37.9,314.1,38.4,314.4,39L314.4,39z"/>
		</g>
	</g>
	<g>
		<g>
			<path class="st3" d="M318.7,41.5c0.6,0,0.6-1,0-1C318.1,40.5,318.1,41.5,318.7,41.5L318.7,41.5z"/>
		</g>
	</g>
	<g>
		<g>
			<path class="st3" d="M338.6,32.1c1.1,0.9,2.3,2.3,3.8,2.7c1.3,0.4,2.5-0.6,3.4-1.4c-0.3-0.2-0.5-0.4-0.8-0.6
				c-0.2,0.4-0.5,0.7-1,0.8c-0.4,0.2-0.3,0.9,0.1,0.9c0.7,0.1,1.4,0,1.8-0.7c0.4-0.6,0.5-2,0.2-2.6c-0.1-0.2-0.3-0.4-0.4-0.6
				c-0.2-0.3-0.2-0.7-0.4-1c-0.1-0.2-0.3-0.4-0.5-0.5c-0.9-0.4-2.3,0.5-3.1,0.9c-0.5,0.2-0.1,1.1,0.4,0.9c1-0.3,1.9-0.8,2.9-1.1
				c-0.2-0.2-0.4-0.5-0.6-0.7c-0.6,1-3.2,1-4.2,1.2c-0.6,0.1-1.6,0.4-2,1c-0.1,0.2-0.1,0.4,0.1,0.6c0.4,0.5,1.4,0.8,2,0.9
				c1.2,0.4,2.4,0.7,3.5,1.4c0-0.3,0.1-0.6,0.1-0.9c-1.6,0.3-3.1-1.1-4.2-2.1c-0.1,0.3-0.1,0.6-0.2,0.8c1.7-0.3,3.6-0.6,5.1-1.4
				c0.5-0.2,0.2-1.1-0.4-0.9c-1.5,0.5-2.8,1.7-4.3,2.3c-0.6,0.2-0.3,1.2,0.3,1c1.7-0.6,3.2-1.5,4.9-2.1c-0.1-0.3-0.3-0.6-0.4-0.9
				c-1.2,0.7-2.4,1.5-3.4,2.4c-0.4,0.3,0,0.9,0.5,0.8c1.4-0.3,2.8-0.8,4.1-1.4c0.5-0.2,0.1-1.1-0.4-0.9c-1,0.3-1.9,0.8-2.7,1.3
				c-0.4,0.2-0.2,0.9,0.3,0.9c0.7,0,1.8,0.3,2.3-0.3c0.5-0.5,0.3-1.7,0-2.2c-0.2-0.4-0.8-0.3-0.9,0.1c-0.2,0.8-0.5,1.5-0.8,2.3
				c-0.3,0.6,0.6,1.1,0.9,0.5c0.4-0.8,0.7-1.6,0.9-2.5c-0.3,0-0.6,0.1-0.9,0.1c0.6,1.1-0.8,1-1.4,1c0.1,0.3,0.2,0.6,0.3,0.9
				c0.8-0.4,1.6-1,2.5-1.2c-0.1-0.3-0.3-0.6-0.4-0.9c-1.2,0.5-2.5,0.9-3.8,1.3c0.2,0.3,0.3,0.6,0.5,0.8c1-0.8,2.1-1.6,3.2-2.2
				c0.5-0.3,0.2-1.1-0.4-0.9c-1.7,0.6-3.2,1.5-4.9,2.1c0.1,0.3,0.2,0.6,0.3,1c0.7-0.3,1.4-0.6,2-1c0.7-0.4,1.4-1.1,2.2-1.3
				c-0.1-0.3-0.3-0.6-0.4-0.9c-1.5,0.7-3.3,1-4.9,1.3c-0.4,0.1-0.5,0.6-0.2,0.8c0.9,0.8,1.9,1.5,3,2.1c0.8,0.5,1.2,0.4,2.2,0.2
				c0.4-0.1,0.5-0.7,0.1-0.9c-0.7-0.5-1.5-0.8-2.3-1.1c-0.8-0.3-2.4-0.4-2.9-1.1c0,0.2,0.1,0.4,0.1,0.6c0.4-0.9,3.4-0.9,4.2-1.1
				c0.8-0.2,1.5-0.4,2-1.1c0.2-0.4-0.1-0.9-0.6-0.7c-1,0.3-1.9,0.8-2.9,1.1c0.1,0.3,0.3,0.6,0.4,0.9c0.3-0.1,1.3-0.6,1.7-0.7
				c0.9,0,0.5,0.2,0.8,0.6c0.2,0.3,0.5,0.7,0.6,1c0.1,0.5-0.2,1.9-0.9,1.8c0,0.3,0.1,0.6,0.1,0.9c0.6-0.3,1-0.6,1.3-1.2
				c0.3-0.5-0.4-1-0.8-0.6c-1,0.9-2.3,1.5-3.6,0.5c-0.8-0.6-1.5-1.2-2.2-1.8C338.8,31,338.1,31.7,338.6,32.1L338.6,32.1z"/>
		</g>
	</g>
	<g>
		<g>
			<path class="st3" d="M120.2,44.4c-0.3,1.9-2.3,2.4-3.9,2.3c-0.6-0.1-0.6,0.9,0,1c2.3,0.2,4.6-0.9,4.9-3.3
				C121.3,43.8,120.3,43.8,120.2,44.4L120.2,44.4z"/>
		</g>
	</g>
	<g>
		<g>
			<path class="st3" d="M116.1,47.7c1.4,0.2,2.6,0.6,3.6-0.6c0.8-1,1.6-2.3,1.6-3.6c0-0.6-1-0.6-1,0c0,1-0.5,1.8-1.1,2.6
				c-0.3,0.5-0.7,0.9-1.3,1c-0.5,0-1.1-0.1-1.6-0.2C115.7,46.7,115.5,47.6,116.1,47.7L116.1,47.7z"/>
		</g>
	</g>
	<g>
		<g>
			<path class="st3" d="M63.1,38c-0.1,0.3-0.9,0.6-1.2,0.7c-0.4,0.2-0.9,0.3-1.4,0.4c-0.6,0-0.6,1,0,1c0.7,0,1.3-0.2,1.9-0.5
				c0.5-0.2,1.3-0.6,1.5-1.1C64.2,38,63.4,37.5,63.1,38L63.1,38z"/>
		</g>
	</g>
	<g>
		<g>
			<path class="st3" d="M86.9,42.9c-0.4-0.1-0.7-0.4-1-0.6c-0.3-0.3-0.4-0.8-0.4-1.3c-0.1-0.6-1.1-0.4-1,0.3
				c0.1,0.6,0.2,1.3,0.7,1.7c0.4,0.3,0.9,0.8,1.5,0.9C87.2,44,87.5,43,86.9,42.9L86.9,42.9z"/>
		</g>
	</g>
	<g>
		<g>
			<path class="st3" d="M148.5,46.5c-0.1,0.2-0.3,0.4-0.5,0.5c0.1,0.3,0.3,0.6,0.4,0.9c1-0.5,1.9-1.6,2-2.7c0.1-0.6-0.9-0.6-1,0
				c-0.1,0.7-0.9,1.5-1.5,1.8c-0.5,0.3-0.2,1.1,0.4,0.9c0.6-0.2,1-0.6,1.2-1.2C149.7,46.2,148.7,45.9,148.5,46.5L148.5,46.5z"/>
		</g>
	</g>
	<g>
		<g>
			<path class="st3" d="M233.8,49.6c-0.8,0.1-2,0-2.4-0.9c-0.3-0.6-0.3-1.3-0.7-1.9c-0.3-0.5-1.2,0-0.9,0.5c0.5,0.8,0.4,1.8,1.1,2.5
				c0.7,0.7,1.8,0.9,2.8,0.8C234.5,50.5,234.5,49.5,233.8,49.6L233.8,49.6z"/>
		</g>
	</g>
	<g>
		<g>
			<path class="st3" d="M344.4,30c0.7,0.3,1.3,1,1.5,1.8c0.4,1.4-1,2-2.2,2.1c-1.7,0-2.9-1.2-4-2.4c-0.4-0.5-1.1,0.2-0.7,0.7
				c1.6,1.9,4.3,3.9,6.8,2.1c2-1.4,1-4.2-1-5.1C344.3,28.8,343.8,29.7,344.4,30L344.4,30z"/>
		</g>
	</g>
	<g>
		<g>
			<path class="st3" d="M199.3,45.4c-0.2,2.2,1.1,3,3.1,3.7c1.8,0.6,3.1,0.3,4.2-1.2c0.4-0.5-0.5-1-0.9-0.5
				c-0.9,1.2-1.8,1.2-3.2,0.7c-1.3-0.5-2.3-1.1-2.2-2.7C200.4,44.7,199.4,44.7,199.3,45.4L199.3,45.4z"/>
		</g>
	</g>
	<g>
		<g>
			<path class="st3" d="M206.2,47.3c-0.3,1.4-2.3,1.8-3.5,1.4c-1.1-0.4-1.8-1.5-2.3-2.6c-0.2-0.6-1.2-0.3-1,0.3
				c0.6,1.5,1.7,3.2,3.5,3.4c1.7,0.2,3.8-0.4,4.3-2.2C207.3,46.9,206.3,46.6,206.2,47.3L206.2,47.3z"/>
		</g>
	</g>
	<g>
		<g>
			<path class="st3" d="M237.4,46c0.1,2.5-2.5,3.3-4.6,3.2c-0.6,0-0.6,1,0,1c2.6,0.1,5.7-1.2,5.6-4.2
				C238.4,45.3,237.4,45.3,237.4,46L237.4,46z"/>
		</g>
	</g>
	<g>
		<g>
			<path class="st3" d="M231.9,49.7c0.8,0.6,1.6,0.7,2.6,0.7c0.9,0,1.3-0.3,1.9-0.9c0.4-0.5-0.3-1.2-0.7-0.7
				c-0.5,0.6-0.8,0.7-1.5,0.6c-0.7,0-1.2-0.2-1.8-0.6C231.9,48.4,231.4,49.3,231.9,49.7L231.9,49.7z"/>
		</g>
	</g>
</g>
<g id="Layer_1">
	<path class="st4" d="M15.9,16.5c0.3-1.8,0.4-3.6,0.4-5.4c0-1.1,0.2-3.5-1.4-3.8c-2.7-0.4-1.9,4-1,6.6c-2.2-2.5-6-6.3-7.2-2.9
		c-0.5,1.4,0.3,2.6,1.4,3.4c1.1,0.7,2.4,1,3.6,1.4c0.8,0.3,1.5,0.5,2.3,0.7c0,0-0.1,0-0.1,0.1c-0.5,0.6-1.1,1.1-1.8,1.6
		c-0.7,0.4-1.4,0.7-2.1,1.1c-0.4,0.2-0.4,1.1,0.2,1c1.7-0.3,3.3-1.7,4.2-3.1c0,0,0-0.1,0-0.1c-0.2,1-0.4,2.1-0.6,3.1
		c-0.2,0.8,1,0.9,1.2,0.2c0.3-0.9,0.5-1.8,0.6-2.7c2.9,1.9,5.8,3.6,8.8,5.3c-4.7,6.5-9.1,18.5,0.8,22.8c9.8,4.2,15.1-7,17.2-14.4
		c0,0,0,0,0-0.1c1,0.4,2.1,0.8,3.1,1.2l0.4-0.9C35.5,27.4,25.5,22.3,15.9,16.5z M11.5,14.5c-1.1-0.4-3.6-1-3.8-2.5
		c-0.2-1.4,1.2-1.2,1.9-0.6c0.7,0.5,1.3,1.1,1.9,1.7c0.8,0.7,1.5,1.5,2.2,2.3C13,15.1,12.3,14.8,11.5,14.5z M14,11.5
		c0-0.8-0.2-1.6,0.6-1.9c0.9-0.3,0.5,0.8,0.5,1.6c0,1.2-0.1,2.3-0.3,3.5C14.4,13.7,14,12.6,14,11.5z M29.8,25.5c2,1,4,1.9,6,2.8
		c-1.1,1.5-2.6,2.9-4.7,2C29.4,29.4,29.2,27.2,29.8,25.5z M41.1,30.9c-2,6.5-7,17.9-15.9,12.6c-7.8-4.6-2.9-14.4,0.4-20.2
		c1.2,0.6,2.4,1.3,3.6,1.9c-1.4,1.9-0.6,4.8,1.4,5.9c2,1.1,5.7,0.1,6-2.5c1.6,0.7,3.1,1.3,4.7,1.9C41.2,30.7,41.1,30.8,41.1,30.9z"
		/>
	<path class="st4" d="M99.4,39.9c-14.6-1.9-30.5-3.3-44.9-6.5c-3-0.7-6-1.4-9-2.3l-0.3,1c1.8,0.5,3.7,1,5.5,1.4
		c-2.9,6.3-5,17.9,4,19.9c9.5,2.1,14.8-8.7,16.1-16c2.4,0.4,4.8,0.8,7.2,1.1c-1.7,7.6-1.5,19.3,8.5,20.4c9.6,1,13.2-9.8,12.7-17.4
		c0,0,0,0,0-0.1c0.3,0,0.7,0.1,1,0.1c2.6,0.3,5.2,0.6,7.7,0.9c-2.2,7,0.7,18,9.2,18.9c9.3,1,11.2-10.4,11.3-17.1
		c0-0.3-0.1-0.5-0.3-0.7c1.2,0,2.5,0,3.7,0l0-1.7C121.2,42,110.4,41.4,99.4,39.9z M64.3,36.4c-0.4,2.2-2.6,4.1-4.9,3.4
		c-2.2-0.6-3.1-2.9-2.8-5C59.1,35.4,61.7,35.9,64.3,36.4z M69.4,37.3c-1.1,6.2-5.3,15.7-13.4,14.8c-9.1-1-5.5-12.5-4.1-18.3
		c1.3,0.3,2.6,0.6,3.9,0.9c-0.9,2.7,1,5.8,3.8,6.3c2.8,0.5,5.4-1.7,5.8-4.4c1,0.2,3,0.5,4.1,0.6C69.4,37.2,69.4,37.3,69.4,37.3z
		 M91.9,40.5c-0.4,2.3-2.6,4.3-5,3.2c-1.6-0.8-2.3-2.5-2.1-4.2C87.2,39.8,89.6,40.1,91.9,40.5z M85.8,57.2c-8.5-2-7.1-11.8-6.6-18.5
		c1.6,0.2,3.2,0.4,4.8,0.7c-0.5,2.2,0.8,4.7,2.9,5.5c2.7,1,6.2-1.3,6.2-4.2c1.7,0.2,3.3,0.4,5,0.7c-0.1,0.1-0.2,0.3-0.2,0.5
		C98.3,48.7,94.8,59.3,85.8,57.2z M120.8,43.3c0,2.2-1.6,4.4-4,4.2c-2.3-0.2-3.6-2.5-3.5-4.6C115.8,43.1,118.3,43.2,120.8,43.3z
		 M118,59.8c-8.4-0.3-9.8-11.1-9.1-17.3c1.3,0.1,2.5,0.2,3.7,0.3c-0.6,2.7,1.5,5.6,4.3,5.8c2.9,0.2,5.2-2.5,5.1-5.2
		c1.7,0.1,3.5,0.1,5.2,0.1c-0.1,0.1-0.3,0.3-0.3,0.6C126.8,49.8,126,60.1,118,59.8z"/>
	<path class="st4" d="M368.9,23.5c-2.3-0.8-4.9-1.2-7.3-1.5c1.7-0.5,3.4-1.2,4.8-2.4c1.1-1,3.5-3.2,1.8-4.8
		c-1.3-1.2-3.7-0.2-4.9,0.6c-1.7,1-3,2.6-3.6,4.4c0-1.6-0.7-3.3-1.7-4.5c-0.8-1-2.5-2.9-3.9-1.7c-1.3,1.1-0.6,3.4,0.1,4.5
		c0.9,1.5,2.4,2.7,3.9,3.6c-16.1,8.2-32.5,13.5-49.6,16.6c-0.4,0.1-0.8,0.2-1.2,0.4c0,0,0,0,0,0c0,0-0.1,0-0.1,0
		c-0.2,0.1-0.5,0.2-0.7,0.2c-0.6,0.2-1.2,0.5-1.9,0.6l0.2,1.1c1.5-0.2,2.9-0.5,4.4-0.7c-0.7,6.5,4.2,14.6,11.2,15.1
		c9.5,0.7,8.4-13.7,7.6-19.4c0,0,0,0,0,0c2.1-0.6,4.1-1.3,6.2-1.9c2.4,6.1,10.2,16.5,17.4,11.6c3.1-2.1,4.3-6.2,4.1-9.7
		c-0.1-2.6-0.9-7.7-3.5-9.3c2.3-1.1,4.6-2.3,6.9-3.5c0,0,0,0,0,0c1.2,1.5,2.4,3,3.7,4.4c0.4,0.5,1.2-0.2,0.8-0.7
		c-0.9-1.3-1.9-2.5-2.9-3.7c2.7,0.5,5.4,1.2,8.1,1.7C369.3,24.4,369.4,23.7,368.9,23.5z M319.7,37.6c0.3,1.7,0.6,4.6-1.8,4.7
		c-1.9,0.1-3.1-1.8-3.3-3.5C316.3,38.4,318.1,38,319.7,37.6z M319.5,53.1c-6.1-1.3-9-7.9-9.4-13.4c0,0,0-0.1,0-0.1
		c1.3-0.2,2.5-0.5,3.7-0.7c0.1,2.3,2,4.9,4.6,4.5c2.9-0.5,2.9-3.8,2.5-6.1c1.9-0.5,3.7-0.9,5.6-1.5
		C326.9,41.2,328.3,55.1,319.5,53.1z M345.5,29.1c-0.4,0.2-0.5,0.9,0,1.2c0.9,0.5,1,1.7,0.7,2.6c-0.4,1.1-1.5,1.6-2.7,1.6
		c-2,0-3.4-1.4-4.7-2.7C341,31,343.3,30.1,345.5,29.1z M354,37.9c-0.7,4.3-3.6,7.9-8.5,6.2c-5-1.7-8.1-6.4-10.3-11
		c1-0.3,1.9-0.7,2.9-1c1.6,2.5,4.8,4.7,7.8,3.1c2.3-1.2,2.6-4.6,0.3-6.1c-0.2-0.1-0.3-0.1-0.4-0.1c1.6-0.7,3.2-1.4,4.9-2.2
		c0,0,0.1,0.1,0.1,0.1C353.5,28.5,354.4,35.1,354,37.9z M354.5,15.6c-0.2-0.7,0.2-1.1,1-1.2c0.4,0.2,0.7,0.5,1,0.8
		c0.4,0.4,0.8,0.9,1.1,1.4c0.8,1.3,0.9,2.7,1,4.2C356.7,19.5,354.6,17.9,354.5,15.6z M360,21c0.5-1.3,1.2-2.5,2.1-3.4
		c0.7-0.7,1.6-1.3,2.5-1.7c1.1-0.5,1.6-1,1.8,0.6c0.2,1.4-0.1,1.5-1.3,2.4c-0.5,0.4-1.1,0.7-1.7,1C362.3,20.5,361.2,20.8,360,21z"/>
	<path class="st4" d="M215.1,45.6c-0.1-0.1-0.1-0.3,0-0.4c0-0.2,0-0.4-0.1-0.6c0-0.3-0.2-0.5-0.4-0.6c0.2,0,0.4,0,0.6-0.1
		c-0.1-0.1-0.1-0.1-0.2-0.2c0,0,0,0,0,0c-0.1,0.1-0.2,0.2-0.4,0.2c-0.2,0-0.4-0.1-0.4-0.3c0,0,0,0-0.1,0c0,0-0.1,0-0.1,0
		c-0.1,0-0.2,0-0.3-0.1c-0.1,0-0.1,0-0.1,0c0,0-0.1,0.1-0.1,0.1c-0.1,0.1-0.2,0.3-0.4,0.3c-0.2,0-0.4-0.1-0.5-0.3
		c0,0.1-0.1,0.1-0.2,0.1c-0.1,0.1-0.2,0.2-0.4,0.2c-0.3,0-0.4-0.2-0.5-0.4c0,0-0.1,0-0.1,0h-0.4c-0.1,0-0.1,0-0.2-0.1c0,0,0,0,0,0
		c-0.1,0-0.2,0-0.2,0c0,0,0,0,0,0c0,0,0,0,0,0c0.1,0,0,0,0,0c-0.1,0.1-0.2,0.1-0.3,0.1c-0.1,0-0.2,0-0.3-0.1c0,0,0,0-0.1,0
		c0,0,0,0,0,0c0,0,0,0,0,0c-0.1,0-0.1,0-0.2,0c-0.1,0-0.2,0-0.3,0c0,0,0,0-0.1,0c0,0,0,0,0,0c-0.1,0.1-0.2,0.1-0.3,0.1
		c-0.1,0-0.2,0-0.3-0.1c0,0.2-0.2,0.4-0.5,0.4c-0.3,0-0.4-0.2-0.5-0.4c0,0-0.1-0.1-0.1-0.1c-0.1,0-0.1,0-0.2,0c0,0.1,0,0.1,0,0.2
		c0,0.1-0.1,0.2-0.2,0.3c0,0-0.1,0-0.1,0c0,0,0,0-0.1,0c0,0,0,0,0,0c0,0,0,0,0,0c-0.2,0-0.3-0.1-0.4-0.2c-0.1,0.1-0.2,0.2-0.3,0.2
		c-0.2,0-0.3-0.1-0.4-0.3c-0.1,0.1-0.2,0.1-0.3,0.1c-0.2,0-0.3-0.1-0.4-0.2c0,0,0,0,0,0c0,0-0.1,0.1-0.1,0.1
		c-0.1,0.1-0.2,0.2-0.4,0.2c-0.2,0-0.4-0.1-0.5-0.3c0,0,0,0,0,0c-0.1,0-0.1,0.1-0.2,0.1c-0.1,0-0.1,0-0.1,0c-0.2,0-0.3,0-0.5,0
		c0,0,0,0-0.1,0c0,0,0,0-0.1,0c-0.1,0-0.2,0-0.3,0c0,0,0,0,0,0c0,0,0,0,0,0c-0.2,0-0.4,0-0.5,0c-0.1,0-0.2,0-0.3-0.1
		c-5.4,0.3-10.9,0.5-16.4,0.4c-14.7-0.2-30.7,0.3-45.3-1.3C137,42,133,42.5,130,42l-1,1c1.9,0.3,5.6-0.4,7.5-0.1
		c-2.2,6.6-2.9,18.4,6.3,19.3c9.7,1,13.7-10.4,14.2-17.8c2.4,0.1,4.9,0.2,7.3,0.3c-0.8,7.7,0.7,19.3,10.8,19.3
		c9.7-0.1,12-11.3,10.7-18.8c0,0,0,0,0-0.1c0.3,0,0.7,0,1,0c2.6,0,5.2,0,7.8,0c-1.4,7.2,2.7,17.8,11.3,17.7
		C214.7,62.8,215.6,52.4,215.1,45.6z M150.2,44.1c-0.1,2.2-2.1,4.4-4.5,4c-2.2-0.4-3.4-2.5-3.4-4.6C145,43.8,147.6,44,150.2,44.1z
		 M155.4,44.5c-0.4,6.3-3.4,16.2-11.6,16.3c-9.2,0-6.9-11.8-6.2-17.7c1.3,0.2,2.7,0.3,4,0.4c-0.6,2.8,1.6,5.7,4.5,5.8
		c2.9,0.2,5.2-2.3,5.3-5.1c1,0.1,3.1,0.1,4.1,0.2C155.4,44.4,155.4,44.4,155.4,44.5z M178.2,45c-0.2,2.3-2.1,4.6-4.6,3.8
		c-1.7-0.6-2.6-2.2-2.6-3.9C173.4,44.9,175.8,45,178.2,45z M174,62.3c-8.7-1-8.4-10.9-8.7-17.6c1.6,0,3.2,0.1,4.8,0.1
		c-0.3,2.2,1.3,4.6,3.5,5.1c2.8,0.7,6-2,5.6-4.9c1.7,0,3.4,0.1,5.1,0.1c-0.1,0.2-0.1,0.3-0.1,0.5C185.4,52.5,183.2,63.4,174,62.3z
		 M207.2,44.6c0.3,2.2-1.1,4.5-3.5,4.6c-2.3,0.1-3.9-2.1-4-4.2C202.2,44.9,204.7,44.7,207.2,44.6z M206.2,61.3
		c-8.3,0.7-11-9.9-11-16.2c1.3,0,2.5-0.1,3.8-0.1c-0.3,2.7,2.2,5.4,4.9,5.3c2.9-0.1,4.9-3.1,4.5-5.8c1.7-0.1,3.5-0.3,5.2-0.5
		c-0.1,0.1-0.2,0.3-0.2,0.6C213.9,50.3,214.3,60.6,206.2,61.3z"/>
	<path class="st4" d="M305.4,39.2C305.3,39.2,305.3,39.2,305.4,39.2c-0.3,0.1-0.5,0.1-0.7,0.1c-10.3,2-20.8,3.2-31.6,3.7
		c-14.7,0.7-30.6,2-45.3,1.4c-3.1-0.1-6.2-0.4-9.2-0.7l-0.1,1c1.9,0.2,3.8,0.3,5.7,0.4c-0.1,0.3-0.1,0.6-0.2,0.9
		c0.1,0.2,0,0.5-0.1,0.7c-1.4,6.9-0.8,17,7.8,17.4c9.7,0.4,13.1-11.2,13.1-18.6c2.4,0,4.9-0.1,7.3-0.1c-0.4,7.8,1.8,19.3,11.9,18.6
		c9.7-0.7,11.3-12,9.5-19.4c0,0,0,0,0-0.1c0.3,0,0.7,0,1,0c2.6-0.1,5.2-0.3,7.8-0.5c-1,7.2,3.8,17.6,12.3,17
		c9.3-0.6,9.2-12.2,8.2-18.8c0-0.3-0.2-0.5-0.5-0.6c1.2-0.2,2.4-0.4,3.6-0.7L305.4,39.2z M237.8,45.6c0,2.2-1.8,4.5-4.2,4.2
		c-0.2,0-0.4-0.1-0.6-0.2c0,0-0.1,0-0.1,0h0c0,0,0,0,0,0c0,0,0,0,0,0c-0.2,0-0.3-0.1-0.3-0.2c-0.1,0-0.1-0.1-0.2-0.1
		c-0.1,0-0.1,0-0.1-0.1c-1.3-0.8-2.1-2.3-2.1-3.9C232.5,45.6,235.2,45.6,237.8,45.6z M243,45.7c0,6.3-2.5,16.4-10.7,16.9
		c-9.2,0.6-7.6-11.3-7.2-17.3c1.3,0.1,2.7,0.1,4,0.2c-0.4,2.8,2,5.6,4.8,5.6c2.9,0,5-2.6,5-5.4c1,0,3.1-0.1,4.1-0.1
		C243,45.6,243,45.6,243,45.7z M265.8,44.8c0,2.3-1.8,4.7-4.4,4.1c-1.7-0.5-2.7-2.1-2.8-3.8C261,45,263.4,44.9,265.8,44.8z
		 M262.6,62.4c-8.7-0.5-9.1-10.4-9.7-17c1.6,0,3.2-0.1,4.8-0.2c-0.2,2.2,1.6,4.5,3.8,4.9c2.9,0.5,5.8-2.4,5.3-5.3
		c1.7-0.1,3.4-0.1,5.1-0.2c-0.1,0.2-0.1,0.3-0.1,0.5C273.5,51.8,271.8,62.9,262.6,62.4z M287,44.2c0,0,0-0.1,0-0.1c0,0,0,0,0-0.1
		c0,0,0-0.1,0.1-0.1c0,0,0,0,0,0c0,0,0.1-0.1,0.1-0.1c0,0,0,0,0,0c0-0.1,0-0.1,0-0.2c2.5-0.2,5-0.5,7.5-0.9c0.4,2.1-0.9,4.6-3.2,4.8
		c-1.8,0.2-3.2-1-3.9-2.5c-0.1-0.1-0.1-0.1-0.1-0.3c0,0,0,0,0,0c0,0,0,0,0,0c0,0,0,0-0.1,0c-0.1,0-0.1,0-0.2,0c0,0,0,0,0,0
		c0,0-0.1,0-0.1-0.1c0,0,0,0,0-0.1c0,0,0-0.1,0-0.1c0,0,0,0,0-0.1C287,44.3,287,44.3,287,44.2C287,44.2,287,44.2,287,44.2z
		 M294.8,59.4c-8.3,1.2-11.6-9.2-11.9-15.5c1.3-0.1,2.5-0.2,3.7-0.3c-0.2,2.7,2.5,5.2,5.2,4.9c2.8-0.3,4.7-3.4,4.1-6
		c1.7-0.2,3.4-0.5,5.1-0.8c-0.1,0.1-0.2,0.3-0.2,0.6C301.7,47.9,302.7,58.2,294.8,59.4z"/>
	<g>
		<g>
			<path class="st4" d="M217.2,43.5c-3.1,0.2-6.3,0.3-9.4-0.2c0,0-0.1,1,0,1c3.1,0.5,6.3,0.4,9.4,0.2
				C217.3,44.5,217.3,43.5,217.2,43.5L217.2,43.5z"/>
		</g>
	</g>
	<g>
		<g>
			<path class="st4" d="M211.7,44.3c2.3-0.1,4.5,0.5,6.8,0.3c0.1,0,0.1-1,0-1c-2.3,0.2-4.5-0.3-6.8-0.3
				C211.6,43.3,211.6,44.3,211.7,44.3L211.7,44.3z"/>
		</g>
	</g>
	<g>
		<g>
			<path class="st4" d="M213.7,44.6c3.5,0.6,7.1,1,10.6,1.3c0.1,0,0.1-1,0-1c-3.6-0.3-7.1-0.7-10.6-1.3
				C213.7,43.6,213.6,44.6,213.7,44.6L213.7,44.6z"/>
		</g>
	</g>
	<g>
		<g>
			<path class="st4" d="M224.3,45.7c1.7,0,3.4,0,5.1,0c0.1,0,0.1-1,0-1c-1.7,0-3.4,0-5.1,0C224.2,44.7,224.2,45.7,224.3,45.7
				L224.3,45.7z"/>
		</g>
	</g>
	<g>
		<g>
			<path class="st4" d="M229.3,45.9c2.3-0.1,4.7-0.1,7-0.2c0.1,0,0.1-1,0-1c-2.3,0.1-4.7,0.1-7,0.2
				C229.3,44.9,229.3,45.9,229.3,45.9L229.3,45.9z"/>
		</g>
	</g>
	<g>
		<g>
			<path class="st4" d="M208.3,44.7c1.8,0,3.7-0.1,5.5-0.1c0.1,0,0.1-1,0-1c-1.8,0-3.7,0.1-5.5,0.1
				C208.2,43.7,208.2,44.7,208.3,44.7L208.3,44.7z"/>
		</g>
	</g>
	<g>
		<g>
			<path class="st4" d="M216.3,44.4c7.2,0.3,14.5,0.7,21.7,0.8c0.1,0,0.1-1,0-1c-7.3-0.1-14.5-0.5-21.7-0.8
				C216.3,43.4,216.2,44.4,216.3,44.4L216.3,44.4z"/>
		</g>
	</g>
	<g>
		<g>
			<path class="st4" d="M216.6,44.5c11,1.2,22,1.5,33.1,0.8c0.1,0,0.1-1,0-1c-11,0.7-22.1,0.5-33.1-0.8
				C216.5,43.5,216.5,44.5,216.6,44.5L216.6,44.5z"/>
		</g>
	</g>
	<g>
		<g>
			<path class="st4" d="M213.7,44.1c-4-0.1-8-0.1-12-0.2c-0.1,0-0.1,1,0,1c4,0.1,8,0.1,12,0.2C213.8,45.1,213.8,44.1,213.7,44.1
				L213.7,44.1z"/>
		</g>
	</g>
	<g>
		<g>
			<path class="st4" d="M203.7,44.3c1.3,0,2.7,0,4,0c0.1,0,0.1-1,0-1c-1.3,0-2.7,0-4,0C203.6,43.3,203.6,44.3,203.7,44.3L203.7,44.3
				z"/>
		</g>
	</g>
	<g>
		<g>
			<path class="st4" d="M201.8,44.3c0.7,0,1.4,0.1,2.1,0c0.1,0,0.1-1,0-1c-0.7,0.1-1.4-0.1-2.1,0C201.7,43.3,201.7,44.3,201.8,44.3
				L201.8,44.3z"/>
		</g>
	</g>
	<g>
		<g>
			<path class="st4" d="M201.8,44.3c0.5,0,1,0.1,1.6,0c0.1,0,0.1-1,0-1c-0.5,0-1-0.1-1.6,0C201.7,43.3,201.8,44.3,201.8,44.3
				L201.8,44.3z"/>
		</g>
	</g>
	<g>
		<g>
			<path class="st4" d="M199.3,44.4c3.3-0.2,6.6-0.1,9.9,0.3c0,0,0.1-1,0-1c-3.3-0.4-6.6-0.5-9.9-0.3
				C199.2,43.4,199.2,44.4,199.3,44.4L199.3,44.4z"/>
		</g>
	</g>
	<g>
		<g>
			<path class="st4" d="M203.7,43.3c-0.3,0-0.5,0-0.8,0c-0.1,0-0.1,1,0,1c0.3,0,0.5,0,0.8,0C203.7,44.3,203.8,43.3,203.7,43.3
				L203.7,43.3z"/>
		</g>
	</g>
	<g>
		<g>
			<path class="st4" d="M203.7,43.3C203.7,43.3,203.6,43.3,203.7,43.3c-0.1,0-0.2,1-0.1,1c0,0,0,0,0.1,0
				C203.7,44.3,203.8,43.3,203.7,43.3L203.7,43.3z"/>
		</g>
	</g>
	<g>
		<g>
			<path class="st4" d="M203.7,43.3C203.7,43.3,203.7,43.3,203.7,43.3c0,0.3,0,0.7,0,1c0,0,0,0,0,0
				C203.7,44.3,203.9,43.3,203.7,43.3C203.7,43.3,203.7,43.3,203.7,43.3c0,0-0.2,0.9,0,1c0,0,0,0,0,0
				C203.7,44.3,203.9,43.4,203.7,43.3L203.7,43.3z"/>
		</g>
	</g>
	<g>
		<g>
			<path class="st4" d="M202,44.3c0.3,0,0.7,0,1,0.1c0,0,0.1-1,0-1c-0.3,0-0.6-0.1-1-0.1C201.9,43.3,201.9,44.3,202,44.3L202,44.3z"
				/>
		</g>
	</g>
	<g>
		<g>
			<path class="st4" d="M202.9,43.3c-0.1,0-0.2,0-0.3,0c-0.1,0-0.1,1,0,1c0.1,0,0.2,0,0.3,0C203,44.3,203,43.3,202.9,43.3
				L202.9,43.3z"/>
		</g>
	</g>
	<g>
		<g>
			<path class="st4" d="M202.9,43.3c-0.2,0-0.3,0-0.5,0c-0.1,0-0.1,1,0,1c0.2,0,0.3,0,0.5,0C203,44.3,203,43.3,202.9,43.3
				L202.9,43.3z"/>
		</g>
	</g>
	<g>
		<g>
			<path class="st4" d="M211.8,43.3c-0.4,0-0.7,0-1.1,0c-0.1,0-0.1,1,0,1c0.4,0,0.7,0,1.1,0C211.8,44.3,211.9,43.3,211.8,43.3
				L211.8,43.3z"/>
		</g>
	</g>
	<g>
		<g>
			<path class="st4" d="M210.7,43.3c-0.4,0-0.9,0-1.3,0c-0.1,0-0.1,1,0,1c0.4,0,0.9,0,1.3,0C210.8,44.3,210.8,43.3,210.7,43.3
				L210.7,43.3z"/>
		</g>
	</g>
	<g>
		<g>
			<path class="st4" d="M209.4,43.3c-0.5,0-1,0-1.5,0.1c-0.1,0-0.1,1,0,1c0.5,0,1,0,1.5-0.1C209.5,44.3,209.5,43.3,209.4,43.3
				L209.4,43.3z"/>
		</g>
	</g>
	<g>
		<g>
			<path class="st4" d="M207.5,44.3c0.5,0,1,0,1.5,0.1c0,0,0.1-1,0-1c-0.5-0.1-1-0.1-1.5-0.1C207.4,43.3,207.4,44.3,207.5,44.3
				L207.5,44.3z"/>
		</g>
	</g>
	<g>
		<g>
			<path class="st4" d="M215,46.1c0.1,0,0.1-1,0-1C215,45.1,215,46.1,215,46.1L215,46.1z"/>
		</g>
	</g>
	<g>
		<g>
			<path class="st4" d="M215,46c0.1,0,0.1-1,0-1C215,45,215,46,215,46L215,46z"/>
		</g>
	</g>
	<g>
		<g>
			<path class="st4" d="M216.3,43.4c-0.6,0-1.3,0-1.9,0.1c-0.1,0-0.1,1,0,1c0.6,0,1.3-0.1,1.9-0.1C216.4,44.4,216.4,43.5,216.3,43.4
				L216.3,43.4z"/>
		</g>
	</g>
	<g>
		<g>
			<path class="st4" d="M213.7,44.4c0.7,0,1.5,0.1,2.2,0.1c0.1,0,0.1-1,0-1c-0.7-0.1-1.5-0.1-2.2-0.1
				C213.6,43.4,213.6,44.4,213.7,44.4L213.7,44.4z"/>
		</g>
	</g>
	<g>
		<g>
			<path class="st4" d="M213.7,43.4c-0.3,0-0.5,0-0.8,0c-0.1,0-0.1,1,0,1c0.3,0,0.5,0,0.8,0C213.8,44.4,213.8,43.4,213.7,43.4
				L213.7,43.4z"/>
		</g>
	</g>
	<g>
		<g>
			<path class="st4" d="M223.8,46.2c0-0.1-0.1,0.1-0.1,0.1c0,0.1,0,0.2-0.1,0.3c0,0.2,0,0.5,0,0.7c0,0,0,0.4,0.1,0.2
				c0-0.3,0.2-0.5,0.2-0.8c0-0.1,0.1-0.6,0-0.7C223.8,45.9,223.9,46.1,223.8,46.2L223.8,46.2z"/>
		</g>
	</g>
	<g>
		<g>
			<path class="st4" d="M223.9,46c0,0.3-0.1,0.5-0.1,0.7c0,0.2,0,0.5,0,0.7c0,0,0,0.4,0.1,0.2c0-0.3,0.1-0.5,0.1-0.7
				c0-0.2,0-0.5,0-0.7C223.9,46.1,223.9,45.8,223.9,46L223.9,46z"/>
		</g>
	</g>
	<g>
		<g>
			<path class="st4" d="M223.8,47.1c0,0.5,0.1-0.1,0.1-0.2c0-0.2,0-0.5,0-0.7c0,0,0-0.4-0.1-0.2c-0.1,0.5-0.2,0.8-0.2,1.3
				c0,0.1,0,0.4,0.1,0.3C223.8,47.6,223.8,47.1,223.8,47.1L223.8,47.1z"/>
		</g>
	</g>
	<g>
		<g>
			<path class="st4" d="M223.8,46.2c0,0.2-0.1,0.5-0.2,0.7c0,0.2,0,0.5,0,0.7c0,0,0,0.4,0.1,0.2c0.1-0.4,0.2-0.7,0.2-1.1
				c0-0.2,0.1-0.6,0-0.7C223.8,45.9,223.8,46,223.8,46.2L223.8,46.2z"/>
		</g>
	</g>
	<g>
		<g>
			<path class="st4" d="M223.9,46.9c0,0,0,0.1,0,0.1c0.1-0.2,0-0.4,0-0.6c0-0.1-0.1-0.4-0.1-0.3c-0.1,0.3-0.1,0.5-0.1,0.8
				c0,0,0,0.5,0.1,0.5C223.9,47.3,223.9,46.9,223.9,46.9L223.9,46.9z"/>
		</g>
	</g>
	<g>
		<g>
			<path class="st4" d="M131.9,42.8c1.7,0.1,3.3,0.3,5,0.4c0.1,0,0.1-1,0-1c-1.7-0.1-3.3-0.3-5-0.4
				C131.8,41.8,131.8,42.8,131.9,42.8L131.9,42.8z"/>
		</g>
	</g>
	<g>
		<g>
			<path class="st4" d="M131.4,43.5c1.6-0.2,3.1,0,4.7,0.1c1.8,0.1,3.7,0,5.5,0.1c0.1,0,0.1-1,0-1c-1.8-0.1-3.7,0-5.5-0.1
				c-1.6-0.1-3.1-0.3-4.7-0.1C131.3,42.6,131.4,43.5,131.4,43.5L131.4,43.5z"/>
		</g>
	</g>
	<g>
		<g>
			<path class="st4" d="M138.5,42.3c-0.5,0-1.1-0.1-1.6-0.1c-0.1,0-0.1,1,0,1c0.5,0,1.1,0.1,1.6,0.1
				C138.5,43.3,138.6,42.3,138.5,42.3L138.5,42.3z"/>
		</g>
	</g>
	<g>
		<g>
			<path class="st4" d="M238,45.3c2.7-0.2,5.4,0.1,8,0.2c0.1,0,0.1-1,0-1c-2.7-0.1-5.4-0.4-8-0.2C237.9,44.3,237.9,45.3,238,45.3
				L238,45.3z"/>
		</g>
	</g>
	<g>
		<g>
			<path class="st4" d="M236.2,45.8c0.5,0,1-0.1,1.6-0.1c0.1,0,0.1-1,0-1c-0.5,0-1,0.2-1.6,0.1C236.2,44.8,236.2,45.7,236.2,45.8
				L236.2,45.8z"/>
		</g>
	</g>
	<g>
		<g>
			<path class="st4" d="M251.2,44.2c-0.5,0-1,0-1.5,0.1c-0.1,0-0.1,1,0,1c0.5,0,1-0.1,1.5-0.1C251.2,45.2,251.2,44.2,251.2,44.2
				L251.2,44.2z"/>
		</g>
	</g>
	<g>
		<g>
			<path class="st5" d="M286.8,45c0.1,0,0.2,0,0.2,0c0.1,0,0.1-1,0-1c-0.1,0-0.2,0-0.2,0C286.8,44,286.8,45,286.8,45L286.8,45z"/>
		</g>
	</g>
	<g>
		<g>
			<path class="st5" d="M287,44.6c0,0.2,0.1,0.4,0.2,0.6c0,0.1,0.1-0.3,0.1-0.3c0-0.2,0-0.4,0-0.6c-0.1-0.2-0.1-0.3-0.2-0.5
				c0-0.2-0.1,0.1-0.1,0.2C287,44.1,287,44.3,287,44.6L287,44.6z"/>
		</g>
	</g>
	<g>
		<g>
			<path class="st5" d="M287.5,44.7c-0.1-0.1-0.2-0.3-0.3-0.5c0-0.1-0.1,0.3-0.1,0.3c0,0.2,0,0.4,0,0.6c0.1,0.2,0.1,0.4,0.3,0.5
				c0,0,0.1-0.5,0.1-0.5C287.5,45.1,287.6,44.8,287.5,44.7L287.5,44.7z"/>
		</g>
	</g>
	<g>
		<g>
			<path class="st5" d="M287.5,44.7c-0.2-0.3-0.2-0.7-0.3-1c0-0.2-0.1,0.1-0.1,0.2c0,0.2,0,0.5,0,0.7c0.1,0.4,0.2,0.8,0.4,1.1
				c0,0.1,0.1-0.3,0.1-0.3C287.5,45.1,287.6,44.8,287.5,44.7L287.5,44.7z"/>
		</g>
	</g>
	<g>
		<g>
			<path class="st5" d="M287.2,44.6c0.1,0.4,0.1,0.9,0.4,1.3c0,0.1,0.1-0.3,0.1-0.3c0-0.1,0.1-0.5,0-0.6c-0.2-0.3-0.3-0.8-0.3-1.2
				c0-0.2-0.1,0.2-0.1,0.2C287.1,44.1,287.1,44.3,287.2,44.6L287.2,44.6z"/>
		</g>
	</g>
	<g>
		<g>
			<path class="st5" d="M305.5,40.9c1.2-0.3,2.4-0.8,3.6-1.2c0.2-0.1,0-1,0-1c-1.2,0.4-2.4,0.9-3.6,1.2
				C305.4,39.9,305.5,40.9,305.5,40.9L305.5,40.9z"/>
		</g>
	</g>
	<g>
		<g>
			<path class="st5" d="M345.2,29.9c0.6,0,0.6-1,0-1C344.5,28.9,344.5,29.9,345.2,29.9L345.2,29.9z"/>
		</g>
	</g>
	<g>
		<g>
			<path class="st5" d="M346,29.6c-0.1-0.3-0.2-0.5-0.4-0.8c-0.4-0.5-1.1,0.2-0.7,0.7c0.1,0.1,0.2,0.2,0.2,0.3
				C345.1,30.5,346.1,30.2,346,29.6L346,29.6z"/>
		</g>
	</g>
	<g>
		<g>
			<path class="st5" d="M345.7,29.3c-0.2,0-0.6-0.4-0.7-0.5c-0.5-0.4-1,0.5-0.5,0.9c0.4,0.3,0.7,0.6,1.2,0.7
				C346.4,30.4,346.4,29.4,345.7,29.3L345.7,29.3z"/>
		</g>
	</g>
	<g>
		<g>
			<path class="st5" d="M345.9,29c0,0-0.1,0-0.1-0.1c-0.5-0.4-1,0.5-0.5,0.9c0.1,0.1,0.2,0.1,0.4,0.2
				C346.3,30.1,346.6,29.1,345.9,29L345.9,29z"/>
		</g>
	</g>
	<g>
		<g>
			<path class="st5" d="M45.5,32.3c1.7,0.7,3.5,0.8,5.1,1.4c0.6,0.2,0.9-0.7,0.3-1c-1.7-0.6-3.5-0.8-5.1-1.4
				C45.2,31.1,44.9,32.1,45.5,32.3L45.5,32.3z"/>
		</g>
	</g>
	<g>
		<g>
			<path class="st5" d="M51.6,34c1.4,0.2,2.8,0.4,4.2,0.7c0.6,0.1,0.9-0.8,0.3-1c-1.4-0.3-2.8-0.5-4.2-0.7C51.2,33,50.9,34,51.6,34
				L51.6,34z"/>
		</g>
	</g>
	<g>
		<g>
			<path class="st5" d="M45.7,31.3c-0.5,0-1-0.3-1.4-0.5c-0.4-0.2-0.9-0.3-1.4-0.4c-0.6-0.2-0.9,0.8-0.3,1c1,0.3,2,0.8,3.1,0.9
				C46.4,32.4,46.4,31.4,45.7,31.3L45.7,31.3z"/>
		</g>
	</g>
	<g>
		<g>
			<path class="st5" d="M41.6,29.8c-0.9-0.1-1.7-0.6-2.5-0.9c-0.7-0.3-1.3-0.8-2.1-1c-0.6-0.2-0.9,0.8-0.3,1
				c0.4,0.1,0.6,0.4,0.9,0.5c0.4,0.2,0.8,0.3,1.1,0.5c0.8,0.3,1.7,0.7,2.5,0.9C42,30.8,42.2,29.9,41.6,29.8L41.6,29.8z"/>
		</g>
	</g>
</g>
<g id="Layer_2">
	<text transform="matrix(0.9397 0.342 -0.342 0.9397 23.1356 40.6601)" class="st6 st7 st8">C</text>
	<text transform="matrix(0.9659 0.2588 -0.2588 0.9659 52.1355 49.66)" class="st6 st7 st8">A</text>
	<text transform="matrix(0.9903 0.1392 -0.1392 0.9903 83.1356 55.6599)" class="st6 st7 st8">S</text>
	<text transform="matrix(0.9962 8.715574e-02 -8.715574e-02 0.9962 114.1359 58.6603)" class="st6 st7 st8">E</text>
	<text transform="matrix(1 0 0 1 171.1358 60.6601)" class="st6 st7 st8">S</text>
	<text transform="matrix(0.9994 -3.489950e-02 3.489950e-02 0.9994 202.1358 60.6602)" class="st6 st7 st8">T</text>
	<text transform="matrix(0.9998 1.745241e-02 -1.745241e-02 0.9998 228.1359 60.6602)" class="st6 st7 st8">U</text>
	<text transform="matrix(0.9976 -6.975648e-02 6.975648e-02 0.9976 260.136 60.6603)" class="st6 st7 st8">D</text>
	<text transform="matrix(0.9925 -0.1219 0.1219 0.9925 292.1362 57.6605)" class="st6 st7 st8">I</text>
	<text transform="matrix(0.9511 -0.309 0.309 0.9511 319.136 52.6604)" class="st6 st7 st8">E</text>
	<text transform="matrix(0.8746 -0.4848 0.4848 0.8746 347.1361 44.6603)" class="st6 st7 st8">S</text>
	<g>
		<g>
			<path class="st6" d="M359.4,84.1c0.6,0,0.6-1,0-1C358.7,83.1,358.7,84.1,359.4,84.1L359.4,84.1z"/>
		</g>
	</g>
</g>
</svg>
