<?xml version="1.0" encoding="utf-8"?>
<!-- Generator: Adobe Illustrator 22.1.0, SVG Export Plug-In . SVG Version: 6.00 Build 0)  -->
<svg version="1.1" xmlns="http://www.w3.org/2000/svg" xmlns:xlink="http://www.w3.org/1999/xlink" x="0px" y="0px"
	 viewBox="0 0 200 54" style="enable-background:new 0 0 200 54;" xml:space="preserve">
<style type="text/css">
	.st0{display:none;}
	.st1{display:inline;fill:#D1D3D4;}
	.st2{fill:#FFFFFF;}
	.st3{fill:#29394B;}
	.st4{fill:#1399AA;}
	.st5{fill:#E14658;}
</style>
<g id="Layer_4" class="st0">
	<rect class="st1" width="200" height="54"/>
</g>
<g id="Layer_7">
	<g>
		<g>
			<path class="st2" d="M30,38.5c1.9,0,1.9-3,0-3C28.1,35.5,28.1,38.5,30,38.5L30,38.5z"/>
		</g>
	</g>
	<g>
		<g>
			<path class="st2" d="M31.5,36.7c-0.2-1.8-1-3.4-1.7-5.1c-0.3-0.7-1-1.3-1.8-1c-0.7,0.2-1.4,1.1-1,1.8c0.6,1.3,1.4,2.8,1.6,4.3
				c0.1,0.8,0.6,1.5,1.5,1.5C30.7,38.2,31.6,37.5,31.5,36.7L31.5,36.7z"/>
		</g>
	</g>
	<g>
		<g>
			<path class="st2" d="M27.7,33c1.9,0,1.9-3,0-3C25.8,30,25.8,33,27.7,33L27.7,33z"/>
		</g>
	</g>
	<g>
		<g>
			<path class="st2" d="M29.4,33.7c1.6-0.1,3.8,1.3,4.6-0.9c0.3-0.8-0.3-1.6-1-1.8c-0.8-0.2-1.6,0.3-1.8,1c0,0,0,0.1,0,0.1
				c0.2-0.3,0.5-0.6,0.7-0.9c0,0-0.1,0-0.1,0c0.3-0.1,0.5-0.1,0.8-0.2c-0.4,0.1-0.9-0.1-1.3-0.2c-0.6-0.1-1.2-0.2-1.7-0.2
				c-0.8,0-1.5,0.7-1.5,1.5C27.9,33,28.6,33.8,29.4,33.7L29.4,33.7z"/>
		</g>
	</g>
	<g>
		<g>
			<path class="st2" d="M30.7,32.2c-0.2,0.3-0.3,0.7-0.4,1.1c0,0.1,0,0.1,0,0.2c0-0.1,0-0.1,0,0c0,0.1,0,0.1-0.2,0.2
				c-0.7,0.6-1.2,1.2-1.3,2.2c-0.1,0.8,0.7,1.5,1.5,1.5c0.9,0,1.4-0.7,1.5-1.5c0,0.1-0.1,0.2-0.1,0.3c-0.1,0.1-0.1,0.1,0,0
				c0.1,0,0.2-0.2,0.3-0.2c0.3-0.2,0.5-0.5,0.7-0.8c0.2-0.3,0.3-0.6,0.4-0.9c0-0.1,0.1-0.2,0.1-0.3c0.1-0.3-0.1,0,0.1-0.2
				C34.3,32.1,31.7,30.6,30.7,32.2L30.7,32.2z"/>
		</g>
	</g>
	<g>
		<g>
			<path class="st2" d="M59.3,31.5c0.4,0.7,1.1,1.1,1.5,1.8c0.4,0.7,0.6,1.6,0.8,2.4c0.6,1.8,3.5,1,2.9-0.8c-0.3-0.9-0.6-1.9-1-2.8
				c-0.4-0.9-1.1-1.3-1.6-2.1C60.9,28.4,58.3,29.9,59.3,31.5L59.3,31.5z"/>
		</g>
	</g>
	<g>
		<g>
			<path class="st2" d="M65,38.4c0.6-2.2,2.6-7.9-1.2-8.5c-1.9-0.3-2.7,2.6-0.8,2.9c0.4,0.1-0.8,4.5-0.9,4.8
				C61.6,39.4,64.5,40.2,65,38.4L65,38.4z"/>
		</g>
	</g>
	<g>
		<g>
			<path class="st2" d="M66.3,30.5c-1.5,0.6-2,2.1-2.6,3.5c-0.3,0.7-0.2,1.6,0.5,2.1c0.6,0.4,1.7,0.2,2.1-0.5c0.2-0.5,0.5-1,0.7-1.5
				c0.1-0.2,0.2-0.4,0.3-0.6c0.2-0.4,0.3-0.2-0.1-0.1c0.8-0.3,1.3-1,1-1.8C67.9,30.9,67,30.3,66.3,30.5L66.3,30.5z"/>
		</g>
	</g>
	<g>
		<g>
			<path class="st2" d="M64.8,36.4c0-1.2-0.4-2.3-1.2-3.3c-0.7-0.8-2.3-0.4-2.5,0.7c-0.1,0.6-0.1,1.1,0.2,1.6
				c0.1,0.2,0.3,0.4,0.4,0.6c0,0,0.1,0.1,0.1,0.1c-0.2-0.2-0.2-0.4-0.1-0.6c-0.2,0.8,0.3,1.7,1,1.8c0.8,0.2,1.6-0.2,1.8-1
				c0.2-0.5,0.1-1.1-0.2-1.6c-0.1-0.2-0.2-0.4-0.4-0.6c-0.2-0.3,0,0.1,0,0.5c-0.8,0.2-1.7,0.4-2.5,0.7c-0.1-0.1,0.1,0.2,0.1,0.2
				c0.2,0.3,0-0.1,0.1,0.2c0,0.2,0.1,0.3,0.1,0.5c0-0.2,0,0.2,0,0.2c0,0.8,0.7,1.5,1.5,1.5C64.1,37.9,64.8,37.2,64.8,36.4L64.8,36.4
				z"/>
		</g>
	</g>
	<g>
		<g>
			<path class="st2" d="M62,35.3c1.9,0,1.9-3,0-3C60.1,32.3,60.1,35.3,62,35.3L62,35.3z"/>
		</g>
	</g>
	<g>
		<g>
			<path class="st2" d="M63.4,33.1c0-0.1,0-0.3,0-0.4c0-0.8-0.7-1.5-1.5-1.5c-0.8,0-1.5,0.7-1.5,1.5c0,0.1,0,0.3,0,0.4
				c0,0.8,0.7,1.5,1.5,1.5C62.7,34.6,63.4,34,63.4,33.1L63.4,33.1z"/>
		</g>
	</g>
	<g>
		<g>
			<path class="st2" d="M62,32.4c1.9,0,1.9-3,0-3C60,29.4,60,32.4,62,32.4L62,32.4z"/>
		</g>
	</g>
	<g>
		<g>
			<path class="st2" d="M60.4,31.8c1.9,0,1.9-3,0-3C58.5,28.8,58.5,31.8,60.4,31.8L60.4,31.8z"/>
		</g>
	</g>
	<g>
		<g>
			<path class="st2" d="M94.1,34.9c0.1,0,0.2,0.1,0.3,0.1c-0.1,0-0.1,0,0.1,0c0.1,0,0.5,0.3,0.4,0.2c0.6,0.5,1.5,0.6,2.1,0
				c0.5-0.5,0.6-1.6,0-2.1c-0.6-0.5-1.3-0.9-2.1-1.1c-0.8-0.2-1.7,0.3-1.8,1C92.9,33.8,93.3,34.6,94.1,34.9L94.1,34.9z"/>
		</g>
	</g>
	<g>
		<g>
			<path class="st2" d="M100.2,38.9c0.1-2.6,0.8-7.6-3.1-7.4c-1.9,0.1-1.9,3.1,0,3c0.3,0,0.4,0,0.1-0.1c-0.2-0.1-0.3,0-0.1,0.4
				c0,0.4,0.1,0.9,0.1,1.4c0,0.9,0,1.8,0,2.7C97.1,40.8,100.2,40.8,100.2,38.9L100.2,38.9z"/>
		</g>
	</g>
	<g>
		<g>
			<path class="st2" d="M98.2,35.8c0.3,0.2,0.4,0.3,0.2,0.1c0.1,0.1,0.1,0.1,0-0.1c0.1,0.2-0.1-0.2-0.1-0.2
				c-0.2-0.5-0.4-0.9-0.7-1.3c-0.6-0.5-1.5-0.6-2.1,0c-0.6,0.6-0.6,1.6,0,2.1c0,0-0.1-0.2-0.1-0.2c0,0,0.1,0.3,0.1,0.3
				c0.1,0.3,0.2,0.6,0.4,0.9c0.4,0.6,0.9,1.1,1.6,1.2c0.8,0.1,1.7-0.2,1.8-1C99.4,36.9,99.1,35.9,98.2,35.8L98.2,35.8z"/>
		</g>
	</g>
	<g>
		<g>
			<path class="st2" d="M100.9,36.4c0-0.9,0.2-1.8,0.2-2.7c0-1-0.1-1.7-0.9-2.4c-0.6-0.5-1.5-0.6-2.1,0c-0.5,0.5-0.6,1.6,0,2.1
				c0.2,0.1,0.3,0.3,0.5,0.4c-0.1-0.4-0.3-0.7-0.4-1.1c0.2,1.2-0.3,2.4-0.2,3.6C98,38.4,101,38.4,100.9,36.4L100.9,36.4z"/>
		</g>
	</g>
	<g>
		<g>
			<path class="st2" d="M101.7,33.1c0-0.2,0-0.5,0-0.7c0-0.3,0-0.2-0.2,0.4c0,0,0.1-0.1,0.1-0.1c0.1-0.1,0.2-0.2,0.3-0.3
				c0.1-0.1,0.1-0.3,0.2-0.4c0,0.1-0.1,0.2-0.1,0.3c0.1-0.1,0.1-0.1,0.2-0.2c0.6-0.5,0.5-1.6,0-2.1c-0.6-0.6-1.5-0.5-2.1,0
				c-0.2,0.2-0.4,0.4-0.6,0.7c0,0.1-0.1,0.2-0.1,0.3c-0.1,0.3-0.1,0.2,0.2-0.2c-0.1,0.1-0.2,0.2-0.3,0.3c-0.5,0.7-0.4,1.4-0.4,2.2
				c-0.1,0.8,0.7,1.5,1.5,1.5C101,34.6,101.6,34,101.7,33.1L101.7,33.1z"/>
		</g>
	</g>
	<g>
		<g>
			<path class="st2" d="M126.3,34.7c2.2-0.1,4.5-0.3,6.7-0.6c1.9-0.2,1.9-3.2,0-3c-2.2,0.3-4.5,0.5-6.7,0.6
				C124.4,31.8,124.4,34.8,126.3,34.7L126.3,34.7z"/>
		</g>
	</g>
	<g>
		<g>
			<path class="st2" d="M125.4,34.3c0.1,2.3,2.4,3.3,3.1,5.4c0.6,1.8,3.5,1.1,2.9-0.8c-0.3-1-0.8-1.9-1.4-2.7
				c-0.4-0.5-1.5-1.2-1.6-1.9C128.3,32.3,125.3,32.3,125.4,34.3L125.4,34.3z"/>
		</g>
	</g>
	<g>
		<g>
			<path class="st2" d="M131.5,39.1c0.1-0.6,0.1-1.2,0.6-1.7c-0.8-0.5-1.7-1-2.5-1.5c0,0.2-0.1,0.4-0.2,0.5c0.9,0.5,1.7,1,2.6,1.5
				c0.6-1.2,1.9-2.6,1.6-4c-0.4-1.9-3.3-1.1-2.9,0.8c0,0.1,0,0.1,0,0.2c0.1-0.4,0.1-0.8,0.2-1.2c-0.4,0.9-1,1.7-1.5,2.6
				c-0.8,1.7,1.6,3.2,2.6,1.5c0.2-0.4,0.4-0.8,0.5-1.2c0.3-1.4-1.4-2.6-2.5-1.5c-1,1.1-1.3,2.4-1.4,3.8c-0.1,0.8,0.8,1.5,1.5,1.5
				C130.9,40.6,131.4,39.9,131.5,39.1L131.5,39.1z"/>
		</g>
	</g>
	<g>
		<g>
			<path class="st2" d="M131.2,33.8c-0.6,0-1.2,0-1.8,0c-0.8,0-1.5,0.7-1.5,1.5c0,0.8,0.7,1.5,1.5,1.5c0.6,0,1.2,0,1.8,0
				c0.8,0,1.5-0.7,1.5-1.5C132.7,34.4,132,33.8,131.2,33.8L131.2,33.8z"/>
		</g>
	</g>
	<g>
		<g>
			<path class="st2" d="M158.1,34.6c2.5,0.7,5.1,1,7.7,0.7c1.9-0.2,1.9-3.2,0-3c-2.3,0.3-4.6,0.1-6.9-0.5
				C157,31.2,156.2,34.1,158.1,34.6L158.1,34.6z"/>
		</g>
	</g>
	<g>
		<g>
			<path class="st2" d="M164.3,33c-0.6,1-1.5,1.8-2.1,2.8c-0.6,0.9-1.1,2-1.6,3c-0.9,1.7,1.7,3.2,2.6,1.5c0.5-1,1-2.1,1.6-3
				c0.7-1,1.5-1.8,2.1-2.8C168,32.8,165.4,31.3,164.3,33L164.3,33z"/>
		</g>
	</g>
	<g>
		<g>
			<path class="st2" d="M163.4,39.2c0-1.1-0.3-2.1-1-3c-0.3-0.3-0.5-0.6-0.7-0.9c-0.2-0.4-0.7-0.8-0.8-1.1c-0.6,0.7-1.1,1.5-1.7,2.2
				c0.9,0.3,1.8,0.6,2.7,0.9c1.8,0.6,2.6-2.3,0.8-2.9c-0.9-0.3-1.8-0.6-2.7-0.9c-1.4-0.4-2.2,1.1-1.7,2.2c0.2,0.3,0.4,0.6,0.7,0.8
				c0.2,0.3,0.4,0.6,0.6,0.9c0.4,0.6,0.9,0.9,0.8,1.7C160.3,41.2,163.3,41.2,163.4,39.2L163.4,39.2z"/>
		</g>
	</g>
	<g>
		<g>
			<path class="st3" d="M179.6,32.7c1.9,0,1.9-3,0-3C177.6,29.7,177.6,32.7,179.6,32.7L179.6,32.7z"/>
		</g>
	</g>
	<g>
		<g>
			<path class="st3" d="M173,34.7c1.9,0,1.9-3,0-3C171.1,31.7,171.1,34.7,173,34.7L173,34.7z"/>
		</g>
	</g>
	<g>
		<g>
			<path class="st3" d="M173.6,34.8c0.8,0,1.6,0,2.3-0.3c0.7-0.3,1.4-0.6,2.2-0.9c1.8-0.6,1-3.5-0.8-2.9c-1.3,0.4-2.4,1.1-3.7,1.1
				C171.6,31.7,171.6,34.7,173.6,34.8L173.6,34.8z"/>
		</g>
	</g>
	<g>
		<g>
			<path class="st3" d="M177.2,40.4c1.9,0,1.9-3,0-3C175.3,37.4,175.3,40.4,177.2,40.4L177.2,40.4z"/>
		</g>
	</g>
	<g>
		<g>
			<path class="st3" d="M178.5,38.3c-0.1-1.4,0.2-2.8-0.4-4.1c-0.3-0.8-1-1.3-1.8-1c-0.7,0.2-1.4,1.1-1,1.8c0.4,1.1,0.2,2.2,0.3,3.3
				c0.1,0.8,0.6,1.5,1.5,1.5C177.8,39.8,178.6,39.1,178.5,38.3L178.5,38.3z"/>
		</g>
	</g>
	<g>
		<g>
			<path class="st3" d="M179.3,37.3c0-0.7,0-1.4,0-2.1c0-0.3,0-0.7,0.1-1c0-0.1,0.2-0.5,0.1-0.4c-0.8-0.2-1.7-0.4-2.5-0.7
				c0,0.1,0,0.1,0.1,0.2c0.6,1.8,3.5,1.1,2.9-0.8c0-0.1,0-0.1-0.1-0.2c-0.3-1.1-1.7-1.5-2.5-0.7c-1.3,1.3-1.1,3.9-1.1,5.6
				C176.4,39.3,179.4,39.3,179.3,37.3L179.3,37.3z"/>
		</g>
	</g>
	<g>
		<g>
			<path class="st3" d="M177.7,36.6c-0.3-0.7-0.7-1.3-1.2-1.9c-0.2-0.3-0.4-0.6-0.7-0.8c-0.1-0.1-0.3-0.3-0.5-0.4
				c0,0-0.4-0.2-0.3-0.1c-0.6-0.5-1.5-0.6-2.1,0c-0.5,0.5-0.6,1.6,0,2.1c0.2,0.2,0.5,0.3,0.7,0.4c0.1,0.1,0.4,0.4,0.5,0.6
				c0.4,0.5,0.7,1,1,1.6c0.4,0.7,1.4,0.9,2.1,0.5C177.9,38.2,178.1,37.3,177.7,36.6L177.7,36.6z"/>
		</g>
	</g>
	<g>
		<g>
			<path class="st3" d="M148.1,39.7c1.9,0,1.9-3,0-3C146.2,36.7,146.2,39.7,148.1,39.7L148.1,39.7z"/>
		</g>
	</g>
	<g>
		<g>
			<path class="st3" d="M151.2,34.3c1.9,0,1.9-3,0-3C149.2,31.3,149.2,34.3,151.2,34.3L151.2,34.3z"/>
		</g>
	</g>
	<g>
		<g>
			<path class="st3" d="M144.9,32.1c1.9,0,1.9-3,0-3C143,29.1,143,32.1,144.9,32.1L144.9,32.1z"/>
		</g>
	</g>
	<g>
		<g>
			<path class="st3" d="M144.6,32.2c1.7,0.4,3.4,0.9,5.1,1.4c1.9,0.5,2.7-2.4,0.8-2.9c-1.7-0.5-3.4-0.9-5.1-1.4
				C143.5,28.8,142.7,31.7,144.6,32.2L144.6,32.2z"/>
		</g>
	</g>
	<g>
		<g>
			<path class="st3" d="M144,31.8c0.6,2.1,1.8,3.9,2.4,6c0.6,1.8,3.5,1,2.9-0.8c-0.7-2.1-1.9-3.9-2.4-6
				C146.3,29.1,143.5,29.9,144,31.8L144,31.8z"/>
		</g>
	</g>
	<g>
		<g>
			<path class="st3" d="M147.7,39C147.8,39,147.8,39,147.7,39c-0.3-0.3-0.6-0.7-1-1c0,0,0,0.1,0,0.1c0.2,0.8,1.1,1.3,1.8,1
				c0.9-0.2,1.2-1,1-1.8c0-0.1,0-0.1,0-0.2c0,0.3,0,0.5,0,0.8c0.1-0.5,0.5-0.9,0.7-1.4c0.3-0.5,0.7-1,1-1.5c0.4-0.5,0.2-1.4-0.2-1.8
				c-0.3-0.3-0.5-0.4-0.9-0.5c-0.2,0-0.4-0.1-0.6-0.1c0,0,0.1,0,0.1,0c-1-1.7-3.6-0.2-2.6,1.5c0.3,0.5,0.6,0.8,1.1,1.1
				c0.2,0.1,0.5,0.2,0.7,0.3c0.1,0,0.8,0.1,0.5,0c-0.2-0.1-0.4-0.3-0.7-0.4c0,0,0.1,0.1,0.1,0.1c-0.1-0.6-0.2-1.2-0.2-1.8
				c-0.9,1.3-2.3,2.9-2,4.6c1-0.3,1.9-0.5,2.9-0.8c0,0,0-0.1,0-0.1c-0.1-0.5-0.6-0.9-1-1c0,0-0.1,0-0.1,0
				C146.7,35.6,145.9,38.5,147.7,39L147.7,39z"/>
		</g>
	</g>
	<g>
		<g>
			<path class="st3" d="M111.4,34.2c1.9,0,1.9-3,0-3C109.5,31.2,109.4,34.2,111.4,34.2L111.4,34.2z"/>
		</g>
	</g>
	<g>
		<g>
			<path class="st3" d="M117.1,35.1c1.9,0,1.9-3,0-3C115.2,32.1,115.2,35.1,117.1,35.1L117.1,35.1z"/>
		</g>
	</g>
	<g>
		<g>
			<path class="st3" d="M114.1,40.5c1.9,0,1.9-3,0-3C112.2,37.5,112.2,40.5,114.1,40.5L114.1,40.5z"/>
		</g>
	</g>
	<g>
		<g>
			<path class="st3" d="M115.7,39c-0.1-1.6-0.1-3.2,0.1-4.8c0.1-0.8-0.2-1.6-1-1.8c-0.7-0.2-1.7,0.2-1.8,1c-0.3,1.9-0.4,3.7-0.3,5.6
				C112.8,40.9,115.8,40.9,115.7,39L115.7,39z"/>
		</g>
	</g>
	<g>
		<g>
			<path class="st3" d="M113,34.6c0.8,0.1,1.5,0.2,2.3,0.2c0.8,0.1,1.5-0.8,1.5-1.5c0-0.9-0.7-1.4-1.5-1.5c-0.8-0.1-1.5-0.2-2.3-0.2
				c-0.8-0.1-1.5,0.8-1.5,1.5C111.5,34,112.1,34.5,113,34.6L113,34.6z"/>
		</g>
	</g>
	<g>
		<g>
			<path class="st3" d="M116.2,33.3c-0.5,0.4-0.9,0.7-1.2,1.3c-0.1,0.2-0.2,0.4-0.3,0.5c0,0.1-0.1,0.2-0.1,0.2
				c-0.2,0.3,0.2-0.2-0.1,0.1c-0.5,0.6-0.6,1.5,0,2.1c0.5,0.5,1.6,0.6,2.1,0c0.3-0.4,0.6-0.7,0.8-1.1c0.1-0.2,0.2-0.3,0.3-0.5
				c0,0,0.2-0.3,0.1-0.1c-0.1,0.1,0.2-0.2,0,0c0.7-0.5,1-1.3,0.5-2.1C117.8,33.2,116.8,32.8,116.2,33.3L116.2,33.3z"/>
		</g>
	</g>
	<g>
		<g>
			<path class="st3" d="M115,39c1.9,0,1.9-3,0-3C113.1,36,113.1,39,115,39L115,39z"/>
		</g>
	</g>
	<g>
		<g>
			<path class="st3" d="M115.1,36.4c-0.2-0.4-0.3-0.8-0.5-1.3c-0.1-0.3-0.2-0.5-0.4-0.8c-0.1-0.1-0.2-0.2-0.2-0.3
				c-0.1-0.1-0.1-0.2-0.1-0.1c0,0.1,0.1,0.3,0,0c-0.1-0.8-1.1-1.2-1.8-1c-0.8,0.2-1.2,1-1,1.8c0.1,0.3,0.2,0.6,0.4,0.9
				c0.1,0.1,0.2,0.2,0.2,0.3c0.1,0.1,0.1,0.2,0.1,0.1c-0.1-0.1,0.1,0.2,0,0.1c0.2,0.6,0.4,1.3,0.7,1.9
				C113.4,39.6,116,38.1,115.1,36.4L115.1,36.4z"/>
		</g>
	</g>
	<g>
		<g>
			<path class="st3" d="M77.3,35.4c1.9,0,1.9-3,0-3C75.4,32.4,75.4,35.4,77.3,35.4L77.3,35.4z"/>
		</g>
	</g>
	<g>
		<g>
			<path class="st3" d="M84.2,35.3c1.9,0,1.9-3,0-3C82.3,32.3,82.2,35.3,84.2,35.3L84.2,35.3z"/>
		</g>
	</g>
	<g>
		<g>
			<path class="st3" d="M80.7,41.1c1.9,0,1.9-3,0-3C78.7,38.1,78.7,41.1,80.7,41.1L80.7,41.1z"/>
		</g>
	</g>
	<g>
		<g>
			<path class="st3" d="M82.2,39.6c0-1.6,0-3.3,0-4.9c-0.1-1.9-3.1-1.9-3,0c0.1,1.6,0.1,3.3,0,4.9C79.1,41.5,82.1,41.5,82.2,39.6
				L82.2,39.6z"/>
		</g>
	</g>
	<g>
		<g>
			<path class="st3" d="M79.2,36c1.3,0,2.7,0.1,4-0.1c0.8-0.2,1.2-1.1,1-1.8c-0.2-0.8-1-1.2-1.8-1c-0.4,0.1-1,0-1.4,0
				c-0.6,0-1.1,0-1.7,0C77.2,33,77.2,36,79.2,36L79.2,36z"/>
		</g>
	</g>
	<g>
		<g>
			<path class="st3" d="M82.4,34.5c-0.3,0.4-0.5,0.8-0.8,1.2c-0.1,0.2-0.2,0.4-0.4,0.6c-0.1,0.1-0.1,0.2-0.2,0.3
				c-0.1,0.2-0.1,0.2,0.2-0.2c-0.7,0.4-0.9,1.4-0.5,2.1c0.4,0.7,1.3,0.9,2.1,0.5c0.6-0.3,0.9-1,1.2-1.5c0.3-0.5,0.6-1,1-1.5
				c0.5-0.7,0.1-1.7-0.5-2.1C83.7,33.5,82.8,33.9,82.4,34.5L82.4,34.5z"/>
		</g>
	</g>
	<g>
		<g>
			<path class="st3" d="M81.6,38.2c-0.5-0.7-0.9-1.4-1.1-2.2c-0.2-0.8-0.3-1.6-0.9-2.2c-0.6-0.6-2-0.6-2.4,0.3
				c-0.4,0.8-0.4,1.5,0,2.2c0.9,1.7,3.5,0.2,2.6-1.5c0,0.1,0.1,0.1,0.1,0.2c-0.1,0.3-0.1,0.5-0.2,0.8c0-0.1,0.1-0.1,0.1-0.2
				c-0.8,0.1-1.6,0.2-2.4,0.3c-0.1-0.2-0.1-0.2,0,0.1c0,0.2,0.1,0.3,0.1,0.5c0.1,0.4,0.2,0.7,0.3,1.1c0.3,0.8,0.7,1.5,1.1,2.1
				C80.1,41.3,82.7,39.8,81.6,38.2L81.6,38.2z"/>
		</g>
	</g>
	<g>
		<g>
			<path class="st3" d="M43.7,34.5c1.9,0,1.9-3,0-3C41.8,31.5,41.8,34.5,43.7,34.5L43.7,34.5z"/>
		</g>
	</g>
	<g>
		<g>
			<path class="st3" d="M49.5,33.4c1.9,0,1.9-3,0-3C47.6,30.4,47.6,33.4,49.5,33.4L49.5,33.4z"/>
		</g>
	</g>
	<g>
		<g>
			<path class="st3" d="M46.7,39.7c1.9,0,1.9-3,0-3C44.8,36.7,44.8,39.7,46.7,39.7L46.7,39.7z"/>
		</g>
	</g>
	<g>
		<g>
			<path class="st3" d="M48.2,38.2c0-0.8,0.1-1.6,0-2.4C48.1,35,48,34.2,48,33.3c0.1-0.8-0.7-1.5-1.5-1.5c-0.9,0-1.4,0.7-1.5,1.5
				c-0.1,0.8,0.1,1.6,0.2,2.5c0,0.8,0,1.6,0,2.4C45.1,40.2,48.1,40.2,48.2,38.2L48.2,38.2z"/>
		</g>
	</g>
	<g>
		<g>
			<path class="st3" d="M45.4,34.5c1,0.1,1.9-0.1,2.9-0.3c-0.3,0-0.5,0-0.8,0c0,0,0.1,0,0.1,0c-0.3-0.2-0.6-0.5-0.9-0.7
				c0,0,0,0.1,0.1,0.1c-0.1-0.3-0.1-0.5-0.2-0.8c0.1,0.9-0.3,1.9-0.8,2.7c-1,1.7,1.6,3.2,2.6,1.5c0.4-0.7,0.7-1.4,0.9-2.2
				c0.2-0.7,0.4-1.7,0.2-2.4c-0.3-0.9-1.2-1.4-2.1-1.2c-0.7,0.2-1.3,0.3-2.1,0.2c-0.8-0.1-1.5,0.7-1.5,1.5
				C43.9,33.9,44.6,34.5,45.4,34.5L45.4,34.5z"/>
		</g>
	</g>
	<g>
		<g>
			<path class="st3" d="M47.7,36.3c-0.1-0.2-0.1,0-0.1-0.2c0-0.1-0.1-0.2-0.1-0.3c-0.1-0.4-0.2-0.7-0.4-1c-0.3-0.6-0.7-1.1-1.1-1.6
				c-0.9-0.9-2.6-0.2-2.6,1.1c0,0.7,0.2,1.2,0.6,1.8c0.1,0.2,0.2,0.3,0.3,0.5c0,0,0.1,0.4,0.1,0.3c0.1,0.8,0.6,1.5,1.5,1.5
				c0.7,0,1.6-0.7,1.5-1.5c-0.1-0.6-0.2-1.1-0.5-1.7c-0.1-0.3-0.3-0.5-0.5-0.7c-0.2-0.3-0.1-0.2-0.1-0.1c-0.9,0.4-1.7,0.7-2.6,1.1
				c0.3,0.3,0.5,0.6,0.6,0.9c0.2,0.5,0.3,1.1,0.6,1.5c0.5,0.7,1.3,1,2.1,0.5C47.8,38,48.2,37,47.7,36.3L47.7,36.3z"/>
		</g>
	</g>
	<g>
		<g>
			<path class="st3" d="M119.2,99.7c1.9,0,1.9-3,0-3C117.3,96.7,117.3,99.7,119.2,99.7L119.2,99.7z"/>
		</g>
	</g>
</g>
<g id="Layer_5">
	<g>
		<g>
			<path class="st4" d="M22.8,28.5c2.7,0.9,5.6,1.5,8.4,2c2.8,0.5,5.7,0.8,8.6,0.8c2.9,0,5.7-0.2,8.5-0.8c2.8-0.6,5.5-1.6,8-3l0,0
				c0.1-0.1,0.3-0.1,0.4,0c3.7,1.3,7.5,2.3,11.4,2.9c3.9,0.6,7.8,1,11.7,1.4c1.9,0.2,3.9,0.3,5.8,0.3c1.9,0,3.9-0.2,5.8-0.4
				c3.8-0.5,7.6-1.5,11.1-3.2l0,0c0.2-0.1,0.4-0.1,0.5,0c3,1.2,6.3,2.1,9.5,2.7c1.6,0.3,3.3,0.4,4.9,0.5l1.2,0.1c0.4,0,0.8,0,1.2,0
				c0.8,0,1.6,0.1,2.5,0.1c3.3,0.1,6.6-0.2,9.8-0.7c3.2-0.6,6.3-1.7,9.3-3.1l0,0c0.2-0.1,0.3-0.1,0.5,0c3.2,1.2,6.5,2,9.9,2.6
				c3.4,0.5,6.7,1,10.1,1.3c3.4,0.2,6.8,0.1,10.1-0.4c3.4-0.5,6.6-1.4,9.8-2.7l0,0c0.2-0.1,0.4,0,0.5,0.2c0.1,0.2,0,0.4-0.2,0.5
				c-3.1,1.6-6.4,2.8-9.9,3.4c-3.4,0.6-7,0.8-10.5,0.7c-3.5-0.2-7-0.6-10.4-1.4c-3.4-0.8-6.7-1.8-10-3l0.5,0l-2.3,1.1
				c-0.4,0.2-0.8,0.4-1.2,0.5l-1.2,0.4c-0.8,0.3-1.6,0.6-2.4,0.8l-2.5,0.6c-0.8,0.2-1.7,0.3-2.5,0.5c-0.8,0.1-1.7,0.3-2.5,0.3
				l-2.5,0.2l-2.5,0c-0.9,0-1.7-0.1-2.5-0.1c-0.8,0-1.7-0.1-2.5-0.3c-1.7-0.2-3.3-0.6-5-1c-1.6-0.4-3.3-0.7-4.9-1.1
				c-1.6-0.4-3.2-0.9-4.9-1.4l0.5,0c-1.8,0.9-3.6,1.8-5.6,2.3c-1.9,0.6-3.9,1-5.9,1.3c-2,0.3-4,0.4-6,0.5c-2,0.1-4,0.1-6,0
				c-4-0.2-8-0.9-11.8-1.9c-3.8-1-7.7-2-11.5-3.3l0.4,0c-2.6,1.5-5.4,2.6-8.2,3.3c-2.9,0.6-5.9,0.9-8.8,0.9c-2.9-0.1-5.9-0.4-8.8-1
				c-2.9-0.6-5.7-1.3-8.5-2.4c-0.2-0.1-0.3-0.3-0.2-0.5C22.4,28.5,22.6,28.4,22.8,28.5L22.8,28.5z"/>
		</g>
		<g>
			<path class="st4" d="M26.2,29.7c0.8,1.4,1.4,2.9,1.8,4.4c0.5,1.5,1.1,3,1.8,4.3c0.1,0.1,0.3,0.3,0.2,0.3c-0.1,0-0.1,0,0,0
				c0.1,0,0.1-0.1,0.2-0.1c0.3-0.3,0.5-0.6,0.7-0.9c0.4-0.6,0.8-1.3,1.2-2.1c0.6-1.4,1.4-2.8,2.2-4.2c0.1-0.1,0.2-0.2,0.3-0.1
				c0.1,0.1,0.1,0.2,0.1,0.3c-0.6,1.5-1.2,2.9-2.1,4.3c-0.4,0.7-0.8,1.4-1.3,2c-0.2,0.3-0.4,0.7-0.7,1c-0.1,0.1-0.1,0.2-0.3,0.3
				c-0.1,0.1-0.3,0.2-0.6,0.2c-0.1,0-0.1,0-0.2-0.1l-0.1-0.1c-0.1-0.1-0.1-0.1-0.1-0.1c-0.1-0.1-0.1-0.2-0.2-0.3
				c-0.9-1.4-1.4-2.9-2.1-4.4c-0.7-1.5-1.1-3-1.4-4.6c0-0.1,0.1-0.3,0.2-0.3C26,29.5,26.2,29.6,26.2,29.7z"/>
		</g>
		<g>
			<path class="st4" d="M41.8,31.5c0.9,1.5,1.8,3,2.5,4.6c0.4,0.8,0.8,1.5,1.3,2.3c0.2,0.4,0.5,0.7,0.8,1c0.1,0.2,0.3,0.3,0.4,0.4
				c0.1,0.1,0,0-0.1,0c0,0,0.1-0.1,0.1-0.1c0.4-0.6,0.8-1.5,1.2-2.2c0.4-0.8,0.7-1.6,1-2.4c0.6-1.6,1.3-3.3,2.1-4.8
				c0.1-0.1,0.2-0.2,0.3-0.1c0.1,0.1,0.1,0.2,0.1,0.3c-0.4,1.7-1,3.4-1.7,5c-0.8,1.6-1.3,3.2-2.4,4.8c-0.1,0.1-0.2,0.2-0.4,0.3
				c-0.1,0.1-0.4,0.1-0.4,0c-0.1-0.1-0.2-0.1-0.2-0.1c-0.2-0.2-0.3-0.4-0.5-0.6c-0.3-0.4-0.5-0.8-0.7-1.1c-0.5-0.8-0.9-1.5-1.4-2.3
				c-1-1.5-1.8-3.1-2.4-4.7c-0.1-0.1,0-0.3,0.1-0.3C41.6,31.3,41.7,31.4,41.8,31.5z"/>
		</g>
		<g>
			<path class="st4" d="M119.6,32.5c-0.7,1.6-1.5,3.2-2.4,4.7c-0.5,0.7-0.9,1.5-1.4,2.3c-0.2,0.4-0.5,0.8-0.7,1.1
				c-0.1,0.2-0.3,0.4-0.5,0.6c-0.1,0.1-0.1,0.1-0.2,0.1c-0.1,0.1-0.3,0-0.4,0c-0.2-0.1-0.3-0.2-0.4-0.3c-1.1-1.5-1.7-3.2-2.4-4.8
				c-0.7-1.6-1.3-3.3-1.7-5c0-0.1,0.1-0.3,0.2-0.3c0.1,0,0.2,0,0.3,0.1c0.8,1.6,1.5,3.2,2.1,4.8c0.3,0.8,0.6,1.6,1,2.4
				c0.4,0.8,0.7,1.6,1.2,2.2c0,0.1,0.1,0.1,0.1,0.1c-0.1,0-0.2,0-0.1,0c0.1-0.1,0.3-0.3,0.4-0.4c0.3-0.3,0.5-0.7,0.8-1
				c0.5-0.7,0.9-1.5,1.3-2.3c0.7-1.6,1.6-3.1,2.5-4.6c0.1-0.1,0.2-0.2,0.3-0.1C119.6,32.2,119.7,32.4,119.6,32.5z"/>
		</g>
		<g>
			<path class="st4" d="M92.9,32.5c1.3,1.4,2.4,2.9,3.5,4.5c0.5,0.8,1.1,1.5,1.7,2.3c0.3,0.3,0.6,0.7,0.9,1c0,0,0.1,0.1,0.1,0.1
				c0,0,0,0,0,0l0,0c0,0-0.1,0-0.1,0c-0.1,0-0.1,0.1-0.1,0c0,0,0,0,0,0c0.1-0.1,0.2-0.3,0.3-0.5c0.8-1.7,1.4-3.5,1.8-5.4
				c0.4-1.9,0.9-3.7,1.5-5.5c0-0.1,0.2-0.2,0.3-0.2c0.1,0,0.2,0.2,0.2,0.3c-0.3,1.9-0.7,3.8-1.3,5.6c-0.6,1.8-1,3.7-1.7,5.5
				c-0.1,0.2-0.2,0.5-0.4,0.7c0,0.1-0.1,0.1-0.2,0.2c0,0.1-0.5,0.2-0.5,0.1c-0.1,0-0.2-0.1-0.3-0.1c-0.1-0.1-0.1-0.1-0.2-0.1
				c-0.4-0.4-0.7-0.7-1-1.1c-0.6-0.7-1.2-1.5-1.8-2.2c-1.2-1.5-2.3-3.1-3.2-4.8c-0.1-0.1,0-0.3,0.1-0.3
				C92.7,32.4,92.8,32.4,92.9,32.5z"/>
		</g>
		<g>
			<path class="st4" d="M171.2,32.5c1.2,1.5,2.3,3,3.3,4.5c0.5,0.8,1.1,1.5,1.7,2.2c0.3,0.3,0.6,0.7,1,1c0.1,0.1,0.2,0.2,0.2,0.2
				c0,0,0,0,0,0c0,0-0.1,0-0.1,0c0,0,0,0,0,0c0.1-0.1,0.2-0.3,0.3-0.5c0.7-1.7,1.2-3.5,1.7-5.3c0.4-1.8,1-3.6,1.7-5.4
				c0-0.1,0.2-0.2,0.3-0.1c0.1,0,0.2,0.2,0.2,0.3c-0.2,1.9-0.6,3.7-1.2,5.5c-0.6,1.8-1.1,3.6-1.9,5.4c-0.1,0.2-0.2,0.4-0.5,0.7
				c-0.1,0-0.1,0.1-0.2,0.1c-0.1,0-0.2,0-0.3,0c-0.1,0-0.2-0.1-0.3-0.1c-0.2-0.1-0.2-0.2-0.3-0.3c-0.4-0.4-0.7-0.7-0.9-1.1
				c-0.6-0.7-1.2-1.5-1.8-2.2c-1.2-1.4-2.3-3-3.2-4.6c-0.1-0.1,0-0.3,0.1-0.3C171,32.4,171.1,32.4,171.2,32.5z"/>
		</g>
		<g>
			<path class="st4" d="M75.6,32.7c0.9,1.4,1.7,2.9,2.4,4.4c0.3,0.8,0.8,1.5,1.2,2.2c0.2,0.3,0.5,0.7,0.7,1c0.1,0.2,0.3,0.3,0.4,0.5
				c0.1,0.1,0.1,0.1,0.2,0.2c0.1,0.1,0.1,0.1,0.1,0.1c-0.1,0-0.1,0,0-0.1c0.1,0,0.1-0.1,0.2-0.2c0.1-0.1,0.3-0.3,0.4-0.4
				c0.3-0.3,0.5-0.7,0.7-1c0.5-0.7,0.9-1.4,1.3-2.1c0.8-1.5,1.7-2.9,2.8-4.2c0.1-0.1,0.2-0.1,0.3,0c0.1,0.1,0.1,0.2,0.1,0.3
				c-0.6,1.6-1.4,3.1-2.4,4.5l-1.4,2.1c-0.2,0.3-0.5,0.7-0.8,1c-0.1,0.2-0.3,0.3-0.5,0.5c-0.1,0.1-0.2,0.2-0.3,0.2
				c-0.1,0.1-0.2,0.2-0.6,0.2c-0.3-0.1-0.4-0.2-0.5-0.3c-0.1-0.1-0.2-0.2-0.2-0.3c-0.1-0.2-0.3-0.4-0.4-0.5
				c-0.2-0.4-0.5-0.7-0.7-1.1c-0.4-0.7-0.8-1.5-1.3-2.2c-0.9-1.4-1.7-2.9-2.3-4.5c-0.1-0.1,0-0.3,0.1-0.3
				C75.4,32.5,75.5,32.6,75.6,32.7z"/>
		</g>
		<g>
			<path class="st4" d="M157,32.5c1,1.4,1.8,2.8,2.6,4.3c0.4,0.7,0.8,1.5,1.2,2.2c0.2,0.4,0.4,0.7,0.7,1c0.1,0.2,0.2,0.3,0.4,0.5
				c0.1,0.1,0.1,0.1,0.2,0.2c0,0.1,0.1,0.1,0.1,0.1c-0.1,0,0,0,0,0c0.1,0,0.1-0.1,0.2-0.2c0.1-0.1,0.3-0.3,0.4-0.4
				c0.3-0.3,0.5-0.6,0.8-1c0.5-0.7,1-1.4,1.3-2.1c0.8-1.5,1.7-2.9,2.6-4.3c0.1-0.1,0.2-0.1,0.3-0.1c0.1,0.1,0.1,0.2,0.1,0.3
				c-0.7,1.5-1.5,3-2.5,4.4c-0.5,0.7-1,1.4-1.4,2.1c-0.2,0.4-0.5,0.7-0.7,1.1c-0.1,0.2-0.3,0.3-0.4,0.5c-0.1,0.1-0.2,0.2-0.3,0.3
				c-0.1,0.1-0.2,0.2-0.6,0.2c-0.3-0.1-0.4-0.2-0.5-0.3c-0.1-0.1-0.2-0.2-0.3-0.3c-0.1-0.2-0.3-0.3-0.4-0.5
				c-0.3-0.4-0.5-0.7-0.7-1.1l-1.3-2.2c-0.9-1.4-1.6-3-2.2-4.6c0-0.1,0-0.3,0.2-0.3C156.8,32.4,156.9,32.4,157,32.5z"/>
		</g>
		<g>
			<path class="st4" d="M124.5,32.7c1.1,1.4,2.1,2.9,3,4.4c0.5,0.8,0.9,1.5,1.5,2.2c0.3,0.4,0.5,0.7,0.8,1c0.1,0.2,0.3,0.3,0.4,0.3
				c0,0-0.2,0-0.1,0c0,0,0.1-0.1,0.2-0.2c1-1.3,1.8-3,2.5-4.6c0.6-1.7,1.3-3.3,2.2-4.9c0.1-0.1,0.2-0.2,0.3-0.1
				c0.1,0.1,0.2,0.2,0.1,0.3c-0.5,1.7-1.2,3.4-2,4.9c-0.4,0.8-0.8,1.6-1.2,2.4c-0.4,0.8-0.7,1.6-1.3,2.4c-0.1,0.1-0.1,0.2-0.3,0.3
				c-0.1,0.1-0.1,0.1-0.3,0.2c-0.1,0.1-0.3,0-0.4,0c-0.3-0.2-0.5-0.3-0.6-0.5c-0.3-0.3-0.6-0.7-0.9-1.1c-0.5-0.7-1.1-1.5-1.6-2.2
				c-1-1.5-1.9-3-2.6-4.7c-0.1-0.1,0-0.3,0.1-0.3C124.3,32.6,124.4,32.6,124.5,32.7z"/>
		</g>
		<g>
			<path class="st4" d="M69,31.3c-0.6,1.8-1.5,3.5-2.5,5.1c-0.5,0.8-1,1.6-1.5,2.4c-0.3,0.4-0.5,0.8-0.9,1.2c-0.1,0-0.1,0.1-0.2,0.2
				c-0.1,0.1-0.3,0.1-0.5,0c-0.3-0.1-0.3-0.2-0.4-0.4c-0.2-0.2-0.3-0.4-0.4-0.6c-0.9-1.7-1.4-3.5-2.3-5.2c-0.8-1.7-1.4-3.5-1.9-5.3
				c0-0.1,0-0.3,0.2-0.3c0.1,0,0.2,0,0.3,0.1c0.8,1.7,1.5,3.4,2.1,5.2c0.6,1.8,1.4,3.5,2.3,5c0.1,0.2,0.2,0.4,0.4,0.5
				c0.1,0.1,0.1,0.1,0.1,0.1c0,0-0.1,0-0.1,0c0,0,0,0,0,0c0,0,0,0,0.1-0.1c0.3-0.3,0.5-0.7,0.8-1c0.5-0.8,1-1.6,1.4-2.4
				c0.8-1.7,1.8-3.3,2.8-4.8c0.1-0.1,0.2-0.1,0.3-0.1C69,31.1,69,31.2,69,31.3z"/>
		</g>
		<g>
			<path class="st4" d="M153.4,31.7c-0.7,1.7-1.6,3.4-2.6,5c-0.5,0.8-1,1.6-1.5,2.4c-0.3,0.4-0.5,0.8-0.9,1.2c0,0-0.1,0.1-0.2,0.2
				c-0.1,0.1-0.2,0.1-0.4,0c-0.2-0.1-0.3-0.2-0.4-0.3c-0.2-0.2-0.3-0.4-0.4-0.6c-1-1.7-1.6-3.4-2.4-5.1c-0.8-1.7-1.4-3.5-1.8-5.3
				c0-0.1,0.1-0.3,0.2-0.3c0.1,0,0.2,0,0.3,0.1c0.9,1.7,1.6,3.4,2.2,5.1c0.6,1.7,1.4,3.5,2.2,5.1c0.1,0.2,0.2,0.4,0.3,0.6
				c0,0.1,0.1,0.1,0.1,0.1c0,0-0.1,0-0.1,0c0,0,0,0,0,0c0,0,0,0,0.1-0.1c0.3-0.3,0.6-0.6,0.8-1c0.5-0.8,1-1.6,1.4-2.4
				c0.8-1.7,1.7-3.3,2.7-4.9c0.1-0.1,0.2-0.2,0.3-0.1C153.5,31.5,153.5,31.6,153.4,31.7z"/>
		</g>
		<g>
			<path class="st4" d="M25.1,29.3C25.1,29.3,25.1,29.3,25.1,29.3c0-0.1,0-0.2,0-0.3c0-0.2,0-0.3,0-0.5l0-1c0-0.3,0-0.7-0.2-0.9
				c-0.1-0.1-0.1-0.2-0.2-0.3c0,0-0.1,0-0.1,0c-0.1,0-0.1,0-0.2,0c-0.3,0.1-0.5,0.2-0.6,0.5c-0.1,0.3,0,0.6,0.1,0.9l0.5,0.9
				C24.7,28.8,25,29.2,25.1,29.3z M25.1,29.6c-0.9-0.4-1.3-1-1.5-1.8c-0.1-0.4-0.2-0.8-0.1-1.2c0.1-0.4,0.5-0.8,0.8-0.9
				c0.1,0,0.2-0.1,0.3-0.1c0.1,0,0.3,0,0.4,0.1c0.3,0.1,0.4,0.4,0.5,0.5c0.2,0.4,0.2,0.8,0.3,1.1c0,0.4,0.1,0.8,0,1.1
				c0,0.2-0.1,0.4-0.2,0.5c0,0.1-0.1,0.2-0.2,0.3C25.4,29.5,25.4,29.6,25.1,29.6z"/>
		</g>
		<g>
			<path class="st4" d="M25.5,29.7c-0.2-0.1-0.2-0.3-0.3-0.4c0-0.1,0-0.2,0-0.3c0-0.2,0-0.4,0-0.6c0.1-0.4,0.3-0.7,0.5-1
				c0.2-0.3,0.4-0.6,0.7-0.9c0.2-0.1,0.4-0.3,0.7-0.3c0.1,0,0.3,0.1,0.4,0.1c0.1,0.1,0.2,0.1,0.2,0.2c0.3,0.3,0.5,0.8,0.4,1.2
				c-0.1,0.4-0.4,0.7-0.6,1C27,29.3,26.4,29.7,25.5,29.7z M25.6,29.3c0.2,0,0.6-0.2,0.8-0.4l0.8-0.6c0.3-0.2,0.5-0.5,0.5-0.8
				c0-0.3-0.1-0.5-0.3-0.7c-0.1,0-0.1-0.1-0.2-0.1c0,0-0.1,0-0.1,0c-0.1,0-0.2,0.1-0.3,0.2c-0.2,0.2-0.4,0.5-0.5,0.8l-0.4,0.9
				c-0.1,0.1-0.2,0.3-0.2,0.4C25.7,29.1,25.6,29.2,25.6,29.3C25.6,29.3,25.6,29.4,25.6,29.3z"/>
		</g>
		<g>
			<path class="st4" d="M179.8,29.7C179.8,29.7,179.8,29.7,179.8,29.7c0-0.1-0.1-0.2-0.1-0.3c-0.1-0.1-0.1-0.3-0.2-0.4l-0.4-0.9
				c-0.1-0.3-0.3-0.6-0.5-0.8c-0.1-0.1-0.2-0.2-0.3-0.2c0,0-0.1,0-0.1,0c-0.1,0-0.1,0.1-0.2,0.1c-0.2,0.2-0.4,0.4-0.4,0.7
				c0,0.3,0.2,0.6,0.5,0.8l0.8,0.6C179.3,29.5,179.7,29.7,179.8,29.7z M180,30c-0.9,0-1.6-0.4-2-1c-0.2-0.3-0.5-0.6-0.6-1
				c-0.1-0.4,0.1-0.9,0.4-1.2c0.1-0.1,0.2-0.1,0.2-0.2c0.1-0.1,0.3-0.1,0.4-0.1c0.3,0,0.5,0.2,0.7,0.3c0.3,0.3,0.5,0.6,0.7,0.9
				c0.2,0.3,0.4,0.7,0.4,1c0,0.2,0,0.4,0,0.6c0,0.1,0,0.2,0,0.3C180.2,29.7,180.2,29.9,180,30z"/>
		</g>
		<g>
			<path class="st4" d="M180.3,29.9c-0.3,0-0.3-0.2-0.4-0.2c-0.1-0.1-0.1-0.2-0.2-0.3c-0.1-0.2-0.2-0.4-0.2-0.6
				c-0.1-0.4-0.1-0.8,0-1.1c0.1-0.4,0.1-0.7,0.3-1.1c0.1-0.2,0.2-0.4,0.5-0.5c0.1-0.1,0.3-0.1,0.4-0.1c0.1,0,0.2,0.1,0.3,0.1
				c0.4,0.1,0.8,0.5,0.8,0.9c0.1,0.4,0,0.8-0.1,1.2C181.6,28.9,181.2,29.5,180.3,29.9z M180.3,29.5c0.2,0,0.4-0.4,0.6-0.7l0.5-0.8
				c0.2-0.3,0.2-0.6,0.1-0.9c-0.1-0.3-0.3-0.4-0.6-0.5c-0.1,0-0.1,0-0.2,0c0,0-0.1,0-0.1,0c-0.1,0-0.1,0.1-0.2,0.2
				c-0.1,0.3-0.2,0.6-0.2,0.9l0,1c0,0.2,0,0.3,0,0.5C180.3,29.3,180.3,29.4,180.3,29.5C180.3,29.5,180.3,29.5,180.3,29.5z"/>
		</g>
	</g>
</g>
<g id="Layer_6">
	<g>
		<g>
			<path class="st5" d="M65.1,26.4c-0.2,0.9-0.3,1.3-0.5,2.2c-0.6-0.1-0.8-0.2-1.4-0.3c0.6-2.5,0.9-3.7,1.5-6.2
				c0.9,0.2,1.3,0.3,2.2,0.5c0.6,0.1,1.1,0.4,1.4,0.9c0.3,0.5,0.4,1,0.3,1.6c-0.1,0.6-0.4,1.1-0.8,1.4s-1,0.4-1.7,0.2
				C65.6,26.5,65.5,26.5,65.1,26.4z M65.3,25.3c0.4,0.1,0.6,0.1,0.9,0.2c0.3,0.1,0.5,0,0.6-0.1c0.2-0.1,0.3-0.3,0.3-0.6
				c0.1-0.3,0-0.6-0.1-0.8c-0.1-0.2-0.3-0.3-0.5-0.4c-0.4-0.1-0.5-0.1-0.9-0.2C65.6,24.2,65.5,24.6,65.3,25.3z"/>
			<path class="st5" d="M71.2,27.4c-0.3,0-0.4-0.1-0.7-0.1c-0.1,0.9-0.2,1.4-0.3,2.3c-0.6-0.1-0.8-0.1-1.4-0.2
				c0.4-2.5,0.6-3.8,1-6.3c0.8,0.1,1.2,0.2,2.1,0.3c0.6,0.1,1.1,0.3,1.4,0.7c0.3,0.4,0.4,0.9,0.4,1.5c-0.1,0.8-0.5,1.4-1.2,1.7
				c0.3,1.1,0.5,1.6,0.9,2.7c0,0,0,0,0,0.1c-0.6-0.1-0.9-0.1-1.5-0.2C71.6,28.9,71.5,28.4,71.2,27.4z M70.7,26.2
				c0.3,0,0.5,0.1,0.8,0.1c0.3,0,0.5,0,0.6-0.2c0.2-0.2,0.3-0.4,0.3-0.7c0.1-0.6-0.1-1-0.6-1.1c-0.3,0-0.5-0.1-0.8-0.1
				C70.8,25.1,70.8,25.5,70.7,26.2z"/>
			<path class="st5" d="M79.2,27.8c0,0.9-0.3,1.5-0.7,2c-0.5,0.5-1.1,0.7-1.9,0.6c-0.8,0-1.4-0.3-1.8-0.8c-0.4-0.5-0.6-1.2-0.5-2
				c0-0.4,0.1-0.7,0.1-1.1c0.1-0.9,0.4-1.5,0.8-2c0.5-0.5,1-0.7,1.8-0.6c0.7,0,1.3,0.3,1.7,0.8c0.4,0.5,0.6,1.2,0.6,2.1
				C79.2,27.1,79.2,27.3,79.2,27.8z M77.9,26.7c0-0.6,0-1-0.2-1.3s-0.4-0.4-0.8-0.5c-0.3,0-0.6,0.1-0.8,0.4
				c-0.2,0.3-0.3,0.7-0.4,1.2c0,0.5-0.1,0.7-0.1,1.1c0,0.6,0,1,0.2,1.3c0.2,0.3,0.4,0.4,0.8,0.5c0.4,0,0.6-0.1,0.8-0.3
				c0.2-0.2,0.3-0.6,0.3-1.2C77.9,27.3,77.9,27.1,77.9,26.7z"/>
			<path class="st5" d="M82.4,24c0.5,0,0.8,0,1.3,0c0.1,1.8,0.1,2.7,0.1,4.4c0,0.6-0.2,1.1-0.5,1.5c-0.4,0.4-0.9,0.6-1.5,0.6
				c-0.6,0-1.1-0.2-1.5-0.5s-0.5-0.8-0.5-1.5c0.6,0,0.8,0,1.4,0c0,0.6,0.2,0.9,0.6,0.9c0.4,0,0.6-0.4,0.6-1.1
				C82.4,26.7,82.4,25.8,82.4,24z"/>
			<path class="st5" d="M88.4,27.4c-0.9,0.1-1.3,0.1-2.1,0.2c0,0.7,0.1,1,0.1,1.7c1-0.1,1.5-0.1,2.6-0.2c0,0.4,0.1,0.6,0.1,1.1
				c-1.6,0.2-2.4,0.2-4,0.3c-0.1-2.6-0.2-3.8-0.3-6.4c1.5-0.1,2.2-0.1,3.7-0.3c0,0.4,0.1,0.6,0.1,1.1c-1,0.1-1.5,0.1-2.4,0.2
				c0,0.6,0.1,0.9,0.1,1.5c0.8-0.1,1.3-0.1,2.1-0.2C88.3,26.7,88.3,26.9,88.4,27.4z"/>
			<path class="st5" d="M94.2,27.2c0.1,0.7,0,1.3-0.4,1.7s-0.9,0.7-1.7,0.8c-0.8,0.1-1.4-0.1-1.9-0.5c-0.5-0.4-0.7-1.1-0.8-2
				c0-0.4-0.1-0.6-0.1-1.1c-0.1-0.9,0-1.6,0.4-2.1c0.3-0.5,0.9-0.8,1.6-0.9c0.7-0.1,1.3,0,1.7,0.3c0.4,0.3,0.7,0.8,0.9,1.6
				c-0.5,0.1-0.8,0.1-1.3,0.2c-0.1-0.4-0.2-0.7-0.4-0.9c-0.2-0.1-0.4-0.2-0.7-0.2c-0.4,0-0.6,0.2-0.7,0.5c-0.1,0.3-0.1,0.7-0.1,1.2
				c0.1,0.5,0.1,0.7,0.1,1.2c0.1,0.6,0.2,1.1,0.4,1.3c0.2,0.2,0.5,0.3,0.8,0.2c0.4-0.1,0.6-0.2,0.7-0.4c0.1-0.2,0.1-0.5,0.1-0.9
				C93.4,27.4,93.7,27.3,94.2,27.2z"/>
			<path class="st5" d="M98.5,23.1c-0.6,0.2-1,0.2-1.6,0.4c0.5,2.1,0.7,3.1,1.1,5.2c-0.6,0.1-0.8,0.2-1.4,0.3
				c-0.4-2.1-0.6-3.1-1-5.2c-0.6,0.1-0.9,0.2-1.6,0.3c-0.1-0.4-0.1-0.6-0.2-1.1c1.8-0.3,2.6-0.5,4.4-0.9
				C98.4,22.5,98.4,22.7,98.5,23.1z"/>
		</g>
	</g>
	<g>
		<g>
			<path class="st5" d="M110.9,28.1c-0.3,0.2-0.7,0.4-1.1,0.4c-0.4,0.1-0.9,0-1.3-0.1c-0.8-0.2-1.4-0.5-1.7-1.1
				c-0.3-0.5-0.4-1.2-0.2-2.1c0.1-0.4,0.2-0.7,0.3-1.1c0.2-0.9,0.6-1.5,1.1-1.8c0.5-0.4,1.1-0.5,1.8-0.3c0.7,0.1,1.2,0.4,1.5,0.8
				c0.3,0.4,0.4,1,0.3,1.7c-0.5-0.1-0.8-0.1-1.3-0.2c0-0.4,0-0.7-0.1-0.9c-0.1-0.2-0.3-0.3-0.6-0.3c-0.4-0.1-0.6,0-0.8,0.2
				c-0.2,0.2-0.4,0.6-0.5,1.1c-0.1,0.5-0.1,0.7-0.2,1.1c-0.1,0.6-0.1,1,0,1.3c0.1,0.3,0.4,0.5,0.8,0.6c0.3,0.1,0.5,0,0.7,0
				c0.1,0,0.1,0,0.1-0.1c0.1-0.5,0.1-0.7,0.2-1.2c-0.4-0.1-0.6-0.1-1-0.2c0.1-0.4,0.1-0.6,0.2-1c0.9,0.2,1.4,0.3,2.3,0.4
				C111.2,26.6,111.1,27.1,110.9,28.1z"/>
			<path class="st5" d="M115.3,28.2c-0.8-0.1-1.1-0.1-1.9-0.2c-0.2,0.5-0.3,0.7-0.6,1.2c-0.6-0.1-0.9-0.1-1.5-0.2
				c1.3-2.4,1.9-3.6,3-6c0.5,0.1,0.7,0.1,1.2,0.2c0.5,2.6,0.8,4,1.4,6.6c-0.6-0.1-0.9-0.1-1.5-0.2C115.4,29,115.4,28.7,115.3,28.2z
				 M113.8,26.9c0.5,0.1,0.8,0.1,1.3,0.2c-0.1-0.9-0.2-1.4-0.3-2.3C114.4,25.6,114.2,26,113.8,26.9z"/>
			<path class="st5" d="M119.1,28.8c1,0.1,1.5,0.1,2.5,0.1c0,0.4,0,0.6,0,1.1c-1.6,0-2.3-0.1-3.9-0.2c0.2-2.6,0.3-3.8,0.5-6.4
				c0.5,0,0.8,0.1,1.3,0.1C119.3,25.6,119.3,26.6,119.1,28.8z"/>
			<path class="st5" d="M123.8,28.9c1,0,1.5,0,2.5,0c0,0.4,0,0.6,0,1.1c-1.6,0-2.3,0.1-3.9,0c0.1-2.6,0.1-3.8,0.1-6.4
				c0.5,0,0.8,0,1.3,0C123.8,25.7,123.8,26.8,123.8,28.9z"/>
			<path class="st5" d="M130.5,26.9c-0.9,0.1-1.3,0.1-2.1,0.2c0,0.7,0.1,1,0.1,1.7c1-0.1,1.5-0.1,2.6-0.2c0,0.4,0.1,0.6,0.1,1.1
				c-1.6,0.2-2.4,0.2-4,0.3c-0.1-2.6-0.2-3.8-0.3-6.4c1.5-0.1,2.2-0.1,3.7-0.3c0,0.4,0.1,0.6,0.1,1.1c-1,0.1-1.5,0.1-2.4,0.2
				c0,0.6,0.1,0.9,0.1,1.5c0.8-0.1,1.3-0.1,2.1-0.2C130.5,26.3,130.5,26.5,130.5,26.9z"/>
			<path class="st5" d="M133.8,27c-0.3,0-0.4,0.1-0.7,0.1c0.1,0.9,0.2,1.4,0.3,2.3c-0.6,0.1-0.8,0.1-1.4,0.2
				c-0.3-2.5-0.4-3.8-0.7-6.4c0.8-0.1,1.2-0.1,2.1-0.2c0.6-0.1,1.2,0,1.6,0.3c0.4,0.3,0.7,0.7,0.8,1.3c0.1,0.8-0.1,1.5-0.7,1.9
				c0.6,1,1,1.4,1.6,2.4c0,0,0,0,0,0.1c-0.6,0.1-0.9,0.1-1.5,0.2C134.6,28.3,134.3,27.9,133.8,27z M133,26c0.3,0,0.5-0.1,0.8-0.1
				c0.3,0,0.5-0.1,0.6-0.3c0.1-0.2,0.1-0.4,0.1-0.7c-0.1-0.6-0.4-0.9-0.9-0.8c-0.3,0-0.5,0.1-0.8,0.1C132.8,24.9,132.9,25.2,133,26z
				"/>
			<path class="st5" d="M138.6,25c0.2-1.2,0.2-1.8,0.4-3c0.6-0.1,0.8-0.2,1.4-0.3c-0.3,1.7-0.5,2.6-0.8,4.4c0.2,0.9,0.3,1.4,0.5,2.3
				c-0.6,0.1-0.8,0.2-1.4,0.3c-0.2-0.9-0.3-1.4-0.4-2.3c-1-1.5-1.5-2.2-2.5-3.7c0.6-0.1,0.8-0.1,1.4-0.3
				C137.6,23.4,137.9,23.9,138.6,25z"/>
		</g>
	</g>
</g>
</svg>
