<?xml version="1.0" encoding="utf-8"?>
<!-- Generator: Adobe Illustrator 22.1.0, SVG Export Plug-In . SVG Version: 6.00 Build 0)  -->
<svg version="1.1" xmlns="http://www.w3.org/2000/svg" xmlns:xlink="http://www.w3.org/1999/xlink" x="0px" y="0px"
	 viewBox="0 0 165 27" style="enable-background:new 0 0 165 27;" xml:space="preserve">
<style type="text/css">
	.st0{display:none;}
	.st1{display:inline;fill:#D1D3D4;}
	.st2{fill:#FFFFFF;}
	.st3{fill:#29394B;}
	.st4{fill:#1399AA;}
	.st5{fill:#E14658;}
</style>
<g id="Layer_4" class="st0">
	<rect x="-20" y="-18" class="st1" width="200" height="54"/>
</g>
<g id="Layer_7">
	<g>
		<g>
			<path class="st2" d="M10,20.5c1.9,0,1.9-3,0-3C8.1,17.5,8.1,20.5,10,20.5L10,20.5z"/>
		</g>
	</g>
	<g>
		<g>
			<path class="st2" d="M11.5,18.7c-0.2-1.8-1-3.4-1.7-5.1c-0.3-0.7-1-1.3-1.8-1c-0.7,0.2-1.4,1.1-1,1.8c0.6,1.3,1.4,2.8,1.6,4.3
				c0.1,0.8,0.6,1.5,1.5,1.5C10.7,20.2,11.6,19.5,11.5,18.7L11.5,18.7z"/>
		</g>
	</g>
	<g>
		<g>
			<path class="st2" d="M7.7,15c1.9,0,1.9-3,0-3C5.8,12,5.8,15,7.7,15L7.7,15z"/>
		</g>
	</g>
	<g>
		<g>
			<path class="st2" d="M9.4,15.7c1.6-0.1,3.8,1.3,4.6-0.9c0.3-0.8-0.3-1.6-1-1.8c-0.8-0.2-1.6,0.3-1.8,1c0,0,0,0.1,0,0.1
				c0.2-0.3,0.5-0.6,0.7-0.9c0,0-0.1,0-0.1,0c0.3-0.1,0.5-0.1,0.8-0.2c-0.4,0.1-0.9-0.1-1.3-0.2c-0.6-0.1-1.2-0.2-1.7-0.2
				c-0.8,0-1.5,0.7-1.5,1.5C7.9,15,8.6,15.8,9.4,15.7L9.4,15.7z"/>
		</g>
	</g>
	<g>
		<g>
			<path class="st2" d="M10.7,14.2c-0.2,0.3-0.3,0.7-0.4,1.1c0,0.1,0,0.1,0,0.2c0-0.1,0-0.1,0,0c0,0.1,0,0.1-0.2,0.2
				c-0.7,0.6-1.2,1.2-1.3,2.2c-0.1,0.8,0.7,1.5,1.5,1.5c0.9,0,1.4-0.7,1.5-1.5c0,0.1-0.1,0.2-0.1,0.3c-0.1,0.1-0.1,0.1,0,0
				c0.1,0,0.2-0.2,0.3-0.2c0.3-0.2,0.5-0.5,0.7-0.8c0.2-0.3,0.3-0.6,0.4-0.9c0-0.1,0.1-0.2,0.1-0.3c0.1-0.3-0.1,0,0.1-0.2
				C14.3,14.1,11.7,12.6,10.7,14.2L10.7,14.2z"/>
		</g>
	</g>
	<g>
		<g>
			<path class="st2" d="M39.3,13.5c0.4,0.7,1.1,1.1,1.5,1.8c0.4,0.7,0.6,1.6,0.8,2.4c0.6,1.8,3.5,1,2.9-0.8c-0.3-0.9-0.6-1.9-1-2.8
				c-0.4-0.9-1.1-1.3-1.6-2.1C40.9,10.4,38.3,11.9,39.3,13.5L39.3,13.5z"/>
		</g>
	</g>
	<g>
		<g>
			<path class="st2" d="M45,20.4c0.6-2.2,2.6-7.9-1.2-8.5c-1.9-0.3-2.7,2.6-0.8,2.9c0.4,0.1-0.8,4.5-0.9,4.8
				C41.6,21.4,44.5,22.2,45,20.4L45,20.4z"/>
		</g>
	</g>
	<g>
		<g>
			<path class="st2" d="M46.3,12.5c-1.5,0.6-2,2.1-2.6,3.5c-0.3,0.7-0.2,1.6,0.5,2.1c0.6,0.4,1.7,0.2,2.1-0.5c0.2-0.5,0.5-1,0.7-1.5
				c0.1-0.2,0.2-0.4,0.3-0.6c0.2-0.4,0.3-0.2-0.1-0.1c0.8-0.3,1.3-1,1-1.8C47.9,12.9,47,12.3,46.3,12.5L46.3,12.5z"/>
		</g>
	</g>
	<g>
		<g>
			<path class="st2" d="M44.8,18.4c0-1.2-0.4-2.3-1.2-3.3c-0.7-0.8-2.3-0.4-2.5,0.7c-0.1,0.6-0.1,1.1,0.2,1.6
				c0.1,0.2,0.3,0.4,0.4,0.6c0,0,0.1,0.1,0.1,0.1c-0.2-0.2-0.2-0.4-0.1-0.6c-0.2,0.8,0.3,1.7,1,1.8c0.8,0.2,1.6-0.2,1.8-1
				c0.2-0.5,0.1-1.1-0.2-1.6c-0.1-0.2-0.2-0.4-0.4-0.6c-0.2-0.3,0,0.1,0,0.5c-0.8,0.2-1.7,0.4-2.5,0.7c-0.1-0.1,0.1,0.2,0.1,0.2
				c0.2,0.3,0-0.1,0.1,0.2c0,0.2,0.1,0.3,0.1,0.5c0-0.2,0,0.2,0,0.2c0,0.8,0.7,1.5,1.5,1.5C44.1,19.9,44.8,19.2,44.8,18.4L44.8,18.4
				z"/>
		</g>
	</g>
	<g>
		<g>
			<path class="st2" d="M42,17.3c1.9,0,1.9-3,0-3C40.1,14.3,40.1,17.3,42,17.3L42,17.3z"/>
		</g>
	</g>
	<g>
		<g>
			<path class="st2" d="M43.4,15.1c0-0.1,0-0.3,0-0.4c0-0.8-0.7-1.5-1.5-1.5c-0.8,0-1.5,0.7-1.5,1.5c0,0.1,0,0.3,0,0.4
				c0,0.8,0.7,1.5,1.5,1.5C42.7,16.6,43.4,16,43.4,15.1L43.4,15.1z"/>
		</g>
	</g>
	<g>
		<g>
			<path class="st2" d="M42,14.4c1.9,0,1.9-3,0-3C40,11.4,40,14.4,42,14.4L42,14.4z"/>
		</g>
	</g>
	<g>
		<g>
			<path class="st2" d="M40.4,13.8c1.9,0,1.9-3,0-3C38.5,10.8,38.5,13.8,40.4,13.8L40.4,13.8z"/>
		</g>
	</g>
	<g>
		<g>
			<path class="st2" d="M74.1,16.9c0.1,0,0.2,0.1,0.3,0.1c-0.1,0-0.1,0,0.1,0c0.1,0,0.5,0.3,0.4,0.2c0.6,0.5,1.5,0.6,2.1,0
				c0.5-0.5,0.6-1.6,0-2.1c-0.6-0.5-1.3-0.9-2.1-1.1c-0.8-0.2-1.7,0.3-1.8,1C72.9,15.8,73.3,16.6,74.1,16.9L74.1,16.9z"/>
		</g>
	</g>
	<g>
		<g>
			<path class="st2" d="M80.2,20.9c0.1-2.6,0.8-7.6-3.1-7.4c-1.9,0.1-1.9,3.1,0,3c0.3,0,0.4,0,0.1-0.1c-0.2-0.1-0.3,0-0.1,0.4
				c0,0.4,0.1,0.9,0.1,1.4c0,0.9,0,1.8,0,2.7C77.1,22.8,80.2,22.8,80.2,20.9L80.2,20.9z"/>
		</g>
	</g>
	<g>
		<g>
			<path class="st2" d="M78.2,17.8c0.3,0.2,0.4,0.3,0.2,0.1c0.1,0.1,0.1,0.1,0-0.1c0.1,0.2-0.1-0.2-0.1-0.2
				c-0.2-0.5-0.4-0.9-0.7-1.3c-0.6-0.5-1.5-0.6-2.1,0c-0.6,0.6-0.6,1.6,0,2.1c0,0-0.1-0.2-0.1-0.2c0,0,0.1,0.3,0.1,0.3
				c0.1,0.3,0.2,0.6,0.4,0.9c0.4,0.6,0.9,1.1,1.6,1.2c0.8,0.1,1.7-0.2,1.8-1C79.4,18.9,79.1,17.9,78.2,17.8L78.2,17.8z"/>
		</g>
	</g>
	<g>
		<g>
			<path class="st2" d="M80.9,18.4c0-0.9,0.2-1.8,0.2-2.7c0-1-0.1-1.7-0.9-2.4c-0.6-0.5-1.5-0.6-2.1,0c-0.5,0.5-0.6,1.6,0,2.1
				c0.2,0.1,0.3,0.3,0.5,0.4c-0.1-0.4-0.3-0.7-0.4-1.1c0.2,1.2-0.3,2.4-0.2,3.6C78,20.4,81,20.4,80.9,18.4L80.9,18.4z"/>
		</g>
	</g>
	<g>
		<g>
			<path class="st2" d="M81.7,15.1c0-0.2,0-0.5,0-0.7c0-0.3,0-0.2-0.2,0.4c0,0,0.1-0.1,0.1-0.1c0.1-0.1,0.2-0.2,0.3-0.3
				c0.1-0.1,0.1-0.3,0.2-0.4c0,0.1-0.1,0.2-0.1,0.3c0.1-0.1,0.1-0.1,0.2-0.2c0.6-0.5,0.5-1.6,0-2.1c-0.6-0.6-1.5-0.5-2.1,0
				c-0.2,0.2-0.4,0.4-0.6,0.7c0,0.1-0.1,0.2-0.1,0.3c-0.1,0.3-0.1,0.2,0.2-0.2c-0.1,0.1-0.2,0.2-0.3,0.3c-0.5,0.7-0.4,1.4-0.4,2.2
				c-0.1,0.8,0.7,1.5,1.5,1.5C81,16.6,81.6,16,81.7,15.1L81.7,15.1z"/>
		</g>
	</g>
	<g>
		<g>
			<path class="st2" d="M106.3,16.7c2.2-0.1,4.5-0.3,6.7-0.6c1.9-0.2,1.9-3.2,0-3c-2.2,0.3-4.5,0.5-6.7,0.6
				C104.4,13.8,104.4,16.8,106.3,16.7L106.3,16.7z"/>
		</g>
	</g>
	<g>
		<g>
			<path class="st2" d="M105.4,16.3c0.1,2.3,2.4,3.3,3.1,5.4c0.6,1.8,3.5,1.1,2.9-0.8c-0.3-1-0.8-1.9-1.4-2.7
				c-0.4-0.5-1.5-1.2-1.6-1.9C108.3,14.3,105.3,14.3,105.4,16.3L105.4,16.3z"/>
		</g>
	</g>
	<g>
		<g>
			<path class="st2" d="M111.5,21.1c0.1-0.6,0.1-1.2,0.6-1.7c-0.8-0.5-1.7-1-2.5-1.5c0,0.2-0.1,0.4-0.2,0.5c0.9,0.5,1.7,1,2.6,1.5
				c0.6-1.2,1.9-2.6,1.6-4c-0.4-1.9-3.3-1.1-2.9,0.8c0,0.1,0,0.1,0,0.2c0.1-0.4,0.1-0.8,0.2-1.2c-0.4,0.9-1,1.7-1.5,2.6
				c-0.8,1.7,1.6,3.2,2.6,1.5c0.2-0.4,0.4-0.8,0.5-1.2c0.3-1.4-1.4-2.6-2.5-1.5c-1,1.1-1.3,2.4-1.4,3.8c-0.1,0.8,0.8,1.5,1.5,1.5
				C110.9,22.6,111.4,21.9,111.5,21.1L111.5,21.1z"/>
		</g>
	</g>
	<g>
		<g>
			<path class="st2" d="M111.2,15.8c-0.6,0-1.2,0-1.8,0c-0.8,0-1.5,0.7-1.5,1.5c0,0.8,0.7,1.5,1.5,1.5c0.6,0,1.2,0,1.8,0
				c0.8,0,1.5-0.7,1.5-1.5C112.7,16.4,112,15.8,111.2,15.8L111.2,15.8z"/>
		</g>
	</g>
	<g>
		<g>
			<path class="st2" d="M138.1,16.6c2.5,0.7,5.1,1,7.7,0.7c1.9-0.2,1.9-3.2,0-3c-2.3,0.3-4.6,0.1-6.9-0.5
				C137,13.2,136.2,16.1,138.1,16.6L138.1,16.6z"/>
		</g>
	</g>
	<g>
		<g>
			<path class="st2" d="M144.3,15c-0.6,1-1.5,1.8-2.1,2.8c-0.6,0.9-1.1,2-1.6,3c-0.9,1.7,1.7,3.2,2.6,1.5c0.5-1,1-2.1,1.6-3
				c0.7-1,1.5-1.8,2.1-2.8C148,14.8,145.4,13.3,144.3,15L144.3,15z"/>
		</g>
	</g>
	<g>
		<g>
			<path class="st2" d="M143.4,21.2c0-1.1-0.3-2.1-1-3c-0.3-0.3-0.5-0.6-0.7-0.9c-0.2-0.4-0.7-0.8-0.8-1.1c-0.6,0.7-1.1,1.5-1.7,2.2
				c0.9,0.3,1.8,0.6,2.7,0.9c1.8,0.6,2.6-2.3,0.8-2.9c-0.9-0.3-1.8-0.6-2.7-0.9c-1.4-0.4-2.2,1.1-1.7,2.2c0.2,0.3,0.4,0.6,0.7,0.8
				c0.2,0.3,0.4,0.6,0.6,0.9c0.4,0.6,0.9,0.9,0.8,1.7C140.3,23.2,143.3,23.2,143.4,21.2L143.4,21.2z"/>
		</g>
	</g>
	<g>
		<g>
			<path class="st3" d="M159.6,14.7c1.9,0,1.9-3,0-3C157.6,11.7,157.6,14.7,159.6,14.7L159.6,14.7z"/>
		</g>
	</g>
	<g>
		<g>
			<path class="st3" d="M153,16.7c1.9,0,1.9-3,0-3C151.1,13.7,151.1,16.7,153,16.7L153,16.7z"/>
		</g>
	</g>
	<g>
		<g>
			<path class="st3" d="M153.6,16.8c0.8,0,1.6,0,2.3-0.3c0.7-0.3,1.4-0.6,2.2-0.9c1.8-0.6,1-3.5-0.8-2.9c-1.3,0.4-2.4,1.1-3.7,1.1
				C151.6,13.7,151.6,16.7,153.6,16.8L153.6,16.8z"/>
		</g>
	</g>
	<g>
		<g>
			<path class="st3" d="M157.2,22.4c1.9,0,1.9-3,0-3C155.3,19.4,155.3,22.4,157.2,22.4L157.2,22.4z"/>
		</g>
	</g>
	<g>
		<g>
			<path class="st3" d="M158.5,20.3c-0.1-1.4,0.2-2.8-0.4-4.1c-0.3-0.8-1-1.3-1.8-1c-0.7,0.2-1.4,1.1-1,1.8c0.4,1.1,0.2,2.2,0.3,3.3
				c0.1,0.8,0.6,1.5,1.5,1.5C157.8,21.8,158.6,21.1,158.5,20.3L158.5,20.3z"/>
		</g>
	</g>
	<g>
		<g>
			<path class="st3" d="M159.3,19.3c0-0.7,0-1.4,0-2.1c0-0.3,0-0.7,0.1-1c0-0.1,0.2-0.5,0.1-0.4c-0.8-0.2-1.7-0.4-2.5-0.7
				c0,0.1,0,0.1,0.1,0.2c0.6,1.8,3.5,1.1,2.9-0.8c0-0.1,0-0.1-0.1-0.2c-0.3-1.1-1.7-1.5-2.5-0.7c-1.3,1.3-1.1,3.9-1.1,5.6
				C156.4,21.3,159.4,21.3,159.3,19.3L159.3,19.3z"/>
		</g>
	</g>
	<g>
		<g>
			<path class="st3" d="M157.7,18.6c-0.3-0.7-0.7-1.3-1.2-1.9c-0.2-0.3-0.4-0.6-0.7-0.8c-0.1-0.1-0.3-0.3-0.5-0.4
				c0,0-0.4-0.2-0.3-0.1c-0.6-0.5-1.5-0.6-2.1,0c-0.5,0.5-0.6,1.6,0,2.1c0.2,0.2,0.5,0.3,0.7,0.4c0.1,0.1,0.4,0.4,0.5,0.6
				c0.4,0.5,0.7,1,1,1.6c0.4,0.7,1.4,0.9,2.1,0.5C157.9,20.2,158.1,19.3,157.7,18.6L157.7,18.6z"/>
		</g>
	</g>
	<g>
		<g>
			<path class="st3" d="M128.1,21.7c1.9,0,1.9-3,0-3C126.2,18.7,126.2,21.7,128.1,21.7L128.1,21.7z"/>
		</g>
	</g>
	<g>
		<g>
			<path class="st3" d="M131.2,16.3c1.9,0,1.9-3,0-3C129.2,13.3,129.2,16.3,131.2,16.3L131.2,16.3z"/>
		</g>
	</g>
	<g>
		<g>
			<path class="st3" d="M124.9,14.1c1.9,0,1.9-3,0-3C123,11.1,123,14.1,124.9,14.1L124.9,14.1z"/>
		</g>
	</g>
	<g>
		<g>
			<path class="st3" d="M124.6,14.2c1.7,0.4,3.4,0.9,5.1,1.4c1.9,0.5,2.7-2.4,0.8-2.9c-1.7-0.5-3.4-0.9-5.1-1.4
				C123.5,10.8,122.7,13.7,124.6,14.2L124.6,14.2z"/>
		</g>
	</g>
	<g>
		<g>
			<path class="st3" d="M124,13.8c0.6,2.1,1.8,3.9,2.4,6c0.6,1.8,3.5,1,2.9-0.8c-0.7-2.1-1.9-3.9-2.4-6
				C126.3,11.1,123.5,11.9,124,13.8L124,13.8z"/>
		</g>
	</g>
	<g>
		<g>
			<path class="st3" d="M127.7,21C127.8,21,127.8,21,127.7,21c-0.3-0.3-0.6-0.7-1-1c0,0,0,0.1,0,0.1c0.2,0.8,1.1,1.3,1.8,1
				c0.9-0.2,1.2-1,1-1.8c0-0.1,0-0.1,0-0.2c0,0.3,0,0.5,0,0.8c0.1-0.5,0.5-0.9,0.7-1.4c0.3-0.5,0.7-1,1-1.5c0.4-0.5,0.2-1.4-0.2-1.8
				c-0.3-0.3-0.5-0.4-0.9-0.5c-0.2,0-0.4-0.1-0.6-0.1c0,0,0.1,0,0.1,0c-1-1.7-3.6-0.2-2.6,1.5c0.3,0.5,0.6,0.8,1.1,1.1
				c0.2,0.1,0.5,0.2,0.7,0.3c0.1,0,0.8,0.1,0.5,0c-0.2-0.1-0.4-0.3-0.7-0.4c0,0,0.1,0.1,0.1,0.1c-0.1-0.6-0.2-1.2-0.2-1.8
				c-0.9,1.3-2.3,2.9-2,4.6c1-0.3,1.9-0.5,2.9-0.8c0,0,0-0.1,0-0.1c-0.1-0.5-0.6-0.9-1-1c0,0-0.1,0-0.1,0
				C126.7,17.6,125.9,20.5,127.7,21L127.7,21z"/>
		</g>
	</g>
	<g>
		<g>
			<path class="st3" d="M91.4,16.2c1.9,0,1.9-3,0-3C89.5,13.2,89.4,16.2,91.4,16.2L91.4,16.2z"/>
		</g>
	</g>
	<g>
		<g>
			<path class="st3" d="M97.1,17.1c1.9,0,1.9-3,0-3C95.2,14.1,95.2,17.1,97.1,17.1L97.1,17.1z"/>
		</g>
	</g>
	<g>
		<g>
			<path class="st3" d="M94.1,22.5c1.9,0,1.9-3,0-3C92.2,19.5,92.2,22.5,94.1,22.5L94.1,22.5z"/>
		</g>
	</g>
	<g>
		<g>
			<path class="st3" d="M95.7,21c-0.1-1.6-0.1-3.2,0.1-4.8c0.1-0.8-0.2-1.6-1-1.8c-0.7-0.2-1.7,0.2-1.8,1c-0.3,1.9-0.4,3.7-0.3,5.6
				C92.8,22.9,95.8,22.9,95.7,21L95.7,21z"/>
		</g>
	</g>
	<g>
		<g>
			<path class="st3" d="M93,16.6c0.8,0.1,1.5,0.2,2.3,0.2c0.8,0.1,1.5-0.8,1.5-1.5c0-0.9-0.7-1.4-1.5-1.5c-0.8-0.1-1.5-0.2-2.3-0.2
				c-0.8-0.1-1.5,0.8-1.5,1.5C91.5,16,92.1,16.5,93,16.6L93,16.6z"/>
		</g>
	</g>
	<g>
		<g>
			<path class="st3" d="M96.2,15.3c-0.5,0.4-0.9,0.7-1.2,1.3c-0.1,0.2-0.2,0.4-0.3,0.5c0,0.1-0.1,0.2-0.1,0.2
				c-0.2,0.3,0.2-0.2-0.1,0.1c-0.5,0.6-0.6,1.5,0,2.1c0.5,0.5,1.6,0.6,2.1,0c0.3-0.4,0.6-0.7,0.8-1.1c0.1-0.2,0.2-0.3,0.3-0.5
				c0,0,0.2-0.3,0.1-0.1c-0.1,0.1,0.2-0.2,0,0c0.7-0.5,1-1.3,0.5-2.1C97.8,15.2,96.8,14.8,96.2,15.3L96.2,15.3z"/>
		</g>
	</g>
	<g>
		<g>
			<path class="st3" d="M95,21c1.9,0,1.9-3,0-3C93.1,18,93.1,21,95,21L95,21z"/>
		</g>
	</g>
	<g>
		<g>
			<path class="st3" d="M95.1,18.4c-0.2-0.4-0.3-0.8-0.5-1.3c-0.1-0.3-0.2-0.5-0.4-0.8c-0.1-0.1-0.2-0.2-0.2-0.3
				c-0.1-0.1-0.1-0.2-0.1-0.1c0,0.1,0.1,0.3,0,0c-0.1-0.8-1.1-1.2-1.8-1c-0.8,0.2-1.2,1-1,1.8c0.1,0.3,0.2,0.6,0.4,0.9
				c0.1,0.1,0.2,0.2,0.2,0.3c0.1,0.1,0.1,0.2,0.1,0.1c-0.1-0.1,0.1,0.2,0,0.1c0.2,0.6,0.4,1.3,0.7,1.9C93.4,21.6,96,20.1,95.1,18.4
				L95.1,18.4z"/>
		</g>
	</g>
	<g>
		<g>
			<path class="st3" d="M57.3,17.4c1.9,0,1.9-3,0-3C55.4,14.4,55.4,17.4,57.3,17.4L57.3,17.4z"/>
		</g>
	</g>
	<g>
		<g>
			<path class="st3" d="M64.2,17.3c1.9,0,1.9-3,0-3C62.3,14.3,62.2,17.3,64.2,17.3L64.2,17.3z"/>
		</g>
	</g>
	<g>
		<g>
			<path class="st3" d="M60.7,23.1c1.9,0,1.9-3,0-3C58.7,20.1,58.7,23.1,60.7,23.1L60.7,23.1z"/>
		</g>
	</g>
	<g>
		<g>
			<path class="st3" d="M62.2,21.6c0-1.6,0-3.3,0-4.9c-0.1-1.9-3.1-1.9-3,0c0.1,1.6,0.1,3.3,0,4.9C59.1,23.5,62.1,23.5,62.2,21.6
				L62.2,21.6z"/>
		</g>
	</g>
	<g>
		<g>
			<path class="st3" d="M59.2,18c1.3,0,2.7,0.1,4-0.1c0.8-0.2,1.2-1.1,1-1.8c-0.2-0.8-1-1.2-1.8-1c-0.4,0.1-1,0-1.4,0
				c-0.6,0-1.1,0-1.7,0C57.2,15,57.2,18,59.2,18L59.2,18z"/>
		</g>
	</g>
	<g>
		<g>
			<path class="st3" d="M62.4,16.5c-0.3,0.4-0.5,0.8-0.8,1.2c-0.1,0.2-0.2,0.4-0.4,0.6c-0.1,0.1-0.1,0.2-0.2,0.3
				c-0.1,0.2-0.1,0.2,0.2-0.2c-0.7,0.4-0.9,1.4-0.5,2.1c0.4,0.7,1.3,0.9,2.1,0.5c0.6-0.3,0.9-1,1.2-1.5c0.3-0.5,0.6-1,1-1.5
				c0.5-0.7,0.1-1.7-0.5-2.1C63.7,15.5,62.8,15.9,62.4,16.5L62.4,16.5z"/>
		</g>
	</g>
	<g>
		<g>
			<path class="st3" d="M61.6,20.2c-0.5-0.7-0.9-1.4-1.1-2.2c-0.2-0.8-0.3-1.6-0.9-2.2c-0.6-0.6-2-0.6-2.4,0.3
				c-0.4,0.8-0.4,1.5,0,2.2c0.9,1.7,3.5,0.2,2.6-1.5c0,0.1,0.1,0.1,0.1,0.2c-0.1,0.3-0.1,0.5-0.2,0.8c0-0.1,0.1-0.1,0.1-0.2
				c-0.8,0.1-1.6,0.2-2.4,0.3c-0.1-0.2-0.1-0.2,0,0.1c0,0.2,0.1,0.3,0.1,0.5c0.1,0.4,0.2,0.7,0.3,1.1c0.3,0.8,0.7,1.5,1.1,2.1
				C60.1,23.3,62.7,21.8,61.6,20.2L61.6,20.2z"/>
		</g>
	</g>
	<g>
		<g>
			<path class="st3" d="M23.7,16.5c1.9,0,1.9-3,0-3C21.8,13.5,21.8,16.5,23.7,16.5L23.7,16.5z"/>
		</g>
	</g>
	<g>
		<g>
			<path class="st3" d="M29.5,15.4c1.9,0,1.9-3,0-3C27.6,12.4,27.6,15.4,29.5,15.4L29.5,15.4z"/>
		</g>
	</g>
	<g>
		<g>
			<path class="st3" d="M26.7,21.7c1.9,0,1.9-3,0-3C24.8,18.7,24.8,21.7,26.7,21.7L26.7,21.7z"/>
		</g>
	</g>
	<g>
		<g>
			<path class="st3" d="M28.2,20.2c0-0.8,0.1-1.6,0-2.4C28.1,17,28,16.2,28,15.3c0.1-0.8-0.7-1.5-1.5-1.5c-0.9,0-1.4,0.7-1.5,1.5
				c-0.1,0.8,0.1,1.6,0.2,2.5c0,0.8,0,1.6,0,2.4C25.1,22.2,28.1,22.2,28.2,20.2L28.2,20.2z"/>
		</g>
	</g>
	<g>
		<g>
			<path class="st3" d="M25.4,16.5c1,0.1,1.9-0.1,2.9-0.3c-0.3,0-0.5,0-0.8,0c0,0,0.1,0,0.1,0c-0.3-0.2-0.6-0.5-0.9-0.7
				c0,0,0,0.1,0.1,0.1c-0.1-0.3-0.1-0.5-0.2-0.8c0.1,0.9-0.3,1.9-0.8,2.7c-1,1.7,1.6,3.2,2.6,1.5c0.4-0.7,0.7-1.4,0.9-2.2
				c0.2-0.7,0.4-1.7,0.2-2.4c-0.3-0.9-1.2-1.4-2.1-1.2c-0.7,0.2-1.3,0.3-2.1,0.2c-0.8-0.1-1.5,0.7-1.5,1.5
				C23.9,15.9,24.6,16.5,25.4,16.5L25.4,16.5z"/>
		</g>
	</g>
	<g>
		<g>
			<path class="st3" d="M27.7,18.3c-0.1-0.2-0.1,0-0.1-0.2c0-0.1-0.1-0.2-0.1-0.3c-0.1-0.4-0.2-0.7-0.4-1c-0.3-0.6-0.7-1.1-1.1-1.6
				c-0.9-0.9-2.6-0.2-2.6,1.1c0,0.7,0.2,1.2,0.6,1.8c0.1,0.2,0.2,0.3,0.3,0.5c0,0,0.1,0.4,0.1,0.3c0.1,0.8,0.6,1.5,1.5,1.5
				c0.7,0,1.6-0.7,1.5-1.5c-0.1-0.6-0.2-1.1-0.5-1.7c-0.1-0.3-0.3-0.5-0.5-0.7c-0.2-0.3-0.1-0.2-0.1-0.1c-0.9,0.4-1.7,0.7-2.6,1.1
				c0.3,0.3,0.5,0.6,0.6,0.9c0.2,0.5,0.3,1.1,0.6,1.5c0.5,0.7,1.3,1,2.1,0.5C27.8,20,28.2,19,27.7,18.3L27.7,18.3z"/>
		</g>
	</g>
	<g>
		<g>
			<path class="st3" d="M99.2,81.7c1.9,0,1.9-3,0-3C97.3,78.7,97.3,81.7,99.2,81.7L99.2,81.7z"/>
		</g>
	</g>
</g>
<g id="Layer_5">
	<g>
		<g>
			<path class="st4" d="M2.8,10.5c2.7,0.9,5.6,1.5,8.4,2c2.8,0.5,5.7,0.8,8.6,0.8c2.9,0,5.7-0.2,8.5-0.8c2.8-0.6,5.5-1.6,8-3l0,0
				c0.1-0.1,0.3-0.1,0.4,0c3.7,1.3,7.5,2.3,11.4,2.9c3.9,0.6,7.8,1,11.7,1.4c1.9,0.2,3.9,0.3,5.8,0.3c1.9,0,3.9-0.2,5.8-0.4
				c3.8-0.5,7.6-1.5,11.1-3.2l0,0c0.2-0.1,0.4-0.1,0.5,0c3,1.2,6.3,2.1,9.5,2.7c1.6,0.3,3.3,0.4,4.9,0.5l1.2,0.1c0.4,0,0.8,0,1.2,0
				c0.8,0,1.6,0.1,2.5,0.1c3.3,0.1,6.6-0.2,9.8-0.7c3.2-0.6,6.3-1.7,9.3-3.1l0,0c0.2-0.1,0.3-0.1,0.5,0c3.2,1.2,6.5,2,9.9,2.6
				c3.4,0.5,6.7,1,10.1,1.3c3.4,0.2,6.8,0.1,10.1-0.4c3.4-0.5,6.6-1.4,9.8-2.7l0,0c0.2-0.1,0.4,0,0.5,0.2c0.1,0.2,0,0.4-0.2,0.5
				c-3.1,1.6-6.4,2.8-9.9,3.4c-3.4,0.6-7,0.8-10.5,0.7c-3.5-0.2-7-0.6-10.4-1.4c-3.4-0.8-6.7-1.8-10-3l0.5,0l-2.3,1.1
				c-0.4,0.2-0.8,0.4-1.2,0.5l-1.2,0.4c-0.8,0.3-1.6,0.6-2.4,0.8l-2.5,0.6c-0.8,0.2-1.7,0.3-2.5,0.5c-0.8,0.1-1.7,0.3-2.5,0.3
				l-2.5,0.2l-2.5,0c-0.9,0-1.7-0.1-2.5-0.1c-0.8,0-1.7-0.1-2.5-0.3c-1.7-0.2-3.3-0.6-5-1c-1.6-0.4-3.3-0.7-4.9-1.1
				c-1.6-0.4-3.2-0.9-4.9-1.4l0.5,0c-1.8,0.9-3.6,1.8-5.6,2.3c-1.9,0.6-3.9,1-5.9,1.3c-2,0.3-4,0.4-6,0.5c-2,0.1-4,0.1-6,0
				c-4-0.2-8-0.9-11.8-1.9c-3.8-1-7.7-2-11.5-3.3l0.4,0c-2.6,1.5-5.4,2.6-8.2,3.3c-2.9,0.6-5.9,0.9-8.8,0.9c-2.9-0.1-5.9-0.4-8.8-1
				c-2.9-0.6-5.7-1.3-8.5-2.4c-0.2-0.1-0.3-0.3-0.2-0.5C2.4,10.5,2.6,10.4,2.8,10.5L2.8,10.5z"/>
		</g>
		<g>
			<path class="st4" d="M6.2,11.7C7,13.1,7.5,14.6,8,16.1c0.5,1.5,1.1,3,1.8,4.3c0.1,0.1,0.3,0.3,0.2,0.3c-0.1,0-0.1,0,0,0
				c0.1,0,0.1-0.1,0.2-0.1c0.3-0.3,0.5-0.6,0.7-0.9c0.4-0.6,0.8-1.3,1.2-2.1c0.6-1.4,1.4-2.8,2.2-4.2c0.1-0.1,0.2-0.2,0.3-0.1
				c0.1,0.1,0.1,0.2,0.1,0.3c-0.6,1.5-1.2,2.9-2.1,4.3c-0.4,0.7-0.8,1.4-1.3,2c-0.2,0.3-0.4,0.7-0.7,1c-0.1,0.1-0.1,0.2-0.3,0.3
				c-0.1,0.1-0.3,0.2-0.6,0.2c-0.1,0-0.1,0-0.2-0.1l-0.1-0.1c-0.1-0.1-0.1-0.1-0.1-0.1c-0.1-0.1-0.1-0.2-0.2-0.3
				c-0.9-1.4-1.4-2.9-2.1-4.4c-0.7-1.5-1.1-3-1.4-4.6c0-0.1,0.1-0.3,0.2-0.3C6,11.5,6.2,11.6,6.2,11.7z"/>
		</g>
		<g>
			<path class="st4" d="M21.8,13.5c0.9,1.5,1.8,3,2.5,4.6c0.4,0.8,0.8,1.5,1.3,2.3c0.2,0.4,0.5,0.7,0.8,1c0.1,0.2,0.3,0.3,0.4,0.4
				c0.1,0.1,0,0-0.1,0c0,0,0.1-0.1,0.1-0.1c0.4-0.6,0.8-1.5,1.2-2.2c0.4-0.8,0.7-1.6,1-2.4c0.6-1.6,1.3-3.3,2.1-4.8
				c0.1-0.1,0.2-0.2,0.3-0.1c0.1,0.1,0.1,0.2,0.1,0.3c-0.4,1.7-1,3.4-1.7,5c-0.8,1.6-1.3,3.2-2.4,4.8c-0.1,0.1-0.2,0.2-0.4,0.3
				c-0.1,0.1-0.4,0.1-0.4,0c-0.1-0.1-0.2-0.1-0.2-0.1c-0.2-0.2-0.3-0.4-0.5-0.6c-0.3-0.4-0.5-0.8-0.7-1.1c-0.5-0.8-0.9-1.5-1.4-2.3
				c-1-1.5-1.8-3.1-2.4-4.7c-0.1-0.1,0-0.3,0.1-0.3C21.6,13.3,21.7,13.4,21.8,13.5z"/>
		</g>
		<g>
			<path class="st4" d="M99.6,14.5c-0.7,1.6-1.5,3.2-2.4,4.7c-0.5,0.7-0.9,1.5-1.4,2.3c-0.2,0.4-0.5,0.8-0.7,1.1
				c-0.1,0.2-0.3,0.4-0.5,0.6c-0.1,0.1-0.1,0.1-0.2,0.1c-0.1,0.1-0.3,0-0.4,0c-0.2-0.1-0.3-0.2-0.4-0.3c-1.1-1.5-1.7-3.2-2.4-4.8
				c-0.7-1.6-1.3-3.3-1.7-5c0-0.1,0.1-0.3,0.2-0.3c0.1,0,0.2,0,0.3,0.1c0.8,1.6,1.5,3.2,2.1,4.8c0.3,0.8,0.6,1.6,1,2.4
				c0.4,0.8,0.7,1.6,1.2,2.2c0,0.1,0.1,0.1,0.1,0.1c-0.1,0-0.2,0-0.1,0c0.1-0.1,0.3-0.3,0.4-0.4c0.3-0.3,0.5-0.7,0.8-1
				c0.5-0.7,0.9-1.5,1.3-2.3c0.7-1.6,1.6-3.1,2.5-4.6c0.1-0.1,0.2-0.2,0.3-0.1C99.6,14.2,99.7,14.4,99.6,14.5z"/>
		</g>
		<g>
			<path class="st4" d="M72.9,14.5c1.3,1.4,2.4,2.9,3.5,4.5c0.5,0.8,1.1,1.5,1.7,2.3c0.3,0.3,0.6,0.7,0.9,1c0,0,0.1,0.1,0.1,0.1
				c0,0,0,0,0,0l0,0c0,0-0.1,0-0.1,0c-0.1,0-0.1,0.1-0.1,0c0,0,0,0,0,0c0.1-0.1,0.2-0.3,0.3-0.5c0.8-1.7,1.4-3.5,1.8-5.4
				c0.4-1.9,0.9-3.7,1.5-5.5c0-0.1,0.2-0.2,0.3-0.2c0.1,0,0.2,0.2,0.2,0.3c-0.3,1.9-0.7,3.8-1.3,5.6c-0.6,1.8-1,3.7-1.7,5.5
				c-0.1,0.2-0.2,0.5-0.4,0.7c0,0.1-0.1,0.1-0.2,0.2c0,0.1-0.5,0.2-0.5,0.1c-0.1,0-0.2-0.1-0.3-0.1c-0.1-0.1-0.1-0.1-0.2-0.1
				c-0.4-0.4-0.7-0.7-1-1.1c-0.6-0.7-1.2-1.5-1.8-2.2c-1.2-1.5-2.3-3.1-3.2-4.8c-0.1-0.1,0-0.3,0.1-0.3
				C72.7,14.4,72.8,14.4,72.9,14.5z"/>
		</g>
		<g>
			<path class="st4" d="M151.2,14.5c1.2,1.5,2.3,3,3.3,4.5c0.5,0.8,1.1,1.5,1.7,2.2c0.3,0.3,0.6,0.7,1,1c0.1,0.1,0.2,0.2,0.2,0.2
				c0,0,0,0,0,0c0,0-0.1,0-0.1,0c0,0,0,0,0,0c0.1-0.1,0.2-0.3,0.3-0.5c0.7-1.7,1.2-3.5,1.7-5.3c0.4-1.8,1-3.6,1.7-5.4
				c0-0.1,0.2-0.2,0.3-0.1c0.1,0,0.2,0.2,0.2,0.3c-0.2,1.9-0.6,3.7-1.2,5.5c-0.6,1.8-1.1,3.6-1.9,5.4c-0.1,0.2-0.2,0.4-0.5,0.7
				c-0.1,0-0.1,0.1-0.2,0.1c-0.1,0-0.2,0-0.3,0c-0.1,0-0.2-0.1-0.3-0.1c-0.2-0.1-0.2-0.2-0.3-0.3c-0.4-0.4-0.7-0.7-0.9-1.1
				c-0.6-0.7-1.2-1.5-1.8-2.2c-1.2-1.4-2.3-3-3.2-4.6c-0.1-0.1,0-0.3,0.1-0.3C151,14.4,151.1,14.4,151.2,14.5z"/>
		</g>
		<g>
			<path class="st4" d="M55.6,14.7c0.9,1.4,1.7,2.9,2.4,4.4c0.3,0.8,0.8,1.5,1.2,2.2c0.2,0.3,0.5,0.7,0.7,1c0.1,0.2,0.3,0.3,0.4,0.5
				c0.1,0.1,0.1,0.1,0.2,0.2c0.1,0.1,0.1,0.1,0.1,0.1c-0.1,0-0.1,0,0-0.1c0.1,0,0.1-0.1,0.2-0.2c0.1-0.1,0.3-0.3,0.4-0.4
				c0.3-0.3,0.5-0.7,0.7-1c0.5-0.7,0.9-1.4,1.3-2.1c0.8-1.5,1.7-2.9,2.8-4.2c0.1-0.1,0.2-0.1,0.3,0c0.1,0.1,0.1,0.2,0.1,0.3
				c-0.6,1.6-1.4,3.1-2.4,4.5l-1.4,2.1c-0.2,0.3-0.5,0.7-0.8,1c-0.1,0.2-0.3,0.3-0.5,0.5c-0.1,0.1-0.2,0.2-0.3,0.2
				c-0.1,0.1-0.2,0.2-0.6,0.2c-0.3-0.1-0.4-0.2-0.5-0.3c-0.1-0.1-0.2-0.2-0.2-0.3c-0.1-0.2-0.3-0.4-0.4-0.5
				c-0.2-0.4-0.5-0.7-0.7-1.1c-0.4-0.7-0.8-1.5-1.3-2.2c-0.9-1.4-1.7-2.9-2.3-4.5c-0.1-0.1,0-0.3,0.1-0.3
				C55.4,14.5,55.5,14.6,55.6,14.7z"/>
		</g>
		<g>
			<path class="st4" d="M137,14.5c1,1.4,1.8,2.8,2.6,4.3c0.4,0.7,0.8,1.5,1.2,2.2c0.2,0.4,0.4,0.7,0.7,1c0.1,0.2,0.2,0.3,0.4,0.5
				c0.1,0.1,0.1,0.1,0.2,0.2c0,0.1,0.1,0.1,0.1,0.1c-0.1,0,0,0,0,0c0.1,0,0.1-0.1,0.2-0.2c0.1-0.1,0.3-0.3,0.4-0.4
				c0.3-0.3,0.5-0.6,0.8-1c0.5-0.7,1-1.4,1.3-2.1c0.8-1.5,1.7-2.9,2.6-4.3c0.1-0.1,0.2-0.1,0.3-0.1c0.1,0.1,0.1,0.2,0.1,0.3
				c-0.7,1.5-1.5,3-2.5,4.4c-0.5,0.7-1,1.4-1.4,2.1c-0.2,0.4-0.5,0.7-0.7,1.1c-0.1,0.2-0.3,0.3-0.4,0.5c-0.1,0.1-0.2,0.2-0.3,0.3
				c-0.1,0.1-0.2,0.2-0.6,0.2c-0.3-0.1-0.4-0.2-0.5-0.3c-0.1-0.1-0.2-0.2-0.3-0.3c-0.1-0.2-0.3-0.3-0.4-0.5
				c-0.3-0.4-0.5-0.7-0.7-1.1l-1.3-2.2c-0.9-1.4-1.6-3-2.2-4.6c0-0.1,0-0.3,0.2-0.3C136.8,14.4,136.9,14.4,137,14.5z"/>
		</g>
		<g>
			<path class="st4" d="M104.5,14.7c1.1,1.4,2.1,2.9,3,4.4c0.5,0.8,0.9,1.5,1.5,2.2c0.3,0.4,0.5,0.7,0.8,1c0.1,0.2,0.3,0.3,0.4,0.3
				c0,0-0.2,0-0.1,0c0,0,0.1-0.1,0.2-0.2c1-1.3,1.8-3,2.5-4.6c0.6-1.7,1.3-3.3,2.2-4.9c0.1-0.1,0.2-0.2,0.3-0.1
				c0.1,0.1,0.2,0.2,0.1,0.3c-0.5,1.7-1.2,3.4-2,4.9c-0.4,0.8-0.8,1.6-1.2,2.4c-0.4,0.8-0.7,1.6-1.3,2.4c-0.1,0.1-0.1,0.2-0.3,0.3
				c-0.1,0.1-0.1,0.1-0.3,0.2c-0.1,0.1-0.3,0-0.4,0c-0.3-0.2-0.5-0.3-0.6-0.5c-0.3-0.3-0.6-0.7-0.9-1.1c-0.5-0.7-1.1-1.5-1.6-2.2
				c-1-1.5-1.9-3-2.6-4.7c-0.1-0.1,0-0.3,0.1-0.3C104.3,14.6,104.4,14.6,104.5,14.7z"/>
		</g>
		<g>
			<path class="st4" d="M49,13.3c-0.6,1.8-1.5,3.5-2.5,5.1c-0.5,0.8-1,1.6-1.5,2.4c-0.3,0.4-0.5,0.8-0.9,1.2c-0.1,0-0.1,0.1-0.2,0.2
				c-0.1,0.1-0.3,0.1-0.5,0c-0.3-0.1-0.3-0.2-0.4-0.4c-0.2-0.2-0.3-0.4-0.4-0.6c-0.9-1.7-1.4-3.5-2.3-5.2c-0.8-1.7-1.4-3.5-1.9-5.3
				c0-0.1,0-0.3,0.2-0.3c0.1,0,0.2,0,0.3,0.1c0.8,1.7,1.5,3.4,2.1,5.2c0.6,1.8,1.4,3.5,2.3,5c0.1,0.2,0.2,0.4,0.4,0.5
				c0.1,0.1,0.1,0.1,0.1,0.1c0,0-0.1,0-0.1,0c0,0,0,0,0,0c0,0,0,0,0.1-0.1c0.3-0.3,0.5-0.7,0.8-1c0.5-0.8,1-1.6,1.4-2.4
				c0.8-1.7,1.8-3.3,2.8-4.8c0.1-0.1,0.2-0.1,0.3-0.1C49,13.1,49,13.2,49,13.3z"/>
		</g>
		<g>
			<path class="st4" d="M133.4,13.7c-0.7,1.7-1.6,3.4-2.6,5c-0.5,0.8-1,1.6-1.5,2.4c-0.3,0.4-0.5,0.8-0.9,1.2c0,0-0.1,0.1-0.2,0.2
				c-0.1,0.1-0.2,0.1-0.4,0c-0.2-0.1-0.3-0.2-0.4-0.3c-0.2-0.2-0.3-0.4-0.4-0.6c-1-1.7-1.6-3.4-2.4-5.1c-0.8-1.7-1.4-3.5-1.8-5.3
				c0-0.1,0.1-0.3,0.2-0.3c0.1,0,0.2,0,0.3,0.1c0.9,1.7,1.6,3.4,2.2,5.1c0.6,1.7,1.4,3.5,2.2,5.1c0.1,0.2,0.2,0.4,0.3,0.6
				c0,0.1,0.1,0.1,0.1,0.1c0,0-0.1,0-0.1,0c0,0,0,0,0,0c0,0,0,0,0.1-0.1c0.3-0.3,0.6-0.6,0.8-1c0.5-0.8,1-1.6,1.4-2.4
				c0.8-1.7,1.7-3.3,2.7-4.9c0.1-0.1,0.2-0.2,0.3-0.1C133.5,13.5,133.5,13.6,133.4,13.7z"/>
		</g>
		<g>
			<path class="st4" d="M5.1,11.3C5.1,11.3,5.1,11.3,5.1,11.3c0-0.1,0-0.2,0-0.3c0-0.2,0-0.3,0-0.5l0-1c0-0.3,0-0.7-0.2-0.9
				C5,8.4,4.9,8.3,4.9,8.3c0,0-0.1,0-0.1,0c-0.1,0-0.1,0-0.2,0C4.3,8.4,4,8.5,4,8.8c-0.1,0.3,0,0.6,0.1,0.9l0.5,0.9
				C4.7,10.8,5,11.2,5.1,11.3z M5.1,11.6c-0.9-0.4-1.3-1-1.5-1.8C3.6,9.5,3.5,9.1,3.6,8.7C3.6,8.3,4,7.9,4.4,7.8
				c0.1,0,0.2-0.1,0.3-0.1c0.1,0,0.3,0,0.4,0.1c0.3,0.1,0.4,0.4,0.5,0.5c0.2,0.4,0.2,0.8,0.3,1.1c0,0.4,0.1,0.8,0,1.1
				c0,0.2-0.1,0.4-0.2,0.5c0,0.1-0.1,0.2-0.2,0.3C5.4,11.5,5.4,11.6,5.1,11.6z"/>
		</g>
		<g>
			<path class="st4" d="M5.5,11.7c-0.2-0.1-0.2-0.3-0.3-0.4c0-0.1,0-0.2,0-0.3c0-0.2,0-0.4,0-0.6c0.1-0.4,0.3-0.7,0.5-1
				C5.9,9,6.1,8.7,6.4,8.5c0.2-0.1,0.4-0.3,0.7-0.3c0.1,0,0.3,0.1,0.4,0.1c0.1,0.1,0.2,0.1,0.2,0.2C8,8.8,8.2,9.3,8.1,9.7
				c-0.1,0.4-0.4,0.7-0.6,1C7,11.3,6.4,11.7,5.5,11.7z M5.6,11.3c0.2,0,0.6-0.2,0.8-0.4l0.8-0.6c0.3-0.2,0.5-0.5,0.5-0.8
				c0-0.3-0.1-0.5-0.3-0.7c-0.1,0-0.1-0.1-0.2-0.1c0,0-0.1,0-0.1,0C7,8.8,6.9,8.8,6.8,8.9C6.6,9.1,6.4,9.4,6.3,9.7l-0.4,0.9
				c-0.1,0.1-0.2,0.3-0.2,0.4C5.7,11.1,5.6,11.2,5.6,11.3C5.6,11.3,5.6,11.4,5.6,11.3z"/>
		</g>
		<g>
			<path class="st4" d="M159.8,11.7C159.8,11.7,159.8,11.7,159.8,11.7c0-0.1-0.1-0.2-0.1-0.3c-0.1-0.1-0.1-0.3-0.2-0.4l-0.4-0.9
				c-0.1-0.3-0.3-0.6-0.5-0.8c-0.1-0.1-0.2-0.2-0.3-0.2c0,0-0.1,0-0.1,0c-0.1,0-0.1,0.1-0.2,0.1c-0.2,0.2-0.4,0.4-0.4,0.7
				c0,0.3,0.2,0.6,0.5,0.8l0.8,0.6C159.3,11.5,159.7,11.7,159.8,11.7z M160,12c-0.9,0-1.6-0.4-2-1c-0.2-0.3-0.5-0.6-0.6-1
				c-0.1-0.4,0.1-0.9,0.4-1.2c0.1-0.1,0.2-0.1,0.2-0.2c0.1-0.1,0.3-0.1,0.4-0.1c0.3,0,0.5,0.2,0.7,0.3c0.3,0.3,0.5,0.6,0.7,0.9
				c0.2,0.3,0.4,0.7,0.4,1c0,0.2,0,0.4,0,0.6c0,0.1,0,0.2,0,0.3C160.2,11.7,160.2,11.9,160,12z"/>
		</g>
		<g>
			<path class="st4" d="M160.3,11.9c-0.3,0-0.3-0.2-0.4-0.2c-0.1-0.1-0.1-0.2-0.2-0.3c-0.1-0.2-0.2-0.4-0.2-0.6
				c-0.1-0.4-0.1-0.8,0-1.1c0.1-0.4,0.1-0.7,0.3-1.1c0.1-0.2,0.2-0.4,0.5-0.5c0.1-0.1,0.3-0.1,0.4-0.1c0.1,0,0.2,0.1,0.3,0.1
				c0.4,0.1,0.8,0.5,0.8,0.9c0.1,0.4,0,0.8-0.1,1.2C161.6,10.9,161.2,11.5,160.3,11.9z M160.3,11.5c0.2,0,0.4-0.4,0.6-0.7l0.5-0.8
				c0.2-0.3,0.2-0.6,0.1-0.9c-0.1-0.3-0.3-0.4-0.6-0.5c-0.1,0-0.1,0-0.2,0c0,0-0.1,0-0.1,0c-0.1,0-0.1,0.1-0.2,0.2
				c-0.1,0.3-0.2,0.6-0.2,0.9l0,1c0,0.2,0,0.3,0,0.5C160.3,11.3,160.3,11.4,160.3,11.5C160.3,11.5,160.3,11.5,160.3,11.5z"/>
		</g>
	</g>
</g>
<g id="Layer_6">
	<g>
		<g>
			<path class="st5" d="M45.1,8.4c-0.2,0.9-0.3,1.3-0.5,2.2c-0.6-0.1-0.8-0.2-1.4-0.3c0.6-2.5,0.9-3.7,1.5-6.2
				c0.9,0.2,1.3,0.3,2.2,0.5C47.5,4.7,48,5,48.3,5.4c0.3,0.5,0.4,1,0.3,1.6c-0.1,0.6-0.4,1.1-0.8,1.4s-1,0.4-1.7,0.2
				C45.6,8.5,45.5,8.5,45.1,8.4z M45.3,7.3c0.4,0.1,0.6,0.1,0.9,0.2c0.3,0.1,0.5,0,0.6-0.1c0.2-0.1,0.3-0.3,0.3-0.6
				c0.1-0.3,0-0.6-0.1-0.8c-0.1-0.2-0.3-0.3-0.5-0.4c-0.4-0.1-0.5-0.1-0.9-0.2C45.6,6.2,45.5,6.6,45.3,7.3z"/>
			<path class="st5" d="M51.2,9.4c-0.3,0-0.4-0.1-0.7-0.1c-0.1,0.9-0.2,1.4-0.3,2.3c-0.6-0.1-0.8-0.1-1.4-0.2c0.4-2.5,0.6-3.8,1-6.3
				c0.8,0.1,1.2,0.2,2.1,0.3c0.6,0.1,1.1,0.3,1.4,0.7c0.3,0.4,0.4,0.9,0.4,1.5c-0.1,0.8-0.5,1.4-1.2,1.7c0.3,1.1,0.5,1.6,0.9,2.7
				c0,0,0,0,0,0.1c-0.6-0.1-0.9-0.1-1.5-0.2C51.6,10.9,51.5,10.4,51.2,9.4z M50.7,8.2c0.3,0,0.5,0.1,0.8,0.1c0.3,0,0.5,0,0.6-0.2
				c0.2-0.2,0.3-0.4,0.3-0.7c0.1-0.6-0.1-1-0.6-1.1c-0.3,0-0.5-0.1-0.8-0.1C50.8,7.1,50.8,7.5,50.7,8.2z"/>
			<path class="st5" d="M59.2,9.8c0,0.9-0.3,1.5-0.7,2c-0.5,0.5-1.1,0.7-1.9,0.6c-0.8,0-1.4-0.3-1.8-0.8c-0.4-0.5-0.6-1.2-0.5-2
				c0-0.4,0.1-0.7,0.1-1.1c0.1-0.9,0.4-1.5,0.8-2c0.5-0.5,1-0.7,1.8-0.6c0.7,0,1.3,0.3,1.7,0.8c0.4,0.5,0.6,1.2,0.6,2.1
				C59.2,9.1,59.2,9.3,59.2,9.8z M57.9,8.7c0-0.6,0-1-0.2-1.3s-0.4-0.4-0.8-0.5c-0.3,0-0.6,0.1-0.8,0.4c-0.2,0.3-0.3,0.7-0.4,1.2
				c0,0.5-0.1,0.7-0.1,1.1c0,0.6,0,1,0.2,1.3c0.2,0.3,0.4,0.4,0.8,0.5c0.4,0,0.6-0.1,0.8-0.3c0.2-0.2,0.3-0.6,0.3-1.2
				C57.9,9.3,57.9,9.1,57.9,8.7z"/>
			<path class="st5" d="M62.4,6c0.5,0,0.8,0,1.3,0c0.1,1.8,0.1,2.7,0.1,4.4c0,0.6-0.2,1.1-0.5,1.5c-0.4,0.4-0.9,0.6-1.5,0.6
				c-0.6,0-1.1-0.2-1.5-0.5s-0.5-0.8-0.5-1.5c0.6,0,0.8,0,1.4,0c0,0.6,0.2,0.9,0.6,0.9c0.4,0,0.6-0.4,0.6-1.1
				C62.4,8.7,62.4,7.8,62.4,6z"/>
			<path class="st5" d="M68.4,9.4c-0.9,0.1-1.3,0.1-2.1,0.2c0,0.7,0.1,1,0.1,1.7c1-0.1,1.5-0.1,2.6-0.2c0,0.4,0.1,0.6,0.1,1.1
				c-1.6,0.2-2.4,0.2-4,0.3c-0.1-2.6-0.2-3.8-0.3-6.4c1.5-0.1,2.2-0.1,3.7-0.3c0,0.4,0.1,0.6,0.1,1.1c-1,0.1-1.5,0.1-2.4,0.2
				c0,0.6,0.1,0.9,0.1,1.5c0.8-0.1,1.3-0.1,2.1-0.2C68.3,8.7,68.3,8.9,68.4,9.4z"/>
			<path class="st5" d="M74.2,9.2c0.1,0.7,0,1.3-0.4,1.7s-0.9,0.7-1.7,0.8c-0.8,0.1-1.4-0.1-1.9-0.5c-0.5-0.4-0.7-1.1-0.8-2
				c0-0.4-0.1-0.6-0.1-1.1c-0.1-0.9,0-1.6,0.4-2.1c0.3-0.5,0.9-0.8,1.6-0.9c0.7-0.1,1.3,0,1.7,0.3c0.4,0.3,0.7,0.8,0.9,1.6
				c-0.5,0.1-0.8,0.1-1.3,0.2c-0.1-0.4-0.2-0.7-0.4-0.9c-0.2-0.1-0.4-0.2-0.7-0.2c-0.4,0-0.6,0.2-0.7,0.5c-0.1,0.3-0.1,0.7-0.1,1.2
				c0.1,0.5,0.1,0.7,0.1,1.2c0.1,0.6,0.2,1.1,0.4,1.3c0.2,0.2,0.5,0.3,0.8,0.2c0.4-0.1,0.6-0.2,0.7-0.4c0.1-0.2,0.1-0.5,0.1-0.9
				C73.4,9.4,73.7,9.3,74.2,9.2z"/>
			<path class="st5" d="M78.5,5.1c-0.6,0.2-1,0.2-1.6,0.4c0.5,2.1,0.7,3.1,1.1,5.2c-0.6,0.1-0.8,0.2-1.4,0.3c-0.4-2.1-0.6-3.1-1-5.2
				C75,5.9,74.7,5.9,74.1,6C74,5.6,73.9,5.4,73.9,5c1.8-0.3,2.6-0.5,4.4-0.9C78.4,4.5,78.4,4.7,78.5,5.1z"/>
		</g>
	</g>
	<g>
		<g>
			<path class="st5" d="M90.9,10.1c-0.3,0.2-0.7,0.4-1.1,0.4c-0.4,0.1-0.9,0-1.3-0.1c-0.8-0.2-1.4-0.5-1.7-1.1
				c-0.3-0.5-0.4-1.2-0.2-2.1c0.1-0.4,0.2-0.7,0.3-1.1c0.2-0.9,0.6-1.5,1.1-1.8C88.4,4,89,3.9,89.7,4.1c0.7,0.1,1.2,0.4,1.5,0.8
				c0.3,0.4,0.4,1,0.3,1.7c-0.5-0.1-0.8-0.1-1.3-0.2c0-0.4,0-0.7-0.1-0.9c-0.1-0.2-0.3-0.3-0.6-0.3c-0.4-0.1-0.6,0-0.8,0.2
				c-0.2,0.2-0.4,0.6-0.5,1.1c-0.1,0.5-0.1,0.7-0.2,1.1c-0.1,0.6-0.1,1,0,1.3c0.1,0.3,0.4,0.5,0.8,0.6c0.3,0.1,0.5,0,0.7,0
				c0.1,0,0.1,0,0.1-0.1c0.1-0.5,0.1-0.7,0.2-1.2c-0.4-0.1-0.6-0.1-1-0.2c0.1-0.4,0.1-0.6,0.2-1c0.9,0.2,1.4,0.3,2.3,0.4
				C91.2,8.6,91.1,9.1,90.9,10.1z"/>
			<path class="st5" d="M95.3,10.2c-0.8-0.1-1.1-0.1-1.9-0.2c-0.2,0.5-0.3,0.7-0.6,1.2c-0.6-0.1-0.9-0.1-1.5-0.2
				c1.3-2.4,1.9-3.6,3-6C94.8,5,95.1,5,95.6,5.1c0.5,2.6,0.8,4,1.4,6.6c-0.6-0.1-0.9-0.1-1.5-0.2C95.4,11,95.4,10.7,95.3,10.2z
				 M93.8,8.9C94.3,9,94.6,9,95.1,9.1c-0.1-0.9-0.2-1.4-0.3-2.3C94.4,7.6,94.2,8,93.8,8.9z"/>
			<path class="st5" d="M99.1,10.8c1,0.1,1.5,0.1,2.5,0.1c0,0.4,0,0.6,0,1.1c-1.6,0-2.3-0.1-3.9-0.2c0.2-2.6,0.3-3.8,0.5-6.4
				c0.5,0,0.8,0.1,1.3,0.1C99.3,7.6,99.3,8.6,99.1,10.8z"/>
			<path class="st5" d="M103.8,10.9c1,0,1.5,0,2.5,0c0,0.4,0,0.6,0,1.1c-1.6,0-2.3,0.1-3.9,0c0.1-2.6,0.1-3.8,0.1-6.4
				c0.5,0,0.8,0,1.3,0C103.8,7.7,103.8,8.8,103.8,10.9z"/>
			<path class="st5" d="M110.5,8.9c-0.9,0.1-1.3,0.1-2.1,0.2c0,0.7,0.1,1,0.1,1.7c1-0.1,1.5-0.1,2.6-0.2c0,0.4,0.1,0.6,0.1,1.1
				c-1.6,0.2-2.4,0.2-4,0.3c-0.1-2.6-0.2-3.8-0.3-6.4c1.5-0.1,2.2-0.1,3.7-0.3c0,0.4,0.1,0.6,0.1,1.1c-1,0.1-1.5,0.1-2.4,0.2
				c0,0.6,0.1,0.9,0.1,1.5c0.8-0.1,1.3-0.1,2.1-0.2C110.5,8.3,110.5,8.5,110.5,8.9z"/>
			<path class="st5" d="M113.8,9c-0.3,0-0.4,0.1-0.7,0.1c0.1,0.9,0.2,1.4,0.3,2.3c-0.6,0.1-0.8,0.1-1.4,0.2
				c-0.3-2.5-0.4-3.8-0.7-6.4c0.8-0.1,1.2-0.1,2.1-0.2c0.6-0.1,1.2,0,1.6,0.3c0.4,0.3,0.7,0.7,0.8,1.3c0.1,0.8-0.1,1.5-0.7,1.9
				c0.6,1,1,1.4,1.6,2.4c0,0,0,0,0,0.1c-0.6,0.1-0.9,0.1-1.5,0.2C114.6,10.3,114.3,9.9,113.8,9z M113,8c0.3,0,0.5-0.1,0.8-0.1
				c0.3,0,0.5-0.1,0.6-0.3c0.1-0.2,0.1-0.4,0.1-0.7c-0.1-0.6-0.4-0.9-0.9-0.8c-0.3,0-0.5,0.1-0.8,0.1C112.8,6.9,112.9,7.2,113,8z"/>
			<path class="st5" d="M118.6,7c0.2-1.2,0.2-1.8,0.4-3c0.6-0.1,0.8-0.2,1.4-0.3c-0.3,1.7-0.5,2.6-0.8,4.4c0.2,0.9,0.3,1.4,0.5,2.3
				c-0.6,0.1-0.8,0.2-1.4,0.3c-0.2-0.9-0.3-1.4-0.4-2.3c-1-1.5-1.5-2.2-2.5-3.7c0.6-0.1,0.8-0.1,1.4-0.3
				C117.6,5.4,117.9,5.9,118.6,7z"/>
		</g>
	</g>
</g>
</svg>
