<?xml version="1.0" encoding="utf-8"?>
<!-- Generator: Adobe Illustrator 22.1.0, SVG Export Plug-In . SVG Version: 6.00 Build 0)  -->
<svg version="1.1" xmlns="http://www.w3.org/2000/svg" xmlns:xlink="http://www.w3.org/1999/xlink" x="0px" y="0px"
	 viewBox="0 0 377 69" style="enable-background:new 0 0 377 69;" xml:space="preserve">
<style type="text/css">
	.st0{fill:#0099AB;}
	.st1{fill:#FFFFFF;}
	.st2{fill:#E14658;}
	.st3{font-family:'RobotoCondensed-Bold';}
	.st4{font-size:12px;}
</style>
<g id="Layer_1">
	<path class="st0" d="M15.9,16.5c0.3-1.8,0.4-3.6,0.4-5.4c0-1.1,0.2-3.5-1.4-3.8c-2.7-0.4-1.9,4-1,6.6c-2.2-2.5-6-6.3-7.2-2.9
		c-0.5,1.4,0.3,2.6,1.4,3.4c1.1,0.7,2.4,1,3.6,1.4c0.8,0.3,1.5,0.5,2.3,0.7c0,0-0.1,0-0.1,0.1c-0.5,0.6-1.1,1.1-1.8,1.6
		c-0.7,0.4-1.4,0.7-2.1,1.1c-0.4,0.2-0.4,1.1,0.2,1c1.7-0.3,3.3-1.7,4.2-3.1c0,0,0-0.1,0-0.1c-0.2,1-0.4,2.1-0.6,3.1
		c-0.2,0.8,1,0.9,1.2,0.2c0.3-0.9,0.5-1.8,0.6-2.7c2.9,1.9,5.8,3.6,8.8,5.3c-4.7,6.5-9.1,18.5,0.8,22.8c9.8,4.2,15.1-7,17.2-14.4
		c0,0,0,0,0-0.1c1,0.4,2.1,0.8,3.1,1.2l0.4-0.9C35.5,27.4,25.5,22.3,15.9,16.5z M11.5,14.5c-1.1-0.4-3.6-1-3.8-2.5
		c-0.2-1.4,1.2-1.2,1.9-0.6c0.7,0.5,1.3,1.1,1.9,1.7c0.8,0.7,1.5,1.5,2.2,2.3C13,15.1,12.3,14.8,11.5,14.5z M14,11.5
		c0-0.8-0.2-1.6,0.6-1.9c0.9-0.3,0.5,0.8,0.5,1.6c0,1.2-0.1,2.3-0.3,3.5C14.4,13.7,14,12.6,14,11.5z M29.8,25.5c2,1,4,1.9,6,2.8
		c-1.1,1.5-2.6,2.9-4.7,2C29.4,29.4,29.2,27.2,29.8,25.5z M41.1,30.9c-2,6.5-7,17.9-15.9,12.6c-7.8-4.6-2.9-14.4,0.4-20.2
		c1.2,0.6,2.4,1.3,3.6,1.9c-1.4,1.9-0.6,4.8,1.4,5.9c2,1.1,5.7,0.1,6-2.5c1.6,0.7,3.1,1.3,4.7,1.9C41.2,30.7,41.1,30.8,41.1,30.9z"
		/>
	<path class="st0" d="M99.4,39.9c-14.6-1.9-30.5-3.3-44.9-6.5c-3-0.7-6-1.4-9-2.3l-0.3,1c1.8,0.5,3.7,1,5.5,1.4
		c-2.9,6.3-5,17.9,4,19.9c9.5,2.1,14.8-8.7,16.1-16c2.4,0.4,4.8,0.8,7.2,1.1c-1.7,7.6-1.5,19.3,8.5,20.4c9.6,1,13.2-9.8,12.7-17.4
		c0,0,0,0,0-0.1c0.3,0,0.7,0.1,1,0.1c2.6,0.3,5.2,0.6,7.7,0.9c-2.2,7,0.7,18,9.2,18.9c9.3,1,11.2-10.4,11.3-17.1
		c0-0.3-0.1-0.5-0.3-0.7c1.2,0,2.5,0,3.7,0l0-1.7C121.2,42,110.4,41.4,99.4,39.9z M64.3,36.4c-0.4,2.2-2.6,4.1-4.9,3.4
		c-2.2-0.6-3.1-2.9-2.8-5C59.1,35.4,61.7,35.9,64.3,36.4z M69.4,37.3c-1.1,6.2-5.3,15.7-13.4,14.8c-9.1-1-5.5-12.5-4.1-18.3
		c1.3,0.3,2.6,0.6,3.9,0.9c-0.9,2.7,1,5.8,3.8,6.3c2.8,0.5,5.4-1.7,5.8-4.4c1,0.2,3,0.5,4.1,0.6C69.4,37.2,69.4,37.3,69.4,37.3z
		 M91.9,40.5c-0.4,2.3-2.6,4.3-5,3.2c-1.6-0.8-2.3-2.5-2.1-4.2C87.2,39.8,89.6,40.1,91.9,40.5z M85.8,57.2c-8.5-2-7.1-11.8-6.6-18.5
		c1.6,0.2,3.2,0.4,4.8,0.7c-0.5,2.2,0.8,4.7,2.9,5.5c2.7,1,6.2-1.3,6.2-4.2c1.7,0.2,3.3,0.4,5,0.7c-0.1,0.1-0.2,0.3-0.2,0.5
		C98.3,48.7,94.8,59.3,85.8,57.2z M120.8,43.3c0,2.2-1.6,4.4-4,4.2c-2.3-0.2-3.6-2.5-3.5-4.6C115.8,43.1,118.3,43.2,120.8,43.3z
		 M118,59.8c-8.4-0.3-9.8-11.1-9.1-17.3c1.3,0.1,2.5,0.2,3.7,0.3c-0.6,2.7,1.5,5.6,4.3,5.8c2.9,0.2,5.2-2.5,5.1-5.2
		c1.7,0.1,3.5,0.1,5.2,0.1c-0.1,0.1-0.3,0.3-0.3,0.6C126.8,49.8,126,60.1,118,59.8z"/>
	<path class="st0" d="M368.9,23.5c-2.3-0.8-4.9-1.2-7.3-1.5c1.7-0.5,3.4-1.2,4.8-2.4c1.1-1,3.5-3.2,1.8-4.8
		c-1.3-1.2-3.7-0.2-4.9,0.6c-1.7,1-3,2.6-3.6,4.4c0-1.6-0.7-3.3-1.7-4.5c-0.8-1-2.5-2.9-3.9-1.7c-1.3,1.1-0.6,3.4,0.1,4.5
		c0.9,1.5,2.4,2.7,3.9,3.6c-16.3,8.3-32.9,13.7-50.2,16.7c-0.1,0-0.2,0.1-0.4,0.1c-0.1,0-0.1,0.1-0.2,0.1c-0.2,0.1-0.4,0.1-0.6,0.2
		c-0.3,0.1-0.6,0.2-0.9,0.2c-0.4,0.1-0.7,0.3-1.1,0.3c0,0,0,0,0,0l0.2,1.3c1.5-0.2,2.9-0.5,4.4-0.7c-0.7,6.5,4.2,14.6,11.2,15.1
		c9.5,0.7,8.4-13.7,7.6-19.4c0,0,0,0,0,0c2.1-0.6,4.1-1.3,6.2-1.9c2.4,6.1,10.2,16.5,17.4,11.6c3.1-2.1,4.3-6.2,4.1-9.7
		c-0.1-2.6-0.9-7.7-3.5-9.3c2.3-1.1,4.6-2.3,6.9-3.5c0,0,0,0,0,0c1.2,1.5,2.4,3,3.7,4.4c0.4,0.5,1.2-0.2,0.8-0.7
		c-0.9-1.3-1.9-2.5-2.9-3.7c2.7,0.5,5.4,1.2,8.1,1.7C369.3,24.4,369.4,23.7,368.9,23.5z M319.7,37.6c0.3,1.7,0.6,4.6-1.8,4.7
		c-1.9,0.1-3.1-1.8-3.3-3.5C316.3,38.4,318.1,38,319.7,37.6z M319.5,53.1c-6.1-1.3-9-7.9-9.4-13.4c0,0,0-0.1,0-0.1
		c1.3-0.2,2.5-0.5,3.7-0.7c0.1,2.3,2,4.9,4.6,4.5c2.9-0.5,2.9-3.8,2.5-6.1c1.9-0.5,3.7-0.9,5.6-1.5
		C326.9,41.2,328.3,55.1,319.5,53.1z M345.5,29.1c-0.4,0.2-0.5,0.9,0,1.2c0.9,0.5,1,1.7,0.7,2.6c-0.4,1.1-1.5,1.6-2.7,1.6
		c-2,0-3.4-1.4-4.7-2.7C341,31,343.3,30.1,345.5,29.1z M354,37.9c-0.7,4.3-3.6,7.9-8.5,6.2c-5-1.7-8.1-6.4-10.3-11
		c1-0.3,1.9-0.7,2.9-1c1.6,2.5,4.8,4.7,7.8,3.1c2.3-1.2,2.6-4.6,0.3-6.1c-0.2-0.1-0.3-0.1-0.4-0.1c1.6-0.7,3.2-1.4,4.9-2.2
		c0,0,0.1,0.1,0.1,0.1C353.5,28.5,354.4,35.1,354,37.9z M354.5,15.6c-0.2-0.7,0.2-1.1,1-1.2c0.4,0.2,0.7,0.5,1,0.8
		c0.4,0.4,0.8,0.9,1.1,1.4c0.8,1.3,0.9,2.7,1,4.2C356.7,19.5,354.6,17.9,354.5,15.6z M360,21c0.5-1.3,1.2-2.5,2.1-3.4
		c0.7-0.7,1.6-1.3,2.5-1.7c1.1-0.5,1.6-1,1.8,0.6c0.2,1.4-0.1,1.5-1.3,2.4c-0.5,0.4-1.1,0.7-1.7,1C362.3,20.5,361.2,20.8,360,21z"/>
	<path class="st0" d="M215.1,45.6c-0.1-0.1-0.1-0.3,0-0.4c0-0.2,0-0.4-0.1-0.6c0-0.3-0.2-0.5-0.4-0.6c0.2,0,0.4,0,0.6-0.1
		c-0.1-0.1-0.1-0.1-0.2-0.2c0,0,0,0,0,0c-0.1,0.1-0.2,0.2-0.4,0.2c-0.2,0-0.4-0.1-0.4-0.3c0,0,0,0-0.1,0c0,0-0.1,0-0.1,0
		c-0.1,0-0.2,0-0.3-0.1c-0.1,0-0.1,0-0.1,0c0,0-0.1,0.1-0.1,0.1c-0.1,0.1-0.2,0.3-0.4,0.3c-0.2,0-0.4-0.1-0.5-0.3
		c0,0.1-0.1,0.1-0.2,0.1c-0.1,0.1-0.2,0.2-0.4,0.2c-0.3,0-0.4-0.2-0.5-0.4c0,0-0.1,0-0.1,0h-0.4c-0.1,0-0.1,0-0.2-0.1c0,0,0,0,0,0
		c-0.1,0-0.2,0-0.2,0c0,0,0,0,0,0c0,0,0,0,0,0c0.1,0,0,0,0,0c-0.1,0.1-0.2,0.1-0.3,0.1c-0.1,0-0.2,0-0.3-0.1c0,0,0,0-0.1,0
		c0,0,0,0,0,0c0,0,0,0,0,0c-0.1,0-0.1,0-0.2,0c-0.1,0-0.2,0-0.3,0c0,0,0,0-0.1,0c0,0,0,0,0,0c-0.1,0.1-0.2,0.1-0.3,0.1
		c-0.1,0-0.2,0-0.3-0.1c0,0.2-0.2,0.4-0.5,0.4c-0.3,0-0.4-0.2-0.5-0.4c0,0-0.1-0.1-0.1-0.1c-0.1,0-0.1,0-0.2,0c0,0.1,0,0.1,0,0.2
		c0,0.1-0.1,0.2-0.2,0.3c0,0-0.1,0-0.1,0c0,0,0,0-0.1,0c0,0,0,0,0,0c0,0,0,0,0,0c-0.2,0-0.3-0.1-0.4-0.2c-0.1,0.1-0.2,0.2-0.3,0.2
		c-0.2,0-0.3-0.1-0.4-0.3c-0.1,0.1-0.2,0.1-0.3,0.1c-0.2,0-0.3-0.1-0.4-0.2c0,0,0,0,0,0c0,0-0.1,0.1-0.1,0.1
		c-0.1,0.1-0.2,0.2-0.4,0.2c-0.2,0-0.4-0.1-0.5-0.3c0,0,0,0,0,0c-0.1,0-0.1,0.1-0.2,0.1c-0.1,0-0.1,0-0.1,0c-0.2,0-0.3,0-0.5,0
		c0,0,0,0-0.1,0c0,0,0,0-0.1,0c-0.1,0-0.2,0-0.3,0c0,0,0,0,0,0c0,0,0,0,0,0c-0.2,0-0.4,0-0.5,0c-0.1,0-0.2,0-0.3-0.1
		c-5.4,0.3-10.9,0.5-16.4,0.4c-14.7-0.2-30.7,0.3-45.3-1.3C137,42,133,42.5,130,42l-1,1c1.9,0.3,5.6-0.4,7.5-0.1
		c-2.2,6.6-2.9,18.4,6.3,19.3c9.7,1,13.7-10.4,14.2-17.8c2.4,0.1,4.9,0.2,7.3,0.3c-0.8,7.7,0.7,19.3,10.8,19.3
		c9.7-0.1,12-11.3,10.7-18.8c0,0,0,0,0-0.1c0.3,0,0.7,0,1,0c2.6,0,5.2,0,7.8,0c-1.4,7.2,2.7,17.8,11.3,17.7
		C214.7,62.8,215.6,52.4,215.1,45.6z M150.2,44.1c-0.1,2.2-2.1,4.4-4.5,4c-2.2-0.4-3.4-2.5-3.4-4.6C145,43.8,147.6,44,150.2,44.1z
		 M155.4,44.5c-0.4,6.3-3.4,16.2-11.6,16.3c-9.2,0-6.9-11.8-6.2-17.7c1.3,0.2,2.7,0.3,4,0.4c-0.6,2.8,1.6,5.7,4.5,5.8
		c2.9,0.2,5.2-2.3,5.3-5.1c1,0.1,3.1,0.1,4.1,0.2C155.4,44.4,155.4,44.4,155.4,44.5z M178.2,45c-0.2,2.3-2.1,4.6-4.6,3.8
		c-1.7-0.6-2.6-2.2-2.6-3.9C173.4,44.9,175.8,45,178.2,45z M174,62.3c-8.7-1-8.4-10.9-8.7-17.6c1.6,0,3.2,0.1,4.8,0.1
		c-0.3,2.2,1.3,4.6,3.5,5.1c2.8,0.7,6-2,5.6-4.9c1.7,0,3.4,0.1,5.1,0.1c-0.1,0.2-0.1,0.3-0.1,0.5C185.4,52.5,183.2,63.4,174,62.3z
		 M207.2,44.6c0.3,2.2-1.1,4.5-3.5,4.6c-2.3,0.1-3.9-2.1-4-4.2C202.2,44.9,204.7,44.7,207.2,44.6z M206.2,61.3
		c-8.3,0.7-11-9.9-11-16.2c1.3,0,2.5-0.1,3.8-0.1c-0.3,2.7,2.2,5.4,4.9,5.3c2.9-0.1,4.9-3.1,4.5-5.8c1.7-0.1,3.5-0.3,5.2-0.5
		c-0.1,0.1-0.2,0.3-0.2,0.6C213.9,50.3,214.3,60.6,206.2,61.3z"/>
	<path class="st0" d="M302.1,41.5c1.2-0.2,2.4-0.4,3.6-0.7l-0.3-1.7c-10.5,2.1-21.3,3.3-32.3,3.8c-14.7,0.7-30.6,2-45.3,1.4
		c-3.1-0.1-6.2-0.4-9.2-0.7l-0.1,1c1.9,0.2,3.8,0.3,5.7,0.4c-0.1,0.3-0.1,0.6-0.2,0.9c0.1,0.2,0,0.5-0.1,0.7
		c-1.4,6.9-0.8,17,7.8,17.4c9.7,0.4,13.1-11.2,13.1-18.6c2.4,0,4.9-0.1,7.3-0.1c-0.4,7.8,1.8,19.3,11.9,18.6
		c9.7-0.7,11.3-12,9.5-19.4c0,0,0,0,0-0.1c0.3,0,0.7,0,1,0c2.6-0.1,5.2-0.3,7.8-0.5c-1,7.2,3.8,17.6,12.3,17
		c9.3-0.6,9.2-12.2,8.2-18.8C302.5,41.8,302.3,41.6,302.1,41.5z M237.8,45.6c0,2.2-1.8,4.5-4.2,4.2c-0.2,0-0.4-0.1-0.6-0.2
		c0,0-0.1,0-0.1,0h0c0,0,0,0,0,0c0,0,0,0,0,0c-0.2,0-0.3-0.1-0.3-0.2c-0.1,0-0.1-0.1-0.2-0.1c-0.1,0-0.1,0-0.1-0.1
		c-1.3-0.8-2.1-2.3-2.1-3.9C232.5,45.6,235.2,45.6,237.8,45.6z M243,45.7c0,6.3-2.5,16.4-10.7,16.9c-9.2,0.6-7.6-11.3-7.2-17.3
		c1.3,0.1,2.7,0.1,4,0.2c-0.4,2.8,2,5.6,4.8,5.6c2.9,0,5-2.6,5-5.4c1,0,3.1-0.1,4.1-0.1C243,45.6,243,45.6,243,45.7z M265.8,44.8
		c0,2.3-1.8,4.7-4.4,4.1c-1.7-0.5-2.7-2.1-2.8-3.8C261,45,263.4,44.9,265.8,44.8z M262.6,62.4c-8.7-0.5-9.1-10.4-9.7-17
		c1.6,0,3.2-0.1,4.8-0.2c-0.2,2.2,1.6,4.5,3.8,4.9c2.9,0.5,5.8-2.4,5.3-5.3c1.7-0.1,3.4-0.1,5.1-0.2c-0.1,0.2-0.1,0.3-0.1,0.5
		C273.5,51.8,271.8,62.9,262.6,62.4z M287.1,43.8c0,0,0.1-0.1,0.1-0.1c0,0,0,0,0,0c0-0.1,0-0.1,0-0.2c2.5-0.2,5-0.5,7.5-0.9
		c0.4,2.1-0.9,4.6-3.2,4.8c-1.8,0.2-3.2-1-3.9-2.5c-0.1-0.1-0.1-0.1-0.1-0.3c0,0,0,0,0,0c0,0,0,0,0,0c0,0,0,0-0.1,0
		c-0.1,0-0.1,0-0.2,0c0,0,0,0,0,0c0,0-0.1,0-0.1-0.1c0,0,0,0,0-0.1c0,0,0-0.1,0-0.1c0,0,0,0,0-0.1c0,0,0-0.1,0-0.1c0,0,0,0,0-0.1
		c0,0,0-0.1,0-0.1c0,0,0,0,0-0.1C287,43.9,287.1,43.9,287.1,43.8C287.1,43.9,287.1,43.8,287.1,43.8z M294.8,59.4
		c-8.3,1.2-11.6-9.2-11.9-15.5c1.3-0.1,2.5-0.2,3.7-0.3c-0.2,2.7,2.5,5.2,5.2,4.9c2.8-0.3,4.7-3.4,4.1-6c1.7-0.2,3.4-0.5,5.1-0.8
		c-0.1,0.1-0.2,0.3-0.2,0.6C301.7,47.9,302.7,58.2,294.8,59.4z"/>
	<g>
		<g>
			<path class="st0" d="M217.2,43.5c-3.1,0.2-6.3,0.3-9.4-0.2c0,0-0.1,1,0,1c3.1,0.5,6.3,0.4,9.4,0.2
				C217.3,44.5,217.3,43.5,217.2,43.5L217.2,43.5z"/>
		</g>
	</g>
	<g>
		<g>
			<path class="st0" d="M211.7,44.3c2.3-0.1,4.5,0.5,6.8,0.3c0.1,0,0.1-1,0-1c-2.3,0.2-4.5-0.3-6.8-0.3
				C211.6,43.3,211.6,44.3,211.7,44.3L211.7,44.3z"/>
		</g>
	</g>
	<g>
		<g>
			<path class="st0" d="M213.7,44.6c3.5,0.6,7.1,1,10.6,1.3c0.1,0,0.1-1,0-1c-3.6-0.3-7.1-0.7-10.6-1.3
				C213.7,43.6,213.6,44.6,213.7,44.6L213.7,44.6z"/>
		</g>
	</g>
	<g>
		<g>
			<path class="st0" d="M224.3,45.7c1.7,0,3.4,0,5.1,0c0.1,0,0.1-1,0-1c-1.7,0-3.4,0-5.1,0C224.2,44.7,224.2,45.7,224.3,45.7
				L224.3,45.7z"/>
		</g>
	</g>
	<g>
		<g>
			<path class="st0" d="M229.3,45.9c2.3-0.1,4.7-0.1,7-0.2c0.1,0,0.1-1,0-1c-2.3,0.1-4.7,0.1-7,0.2
				C229.3,44.9,229.3,45.9,229.3,45.9L229.3,45.9z"/>
		</g>
	</g>
	<g>
		<g>
			<path class="st0" d="M208.3,44.7c1.8,0,3.7-0.1,5.5-0.1c0.1,0,0.1-1,0-1c-1.8,0-3.7,0.1-5.5,0.1
				C208.2,43.7,208.2,44.7,208.3,44.7L208.3,44.7z"/>
		</g>
	</g>
	<g>
		<g>
			<path class="st0" d="M216.3,44.4c7.2,0.3,14.5,0.7,21.7,0.8c0.1,0,0.1-1,0-1c-7.3-0.1-14.5-0.5-21.7-0.8
				C216.3,43.4,216.2,44.4,216.3,44.4L216.3,44.4z"/>
		</g>
	</g>
	<g>
		<g>
			<path class="st0" d="M216.6,44.5c11,1.2,22,1.5,33.1,0.8c0.1,0,0.1-1,0-1c-11,0.7-22.1,0.5-33.1-0.8
				C216.5,43.5,216.5,44.5,216.6,44.5L216.6,44.5z"/>
		</g>
	</g>
	<g>
		<g>
			<path class="st0" d="M213.7,44.1c-4-0.1-8-0.1-12-0.2c-0.1,0-0.1,1,0,1c4,0.1,8,0.1,12,0.2C213.8,45.1,213.8,44.1,213.7,44.1
				L213.7,44.1z"/>
		</g>
	</g>
	<g>
		<g>
			<path class="st0" d="M203.7,44.3c1.3,0,2.7,0,4,0c0.1,0,0.1-1,0-1c-1.3,0-2.7,0-4,0C203.6,43.3,203.6,44.3,203.7,44.3L203.7,44.3
				z"/>
		</g>
	</g>
	<g>
		<g>
			<path class="st0" d="M201.8,44.3c0.7,0,1.4,0.1,2.1,0c0.1,0,0.1-1,0-1c-0.7,0.1-1.4-0.1-2.1,0C201.7,43.3,201.7,44.3,201.8,44.3
				L201.8,44.3z"/>
		</g>
	</g>
	<g>
		<g>
			<path class="st0" d="M201.8,44.3c0.5,0,1,0.1,1.6,0c0.1,0,0.1-1,0-1c-0.5,0-1-0.1-1.6,0C201.7,43.3,201.8,44.3,201.8,44.3
				L201.8,44.3z"/>
		</g>
	</g>
	<g>
		<g>
			<path class="st0" d="M199.3,44.4c3.3-0.2,6.6-0.1,9.9,0.3c0,0,0.1-1,0-1c-3.3-0.4-6.6-0.5-9.9-0.3
				C199.2,43.4,199.2,44.4,199.3,44.4L199.3,44.4z"/>
		</g>
	</g>
	<g>
		<g>
			<path class="st0" d="M203.7,43.3c-0.3,0-0.5,0-0.8,0c-0.1,0-0.1,1,0,1c0.3,0,0.5,0,0.8,0C203.7,44.3,203.8,43.3,203.7,43.3
				L203.7,43.3z"/>
		</g>
	</g>
	<g>
		<g>
			<path class="st0" d="M203.7,43.3C203.7,43.3,203.6,43.3,203.7,43.3c-0.1,0-0.2,1-0.1,1c0,0,0,0,0.1,0
				C203.7,44.3,203.8,43.3,203.7,43.3L203.7,43.3z"/>
		</g>
	</g>
	<g>
		<g>
			<path class="st0" d="M203.7,43.3C203.7,43.3,203.7,43.3,203.7,43.3c0,0.3,0,0.7,0,1c0,0,0,0,0,0
				C203.7,44.3,203.9,43.3,203.7,43.3C203.7,43.3,203.7,43.3,203.7,43.3c0,0-0.2,0.9,0,1c0,0,0,0,0,0
				C203.7,44.3,203.9,43.4,203.7,43.3L203.7,43.3z"/>
		</g>
	</g>
	<g>
		<g>
			<path class="st0" d="M202,44.3c0.3,0,0.7,0,1,0.1c0,0,0.1-1,0-1c-0.3,0-0.6-0.1-1-0.1C201.9,43.3,201.9,44.3,202,44.3L202,44.3z"
				/>
		</g>
	</g>
	<g>
		<g>
			<path class="st0" d="M202.9,43.3c-0.1,0-0.2,0-0.3,0c-0.1,0-0.1,1,0,1c0.1,0,0.2,0,0.3,0C203,44.3,203,43.3,202.9,43.3
				L202.9,43.3z"/>
		</g>
	</g>
	<g>
		<g>
			<path class="st0" d="M202.9,43.3c-0.2,0-0.3,0-0.5,0c-0.1,0-0.1,1,0,1c0.2,0,0.3,0,0.5,0C203,44.3,203,43.3,202.9,43.3
				L202.9,43.3z"/>
		</g>
	</g>
	<g>
		<g>
			<path class="st0" d="M211.8,43.3c-0.4,0-0.7,0-1.1,0c-0.1,0-0.1,1,0,1c0.4,0,0.7,0,1.1,0C211.8,44.3,211.9,43.3,211.8,43.3
				L211.8,43.3z"/>
		</g>
	</g>
	<g>
		<g>
			<path class="st0" d="M210.7,43.3c-0.4,0-0.9,0-1.3,0c-0.1,0-0.1,1,0,1c0.4,0,0.9,0,1.3,0C210.8,44.3,210.8,43.3,210.7,43.3
				L210.7,43.3z"/>
		</g>
	</g>
	<g>
		<g>
			<path class="st0" d="M209.4,43.3c-0.5,0-1,0-1.5,0.1c-0.1,0-0.1,1,0,1c0.5,0,1,0,1.5-0.1C209.5,44.3,209.5,43.3,209.4,43.3
				L209.4,43.3z"/>
		</g>
	</g>
	<g>
		<g>
			<path class="st0" d="M207.5,44.3c0.5,0,1,0,1.5,0.1c0,0,0.1-1,0-1c-0.5-0.1-1-0.1-1.5-0.1C207.4,43.3,207.4,44.3,207.5,44.3
				L207.5,44.3z"/>
		</g>
	</g>
	<g>
		<g>
			<path class="st0" d="M215,46.1c0.1,0,0.1-1,0-1C215,45.1,215,46.1,215,46.1L215,46.1z"/>
		</g>
	</g>
	<g>
		<g>
			<path class="st0" d="M215,46c0.1,0,0.1-1,0-1C215,45,215,46,215,46L215,46z"/>
		</g>
	</g>
	<g>
		<g>
			<path class="st0" d="M216.3,43.4c-0.6,0-1.3,0-1.9,0.1c-0.1,0-0.1,1,0,1c0.6,0,1.3-0.1,1.9-0.1C216.4,44.4,216.4,43.5,216.3,43.4
				L216.3,43.4z"/>
		</g>
	</g>
	<g>
		<g>
			<path class="st0" d="M213.7,44.4c0.7,0,1.5,0.1,2.2,0.1c0.1,0,0.1-1,0-1c-0.7-0.1-1.5-0.1-2.2-0.1
				C213.6,43.4,213.6,44.4,213.7,44.4L213.7,44.4z"/>
		</g>
	</g>
	<g>
		<g>
			<path class="st0" d="M213.7,43.4c-0.3,0-0.5,0-0.8,0c-0.1,0-0.1,1,0,1c0.3,0,0.5,0,0.8,0C213.8,44.4,213.8,43.4,213.7,43.4
				L213.7,43.4z"/>
		</g>
	</g>
	<g>
		<g>
			<path class="st0" d="M223.8,46.2c0-0.1-0.1,0.1-0.1,0.1c0,0.1,0,0.2-0.1,0.3c0,0.2,0,0.5,0,0.7c0,0,0,0.4,0.1,0.2
				c0-0.3,0.2-0.5,0.2-0.8c0-0.1,0.1-0.6,0-0.7C223.8,45.9,223.9,46.1,223.8,46.2L223.8,46.2z"/>
		</g>
	</g>
	<g>
		<g>
			<path class="st0" d="M223.9,46c0,0.3-0.1,0.5-0.1,0.7c0,0.2,0,0.5,0,0.7c0,0,0,0.4,0.1,0.2c0-0.3,0.1-0.5,0.1-0.7
				c0-0.2,0-0.5,0-0.7C223.9,46.1,223.9,45.8,223.9,46L223.9,46z"/>
		</g>
	</g>
	<g>
		<g>
			<path class="st0" d="M223.8,47.1c0,0.5,0.1-0.1,0.1-0.2c0-0.2,0-0.5,0-0.7c0,0,0-0.4-0.1-0.2c-0.1,0.5-0.2,0.8-0.2,1.3
				c0,0.1,0,0.4,0.1,0.3C223.8,47.6,223.8,47.1,223.8,47.1L223.8,47.1z"/>
		</g>
	</g>
	<g>
		<g>
			<path class="st0" d="M223.8,46.2c0,0.2-0.1,0.5-0.2,0.7c0,0.2,0,0.5,0,0.7c0,0,0,0.4,0.1,0.2c0.1-0.4,0.2-0.7,0.2-1.1
				c0-0.2,0.1-0.6,0-0.7C223.8,45.9,223.8,46,223.8,46.2L223.8,46.2z"/>
		</g>
	</g>
	<g>
		<g>
			<path class="st0" d="M223.9,46.9c0,0,0,0.1,0,0.1c0.1-0.2,0-0.4,0-0.6c0-0.1-0.1-0.4-0.1-0.3c-0.1,0.3-0.1,0.5-0.1,0.8
				c0,0,0,0.5,0.1,0.5C223.9,47.3,223.9,46.9,223.9,46.9L223.9,46.9z"/>
		</g>
	</g>
	<g>
		<g>
			<path class="st0" d="M131.9,42.8c1.7,0.1,3.3,0.3,5,0.4c0.1,0,0.1-1,0-1c-1.7-0.1-3.3-0.3-5-0.4
				C131.8,41.8,131.8,42.8,131.9,42.8L131.9,42.8z"/>
		</g>
	</g>
	<g>
		<g>
			<path class="st0" d="M131.4,43.5c1.6-0.2,3.1,0,4.7,0.1c1.8,0.1,3.7,0,5.5,0.1c0.1,0,0.1-1,0-1c-1.8-0.1-3.7,0-5.5-0.1
				c-1.6-0.1-3.1-0.3-4.7-0.1C131.3,42.6,131.4,43.5,131.4,43.5L131.4,43.5z"/>
		</g>
	</g>
	<g>
		<g>
			<path class="st0" d="M138.5,42.3c-0.5,0-1.1-0.1-1.6-0.1c-0.1,0-0.1,1,0,1c0.5,0,1.1,0.1,1.6,0.1
				C138.5,43.3,138.6,42.3,138.5,42.3L138.5,42.3z"/>
		</g>
	</g>
	<g>
		<g>
			<path class="st0" d="M238,45.3c2.7-0.2,5.4,0.1,8,0.2c0.1,0,0.1-1,0-1c-2.7-0.1-5.4-0.4-8-0.2C237.9,44.3,237.9,45.3,238,45.3
				L238,45.3z"/>
		</g>
	</g>
	<g>
		<g>
			<path class="st0" d="M236.2,45.8c0.5,0,1-0.1,1.6-0.1c0.1,0,0.1-1,0-1c-0.5,0-1,0.2-1.6,0.1C236.2,44.8,236.2,45.7,236.2,45.8
				L236.2,45.8z"/>
		</g>
	</g>
	<g>
		<g>
			<path class="st0" d="M251.2,44.2c-0.5,0-1,0-1.5,0.1c-0.1,0-0.1,1,0,1c0.5,0,1-0.1,1.5-0.1C251.2,45.2,251.2,44.2,251.2,44.2
				L251.2,44.2z"/>
		</g>
	</g>
	<g>
		<g>
			<path class="st1" d="M233.6,48.9c-0.5,0-1.1-0.2-1.4-0.6c-0.4-0.5-1.1,0.2-0.7,0.7c0.5,0.6,1.4,0.9,2.1,0.9
				C234.2,49.9,234.2,48.8,233.6,48.9L233.6,48.9z"/>
		</g>
	</g>
</g>
<g id="Layer_2">
	<text transform="matrix(0.9397 0.342 -0.342 0.9397 24.1356 40.6601)" class="st2 st3 st4">C</text>
	<text transform="matrix(0.9659 0.2588 -0.2588 0.9659 52.1355 48.66)" class="st2 st3 st4">A</text>
	<text transform="matrix(0.9903 0.1392 -0.1392 0.9903 83.1356 54.6599)" class="st2 st3 st4">S</text>
	<text transform="matrix(0.9962 8.715574e-02 -8.715574e-02 0.9962 114.1359 57.6603)" class="st2 st3 st4">E</text>
	<text transform="matrix(1 0 0 1 171.1358 59.6601)" class="st2 st3 st4">S</text>
	<text transform="matrix(0.9994 -3.489950e-02 3.489950e-02 0.9994 202.1358 59.6602)" class="st2 st3 st4">T</text>
	<text transform="matrix(0.9998 1.745241e-02 -1.745241e-02 0.9998 229.1359 60.6602)" class="st2 st3 st4">U</text>
	<text transform="matrix(0.9976 -6.975648e-02 6.975648e-02 0.9976 260.136 60.6603)" class="st2 st3 st4">D</text>
	<text transform="matrix(0.9925 -0.1219 0.1219 0.9925 292.1362 57.6605)" class="st2 st3 st4">I</text>
	<text transform="matrix(0.9511 -0.309 0.309 0.9511 319.136 52.6604)" class="st2 st3 st4">E</text>
	<text transform="matrix(0.8746 -0.4848 0.4848 0.8746 347.1361 44.6603)" class="st2 st3 st4">S</text>
</g>
</svg>
