<?xml version="1.0" encoding="utf-8"?>
<!-- Generator: Adobe Illustrator 22.1.0, SVG Export Plug-In . SVG Version: 6.00 Build 0)  -->
<svg version="1.1" id="Layer_1" xmlns="http://www.w3.org/2000/svg" xmlns:xlink="http://www.w3.org/1999/xlink" x="0px" y="0px"
	 viewBox="0 0 450 60" style="enable-background:new 0 0 450 60;" xml:space="preserve">
<style type="text/css">
	.st0{fill:#0099AB;}
	.st1{fill:#E14658;}
</style>
<path class="st0" d="M321.4,19.2c-2.3-0.9-4.8-1.5-7.2-1.9c1.8-0.4,3.4-1.1,4.9-2.2c1.2-0.9,3.7-3.1,2.1-4.7
	c-1.3-1.3-3.6-0.4-4.9,0.3c-1.8,0.9-3.1,2.4-3.9,4.2c0-1.6-0.6-3.3-1.4-4.6c-0.7-1.1-2.4-3-3.8-1.9c-1.3,1-0.8,3.3-0.1,4.5
	c0.8,1.6,2.2,2.8,3.7,3.8c-27.9,12.4-56.5,16.6-86.9,15.3c-14.7-0.6-29.6-0.7-44.3-2.7c-14.3-1.9-28-5.8-41.3-11.1
	c0-1.8-0.2-3.6-0.5-5.4c-0.2-1.1-0.4-3.5-2-3.5c-2.7,0.1-1.2,4.3,0.1,6.6c-2.6-2.1-6.9-5.2-7.6-1.7c-0.3,1.5,0.7,2.6,2,3.1
	c1.2,0.5,2.5,0.6,3.8,0.8c0.8,0.1,1.6,0.3,2.4,0.3c0,0-0.1,0.1-0.1,0.1c-0.4,0.7-0.9,1.3-1.5,1.8c-0.6,0.6-1.3,0.9-1.9,1.4
	c-0.4,0.3-0.2,1.1,0.4,0.9c1.6-0.6,2.9-2.3,3.7-3.8c0,0,0-0.1,0-0.1c0,1,0,2.1,0,3.1c0,0.8,1.1,0.7,1.2,0c0.1-0.9,0.2-1.9,0.2-2.8
	c3.2,1.4,6.4,2.6,9.6,3.7c-3.6,7.2-5.9,19.7,4.6,22.3c10.3,2.6,13.7-9.4,14.6-17.1c0,0,0,0,0-0.1c2.9,0.6,5.9,1.1,8.8,1.6
	c-2.4,6.6-3.4,18.3,5.7,19.5c9.7,1.3,13-10,13.7-17.3c2.4,0.2,4.9,0.4,7.3,0.5c-1.1,7.7,0.1,19.3,10.2,19.6
	c9.7,0.2,12.4-10.9,11.2-18.5c0,0,0,0,0-0.1c0.3,0,0.7,0,1,0c2.6,0.1,5.2,0.2,7.8,0.2c-1.6,7.1,2.2,17.8,10.8,18.1
	c9.4,0.2,10.3-11.3,9.8-18c0-0.3-0.2-0.5-0.4-0.6c2.7-0.2,5.4-0.5,8.1-0.8c-1.1,6.4,3.4,14.8,10.4,15.7c9.4,1.2,9.1-13.2,8.6-19
	c0,0,0,0,0,0c2.1-0.5,4.2-1,6.2-1.6c2.1,6.2,9.3,17,16.8,12.6c3.2-1.9,4.6-5.9,4.6-9.5c0-2.6-0.4-7.8-3-9.4c2.4-1,4.7-2,7.1-3.2
	c0,0,0,0,0,0c1.1,1.6,2.2,3.1,3.5,4.6c0.4,0.5,1.2-0.1,0.9-0.7c-0.8-1.3-1.7-2.6-2.7-3.9c2.7,0.6,5.3,1.5,8,2.1
	C321.7,20.1,321.9,19.4,321.4,19.2z M133.6,17c-1.2-0.2-3.7-0.4-4.2-1.8c-0.4-1.4,1-1.4,1.8-1c0.7,0.4,1.4,0.9,2.1,1.3
	c0.9,0.6,1.7,1.2,2.6,1.9C135.1,17.3,134.3,17.2,133.6,17z M135.5,13.6c-0.2-0.7-0.5-1.5,0.3-2c0.8-0.5,0.7,0.7,0.8,1.5
	c0.2,1.2,0.3,2.3,0.3,3.5C136.2,15.7,135.7,14.7,135.5,13.6z M153.4,24.8c2.1,0.6,4.2,1.2,6.4,1.7c-0.8,1.7-2.1,3.3-4.3,2.7
	C153.6,28.7,153,26.5,153.4,24.8z M165.4,28.2c-0.9,6.8-3.9,18.8-13.6,15.1c-8.5-3.3-5.3-13.7-3-20c1.3,0.4,2.6,0.8,3.9,1.2
	c-1,2.1,0.2,4.9,2.4,5.6c2.2,0.8,5.6-0.9,5.5-3.4c1.6,0.4,3.3,0.8,4.9,1.1C165.5,28,165.4,28.1,165.4,28.2z M189.5,31.4
	c-0.2,2.2-2.2,4.3-4.6,3.8c-2.2-0.5-3.3-2.6-3.2-4.7C184.2,30.9,186.8,31.2,189.5,31.4z M193.6,31.9c-0.6,6.3-2.9,16.1-11.1,15.9
	c-9.2-0.3-6.5-12-5.6-17.9c1.3,0.2,2.6,0.4,4,0.5c-0.7,2.7,1.5,5.7,4.3,6c2.8,0.3,5.2-2.2,5.4-4.9c1,0.1,2.1,0.2,3.1,0.3
	C193.6,31.8,193.6,31.9,193.6,31.9z M216.4,33.1c-0.2,2.3-2.2,4.6-4.7,3.6c-1.7-0.6-2.5-2.3-2.4-4C211.6,32.9,214,33,216.4,33.1z
	 M211.6,50.3c-8.7-1.3-8.1-11.1-8.2-17.8c1.6,0.1,3.2,0.2,4.8,0.3c-0.4,2.2,1.1,4.6,3.4,5.2c2.8,0.8,6-1.8,5.8-4.8
	c1.7,0.1,3.4,0.2,5.1,0.2c-0.1,0.1-0.1,0.3-0.1,0.5C223.4,40.8,220.8,51.7,211.6,50.3z M245.4,33.5c0.2,2.2-1.3,4.5-3.6,4.5
	c-2.4,0-3.8-2.2-3.9-4.3C240.4,33.7,242.9,33.6,245.4,33.5z M244,50.2c-8.4,0.4-10.7-10.2-10.5-16.5c1.3,0,2.5,0,3.8,0
	c-0.4,2.7,2,5.4,4.8,5.4c2.9,0,5-2.9,4.7-5.6c1.7-0.1,3.5-0.2,5.2-0.3c-0.1,0.1-0.2,0.3-0.2,0.6C251.9,39.5,252,49.8,244,50.2z
	 M271.6,30.7c0.2,1.7,0.3,4.6-2,4.6c-1.9,0-3-2-3.2-3.7C268.1,31.3,269.9,31,271.6,30.7z M270.5,46.1c-6-1.7-8.5-8.3-8.6-13.9
	c0,0,0-0.1,0-0.1c1.3-0.2,2.5-0.3,3.8-0.5c0,2.3,1.8,5,4.4,4.7c2.9-0.3,3.1-3.6,2.8-5.9c1.9-0.4,3.8-0.7,5.6-1.2
	C278.6,34.6,279.2,48.6,270.5,46.1z M297.7,24.8c0.9,0.6,1,1.7,0.6,2.6c-0.5,1.1-1.6,1.5-2.8,1.5c-2-0.1-3.3-1.6-4.5-3
	c2.3-0.7,4.6-1.5,6.8-2.3C297.4,23.8,297.2,24.5,297.7,24.8z M305.7,32.8c-0.9,4.3-4.1,7.7-8.8,5.8c-4.9-2-7.7-6.9-9.7-11.5
	c1-0.3,2-0.6,2.9-0.9c1.5,2.5,4.5,5,7.6,3.5c2.4-1.1,2.8-4.5,0.6-6c-0.2-0.1-0.3-0.1-0.4-0.1c1.7-0.6,3.3-1.2,5-1.9
	c0,0,0.1,0.1,0.1,0.1C305.8,23.4,306.3,30,305.7,32.8z M307.4,10.5c-0.1-0.7,0.2-1.1,1-1.2c0.4,0.3,0.7,0.6,1,0.9
	c0.4,0.4,0.7,1,1,1.5c0.7,1.4,0.7,2.7,0.8,4.2C309.4,14.5,307.4,12.8,307.4,10.5z M312.7,16.2c0.5-1.2,1.3-2.4,2.3-3.3
	c0.7-0.6,1.7-1.2,2.6-1.5c1.2-0.4,1.6-0.9,1.7,0.7c0.1,1.4-0.2,1.5-1.4,2.3c-0.6,0.4-1.1,0.7-1.8,0.9
	C315,15.9,313.9,16.1,312.7,16.2z"/>
<g>
	<g>
		<path class="st1" d="M182.3,22.2c-0.2,1.4-0.8,2.5-1.7,3.1c-0.9,0.7-2,0.9-3.4,0.7c-1.5-0.2-2.6-0.8-3.2-1.9
			c-0.7-1.1-0.9-2.5-0.6-4.2c0.1-0.9,0.2-1.3,0.3-2.1c0.2-1.7,0.8-3,1.8-3.9c0.9-0.8,2.1-1.2,3.5-1c1.4,0.2,2.4,0.7,3,1.6
			c0.6,0.9,0.9,2,0.8,3.5c-1-0.1-1.6-0.2-2.6-0.3c0.1-0.9,0-1.5-0.2-1.9c-0.2-0.4-0.7-0.6-1.3-0.7c-0.7-0.1-1.2,0.1-1.6,0.5
			c-0.4,0.4-0.6,1.2-0.8,2.3c-0.1,1-0.2,1.4-0.3,2.4c-0.2,1.3-0.1,2.1,0.1,2.7c0.2,0.5,0.7,0.8,1.4,0.9c0.7,0.1,1.2,0,1.5-0.3
			c0.3-0.3,0.5-0.9,0.7-1.7C180.7,22,181.2,22,182.3,22.2z"/>
		<path class="st1" d="M190,24.7c-1.4-0.1-2.2-0.2-3.6-0.4c-0.4,1-0.6,1.5-1,2.5c-1.1-0.1-1.7-0.2-2.8-0.3c2.2-4.9,3.3-7.3,5.5-12.3
			c0.9,0.1,1.4,0.1,2.4,0.2c1.1,5.3,1.7,7.9,2.9,13.1c-1.1-0.1-1.7-0.2-2.9-0.3C190.2,26.3,190.1,25.7,190,24.7z M187.2,22.2
			c1,0.1,1.5,0.2,2.4,0.2c-0.3-1.9-0.5-2.8-0.8-4.7C188.2,19.6,187.8,20.4,187.2,22.2z"/>
		<path class="st1" d="M200.3,24.8c0-0.5-0.1-0.9-0.3-1.2c-0.3-0.3-0.7-0.6-1.4-0.9c-1.3-0.6-2.2-1.2-2.7-1.9
			c-0.5-0.7-0.7-1.5-0.7-2.4c0.1-1.1,0.5-1.9,1.4-2.5c0.8-0.6,1.8-0.8,3-0.8c0.8,0.1,1.5,0.3,2.1,0.6c0.6,0.4,1,0.9,1.3,1.5
			c0.3,0.6,0.4,1.3,0.4,2.1c-1-0.1-1.6-0.1-2.6-0.2c0-0.6-0.1-1.1-0.3-1.4c-0.2-0.3-0.6-0.5-1.1-0.5c-0.5,0-0.8,0.1-1.1,0.3
			c-0.3,0.2-0.4,0.6-0.5,1c0,0.4,0.1,0.7,0.4,1c0.3,0.3,0.7,0.6,1.4,1c1.2,0.5,2.1,1.2,2.7,1.8c0.5,0.7,0.8,1.5,0.7,2.6
			c-0.1,1.1-0.5,2-1.3,2.5c-0.8,0.6-1.8,0.8-3.1,0.7c-0.9-0.1-1.6-0.3-2.3-0.7s-1.2-0.9-1.5-1.6c-0.3-0.7-0.5-1.4-0.4-2.3
			c1.1,0.1,1.6,0.1,2.7,0.2c-0.1,0.7,0,1.3,0.3,1.6s0.7,0.6,1.4,0.6C199.8,26.2,200.3,25.7,200.3,24.8z"/>
		<path class="st1" d="M211.7,23.2c-1.6-0.1-2.5-0.1-4.1-0.2c-0.1,1.4-0.1,2-0.2,3.4c2,0.1,2.9,0.1,4.9,0.2c0,0.9,0,1.3-0.1,2.1
			c-3-0.1-4.6-0.2-7.6-0.4c0.3-5.1,0.4-7.7,0.7-12.8c2.9,0.2,4.4,0.2,7.3,0.4c0,0.9-0.1,1.3-0.1,2.2c-1.9-0.1-2.9-0.1-4.8-0.2
			c-0.1,1.2-0.1,1.8-0.2,3c1.6,0.1,2.5,0.1,4.1,0.2C211.7,22,211.7,22.4,211.7,23.2z"/>
		<path class="st1" d="M223.7,25.7c0-0.5-0.1-0.9-0.4-1.2c-0.3-0.3-0.8-0.6-1.5-0.8c-1.3-0.5-2.2-1.1-2.8-1.8
			c-0.6-0.7-0.8-1.4-0.8-2.3c0-1.1,0.4-1.9,1.2-2.6c0.8-0.6,1.8-0.9,2.9-0.9c0.8,0,1.5,0.2,2.1,0.5c0.6,0.3,1.1,0.8,1.4,1.4
			c0.3,0.6,0.5,1.3,0.5,2.1c-1,0-1.6,0-2.6,0c0-0.6-0.1-1.1-0.4-1.4c-0.3-0.3-0.6-0.5-1.1-0.5c-0.5,0-0.8,0.1-1.1,0.4
			c-0.3,0.3-0.4,0.6-0.4,1.1c0,0.4,0.1,0.7,0.4,1c0.3,0.3,0.8,0.6,1.5,0.9c1.3,0.5,2.2,1,2.8,1.7c0.6,0.7,0.9,1.5,0.9,2.5
			c0,1.1-0.4,2-1.1,2.6c-0.7,0.6-1.7,0.9-3,0.9c-0.9,0-1.6-0.2-2.3-0.5c-0.7-0.4-1.2-0.9-1.6-1.5c-0.4-0.6-0.6-1.4-0.5-2.3
			c1.1,0,1.6,0,2.7,0.1c0,0.7,0.1,1.3,0.4,1.6c0.3,0.3,0.8,0.5,1.4,0.5C223.2,27.1,223.7,26.7,223.7,25.7z"/>
		<path class="st1" d="M236.4,18.3c-1.3,0-1.9,0-3.2,0.1c0.1,4.3,0.1,6.4,0.2,10.6c-1.1,0-1.6,0-2.7,0c0-4.3-0.1-6.4-0.1-10.6
			c-1.3,0-1.9,0-3.1,0c0-0.9,0-1.3,0-2.2c3.6,0,5.3,0,8.9-0.1C236.4,17,236.4,17.5,236.4,18.3z"/>
		<path class="st1" d="M246.2,15.8c0.2,3.5,0.3,5.3,0.4,8.8c0.1,1.3-0.3,2.4-1,3.1s-1.8,1.1-3.2,1.2c-1.4,0.1-2.5-0.3-3.3-1
			c-0.8-0.7-1.2-1.7-1.2-3.1c-0.1-3.5-0.1-5.3-0.2-8.8c1,0,1.6,0,2.6-0.1c0.1,3.5,0.2,5.3,0.3,8.8c0,0.7,0.2,1.2,0.4,1.5
			c0.3,0.3,0.7,0.4,1.3,0.4c0.6,0,1.1-0.2,1.3-0.5c0.2-0.3,0.3-0.8,0.3-1.5c-0.2-3.5-0.2-5.3-0.4-8.8
			C244.7,15.9,245.2,15.9,246.2,15.8z"/>
		<path class="st1" d="M248.9,28.5c-0.3-5.1-0.4-7.7-0.7-12.8c1.4-0.1,2-0.1,3.4-0.2c1.5-0.1,2.7,0.3,3.7,1.2c1,0.9,1.5,2.1,1.7,3.8
			c0.1,0.8,0.1,1.2,0.2,2.1c0.1,1.7-0.2,3-1.1,4.1c-0.8,1-2.1,1.6-3.7,1.7C251,28.4,250.3,28.4,248.9,28.5z M250.9,17.7
			c0.2,3.4,0.3,5.1,0.5,8.5c0.3,0,0.5,0,0.8-0.1c0.9-0.1,1.5-0.3,1.8-0.8c0.3-0.5,0.5-1.3,0.4-2.4c-0.1-0.9-0.1-1.3-0.2-2.2
			c-0.1-1.2-0.3-2-0.7-2.5c-0.4-0.4-1-0.7-1.8-0.6C251.5,17.7,251.3,17.7,250.9,17.7z"/>
		<path class="st1" d="M262.2,27.5c-1.1,0.1-1.6,0.1-2.7,0.2c-0.4-5.1-0.6-7.7-1.1-12.8c1-0.1,1.6-0.1,2.6-0.2
			C261.5,19.8,261.8,22.4,262.2,27.5z"/>
		<path class="st1" d="M270.7,21.1c-1.6,0.2-2.5,0.3-4.1,0.4c0.1,1.3,0.2,2,0.3,3.4c2-0.2,2.9-0.3,4.9-0.5c0.1,0.9,0.1,1.3,0.2,2.1
			c-3,0.4-4.6,0.5-7.6,0.8c-0.5-5.1-0.7-7.6-1.2-12.7c2.9-0.3,4.4-0.4,7.3-0.8c0.1,0.9,0.1,1.3,0.2,2.1c-1.9,0.2-2.9,0.3-4.8,0.5
			c0.1,1.2,0.2,1.8,0.3,3c1.6-0.2,2.4-0.3,4.1-0.4C270.5,19.8,270.6,20.2,270.7,21.1z"/>
		<path class="st1" d="M278.7,22.3c-0.1-0.5-0.3-0.9-0.6-1.1s-0.8-0.4-1.6-0.6c-1.4-0.3-2.4-0.8-3-1.3s-1-1.3-1.1-2.2
			c-0.1-1.1,0.2-2,0.8-2.7c0.7-0.7,1.6-1.2,2.8-1.3c0.8-0.1,1.5,0,2.2,0.2c0.7,0.2,1.2,0.6,1.6,1.2s0.7,1.2,0.8,2
			c-1,0.1-1.6,0.2-2.6,0.4c-0.1-0.6-0.3-1-0.6-1.3c-0.3-0.3-0.7-0.4-1.2-0.3c-0.5,0.1-0.8,0.2-1,0.5s-0.3,0.7-0.2,1.1
			c0,0.3,0.2,0.6,0.5,0.9c0.3,0.2,0.9,0.5,1.6,0.7c1.3,0.3,2.3,0.7,3,1.3c0.7,0.6,1.1,1.4,1.2,2.4c0.2,1.1-0.1,2-0.7,2.7
			s-1.6,1.2-2.9,1.3c-0.9,0.1-1.7,0-2.4-0.2s-1.3-0.7-1.8-1.2c-0.5-0.6-0.8-1.3-0.9-2.2c1.1-0.1,1.6-0.2,2.6-0.3
			c0.1,0.7,0.3,1.2,0.6,1.5s0.8,0.4,1.5,0.3C278.4,23.7,278.8,23.2,278.7,22.3z"/>
	</g>
</g>
</svg>
