<?xml version="1.0" encoding="utf-8"?>
<!-- Generator: Adobe Illustrator 22.1.0, SVG Export Plug-In . SVG Version: 6.00 Build 0)  -->
<svg version="1.1" xmlns="http://www.w3.org/2000/svg" xmlns:xlink="http://www.w3.org/1999/xlink" x="0px" y="0px"
	 viewBox="0 0 200 54" style="enable-background:new 0 0 200 54;" xml:space="preserve">
<style type="text/css">
	.st0{display:none;}
	.st1{display:inline;fill:#D1D3D4;}
	.st2{fill:#FFFFFF;}
	.st3{fill:#0099AB;}
	.st4{fill:#E14658;}
</style>
<g id="Layer_4" class="st0">
	<rect class="st1" width="200" height="54"/>
</g>
<g id="Layer_3">
	<g>
		<g>
			<path class="st2" d="M17.9,24.8c-0.1,2.6-1.6,4.9-1.3,7.6c0.2,2,1.5,3.3,3.4,3.6c2.3,0.4,4.3-0.5,5.8-2.1c1.7-1.8,2.2-3.4,3-5.7
				c0.2-0.7-0.3-1.7-1-1.8c-1.6-0.2-3-0.6-4.5-1.4c-0.8-0.4-1.7-1.1-2.7-1c-2.1,0.4-2.7,4.5-2.9,6.2c-0.3,1.9,0,3.7,2.2,4
				c1.9,0.2,3.8-1.2,4.4-3c1.7-4.9-6.9-4.1-4.7-0.2c0.9,1.6,3.4,1.8,4.9,1.4c1.8-0.4,2.6-2.5,1.2-3.8c-1.4-1.4-3.5,0.8-2.1,2.1
				c0.1,0.1,0.2,0.2,0.2,0.2c-0.1-0.4-0.3-0.7-0.4-1.1c0.4-0.4,0.3-0.6-0.3-0.4c-0.8-0.2-1.1,0.3-1,1.3c-0.2-0.3-0.5-0.6-0.7-0.9
				c0.2,1-1.1,1.3-1.8,1.1c0.3,0.2,0.6,0.5,0.9,0.7c-0.6-0.8,0.6-4.5,1.2-5.1c-0.5,0.1-1,0.3-1.5,0.4c1,0.2,2,1,2.9,1.4
				c1.2,0.5,2.4,0.7,3.7,0.9c-0.3-0.6-0.7-1.2-1-1.8c-0.4,1.4-0.6,2.5-1.6,3.7c-0.9,1.1-2.4,2.7-4,2c-2.3-1,0.5-6.5,0.6-8.3
				C21,22.9,18,22.9,17.9,24.8L17.9,24.8z"/>
		</g>
	</g>
	<g>
		<g>
			<path class="st2" d="M37.8,30.2c-0.2-0.6-0.6,0.8-0.6,1.1c1,0,1.9,0,2.9,0c-0.2-0.4-0.2-0.8,0.1-1.2c-1-0.1-2-0.3-2.9-0.4
				c0,1.7-1.3,3.2-1.5,4.9c-0.2,1.5,0.2,3.1,1.3,4.2c1,1,2.4,1.5,3.8,1.5c1.9,0,2.7-1.6,3.7-3c-0.9-0.3-1.9-0.5-2.8-0.8
				c-0.1,0.3-0.2,0.6-0.3,0.9c0.9,0.1,1.8,0.2,2.7,0.4c0,0.1,1.6-2.7,1.8-3.2c0.5-1.2,1.1-2.5,1.2-3.8c0-0.7-0.5-1.2-1.1-1.4
				c-0.5-0.2-1-0.1-1.5,0c-0.3,0.1-2.6,0.2-2.7-0.1c-0.1,0.5-0.3,1-0.4,1.5c0.1-0.1,0.1-0.1,0.2-0.2c-0.4,0.1-0.7,0.3-1.1,0.4
				c0.8,0,1.8,0.7,2.6,0.9c1,0.2,1.9,0.2,2.9,0.1c-0.4-0.9-0.7-1.7-1.1-2.6c-0.5,0.4-1.2,0.5-1.7,0.9c-0.6,0.4-0.8,0.9-1.1,1.5
				c-0.8,1.6-1.8,3.1-3.5,3.8c0.4-0.1,0.8-0.1,1.2-0.2c-0.1,0-0.3,0-0.4-0.1c0.3,0.2,0.6,0.5,0.9,0.7c-0.6-0.7,0.6-2.1,1.1-2.4
				c-0.8-0.4-1.5-0.9-2.3-1.3c0-0.1,0.1-0.3,0.1-0.4c-1.2,1.6,1.5,3,2.6,1.5c0.2-0.3,0.3-0.7,0.3-1.1c-0.1-1.1-1.2-2-2.3-1.3
				c-1.5,1-2.5,2.4-2.7,4.2c-0.1,1.4,0.4,3.2,2.2,3.1c1.6-0.1,3.3-2,4.2-3.2c0.5-0.7,0.8-1.7,1.3-2.3c0.6-0.6,1.5-0.8,2.2-1.4
				c0.9-0.8,0.2-2.7-1.1-2.6c-1,0.1-2,0.1-3-0.2c-0.7-0.2-1.3-0.6-1.9-0.7c-1.2-0.2-2.3,0.6-2.2,1.8c0.1,1.3,1.4,1.9,2.4,2.3
				c0.7,0.2,1.4,0.4,2.1,0.4c0.4,0,0.9,0,1.3-0.1c0.2,0,0.4-0.1,0.6-0.1c0.4-0.1,0.4-0.1-0.1,0c-0.4-0.5-0.7-1-1.1-1.4
				c0,1.4-1.2,3.4-1.9,4.6c-0.6,1-1.5,1.9-1,3.2c0.5,1.2,2,1.5,2.7,0.4c0.5-0.8,0.7-1.5,0.7-2.4c0.1-1.6-2-1.9-2.8-0.8
				c-0.6,0.8-1.2,1.9-2.3,1.2c-0.9-0.5-1-1.6-0.8-2.6c0.3-1.7,1.4-3,1.4-4.8c0-1.8-2.4-1.9-2.9-0.4c-0.4,0.9-0.4,1.8-0.1,2.7
				c0.4,1.3,2.6,1.6,2.9,0c0.2-1.1,1-1.5,0.6-2.7C40.2,27.6,37.3,28.4,37.8,30.2L37.8,30.2z"/>
		</g>
	</g>
	<g>
		<g>
			<path class="st2" d="M55.8,32.3c0.1,2.4-0.3,5.9,1.4,7.8c1.4,1.6,3.8,2,5.7,1.4c2.4-0.8,3.7-3.1,4.9-5.1c0.9-1.5,2.2-4.1-0.4-4.7
				c-1.2-0.3-2.5,0-3.8,0c-1.5-0.1-2.6-0.6-4-0.9c-2.3-0.5-3,1.1-2.5,3c0.5,2.1,0.7,4.6,3.1,5c2.4,0.4,4.4-1,5.4-3.2
				c0.2-0.5,0.3-1.1,0-1.5c-0.9-1.2-2.1-0.9-3.6-0.9c-1.2,0.1-2.9-0.2-3.5,1.1c-0.9,1.7,1.7,3.2,2.6,1.5c0-0.1,0.1-0.1,0.1-0.2
				c-0.3,0.2-0.6,0.5-0.9,0.7c0.8-0.2,2.6-0.3,3.5-0.2c-0.3-0.2-0.6-0.5-0.9-0.7c0,0.1,0.1,0.1,0.1,0.2c0-0.5,0-1,0-1.5
				c-0.5,1.2-1.6,2-2.9,1.6c0.3,0.2,0.6,0.5,0.9,0.7c-0.3-0.7-0.5-1.6-0.7-2.4c-0.1-0.3-0.2-0.7-0.3-1c-0.2-0.8-0.2-0.9-0.1-0.3
				c-0.3,0.3-0.7,0.7-1,1c0.4-0.2,1.4,0.4,1.8,0.6c0.7,0.2,1.3,0.3,2,0.3c1.4,0.1,3-0.2,4.3,0.1c-0.3-0.3-0.7-0.7-1-1
				c0.2,0.4-1.4,2.5-1.7,2.8c-0.7,1.1-1.5,2.3-3,2.3c-3,0.1-2.4-4.4-2.5-6.5C58.7,30.4,55.7,30.4,55.8,32.3L55.8,32.3z"/>
		</g>
	</g>
	<g>
		<g>
			<path class="st2" d="M78.9,33.2c-0.7,3.7,0.9,7.4,4.1,9.4c1.4,0.9,3.1,1.2,4.7,0.5c2-0.9,2.9-3,4.5-4.5c-0.8-0.5-1.7-1-2.5-1.5
				c-0.2,0.8-1.2,1.2-1.8,1.7c-0.5,0.5-0.9,1.1-1.1,1.8c-0.4,1.5,1.4,2.4,2.5,1.5c1.3-1.1,1.5-2.6,2.4-3.9c0.9-1.3,2.1-2.1,2.5-3.7
				c-1-0.3-1.9-0.5-2.9-0.8c-0.1,0.9-0.4,1.7-1,2.4c0.9,0.4,1.7,0.7,2.6,1.1c-0.1-1.9,0.3-3.8-1.9-4.2c-1.4-0.3-3.1,0-4.5,0
				c-1.6,0-3.3-0.5-4.9-0.4c-0.7,0-1.3,0.4-1.4,1.1c-0.5,2.1,2.8,5.7,4.6,6.4c1.9,0.7,5.9-0.2,5.6-2.8c-0.3-2.5-4.9-2.6-6.7-2.1
				c-2.9,0.8-1,4.8,0.4,6.1c1.4,1.3,3.5-0.8,2.1-2.1c-0.7-0.5-1-1.2-0.9-2c-0.3,0.3-0.7,0.7-1,1c0.6-0.2,1.6-0.1,2.2-0.1
				c0.4,0,0.8,0.1,1.2,0.1c-0.3-0.8-0.8-1.2-1.6-1.2c-0.6,0-1-0.2-1.2-0.7c-0.3-0.3-0.6-0.7-0.8-1.1c-0.2-0.2-0.3-0.4-0.5-0.6
				c-0.5-0.9-0.6-0.9-0.4,0c-0.5,0.4-1,0.7-1.4,1.1c1.4-0.1,3,0.4,4.4,0.4c1.5,0,3.5-0.4,4.9,0c-0.3-0.3-0.7-0.7-1-1
				c0.2,0.6,0.1,1.6,0.1,2.2c0,1.2,1.7,2.1,2.6,1.1c0.9-1.2,1.5-2.3,1.7-3.7c0.3-1.9-2.4-2.7-2.9-0.8c-0.3,1.3-1.7,2-2.3,3.1
				c-0.7,1.1-0.8,2.4-1.9,3.2c0.8,0.5,1.7,1,2.5,1.5c0.4-1.5,2.6-1.7,2.9-3.6c0.3-1.4-1.4-2.5-2.5-1.5c-1.5,1.4-3.1,5.1-5.5,3.5
				c-2-1.3-3.2-3.7-2.7-6.1C82.1,32.1,79.2,31.3,78.9,33.2L78.9,33.2z"/>
		</g>
	</g>
	<g>
		<g>
			<path class="st2" d="M100.6,34.7c0.1,0.7,0.4,1.2,0.8,1.8c0.5,0.6,1.2,1.1,1,2c0.9-0.4,1.7-0.7,2.6-1.1c-0.6-0.7-1-1.4-1.3-2.4
				c-0.5-1.7-2.8-1.2-2.9,0.4c-0.2,2.3,0.3,4.7,1.7,6.6c1.2,1.5,3.2,2.3,4.9,1.2c1.6-1,0.1-3.6-1.5-2.6c-0.9,0.6-1.6-1.3-1.8-1.9
				c-0.4-1.1-0.4-2.2-0.3-3.3c-1,0.1-2,0.3-2.9,0.4c0.4,1.4,1.1,2.6,2.1,3.7c1,1.1,2.4,0.1,2.6-1.1c0.3-2-1.6-2.8-1.9-4.6
				C103.2,32,100.3,32.8,100.6,34.7L100.6,34.7z"/>
		</g>
	</g>
	<g>
		<g>
			<path class="st2" d="M105.7,43.2c2.1-0.2,3.9-1.1,5.3-2.7c-0.9-0.4-1.7-0.7-2.6-1.1c-0.2,0.2-0.3,0.5-0.5,0.7
				c0.8,0.4,1.5,0.9,2.3,1.3c0-0.2,1.4-1.1,1.6-1.4c0.6-0.6,1.1-1.2,1.5-1.8c0.8-1.2,1.3-2.6,1.4-4.1c0.1-1.3-1.3-1.7-2.3-1.3
				c-2.5,1.1-6.1,0.5-8.8,0.5c-1.1,0-1.9,1.3-1.3,2.3c0.9,1.5,2.1,4.6,4.1,5c1.9,0.4,3.9-1.2,5.3-2.3c1.1-0.9,0.1-2.4-1.1-2.6
				c-1.3-0.1-3-0.4-4.3,0.2c-0.4,0.2-0.7,0.5-1,0.8c-0.2,0.2-0.6,1.2-0.8,1.2c-1.9,0.5-1.1,3.4,0.8,2.9c0.9-0.2,1.3-0.7,1.9-1.4
				c0.4-0.5,0.4-0.7,1-0.8c0.7-0.2,1.7,0.1,2.5,0.1c-0.4-0.9-0.7-1.7-1.1-2.6c-0.5,0.4-1,0.7-1.5,1.1c-0.6,0.3-0.6,0.4-1,0.2
				c-0.8-0.5-1.6-2.5-2-3.3c-0.4,0.8-0.9,1.5-1.3,2.3c3.4,0,7.2,0.5,10.3-0.9c-0.8-0.4-1.5-0.9-2.3-1.3c-0.2,1.7-1.2,3-2.4,4.2
				c-1.1,1-1.9,1.6-2.1,3.1c-0.1,1.2,1.4,1.8,2.3,1.3c1.3-0.7,1.9-1.9,2-3.3c0.1-1.3-1.7-2-2.6-1.1c-0.9,1-1.9,1.7-3.2,1.8
				C103.8,40.4,103.8,43.4,105.7,43.2L105.7,43.2z"/>
		</g>
	</g>
	<g>
		<g>
			<path class="st2" d="M121.6,33.3c-0.4,2.2,0.1,4.1,1.5,5.9c1.2,1.5,3.1,3.8,5.2,3.6c1.7-0.1,3.9-1.8,4.6-3.2
				c0.5-1,0.4-2.2,0.9-3.3c0.5-1,1-2,1.2-3.1c0.2-1.1-0.6-2.1-1.8-1.8c-2.1,0.5-4.2,0.6-6.3,0.7c-1.3,0-3.1-0.3-4.2,0.6
				c-0.9,0.7-0.9,1.8-0.4,2.8c0.8,1.3,2.4,2.8,3.7,3.7c1.8,1.3,4.9,1.4,5.3-1.3c0.5-3.7-3-3.6-5.8-3.6c-1.4,0-1.9,1.6-1.1,2.6
				c1.1,1.3,2.9,2.5,4.7,2.2c1.7-0.3,2.5-2.2,2.9-3.8c0.5-1.9-2.4-2.7-2.9-0.8c-0.2,0.8-0.4,1.5-1.1,2c0.4-0.1,0.7-0.3,1.1-0.4
				c-1.1,0.1-1.8-0.4-2.5-1.3c-0.4,0.9-0.7,1.7-1.1,2.6c0.6,0,2.7-0.2,3.2,0.2c-0.1-0.4-0.3-0.7-0.4-1.1c0.1,0.4-0.2,1.6,0.1,1.3
				c0.3-0.2,0.6-0.5,0.9-0.7c-1.1,0.3-1.8-0.6-2.5-1.3c-0.2-0.2-1.7-1.5-1.7-1.6c-0.1,0.4-0.3,0.7-0.4,1.1c0.4-0.4,3.9,0,4.6-0.1
				c1.6-0.1,3.3-0.3,4.9-0.7c-0.6-0.6-1.2-1.2-1.8-1.8c-0.2,1.2-0.8,2.1-1.3,3.2c-0.4,0.9-0.3,2-0.8,2.8c-1.9,3.5-6-2-5.6-4.3
				C124.8,32.2,121.9,31.4,121.6,33.3L121.6,33.3z"/>
		</g>
	</g>
	<g>
		<g>
			<path class="st2" d="M145.2,31.2c-0.2,2.4,0,4.5,1.8,6.2c1.5,1.3,4.4,3.1,6.5,3c0.9-0.1,1.4-0.5,1.9-1.2c0.7-0.9,1.5-1.8,2.1-2.8
				c1.1-1.8,2.2-4.8,1.8-6.9c-0.1-0.7-0.8-1.1-1.4-1.1c-1,0-2.1,0.4-3.1,0.5c-1.5,0.3-3,0.4-4.6,0.6c-1.5,0.1-4,0-4,2.2
				c0,0.8,0.5,1.4,1,1.9c0.7,0.8,1.3,1.6,2,2.4c1.2,1.5,3,2.3,4.8,1.4c2.5-1.4,3.7-7.2-0.5-6.6c-1.4,0.2-3,1.3-3.3,2.8
				c-0.3,1.6,1,3,2.6,2.9c1.9-0.1,1.9-3.1,0-3c1,0,0.4,0.8,0,1c-0.9,0.4-1.5-0.6-1.9-1.1c-0.2-0.2-1.5-2.1-1.7-1.7
				c-0.3,0.3-0.7,0.7-1,1c1.6-0.5,3.5-0.4,5.2-0.6c1.3-0.2,3-0.8,4.3-0.7c-0.5-0.4-1-0.7-1.4-1.1c0.2,1-0.7,3.1-1.1,3.9
				c-0.3,0.6-1.4,2.5-2.1,2.8c-0.7,0.3-2.5-0.8-3.4-1.4c-1.7-1.2-1.6-2.7-1.5-4.5C148.4,29.3,145.4,29.3,145.2,31.2L145.2,31.2z"/>
		</g>
	</g>
	<g>
		<g>
			<path class="st2" d="M150.4,34.4c1.9,0,1.9-3,0-3C148.5,31.4,148.5,34.4,150.4,34.4L150.4,34.4z"/>
		</g>
	</g>
	<g>
		<g>
			<path class="st2" d="M155.7,33.3c1.9,0,1.9-3,0-3C153.8,30.3,153.7,33.3,155.7,33.3L155.7,33.3z"/>
		</g>
	</g>
	<g>
		<g>
			<path class="st2" d="M168.8,28.8c0.6,0.7,1.1,1.4,1.6,2.1c0.7-0.7,1.4-1.4,2.1-2.1c-0.2-0.3-0.4-0.5-0.7-0.8c-0.5-1-2-0.9-2.6,0
				c-1.3,2.1,1.6,4.3,2.9,5.7c1.5,1.6,3.5,3.4,5.8,3.2c4.9-0.4,4.3-9.2,3-12.3c-0.2-0.4-0.8-0.8-1.3-0.7c-1.5,0.1-3,0.9-4.4,1.3
				c-1.4,0.3-3.4,0.2-4.6,0.9c-2.5,1.5,0.3,3.7,1.5,4.8c1.5,1.4,3.8,4.5,6.3,3.4c1-0.4,1.5-1.4,1.5-2.4c0-1.6-1.6-2.7-1.5-4.2
				c-0.2,0.4-0.5,0.9-0.7,1.3c0,0,0,0,0,0c-0.4-0.1-0.7-0.3-1.1-0.4c0.1,0.1,0.2,0.2,0.3,0.3c-0.1-0.4-0.3-0.7-0.4-1.1
				c0.1,0.6,0.1,1.5,0,2.1c0.2-0.3,0.5-0.6,0.7-0.9c-0.6,0.1-1.1-0.2-1.4-0.7c-1.1-1.6-3.7-0.1-2.6,1.5c1.1,1.6,3.2,2.8,5.2,1.9
				c1.7-0.8,1.8-4.4,0.2-5.4c-2-1.3-3.6,0.8-3.1,2.8c0.2,0.7,0.5,1.2,0.9,1.8c0.6,1,0,0.1-0.4-0.4c-0.7-0.8-3.3-2.7-3.4-3.2
				c-0.1,0.5-0.3,1-0.4,1.5c0.3-0.3,2.9-0.4,3.4-0.5c1.3-0.3,2.8-1.2,4-1.3c-0.4-0.2-0.9-0.5-1.3-0.7c0.4,1,0.4,2.7,0.5,3.8
				c0,0.8-0.1,1.4-0.2,2.2c-0.2,0.9-0.2,1.1-1.1,1.4c-1.3,0.4-2.2-0.8-3-1.7c-0.7-0.8-2.4-2.2-2.7-3.2c-0.1,0.4-0.1,0.8-0.2,1.2
				c0.1-0.1,0.1-0.2,0.2-0.3c-0.9,0-1.7,0-2.6,0c0.4,0.8,0.9,1.4,1.7,1.8c1.2,0.7,2.9-0.8,2.1-2.1c-0.6-0.9-1.3-1.9-2.1-2.7
				C169.7,25.2,167.5,27.3,168.8,28.8L168.8,28.8z"/>
		</g>
	</g>
</g>
<g id="Layer_2">
	<path class="st3" d="M197.4,19.9c-1.4-0.4-2.7-1-4-1.7c1.2-1.5,3.3-2.8,3.9-4.2c0.4-1.2,1.2-4.6-0.4-5.3c-1.4-0.6-3.3,1.3-3.9,2.3
		c-0.9,1.4-1.4,3-1.5,4.7c-0.5-0.6-1-1.2-1.4-1.9c-0.6-0.8-1.2-1.7-1.9-2.3c-1.1-0.9-3-0.8-3.4,0.8c-0.3,1.5,0.9,3.4,1.8,4.4
		c1,1,2.3,1.8,3.7,1.6c-11.7,7.1-27.4,8.6-40.7,10.5c-15.9,2.3-31.9,3.5-47.9,3.5c-14.6,0.1-29.3-0.8-43.8-2.6
		c-13.7-1.7-30.6-2.8-43.4-9.2c0-0.2,0.1-0.3,0.1-0.5c0-0.1,0-0.2,0-0.3c0.1-0.1,0.2-0.2,0.3-0.3c1.3-1.4,3.6-3.7,2.7-5.8
		c-0.7-1.7-2.9-1.8-4.2-0.7c-1.8,1.4-1.2,3.8-0.4,5.6c0.2,0.4,0.7,0.1,0.6-0.3c-0.3-1.4-0.7-5,1.7-4.8c2.9,0.3-1,4.5-1.5,5
		c-0.3,0.3-0.7,0.6-1,0.9c0.1-0.1,0.1-0.3,0-0.5c-1-1.5-1.2-3.8-2.7-5c-1-0.8-2.8-1.3-3.7-0.1c-1.2,1.4-0.1,3.4,1,4.4
		c0.7,0.6,2.6,1.8,3.8,1.5c0,0.1,0.1,0.2,0.2,0.3c0.1,0.1,0.3,0.2,0.4,0.2c-1.4,1-3,1.8-4.6,2.7c-0.7,0.4-0.2,1.5,0.5,1.2
		c2-0.6,3.8-1.7,5.5-3.1c0,0,0.1,0,0.1,0.1c-0.7,1.6-1.6,2.9-2.6,4.4c-0.4,0.5,0.4,1.1,0.9,0.7c1.2-1.2,2-2.9,2.6-4.6
		c1.3,0.7,2.6,1.3,3.9,1.9c-0.2,0-0.3,0-0.4,0.2c-2.2,3.9-4.3,11.5,1.8,13.1c5.9,1.6,9.1-5,10.6-9.4c0-0.1,0-0.2,0-0.2
		c2.3,0.5,4.5,0.9,6.8,1.3c-1.4,2.5-2.7,5.5-1.9,8.4c0.5,2.1,2.1,4.1,4.3,4.5c6.3,1.2,7.6-7.2,9-11.3c1.7,0.2,3.3,0.4,4.9,0.6
		c0.8,0.1,1.6,0.2,2.3,0.3c-1.2,4.6-1.4,11.2,4.8,11.8c5.9,0.5,9-5.2,9.7-10.2c2.8,0.2,5.6,0.5,8.4,0.6c-0.9,4.6,0.7,10.6,6.2,11.2
		c6.1,0.7,9.3-5.5,10.3-10.5c1.7,0,3.4,0,5.1,0c-0.7,4.3,1.5,9.2,6.2,10.1c5.6,1,8.1-6.1,9.6-10.1c0-0.1,0-0.2,0-0.3
		c1.8-0.1,3.5-0.2,5.3-0.3c-0.1,4.4,1.8,10.3,7.1,10.4c5.6,0,7.2-6.6,7.5-11c0-0.3-0.2-0.4-0.4-0.5c2.9-0.3,5.9-0.6,8.8-1
		c0.4,4.5,3.4,10.4,8.5,9.8c5.4-0.6,6.8-6.9,6.8-11.4c0-0.2-0.1-0.3-0.2-0.4c2.8-0.4,5.7-0.8,8.6-1.4c0.7,4.6,4.8,10.5,10.1,9.9
		c6.5-0.8,5.1-8.9,3.6-13c-0.1-0.2-0.2-0.3-0.3-0.4c3.4-1.2,6.7-2.7,9.7-4.6c-0.2,1.2,0.2,2.3,1.6,3c0.6,0.3,1.2-0.4,0.7-1
		c-1-1.1-0.9-2.1-0.4-3c1.3,0.8,2.7,1.4,4.2,1.9C197.7,21,198,20.1,197.4,19.9z M10.8,18.5c-0.6-0.2-1.3-0.4-1.8-0.8
		c-0.7-0.5-2.8-2.9-1-3.3c1.3-0.3,2.1,1.3,2.4,2.2c0.3,0.7,0.5,1.5,1,2.1C11.2,18.6,11,18.6,10.8,18.5z M28.8,27.1
		c-1.4,3.6-3.5,9-8.3,8.4c-5.9-0.7-3.3-8.1-2-11.5c0.1-0.2,0-0.3-0.2-0.4c3.4,1.4,6.9,2.5,10.6,3.4C28.9,27,28.9,27,28.8,27.1z
		 M40.5,40.2c-6.2,0.1-3.7-8.2-2.6-11.6c3.1,0.5,6.3,0.9,9.3,1.3C46.2,33.6,45.4,40.1,40.5,40.2z M61.5,41.5
		c-6.1,0.4-5.7-6.2-5-10.4c4.1,0.5,8.2,1,12.3,1.4C68.2,36.5,66.3,41.2,61.5,41.5z M85.6,43.1c-5.2,0.1-6.4-5.6-6.2-9.8
		c4.8,0.3,9.6,0.5,14.4,0.6C92.8,38,90.5,43,85.6,43.1z M109.4,42.1c-5.1,2.9-8.8-3.8-8.3-8.1c0.2,0,0.4,0,0.6,0
		c4.4,0,8.8-0.1,13.2-0.3C112.7,36.3,112.6,40.3,109.4,42.1z M134.6,32.6c-0.5,3.5-1.1,9.2-5.6,9.7c-5.1,0.6-6.7-5-7-9
		c4.3-0.3,8.6-0.6,12.8-1C134.6,32.4,134.6,32.5,134.6,32.6z M158.4,29.5c-0.6,3.5-0.9,8.9-5.2,9.9c-4.7,1.1-7.1-4.3-8-8.2
		c1.2-0.1,2.3-0.3,3.5-0.4c3.2-0.4,6.5-0.8,9.9-1.3C158.4,29.4,158.4,29.5,158.4,29.5z M180.2,25.1c0.8,2.3,1.8,4.9,1.2,7.4
		c-0.6,2.5-2.6,4.3-5.3,3.7c-3.9-0.9-6.5-4.8-7.3-8.5c3.9-0.7,7.7-1.7,11.3-2.9C180.2,24.9,180.2,25,180.2,25.1z M190.7,17.1
		c-1.1,0-2.1-0.3-2.9-1.1c-0.6-0.6-1.5-1.8-1.5-2.7c0-1.3,1.1-0.4,1.5,0c0.4,0.5,0.8,1,1.2,1.5c0.6,0.8,1.3,1.7,2,2.4
		C190.9,17.1,190.8,17.1,190.7,17.1z M192.4,17c0.1-2.1,0.6-4.4,2.2-5.9c1.9-1.8,2.1,0.1,1.6,1.7c-0.5,1.7-1.8,2.4-3,3.4
		C192.9,16.5,192.6,16.8,192.4,17z"/>
</g>
<g id="Layer_1">
	<g>
		<g>
			<path class="st4" d="M75.4,23.7c-0.1,0.9-0.4,1.5-1,1.9c-0.5,0.4-1.2,0.6-2.1,0.5c-0.9-0.1-1.6-0.5-2-1.1
				c-0.4-0.6-0.6-1.5-0.4-2.6c0.1-0.5,0.1-0.8,0.1-1.3c0.1-1.1,0.5-1.9,1-2.4c0.5-0.5,1.3-0.7,2.1-0.7c0.9,0.1,1.5,0.4,1.9,0.9
				c0.4,0.5,0.6,1.2,0.6,2.1c-0.6-0.1-1-0.1-1.6-0.2c0-0.6,0-0.9-0.1-1.2c-0.1-0.2-0.4-0.4-0.8-0.4c-0.4,0-0.7,0.1-0.9,0.3
				c-0.2,0.3-0.4,0.7-0.4,1.4c-0.1,0.6-0.1,0.9-0.2,1.5c-0.1,0.8,0,1.3,0.1,1.6c0.1,0.3,0.4,0.5,0.9,0.5c0.4,0,0.7,0,0.9-0.2
				c0.2-0.2,0.3-0.5,0.4-1.1C74.5,23.7,74.8,23.7,75.4,23.7z"/>
			<path class="st4" d="M80.1,25.1c-0.9-0.1-1.3-0.1-2.2-0.2c-0.2,0.6-0.3,0.9-0.6,1.6c-0.7-0.1-1-0.1-1.7-0.1
				c1.3-3,1.9-4.5,3.1-7.6c0.6,0,0.9,0.1,1.4,0.1c0.7,3.2,1.1,4.8,1.9,8c-0.7,0-1-0.1-1.7-0.1C80.3,26.1,80.3,25.8,80.1,25.1z
				 M78.4,23.7c0.6,0,0.9,0.1,1.5,0.1c-0.2-1.1-0.3-1.7-0.5-2.8C79,22.1,78.8,22.6,78.4,23.7z"/>
			<path class="st4" d="M86.4,25.1c0-0.3-0.1-0.6-0.2-0.7c-0.2-0.2-0.4-0.4-0.9-0.6c-0.8-0.3-1.3-0.7-1.7-1.1
				c-0.3-0.4-0.5-0.9-0.4-1.4c0-0.7,0.3-1.2,0.8-1.5c0.5-0.4,1.1-0.5,1.8-0.5c0.5,0,0.9,0.2,1.3,0.4c0.4,0.2,0.6,0.5,0.8,0.9
				c0.2,0.4,0.3,0.8,0.2,1.3c-0.6,0-1,0-1.6-0.1c0-0.4,0-0.6-0.2-0.8c-0.1-0.2-0.4-0.3-0.7-0.3c-0.3,0-0.5,0.1-0.7,0.2
				c-0.2,0.2-0.3,0.4-0.3,0.6c0,0.2,0.1,0.4,0.2,0.6c0.2,0.2,0.5,0.4,0.9,0.6c0.8,0.3,1.3,0.7,1.6,1.1c0.3,0.4,0.5,0.9,0.5,1.6
				c0,0.7-0.3,1.2-0.7,1.6s-1.1,0.5-1.8,0.5c-0.5,0-1-0.2-1.4-0.4s-0.7-0.6-0.9-1c-0.2-0.4-0.3-0.9-0.3-1.4c0.6,0,1,0.1,1.6,0.1
				c0,0.5,0,0.8,0.2,1c0.2,0.2,0.5,0.3,0.9,0.4C86.1,26,86.4,25.7,86.4,25.1z"/>
			<path class="st4" d="M93.3,24.1c-1,0-1.5,0-2.5-0.1c0,0.8,0,1.2-0.1,2.1c1.2,0,1.8,0.1,3,0.1c0,0.5,0,0.8,0,1.3
				c-1.8-0.1-2.8-0.1-4.6-0.2c0.1-3.1,0.2-4.7,0.4-7.8c1.8,0.1,2.7,0.1,4.5,0.2c0,0.5,0,0.8,0,1.3c-1.2,0-1.8-0.1-2.9-0.1
				c0,0.7,0,1.1-0.1,1.8c1,0,1.5,0.1,2.5,0.1C93.3,23.3,93.3,23.6,93.3,24.1z"/>
			<path class="st4" d="M100.6,25.5c0-0.3-0.1-0.6-0.2-0.7c-0.2-0.2-0.5-0.3-0.9-0.5c-0.8-0.3-1.4-0.7-1.7-1.1
				c-0.3-0.4-0.5-0.9-0.5-1.4c0-0.7,0.3-1.2,0.7-1.6c0.5-0.4,1.1-0.6,1.8-0.6c0.5,0,0.9,0.1,1.3,0.3c0.4,0.2,0.7,0.5,0.9,0.9
				c0.2,0.4,0.3,0.8,0.3,1.3c-0.6,0-1,0-1.6,0c0-0.4-0.1-0.6-0.2-0.8c-0.2-0.2-0.4-0.3-0.7-0.3c-0.3,0-0.5,0.1-0.7,0.2
				c-0.2,0.2-0.2,0.4-0.2,0.7c0,0.2,0.1,0.4,0.3,0.6c0.2,0.2,0.5,0.4,0.9,0.5c0.8,0.3,1.3,0.6,1.7,1c0.3,0.4,0.5,0.9,0.5,1.5
				c0,0.7-0.2,1.2-0.7,1.6s-1.1,0.6-1.8,0.6c-0.5,0-1-0.1-1.4-0.3c-0.4-0.2-0.8-0.5-1-0.9c-0.2-0.4-0.3-0.8-0.3-1.4c0.6,0,1,0,1.6,0
				c0,0.5,0.1,0.8,0.3,1c0.2,0.2,0.5,0.3,0.9,0.3C100.3,26.4,100.6,26.1,100.6,25.5z"/>
			<path class="st4" d="M108.4,21c-0.8,0-1.2,0-1.9,0c0,2.6,0,3.9,0.1,6.5c-0.7,0-1,0-1.6,0c0-2.6,0-3.9,0-6.5c-0.8,0-1.1,0-1.9,0
				c0-0.5,0-0.8,0-1.3c2.2,0,3.3,0,5.4-0.1C108.4,20.2,108.4,20.5,108.4,21z"/>
			<path class="st4" d="M114.4,19.5c0.1,2.2,0.1,3.2,0.2,5.4c0,0.8-0.2,1.4-0.6,1.9c-0.4,0.4-1.1,0.7-1.9,0.7c-0.9,0-1.5-0.2-2-0.6
				c-0.5-0.4-0.7-1.1-0.7-1.9c0-2.2-0.1-3.2-0.1-5.4c0.6,0,1,0,1.6,0c0.1,2.2,0.1,3.2,0.1,5.4c0,0.4,0.1,0.8,0.2,0.9
				c0.2,0.2,0.4,0.3,0.8,0.3c0.4,0,0.6-0.1,0.8-0.3c0.1-0.2,0.2-0.5,0.2-0.9c-0.1-2.2-0.1-3.2-0.2-5.4
				C113.4,19.6,113.7,19.6,114.4,19.5z"/>
			<path class="st4" d="M115.9,27.3c-0.1-3.1-0.2-4.7-0.3-7.8c0.8,0,1.2-0.1,2.1-0.1c0.9,0,1.7,0.2,2.2,0.7c0.6,0.5,0.9,1.3,1,2.3
				c0,0.5,0,0.8,0.1,1.3c0.1,1-0.2,1.8-0.7,2.5c-0.5,0.6-1.3,1-2.3,1C117.1,27.3,116.7,27.3,115.9,27.3z M117.2,20.7
				c0.1,2.1,0.2,3.1,0.3,5.2c0.2,0,0.3,0,0.5,0c0.5,0,0.9-0.2,1.1-0.5c0.2-0.3,0.3-0.8,0.3-1.5c0-0.5,0-0.8-0.1-1.4
				c0-0.7-0.2-1.2-0.4-1.5c-0.2-0.3-0.6-0.4-1.1-0.4C117.5,20.7,117.4,20.7,117.2,20.7z"/>
			<path class="st4" d="M124,26.9c-0.6,0-1,0.1-1.6,0.1c-0.2-3.1-0.3-4.7-0.5-7.8c0.6,0,0.9-0.1,1.6-0.1
				C123.6,22.2,123.8,23.7,124,26.9z"/>
			<path class="st4" d="M129.2,23c-1,0.1-1.5,0.1-2.5,0.2c0.1,0.8,0.1,1.2,0.2,2.1c1.2-0.1,1.8-0.1,3-0.3c0,0.5,0.1,0.8,0.1,1.3
				c-1.8,0.2-2.8,0.2-4.6,0.4c-0.2-3.1-0.4-4.7-0.6-7.8c1.8-0.1,2.7-0.2,4.5-0.4c0,0.5,0.1,0.8,0.1,1.3c-1.2,0.1-1.7,0.2-2.9,0.2
				c0.1,0.7,0.1,1.1,0.1,1.8c1-0.1,1.5-0.1,2.5-0.2C129.1,22.3,129.1,22.5,129.2,23z"/>
			<path class="st4" d="M134,23.9c0-0.3-0.1-0.5-0.3-0.7c-0.2-0.1-0.5-0.3-1-0.4c-0.8-0.2-1.4-0.5-1.8-0.9c-0.4-0.4-0.6-0.8-0.7-1.4
				c-0.1-0.7,0.1-1.2,0.6-1.6c0.4-0.4,1-0.7,1.7-0.8c0.5,0,0.9,0,1.3,0.2c0.4,0.2,0.7,0.4,1,0.8c0.2,0.3,0.4,0.7,0.4,1.2
				c-0.6,0.1-0.9,0.1-1.6,0.2c0-0.4-0.1-0.6-0.3-0.8c-0.2-0.2-0.4-0.2-0.7-0.2c-0.3,0-0.5,0.1-0.6,0.3c-0.1,0.2-0.2,0.4-0.2,0.7
				c0,0.2,0.1,0.4,0.3,0.6c0.2,0.2,0.5,0.3,1,0.4c0.8,0.2,1.4,0.5,1.8,0.8c0.4,0.4,0.6,0.8,0.7,1.5c0.1,0.7-0.1,1.2-0.5,1.7
				c-0.4,0.4-1,0.7-1.7,0.8c-0.5,0.1-1,0-1.4-0.2c-0.4-0.2-0.8-0.4-1.1-0.8c-0.3-0.4-0.4-0.8-0.5-1.3c0.6-0.1,1-0.1,1.6-0.2
				c0,0.4,0.2,0.8,0.4,1s0.5,0.3,0.9,0.2C133.9,24.8,134.1,24.5,134,23.9z"/>
		</g>
	</g>
</g>
</svg>
