<?xml version="1.0" encoding="utf-8"?>
<!-- Generator: Adobe Illustrator 22.1.0, SVG Export Plug-In . SVG Version: 6.00 Build 0)  -->
<svg version="1.1" xmlns="http://www.w3.org/2000/svg" xmlns:xlink="http://www.w3.org/1999/xlink" x="0px" y="0px"
	 viewBox="0 0 200 54" style="enable-background:new 0 0 200 54;" xml:space="preserve">
<style type="text/css">
	.st0{display:none;}
	.st1{display:inline;fill:#D1D3D4;}
	.st2{fill:#FFFFFF;}
	.st3{fill:#0099AB;}
	.st4{fill:#E14658;}
</style>
<g id="Layer_2" class="st0">
	<rect class="st1" width="200" height="54"/>
</g>
<g id="Layer_3">
	<g>
		<g>
			<path class="st2" d="M25.3,32.2c0.1,0,0.2,0,0.4,0c0.8,0,1.5-0.7,1.5-1.5c0-0.8-0.7-1.5-1.5-1.5c-0.1,0-0.2,0-0.4,0
				c-0.8,0-1.5,0.7-1.5,1.5C23.8,31.5,24.5,32.2,25.3,32.2L25.3,32.2z"/>
		</g>
	</g>
	<g>
		<g>
			<path class="st2" d="M23.1,23.1c0.7,0.1,1.4,0.3,2,0.6c0.7,0.3,1.7-0.3,1.8-1c0.2-0.8-0.3-1.6-1-1.8c-0.7-0.2-1.3-0.4-2-0.6
				c-0.8-0.2-1.7,0.2-1.8,1C21.9,22,22.3,22.9,23.1,23.1L23.1,23.1z"/>
		</g>
	</g>
	<g>
		<g>
			<path class="st2" d="M25.5,23.8c1.9,0,1.9-3,0-3C23.6,20.8,23.6,23.8,25.5,23.8L25.5,23.8z"/>
		</g>
	</g>
	<g>
		<g>
			<path class="st2" d="M21.1,23.2c0.3,2.7-0.8,5.3-0.7,8c0.1,1.9,3.1,1.9,3,0c-0.1-2.7,1-5.3,0.7-8C23.9,21.3,20.9,21.3,21.1,23.2
				L21.1,23.2z"/>
		</g>
	</g>
	<g>
		<g>
			<path class="st2" d="M23.3,24.7c0.4,0.5,0.4,1.1,0.6,1.6c0.3,0.7,0.6,1.3,1.1,1.8c0.5,0.5,1,0.8,1.6,1.1c0.6,0.2,1.2,0.2,1.8,0.4
				c1.8,0.6,2.6-2.3,0.8-2.9c-0.8-0.3-1.7-0.1-2.2-0.9c-0.6-0.8-0.6-1.9-1.2-2.7c-0.5-0.6-1.3-1-2.1-0.5C23.2,23,22.8,24,23.3,24.7
				L23.3,24.7z"/>
		</g>
	</g>
	<g>
		<g>
			<path class="st2" d="M35.3,26.1c-0.2,0-0.3-0.2-0.1,0c0.3,0.3,0,0,0.2,0.1c0.3,0.2,0.5,0.4,0.8,0.6c0.6,0.4,1.3,0.5,2.1,0.6
				c0.8,0.1,1.5-0.7,1.5-1.5c0-0.9-0.7-1.4-1.5-1.5c-0.4,0-0.7-0.3-1-0.5c-0.6-0.5-1.2-0.8-2-0.9c-0.8-0.1-1.5,0.8-1.5,1.5
				C33.8,25.5,34.5,26,35.3,26.1L35.3,26.1z"/>
		</g>
	</g>
	<g>
		<g>
			<path class="st2" d="M37.1,25.8c0,2.5-1.5,5.2-2.3,7.5c-0.6,1.8,2.3,2.6,2.9,0.8c0.9-2.6,2.4-5.5,2.4-8.3
				C40.1,23.9,37.1,23.9,37.1,25.8L37.1,25.8z"/>
		</g>
	</g>
	<g>
		<g>
			<path class="st2" d="M34.8,33.9c0,2-2.8,3.8-4.4,4.3c-1.6,0.4-3.1,0.5-4.5-0.4c-3.5-2.2-4-6.5-0.8-9.1c1.5-1.2-0.6-3.3-2.1-2.1
				c-5.2,4.2-3.3,11.3,2.1,14.3c4.6,2.6,12.7-1.4,12.8-6.9C37.9,31.9,34.9,31.9,34.8,33.9L34.8,33.9z"/>
		</g>
	</g>
	<g>
		<g>
			<path class="st2" d="M24.4,29.8c1.2,0.8,2.4,1.7,3.8,2.1c1.5,0.4,3.1,0.2,4.6-0.2c1.9-0.5,1.1-3.4-0.8-2.9
				c-2.5,0.6-4.1-0.1-6.2-1.6C24.3,26.1,22.8,28.7,24.4,29.8L24.4,29.8z"/>
		</g>
	</g>
	<g>
		<g>
			<path class="st2" d="M30.1,30.3c2.4,0,4.3-1.3,6.1-2.8c0.6-0.5,0.5-1.6,0-2.1c-0.6-0.6-1.5-0.5-2.1,0c-1.2,1-2.4,1.9-3.9,1.9
				C28.2,27.3,28.2,30.3,30.1,30.3L30.1,30.3z"/>
		</g>
	</g>
	<g>
		<g>
			<path class="st2" d="M35.3,26c-1.1,1.3-1.5,2.7-2.1,4.2c-0.8,1.9-1.9,3.8-2.8,5.6c-0.9,1.7,1.7,3.2,2.6,1.5
				c0.8-1.6,1.7-3.1,2.5-4.7c0.7-1.4,1-3.3,2.1-4.5C38.7,26.6,36.6,24.5,35.3,26L35.3,26z"/>
		</g>
	</g>
	<g>
		<g>
			<path class="st2" d="M34.2,32.7c-2.5,0.6-4-1.2-6.2-2.2c-1.4-0.6-3.3-1.1-4.7-0.8c-0.7,0.2-1.1,0.8-1.1,1.4
				c-0.1,1.5,1.1,3.9,1.9,5.1c0.9,1.5,2.4,2.4,4.1,2.6c3.1,0.3,8.4-3.2,5.8-6.7c-1.3-1.7-2.9-1.1-4.6-0.7c-1.5,0.3-4-1-4.7,1
				c-0.6,1.6,0.9,2.5,2.1,3.2c0.8,0.4,1.7,1.2,2.7,1.3c1.1,0.1,2.2-0.4,3.4-0.3c1.9,0.1,1.9-2.9,0-3c-0.9,0-2,0.4-2.9,0.3
				c-0.8-0.1-2.3-1-2.8-1.6c0.1,0.4,0.3,0.7,0.4,1.1c0-0.1,0-0.2,0-0.3c-0.1,0.4-0.3,0.7-0.4,1.1c0.1-0.1,0.1-0.2,0.2-0.2
				c-0.4,0.1-0.7,0.3-1.1,0.4c1.1,0.1,2.1,0.4,3.2,0.3c0.2,0,1.5-0.4,1.5-0.3c0.7,0.4-0.7,1.2-1,1.3c-1.4,0.6-2.7,0.2-3.5-1.1
				c-0.3-0.6-1.3-2.7-1.3-3.3c-0.4,0.5-0.7,1-1.1,1.4c2.1-0.5,4.3,1.8,6.1,2.6c1.6,0.7,3.2,0.8,4.8,0.4C36.8,35.1,36,32.2,34.2,32.7
				L34.2,32.7z"/>
		</g>
	</g>
	<g>
		<g>
			<path class="st2" d="M51.4,29.3c0.7-0.1,1.4,0,2,0c0.8,0.1,1.7-0.2,1.8-1c0.2-0.7-0.2-1.7-1-1.8c-0.9-0.1-1.8-0.2-2.8-0.1
				c-0.8,0.1-1.5,0.6-1.5,1.5C49.9,28.5,50.6,29.3,51.4,29.3L51.4,29.3z"/>
		</g>
	</g>
	<g>
		<g>
			<path class="st2" d="M52.3,28.2c-0.4,4.3,2.1,6.8,6.2,7.6c4,0.8,7.8-1.8,8.5-5.9c-0.7,0.3-1.5,0.6-2.2,0.9
				c0.3,0.2,0.6,0.4,0.8,0.6c0.8,0.6,2,0,2.2-0.9c0.1-0.2,0.1-0.4,0.2-0.6c-1-0.1-2-0.3-2.9-0.4c0.1,1.4-0.6,2.9-1,4.2
				c-0.3,0.8-0.5,2.7-1.1,3.3c0.8,0.1,1.6,0.2,2.4,0.3c0,0,0-0.1,0-0.1c-0.2,0.7-0.4,1.4-0.5,2.1c0,0,0.1,0,0.1,0
				c1.8-0.8,0.2-3.4-1.5-2.6c0,0-0.1,0-0.1,0c-0.8,0.4-0.8,1.4-0.5,2.1c0,0,0,0.1,0,0.1c0.4,0.9,1.7,0.9,2.4,0.3
				c1-1.1,1.2-2.8,1.7-4.2c0.6-1.7,1.5-3.6,1.3-5.4c-0.2-1.6-2.4-2.1-2.9-0.4c-0.1,0.2-0.1,0.4-0.2,0.6c0.7-0.3,1.5-0.6,2.2-0.9
				c-0.3-0.2-0.6-0.4-0.8-0.6c-0.7-0.5-2.1,0-2.2,0.9c-0.4,2.8-2.8,4.4-5.5,3.6c-0.7-0.2-1.7-0.6-2.3-1c-1.3-0.9-1.1-2.1-1-3.5
				C55.5,26.3,52.5,26.3,52.3,28.2L52.3,28.2z"/>
		</g>
	</g>
	<g>
		<g>
			<path class="st2" d="M62.3,38.1c-0.9,3.5-5.1,6.3-8.2,3.5c-2.7-2.4-2.1-8.3-1.2-11.4c0.6-1.9-2.3-2.6-2.9-0.8
				c-1.5,5.1-1.5,13.3,4.3,15.8c4.7,2,9.7-1.7,10.9-6.3C65.7,37,62.8,36.2,62.3,38.1L62.3,38.1z"/>
		</g>
	</g>
	<g>
		<g>
			<path class="st2" d="M50,30.3c0.4,1.9,1.3,3.6,2.2,5.3c0.9,1.6,3.5,4.7,3.2,6.6c0.9-0.1,1.8-0.2,2.7-0.4
				c-0.6-0.8-1.2-1.2-1.9-1.8c-1.3-1-1.8-2.4-1.7-4.1c-0.2,0.4-0.5,0.9-0.7,1.3c0.6-0.4,3.9,0.4,4.5,0.5c1.7,0.1,3.5,0.2,5.2,0.1
				c-0.3-0.9-0.5-1.9-0.8-2.8c-1,0.5-1.8,1.3-2.5,2.2c-0.4,0.5-0.7,1.1-1.1,1.7c-0.3,0.4-1.1,1.2-0.9,1.1c0.5,0.1,1,0.3,1.5,0.4
				c-0.6-0.5-1-3-1.2-3.7c-0.7,0.6-1.5,1.1-2.2,1.7c0.8,0.4,1.6,0.9,2.5,1.3c1.7,0.9,3.2-1.7,1.5-2.6c-0.8-0.4-1.6-0.9-2.5-1.3
				c-1.1-0.6-2.6,0.4-2.2,1.7c0.5,1.6,1,5.9,3.5,5.5c2.4-0.4,3.1-4.2,5.2-5.3c1.3-0.7,0.7-2.8-0.8-2.8c-2.7,0.1-5.4,0-8.1-0.4
				c-1.3-0.2-2.9-0.6-3.7,0.8c-0.7,1.2-0.1,3.4,0.4,4.5c0.7,1.9,2.4,2.2,3.5,3.7c0.7,0.9,2.5,1,2.7-0.4c0.4-2.3-0.6-3.9-1.8-5.9
				c-1.4-2.4-3-4.8-3.6-7.5C52.5,27.6,49.6,28.4,50,30.3L50,30.3z"/>
		</g>
	</g>
	<g>
		<g>
			<path class="st2" d="M78.5,31.9c0.8-0.1,1.5,0,2.2,0.1c-0.3-0.3-0.7-0.7-1-1c0.5,2.7,2.9,6,5.8,6.5c1.9,0.3,2.7-2.6,0.8-2.9
				c-1.9-0.3-3.3-2.7-3.7-4.4c-0.1-0.5-0.6-1-1-1c-1-0.2-2-0.3-3-0.2C76.5,29,76.5,32,78.5,31.9L78.5,31.9z"/>
		</g>
	</g>
	<g>
		<g>
			<path class="st2" d="M85.7,37.1c3.8,0.3,7.3-1.8,8-5.6c-0.3,0.3-0.7,0.7-1,1c0.7-0.2,2.1-0.1,2.7,0.1c-0.3-0.3-0.7-0.7-1-1
				c0.4,1.4,0,3.4,0,4.8c0,1.9,3,1.9,3,0c0-1.3,0-2.7,0-4c0-0.8,0-1.6-0.5-2.2c-1-1-3.8-0.9-5-0.5c-0.5,0.1-1,0.5-1,1
				c-0.5,2.6-2.5,3.6-5.1,3.4C83.8,33.9,83.8,36.9,85.7,37.1L85.7,37.1z"/>
		</g>
	</g>
	<g>
		<g>
			<path class="st2" d="M94.1,36.5c0.2,4.7-4,10.9-9.2,8.2c-4.1-2.1-5.2-8-4.5-12.2c0.3-1.9-2.6-2.7-2.9-0.8c-1,6,1,15.1,8,16.4
				c6.8,1.3,11.9-5.2,11.6-11.6C97.1,34.6,94.1,34.6,94.1,36.5L94.1,36.5z"/>
		</g>
	</g>
	<g>
		<g>
			<path class="st2" d="M77.5,33.1c3.3,5,4.7,12.5,12,12.2c2.5-0.1,3.4-1.6,4.2-3.7c1-2.7,3.2-6.2,2.3-9.2c-0.2-0.7-0.8-1-1.4-1.1
				c-1.5-0.2-2.4,1.4-3.6,2.1c-2.3,1.3-4.8,2.2-7.4,2.5c-1.4,0.1-3.2-0.1-4.1,1.2c-0.9,1.2-0.4,3.5,0.2,4.7c1.2,2.7,5,6,8.1,5.2
				c4.1-1,4.8-7.1,5.3-10.5c0.2-1.3-0.9-2.3-2.2-1.7c-1.6,0.7-2.5,2-4.3,2.3c-1.3,0.2-2.7-0.1-4.1,0.2c-0.6,0.2-1.1,0.8-1.1,1.4
				c0,2.6,7,5.1,9,3.8c0.4-0.3,0.8-0.8,0.7-1.3c-0.2-1.6-1.6-2.4-3-3c-1.7-0.8-3.3,1.8-1.5,2.6c0.1,0.1,1.5,1,1.5,0.4
				c0.2-0.4,0.5-0.9,0.7-1.3c-0.4,0.2-4.5-2.1-4.5-1.2c-0.4,0.5-0.7,1-1.1,1.4c1.7-0.4,3.4,0.1,5.2-0.5c1.6-0.5,2.5-1.7,3.9-2.4
				c-0.7-0.6-1.5-1.1-2.2-1.7c-0.2,1.5-0.5,3-0.9,4.5c-0.4,1.6-1.3,3.9-3.5,3.7c-0.9-0.1-4.6-3.9-3.7-4.7c0.6-0.6,2.1-0.3,2.8-0.4
				c1.9-0.2,3.7-1,5.5-1.8c1-0.4,2-0.9,2.9-1.5c0.3-0.3,0.7-0.5,1-0.8c0.8-0.7,0.9-0.8,0.3-0.4c-0.5-0.4-1-0.7-1.4-1.1
				c0.6,1.8-1.2,4.5-1.8,6.1c-0.8,2.1-1.3,3.6-4,2.9c-2.3-0.7-3.1-3-4-4.9c-0.9-2-2-3.8-3.2-5.6C79,30,76.4,31.5,77.5,33.1
				L77.5,33.1z"/>
		</g>
	</g>
	<g>
		<g>
			<path class="st2" d="M106.9,31.7c-0.1,1.5-0.1,2.9,0.1,4.4c0,0.4,0.7,3.3,0.8,3.2c-0.5,0.6-0.6,1.5,0,2.1
				c1.8,1.9,2.6,4.2,5.3,5.1c1.8,0.6,2.6-2.3,0.8-2.9c-1.8-0.6-2.7-3-4-4.4c0,0.7,0,1.4,0,2.1c0.8-1,0.7-1.6,0.5-2.9
				c-0.4-2.3-0.7-4.4-0.5-6.8C110,29.8,107,29.8,106.9,31.7L106.9,31.7z"/>
		</g>
	</g>
	<g>
		<g>
			<path class="st2" d="M113,46.4c2,0.6,4.5,1.3,6.6,0.9c1.9-0.4,2.8-1.9,3.9-3.3c2.7-3.6,3.6-8.5,3.4-13c-0.1-1.9-3.1-1.9-3,0
				c0.1,3-0.3,7.2-1.8,9.9c-0.5,0.9-1.5,2.5-2.3,3c-1.6,1.1-4.4,0.1-6-0.4C111.9,42.9,111.1,45.8,113,46.4L113,46.4z"/>
		</g>
	</g>
	<g>
		<g>
			<path class="st2" d="M121.8,41.6c-0.1,1.3-0.6,2.5-1.5,3.4c-1.3,1.4,0.8,3.6,2.1,2.1c1.4-1.6,2.2-3.4,2.3-5.5
				C124.9,39.7,121.9,39.7,121.8,41.6L121.8,41.6z"/>
		</g>
	</g>
	<g>
		<g>
			<path class="st2" d="M124.1,29.3c-0.9,0-1.8-0.1-2.7,0.1c-0.9,0.2-1.2,0.8-1.3,1.7c-0.1,0.7-0.4,1.1-0.8,1.7
				c-0.4,0.7-0.6,1.4-0.6,2.2c-0.1,0.8,0.7,1.5,1.5,1.5c0.9,0,1.4-0.7,1.5-1.5c0.1-0.7,0.5-1.1,0.8-1.7c0.4-0.7,0.5-1.5,0.6-2.3
				c-0.1,0.3-0.1,0.5-0.2,0.8c0,0,0-0.1,0.1-0.1c-0.3,0.2-0.6,0.5-0.9,0.7c0.6-0.1,1.5,0,2.1,0C126,32.3,126,29.3,124.1,29.3
				L124.1,29.3z"/>
		</g>
	</g>
	<g>
		<g>
			<path class="st2" d="M119.1,33.7c-0.9,0.7-1.4,1.3-2.5,1.6c-0.8,0.3-2.4,1.1-2.9,0.1c-0.6,0.7-1.1,1.5-1.7,2.2
				c0.8,0.2,1.4,0.4,2.1,0.9c0.1-0.9,0.2-1.8,0.4-2.7c-0.5,0.1-1.7-1.3-2.1-1.6c-1.6-1.1-3.1,1.5-1.5,2.6c1.5,1.1,2.3,2.4,4.4,1.9
				c1.3-0.3,1.4-2.1,0.4-2.7c-0.9-0.6-1.8-0.9-2.8-1.2c-1.3-0.3-2.3,1-1.7,2.2c1,1.8,2.8,2.3,4.8,1.8c1-0.3,2-0.6,2.9-1
				c1-0.4,1.6-1.2,2.4-1.9C122.7,34.6,120.5,32.5,119.1,33.7L119.1,33.7z"/>
		</g>
	</g>
	<g>
		<g>
			<path class="st2" d="M113,35c-0.2-0.7-0.3-1.5-0.6-2.1c-0.3-0.6-0.6-0.9-0.7-1.6c-0.1-0.8-1.1-1.2-1.8-1c-0.9,0.2-1.2,1-1,1.8
				c0.1,0.7,0.4,1.4,0.8,2c0.3,0.5,0.4,1.1,0.5,1.7c0.2,0.8,1.1,1.3,1.8,1C112.8,36.6,113.2,35.8,113,35L113,35z"/>
		</g>
	</g>
	<g>
		<g>
			<path class="st2" d="M109,36.4c0.3,3.7,2.4,8,6.2,9.2c3.9,1.2,8.3-4.6,9.6-7.7c0.7-1.8,3-8.1-1.4-7.3c-3.1,0.6-6.4,14.4-9.7,7.9
				c-0.3,0.7-0.6,1.5-0.9,2.2c0.5-0.1,1.5,0.5,2,0.6c0.7,0.2,1.5,0.2,2.2,0.1c1-0.2,2-0.7,2.5-1.6c0.9-1.9-0.4-3.7-2.4-3.7
				c-1.9,0.1-1.9,3.1,0,3c-0.8-0.6-1.7-1-2.7-1.1c-0.2-0.1-0.4-0.2-0.7-0.2c-0.7-0.1-1-0.1-1.7,0c-1,0.2-1.3,1.4-0.9,2.2
				c1.2,2.3,3,4.4,5.7,3.3c2.6-1,4.2-3.9,5.4-6.2c0.4-0.7,1-1.5,1.2-2.3c0.7-0.7,0.6-1.2-0.3-1.6c-0.1,0.3-0.2,0.6-0.2,0.9
				c-1.1,1.9-1.2,4-2.8,5.7c-1.7,1.8-3.5,3.7-5.7,1.6c-1.4-1.4-2.2-3.2-2.4-5.1C111.8,34.5,108.8,34.5,109,36.4L109,36.4z"/>
		</g>
	</g>
	<g>
		<g>
			<path class="st2" d="M137.2,29.5c0.3,3,1.2,5.8,4.3,6.9c1.2,0.4,2.4-1.1,1.7-2.2c-0.4-0.6-0.8-1.1-1.3-1.7
				c-0.6,0.8-1.2,1.6-1.8,2.4c2.3,1.6,4.4,1.7,6.7,0c2.3-1.6,2.3-4,2.8-6.5c0.3-1.9-2.6-2.7-2.9-0.8c-0.2,1.3-0.2,3.2-0.9,4.2
				c-1,1.7-2.7,1.5-4.1,0.5c-1.4-1-3,1.2-1.8,2.4c0.3,0.3,0.6,0.6,0.8,1c0.6-0.7,1.1-1.5,1.7-2.2c-1.6-0.6-1.9-2.5-2.1-4
				C140,27.6,137,27.6,137.2,29.5L137.2,29.5z"/>
		</g>
	</g>
	<g>
		<g>
			<path class="st2" d="M147.8,29.4c1.5-0.2,2.8-0.5,4.2-1.1c-0.6-0.5-1.3-1-1.9-1.4c0.2,2-0.2,4.2-0.3,6.2c0,1.8-0.7,6.6-2.5,7.5
				c-2.5,1.4-5.2-1.1-6.3-3c-1.4-2.3-2.1-5.1-2.4-7.8c-0.2-1.9-3.2-1.9-3,0c0.6,6.1,3.3,14.3,10.6,13.9c1.2-0.1,2.8,0.1,3.7-0.7
				c1.1-0.9,1.3-3,1.7-4.2c0.5-1.8,1.1-3.7,1.1-5.7c0-2.1,0.5-4.1,0.3-6.2c-0.1-0.9-0.9-1.9-1.9-1.4c-1.2,0.5-2.2,0.8-3.4,1
				C146,26.7,145.9,29.7,147.8,29.4L147.8,29.4z"/>
		</g>
	</g>
	<g>
		<g>
			<path class="st2" d="M138.8,34.2c0.4,1.9,1.2,4.4,2.8,5.7c1.1,0.9,3.7,2.3,5.2,2c1.5-0.3,2.9-2.4,3.4-3.8
				c0.4-1.1,0.3-2.2,0.4-3.4c0-1.8,0.2-3.5,0.6-5.3c0.4-1.9-2.2-2.6-2.9-0.8c-0.6,1.4-1.1,2.8-1.7,4.3c-0.3,0.6-0.5,1.3-0.8,1.9
				c-0.1,0.3-1,2.8-0.7,2.7c1.8-0.6,1-3.5-0.8-2.9c-3.2,1.1-2.5,5.6,1,4.9c1.5-0.3,2.4-1.5,3-2.9c1-2.4,1.9-4.8,2.8-7.2
				c-1-0.3-1.9-0.5-2.9-0.8c-0.3,1.4-0.5,2.9-0.6,4.3c-0.1,1.6,0.2,3.4-0.6,4.8c-0.4,0.8-0.6,0.9-1.3,0.9c-0.5,0-1.4-0.5-1.8-0.8
				c-1.4-0.9-1.9-2.9-2.2-4.5C141.2,31.5,138.3,32.3,138.8,34.2L138.8,34.2z"/>
		</g>
	</g>
	<g>
		<g>
			<path class="st2" d="M161.6,25.6c2.1,2.6,3.3,5.8,6,8c1.5,1.2,3.6-0.9,2.1-2.1c-2.6-2.1-3.8-5.4-6-8
				C162.5,22,160.3,24.1,161.6,25.6L161.6,25.6z"/>
		</g>
	</g>
	<g>
		<g>
			<path class="st2" d="M162.5,28c0.6,2.8,3.8,5.2,6,6.8c1.9,1.4,5.5,2.4,7.8,1.2c2.7-1.4,3.5-5.9,3.9-8.5c0.6-3.9-0.2-5.7-2.2-9
				c-0.4-0.6-1.4-1-2.1-0.5c-0.9,0.7-2.1,0.7-3,1.2c-0.4,0.3-0.8,0.8-0.7,1.3c0,0.1,0,0.2,0,0.4c0,0.7,0.5,1.3,1.1,1.4
				c0.1,0,0.2,0.1,0.3,0.1c1.9,0.5,2.7-2.4,0.8-2.9c-0.1,0-0.2-0.1-0.3-0.1c0.4,0.5,0.7,1,1.1,1.4c0-0.1,0-0.2,0-0.4
				c-0.2,0.4-0.5,0.9-0.7,1.3c0.9-0.5,2-0.5,3-1.2c-0.7-0.2-1.4-0.4-2.1-0.5c1.3,2.1,2.3,3.6,2,6.1c-0.2,1.9-0.5,5.2-2,6.5
				c-2.7,2.5-9.5-2.5-10.1-5.5C165,25.3,162.1,26.1,162.5,28L162.5,28z"/>
		</g>
	</g>
	<g>
		<g>
			<path class="st2" d="M172.7,21.1c0,1.1-0.2,2.4,0.1,3.4c0.1,0.2,0.2,0.4,0.3,0.6c0.2,0.5,0.3,0.3,0.1-0.5c-0.1,0-0.9,1.1-0.9,1.2
				c-1.2,1.5,0.9,3.6,2.1,2.1c0.7-0.9,2-2,1.7-3.3c-0.1-0.3-0.2-0.5-0.3-0.8c-0.2-0.4-0.1,0.1-0.1-0.3c-0.1-0.8,0-1.6,0-2.4
				C175.7,19.1,172.7,19.1,172.7,21.1L172.7,21.1z"/>
		</g>
	</g>
	<g>
		<g>
			<path class="st2" d="M162.1,25.5c1.3,1.2,2.7,2.6,4.4,3.2c1.9,0.7,4.1,0.6,6,0.9c1.9,0.2,1.9-2.8,0-3c-1.6-0.2-3.4-0.1-4.8-0.6
				c-1.3-0.5-2.5-1.6-3.5-2.5C162.8,22.1,160.7,24.2,162.1,25.5L162.1,25.5z"/>
		</g>
	</g>
	<g>
		<g>
			<path class="st2" d="M166.8,29.9c1.7,1.7,3.7,3.7,6.3,3.9c2.2,0.2,3.6-1.3,4.7-3.1c0.6-1.1,0.6-2.6,0.8-3.8
				c0.2-1.6,0.6-3.4,0.5-5c-0.2-2.4-2.4-2.2-4.2-1.7c-0.8,0.3-1.2,1-1,1.8c0.2,1.2,0.5,2.4,0.7,3.6c0.3,1.9-0.4,2.9-2.3,3.1
				c0.4,0.9,0.7,1.7,1.1,2.6c0.6-0.6,1.1-1.3,1.7-1.9c1.3-1.4-0.8-3.5-2.1-2.1c-0.6,0.6-1.2,1.2-1.7,1.9c-0.8,0.9-0.3,2.7,1.1,2.6
				c2.1-0.2,4.4-0.7,5.2-2.9c0.8-2.3-0.2-5.2-0.7-7.5c-0.3,0.6-0.7,1.2-1,1.8c0.3-0.1,0.6-0.2,1-0.2c0.7-0.1,0.5-0.1-0.7-0.2
				c-0.1,0.1-0.2,2.3-0.2,2.5c-0.1,1.3-0.1,3.1-0.8,4.2c-0.7,1.1-1.3,1.7-2.7,1.1c-1.3-0.6-2.3-1.7-3.3-2.7
				C167.6,26.4,165.5,28.5,166.8,29.9L166.8,29.9z"/>
		</g>
	</g>
</g>
<g id="Layer_1">
	<path class="st3" d="M195.4,16.2c-2.3-0.9-4.8-1.5-7.2-1.9c1.8-0.4,3.4-1.1,4.9-2.2c1.2-0.9,3.7-3.1,2.1-4.7
		c-1.3-1.3-3.6-0.4-4.9,0.3c-1.8,0.9-3.1,2.4-3.9,4.2c0-1.6-0.6-3.3-1.4-4.6c-0.7-1.1-2.4-3-3.8-1.9c-1.3,1-0.8,3.3-0.1,4.5
		c0.8,1.6,2.2,2.8,3.7,3.8C156.8,26.1,128.2,30.3,97.8,29c-14.7-0.6-29.6-0.7-44.3-2.7c-14.3-1.9-28-5.8-41.3-11.1
		c0-1.8-0.2-3.6-0.5-5.4c-0.2-1.1-0.4-3.5-2-3.5C6.9,6.4,8.5,10.6,9.7,13c-2.6-2.1-6.9-5.2-7.6-1.7c-0.3,1.5,0.7,2.6,2,3.1
		c1.2,0.5,2.5,0.6,3.8,0.8c0.8,0.1,1.6,0.3,2.4,0.3c0,0-0.1,0.1-0.1,0.1c-0.4,0.7-0.9,1.3-1.5,1.8c-0.6,0.6-1.3,0.9-1.9,1.4
		c-0.4,0.3-0.2,1.1,0.4,0.9c1.6-0.6,2.9-2.3,3.7-3.8c0,0,0-0.1,0-0.1c0,1,0,2.1,0,3.1c0,0.8,1.1,0.7,1.2,0c0.1-0.9,0.2-1.9,0.2-2.8
		c3.2,1.4,6.4,2.6,9.6,3.7c-3.6,7.2-5.9,19.7,4.6,22.3c10.3,2.6,13.7-9.4,14.6-17.1c0,0,0,0,0-0.1c2.9,0.6,5.9,1.1,8.8,1.6
		c-2.4,6.6-3.4,18.3,5.7,19.5c9.7,1.3,13-10,13.7-17.3c2.4,0.2,4.9,0.4,7.3,0.5c-1.1,7.7,0.1,19.3,10.2,19.6
		c9.7,0.2,12.4-10.9,11.2-18.5c0,0,0,0,0-0.1c0.3,0,0.7,0,1,0c2.6,0.1,5.2,0.2,7.8,0.2c-1.6,7.1,2.2,17.8,10.8,18.1
		c9.4,0.2,10.3-11.3,9.8-18c0-0.3-0.2-0.5-0.4-0.6c2.7-0.2,5.4-0.5,8.1-0.8c-1.1,6.4,3.4,14.8,10.4,15.7c9.4,1.2,9.1-13.2,8.6-19
		c0,0,0,0,0,0c2.1-0.5,4.2-1,6.2-1.6c2.1,6.2,9.3,17,16.8,12.6c3.2-1.9,4.6-5.9,4.6-9.5c0-2.6-0.4-7.8-3-9.4c2.4-1,4.7-2,7.1-3.2
		c0,0,0,0,0,0c1.1,1.6,2.2,3.1,3.5,4.6c0.4,0.5,1.2-0.1,0.9-0.7c-0.8-1.3-1.7-2.6-2.7-3.9c2.7,0.6,5.3,1.5,8,2.1
		C195.7,17.1,195.9,16.4,195.4,16.2z M7.6,14c-1.2-0.2-3.7-0.4-4.2-1.8c-0.4-1.4,1-1.4,1.8-1c0.7,0.4,1.4,0.9,2.1,1.3
		c0.9,0.6,1.7,1.2,2.6,1.9C9.1,14.3,8.3,14.2,7.6,14z M9.5,10.6C9.3,9.9,9,9.1,9.7,8.7c0.8-0.5,0.7,0.7,0.8,1.5
		c0.2,1.2,0.3,2.3,0.3,3.5C10.2,12.7,9.7,11.7,9.5,10.6z M27.4,21.8c2.1,0.6,4.2,1.2,6.4,1.7c-0.8,1.7-2.1,3.3-4.3,2.7
		C27.6,25.7,27,23.5,27.4,21.8z M39.4,25.2c-0.9,6.8-3.9,18.8-13.6,15.1c-8.5-3.3-5.3-13.7-3-20c1.3,0.4,2.6,0.8,3.9,1.2
		c-1,2.1,0.2,4.9,2.4,5.6c2.2,0.8,5.6-0.9,5.5-3.4c1.6,0.4,3.3,0.8,4.9,1.1C39.5,25,39.4,25.1,39.4,25.2z M63.5,28.4
		c-0.2,2.2-2.2,4.3-4.6,3.8c-2.2-0.5-3.3-2.6-3.2-4.7C58.2,27.9,60.8,28.2,63.5,28.4z M67.6,28.9c-0.6,6.3-2.9,16.1-11.1,15.9
		c-9.2-0.3-6.5-12-5.6-17.9c1.3,0.2,2.6,0.4,4,0.5c-0.7,2.7,1.5,5.7,4.3,6c2.8,0.3,5.2-2.2,5.4-4.9c1,0.1,2.1,0.2,3.1,0.3
		C67.6,28.8,67.6,28.9,67.6,28.9z M90.4,30.1c-0.2,2.3-2.2,4.6-4.7,3.6c-1.7-0.6-2.5-2.3-2.4-4C85.6,29.9,88,30,90.4,30.1z
		 M85.6,47.3C77,46,77.5,36.2,77.5,29.5c1.6,0.1,3.2,0.2,4.8,0.3c-0.4,2.2,1.1,4.6,3.4,5.2c2.8,0.8,6-1.8,5.8-4.8
		c1.7,0.1,3.4,0.2,5.1,0.2c-0.1,0.1-0.1,0.3-0.1,0.5C97.4,37.8,94.8,48.7,85.6,47.3z M119.4,30.5c0.2,2.2-1.3,4.5-3.6,4.5
		c-2.4,0-3.8-2.2-3.9-4.3C114.4,30.7,116.9,30.6,119.4,30.5z M118,47.2c-8.4,0.4-10.7-10.2-10.5-16.5c1.3,0,2.5,0,3.8,0
		c-0.4,2.7,2,5.4,4.8,5.4c2.9,0,5-2.9,4.7-5.6c1.7-0.1,3.5-0.2,5.2-0.3c-0.1,0.1-0.2,0.3-0.2,0.6C125.9,36.5,126,46.8,118,47.2z
		 M145.6,27.7c0.2,1.7,0.3,4.6-2,4.6c-1.9,0-3-2-3.2-3.7C142.1,28.3,143.9,28,145.6,27.7z M144.5,43.1c-6-1.7-8.5-8.3-8.6-13.9
		c0,0,0-0.1,0-0.1c1.3-0.2,2.5-0.3,3.8-0.5c0,2.3,1.8,5,4.4,4.7c2.9-0.3,3.1-3.6,2.8-5.9c1.9-0.4,3.8-0.7,5.6-1.2
		C152.6,31.6,153.2,45.6,144.5,43.1z M171.7,21.8c0.9,0.6,1,1.7,0.6,2.6c-0.5,1.1-1.6,1.5-2.8,1.5c-2-0.1-3.3-1.6-4.6-3
		c2.3-0.7,4.6-1.5,6.8-2.3C171.4,20.8,171.2,21.5,171.7,21.8z M179.7,29.8c-0.9,4.3-4.1,7.7-8.8,5.8c-4.9-2-7.7-6.9-9.7-11.5
		c1-0.3,2-0.6,2.9-0.9c1.5,2.5,4.5,5,7.6,3.5c2.4-1.1,2.8-4.5,0.6-6c-0.2-0.1-0.3-0.1-0.4-0.1c1.7-0.6,3.3-1.2,5-1.9
		c0,0,0.1,0.1,0.1,0.1C179.8,20.4,180.3,27,179.7,29.8z M181.4,7.5c-0.1-0.7,0.2-1.1,1-1.2c0.4,0.3,0.7,0.6,1,0.9
		c0.4,0.4,0.7,1,1,1.5c0.7,1.4,0.7,2.7,0.8,4.2C183.4,11.5,181.4,9.8,181.4,7.5z M186.7,13.2c0.5-1.2,1.3-2.4,2.3-3.3
		c0.7-0.6,1.7-1.2,2.6-1.5c1.2-0.4,1.6-0.9,1.7,0.7c0.1,1.4-0.2,1.5-1.4,2.3c-0.6,0.4-1.1,0.7-1.8,0.9
		C189,12.9,187.9,13.1,186.7,13.2z"/>
	<g>
		<g>
			<path class="st4" d="M75.4,23.7c-0.1,0.9-0.4,1.5-1,1.9c-0.5,0.4-1.2,0.6-2.1,0.5c-0.9-0.1-1.6-0.5-2-1.1
				c-0.4-0.6-0.6-1.5-0.4-2.6c0.1-0.5,0.1-0.8,0.1-1.3c0.1-1.1,0.5-1.9,1-2.4c0.5-0.5,1.3-0.7,2.1-0.7c0.9,0.1,1.5,0.4,1.9,0.9
				c0.4,0.5,0.6,1.2,0.6,2.1c-0.6-0.1-1-0.1-1.6-0.2c0-0.6,0-0.9-0.1-1.2c-0.1-0.2-0.4-0.4-0.8-0.4c-0.4,0-0.7,0.1-0.9,0.3
				c-0.2,0.3-0.4,0.7-0.4,1.4c-0.1,0.6-0.1,0.9-0.2,1.5c-0.1,0.8,0,1.3,0.1,1.6c0.1,0.3,0.4,0.5,0.9,0.5c0.4,0,0.7,0,0.9-0.2
				c0.2-0.2,0.3-0.5,0.4-1.1C74.5,23.7,74.8,23.7,75.4,23.7z"/>
			<path class="st4" d="M80.1,25.1c-0.9-0.1-1.3-0.1-2.2-0.2c-0.2,0.6-0.3,0.9-0.6,1.6c-0.7-0.1-1-0.1-1.7-0.1
				c1.3-3,1.9-4.5,3.1-7.6c0.6,0,0.9,0.1,1.4,0.1c0.7,3.2,1.1,4.8,1.9,8c-0.7,0-1-0.1-1.7-0.1C80.3,26.1,80.3,25.8,80.1,25.1z
				 M78.4,23.7c0.6,0,0.9,0.1,1.5,0.1c-0.2-1.1-0.3-1.7-0.5-2.8C79,22.1,78.8,22.6,78.4,23.7z"/>
			<path class="st4" d="M86.4,25.1c0-0.3-0.1-0.6-0.2-0.7c-0.2-0.2-0.4-0.4-0.9-0.6c-0.8-0.3-1.3-0.7-1.7-1.1
				c-0.3-0.4-0.5-0.9-0.4-1.4c0-0.7,0.3-1.2,0.8-1.5c0.5-0.4,1.1-0.5,1.8-0.5c0.5,0,0.9,0.2,1.3,0.4c0.4,0.2,0.6,0.5,0.8,0.9
				c0.2,0.4,0.3,0.8,0.2,1.3c-0.6,0-1,0-1.6-0.1c0-0.4,0-0.6-0.2-0.8c-0.1-0.2-0.4-0.3-0.7-0.3c-0.3,0-0.5,0.1-0.7,0.2
				c-0.2,0.2-0.3,0.4-0.3,0.6c0,0.2,0.1,0.4,0.2,0.6c0.2,0.2,0.5,0.4,0.9,0.6c0.8,0.3,1.3,0.7,1.6,1.1c0.3,0.4,0.5,0.9,0.5,1.6
				c0,0.7-0.3,1.2-0.7,1.6s-1.1,0.5-1.8,0.5c-0.5,0-1-0.2-1.4-0.4s-0.7-0.6-0.9-1c-0.2-0.4-0.3-0.9-0.3-1.4c0.6,0,1,0.1,1.6,0.1
				c0,0.5,0,0.8,0.2,1c0.2,0.2,0.5,0.3,0.9,0.4C86.1,26,86.4,25.7,86.4,25.1z"/>
			<path class="st4" d="M93.3,24.1c-1,0-1.5,0-2.5-0.1c0,0.8,0,1.2-0.1,2.1c1.2,0,1.8,0.1,3,0.1c0,0.5,0,0.8,0,1.3
				c-1.8-0.1-2.8-0.1-4.6-0.2c0.1-3.1,0.2-4.7,0.4-7.8c1.8,0.1,2.7,0.1,4.5,0.2c0,0.5,0,0.8,0,1.3c-1.2,0-1.8-0.1-2.9-0.1
				c0,0.7,0,1.1-0.1,1.8c1,0,1.5,0.1,2.5,0.1C93.3,23.3,93.3,23.6,93.3,24.1z"/>
			<path class="st4" d="M100.6,25.5c0-0.3-0.1-0.6-0.2-0.7c-0.2-0.2-0.5-0.3-0.9-0.5c-0.8-0.3-1.4-0.7-1.7-1.1
				c-0.3-0.4-0.5-0.9-0.5-1.4c0-0.7,0.3-1.2,0.7-1.6c0.5-0.4,1.1-0.6,1.8-0.6c0.5,0,0.9,0.1,1.3,0.3c0.4,0.2,0.7,0.5,0.9,0.9
				c0.2,0.4,0.3,0.8,0.3,1.3c-0.6,0-1,0-1.6,0c0-0.4-0.1-0.6-0.2-0.8c-0.2-0.2-0.4-0.3-0.7-0.3c-0.3,0-0.5,0.1-0.7,0.2
				c-0.2,0.2-0.2,0.4-0.2,0.7c0,0.2,0.1,0.4,0.3,0.6c0.2,0.2,0.5,0.4,0.9,0.5c0.8,0.3,1.3,0.6,1.7,1c0.3,0.4,0.5,0.9,0.5,1.5
				c0,0.7-0.2,1.2-0.7,1.6s-1.1,0.6-1.8,0.6c-0.5,0-1-0.1-1.4-0.3c-0.4-0.2-0.8-0.5-1-0.9c-0.2-0.4-0.3-0.8-0.3-1.4c0.6,0,1,0,1.6,0
				c0,0.5,0.1,0.8,0.3,1c0.2,0.2,0.5,0.3,0.9,0.3C100.3,26.4,100.6,26.1,100.6,25.5z"/>
			<path class="st4" d="M108.4,21c-0.8,0-1.2,0-1.9,0c0,2.6,0,3.9,0.1,6.5c-0.7,0-1,0-1.6,0c0-2.6,0-3.9,0-6.5c-0.8,0-1.1,0-1.9,0
				c0-0.5,0-0.8,0-1.3c2.2,0,3.3,0,5.4-0.1C108.4,20.2,108.4,20.5,108.4,21z"/>
			<path class="st4" d="M114.4,19.5c0.1,2.2,0.1,3.2,0.2,5.4c0,0.8-0.2,1.4-0.6,1.9c-0.4,0.4-1.1,0.7-1.9,0.7c-0.9,0-1.5-0.2-2-0.6
				c-0.5-0.4-0.7-1.1-0.7-1.9c0-2.2-0.1-3.2-0.1-5.4c0.6,0,1,0,1.6,0c0.1,2.2,0.1,3.2,0.1,5.4c0,0.4,0.1,0.8,0.2,0.9
				c0.2,0.2,0.4,0.3,0.8,0.3c0.4,0,0.6-0.1,0.8-0.3c0.1-0.2,0.2-0.5,0.2-0.9c-0.1-2.2-0.1-3.2-0.2-5.4
				C113.4,19.6,113.7,19.6,114.4,19.5z"/>
			<path class="st4" d="M115.9,27.3c-0.1-3.1-0.2-4.7-0.3-7.8c0.8,0,1.2-0.1,2.1-0.1c0.9,0,1.7,0.2,2.2,0.7c0.6,0.5,0.9,1.3,1,2.3
				c0,0.5,0,0.8,0.1,1.3c0.1,1-0.2,1.8-0.7,2.5c-0.5,0.6-1.3,1-2.3,1C117.1,27.3,116.7,27.3,115.9,27.3z M117.2,20.7
				c0.1,2.1,0.2,3.1,0.3,5.2c0.2,0,0.3,0,0.5,0c0.5,0,0.9-0.2,1.1-0.5c0.2-0.3,0.3-0.8,0.3-1.5c0-0.5,0-0.8-0.1-1.4
				c0-0.7-0.2-1.2-0.4-1.5c-0.2-0.3-0.6-0.4-1.1-0.4C117.5,20.7,117.4,20.7,117.2,20.7z"/>
			<path class="st4" d="M124,26.9c-0.6,0-1,0.1-1.6,0.1c-0.2-3.1-0.3-4.7-0.5-7.8c0.6,0,0.9-0.1,1.6-0.1
				C123.6,22.2,123.8,23.7,124,26.9z"/>
			<path class="st4" d="M129.2,23c-1,0.1-1.5,0.1-2.5,0.2c0.1,0.8,0.1,1.2,0.2,2.1c1.2-0.1,1.8-0.1,3-0.3c0,0.5,0.1,0.8,0.1,1.3
				c-1.8,0.2-2.8,0.2-4.6,0.4c-0.2-3.1-0.4-4.7-0.6-7.8c1.8-0.1,2.7-0.2,4.5-0.4c0,0.5,0.1,0.8,0.1,1.3c-1.2,0.1-1.7,0.2-2.9,0.2
				c0.1,0.7,0.1,1.1,0.1,1.8c1-0.1,1.5-0.1,2.5-0.2C129.1,22.3,129.1,22.5,129.2,23z"/>
			<path class="st4" d="M134,23.9c0-0.3-0.1-0.5-0.3-0.7c-0.2-0.1-0.5-0.3-1-0.4c-0.8-0.2-1.4-0.5-1.8-0.9c-0.4-0.4-0.6-0.8-0.7-1.4
				c-0.1-0.7,0.1-1.2,0.6-1.6c0.4-0.4,1-0.7,1.7-0.8c0.5,0,0.9,0,1.3,0.2c0.4,0.2,0.7,0.4,1,0.8c0.2,0.3,0.4,0.7,0.4,1.2
				c-0.6,0.1-0.9,0.1-1.6,0.2c0-0.4-0.1-0.6-0.3-0.8c-0.2-0.2-0.4-0.2-0.7-0.2c-0.3,0-0.5,0.1-0.6,0.3c-0.1,0.2-0.2,0.4-0.2,0.7
				c0,0.2,0.1,0.4,0.3,0.6c0.2,0.2,0.5,0.3,1,0.4c0.8,0.2,1.4,0.5,1.8,0.8c0.4,0.4,0.6,0.8,0.7,1.5c0.1,0.7-0.1,1.2-0.5,1.7
				c-0.4,0.4-1,0.7-1.7,0.8c-0.5,0.1-1,0-1.4-0.2c-0.4-0.2-0.8-0.4-1.1-0.8c-0.3-0.4-0.4-0.8-0.5-1.3c0.6-0.1,1-0.1,1.6-0.2
				c0,0.4,0.2,0.8,0.4,1s0.5,0.3,0.9,0.2C133.9,24.8,134.1,24.5,134,23.9z"/>
		</g>
	</g>
</g>
</svg>
