<?xml version="1.0" encoding="utf-8"?>
<!-- Generator: Adobe Illustrator 22.1.0, SVG Export Plug-In . SVG Version: 6.00 Build 0)  -->
<svg version="1.1" id="Layer_1" xmlns="http://www.w3.org/2000/svg" xmlns:xlink="http://www.w3.org/1999/xlink" x="0px" y="0px"
	 viewBox="0 0 448 452" style="enable-background:new 0 0 448 452;" xml:space="preserve">
<style type="text/css">
	.st0{fill:#F38C3E;}
</style>
<path class="st0" d="M416,1H31.9C14.3,1,0,15.5,0,33.3v383.4C0,434.5,14.3,449,31.9,449H416c17.6,0,32-14.5,32-32.3V33.3
	C448,15.5,433.6,1,416,1z M135.4,385H69V171.2h66.5V385H135.4z M102.2,142c-21.3,0-38.5-17.3-38.5-38.5S80.9,65,102.2,65
	c21.2,0,38.5,17.3,38.5,38.5C140.7,124.8,123.5,142,102.2,142z M384.3,385h-66.4V281c0-24.8-0.5-56.7-34.5-56.7
	c-34.6,0-39.9,27-39.9,54.9V385h-66.4V171.2h63.7v29.2h0.9c8.9-16.8,30.6-34.5,62.9-34.5c67.2,0,79.7,44.3,79.7,101.9V385z"/>
</svg>
