<?xml version="1.0" encoding="utf-8"?>
<!-- Generator: Adobe Illustrator 22.1.0, SVG Export Plug-In . SVG Version: 6.00 Build 0)  -->
<svg version="1.1" id="Layer_1" xmlns="http://www.w3.org/2000/svg" xmlns:xlink="http://www.w3.org/1999/xlink" x="0px" y="0px"
	 viewBox="0 0 612 233.6" style="enable-background:new 0 0 612 233.6;" xml:space="preserve">
<style type="text/css">
	.st0{enable-background:new    ;}
	.st1{fill:#E14658;}
	.st2{fill:#1399AA;}
	.st3{fill:#EBEDF3;}
</style>
<image style="display:none;overflow:visible;enable-background:new    ;" width="996" height="180" xlink:href="logo.png"  transform="matrix(1 0 0 1 -360.7043 101.7553)">
</image>
<g class="st0">
	<path class="st1" d="M8.6,85.4V4H45v12.2H21.8v21.6h21.5v11.3H21.8v24h24.4v12.3H8.6z"/>
	<path class="st1" d="M58.1,85.4V4h13.9v68.7h22.4v12.8H58.1z"/>
	<path class="st1" d="M102.9,85.4V4h36.5v12.2h-23.2v21.6h21.5v11.3h-21.5v24h24.4v12.3H102.9z"/>
	<path class="st1" d="M187.7,85.4l-4-17.2h-21.4l-4.1,17.2h-13.8L164.6,4h17.6l19.9,81.4H187.7z M173.4,17h-0.5l-8.9,40.4H182
		L173.4,17z"/>
	<path class="st1" d="M245.7,85.4l-23.1-57.5h-0.3l0.2,57.5h-12.4V4h15.8l22.9,57.8h0.3L248.9,4h12v81.4H245.7z"/>
	<path class="st1" d="M332,44.6c0,6.4-0.7,12.3-2,17.5c-1.3,5.3-3.3,9.8-5.8,13.5c-2.5,3.8-5.6,6.7-9.3,8.7
		c-3.6,2.1-7.7,3.1-12.2,3.1c-4.6,0-8.7-1-12.3-3.1c-3.6-2.1-6.7-5-9.2-8.7c-2.5-3.8-4.5-8.3-5.8-13.5c-1.3-5.3-2-11.1-2-17.5
		c0-6.4,0.7-12.3,2-17.5c1.3-5.2,3.2-9.7,5.8-13.5c2.5-3.8,5.6-6.7,9.3-8.7c3.6-2,7.8-3,12.4-3c4.5,0,8.6,1,12.2,3
		c3.6,2,6.7,4.9,9.3,8.7c2.5,3.8,4.5,8.2,5.8,13.5C331.3,32.3,332,38.2,332,44.6z M317.7,44.6c0-4.1-0.3-8-1-11.7
		c-0.7-3.6-1.6-6.8-2.9-9.4c-1.3-2.6-2.8-4.7-4.7-6.3c-1.9-1.5-4-2.3-6.5-2.3c-2.5,0-4.7,0.8-6.6,2.3c-1.9,1.5-3.5,3.6-4.7,6.3
		c-1.3,2.6-2.2,5.8-2.8,9.4c-0.6,3.6-0.9,7.5-0.9,11.7c0,4.1,0.3,8,0.9,11.7c0.6,3.6,1.6,6.8,2.8,9.5c1.3,2.7,2.8,4.8,4.7,6.3
		c1.9,1.5,4.1,2.3,6.6,2.3s4.7-0.8,6.6-2.3c1.9-1.5,3.5-3.6,4.7-6.3c1.3-2.7,2.2-5.8,2.8-9.5C317.4,52.6,317.7,48.7,317.7,44.6z"/>
	<path class="st1" d="M378,85.4l-12.6-34.7h-7.7v34.7h-13.3V4h23.2c3.4,0,6.5,0.4,9.3,1.3c2.8,0.9,5.3,2.3,7.3,4.2
		c2,1.9,3.6,4.3,4.8,7.2c1.1,2.9,1.7,6.4,1.7,10.5c0,3.1-0.4,5.9-1.2,8.3c-0.8,2.4-1.8,4.5-3,6.2c-1.2,1.7-2.6,3-4.1,4.1
		c-1.5,1-3,1.7-4.4,2.1l14.6,37.5H378z M377,27.9c0-2.5-0.3-4.5-1-6.1c-0.7-1.6-1.6-2.9-2.7-3.8c-1.1-0.9-2.4-1.6-3.7-2
		c-1.4-0.4-2.8-0.6-4.1-0.6h-7.8v25.1h7.8c3.4,0,6.2-1.1,8.3-3.2C375.9,35.3,377,32.1,377,27.9z"/>
</g>
<g class="st0">
	<path class="st2" d="M35.5,187.7v29.5c0,4.4-1.3,7.8-3.7,10.2s-5.8,3.5-10.3,3.5c-4.6,0-8.1-1.2-10.5-3.6
		c-2.4-2.4-3.6-5.8-3.6-10.3v-29.3H16v29.4c0,2.4,0.4,4.2,1.2,5.2c0.8,1,2.2,1.6,4.2,1.6s3.5-0.5,4.2-1.5s1.2-2.7,1.2-5.1v-29.5
		H35.5z"/>
	<path class="st2" d="M55.4,202.4l5.7-14.6H71l-10,21.2l10.3,21.5h-10l-5.9-14.9l-5.8,14.9h-10l10.3-21.5l-10-21.2h9.9L55.4,202.4z"
		/>
	<path class="st2" d="M78.2,234h-6.1l12.8-46.3H91L78.2,234z"/>
	<path class="st2" d="M123.2,187.7v29.5c0,4.4-1.3,7.8-3.7,10.2s-5.8,3.5-10.3,3.5c-4.6,0-8.1-1.2-10.5-3.6
		c-2.4-2.4-3.6-5.8-3.6-10.3v-29.3h8.7v29.4c0,2.4,0.4,4.2,1.2,5.2s2.2,1.6,4.2,1.6s3.5-0.5,4.2-1.5s1.2-2.7,1.2-5.1v-29.5H123.2z"
		/>
	<path class="st2" d="M138.7,230.4h-8.6v-42.7h8.6V230.4z"/>
	<path class="st2" d="M159.8,230.4v-42.7h11.3c5,0,9,1.6,11.9,4.7s4.5,7.5,4.5,13v6.9c0,5.6-1.5,10-4.4,13.2s-7,4.8-12.2,4.8H159.8z
		 M168.4,194.9v28.3h2.6c2.9,0,4.9-0.8,6.1-2.3s1.8-4.1,1.8-7.8v-7.4c0-4-0.6-6.8-1.7-8.3c-1.1-1.6-3-2.4-5.7-2.5H168.4z"/>
	<path class="st2" d="M215.7,211.9h-13.4v11.3h15.9v7.1h-24.5v-42.7h24.4v7.2h-15.8V205h13.4V211.9z"/>
	<path class="st2" d="M241.1,219.2c0-1.7-0.4-3.1-1.3-3.9s-2.5-1.8-4.8-2.8c-4.3-1.6-7.4-3.5-9.2-5.7s-2.8-4.8-2.8-7.7
		c0-3.6,1.3-6.5,3.8-8.7c2.5-2.2,5.8-3.3,9.7-3.3c2.6,0,5,0.6,7,1.7c2.1,1.1,3.6,2.7,4.7,4.7c1.1,2,1.7,4.3,1.7,6.9h-8.6
		c0-2-0.4-3.5-1.3-4.6c-0.8-1-2.1-1.6-3.7-1.6c-1.5,0-2.7,0.4-3.5,1.3c-0.8,0.9-1.3,2.1-1.3,3.6c0,1.2,0.5,2.2,1.4,3.2
		s2.6,1.9,5,2.9c4.2,1.5,7.2,3.3,9.1,5.5s2.8,5,2.8,8.3c0,3.7-1.2,6.6-3.5,8.7s-5.6,3.1-9.6,3.1c-2.8,0-5.3-0.6-7.5-1.7
		s-4-2.8-5.3-4.9s-1.9-4.6-1.9-7.5h8.6c0,2.5,0.5,4.2,1.4,5.4s2.5,1.7,4.7,1.7C239.6,223.9,241.1,222.4,241.1,219.2z"/>
	<path class="st2" d="M264.5,230.4h-8.6v-42.7h8.6V230.4z"/>
	<path class="st2" d="M300.8,225.5c-1.7,1.8-3.7,3.1-6.1,4.1s-5.1,1.4-7.9,1.4c-4.9,0-8.7-1.5-11.4-4.6s-4.1-7.5-4.2-13.3v-7.7
		c0-5.9,1.3-10.4,3.9-13.6c2.6-3.2,6.3-4.8,11.2-4.8c4.6,0,8.1,1.1,10.5,3.4s3.7,5.9,4.1,10.8h-8.4c-0.2-2.7-0.8-4.6-1.7-5.6
		c-0.9-1-2.3-1.5-4.2-1.5c-2.3,0-4,0.8-5.1,2.5s-1.6,4.4-1.6,8.1v7.7c0,3.9,0.6,6.7,1.7,8.5s3.1,2.7,5.7,2.7c1.7,0,3.1-0.3,4.1-1
		l0.8-0.5v-7.8h-6v-6.5h14.7V225.5z"/>
	<path class="st2" d="M336.7,230.4h-8.6l-12.6-28v28h-8.6v-42.7h8.6l12.6,28v-28h8.6V230.4z"/>
	<path class="st2" d="M365.6,211.9h-13.4v11.3h15.9v7.1h-24.5v-42.7H368v7.2h-15.8V205h13.4V211.9z"/>
	<path class="st2" d="M385.9,214.8h-4.3v15.6h-8.6v-42.7h13.7c4.3,0,7.7,1.1,10,3.4c2.4,2.2,3.5,5.4,3.5,9.5c0,5.7-2.1,9.6-6.2,11.9
		l7.5,17.5v0.4h-9.3L385.9,214.8z M381.7,207.6h4.9c1.7,0,3-0.6,3.9-1.7s1.3-2.7,1.3-4.6c0-4.3-1.7-6.4-5-6.4h-5V207.6z"/>
</g>
<g class="st0">
	<path class="st3" d="M64.5,170.6l0.2-62.6h-0.3L48,170.6H37.2l-16-62.6h-0.3l0.2,62.6H8.6V89.2h18.5l15.6,59.6h0.5l15.3-59.6h19.4
		v81.4H64.5z"/>
	<path class="st3" d="M93.8,170.6V89.2h36.5v12.2H107V123h21.5v11.3H107v24h24.4v12.3H93.8z"/>
	<path class="st3" d="M177.1,170.6l-12.7-34.7h-7.7v34.7h-13.3V89.2h23.2c3.4,0,6.5,0.4,9.3,1.3c2.8,0.9,5.3,2.3,7.3,4.2
		c2,1.9,3.6,4.3,4.8,7.2c1.1,2.9,1.7,6.4,1.7,10.5c0,3.1-0.4,5.9-1.2,8.3c-0.8,2.4-1.8,4.5-3,6.2c-1.2,1.7-2.6,3-4.1,4.1
		c-1.5,1-3,1.7-4.4,2.1l14.6,37.5H177.1z M176.1,113.1c0-2.5-0.3-4.5-1-6.1c-0.7-1.6-1.6-2.9-2.7-3.8c-1.1-0.9-2.4-1.6-3.7-2
		c-1.4-0.4-2.8-0.6-4.1-0.6h-7.8v25.1h7.8c3.4,0,6.2-1.1,8.3-3.2C175,120.5,176.1,117.4,176.1,113.1z"/>
	<path class="st3" d="M201.8,170.6V89.2h13.8v81.4H201.8z"/>
	<path class="st3" d="M294.7,170.6h-15.9l-11.3-61.2h-0.2l-11.3,61.2h-15.9l-15.5-81.4h14l10.5,63.2h0.5l10.9-63.2H275l11.3,63.2
		h0.2L297,89.2h13.3L294.7,170.6z"/>
	<path class="st3" d="M319.4,170.6V89.2h36.5v12.2h-23.2V123h21.5v11.3h-21.5v24H357v12.3H319.4z"/>
	<path class="st3" d="M389.3,100.9v69.7h-13.6v-69.7h-15.3V89.2h44.2v11.7H389.3z"/>
	<path class="st3" d="M450.2,170.6v-36.1h-24.4v36.1h-13.7V89.2h13.7v33h24.4v-33h13.7v81.4H450.2z"/>
	<path class="st3" d="M479.8,170.6V89.2h36.5v12.2h-23.2V123h21.5v11.3h-21.5v24h24.4v12.3H479.8z"/>
	<path class="st3" d="M563.1,170.6l-12.6-34.7h-7.7v34.7h-13.3V89.2h23.2c3.4,0,6.5,0.4,9.3,1.3c2.8,0.9,5.3,2.3,7.3,4.2
		c2,1.9,3.6,4.3,4.8,7.2c1.1,2.9,1.7,6.4,1.7,10.5c0,3.1-0.4,5.9-1.2,8.3c-0.8,2.4-1.8,4.5-3,6.2c-1.2,1.7-2.6,3-4.1,4.1
		c-1.5,1-3,1.7-4.4,2.1l14.6,37.5H563.1z M562.2,113.1c0-2.5-0.3-4.5-1-6.1c-0.7-1.6-1.6-2.9-2.7-3.8c-1.1-0.9-2.4-1.6-3.7-2
		c-1.4-0.4-2.8-0.6-4.1-0.6h-7.8v25.1h7.8c3.4,0,6.2-1.1,8.3-3.2C561.1,120.5,562.2,117.4,562.2,113.1z"/>
</g>
</svg>
