<?xml version="1.0" encoding="utf-8"?>
<!-- Generator: Adobe Illustrator 23.0.1, SVG Export Plug-In . SVG Version: 6.00 Build 0)  -->
<svg version="1.1" id="Layer_1" xmlns="http://www.w3.org/2000/svg" xmlns:xlink="http://www.w3.org/1999/xlink" x="0px" y="0px"
	 viewBox="0 0 705 705" style="enable-background:new 0 0 705 705;" xml:space="preserve">
<style type="text/css">
	.st0{fill:#E14658;stroke:#000000;stroke-miterlimit:10;}
	.st1{fill:#FFFFFF;}
</style>
<circle class="st0" cx="351.5" cy="351.5" r="351.5"/>
<path class="st1" d="M606.4,223l-46.1,46.1c-4.7,4.7-12.3,4.7-17,0l-111-111c-4.7-4.7-4.7-12.3,0-17L478.4,95
	c18.7-18.7,49.1-18.7,67.9,0l60.1,60.1C625.2,173.8,625.2,204.2,606.4,223z M392.7,180.7L130.1,443.3l-21.2,121.5
	c-2.9,16.4,11.4,30.6,27.8,27.8l121.5-21.3l262.6-262.6c4.7-4.7,4.7-12.3,0-17l-111-111C405,176,397.4,176,392.7,180.7L392.7,180.7z
	 M232.6,420.8c-5.5-5.5-5.5-14.3,0-19.8l154-154c5.5-5.5,14.3-5.5,19.8,0s5.5,14.3,0,19.8l-154,154
	C246.9,426.3,238.1,426.3,232.6,420.8L232.6,420.8z M196.5,504.9h48v36.3L180,552.5l-31.1-31.1l11.3-64.5h36.3V504.9z"/>
</svg>
