<?xml version="1.0" encoding="utf-8"?>
<!-- Generator: Adobe Illustrator 23.0.1, SVG Export Plug-In . SVG Version: 6.00 Build 0)  -->
<svg version="1.1" id="Layer_1" xmlns="http://www.w3.org/2000/svg" xmlns:xlink="http://www.w3.org/1999/xlink" x="0px" y="0px"
	 viewBox="0 0 666 666" style="enable-background:new 0 0 666 666;" xml:space="preserve">
<style type="text/css">
	.st0{fill:#E14658;}
	.st1{fill:#FFFFFF;}
</style>
<circle class="st0" cx="333" cy="333" r="333"/>
<path class="st1" d="M561,507.7L461.3,408c-4.5-4.5-10.6-7-17-7H428c27.6-35.3,44-79.7,44-128c0-114.9-93.1-208-208-208
	S56,158.1,56,273s93.1,208,208,208c48.3,0,92.7-16.4,128-44v16.3c0,6.4,2.5,12.5,7,17l99.7,99.7c9.4,9.4,24.6,9.4,33.9,0l28.3-28.3
	C570.3,532.3,570.3,517.1,561,507.7z M264,401c-70.7,0-128-57.2-128-128c0-70.7,57.2-128,128-128c70.7,0,128,57.2,128,128
	C392,343.7,334.8,401,264,401z"/>
</svg>
