<?xml version="1.0" encoding="utf-8"?>
<!-- Generator: Adobe Illustrator 23.0.1, SVG Export Plug-In . SVG Version: 6.00 Build 0)  -->
<svg version="1.1" id="Layer_1" xmlns="http://www.w3.org/2000/svg" xmlns:xlink="http://www.w3.org/1999/xlink" x="0px" y="0px"
	 viewBox="0 0 708 704.4" style="enable-background:new 0 0 708 704.4;" xml:space="preserve">
<style type="text/css">
	.st0{fill:#1399AA;}
	.st1{fill:#FFFFFF;}
</style>
<ellipse class="st0" cx="354" cy="352" rx="354" ry="352.5"/>
<path class="st1" d="M603,538.7L503.3,439c-4.5-4.5-10.6-7-17-7H470c27.6-35.3,44-79.7,44-128c0-114.9-93.1-208-208-208
	S98,189.1,98,304s93.1,208,208,208c48.3,0,92.7-16.4,128-44v16.3c0,6.4,2.5,12.5,7,17l99.7,99.7c9.4,9.4,24.6,9.4,33.9,0l28.3-28.3
	C612.3,563.3,612.3,548.1,603,538.7z M306,432c-70.7,0-128-57.2-128-128c0-70.7,57.2-128,128-128c70.7,0,128,57.2,128,128
	C434,374.7,376.8,432,306,432z"/>
</svg>
