<?xml version="1.0" encoding="utf-8"?>
<!-- Generator: Adobe Illustrator 22.1.0, SVG Export Plug-In . SVG Version: 6.00 Build 0)  -->
<svg version="1.1" id="Layer_1" xmlns="http://www.w3.org/2000/svg" xmlns:xlink="http://www.w3.org/1999/xlink" x="0px" y="0px"
	 viewBox="0 0 350 202" style="enable-background:new 0 0 350 202;" xml:space="preserve">
<style type="text/css">
	.st0{fill:#FFFFFF;}
	.st1{fill:#E14658;}
</style>
<circle class="st0" cx="153.6" cy="82.4" r="57.4"/>
<path class="st1" d="M272.3,174l-39-39c-1.8-1.8-4.1-2.7-6.6-2.7h-6.4c10.8-13.8,17.2-31.1,17.2-50c0-44.9-36.4-81.3-81.3-81.3
	S75,37.4,75,82.3s36.4,81.3,81.3,81.3c18.9,0,36.2-6.4,50-17.2v6.4c0,2.5,1,4.9,2.7,6.6l38.9,38.9c3.7,3.7,9.6,3.7,13.2,0l11.1-11.1
	C275.9,183.6,275.9,177.6,272.3,174z M156.2,132.3c-27.6,0-50-22.3-50-50c0-27.6,22.3-50,50-50c27.6,0,50,22.3,50,50
	C206.2,109.9,183.9,132.3,156.2,132.3z"/>
<path class="st1" d="M156.3,46.7c-11.1,0-18.3,4.5-23.9,12.6c-1,1.5-0.7,3.5,0.7,4.6l6,4.5c1.4,1.1,3.5,0.8,4.6-0.6
	c3.5-4.4,6.1-6.9,11.5-6.9c4.3,0,9.6,2.7,9.6,6.9c0,3.1-2.6,4.7-6.8,7.1c-4.9,2.8-11.4,6.2-11.4,14.8v1.4c0,1.8,1.5,3.3,3.3,3.3H160
	c1.8,0,3.3-1.5,3.3-3.3v-0.8c0-6,17.4-6.2,17.4-22.3C180.7,55.9,168.1,46.7,156.3,46.7z M154.9,98.6c-5.3,0-9.6,4.3-9.6,9.6
	c0,5.3,4.3,9.6,9.6,9.6s9.6-4.3,9.6-9.6S160.2,98.6,154.9,98.6z"/>
</svg>
