<svg xmlns="http://www.w3.org/2000/svg" viewBox="0 0 334.69 47.2"><defs><style>.cls-1{fill:#1399aa;}.cls-2{fill:#29394b;}.cls-3{font-size:22px;fill:#fff;font-family:RobotoCondensed-Bold, Roboto Condensed;font-weight:700;}.cls-4{letter-spacing:-0.01em;}.cls-5{letter-spacing:-0.03em;}</style></defs><title>sectionTagTemplate</title><g id="Layer_1" data-name="Layer 1"><polygon class="cls-1" points="18 46.94 0 46.94 24 23.93 41 23.93 18 46.94"/><polygon class="cls-1" points="18 0.94 0 0.94 24 23.93 41 23.93 18 0.94"/><rect class="cls-2" x="40" width="258" height="47.2"/><polygon class="cls-2" points="41.05 0.75 41.1 24.81 16.99 0.7 41.05 0.75"/><polygon class="cls-2" points="41.82 47.15 41.88 22.32 16.99 47.2 41.82 47.15"/><polygon class="cls-2" points="334.69 23.93 298 46.94 298 0.94 334.69 23.93"/><path class="cls-2" d="M295.58,1.58c.55,11.21-1.76,22.33-.83,33.52a1.51,1.51,0,0,0,2.8.76c3-5.17,1.44-11.56,2.35-17.23.31-1.89-2.58-2.7-2.89-.8-.84,5.2.61,11.87-2.05,16.52l2.79.75c-.93-11.19,1.38-22.31.83-33.52-.09-1.92-3.09-1.93-3,0Z" transform="translate(0 0.93)"/><path class="cls-2" d="M298.83,44.11V33.43a1.5,1.5,0,0,0-3,0V44.11a1.5,1.5,0,0,0,3,0Z" transform="translate(0 0.93)"/><path class="cls-2" d="M297.26,2.84a1.5,1.5,0,0,0,0-3,1.5,1.5,0,0,0,0,3Z" transform="translate(0 0.93)"/><path class="cls-2" d="M297.1,46.17a1.5,1.5,0,0,0,0-3,1.5,1.5,0,0,0,0,3Z" transform="translate(0 0.93)"/></g><g id="Layer_2" data-name="Layer 2"><text class="cls-3" transform="translate(49.96 30.52)">SE<tspan class="cls-4" x="22.68" y="0">C</tspan><tspan x="34.91" y="0">TION</tspan><tspan class="cls-5" x="79.56" y="0"> </tspan><tspan x="83.98" y="0">T</tspan><tspan class="cls-4" x="95.93" y="0">I</tspan><tspan x="101.57" y="0">TLE</tspan></text></g></svg>