<?xml version="1.0" encoding="utf-8"?>
<!-- Generator: Adobe Illustrator 22.1.0, SVG Export Plug-In . SVG Version: 6.00 Build 0)  -->
<svg version="1.1" xmlns="http://www.w3.org/2000/svg" xmlns:xlink="http://www.w3.org/1999/xlink" x="0px" y="0px"
	 viewBox="0 0 335 46" style="enable-background:new 0 0 335 46;" xml:space="preserve">
<style type="text/css">
	.st0{fill:#1399AA;}
	.st1{fill:#29394B;}
	.st2{fill:#FFFFFF;}
	.st3{font-family:'RobotoCondensed-Bold';}
	.st4{font-size:20px;}
</style>
<g id="Layer_1">
	<polygon class="st0" points="18,46 0,46 24,23 41,23 	"/>
	<polygon class="st0" points="18,0 0,0 24,23 41,23 	"/>
	<rect x="39.3" y="-0.9" class="st1" width="238.8" height="47.2"/>
	<polygon class="st1" points="41,-0.2 41.1,23.9 17,-0.2 	"/>
	<polygon class="st1" points="41.8,46.2 41.9,21.4 17,46.3 	"/>
	<g>
		<g>
			<path class="st1" d="M297.3,2.8c1.9,0,1.9-3,0-3C295.3-0.2,295.3,2.8,297.3,2.8L297.3,2.8z"/>
		</g>
	</g>
	<g>
		<g>
			<path class="st1" d="M297.1,46.2c1.9,0,1.9-3,0-3C295.2,43.2,295.2,46.2,297.1,46.2L297.1,46.2z"/>
		</g>
	</g>
	<polygon class="st0" points="300.9,46 318.9,46 294.9,23 277.9,23 	"/>
	<polygon class="st0" points="300.9,0 318.9,0 294.9,23 277.9,23 	"/>
	<polygon class="st1" points="277.8,-0.2 277.8,23.9 301.9,-0.2 	"/>
	<polygon class="st1" points="277.1,46.2 277,21.4 301.9,46.3 	"/>
</g>
<g id="Layer_2">
	<text transform="matrix(1 0 0 1 45.7119 29.5874)" class="st2 st3 st4">UNDERSTANDING THE USER</text>
</g>
</svg>
