<?xml version="1.0" encoding="utf-8"?>
<!-- Generator: Adobe Illustrator 22.1.0, SVG Export Plug-In . SVG Version: 6.00 Build 0)  -->
<svg version="1.1" id="Layer_1" xmlns="http://www.w3.org/2000/svg" xmlns:xlink="http://www.w3.org/1999/xlink" x="0px" y="0px"
	 viewBox="0 0 452.7 60" style="enable-background:new 0 0 452.7 60;" xml:space="preserve">
<style type="text/css">
	.st0{fill:#1399AA;}
	.st1{fill:#29394B;}
	.st2{fill:#FFFFFF;}
	.st3{font-family:'RobotoCondensed-Bold';}
	.st4{font-size:30px;}
	.st5{fill:#EBEDF3;}
</style>
<polygon class="st0" points="13.1,60 2.5,60 10.2,47.3 "/>
<polygon class="st0" points="13.1,0 10.2,10.6 2.5,0 "/>
<rect x="23.9" y="0.9" class="st0" width="2.6" height="59.1"/>
<path class="st1" d="M407.4,59.4c0.1-0.1,0.2-0.1,0.3-0.2l0,0l0,0c5.7-3.8,29.1-19.4,43.7-29.1l-45-30v60
	C406.8,59.7,407.1,59.6,407.4,59.4z"/>
<path class="st1" d="M407.5,59.3c0.1,0,0.1-0.1,0.2-0.1V0.8c0,0-0.7-0.4-1.2-0.8H14.7v60h391.8C406.8,59.7,407.2,59.5,407.5,59.3z"
	/>
<polygon class="st0" points="56.7,30 26.7,0 26.7,60 "/>
<rect x="10.5" class="st0" width="14.3" height="60"/>
<text transform="matrix(1 0 0 1 65.2475 38.7697)" class="st2 st3 st4">THE PROBLEM</text>
<path class="st0" d="M25.7,0c1.3,0,0.9-0.3,2.1,2.1c1.9,5,0.9,55,0.9,55s-0.7,2-2,2.7c0,0.3-0.6,0.3-1,0.3c-1.9-0.2-6.2-4.4-6.2-4.4
	L24.3,0C24.3,0,24.4,0,25.7,0z"/>
<polygon class="st5" points="32.5,30 2.5,0 2.5,60 "/>
</svg>
