<?xml version="1.0" encoding="utf-8"?>
<!-- Generator: Adobe Illustrator 23.0.1, SVG Export Plug-In . SVG Version: 6.00 Build 0)  -->
<svg version="1.1" id="Layer_1" xmlns="http://www.w3.org/2000/svg" xmlns:xlink="http://www.w3.org/1999/xlink" x="0px" y="0px"
	 viewBox="0 0 708 702.7" style="enable-background:new 0 0 708 702.7;" xml:space="preserve">
<style type="text/css">
	.st0{fill:#E14658;}
	.st1{fill:#FFFFFF;}
</style>
<ellipse class="st0" cx="354" cy="352.5" rx="354" ry="352.5"/>
<path class="st1" d="M580.3,383.2c8.7-15,13.7-30.8,13.7-49.8c0-44-37.2-85.6-85.8-85.6h-36.5c4.9-12.8,8.9-28.1,8.9-46.5
	c-0.1-72.9-37.7-104.8-95.3-104.8c-61.6,0-58.1,94.9-71.8,108.6c-22.7,22.7-49.6,66.4-68.8,83.4H146c-17.7,0-32,14.3-32,32v240
	c0,17.7,14.3,32,32,32h64c14.9,0,27.4-10.2,31-24c44.5,1,75.1,39.9,177.8,39.9c7.2,0,15.2,0,22.2,0c77.1,0,112-39.4,112.9-95.3
	c13.3-18.4,20.3-43.1,17.3-67C581.1,427.7,584.9,405.8,580.3,383.2z M518.5,437c12.6,21.1,1.3,49.4-13.9,57.6
	c7.7,48.9-17.6,65.9-53.1,65.9h-37.8c-71.6,0-118-37.8-171.6-37.8V336.5H253c28.4,0,68-70.9,94.5-97.5
	c28.4-28.4,18.9-75.6,37.8-94.5c47.3,0,47.3,33,47.3,56.7c0,39.2-28.4,56.7-28.4,94.5h104c21.1,0,37.7,18.9,37.8,37.8
	c0.1,18.9-12.8,37.8-22.3,37.8C537.2,386,540.1,416.7,518.5,437L518.5,437z M202,528.5c0,13.3-10.7,24-24,24s-24-10.7-24-24
	s10.7-24,24-24S202,515.2,202,528.5z"/>
</svg>
