<?xml version="1.0" encoding="utf-8"?>
<!-- Generator: Adobe Illustrator 23.0.1, SVG Export Plug-In . SVG Version: 6.00 Build 0)  -->
<svg version="1.1" id="Layer_1" xmlns="http://www.w3.org/2000/svg" xmlns:xlink="http://www.w3.org/1999/xlink" x="0px" y="0px"
	 viewBox="0 0 690 695.2" style="enable-background:new 0 0 690 695.2;" xml:space="preserve">
<style type="text/css">
	.st0{fill:#1399AA;stroke:#000000;stroke-miterlimit:10;}
	.st1{fill:#FFFFFF;}
</style>
<circle class="st0" cx="345" cy="350.2" r="345"/>
<path class="st1" d="M131.7,330c32.8,0,59.4-26.7,59.4-59.4s-26.7-59.4-59.4-59.4s-59.5,26.5-59.5,59.3S98.9,330,131.7,330z
	 M547.7,330c32.8,0,59.4-26.7,59.4-59.4s-26.7-59.4-59.4-59.4c-32.8,0-59.4,26.7-59.4,59.4S514.9,330,547.7,330z M577.4,359.8H518
	c-16.3,0-31.1,6.6-41.9,17.3c37.4,20.5,64,57.6,69.7,101.6h61.3c16.4,0,29.7-13.3,29.7-29.7v-29.7
	C636.9,386.4,610.2,359.8,577.4,359.8z M339.7,359.8c57.5,0,104-46.5,104-104s-46.5-104-104-104s-104,46.5-104,104
	S282.2,359.8,339.7,359.8z M411,389.5h-7.7c-19.3,9.3-40.8,14.9-63.6,14.9s-44.2-5.6-63.6-14.9h-7.7c-59.1,0-107,47.9-107,107v26.7
	c0,24.6,20,44.6,44.6,44.6h267.5c24.6,0,44.6-20,44.6-44.6v-26.7C518,437.4,470.1,389.5,411,389.5z M203.3,377
	c-10.8-10.7-25.6-17.3-41.9-17.3H102c-32.8,0-59.5,26.6-59.5,59.4v29.7c0,16.4,13.3,29.7,29.7,29.7h61.2
	C139.3,434.5,165.8,397.5,203.3,377L203.3,377z"/>
</svg>
