<?xml version="1.0" encoding="utf-8"?>
<!-- Generator: Adobe Illustrator 23.0.1, SVG Export Plug-In . SVG Version: 6.00 Build 0)  -->
<svg version="1.1" id="Layer_1" xmlns="http://www.w3.org/2000/svg" xmlns:xlink="http://www.w3.org/1999/xlink" x="0px" y="0px"
	 viewBox="0 0 690.5 691" style="enable-background:new 0 0 690.5 691;" xml:space="preserve">
<style type="text/css">
	.st0{fill:#E14658;stroke:#000000;stroke-miterlimit:10;}
	.st1{fill:#FFFFFF;}
</style>
<circle class="st0" cx="345" cy="345.5" r="345"/>
<path class="st1" d="M131.7,325.3c32.8,0,59.4-26.7,59.4-59.4s-26.7-59.4-59.4-59.4S72.2,233,72.2,265.8S98.9,325.3,131.7,325.3z
	 M547.7,325.3c32.8,0,59.4-26.7,59.4-59.4s-26.7-59.4-59.4-59.4c-32.8,0-59.4,26.7-59.4,59.4S514.9,325.3,547.7,325.3z M577.4,355
	H518c-16.3,0-31.1,6.6-41.9,17.3c37.4,20.5,64,57.6,69.7,101.6h61.3c16.4,0,29.7-13.3,29.7-29.7v-29.7
	C636.9,381.6,610.2,355,577.4,355z M339.7,355c57.5,0,104-46.5,104-104s-46.5-104-104-104s-104,46.5-104,104S282.2,355,339.7,355z
	 M411,384.7h-7.7c-19.3,9.3-40.8,14.9-63.6,14.9s-44.2-5.6-63.6-14.9h-7.7c-59.1,0-107,47.9-107,107v26.7c0,24.6,20,44.6,44.6,44.6
	h267.5c24.6,0,44.6-20,44.6-44.6v-26.7C518,432.6,470.1,384.7,411,384.7z M203.3,372.3c-10.8-10.7-25.6-17.3-41.9-17.3H102
	c-32.8,0-59.5,26.6-59.5,59.4v29.7c0,16.4,13.3,29.7,29.7,29.7h61.2C139.3,429.8,165.8,392.8,203.3,372.3L203.3,372.3z"/>
</svg>
