<?xml version="1.0" encoding="utf-8"?>
<!-- Generator: Adobe Illustrator 23.0.1, SVG Export Plug-In . SVG Version: 6.00 Build 0)  -->
<svg version="1.1" id="Layer_1" xmlns="http://www.w3.org/2000/svg" xmlns:xlink="http://www.w3.org/1999/xlink" x="0px" y="0px"
	 viewBox="0 0 709 705.3" style="enable-background:new 0 0 709 705.3;" xml:space="preserve">
<style type="text/css">
	.st0{fill:#E14658;}
	.st1{fill:#FFFFFF;}
</style>
<ellipse class="st0" cx="354.2" cy="352.2" rx="354" ry="352.5"/>
<path class="st1" d="M146.2,322.5c32.8,0,59.4-26.7,59.4-59.4s-26.7-59.4-59.4-59.4S86.7,230.2,86.7,263S113.4,322.5,146.2,322.5z
	 M562.2,322.5c32.8,0,59.4-26.7,59.4-59.4s-26.7-59.4-59.4-59.4c-32.8,0-59.4,26.7-59.4,59.4S529.4,322.5,562.2,322.5z M591.9,352.2
	h-59.4c-16.3,0-31.1,6.6-41.9,17.3c37.4,20.5,64,57.6,69.7,101.6h61.3c16.4,0,29.7-13.3,29.7-29.7v-29.7
	C651.4,378.9,624.7,352.2,591.9,352.2z M354.2,352.2c57.5,0,104-46.5,104-104s-46.5-104-104-104s-104,46.5-104,104
	S296.7,352.2,354.2,352.2z M425.5,382h-7.7c-19.3,9.3-40.8,14.9-63.6,14.9s-44.2-5.6-63.6-14.9h-7.7c-59.1,0-107,47.9-107,107v26.7
	c0,24.6,20,44.6,44.6,44.6H488c24.6,0,44.6-20,44.6-44.6V489C532.5,429.9,484.6,382,425.5,382z M217.8,369.5
	c-10.8-10.7-25.6-17.3-41.9-17.3h-59.4c-32.8,0-59.5,26.6-59.5,59.4v29.7c0,16.4,13.3,29.7,29.7,29.7h61.2
	C153.8,427,180.3,390,217.8,369.5L217.8,369.5z"/>
</svg>
