<?xml version="1.0" encoding="utf-8"?>
<!-- Generator: Adobe Illustrator 23.0.1, SVG Export Plug-In . SVG Version: 6.00 Build 0)  -->
<svg version="1.1" id="Layer_1" xmlns="http://www.w3.org/2000/svg" xmlns:xlink="http://www.w3.org/1999/xlink" x="0px" y="0px"
	 viewBox="0 0 67.6 78" style="enable-background:new 0 0 67.6 78;" xml:space="preserve">
<style type="text/css">
	.st0{fill:#E14658;}
</style>
<title>Contacts</title>
<g>
	<path class="st0" d="M5.2,18.2c0-0.8,0.3-1.3,0.8-1.8c0.5-0.5,1-0.8,1.8-0.8h7.8c1.6,0,2.6,1,2.6,2.6c0,1.6-1,2.6-2.6,2.6H7.8
		C6.2,20.8,5.2,19.8,5.2,18.2z M5.2,39c0-0.8,0.3-1.3,0.8-1.8s1-0.8,1.8-0.8h7.8c1.6,0,2.6,1,2.6,2.6s-1,2.6-2.6,2.6H7.8
		C6.2,41.6,5.2,40.6,5.2,39z M5.2,59.8C5.2,59,5.5,58.5,6,58s1-0.8,1.8-0.8h7.8c1.6,0,2.6,1,2.6,2.6s-1,2.6-2.6,2.6H7.8
		C6.2,62.4,5.2,61.4,5.2,59.8z M54.6,0H23.4C17.2,0,12,4.4,10.7,10.4H7.8c-4.4,0-7.8,3.4-7.8,7.8S3.4,26,7.8,26h2.6v5.2H7.8
		C3.4,31.2,0,34.6,0,39s3.4,7.8,7.8,7.8h2.6V52H7.8C3.4,52,0,55.4,0,59.8s3.4,7.8,7.8,7.8h2.9C12,73.6,17.2,78,23.4,78h31.2
		c7.3,0,13-5.7,13-13V13C67.6,5.7,61.9,0,54.6,0z M52,54.6H26c-1.6,0-2.6-1-2.6-2.6c0-5.7,3.1-10.9,8.1-13.5
		c-1.8-2.1-2.9-4.7-2.9-7.3c0-5.7,4.7-10.4,10.4-10.4s10.4,4.7,10.4,10.4c0,2.6-1,5.2-2.9,7.3c4.9,2.9,8.1,8.1,8.1,13.5
		C54.6,53.6,53.6,54.6,52,54.6z"/>
</g>
</svg>
