<?xml version="1.0" encoding="utf-8"?>
<!-- Generator: Adobe Illustrator 23.0.1, SVG Export Plug-In . SVG Version: 6.00 Build 0)  -->
<svg version="1.1" id="Layer_1" xmlns="http://www.w3.org/2000/svg" xmlns:xlink="http://www.w3.org/1999/xlink" x="0px" y="0px"
	 viewBox="0 0 26 30" style="enable-background:new 0 0 26 30;" xml:space="preserve">
<style type="text/css">
	.st0{fill:#E14658;}
</style>
<title>Contacts</title>
<g>
	<path class="st0" d="M2,7c0-0.3,0.1-0.5,0.3-0.7C2.5,6.1,2.7,6,3,6h3c0.6,0,1,0.4,1,1S6.6,8,6,8H3C2.4,8,2,7.6,2,7z M2,15
		c0-0.3,0.1-0.5,0.3-0.7C2.5,14.1,2.7,14,3,14h3c0.6,0,1,0.4,1,1c0,0.6-0.4,1-1,1H3C2.4,16,2,15.6,2,15z M2,23
		c0-0.3,0.1-0.5,0.3-0.7C2.5,22.1,2.7,22,3,22h3c0.6,0,1,0.4,1,1s-0.4,1-1,1H3C2.4,24,2,23.6,2,23z M21,0H9C6.6,0,4.6,1.7,4.1,4H3
		C1.3,4,0,5.3,0,7s1.3,3,3,3h1v2H3c-1.7,0-3,1.3-3,3s1.3,3,3,3h1v2H3c-1.7,0-3,1.3-3,3s1.3,3,3,3h1.1c0.5,2.3,2.5,4,4.9,4h12
		c2.8,0,5-2.2,5-5V5C26,2.2,23.8,0,21,0z M20,21H10c-0.6,0-1-0.4-1-1c0-2.2,1.2-4.2,3.1-5.2C11.4,14,11,13,11,12c0-2.2,1.8-4,4-4
		s4,1.8,4,4c0,1-0.4,2-1.1,2.8c1.9,1.1,3.1,3.1,3.1,5.2C21,20.6,20.6,21,20,21z"/>
</g>
</svg>
