<?xml version="1.0" encoding="utf-8"?>
<!-- Generator: Adobe Illustrator 23.0.1, SVG Export Plug-In . SVG Version: 6.00 Build 0)  -->
<svg version="1.1" id="Layer_1" xmlns="http://www.w3.org/2000/svg" xmlns:xlink="http://www.w3.org/1999/xlink" x="0px" y="0px"
	 viewBox="0 0 78 78" style="enable-background:new 0 0 78 78;" xml:space="preserve">
<style type="text/css">
	.st0{fill:#E14658;}
</style>
<title>Contacts</title>
<g>
	<path class="st0" d="M10.4,18.2c0-0.8,0.3-1.3,0.8-1.8s1-0.8,1.8-0.8h7.8c1.6,0,2.6,1,2.6,2.6c0,1.6-1,2.6-2.6,2.6H13
		C11.4,20.8,10.4,19.8,10.4,18.2z M10.4,39c0-0.8,0.3-1.3,0.8-1.8s1-0.8,1.8-0.8h7.8c1.6,0,2.6,1,2.6,2.6s-1,2.6-2.6,2.6H13
		C11.4,41.6,10.4,40.6,10.4,39z M10.4,59.8c0-0.8,0.3-1.3,0.8-1.8s1-0.8,1.8-0.8h7.8c1.6,0,2.6,1,2.6,2.6s-1,2.6-2.6,2.6H13
		C11.4,62.4,10.4,61.4,10.4,59.8z M59.8,0H28.6c-6.2,0-11.4,4.4-12.7,10.4H13c-4.4,0-7.8,3.4-7.8,7.8S8.6,26,13,26h2.6v5.2H13
		c-4.4,0-7.8,3.4-7.8,7.8s3.4,7.8,7.8,7.8h2.6V52H13c-4.4,0-7.8,3.4-7.8,7.8s3.4,7.8,7.8,7.8h2.9c1.3,6,6.5,10.4,12.7,10.4h31.2
		c7.3,0,13-5.7,13-13V13C72.8,5.7,67.1,0,59.8,0z M57.2,54.6h-26c-1.6,0-2.6-1-2.6-2.6c0-5.7,3.1-10.9,8.1-13.5
		c-1.8-2.1-2.9-4.7-2.9-7.3c0-5.7,4.7-10.4,10.4-10.4s10.4,4.7,10.4,10.4c0,2.6-1,5.2-2.9,7.3c4.9,2.9,8.1,8.1,8.1,13.5
		C59.8,53.6,58.8,54.6,57.2,54.6z"/>
</g>
</svg>
