<?xml version="1.0" encoding="utf-8"?>
<!-- Generator: Adobe Illustrator 23.0.1, SVG Export Plug-In . SVG Version: 6.00 Build 0)  -->
<svg version="1.1" id="Layer_1" xmlns="http://www.w3.org/2000/svg" xmlns:xlink="http://www.w3.org/1999/xlink" x="0px" y="0px"
	 viewBox="0 0 78 78" style="enable-background:new 0 0 78 78;" xml:space="preserve">
<style type="text/css">
	.st0{fill:#E14658;}
</style>
<path class="st0" d="M39,0C17.5,0,0,17.5,0,39s17.5,39,39,39s39-17.5,39-39S60.5,0,39,0z M64.4,27.9L31.1,56.2
	c-0.7,0.6-1.6,0.9-2.5,1h-0.1l-0.4,0C27,57,26,56.5,25.4,55.7L13,40.2c-0.7-0.8-1-1.9-0.8-2.9c0.1-1.1,0.7-2,1.5-2.7
	c0.7-0.5,1.5-0.8,2.5-0.8c1.3,0,2.4,0.6,3.2,1.5L29,47.4l30.2-25.6c0.7-0.6,1.6-0.9,2.5-0.9c1.2,0,2.4,0.5,3.1,1.3
	C66.3,24,66.1,26.5,64.4,27.9z"/>
</svg>
