<?xml version="1.0" encoding="utf-8"?>
<!-- Generator: Adobe Illustrator 23.0.1, SVG Export Plug-In . SVG Version: 6.00 Build 0)  -->
<svg version="1.1" id="Layer_1" xmlns="http://www.w3.org/2000/svg" xmlns:xlink="http://www.w3.org/1999/xlink" x="0px" y="0px"
	 viewBox="0 0 91.9 95" style="enable-background:new 0 0 91.9 95;" xml:space="preserve">
<style type="text/css">
	.st0{fill:#E14658;}
</style>
<g>
	<path class="st0" d="M29.8,13.6L8.6,34.8v30.3l21.3,21.3h30.3l21.2-21.2V34.5L60.5,13.6H29.8z M63,45.7c1.2,0.8,1.8,2.3,1.4,3.7
		l0,0l0,0l0,0c-0.2,0.5-3.7,17.8-11.1,19.6v3c0,1.8-1.2,3.3-3,3.6c-1.4,0.3-4.8,0.5-7,0.5c-2.1,0-3.9-0.2-5.2-0.5
		c-1.7-0.3-2.9-1.8-2.9-3.6v-2.9c-3.7-2-5.3-6.1-5.3-14.2c0-0.1,0-0.3,0-0.4c0,0,0,0,0-0.1v-19c0-1.5,1.2-2.6,2.6-2.6h0.2
		c1.5,0,2.6,1.2,2.6,2.6v9.9c0,0.3,0.3,0.6,0.6,0.5c0.3,0,0.5-0.3,0.5-0.6v-16c0-1.5,1.2-2.6,2.6-2.6h0.2c1.5,0,2.6,1.2,2.6,2.6
		v16.3c0,0.3,0.2,0.6,0.6,0.6h0.2c0.3,0,0.6-0.2,0.6-0.6v-19c0-1.5,1.2-2.6,2.6-2.6H46c1.5,0,2.6,1.2,2.6,2.6v19
		c0,0.3,0.2,0.6,0.6,0.6h0.1c0.3,0,0.6-0.2,0.6-0.6V30.9c0-1.5,1.2-2.6,2.6-2.6h0.4c1.5,0,2.6,1.2,2.6,2.6v20.3
		c0,0.4,0.6,0.6,0.8,0.2l1.9-4.2c0.2-0.6,0.6-1.1,1.1-1.4C60.4,45,61.8,45,63,45.7z"/>
	<path class="st0" d="M64.1,5H26.2L0,31.3v37.4L26.3,95h37.5L90,68.8V30.9L64.1,5z M85.7,67L62,90.7H28.1L4.3,66.9V33.1L28,9.3h34.3
		l23.4,23.4C85.7,32.7,85.7,67,85.7,67z"/>
</g>
</svg>
