<svg xmlns="http://www.w3.org/2000/svg" viewBox="0 0 318.88 47.2"><defs><style>.cls-1{fill:#1399aa;}.cls-2{fill:#29394b;}.cls-3{font-size:20px;fill:#fff;font-family:RobotoCondensed-Bold, Roboto Condensed;font-weight:700;}.cls-4{letter-spacing:-0.01em;}.cls-5{letter-spacing:0.01em;}.cls-6{letter-spacing:-0.03em;}</style></defs><title>tag3</title><g id="Layer_1" data-name="Layer 1"><polygon class="cls-1" points="18 46.4 0 46.4 24 23.4 41 23.4 18 46.4"/><polygon class="cls-1" points="18 0.4 0 0.4 24 23.4 41 23.4 18 0.4"/><rect class="cls-2" x="39.82" width="238.81" height="47.2"/><polygon class="cls-2" points="41.05 0.22 41.1 24.27 16.99 0.16 41.05 0.22"/><polygon class="cls-2" points="41.82 46.61 41.88 21.78 16.99 46.66 41.82 46.61"/><path class="cls-2" d="M297.26,2.84a1.5,1.5,0,0,0,0-3,1.5,1.5,0,0,0,0,3Z" transform="translate(0 0.4)"/><path class="cls-2" d="M297.1,46.17a1.5,1.5,0,0,0,0-3,1.5,1.5,0,0,0,0,3Z" transform="translate(0 0.4)"/><polygon class="cls-1" points="300.88 46.4 318.88 46.4 294.88 23.4 277.88 23.4 300.88 46.4"/><polygon class="cls-1" points="300.88 0.4 318.88 0.4 294.88 23.4 277.88 23.4 300.88 0.4"/><polygon class="cls-2" points="277.83 0.22 277.78 24.27 301.88 0.16 277.83 0.22"/><polygon class="cls-2" points="277.06 46.61 277 21.78 301.88 46.66 277.06 46.61"/></g><g id="Layer_2" data-name="Layer 2"><text class="cls-3" transform="translate(67.14 29.44)">IN<tspan class="cls-4" x="17.66" y="0">I</tspan><tspan x="22.78" y="0">T</tspan><tspan class="cls-5" x="33.64" y="0">I</tspan><tspan x="39.23" y="0">AL USER</tspan><tspan class="cls-6" x="108.47" y="0"> </tspan><tspan x="112.49" y="0">TESTING</tspan></text></g></svg>