<?xml version="1.0" encoding="utf-8"?>
<!-- Generator: Adobe Illustrator 23.0.1, SVG Export Plug-In . SVG Version: 6.00 Build 0)  -->
<svg version="1.1" id="Layer_1" xmlns="http://www.w3.org/2000/svg" xmlns:xlink="http://www.w3.org/1999/xlink" x="0px" y="0px"
	 viewBox="0 0 708 705" style="enable-background:new 0 0 708 705;" xml:space="preserve">
<style type="text/css">
	.st0{fill:#E14658;}
	.st1{fill:#FFFFFF;}
</style>
<ellipse class="st0" cx="354.5" cy="352.5" rx="354" ry="352.5"/>
<path class="st1" d="M596.9,233.5L552.4,278c-4.5,4.5-11.9,4.5-16.4,0L428.9,170.9c-4.5-4.5-4.5-11.9,0-16.4l44.5-44.5
	c18-18,47.4-18,65.5,0l58,58C615,186.1,615,215.4,596.9,233.5z M390.7,192.7L137.3,446.1l-20.5,117.2c-2.8,15.8,11,29.5,26.8,26.8
	l117.2-20.6l253.4-253.4c4.5-4.5,4.5-11.9,0-16.4L407.2,192.7C402.6,188.2,395.2,188.2,390.7,192.7L390.7,192.7z M236.2,424.4
	c-5.3-5.3-5.3-13.8,0-19.1l148.6-148.6c5.3-5.3,13.8-5.3,19.1,0c5.3,5.3,5.3,13.8,0,19.1L255.3,424.4
	C250,429.7,241.5,429.7,236.2,424.4L236.2,424.4z M201.4,505.5h46.3v35l-62.2,10.9l-30-30l10.9-62.2h35V505.5z"/>
</svg>
