<?xml version="1.0" encoding="utf-8"?>
<!-- Generator: Adobe Illustrator 23.0.1, SVG Export Plug-In . SVG Version: 6.00 Build 0)  -->
<svg version="1.1" id="Layer_1" xmlns="http://www.w3.org/2000/svg" xmlns:xlink="http://www.w3.org/1999/xlink" x="0px" y="0px"
	 viewBox="0 0 708 707.5" style="enable-background:new 0 0 708 707.5;" xml:space="preserve">
<style type="text/css">
	.st0{fill:#1399AA;}
	.st1{fill:#FFFFFF;}
</style>
<ellipse class="st0" cx="354" cy="355" rx="354" ry="352.5"/>
<path class="st1" d="M146,325.2c32.8,0,59.4-26.7,59.4-59.4s-26.7-59.4-59.4-59.4s-59.5,26.5-59.5,59.3S113.2,325.2,146,325.2z
	 M562,325.2c32.8,0,59.4-26.7,59.4-59.4s-26.7-59.4-59.4-59.4c-32.8,0-59.4,26.7-59.4,59.4S529.2,325.2,562,325.2z M591.7,355h-59.4
	c-16.3,0-31.1,6.6-41.9,17.3c37.4,20.5,64,57.6,69.7,101.6h61.3c16.4,0,29.7-13.3,29.7-29.7v-29.7C651.2,381.6,624.5,355,591.7,355z
	 M354,355c57.5,0,104-46.5,104-104s-46.5-104-104-104s-104,46.5-104,104S296.5,355,354,355z M425.3,384.7h-7.7
	c-19.3,9.3-40.8,14.9-63.6,14.9s-44.2-5.6-63.6-14.9h-7.7c-59.1,0-107,47.9-107,107v26.7c0,24.6,20,44.6,44.6,44.6h267.5
	c24.6,0,44.6-20,44.6-44.6v-26.7C532.3,432.6,484.4,384.7,425.3,384.7z M217.6,372.2c-10.8-10.7-25.6-17.3-41.9-17.3h-59.4
	c-32.8,0-59.5,26.6-59.5,59.4V444c0,16.4,13.3,29.7,29.7,29.7h61.2C153.6,429.7,180.1,392.7,217.6,372.2L217.6,372.2z"/>
</svg>
