<?xml version="1.0" encoding="utf-8"?>
<!-- Generator: Adobe Illustrator 22.1.0, SVG Export Plug-In . SVG Version: 6.00 Build 0)  -->
<svg version="1.1" id="Layer_1" xmlns="http://www.w3.org/2000/svg" xmlns:xlink="http://www.w3.org/1999/xlink" x="0px" y="0px"
	 viewBox="0 0 162 20" style="enable-background:new 0 0 162 20;" xml:space="preserve">
<style type="text/css">
	.st0{display:none;}
	.st1{display:inline;fill:#D1D3D4;}
	.st2{fill:#29394B;}
	.st3{fill:#1399AA;}
	.st4{fill:#E14658;}
</style>
<g id="Layer_4" class="st0">
	<rect x="-21" y="-22" class="st1" width="200" height="54"/>
</g>
<g id="Layer_7">
	<g>
		<g>
			<path class="st2" d="M9,16.5c1.9,0,1.9-3,0-3S7.1,16.5,9,16.5L9,16.5z"/>
		</g>
	</g>
	<g>
		<g>
			<path class="st2" d="M10.5,14.7c-0.2-1.8-1-3.4-1.7-5.1c-0.3-0.7-1-1.3-1.8-1c-0.7,0.2-1.4,1.1-1,1.8c0.6,1.3,1.4,2.8,1.6,4.3
				c0.1,0.8,0.6,1.5,1.5,1.5C9.7,16.2,10.6,15.5,10.5,14.7L10.5,14.7z"/>
		</g>
	</g>
	<g>
		<g>
			<path class="st2" d="M6.7,11c1.9,0,1.9-3,0-3S4.8,11,6.7,11L6.7,11z"/>
		</g>
	</g>
	<g>
		<g>
			<path class="st2" d="M8.4,11.7c1.6-0.1,3.8,1.3,4.6-0.9c0.3-0.8-0.3-1.6-1-1.8c-0.8-0.2-1.6,0.3-1.8,1v0.1
				c0.2-0.3,0.5-0.6,0.7-0.9h-0.1c0.3-0.1,0.5-0.1,0.8-0.2c-0.6,0.1-1.1,0-1.5-0.1C9.5,8.8,9,8.7,8.4,8.7c-0.8,0-1.5,0.7-1.5,1.5
				C6.9,11,7.6,11.8,8.4,11.7L8.4,11.7z"/>
		</g>
	</g>
	<g>
		<g>
			<path class="st2" d="M9.7,10.2c-0.2,0.3-0.3,0.7-0.4,1.1c0,0.1,0,0.1,0,0.2c0-0.1,0-0.1,0,0s0,0.1-0.2,0.2
				c-0.7,0.6-1.2,1.2-1.3,2.2c-0.1,0.8,0.7,1.5,1.5,1.5c0.9,0,1.4-0.7,1.5-1.5c0,0.1-0.1,0.2-0.1,0.3c-0.1,0.1-0.1,0.1,0,0
				c0.1,0,0.2-0.2,0.3-0.2c0.3-0.2,0.5-0.5,0.7-0.8s0.3-0.6,0.4-0.9c0-0.1,0.1-0.2,0.1-0.3c0.1-0.3-0.1,0,0.1-0.2
				C13.3,10.1,10.7,8.6,9.7,10.2L9.7,10.2z"/>
		</g>
	</g>
	<g>
		<g>
			<path class="st2" d="M38.3,9.5c0.4,0.7,1.1,1.1,1.5,1.8s0.6,1.6,0.8,2.4c0.6,1.8,3.5,1,2.9-0.8c-0.3-0.9-0.6-1.9-1-2.8
				c-0.4-0.9-1.1-1.3-1.6-2.1C39.9,6.4,37.3,7.9,38.3,9.5L38.3,9.5z"/>
		</g>
	</g>
	<g>
		<g>
			<path class="st2" d="M42.8,7.9c-1.9-0.3-2.7,2.6-0.8,2.9c0.4,0.1-0.8,4.4-0.9,4.8c0.1,0.1,0.2,0.2,0.2,0.4c0,0.1,0,0.2,0,0.3
				c0.2,0.1,0.4,0.2,0.4,0.5c0,0.1,0,0.3,0,0.4c0,0,0,0,0,0c0.8,0.5,2,0.4,2.3-0.7C44.6,14.2,46.6,8.5,42.8,7.9z"/>
		</g>
	</g>
	<g>
		<g>
			<path class="st2" d="M45.3,8.5c-1.5,0.6-2,2.1-2.6,3.5c-0.3,0.7-0.2,1.6,0.5,2.1c0.6,0.4,1.7,0.2,2.1-0.5c0.2-0.5,0.5-1,0.7-1.5
				c0.1-0.2,0.2-0.4,0.3-0.6c0.2-0.4,0.3-0.2-0.1-0.1c0.8-0.3,1.3-1,1-1.8C46.9,8.9,46,8.3,45.3,8.5L45.3,8.5z"/>
		</g>
	</g>
	<g>
		<g>
			<path class="st2" d="M43.8,14.4c0-1.2-0.4-2.3-1.2-3.3c-0.7-0.8-2.3-0.4-2.5,0.7c-0.1,0.6-0.1,1.1,0.2,1.6
				c0.1,0.2,0.3,0.4,0.4,0.6l0.1,0.1c-0.2-0.2-0.2-0.4-0.1-0.6c-0.2,0.8,0.3,1.7,1,1.8c0.8,0.2,1.6-0.2,1.8-1
				c0.2-0.5,0.1-1.1-0.2-1.6c-0.1-0.2-0.2-0.4-0.4-0.6c-0.2-0.3,0,0.1,0,0.5c-0.8,0.2-1.7,0.4-2.5,0.7c-0.1-0.1,0.1,0.2,0.1,0.2
				c0.2,0.3,0-0.1,0.1,0.2c0,0.2,0.1,0.3,0.1,0.5c0-0.2,0,0.2,0,0.2c0,0.8,0.7,1.5,1.5,1.5C43.1,15.9,43.8,15.2,43.8,14.4L43.8,14.4
				z"/>
		</g>
	</g>
	<g>
		<g>
			<path class="st2" d="M41,13.3c1.9,0,1.9-3,0-3S39.1,13.3,41,13.3L41,13.3z"/>
		</g>
	</g>
	<g>
		<g>
			<path class="st2" d="M42.4,11.1c0-0.1,0-0.3,0-0.4c0-0.8-0.7-1.5-1.5-1.5s-1.5,0.7-1.5,1.5c0,0.1,0,0.3,0,0.4
				c0,0.8,0.7,1.5,1.5,1.5S42.4,12,42.4,11.1L42.4,11.1z"/>
		</g>
	</g>
	<g>
		<g>
			<path class="st2" d="M41,10.4c1.9,0,1.9-3,0-3C39,7.4,39,10.4,41,10.4L41,10.4z"/>
		</g>
	</g>
	<g>
		<g>
			<path class="st2" d="M39.4,9.8c1.9,0,1.9-3,0-3S37.5,9.8,39.4,9.8L39.4,9.8z"/>
		</g>
	</g>
	<g>
		<g>
			<path class="st2" d="M73.1,12.9c0.1,0,0.2,0.1,0.3,0.1c-0.1,0-0.1,0,0.1,0c0.1,0,0.5,0.3,0.4,0.2c0.6,0.5,1.5,0.6,2.1,0
				c0.5-0.5,0.6-1.6,0-2.1c-0.6-0.5-1.3-0.9-2.1-1.1c-0.8-0.2-1.7,0.3-1.8,1C71.9,11.8,72.3,12.6,73.1,12.9L73.1,12.9z"/>
		</g>
	</g>
	<g>
		<g>
			<path class="st2" d="M79.2,16.9c0.1-2.6,0.8-7.6-3.1-7.4c-1.9,0.1-1.9,3.1,0,3c0.3,0,0.4,0,0.1-0.1c-0.2-0.1-0.3,0-0.1,0.4
				c0,0.4,0.1,0.9,0.1,1.4c0,0.9,0,1.8,0,2.7C76.1,18.8,79.2,18.8,79.2,16.9L79.2,16.9z"/>
		</g>
	</g>
	<g>
		<g>
			<path class="st2" d="M77.2,13.8c0.3,0.2,0.4,0.3,0.2,0.1c0.1,0.1,0.1,0.1,0-0.1c0.1,0.2-0.1-0.2-0.1-0.2
				c-0.2-0.5-0.4-0.9-0.7-1.3c-0.6-0.5-1.5-0.6-2.1,0s-0.6,1.6,0,2.1l-0.1-0.2l0.1,0.3c0.1,0.3,0.2,0.6,0.4,0.9
				c0.4,0.6,0.9,1.1,1.6,1.2c0.8,0.1,1.7-0.2,1.8-1C78.4,14.9,78.1,13.9,77.2,13.8L77.2,13.8z"/>
		</g>
	</g>
	<g>
		<g>
			<path class="st2" d="M79.9,14.4c0-0.9,0.2-1.8,0.2-2.7c0-1-0.1-1.7-0.9-2.4c-0.6-0.5-1.5-0.6-2.1,0c-0.5,0.5-0.6,1.6,0,2.1
				c0.2,0.1,0.3,0.3,0.5,0.4c-0.1-0.4-0.3-0.7-0.4-1.1c0.2,1.2-0.3,2.4-0.2,3.6C77,16.4,80,16.4,79.9,14.4L79.9,14.4z"/>
		</g>
	</g>
	<g>
		<g>
			<path class="st2" d="M80.7,11.1c0-0.2,0-0.5,0-0.7c0-0.3,0-0.2-0.2,0.4l0.1-0.1c0.1-0.1,0.2-0.2,0.3-0.3c0-0.2,0.1-0.4,0.1-0.5
				c0,0.1-0.1,0.2-0.1,0.3C81,10.1,81,10,81.1,9.9c0.6-0.5,0.5-1.6,0-2.1c-0.6-0.6-1.5-0.5-2.1,0c-0.2,0.2-0.4,0.4-0.6,0.7
				c0,0.1-0.1,0.2-0.1,0.3c-0.1,0.3-0.1,0.2,0.2-0.2c-0.1,0.1-0.2,0.2-0.3,0.3c-0.5,0.7-0.4,1.4-0.4,2.2c-0.1,0.8,0.7,1.5,1.5,1.5
				C80,12.6,80.6,12,80.7,11.1L80.7,11.1z"/>
		</g>
	</g>
	<g>
		<g>
			<path class="st2" d="M112,9.1c-0.2,0-0.4,0-0.6,0.1c-0.1,0.1-0.2,0.2-0.3,0.3c-2.2,0.5-4.4,0.7-6.7,0.7c-0.9,0.8-0.6,2.7,0.9,2.6
				c2.2-0.1,4.5-0.3,6.7-0.6C113.9,11.9,113.9,8.9,112,9.1z"/>
		</g>
	</g>
	<g>
		<g>
			<path class="st2" d="M104.4,12.3c0.1,2.3,2.4,3.3,3.1,5.4c0.6,1.8,3.5,1.1,2.9-0.8c-0.3-1-0.8-1.9-1.4-2.7
				c-0.4-0.5-1.5-1.2-1.6-1.9C107.3,10.3,104.3,10.3,104.4,12.3L104.4,12.3z"/>
		</g>
	</g>
	<g>
		<g>
			<path class="st2" d="M110.5,17.1c0.1-0.6,0.1-1.2,0.6-1.7c-0.8-0.5-1.7-1-2.5-1.5c0,0.2-0.1,0.4-0.2,0.5c0.9,0.5,1.7,1,2.6,1.5
				c0.6-1.2,1.9-2.6,1.6-4c-0.4-1.9-3.3-1.1-2.9,0.8c0,0.1,0,0.1,0,0.2c0.1-0.4,0.1-0.8,0.2-1.2c-0.4,0.9-1,1.7-1.5,2.6
				c-0.8,1.7,1.6,3.2,2.6,1.5c0.2-0.4,0.4-0.8,0.5-1.2c0.3-1.4-1.4-2.6-2.5-1.5c-1,1.1-1.3,2.4-1.4,3.8c-0.1,0.8,0.8,1.5,1.5,1.5
				C109.9,18.6,110.4,17.9,110.5,17.1L110.5,17.1z"/>
		</g>
	</g>
	<g>
		<g>
			<path class="st2" d="M110.2,11.8c-0.6,0-1.2,0-1.8,0c-0.8,0-1.5,0.7-1.5,1.5s0.7,1.5,1.5,1.5c0.6,0,1.2,0,1.8,0
				c0.8,0,1.5-0.7,1.5-1.5C111.7,12.4,111,11.8,110.2,11.8L110.2,11.8z"/>
		</g>
	</g>
	<g>
		<g>
			<path class="st2" d="M137.1,12.6c2.5,0.7,5.1,1,7.7,0.7c1.9-0.2,1.9-3.2,0-3c-2.3,0.3-4.6,0.1-6.9-0.5
				C136,9.2,135.2,12.1,137.1,12.6L137.1,12.6z"/>
		</g>
	</g>
	<g>
		<g>
			<path class="st2" d="M143.3,11c-0.6,1-1.5,1.8-2.1,2.8c-0.6,0.9-1.1,2-1.6,3c-0.9,1.7,1.7,3.2,2.6,1.5c0.5-1,1-2.1,1.6-3
				c0.7-1,1.5-1.8,2.1-2.8C147,10.8,144.4,9.3,143.3,11L143.3,11z"/>
		</g>
	</g>
	<g>
		<g>
			<path class="st2" d="M142.4,17.2c0-1.1-0.3-2.1-1-3c-0.3-0.3-0.5-0.6-0.7-0.9c-0.2-0.4-0.7-0.8-0.8-1.1c-0.6,0.7-1.1,1.5-1.7,2.2
				c0.9,0.3,1.8,0.6,2.7,0.9c1.8,0.6,2.6-2.3,0.8-2.9c-0.9-0.3-1.8-0.6-2.7-0.9c-1.4-0.4-2.2,1.1-1.7,2.2c0.2,0.3,0.4,0.6,0.7,0.8
				c0.2,0.3,0.4,0.6,0.6,0.9c0.4,0.6,0.9,0.9,0.8,1.7C139.3,19.2,142.3,19.2,142.4,17.2L142.4,17.2z"/>
		</g>
	</g>
	<g>
		<g>
			<path class="st2" d="M158.6,10.7c1.9,0,1.9-3,0-3C156.6,7.7,156.6,10.7,158.6,10.7L158.6,10.7z"/>
		</g>
	</g>
	<g>
		<g>
			<path class="st2" d="M152,12.7c1.9,0,1.9-3,0-3S150.1,12.7,152,12.7L152,12.7z"/>
		</g>
	</g>
	<g>
		<g>
			<path class="st2" d="M152.6,12.8c0.8,0,1.6,0,2.3-0.3s1.4-0.6,2.2-0.9c1.8-0.6,1-3.5-0.8-2.9c-1.3,0.4-2.4,1.1-3.7,1.1
				C150.6,9.7,150.6,12.7,152.6,12.8L152.6,12.8z"/>
		</g>
	</g>
	<g>
		<g>
			<path class="st2" d="M156.2,18.4c1.9,0,1.9-3,0-3S154.3,18.4,156.2,18.4L156.2,18.4z"/>
		</g>
	</g>
	<g>
		<g>
			<path class="st2" d="M157.5,16.3c-0.1-1.4,0.2-2.8-0.4-4.1c-0.3-0.8-1-1.3-1.8-1c-0.7,0.2-1.4,1.1-1,1.8c0.4,1.1,0.2,2.2,0.3,3.3
				c0.1,0.8,0.6,1.5,1.5,1.5C156.8,17.8,157.6,17.1,157.5,16.3L157.5,16.3z"/>
		</g>
	</g>
	<g>
		<g>
			<path class="st2" d="M158.3,15.3c0-0.7,0-1.4,0-2.1c0-0.3,0-0.7,0.1-1c0-0.1,0.2-0.5,0.1-0.4c-0.8-0.2-1.7-0.4-2.5-0.7
				c0,0.1,0,0.1,0.1,0.2c0.6,1.8,3.5,1.1,2.9-0.8c0-0.1,0-0.1-0.1-0.2c-0.3-1.1-1.7-1.5-2.5-0.7c-1.3,1.3-1.1,3.9-1.1,5.6
				C155.4,17.3,158.4,17.3,158.3,15.3L158.3,15.3z"/>
		</g>
	</g>
	<g>
		<g>
			<path class="st2" d="M156.7,14.6c-0.3-0.7-0.7-1.3-1.2-1.9c-0.2-0.3-0.4-0.6-0.7-0.8c-0.1-0.1-0.3-0.3-0.5-0.4
				c0,0-0.4-0.2-0.3-0.1c-0.6-0.5-1.5-0.6-2.1,0c-0.5,0.5-0.6,1.6,0,2.1c0.2,0.2,0.5,0.3,0.7,0.4c0.1,0.1,0.4,0.4,0.5,0.6
				c0.4,0.5,0.7,1,1,1.6c0.4,0.7,1.4,0.9,2.1,0.5C156.9,16.2,157.1,15.3,156.7,14.6L156.7,14.6z"/>
		</g>
	</g>
	<g>
		<g>
			<path class="st2" d="M127.1,17.7c1.9,0,1.9-3,0-3C125.2,14.7,125.2,17.7,127.1,17.7L127.1,17.7z"/>
		</g>
	</g>
	<g>
		<g>
			<path class="st2" d="M130.2,12.3c1.9,0,1.9-3,0-3C128.2,9.3,128.2,12.3,130.2,12.3L130.2,12.3z"/>
		</g>
	</g>
	<g>
		<g>
			<path class="st2" d="M129.5,8.7c-1.4-0.4-2.7-0.7-4.1-1.1c-0.1,0.1-0.2,0.1-0.3,0.1c-0.6,0-1.3-0.1-1.9-0.2
				c-0.9,0.6-1,2.4,0.4,2.7c1.7,0.4,3.4,0.9,5.1,1.4C130.6,12.1,131.4,9.2,129.5,8.7z"/>
		</g>
	</g>
	<g>
		<g>
			<path class="st2" d="M123,9.8c0.6,2.1,1.8,3.9,2.4,6c0.6,1.8,3.5,1,2.9-0.8c-0.7-2.1-1.9-3.9-2.4-6C125.3,7.1,122.5,7.9,123,9.8
				L123,9.8z"/>
		</g>
	</g>
	<g>
		<g>
			<path class="st2" d="M126.7,17C126.8,17,126.8,17,126.7,17c-0.3-0.3-0.6-0.7-1-1v0.1c0.2,0.8,1.1,1.3,1.8,1c0.9-0.2,1.2-1,1-1.8
				c0-0.1,0-0.1,0-0.2c0,0.3,0,0.5,0,0.8c0.1-0.5,0.5-0.9,0.7-1.4c0.3-0.5,0.7-1,1-1.5c0.4-0.5,0.2-1.4-0.2-1.8
				c-0.3-0.3-0.5-0.4-0.9-0.5c-0.2,0-0.4-0.1-0.6-0.1h0.1c-1-1.7-3.6-0.2-2.6,1.5c0.3,0.5,0.6,0.8,1.1,1.1c0.2,0.1,0.5,0.2,0.7,0.3
				c0.1,0,0.8,0.1,0.5,0c-0.2-0.1-0.4-0.3-0.7-0.4l0.1,0.1c-0.1-0.6-0.2-1.2-0.2-1.8c-0.9,1.3-2.3,2.9-2,4.6c1-0.3,1.9-0.5,2.9-0.8
				v-0.1c-0.1-0.5-0.6-0.9-1-1h-0.1C125.7,13.6,124.9,16.5,126.7,17L126.7,17z"/>
		</g>
	</g>
	<g>
		<g>
			<path class="st2" d="M90.4,12.2c1.9,0,1.9-3,0-3S88.4,12.2,90.4,12.2L90.4,12.2z"/>
		</g>
	</g>
	<g>
		<g>
			<path class="st2" d="M96.1,13.1c1.9,0,1.9-3,0-3S94.2,13.1,96.1,13.1L96.1,13.1z"/>
		</g>
	</g>
	<g>
		<g>
			<path class="st2" d="M93.1,18.5c1.9,0,1.9-3,0-3S91.2,18.5,93.1,18.5L93.1,18.5z"/>
		</g>
	</g>
	<g>
		<g>
			<path class="st2" d="M94.7,17c-0.1-1.6-0.1-3.2,0.1-4.8c0.1-0.8-0.2-1.6-1-1.8c-0.7-0.2-1.7,0.2-1.8,1c-0.3,1.9-0.4,3.7-0.3,5.6
				C91.8,18.9,94.8,18.9,94.7,17L94.7,17z"/>
		</g>
	</g>
	<g>
		<g>
			<path class="st2" d="M92,12.6c0.8,0.1,1.5,0.2,2.3,0.2c0.8,0.1,1.5-0.8,1.5-1.5c0-0.9-0.7-1.4-1.5-1.5S92.8,9.6,92,9.6
				c-0.8-0.1-1.5,0.8-1.5,1.5C90.5,12,91.1,12.5,92,12.6L92,12.6z"/>
		</g>
	</g>
	<g>
		<g>
			<path class="st2" d="M95.2,11.3c-0.5,0.4-0.9,0.7-1.2,1.3c-0.1,0.2-0.2,0.4-0.3,0.5c0,0.1-0.1,0.2-0.1,0.2
				c-0.2,0.3,0.2-0.2-0.1,0.1c-0.5,0.6-0.6,1.5,0,2.1c0.5,0.5,1.6,0.6,2.1,0c0.3-0.4,0.6-0.7,0.8-1.1c0.1-0.2,0.2-0.3,0.3-0.5
				c0,0,0.2-0.3,0.1-0.1c-0.1,0.1,0.2-0.2,0,0c0.7-0.5,1-1.3,0.5-2.1C96.8,11.2,95.8,10.8,95.2,11.3L95.2,11.3z"/>
		</g>
	</g>
	<g>
		<g>
			<path class="st2" d="M94,17c1.9,0,1.9-3,0-3S92.1,17,94,17L94,17z"/>
		</g>
	</g>
	<g>
		<g>
			<path class="st2" d="M94.1,14.4c-0.2-0.4-0.3-0.8-0.5-1.3c-0.1-0.3-0.2-0.5-0.4-0.8C93.1,12.2,93,12.1,93,12
				c-0.1-0.1-0.1-0.2-0.1-0.1c0,0.1,0.1,0.3,0,0c-0.1-0.8-1.1-1.2-1.8-1c-0.8,0.2-1.2,1-1,1.8c0.1,0.3,0.2,0.6,0.4,0.9
				c0.1,0.1,0.2,0.2,0.2,0.3c0.1,0.1,0.1,0.2,0.1,0.1c-0.1-0.1,0.1,0.2,0,0.1c0.2,0.6,0.4,1.3,0.7,1.9C92.4,17.6,95,16.1,94.1,14.4
				L94.1,14.4z"/>
		</g>
	</g>
	<g>
		<g>
			<path class="st2" d="M56.3,13.4c1.9,0,1.9-3,0-3C54.4,10.4,54.4,13.4,56.3,13.4L56.3,13.4z"/>
		</g>
	</g>
	<g>
		<g>
			<path class="st2" d="M63.2,13.3c1.9,0,1.9-3,0-3C61.3,10.3,61.2,13.3,63.2,13.3L63.2,13.3z"/>
		</g>
	</g>
	<g>
		<g>
			<path class="st2" d="M59.7,19.1c1.9,0,1.9-3,0-3C57.7,16.1,57.7,19.1,59.7,19.1L59.7,19.1z"/>
		</g>
	</g>
	<g>
		<g>
			<path class="st2" d="M61.2,17.6c0-1.6,0-3.3,0-4.9c-0.1-1.9-3.1-1.9-3,0c0.1,1.6,0.1,3.3,0,4.9C58.1,19.5,61.1,19.5,61.2,17.6
				L61.2,17.6z"/>
		</g>
	</g>
	<g>
		<g>
			<path class="st2" d="M58.2,14c1.3,0,2.7,0.1,4-0.1c0.8-0.2,1.2-1.1,1-1.8c-0.2-0.8-1-1.2-1.8-1c-0.4,0.1-1,0-1.4,0
				c-0.6,0-1.1,0-1.7,0C56.2,11,56.2,14,58.2,14L58.2,14z"/>
		</g>
	</g>
	<g>
		<g>
			<path class="st2" d="M61.4,12.5c-0.3,0.4-0.5,0.8-0.8,1.2c-0.1,0.2-0.2,0.4-0.4,0.6c-0.1,0.1-0.1,0.2-0.2,0.3
				c-0.1,0.2-0.1,0.2,0.2-0.2c-0.7,0.4-0.9,1.4-0.5,2.1c0.4,0.7,1.3,0.9,2.1,0.5c0.6-0.3,0.9-1,1.2-1.5s0.6-1,1-1.5
				c0.5-0.7,0.1-1.7-0.5-2.1C62.7,11.5,61.8,11.9,61.4,12.5L61.4,12.5z"/>
		</g>
	</g>
	<g>
		<g>
			<path class="st2" d="M60.6,16.2c-0.5-0.7-0.9-1.4-1.1-2.2c-0.2-0.8-0.3-1.6-0.9-2.2c-0.6-0.6-2-0.6-2.4,0.3
				c-0.4,0.8-0.4,1.5,0,2.2c0.9,1.7,3.5,0.2,2.6-1.5c0,0.1,0.1,0.1,0.1,0.2c-0.1,0.3-0.1,0.5-0.2,0.8c0-0.1,0.1-0.1,0.1-0.2
				c-0.8,0.1-1.6,0.2-2.4,0.3c-0.1-0.2-0.1-0.2,0,0.1c0,0.2,0.1,0.3,0.1,0.5c0.1,0.4,0.2,0.7,0.3,1.1c0.3,0.8,0.7,1.5,1.1,2.1
				C59.1,19.3,61.7,17.8,60.6,16.2L60.6,16.2z"/>
		</g>
	</g>
	<g>
		<g>
			<path class="st2" d="M22.7,12.5c1.9,0,1.9-3,0-3C20.8,9.5,20.8,12.5,22.7,12.5L22.7,12.5z"/>
		</g>
	</g>
	<g>
		<g>
			<path class="st2" d="M28.5,11.4c1.9,0,1.9-3,0-3S26.6,11.4,28.5,11.4L28.5,11.4z"/>
		</g>
	</g>
	<g>
		<g>
			<path class="st2" d="M25.7,17.7c1.9,0,1.9-3,0-3C23.8,14.7,23.8,17.7,25.7,17.7L25.7,17.7z"/>
		</g>
	</g>
	<g>
		<g>
			<path class="st2" d="M27.2,16.2c0-0.8,0.1-1.6,0-2.4C27.1,13,27,12.2,27,11.3c0.1-0.8-0.7-1.5-1.5-1.5c-0.9,0-1.4,0.7-1.5,1.5
				s0.1,1.6,0.2,2.5c0,0.8,0,1.6,0,2.4C24.1,18.2,27.1,18.2,27.2,16.2L27.2,16.2z"/>
		</g>
	</g>
	<g>
		<g>
			<path class="st2" d="M24.4,12.5c1,0.1,1.9-0.1,2.9-0.3c-0.3,0-0.5,0-0.8,0h0.1c-0.3-0.2-0.6-0.5-0.9-0.7c0,0,0,0.1,0.1,0.1
				c-0.1-0.3-0.1-0.5-0.2-0.8c0.1,0.9-0.3,1.9-0.8,2.7c-1,1.7,1.6,3.2,2.6,1.5c0.4-0.7,0.7-1.4,0.9-2.2c0.2-0.7,0.4-1.7,0.2-2.4
				c-0.3-0.9-1.2-1.4-2.1-1.2c-0.7,0.2-1.3,0.3-2.1,0.2c-0.8-0.1-1.5,0.7-1.5,1.5C22.9,11.9,23.6,12.5,24.4,12.5L24.4,12.5z"/>
		</g>
	</g>
	<g>
		<g>
			<path class="st2" d="M26.7,14.3c-0.1-0.2-0.1,0-0.1-0.2c0-0.1-0.1-0.2-0.1-0.3c-0.1-0.4-0.2-0.7-0.4-1c-0.3-0.6-0.7-1.1-1.1-1.6
				c-0.9-0.9-2.6-0.2-2.6,1.1c0,0.7,0.2,1.2,0.6,1.8c0.1,0.2,0.2,0.3,0.3,0.5c0,0,0.1,0.4,0.1,0.3c0.1,0.8,0.6,1.5,1.5,1.5
				c0.7,0,1.6-0.7,1.5-1.5c-0.1-0.6-0.2-1.1-0.5-1.7c-0.1-0.3-0.3-0.5-0.5-0.7c-0.2-0.3-0.1-0.2-0.1-0.1c-0.9,0.4-1.7,0.7-2.6,1.1
				c0.3,0.3,0.5,0.6,0.6,0.9c0.2,0.5,0.3,1.1,0.6,1.5c0.5,0.7,1.3,1,2.1,0.5C26.8,16,27.2,15,26.7,14.3L26.7,14.3z"/>
		</g>
	</g>
</g>
<g id="Layer_5">
	<g>
		<g>
			<path class="st3" d="M1.8,6.5c2.7,0.9,5.6,1.5,8.4,2s5.7,0.8,8.6,0.8s5.7-0.2,8.5-0.8s5.5-1.6,8-3l0,0c0.1-0.1,0.3-0.1,0.4,0
				c3.7,1.3,7.5,2.3,11.4,2.9c3.9,0.6,7.8,1,11.7,1.4c1.9,0.2,3.9,0.3,5.8,0.3c1.9,0,3.9-0.2,5.8-0.4c3.8-0.5,7.6-1.5,11.1-3.2l0,0
				c0.2-0.1,0.4-0.1,0.5,0c3,1.2,6.3,2.1,9.5,2.7c1.6,0.3,3.3,0.4,4.9,0.5l1.2,0.1c0.4,0,0.8,0,1.2,0c0.8,0,1.6,0.1,2.5,0.1
				c3.3,0.1,6.6-0.2,9.8-0.7c3.2-0.6,6.3-1.7,9.3-3.1l0,0c0.2-0.1,0.3-0.1,0.5,0c3.2,1.2,6.5,2,9.9,2.6c3.4,0.5,6.7,1,10.1,1.3
				c3.4,0.2,6.8,0.1,10.1-0.4c3.4-0.5,6.6-1.4,9.8-2.7l0,0c0.2-0.1,0.4,0,0.5,0.2s0,0.4-0.2,0.5c-3.1,1.6-6.4,2.8-9.9,3.4
				c-3.4,0.6-7,0.8-10.5,0.7c-3.5-0.2-7-0.6-10.4-1.4c-3.4-0.8-6.7-1.8-10-3h0.5l-2.3,1.1c-0.4,0.2-0.8,0.4-1.2,0.5L116.4,9
				c-0.8,0.3-1.6,0.6-2.4,0.8l-2.5,0.6c-0.8,0.2-1.7,0.3-2.5,0.5c-0.8,0.1-1.7,0.3-2.5,0.3l-2.5,0.2h-2.5c-0.9,0-1.7-0.1-2.5-0.1
				s-1.7-0.1-2.5-0.3c-1.7-0.2-3.3-0.6-5-1c-1.8-0.2-3.5-0.5-5.1-1c-1.6-0.4-3.2-0.9-4.9-1.4H82c-1.8,0.9-3.6,1.8-5.6,2.3
				c-1.9,0.6-3.9,1-5.9,1.3s-4,0.4-6,0.5s-4,0.1-6,0c-4-0.2-8-0.9-11.8-1.9s-7.7-2-11.5-3.3h0.4C33,8,30.2,9.1,27.4,9.8
				c-2.9,0.6-5.9,0.9-8.8,0.9c-2.9-0.1-5.9-0.4-8.8-1C7.1,9,4.3,8.2,1.5,7.2C1.3,7.1,1.2,6.9,1.3,6.7C1.4,6.5,1.6,6.4,1.8,6.5
				L1.8,6.5z"/>
		</g>
		<g>
			<path class="st3" d="M5.2,7.7C6,9.1,6.5,10.6,7,12.1s1.1,3,1.8,4.3c0.1,0.1,0.3,0.3,0.2,0.3s-0.1,0,0,0s0.1-0.1,0.2-0.1
				c0.3-0.3,0.5-0.6,0.7-0.9c0.4-0.6,0.8-1.3,1.2-2.1c0.6-1.4,1.4-2.8,2.2-4.2c0.1-0.1,0.2-0.2,0.3-0.1c0.1,0.1,0.1,0.2,0.1,0.3
				c-0.6,1.5-1.2,2.9-2.1,4.3c-0.4,0.7-0.8,1.4-1.3,2c-0.2,0.3-0.4,0.7-0.7,1c-0.1,0.1-0.1,0.2-0.3,0.3c-0.1,0.1-0.3,0.2-0.6,0.2
				c-0.1,0-0.1,0-0.2-0.1l-0.1-0.1c-0.1-0.1-0.1-0.1-0.1-0.1c-0.1-0.1-0.1-0.2-0.2-0.3c-0.9-1.4-1.4-2.9-2.1-4.4s-1.1-3-1.4-4.6
				c0-0.1,0.1-0.3,0.2-0.3C5,7.5,5.2,7.6,5.2,7.7z"/>
		</g>
		<g>
			<path class="st3" d="M20.8,9.5c0.9,1.5,1.8,3,2.5,4.6c0.4,0.8,0.8,1.5,1.3,2.3c0.2,0.4,0.5,0.7,0.8,1c0.1,0.2,0.3,0.3,0.4,0.4
				s0,0-0.1,0l0.1-0.1c0.4-0.6,0.8-1.5,1.2-2.2c0.4-0.8,0.7-1.6,1-2.4c0.6-1.6,1.3-3.3,2.1-4.8c0.1-0.1,0.2-0.2,0.3-0.1
				c0.1,0.1,0.1,0.2,0.1,0.3c-0.4,1.7-1,3.4-1.7,5c-0.8,1.6-1.3,3.2-2.4,4.8c-0.1,0.1-0.2,0.2-0.4,0.3c-0.1,0.1-0.4,0.1-0.4,0
				c-0.1-0.1-0.2-0.1-0.2-0.1c-0.2-0.2-0.3-0.4-0.5-0.6c-0.3-0.4-0.5-0.8-0.7-1.1c-0.5-0.8-0.9-1.5-1.4-2.3c-1-1.5-1.8-3.1-2.4-4.7
				c-0.1-0.1,0-0.3,0.1-0.3C20.6,9.3,20.7,9.4,20.8,9.5z"/>
		</g>
		<g>
			<path class="st3" d="M98.6,10.5c-0.7,1.6-1.5,3.2-2.4,4.7c-0.5,0.7-0.9,1.5-1.4,2.3c-0.2,0.4-0.5,0.8-0.7,1.1
				c-0.1,0.2-0.3,0.4-0.5,0.6c-0.1,0.1-0.1,0.1-0.2,0.1c-0.1,0.1-0.3,0-0.4,0c-0.2-0.1-0.3-0.2-0.4-0.3c-1.1-1.5-1.7-3.2-2.4-4.8
				c-0.7-1.6-1.3-3.3-1.7-5c0-0.1,0.1-0.3,0.2-0.3s0.2,0,0.3,0.1c0.8,1.6,1.5,3.2,2.1,4.8c0.3,0.8,0.6,1.6,1,2.4
				c0.4,0.8,0.7,1.6,1.2,2.2c0,0.1,0.1,0.1,0.1,0.1c-0.1,0-0.2,0-0.1,0c0.1-0.1,0.3-0.3,0.4-0.4c0.3-0.3,0.5-0.7,0.8-1
				c0.5-0.7,0.9-1.5,1.3-2.3c0.7-1.6,1.6-3.1,2.5-4.6c0.1-0.1,0.2-0.2,0.3-0.1C98.6,10.2,98.7,10.4,98.6,10.5z"/>
		</g>
		<g>
			<path class="st3" d="M71.9,10.5c1.3,1.4,2.4,2.9,3.5,4.5c0.5,0.8,1.1,1.5,1.7,2.3c0.3,0.3,0.6,0.7,0.9,1l0.1,0.1l0,0l0,0H78
				c-0.1,0-0.1,0.1-0.1,0l0,0c0.1-0.1,0.2-0.3,0.3-0.5c0.8-1.7,1.4-3.5,1.8-5.4s0.9-3.7,1.5-5.5c0-0.1,0.2-0.2,0.3-0.2
				C82,6.8,82,6.9,82,7c-0.3,1.9-0.7,3.8-1.3,5.6c-0.6,1.8-1,3.7-1.7,5.5c-0.1,0.2-0.2,0.5-0.4,0.7c0,0.1-0.1,0.1-0.2,0.2
				c0,0.1-0.5,0.2-0.5,0.1c-0.1,0-0.2-0.1-0.3-0.1c-0.1-0.1-0.1-0.1-0.2-0.1c-0.4-0.4-0.7-0.7-1-1.1c-0.6-0.7-1.2-1.5-1.8-2.2
				c-1.2-1.5-2.3-3.1-3.2-4.8c-0.1-0.1,0-0.3,0.1-0.3C71.7,10.4,71.8,10.4,71.9,10.5z"/>
		</g>
		<g>
			<path class="st3" d="M150.2,10.5c1.2,1.5,2.3,3,3.3,4.5c0.5,0.8,1.1,1.5,1.7,2.2c0.3,0.3,0.6,0.7,1,1c0.1,0.1,0.2,0.2,0.2,0.2
				l0,0h-0.1l0,0c0.1-0.1,0.2-0.3,0.3-0.5c0.7-1.7,1.2-3.5,1.7-5.3c0.4-1.8,1-3.6,1.7-5.4c0-0.1,0.2-0.2,0.3-0.1
				c0.1,0,0.2,0.2,0.2,0.3c-0.2,1.9-0.6,3.7-1.2,5.5c-0.6,1.8-1.1,3.6-1.9,5.4c-0.1,0.2-0.2,0.4-0.5,0.7c-0.1,0-0.1,0.1-0.2,0.1
				c-0.1,0-0.2,0-0.3,0s-0.2-0.1-0.3-0.1c-0.2-0.1-0.2-0.2-0.3-0.3c-0.4-0.4-0.7-0.7-0.9-1.1c-0.6-0.7-1.2-1.5-1.8-2.2
				c-1.2-1.4-2.3-3-3.2-4.6c-0.1-0.1,0-0.3,0.1-0.3C150,10.4,150.1,10.4,150.2,10.5z"/>
		</g>
		<g>
			<path class="st3" d="M54.6,10.7c0.9,1.4,1.7,2.9,2.4,4.4c0.3,0.8,0.8,1.5,1.2,2.2c0.2,0.3,0.5,0.7,0.7,1c0.1,0.2,0.3,0.3,0.4,0.5
				c0.1,0.1,0.1,0.1,0.2,0.2c0.1,0.1,0.1,0.1,0.1,0.1c-0.1,0-0.1,0,0-0.1c0.1,0,0.1-0.1,0.2-0.2c0.1-0.1,0.3-0.3,0.4-0.4
				c0.3-0.3,0.5-0.7,0.7-1c0.5-0.7,0.9-1.4,1.3-2.1c0.8-1.5,1.7-2.9,2.8-4.2c0.1-0.1,0.2-0.1,0.3,0c0.1,0.1,0.1,0.2,0.1,0.3
				C64.8,13,64,14.5,63,15.9L61.6,18c-0.2,0.3-0.5,0.7-0.8,1c-0.1,0.2-0.3,0.3-0.5,0.5c-0.1,0.1-0.2,0.2-0.3,0.2
				c-0.1,0.1-0.2,0.2-0.6,0.2c-0.3-0.1-0.4-0.2-0.5-0.3c-0.1-0.1-0.2-0.2-0.2-0.3c-0.1-0.2-0.3-0.4-0.4-0.5
				c-0.2-0.4-0.5-0.7-0.7-1.1c-0.4-0.7-0.8-1.5-1.3-2.2c-0.9-1.4-1.7-2.9-2.3-4.5c-0.1-0.1,0-0.3,0.1-0.3
				C54.4,10.5,54.5,10.6,54.6,10.7z"/>
		</g>
		<g>
			<path class="st3" d="M136,10.5c1,1.4,1.8,2.8,2.6,4.3c0.4,0.7,0.8,1.5,1.2,2.2c0.2,0.4,0.4,0.7,0.7,1c0.1,0.2,0.2,0.3,0.4,0.5
				c0.1,0.1,0.1,0.1,0.2,0.2c0,0.1,0.1,0.1,0.1,0.1c-0.1,0,0,0,0,0c0.1,0,0.1-0.1,0.2-0.2c0.1-0.1,0.3-0.3,0.4-0.4
				c0.3-0.3,0.5-0.6,0.8-1c0.5-0.7,1-1.4,1.3-2.1c0.8-1.5,1.7-2.9,2.6-4.3c0.1-0.1,0.2-0.1,0.3-0.1c0.1,0.1,0.1,0.2,0.1,0.3
				c-0.7,1.5-1.5,3-2.5,4.4c-0.5,0.7-1,1.4-1.4,2.1c-0.2,0.4-0.5,0.7-0.7,1.1c-0.1,0.2-0.3,0.3-0.4,0.5c-0.1,0.1-0.2,0.2-0.3,0.3
				c-0.1,0.1-0.2,0.2-0.6,0.2c-0.3-0.1-0.4-0.2-0.5-0.3c-0.1-0.1-0.2-0.2-0.3-0.3c-0.1-0.2-0.3-0.3-0.4-0.5
				c-0.3-0.4-0.5-0.7-0.7-1.1l-1.3-2.2c-0.9-1.4-1.6-3-2.2-4.6c0-0.1,0-0.3,0.2-0.3C135.8,10.4,135.9,10.4,136,10.5z"/>
		</g>
		<g>
			<path class="st3" d="M103.5,10.7c1.1,1.4,2.1,2.9,3,4.4c0.5,0.8,0.9,1.5,1.5,2.2c0.3,0.4,0.5,0.7,0.8,1c0.1,0.2,0.3,0.3,0.4,0.3
				c0,0-0.2,0-0.1,0c0,0,0.1-0.1,0.2-0.2c1-1.3,1.8-3,2.5-4.6c0.6-1.7,1.3-3.3,2.2-4.9c0.1-0.1,0.2-0.2,0.3-0.1
				c0.1,0.1,0.2,0.2,0.1,0.3c-0.5,1.7-1.2,3.4-2,4.9c-0.4,0.8-0.8,1.6-1.2,2.4c-0.4,0.8-0.7,1.6-1.3,2.4c-0.1,0.1-0.1,0.2-0.3,0.3
				c-0.1,0.1-0.1,0.1-0.3,0.2c-0.1,0.1-0.3,0-0.4,0c-0.3-0.2-0.5-0.3-0.6-0.5c-0.3-0.3-0.6-0.7-0.9-1.1c-0.5-0.7-1.1-1.5-1.6-2.2
				c-1-1.5-1.9-3-2.6-4.7c-0.1-0.1,0-0.3,0.1-0.3C103.3,10.6,103.4,10.6,103.5,10.7z"/>
		</g>
		<g>
			<path class="st3" d="M48,9.3c-0.6,1.8-1.5,3.5-2.5,5.1c-0.5,0.8-1,1.6-1.5,2.4c-0.3,0.4-0.5,0.8-0.9,1.2c-0.1,0-0.1,0.1-0.2,0.2
				c-0.1,0.1-0.3,0.1-0.5,0c-0.3-0.1-0.3-0.2-0.4-0.4c-0.2-0.2-0.3-0.4-0.4-0.6c-0.9-1.7-1.4-3.5-2.3-5.2c-0.8-1.7-1.4-3.5-1.9-5.3
				c0-0.1,0-0.3,0.2-0.3c0.1,0,0.2,0,0.3,0.1c0.8,1.7,1.5,3.4,2.1,5.2s1.4,3.5,2.3,5c0.1,0.2,0.2,0.4,0.4,0.5
				c0.1,0.1,0.1,0.1,0.1,0.1h-0.1l0,0c0,0,0,0,0.1-0.1c0.3-0.3,0.5-0.7,0.8-1c0.5-0.8,1-1.6,1.4-2.4c0.8-1.7,1.8-3.3,2.8-4.8
				c-0.2,0-0.1,0,0.1,0.1C48,9.1,48,9.2,48,9.3z"/>
		</g>
		<g>
			<path class="st3" d="M132.4,9.7c-0.7,1.7-1.6,3.4-2.6,5c-0.5,0.8-1,1.6-1.5,2.4c-0.3,0.4-0.5,0.8-0.9,1.2c0,0-0.1,0.1-0.2,0.2
				s-0.2,0.1-0.4,0c-0.2-0.1-0.3-0.2-0.4-0.3c-0.2-0.2-0.3-0.4-0.4-0.6c-1-1.7-1.6-3.4-2.4-5.1s-1.4-3.5-1.8-5.3
				c0-0.1,0.1-0.3,0.2-0.3s0.2,0,0.3,0.1c0.9,1.7,1.6,3.4,2.2,5.1s1.4,3.5,2.2,5.1c0.1,0.2,0.2,0.4,0.3,0.6c0,0.1,0.1,0.1,0.1,0.1
				H127l0,0c0,0,0,0,0.1-0.1c0.3-0.3,0.6-0.6,0.8-1c0.5-0.8,1-1.6,1.4-2.4c0.8-1.7,1.7-3.3,2.7-4.9c0.1-0.1,0.2-0.2,0.3-0.1
				C132.5,9.5,132.5,9.6,132.4,9.7z"/>
		</g>
		<g>
			<path class="st3" d="M4.1,7.3L4.1,7.3c0-0.1,0-0.2,0-0.3c0-0.2,0-0.3,0-0.5v-1c0-0.3,0-0.7-0.2-0.9c0.1-0.2,0-0.3,0-0.3H3.8
				c-0.1,0-0.1,0-0.2,0C3.3,4.4,3,4.5,3,4.8C2.9,5.1,3,5.4,3.1,5.7l0.5,0.9C3.7,6.8,4,7.2,4.1,7.3z M4.1,7.6c-0.9-0.4-1.3-1-1.5-1.8
				c0-0.3-0.1-0.7,0-1.1c0-0.4,0.4-0.8,0.8-0.9c0.1,0,0.2-0.1,0.3-0.1s0.3,0,0.4,0.1c0.3,0.1,0.4,0.4,0.5,0.5
				c0.2,0.4,0.2,0.8,0.3,1.1c0,0.4,0.1,0.8,0,1.1c0,0.2-0.1,0.4-0.2,0.5c0,0.1-0.1,0.2-0.2,0.3C4.4,7.5,4.4,7.6,4.1,7.6z"/>
		</g>
		<g>
			<path class="st3" d="M4.5,7.7C4.2,7.6,4.2,7.4,4.2,7.3s0-0.2,0-0.3c0-0.2,0-0.4,0-0.6c0.1-0.4,0.3-0.7,0.5-1
				C4.9,5,5.1,4.7,5.4,4.5c0.2-0.1,0.4-0.3,0.7-0.3c0.1,0,0.3,0.1,0.4,0.1c0.1,0.1,0.2,0.1,0.2,0.2C7,4.8,7.2,5.3,7.1,5.7
				C7,6.1,6.8,6.4,6.5,6.7C6,7.3,5.4,7.7,4.5,7.7z M4.6,7.3c0.2,0,0.6-0.2,0.8-0.4l0.8-0.6c0.3-0.2,0.5-0.5,0.5-0.8S6.6,5,6.4,4.8
				c-0.1,0-0.1-0.1-0.2-0.1H6.1C6,4.8,5.9,4.8,5.8,4.9C5.6,5.1,5.4,5.4,5.3,5.7L4.9,6.6C4.8,6.8,4.7,6.9,4.7,7.1
				C4.7,7.1,4.6,7.2,4.6,7.3C4.6,7.3,4.6,7.4,4.6,7.3z"/>
		</g>
		<g>
			<path class="st3" d="M158.8,7.7L158.8,7.7c0-0.1-0.1-0.2-0.1-0.3c-0.1-0.1-0.1-0.3-0.2-0.4l-0.3-1c-0.1-0.3-0.3-0.6-0.5-0.8
				c-0.1-0.1-0.2-0.2-0.3-0.2h-0.1c-0.1,0-0.1,0.1-0.2,0.1c-0.2,0.2-0.4,0.4-0.4,0.7c0,0.3,0.2,0.6,0.5,0.8l0.8,0.6
				C158.3,7.5,158.7,7.7,158.8,7.7z M159,8c-0.9,0-1.6-0.4-2-1c-0.2-0.3-0.5-0.6-0.6-1s0.1-0.9,0.4-1.2c0.1-0.1,0.2-0.1,0.2-0.2
				c0.1-0.1,0.3-0.1,0.4-0.1c0.3,0,0.5,0.2,0.7,0.3c0.3,0.3,0.5,0.6,0.7,0.9s0.4,0.7,0.4,1c0,0.2,0,0.4,0,0.6c0,0.1,0,0.2,0,0.3
				C159.2,7.7,159.2,7.9,159,8z"/>
		</g>
		<g>
			<path class="st3" d="M159.3,7.9c-0.3,0-0.3-0.2-0.4-0.2c-0.1-0.1-0.1-0.2-0.2-0.3c-0.1-0.2-0.2-0.4-0.2-0.6
				c-0.1-0.4-0.1-0.8,0-1.1c0.1-0.4,0.1-0.7,0.3-1.1c0.1-0.2,0.2-0.4,0.5-0.5c0.1-0.1,0.3-0.1,0.4-0.1c0.1,0,0.2,0.1,0.3,0.1
				c0.4,0.1,0.8,0.5,0.8,0.9c0.1,0.4,0,0.8-0.1,1.2C160.6,6.9,160.2,7.5,159.3,7.9z M159.3,7.5c0.2,0,0.4-0.4,0.6-0.7l0.5-0.8
				c0.2-0.3,0.2-0.6,0.1-0.9c-0.1-0.3-0.3-0.4-0.6-0.5c-0.1,0-0.1,0-0.2,0h-0.1c-0.1,0-0.1,0.1-0.2,0.2c-0.1,0.3-0.2,0.6-0.2,0.9v1
				c0,0.2,0,0.3,0,0.5C159.3,7.3,159.3,7.4,159.3,7.5L159.3,7.5z"/>
		</g>
	</g>
</g>
<g id="Layer_6">
	<g>
		<g>
			<path class="st4" d="M48.2,5.3C48.1,6,48,6.3,47.9,7c-0.4-0.1-0.6-0.1-1.1-0.2C47.3,4.9,47.5,3.9,48,2c0.7,0.2,1,0.2,1.7,0.4
				c0.5,0.1,0.8,0.3,1.1,0.7C51,3.5,51.1,3.9,51,4.4s-0.3,0.8-0.7,1.1c-0.4,0.2-0.8,0.3-1.3,0.2C48.7,5.4,48.5,5.3,48.2,5.3z
				 M48.4,4.5c0.3,0.1,0.4,0.1,0.7,0.2c0.2,0,0.4,0,0.5-0.1s0.2-0.3,0.3-0.5c0-0.2,0-0.4,0-0.6c-0.1-0.2-0.2-0.3-0.4-0.3
				C49.2,3,49,3,48.8,2.9C48.6,3.6,48.6,3.9,48.4,4.5z"/>
			<path class="st4" d="M53,6.1c-0.2,0-0.3,0-0.5-0.1c-0.1,0.7-0.2,1.1-0.3,1.8c-0.4-0.1-0.7-0.1-1.1-0.2c0.3-2,0.5-2.9,0.8-4.9
				c0.6,0.1,1,0.2,1.6,0.2C54,3,54.4,3.2,54.6,3.5c0.2,0.3,0.3,0.7,0.3,1.2C54.8,5.4,54.5,5.8,54,6c0.3,0.9,0.4,1.3,0.7,2.1l0,0
				C54.2,8,54,8,53.5,8C53.3,7.2,53.2,6.8,53,6.1z M52.6,5.2c0.2,0,0.4,0.1,0.6,0.1c0.2,0,0.4,0,0.5-0.1s0.2-0.3,0.2-0.5
				c0.1-0.5-0.1-0.8-0.5-0.8c-0.2,0-0.4,0-0.6-0.1C52.7,4.3,52.6,4.6,52.6,5.2z"/>
			<path class="st4" d="M59.2,6.4c0,0.7-0.2,1.2-0.6,1.5c-0.4,0.4-0.8,0.5-1.5,0.5c-0.6,0-1.1-0.3-1.4-0.7c-0.3-0.4-0.4-0.9-0.4-1.6
				c0-0.3,0-0.5,0.1-0.8c0.1-0.7,0.3-1.2,0.6-1.6c0.4-0.4,0.8-0.5,1.4-0.5c0.6,0,1,0.2,1.3,0.6s0.5,0.9,0.4,1.6
				C59.2,5.8,59.2,6,59.2,6.4z M58.2,5.5c0-0.4,0-0.8-0.1-1s-0.3-0.3-0.6-0.4c-0.3,0-0.5,0.1-0.6,0.3c-0.1,0.2-0.2,0.5-0.3,0.9
				c0,0.4,0,0.5-0.1,0.9c0,0.4,0,0.8,0.1,1s0.3,0.3,0.6,0.4c0.3,0,0.5-0.1,0.6-0.3c0.1-0.2,0.2-0.5,0.3-0.9S58.2,5.8,58.2,5.5z"/>
			<path class="st4" d="M61.7,3.4c0.4,0,0.6,0,1,0c0,1.4,0.1,2.1,0.1,3.4c0,0.5-0.1,0.9-0.4,1.2c-0.3,0.3-0.7,0.5-1.1,0.5
				c-0.5,0-0.9-0.1-1.2-0.4c-0.3-0.3-0.4-0.7-0.4-1.1c0.4,0,0.6,0,1.1,0c0,0.5,0.2,0.7,0.5,0.7s0.5-0.3,0.5-0.8
				C61.7,5.5,61.7,4.8,61.7,3.4z"/>
			<path class="st4" d="M66.3,6c-0.7,0.1-1,0.1-1.7,0.1c0,0.5,0,0.8,0.1,1.3c0.8-0.1,1.2-0.1,2-0.2c0,0.3,0,0.5,0.1,0.8
				c-1.3,0.1-1.9,0.2-3.1,0.2c-0.1-2-0.1-3-0.2-5c1.1-0.1,1.7-0.1,2.9-0.2c0,0.3,0,0.5,0.1,0.8c-0.8,0.1-1.1,0.1-1.9,0.2
				c0,0.5,0,0.7,0.1,1.2c0.7,0,1-0.1,1.6-0.1C66.3,5.5,66.3,5.7,66.3,6z"/>
			<path class="st4" d="M70.9,5.9c0.1,0.6,0,1-0.3,1.4c-0.3,0.3-0.7,0.6-1.3,0.6c-0.6,0.1-1.1,0-1.5-0.4c-0.4-0.3-0.6-0.8-0.7-1.5
				c0-0.3-0.1-0.5-0.1-0.8c-0.1-0.7,0-1.2,0.3-1.6S68,3,68.5,2.9s1,0,1.3,0.3s0.6,0.7,0.7,1.2c-0.4,0.1-0.6,0.1-1,0.2
				c-0.1-0.3-0.2-0.6-0.3-0.7c-0.1-0.1-0.3-0.2-0.6-0.1c-0.3,0-0.5,0.2-0.5,0.4C68,4.4,68,4.7,68,5.1s0.1,0.6,0.1,0.9
				c0.1,0.5,0.2,0.8,0.3,1c0.1,0.2,0.4,0.2,0.6,0.2c0.3,0,0.5-0.1,0.6-0.3c0.1-0.1,0.1-0.4,0.1-0.7C70.2,6,70.4,6,70.9,5.9z"/>
			<path class="st4" d="M74.2,2.7C73.7,2.8,73.5,2.9,73,3c0.4,1.6,0.5,2.4,0.9,4c-0.4,0.1-0.7,0.1-1.1,0.2c-0.3-1.6-0.5-2.4-0.8-4.1
				c-0.5,0.1-0.7,0.1-1.2,0.2c-0.1-0.3-0.1-0.5-0.1-0.8c1.3-0.1,2-0.3,3.3-0.6C74.1,2.2,74.2,2.4,74.2,2.7z"/>
		</g>
	</g>
	<g>
		<g>
			<path class="st4" d="M91.5,7c-0.2,0.2-0.5,0.3-0.9,0.3c-0.3,0-0.7,0-1,0c-0.6-0.1-1.1-0.4-1.3-0.8c-0.3-0.4-0.3-1-0.2-1.6
				c0.1-0.3,0.1-0.5,0.2-0.9c0.2-0.7,0.4-1.1,0.8-1.4s0.9-0.4,1.4-0.3c0.5,0.1,0.9,0.3,1.1,0.6C92,3.2,92.1,3.6,92,4.2
				c-0.4-0.1-0.6-0.1-1-0.2c0-0.3,0-0.5-0.1-0.7c-0.1-0.1-0.2-0.2-0.5-0.3c-0.2,0-0.4,0-0.6,0.2s-0.3,0.5-0.4,0.9S89.3,4.6,89.2,5
				s-0.1,0.8,0,1s0.3,0.4,0.6,0.5c0.2,0,0.4,0,0.5,0h0.1c0.1-0.4,0.1-0.5,0.2-0.9c-0.3-0.1-0.4-0.1-0.7-0.1C90,5,90.1,4.9,90.1,4.6
				c0.7,0.1,1.1,0.2,1.8,0.3C91.8,5.7,91.7,6.1,91.5,7z"/>
			<path class="st4" d="M94.9,7c-0.6-0.1-0.9-0.1-1.5-0.2c-0.2,0.4-0.3,0.6-0.4,1c-0.5-0.1-0.7-0.1-1.2-0.2c1-1.9,1.5-2.8,2.4-4.7
				C94.6,3,94.8,3,95.2,3c0.4,2.1,0.6,3.1,1.1,5.1c-0.5,0-0.7-0.1-1.2-0.1C95,7.6,95,7.4,94.9,7z M93.8,6c0.4,0.1,0.6,0.1,1,0.1
				c-0.1-0.7-0.2-1.1-0.3-1.8C94.2,5,94.1,5.3,93.8,6z"/>
			<path class="st4" d="M97.9,7.4c0.8,0,1.1,0.1,1.9,0.1c0,0.3,0,0.5,0,0.8c-1.2,0-1.8-0.1-3-0.2c0.2-2,0.2-3,0.4-5
				c0.4,0,0.6,0,1,0.1C98.1,5,98.1,5.8,97.9,7.4z"/>
			<path class="st4" d="M101.6,7.6c0.8,0,1.1,0,1.9,0c0,0.3,0,0.5,0,0.8c-1.2,0-1.8,0-3,0c0-2,0.1-3,0.1-5c0.4,0,0.6,0,1,0
				C101.6,5.1,101.6,5.9,101.6,7.6z"/>
			<path class="st4" d="M106.8,6c-0.7,0.1-1,0.1-1.7,0.1c0,0.5,0,0.8,0.1,1.3c0.8,0,1.2-0.1,2-0.2c0,0.3,0,0.5,0.1,0.8
				c-1.3,0.1-1.9,0.2-3.1,0.2c-0.1-2-0.1-3-0.2-5c1.1,0,1.7-0.1,2.9-0.2c0,0.3,0,0.5,0.1,0.8c-0.8,0.1-1.1,0.1-1.9,0.1
				c0,0.5,0,0.7,0.1,1.2c0.7,0,1-0.1,1.6-0.1C106.7,5.5,106.8,5.7,106.8,6z"/>
			<path class="st4" d="M109.3,6.1c-0.2,0-0.3,0-0.5,0.1c0.1,0.7,0.1,1.1,0.2,1.8c-0.4,0.1-0.7,0.1-1.1,0.1c-0.2-2-0.3-3-0.5-4.9
				c0.6-0.1,1-0.1,1.6-0.2c0.5-0.1,0.9,0,1.2,0.2c0.3,0.2,0.5,0.6,0.6,1c0.1,0.7-0.1,1.2-0.5,1.5c0.5,0.7,0.7,1.1,1.3,1.9l0,0
				c-0.5,0.1-0.7,0.1-1.2,0.2C110,7.1,109.7,6.7,109.3,6.1z M108.7,5.3c0.2,0,0.4,0,0.6-0.1c0.2,0,0.4-0.1,0.4-0.3
				c0.1-0.1,0.1-0.3,0.1-0.6c-0.1-0.5-0.3-0.7-0.7-0.7c-0.2,0-0.4,0-0.6,0.1C108.6,4.4,108.6,4.7,108.7,5.3z"/>
			<path class="st4" d="M113.1,4.5c0.1-0.9,0.2-1.4,0.3-2.3c0.4-0.1,0.6-0.1,1.1-0.2c-0.2,1.4-0.4,2-0.7,3.4
				c0.2,0.7,0.2,1.1,0.4,1.8c-0.4,0.1-0.7,0.1-1.1,0.2c-0.1-0.7-0.2-1.1-0.3-1.8c-0.8-1.1-1.2-1.7-1.9-2.9c0.4-0.1,0.7-0.1,1.1-0.2
				C112.3,3.3,112.6,3.7,113.1,4.5z"/>
		</g>
	</g>
</g>
</svg>
