<?xml version="1.0" encoding="utf-8"?>
<!-- Generator: Adobe Illustrator 22.1.0, SVG Export Plug-In . SVG Version: 6.00 Build 0)  -->
<svg version="1.1" xmlns="http://www.w3.org/2000/svg" xmlns:xlink="http://www.w3.org/1999/xlink" x="0px" y="0px"
	 viewBox="0 0 288.1 55.4" style="enable-background:new 0 0 288.1 55.4;" xml:space="preserve">
<style type="text/css">
	.st0{fill:#29394B;}
	.st1{opacity:0.15;}
	.st2{fill:#1399AA;}
	.st3{fill:#EBEDF3;}
	.st4{font-family:'RobotoCondensed-Bold';}
	.st5{font-size:22px;}
</style>
<g id="Left_Side">
	<polygon class="st0" points="21.7,8.5 0.8,8.5 21.7,37.2 	"/>
	<polygon class="st1" points="21.7,8.5 0.8,8.5 21.7,37.2 	"/>
	<rect x="21.7" y="46.4" class="st0" width="12.5" height="9.2"/>
	<polygon class="st0" points="21.7,55.5 1,55.6 21.7,26.8 	"/>
	<polygon class="st2" points="4.3,51 26.7,51 29.1,52.5 3.2,52.5 	"/>
	<rect x="21.7" y="46.4" class="st1" width="12.5" height="9.2"/>
	<polygon class="st1" points="21.7,55.5 1,55.6 21.7,26.8 	"/>
	<polygon class="st2" points="28.5,48.1 34.2,51.4 34.2,52.8 26,48.1 	"/>
	<polygon class="st1" points="21.7,48.1 34.2,55.6 34.2,48.1 	"/>
	<polygon class="st2" points="4.5,13.6 26.9,13.6 26.9,12.1 3.4,12.1 	"/>
</g>
<g id="Right_Side">
	<polygon class="st0" points="264.3,8.5 285.2,8.5 264.3,37.1 	"/>
	<polygon class="st1" points="264.3,8.5 285.2,8.5 264.3,37.1 	"/>
	
		<rect x="251.8" y="46.3" transform="matrix(-1 -4.481982e-11 4.481982e-11 -1 516.068 101.8005)" class="st0" width="12.5" height="9.2"/>
	<polygon class="st0" points="264.3,55.5 285,55.5 264.3,26.8 	"/>
	<g>
		<g>
			<path class="st0" d="M263.8,53.1c0,0.5,0,1.1,0.1,1.6c0,0.6,1,0.6,1,0c0-0.5,0-1.1-0.1-1.6C264.7,52.4,263.7,52.4,263.8,53.1
				L263.8,53.1z"/>
		</g>
	</g>
	<g>
		<g>
			<path class="st0" d="M264.3,55.4c0.6,0,0.6-1,0-1C263.7,54.4,263.7,55.4,264.3,55.4L264.3,55.4z"/>
		</g>
	</g>
	<g>
		<g>
			<path class="st0" d="M264.3,53.5c0.6,0,0.6-1,0-1C263.7,52.5,263.6,53.5,264.3,53.5L264.3,53.5z"/>
		</g>
	</g>
	<g>
		<g>
			<path class="st0" d="M264.8,50.4c0-0.6,0-1.3,0.2-1.8c0.2-0.6-0.8-0.9-1-0.3c-0.1,0.3-0.1,0.6-0.1,0.9c-0.1,0.4-0.1,0.7-0.1,1.1
				C263.8,51.1,264.8,51.1,264.8,50.4L264.8,50.4z"/>
		</g>
	</g>
	<polygon class="st2" points="281.7,51 259.3,51 256.8,52.5 282.8,52.5 	"/>
	
		<rect x="251.8" y="46.3" transform="matrix(-1 -4.481982e-11 4.481982e-11 -1 516.068 101.8005)" class="st1" width="12.5" height="9.2"/>
	<polygon class="st1" points="264.3,55.5 285,55.5 264.3,26.8 	"/>
	<polygon class="st2" points="257.5,48 251.8,51.3 251.8,52.7 260,48 	"/>
	<polygon class="st1" points="264.3,48 251.8,55.5 251.8,48 	"/>
	<polygon class="st2" points="281.5,13.6 259.1,13.6 259.1,12.1 282.6,12.1 	"/>
</g>
<g id="Middle">
	<rect x="21.7" y="1" class="st0" width="242.7" height="47"/>
	<rect x="21.7" y="5.8" class="st2" width="242.7" height="1.5"/>
	<rect x="21.7" y="40.8" class="st2" width="242.7" height="1.5"/>
	<text transform="matrix(1 0 0 1 58.2301 31.4186)" class="st3 st4 st5">PROJECT GALLERY</text>
</g>
</svg>
