<?xml version="1.0" encoding="utf-8"?>
<!-- Generator: Adobe Illustrator 22.1.0, SVG Export Plug-In . SVG Version: 6.00 Build 0)  -->
<svg version="1.1" xmlns="http://www.w3.org/2000/svg" xmlns:xlink="http://www.w3.org/1999/xlink" x="0px" y="0px"
	 viewBox="0 0 401 55.4" style="enable-background:new 0 0 401 55.4;" xml:space="preserve">
<style type="text/css">
	.st0{fill:#29394B;}
	.st1{opacity:0.15;}
	.st2{opacity:0.2;}
	.st3{fill:#1399AA;}
	.st4{fill:#EBEDF3;}
	.st5{font-family:'RobotoCondensed-Bold';}
	.st6{font-size:22px;}
</style>
<g id="Layer_2">
</g>
<g id="Layer_3">
	<rect x="71.1" y="7.3" class="st0" width="41.6" height="48.2"/>
	<polygon class="st0" points="71,7.4 35.4,7.4 71.1,31.5 	"/>
	<polygon class="st0" points="71.1,55.5 35.4,55.3 71.1,31.1 	"/>
	<rect x="70.9" y="7.5" class="st1" width="41.7" height="48.2"/>
	<polygon class="st1" points="70.8,7.1 35.2,7.1 70.9,31.3 	"/>
	<polygon class="st1" points="70.9,55.4 35.3,55.3 71,31.1 	"/>
	<polygon class="st2" points="112.3,48 94.2,48 112.3,55.5 	"/>
	<polygon class="st3" points="50.9,55.3 74.8,31.3 55.2,31.3 30,55.1 	"/>
	<polygon class="st3" points="50.9,7.4 74.8,31.4 55.2,31.4 29.9,7.6 	"/>
	
		<rect x="284.8" y="7.4" transform="matrix(-1 -4.494550e-11 4.494550e-11 -1 611.2365 62.906)" class="st0" width="41.6" height="48.2"/>
	<polygon class="st0" points="326.5,7.4 362.1,7.4 326.4,31.6 	"/>
	<polygon class="st0" points="326.4,55.5 362.1,55.3 326.4,31.2 	"/>
	
		<rect x="284.9" y="7.5" transform="matrix(-1 -4.483981e-11 4.483981e-11 -1 611.5514 63.175)" class="st1" width="41.7" height="48.2"/>
	<polygon class="st1" points="326.7,7.1 362.3,7.1 326.6,31.3 	"/>
	<polygon class="st1" points="326.6,55.5 362.2,55.3 326.5,31.1 	"/>
	<polygon class="st2" points="285.2,48 303.3,48.1 285.2,55.5 	"/>
	<polygon class="st3" points="346.6,55.3 322.7,31.3 342.3,31.3 367.5,55.2 	"/>
	<polygon class="st3" points="346.6,7.4 322.7,31.4 342.4,31.4 367.6,7.6 	"/>
</g>
<g id="Layer_4">
	<rect x="94.4" y="0.9" class="st0" width="209.4" height="47.1"/>
	<text transform="matrix(1 0 0 1 114.4617 31.5265)" class="st4 st5 st6">PROJECT GALLERY</text>
</g>
</svg>
