<?xml version="1.0" encoding="utf-8"?>
<!-- Generator: Adobe Illustrator 22.1.0, SVG Export Plug-In . SVG Version: 6.00 Build 0)  -->
<svg version="1.1" xmlns="http://www.w3.org/2000/svg" xmlns:xlink="http://www.w3.org/1999/xlink" x="0px" y="0px"
	 viewBox="0 0 401 55.4" style="enable-background:new 0 0 401 55.4;" xml:space="preserve">
<style type="text/css">
	.st0{fill:none;}
	.st1{fill:#29394B;}
	.st2{opacity:0.15;}
	.st3{fill:#1399AA;}
	.st4{fill:#EBEDF3;}
</style>
<g id="Right_Side">
</g>
<g id="Middle">
	<g>
		<rect x="376.6" y="42.3" class="st0" width="0" height="3.8"/>
		<polygon class="st0" points="376.6,40.8 376.7,40.8 376.7,36.9 376.7,26.5 376.7,13.4 376.6,13.4 		"/>
		<polygon class="st1" points="21.6,8.5 0.8,8.5 3.4,12.1 21.6,12.1 		"/>
		<polygon class="st2" points="21.6,8.5 0.8,8.5 3.4,12.1 21.6,12.1 		"/>
		<polygon class="st3" points="4.3,51 3.2,52.5 29.1,52.5 29.1,52.5 26.7,51 		"/>
		<polygon class="st2" points="4.3,51 3.2,52.5 29.1,52.5 29.1,52.5 26.7,51 		"/>
		<polygon class="st1" points="21.6,13.6 4.5,13.6 4,12.9 18,32 1,55.6 21.7,55.5 21.7,55.6 34.1,55.6 29.1,52.5 29.1,52.5 
			3.2,52.5 4.3,51 26.7,51 21.7,48.1 26,48.1 28.5,48.1 34.2,48.1 34.2,48 21.6,48 		"/>
		<polygon class="st2" points="21.6,13.6 4.5,13.6 4,12.9 18,32 1,55.6 21.7,55.5 21.7,55.6 34.1,55.6 29.1,52.5 29.1,52.5 
			3.2,52.5 4.3,51 26.7,51 21.7,48.1 26,48.1 28.5,48.1 34.2,48.1 34.2,48 21.6,48 		"/>
		<polygon class="st2" points="34.2,55.6 34.2,55.6 34.1,55.6 		"/>
		<polygon class="st1" points="21.7,48.1 26.7,51 26.7,51 29.1,52.5 34.1,55.6 34.2,55.6 34.2,52.8 26,48.1 		"/>
		<polygon class="st2" points="21.7,48.1 26.7,51 26.7,51 29.1,52.5 34.1,55.6 34.2,55.6 34.2,52.8 26,48.1 		"/>
		<polygon class="st2" points="21.7,48.1 26.7,51 26.7,51 29.1,52.5 34.1,55.6 34.2,55.6 34.2,52.8 26,48.1 		"/>
		<polygon class="st1" points="34.2,51.4 34.2,48.1 28.5,48.1 		"/>
		<polygon class="st2" points="34.2,51.4 34.2,48.1 28.5,48.1 		"/>
		<polygon class="st2" points="34.2,51.4 34.2,48.1 28.5,48.1 		"/>
		<polygon class="st3" points="26.7,51 29.1,52.5 26.7,51 		"/>
		<polygon class="st2" points="26.7,51 29.1,52.5 26.7,51 		"/>
		<polygon class="st2" points="26.7,51 29.1,52.5 26.7,51 		"/>
		<polygon class="st3" points="26,48.1 34.2,52.8 34.2,51.4 28.5,48.1 		"/>
		<polygon class="st2" points="26,48.1 34.2,52.8 34.2,51.4 28.5,48.1 		"/>
		<polygon class="st3" points="21.6,13.6 21.6,12.1 3.4,12.1 3.4,12.1 4,12.9 4.5,13.6 		"/>
		<polygon class="st1" points="397.6,8.2 376.7,8.2 376.7,11.9 394.9,11.9 		"/>
		<polygon class="st2" points="397.6,8.2 376.7,8.2 376.7,11.9 394.9,11.9 		"/>
		<polygon class="st1" points="394.3,12.7 393.8,13.4 376.7,13.4 376.7,26.5 376.7,36.9 376.7,40.8 376.7,40.8 376.7,42.3 
			376.7,42.3 376.7,46.1 376.6,46.1 376.6,47.8 376.7,47.8 376.6,47.8 376.6,48 376.3,48 371.7,50.7 394.1,50.7 395.2,52.2 
			369.2,52.2 364.2,55.3 376.7,55.3 376.7,55.2 397.4,55.3 380.4,31.7 		"/>
		<polygon class="st2" points="394.3,12.7 393.8,13.4 376.7,13.4 376.7,26.5 376.7,36.9 376.7,40.8 376.7,40.8 376.7,42.3 
			376.7,42.3 376.7,46.1 376.6,46.1 376.6,47.8 376.7,47.8 376.6,47.8 376.6,48 376.3,48 371.7,50.7 394.1,50.7 395.2,52.2 
			369.2,52.2 364.2,55.3 376.7,55.3 376.7,55.2 397.4,55.3 380.4,31.7 		"/>
		<polygon class="st3" points="395.2,52.2 394.1,50.7 371.7,50.7 369.2,52.2 		"/>
		<polygon class="st2" points="395.2,52.2 394.1,50.7 371.7,50.7 369.2,52.2 		"/>
		<polygon class="st2" points="364.2,55.3 364.2,55.3 364.2,55.3 		"/>
		<polygon class="st1" points="371.7,50.7 371.7,50.7 376.3,48 371.9,48 364.2,52.5 364.2,55.3 364.2,55.3 369.2,52.2 		"/>
		<polygon class="st2" points="371.7,50.7 371.7,50.7 376.3,48 371.9,48 364.2,52.5 364.2,55.3 364.2,55.3 369.2,52.2 		"/>
		<polygon class="st2" points="371.7,50.7 371.7,50.7 376.3,48 371.9,48 364.2,52.5 364.2,55.3 364.2,55.3 369.2,52.2 		"/>
		<polygon class="st1" points="376.7,47.8 376.6,47.8 376.6,47.8 		"/>
		<polygon class="st2" points="376.7,47.8 376.6,47.8 376.6,47.8 		"/>
		<polygon class="st2" points="376.7,47.8 376.6,47.8 376.6,47.8 		"/>
		<polygon class="st1" points="364.2,48 364.2,51.1 369.5,48 		"/>
		<polygon class="st2" points="364.2,48 364.2,51.1 369.5,48 		"/>
		<polygon class="st2" points="364.2,48 364.2,51.1 369.5,48 		"/>
		<polygon class="st3" points="369.2,52.2 371.7,50.7 371.7,50.7 		"/>
		<polygon class="st2" points="369.2,52.2 371.7,50.7 371.7,50.7 		"/>
		<polygon class="st2" points="369.2,52.2 371.7,50.7 371.7,50.7 		"/>
		<polygon class="st3" points="369.5,48 364.2,51.1 364.2,52.5 371.9,48 		"/>
		<polygon class="st2" points="369.5,48 364.2,51.1 364.2,52.5 371.9,48 		"/>
		<polygon class="st3" points="376.7,13.4 393.8,13.4 394.3,12.7 394.9,11.9 394.9,11.9 376.7,11.9 376.6,11.9 376.6,13.4 		"/>
		<path class="st1" d="M122.3,22.7c0.3-0.4,0.5-1,0.5-1.7c0-0.8-0.2-1.4-0.5-1.9c-0.3-0.5-0.8-0.7-1.4-0.7h-2.2v4.9h2.2
			C121.5,23.3,122,23.1,122.3,22.7z"/>
		<polygon class="st1" points="221.9,20 220.5,25.6 223.4,25.6 		"/>
		<path class="st1" d="M134.5,22.4c0.3-0.4,0.5-1,0.5-1.7c0-1.6-0.6-2.4-1.8-2.4h-1.8v4.7h1.8C133.7,23.1,134.2,22.9,134.5,22.4z"/>
		<path class="st1" d="M371.9,48h4.3h0.4v-0.2v0v-1.7v-3.8h-355v-1.5h355V13.4v-1.5V7.3h-355V5.8h355V1h-355v7.5v3.6v1.5V48h12.6
			h329.9h5.3H371.9z M275.6,15.8l2.4,7l2.4-7h3.4l-4.2,10v5.7h-3.2v-5.7l-4.2-10H275.6z M261.6,15.8h5c1.6,0,2.8,0.4,3.7,1.2
			s1.3,2,1.3,3.5c0,2.1-0.8,3.5-2.3,4.4l2.7,6.4v0.2h-3.4l-2.4-5.7h-1.6v5.7h-3.2V15.8z M250.8,15.8h9v2.6H254v3.7h4.9v2.5H254v4.1
			h5.8v2.6h-9V15.8z M240.3,15.8h3.2v13h5.5v2.6h-8.7V15.8z M229.7,15.8h3.2v13h5.5v2.6h-8.7V15.8z M220.5,15.8h2.9l4.9,15.6h-3.4
			l-0.8-3.2h-4.3l-0.8,3.2h-3.3L220.5,15.8z M203.5,22.3c0-2.2,0.5-3.8,1.4-5s2.3-1.7,4.1-1.7c1.7,0,3,0.4,3.8,1.3
			c0.9,0.8,1.4,2.2,1.5,3.9h-3.1c-0.1-1-0.3-1.7-0.6-2c-0.3-0.4-0.8-0.5-1.5-0.5c-0.9,0-1.5,0.3-1.9,0.9s-0.6,1.6-0.6,3v2.8
			c0,1.4,0.2,2.5,0.6,3.1c0.4,0.6,1.1,1,2.1,1c0.6,0,1.1-0.1,1.5-0.4l0.3-0.2v-2.9H209v-2.4h5.4v6.5c-0.6,0.7-1.4,1.2-2.2,1.5
			c-0.9,0.3-1.9,0.5-2.9,0.5c-1.8,0-3.2-0.6-4.2-1.7c-1-1.1-1.5-2.7-1.5-4.9V22.3z M186.7,15.8h10.8v2.6h-3.9v13h-3.2v-13h-3.8V15.8
			z M174.8,22.3c0-2.1,0.5-3.8,1.5-5c1-1.2,2.3-1.7,4.1-1.7c1.7,0,3,0.5,3.9,1.4c0.9,1,1.4,2.3,1.5,4.1h-3.2c0-1.1-0.2-1.9-0.5-2.3
			s-0.9-0.6-1.7-0.6c-0.8,0-1.4,0.3-1.8,0.9c-0.4,0.6-0.5,1.6-0.6,2.9v3c0,1.6,0.2,2.6,0.5,3.2s0.9,0.9,1.8,0.9
			c0.8,0,1.4-0.2,1.7-0.6c0.3-0.4,0.5-1.1,0.5-2.2h3.2c-0.1,1.8-0.6,3.1-1.5,4s-2.2,1.4-3.9,1.4c-1.8,0-3.1-0.6-4.1-1.7
			c-0.9-1.2-1.4-2.8-1.4-5V22.3z M164.3,15.8h9v2.6h-5.8v3.7h4.9v2.5h-4.9v4.1h5.8v2.6h-9V15.8z M156,26.8c0,1.5,0.5,2.2,1.4,2.2
			c0.9,0,1.4-0.9,1.4-2.6V15.8h3.2v10.8c0,1.5-0.4,2.7-1.3,3.7c-0.8,0.9-1.9,1.4-3.3,1.4c-1.4,0-2.5-0.4-3.3-1.3s-1.2-2-1.2-3.6H156
			z M140,22.4c0-2.1,0.5-3.8,1.5-5c1-1.2,2.4-1.8,4.1-1.8c1.7,0,3.1,0.6,4.1,1.8c1,1.2,1.5,2.8,1.5,5V25c0,2.1-0.5,3.7-1.5,4.9
			c-1,1.2-2.4,1.7-4.1,1.7c-1.8,0-3.1-0.6-4.1-1.7c-1-1.1-1.5-2.8-1.5-4.8V22.4z M128.1,15.8h5c1.6,0,2.8,0.4,3.7,1.2
			c0.9,0.8,1.3,2,1.3,3.5c0,2.1-0.8,3.5-2.3,4.4l2.7,6.4v0.2h-3.4l-2.4-5.7h-1.6v5.7h-3.2V15.8z M115.6,15.8h5.3
			c1.5,0,2.8,0.5,3.7,1.4c0.9,1,1.4,2.2,1.4,3.7c0,1.5-0.5,2.7-1.4,3.6c-0.9,0.9-2.2,1.3-3.8,1.3h-2.1v5.5h-3.2V15.8z"/>
		<path class="st1" d="M268,22.4c0.3-0.4,0.5-1,0.5-1.7c0-1.6-0.6-2.4-1.8-2.4h-1.8v4.7h1.8C267.2,23.1,267.7,22.9,268,22.4z"/>
		<path class="st1" d="M145.7,29c0.8,0,1.4-0.3,1.8-1c0.4-0.6,0.6-1.6,0.6-2.9v-2.7c0-1.4-0.2-2.5-0.6-3.1c-0.4-0.7-1-1-1.9-1
			c-0.8,0-1.5,0.3-1.9,1c-0.4,0.7-0.6,1.7-0.6,3V25c0,1.4,0.2,2.4,0.6,3C144.2,28.7,144.8,29,145.7,29z"/>
		<polygon class="st3" points="21.7,7.3 376.6,7.3 376.7,7.3 376.7,5.8 376.6,5.8 21.7,5.8 		"/>
		<polygon class="st3" points="21.7,40.8 21.7,42.3 376.6,42.3 376.7,42.3 376.7,42.3 376.7,40.8 376.7,40.8 376.6,40.8 		"/>
		<path class="st4" d="M118.7,25.9h2.1c1.6,0,2.9-0.4,3.8-1.3c0.9-0.9,1.4-2.1,1.4-3.6c0-1.5-0.5-2.8-1.4-3.7
			c-0.9-1-2.2-1.4-3.7-1.4h-5.3v15.6h3.2V25.9z M118.7,18.4h2.2c0.6,0,1,0.2,1.4,0.7c0.3,0.5,0.5,1.1,0.5,1.9c0,0.8-0.2,1.3-0.5,1.7
			c-0.3,0.4-0.8,0.6-1.4,0.6h-2.2V18.4z"/>
		<path class="st4" d="M131.3,25.7h1.6l2.4,5.7h3.4v-0.2l-2.7-6.4c1.5-0.8,2.3-2.3,2.3-4.4c0-1.5-0.4-2.7-1.3-3.5
			c-0.9-0.8-2.1-1.2-3.7-1.2h-5v15.6h3.2V25.7z M131.3,18.4h1.8c1.2,0,1.8,0.8,1.8,2.4c0,0.7-0.2,1.3-0.5,1.7
			c-0.3,0.4-0.8,0.6-1.4,0.6h-1.8V18.4z"/>
		<path class="st4" d="M145.7,31.6c1.8,0,3.1-0.6,4.1-1.7c1-1.2,1.5-2.8,1.5-4.9v-2.7c0-2.1-0.5-3.8-1.5-5c-1-1.2-2.4-1.8-4.1-1.8
			c-1.8,0-3.2,0.6-4.1,1.8c-1,1.2-1.5,2.9-1.5,5v2.7c0,2.1,0.5,3.7,1.5,4.8C142.5,31.1,143.9,31.6,145.7,31.6z M143.2,22.2
			c0-1.4,0.2-2.4,0.6-3c0.4-0.7,1-1,1.9-1c0.8,0,1.5,0.3,1.9,1c0.4,0.7,0.6,1.7,0.6,3.1v2.7c0,1.3-0.2,2.3-0.6,2.9
			c-0.4,0.6-1,1-1.8,1c-0.9,0-1.5-0.3-1.9-1c-0.4-0.6-0.6-1.7-0.6-3V22.2z"/>
		<path class="st4" d="M157.3,31.6c1.3,0,2.4-0.5,3.3-1.4c0.8-0.9,1.3-2.1,1.3-3.7V15.8h-3.2v10.7c0,1.7-0.5,2.6-1.4,2.6
			c-0.9,0-1.4-0.7-1.4-2.2h-3.2c0,1.5,0.4,2.7,1.2,3.6S155.9,31.6,157.3,31.6z"/>
		<polygon class="st4" points="173.3,28.8 167.5,28.8 167.5,24.7 172.4,24.7 172.4,22.1 167.5,22.1 167.5,18.4 173.3,18.4 
			173.3,15.8 164.3,15.8 164.3,31.4 173.3,31.4 		"/>
		<path class="st4" d="M180.3,31.6c1.7,0,3-0.5,3.9-1.4s1.4-2.3,1.5-4h-3.2c0,1.1-0.2,1.8-0.5,2.2c-0.3,0.4-0.9,0.6-1.7,0.6
			c-0.8,0-1.4-0.3-1.8-0.9s-0.5-1.6-0.5-3.2v-3c0-1.4,0.2-2.3,0.6-2.9c0.4-0.6,0.9-0.9,1.8-0.9c0.8,0,1.4,0.2,1.7,0.6
			s0.5,1.2,0.5,2.3h3.2c-0.1-1.8-0.6-3.2-1.5-4.1c-0.9-1-2.2-1.4-3.9-1.4c-1.7,0-3.1,0.6-4.1,1.7c-1,1.2-1.5,2.8-1.5,5v2.6
			c0,2.2,0.5,3.8,1.4,5C177.2,31.1,178.5,31.6,180.3,31.6z"/>
		<polygon class="st4" points="190.5,31.4 193.6,31.4 193.6,18.4 197.5,18.4 197.5,15.8 186.7,15.8 186.7,18.4 190.5,18.4 		"/>
		<path class="st4" d="M209.2,31.6c1.1,0,2-0.2,2.9-0.5c0.9-0.3,1.6-0.8,2.2-1.5v-6.5H209v2.4h2.2v2.9l-0.3,0.2
			c-0.4,0.3-0.9,0.4-1.5,0.4c-1,0-1.7-0.3-2.1-1c-0.4-0.6-0.6-1.7-0.6-3.1v-2.8c0-1.4,0.2-2.4,0.6-3s1-0.9,1.9-0.9
			c0.7,0,1.2,0.2,1.5,0.5c0.3,0.4,0.5,1,0.6,2h3.1c-0.1-1.8-0.6-3.1-1.5-3.9c-0.9-0.8-2.1-1.3-3.8-1.3c-1.8,0-3.2,0.6-4.1,1.7
			s-1.4,2.8-1.4,5v2.8c0,2.1,0.5,3.7,1.5,4.9C206,31.1,207.4,31.6,209.2,31.6z"/>
		<path class="st4" d="M219.8,28.2h4.3l0.8,3.2h3.4l-4.9-15.6h-2.9l-4.9,15.6h3.3L219.8,28.2z M221.9,20l1.5,5.6h-2.9L221.9,20z"/>
		<polygon class="st4" points="238.4,28.8 232.9,28.8 232.9,15.8 229.7,15.8 229.7,31.4 238.4,31.4 		"/>
		<polygon class="st4" points="249,28.8 243.4,28.8 243.4,15.8 240.3,15.8 240.3,31.4 249,31.4 		"/>
		<polygon class="st4" points="259.8,28.8 254,28.8 254,24.7 258.9,24.7 258.9,22.1 254,22.1 254,18.4 259.8,18.4 259.8,15.8 
			250.8,15.8 250.8,31.4 259.8,31.4 		"/>
		<path class="st4" d="M264.8,25.7h1.6l2.4,5.7h3.4v-0.2l-2.7-6.4c1.5-0.8,2.3-2.3,2.3-4.4c0-1.5-0.4-2.7-1.3-3.5s-2.1-1.2-3.7-1.2
			h-5v15.6h3.2V25.7z M264.8,18.4h1.8c1.2,0,1.8,0.8,1.8,2.4c0,0.7-0.2,1.3-0.5,1.7c-0.3,0.4-0.8,0.6-1.4,0.6h-1.8V18.4z"/>
		<polygon class="st4" points="276.4,31.4 279.6,31.4 279.6,25.7 283.8,15.8 280.3,15.8 278,22.8 275.6,15.8 272.2,15.8 276.4,25.7 
					"/>
	</g>
</g>
</svg>
