<?xml version="1.0" encoding="utf-8"?>
<!-- Generator: Adobe Illustrator 22.1.0, SVG Export Plug-In . SVG Version: 6.00 Build 0)  -->
<svg version="1.1" xmlns="http://www.w3.org/2000/svg" xmlns:xlink="http://www.w3.org/1999/xlink" x="0px" y="0px"
	 viewBox="0 0 450 82" style="enable-background:new 0 0 450 82;" xml:space="preserve">
<style type="text/css">
	.st0{fill:#29394B;}
	.st1{opacity:0.25;}
	.st2{fill:#EBEDF3;}
	.st3{fill:#E14658;}
	.st4{font-family:'RobotoCondensed-Bold';}
	.st5{font-size:22px;}
</style>
<g id="Left_Side">
	<polygon class="st0" points="70.5,25 49.6,25 70.5,53.6 	"/>
	<polygon class="st1" points="70.5,25 49.6,25 70.5,53.6 	"/>
	<rect x="70.5" y="62.8" class="st0" width="12.5" height="9.2"/>
	<polygon class="st0" points="70.5,72 49.8,72 70.5,43.3 	"/>
	<polygon class="st2" points="53.1,67.5 75.5,67.5 77.9,69 52,69 	"/>
	<rect x="70.5" y="62.8" class="st1" width="12.5" height="9.2"/>
	<polygon class="st1" points="70.5,72 49.8,72 70.5,43.3 	"/>
	<polygon class="st2" points="77.3,64.5 83,67.8 83,69.2 74.8,64.5 	"/>
	<polygon class="st1" points="70.5,64.5 83,72 83,64.5 	"/>
	<polygon class="st2" points="53.3,30.1 75.7,30.1 75.7,28.6 52.2,28.6 	"/>
</g>
<g id="Right_Side">
	<polygon class="st0" points="312.6,25 333.6,25 312.6,53.6 	"/>
	<polygon class="st1" points="312.6,25 333.6,25 312.6,53.6 	"/>
	
		<rect x="300.1" y="62.8" transform="matrix(-1 -4.481982e-11 4.481982e-11 -1 612.7714 134.7742)" class="st0" width="12.5" height="9.2"/>
	<polygon class="st0" points="312.6,72 333.4,72 312.6,43.3 	"/>
	<polygon class="st2" points="330.1,67.5 307.7,67.5 305.2,69 331.2,69 	"/>
	
		<rect x="300.1" y="62.8" transform="matrix(-1 -4.481982e-11 4.481982e-11 -1 612.7714 134.7742)" class="st1" width="12.5" height="9.2"/>
	<polygon class="st1" points="312.6,72 333.4,72 312.6,43.3 	"/>
	<polygon class="st2" points="305.9,64.5 300.1,67.8 300.1,69.2 308.3,64.5 	"/>
	<polygon class="st1" points="312.6,64.5 300.1,72 300.1,64.5 	"/>
	<polygon class="st2" points="329.8,30.1 307.4,30.1 307.4,28.6 330.9,28.6 	"/>
</g>
<g id="Middle">
	<rect x="70.7" y="17.5" class="st0" width="242.7" height="47"/>
	<rect x="70.5" y="22.3" class="st2" width="242.7" height="1.5"/>
	<rect x="70.5" y="57.3" class="st2" width="242.7" height="1.5"/>
	<text transform="matrix(1 0 0 1 107.2366 47.9317)" class="st3 st4 st5">PROJECT GALLERY</text>
</g>
</svg>
