<?xml version="1.0" encoding="utf-8"?>
<!-- Generator: Adobe Illustrator 22.1.0, SVG Export Plug-In . SVG Version: 6.00 Build 0)  -->
<svg version="1.1" xmlns="http://www.w3.org/2000/svg" xmlns:xlink="http://www.w3.org/1999/xlink" x="0px" y="0px"
	 viewBox="0 0 401 61.2" style="enable-background:new 0 0 401 61.2;" xml:space="preserve">
<style type="text/css">
	.st0{fill:#CCCCCC;}
	.st1{fill:#29394B;}
	.st2{opacity:0.15;}
	.st3{opacity:0.2;}
	.st4{fill:#1399AA;}
	.st5{fill:#EBEDF3;}
</style>
<g id="Layer_5">
	<polygon class="st0" points="72.2,9.5 72.2,10 72.2,9.6 35.9,9.6 71.9,33.5 35.6,57.7 72.2,57.6 72.2,57.7 114.7,57.7 114.7,9.5 	
		"/>
	<polygon class="st0" points="74,34.2 74,34.2 73.9,34.2 50,10.2 28.9,10.2 54.3,34.2 29.5,57.7 50.5,57.7 74,34.2 74,34.2 	"/>
	<polygon class="st0" points="325.4,9.3 325.4,9.7 325.4,9.3 361.9,9.3 325.7,33.2 362.2,57.4 325.4,57.3 325.4,57.4 282.7,57.4 
		282.7,9.3 	"/>
	<polygon class="st0" points="323.8,34 323.7,33.9 323.9,33.9 347.7,9.9 368.9,9.9 343.4,33.9 368.2,57.4 347.3,57.4 323.8,34 
		323.8,34 	"/>
	<rect x="94.1" y="2.9" class="st0" width="209.4" height="47.1"/>
</g>
<g id="Layer_3">
	<polygon class="st1" points="71.1,7.3 71.1,7.8 71.1,7.4 35.5,7.4 70.8,31.3 35.4,55.2 71.1,55.4 71.1,55.5 112.7,55.5 112.7,7.3 	
		"/>
	<path class="st2" d="M70.8,7.2v0.1c0,0,0,0-0.1,0l0-0.3H35.1L70.5,31L35.2,54.9l35.6,0.2v0.3h41.7V7.2H70.8z"/>
	<polygon class="st3" points="112.3,48 94.2,48 112.3,55.5 	"/>
	<polygon class="st4" points="74.8,31.4 74.8,31.3 74.7,31.3 50.8,7.3 29.7,7.3 55.1,31.4 29.8,55.3 50.9,55.3 74.8,31.4 74.8,31.4 
			"/>
	<polygon class="st1" points="326.9,31.3 362.2,7.3 326.7,7.3 326.7,7.3 284.8,7.1 284.8,55.3 326.4,55.3 326.4,55.3 362.2,55.1 	
		"/>
	<polygon class="st2" points="362.3,7.3 326.7,7.3 326.7,8.3 326.7,8.3 326.7,7.3 284.9,7.1 284.9,55.2 326.4,55.3 362.2,55.2 
		326.8,31.2 	"/>
	<polygon class="st3" points="285.2,48 303.3,48.1 285.2,55.5 	"/>
	<polygon class="st4" points="367.9,7.3 346.7,7.3 322.8,31.3 322.7,31.3 322.7,31.4 322.7,31.4 322.7,31.4 346.5,55.3 367.7,55.3 
		342.4,31.4 	"/>
</g>
<g id="Layer_4">
	<rect x="94.1" y="0.9" class="st1" width="209.4" height="47.1"/>
	<g>
		<path class="st5" d="M118.9,26v5.5h-3.2V15.9h5.3c1.5,0,2.8,0.5,3.7,1.4c0.9,1,1.4,2.2,1.4,3.7c0,1.5-0.5,2.7-1.4,3.6
			c-0.9,0.9-2.2,1.3-3.8,1.3H118.9z M118.9,23.4h2.2c0.6,0,1.1-0.2,1.4-0.6c0.3-0.4,0.5-1,0.5-1.7c0-0.8-0.2-1.4-0.5-1.9
			c-0.3-0.5-0.8-0.7-1.4-0.7h-2.2V23.4z"/>
		<path class="st5" d="M133,25.8h-1.6v5.7h-3.2V15.9h5c1.6,0,2.8,0.4,3.7,1.2c0.9,0.8,1.3,2,1.3,3.5c0,2.1-0.8,3.5-2.3,4.4l2.7,6.4
			v0.2h-3.4L133,25.8z M131.4,23.2h1.8c0.6,0,1.1-0.2,1.4-0.6c0.3-0.4,0.5-1,0.5-1.7c0-1.6-0.6-2.4-1.8-2.4h-1.8V23.2z"/>
		<path class="st5" d="M151.4,25.1c0,2.1-0.5,3.7-1.5,4.9c-1,1.2-2.4,1.7-4.1,1.7c-1.8,0-3.1-0.6-4.1-1.7c-1-1.1-1.5-2.8-1.5-4.8
			v-2.7c0-2.1,0.5-3.8,1.5-5c1-1.2,2.4-1.8,4.1-1.8c1.7,0,3.1,0.6,4.1,1.8c1,1.2,1.5,2.8,1.5,5V25.1z M148.3,22.5
			c0-1.4-0.2-2.5-0.6-3.1c-0.4-0.7-1-1-1.9-1c-0.8,0-1.5,0.3-1.9,1c-0.4,0.7-0.6,1.7-0.6,3v2.8c0,1.4,0.2,2.4,0.6,3
			c0.4,0.6,1,1,1.9,1c0.8,0,1.4-0.3,1.8-1c0.4-0.6,0.6-1.6,0.6-2.9V22.5z"/>
		<path class="st5" d="M158.8,15.9h3.2v10.8c0,1.5-0.4,2.7-1.3,3.7c-0.8,0.9-1.9,1.4-3.3,1.4c-1.4,0-2.5-0.4-3.3-1.3
			c-0.8-0.9-1.2-2-1.2-3.6h3.2c0,1.5,0.5,2.2,1.4,2.2c0.9,0,1.4-0.9,1.4-2.6V15.9z"/>
		<path class="st5" d="M172.6,24.8h-4.9v4.1h5.8v2.6h-9V15.9h9v2.6h-5.8v3.7h4.9V24.8z"/>
		<path class="st5" d="M185.9,26.3c-0.1,1.8-0.6,3.1-1.5,4c-0.9,0.9-2.2,1.4-3.9,1.4c-1.8,0-3.1-0.6-4.1-1.7c-0.9-1.2-1.4-2.8-1.4-5
			v-2.6c0-2.1,0.5-3.8,1.5-5c1-1.2,2.3-1.7,4.1-1.7c1.7,0,3,0.5,3.9,1.4c0.9,1,1.4,2.3,1.5,4.1h-3.2c0-1.1-0.2-1.9-0.5-2.3
			s-0.9-0.6-1.7-0.6c-0.8,0-1.4,0.3-1.8,0.9c-0.4,0.6-0.5,1.6-0.6,2.9v3c0,1.6,0.2,2.6,0.5,3.2c0.3,0.6,0.9,0.9,1.8,0.9
			c0.8,0,1.4-0.2,1.7-0.6c0.3-0.4,0.5-1.1,0.5-2.2H185.9z"/>
		<path class="st5" d="M197.6,18.5h-3.9v13h-3.2v-13h-3.8v-2.6h10.8V18.5z"/>
		<path class="st5" d="M214.5,29.8c-0.6,0.7-1.4,1.2-2.2,1.5c-0.9,0.3-1.9,0.5-2.9,0.5c-1.8,0-3.2-0.6-4.2-1.7
			c-1-1.1-1.5-2.7-1.5-4.9v-2.8c0-2.2,0.5-3.8,1.4-5c0.9-1.2,2.3-1.7,4.1-1.7c1.7,0,3,0.4,3.8,1.3c0.9,0.8,1.4,2.2,1.5,3.9h-3.1
			c-0.1-1-0.3-1.7-0.6-2c-0.3-0.4-0.8-0.5-1.5-0.5c-0.9,0-1.5,0.3-1.9,0.9s-0.6,1.6-0.6,3V25c0,1.4,0.2,2.5,0.6,3.1
			c0.4,0.6,1.1,1,2.1,1c0.6,0,1.1-0.1,1.5-0.4l0.3-0.2v-2.9h-2.2v-2.4h5.4V29.8z"/>
		<path class="st5" d="M224.2,28.3h-4.3l-0.8,3.2h-3.3l4.9-15.6h2.9l4.9,15.6h-3.4L224.2,28.3z M220.6,25.7h2.9l-1.5-5.6L220.6,25.7
			z"/>
		<path class="st5" d="M233,28.9h5.5v2.6h-8.7V15.9h3.2V28.9z"/>
		<path class="st5" d="M243.6,28.9h5.5v2.6h-8.7V15.9h3.2V28.9z"/>
		<path class="st5" d="M259,24.8h-4.9v4.1h5.8v2.6h-9V15.9h9v2.6h-5.8v3.7h4.9V24.8z"/>
		<path class="st5" d="M266.5,25.8h-1.6v5.7h-3.2V15.9h5c1.6,0,2.8,0.4,3.7,1.2c0.9,0.8,1.3,2,1.3,3.5c0,2.1-0.8,3.5-2.3,4.4
			l2.7,6.4v0.2h-3.4L266.5,25.8z M264.9,23.2h1.8c0.6,0,1.1-0.2,1.4-0.6s0.5-1,0.5-1.7c0-1.6-0.6-2.4-1.8-2.4h-1.8V23.2z"/>
		<path class="st5" d="M278.1,22.9l2.4-7h3.4l-4.2,10v5.7h-3.2v-5.7l-4.2-10h3.4L278.1,22.9z"/>
	</g>
</g>
</svg>
