<?xml version="1.0" encoding="utf-8"?>
<!-- Generator: Adobe Illustrator 22.1.0, SVG Export Plug-In . SVG Version: 6.00 Build 0)  -->
<svg version="1.1" xmlns="http://www.w3.org/2000/svg" xmlns:xlink="http://www.w3.org/1999/xlink" x="0px" y="0px"
	 viewBox="0 0 401 55.4" style="enable-background:new 0 0 401 55.4;" xml:space="preserve">
<style type="text/css">
	.st0{fill:#29394B;}
	.st1{opacity:0.15;}
	.st2{fill:#1399AA;}
	.st3{fill:#EBEDF3;}
</style>
<g id="Left_Side">
</g>
<g id="Right_Side">
</g>
<g id="Middle">
	<g>
		<polygon class="st0" points="21.7,8.5 0.8,8.5 3.4,12.1 21.7,12.1 		"/>
		<polygon class="st1" points="21.7,8.5 0.8,8.5 3.4,12.1 21.7,12.1 		"/>
		<polygon class="st0" points="21.7,42.3 21.7,42.3 21.7,40.8 21.7,40.8 21.7,13.6 4.5,13.6 4,12.9 18,32 1,55.6 21.7,55.5 
			21.7,55.6 34.1,55.6 29.1,52.5 29.1,52.5 3.2,52.5 4.3,51 26.7,51 21.7,48.1 26,48.1 28.5,48.1 34.2,48.1 34.2,48 21.7,48 		"/>
		<polygon class="st1" points="21.7,42.3 21.7,42.3 21.7,40.8 21.7,40.8 21.7,13.6 4.5,13.6 4,12.9 18,32 1,55.6 21.7,55.5 
			21.7,55.6 34.1,55.6 29.1,52.5 29.1,52.5 3.2,52.5 4.3,51 26.7,51 21.7,48.1 26,48.1 28.5,48.1 34.2,48.1 34.2,48 21.7,48 		"/>
		<polygon class="st2" points="4.3,51 3.2,52.5 29.1,52.5 29.1,52.5 26.7,51 		"/>
		<polygon class="st1" points="4.3,51 3.2,52.5 29.1,52.5 29.1,52.5 26.7,51 		"/>
		<polygon class="st1" points="34.2,55.6 34.2,55.6 34.1,55.6 		"/>
		<polygon class="st0" points="34.2,51.4 34.2,48.1 28.5,48.1 		"/>
		<polygon class="st1" points="34.2,51.4 34.2,48.1 28.5,48.1 		"/>
		<polygon class="st1" points="34.2,51.4 34.2,48.1 28.5,48.1 		"/>
		<polygon class="st0" points="21.7,48.1 26.7,51 26.7,51 29.1,52.5 34.1,55.6 34.2,55.6 34.2,52.8 26,48.1 		"/>
		<polygon class="st1" points="21.7,48.1 26.7,51 26.7,51 29.1,52.5 34.1,55.6 34.2,55.6 34.2,52.8 26,48.1 		"/>
		<polygon class="st1" points="21.7,48.1 26.7,51 26.7,51 29.1,52.5 34.1,55.6 34.2,55.6 34.2,52.8 26,48.1 		"/>
		<polygon class="st2" points="26.7,51 29.1,52.5 26.7,51 		"/>
		<polygon class="st1" points="26.7,51 29.1,52.5 26.7,51 		"/>
		<polygon class="st1" points="26.7,51 29.1,52.5 26.7,51 		"/>
		<polygon class="st2" points="26,48.1 34.2,52.8 34.2,51.4 28.5,48.1 		"/>
		<polygon class="st1" points="26,48.1 34.2,52.8 34.2,51.4 28.5,48.1 		"/>
		<polygon class="st2" points="21.7,13.6 21.7,12.1 3.4,12.1 3.4,12.1 4,12.9 4.5,13.6 		"/>
		<polygon class="st0" points="282.6,12.1 285.2,8.5 264.4,8.5 264.4,12.1 		"/>
		<polygon class="st1" points="282.6,12.1 285.2,8.5 264.4,8.5 264.4,12.1 		"/>
		<polygon class="st0" points="282,12.8 281.5,13.6 264.4,13.6 264.4,48 251.8,48 251.8,48 257.5,48 260,48 264.3,48 259.3,51 
			281.7,51 282.8,52.5 256.8,52.5 256.9,52.5 251.8,55.5 264.3,55.5 264.3,55.5 285,55.5 268,32 		"/>
		<polygon class="st1" points="282,12.8 281.5,13.6 264.4,13.6 264.4,48 251.8,48 251.8,48 257.5,48 260,48 264.3,48 259.3,51 
			281.7,51 282.8,52.5 256.8,52.5 256.9,52.5 251.8,55.5 264.3,55.5 264.3,55.5 285,55.5 268,32 		"/>
		<polygon class="st2" points="256.8,52.5 282.8,52.5 281.7,51 259.3,51 256.9,52.5 		"/>
		<polygon class="st1" points="256.8,52.5 282.8,52.5 281.7,51 259.3,51 256.9,52.5 		"/>
		<polygon class="st1" points="251.8,55.5 251.8,55.5 251.8,55.5 		"/>
		<polygon class="st0" points="259.3,51 259.3,51 264.3,48 260,48 251.8,52.7 251.8,55.5 251.8,55.5 256.9,52.5 		"/>
		<polygon class="st1" points="259.3,51 259.3,51 264.3,48 260,48 251.8,52.7 251.8,55.5 251.8,55.5 256.9,52.5 		"/>
		<polygon class="st1" points="259.3,51 259.3,51 264.3,48 260,48 251.8,52.7 251.8,55.5 251.8,55.5 256.9,52.5 		"/>
		<polygon class="st0" points="251.8,48 251.8,51.3 257.5,48 		"/>
		<polygon class="st1" points="251.8,48 251.8,51.3 257.5,48 		"/>
		<polygon class="st1" points="251.8,48 251.8,51.3 257.5,48 		"/>
		<polygon class="st2" points="256.9,52.5 259.3,51 259.3,51 		"/>
		<polygon class="st1" points="256.9,52.5 259.3,51 259.3,51 		"/>
		<polygon class="st1" points="256.9,52.5 259.3,51 259.3,51 		"/>
		<polygon class="st2" points="257.5,48 251.8,51.3 251.8,52.7 260,48 		"/>
		<polygon class="st1" points="257.5,48 251.8,51.3 251.8,52.7 260,48 		"/>
		<polygon class="st2" points="264.4,13.6 281.5,13.6 282,12.8 282.6,12.1 282.6,12.1 264.4,12.1 		"/>
		<path class="st0" d="M89.6,18.2c-0.8,0-1.5,0.3-1.9,1c-0.4,0.7-0.6,1.7-0.6,3V25c0,1.4,0.2,2.4,0.6,3c0.4,0.6,1,1,1.9,1
			c0.8,0,1.4-0.3,1.8-1c0.4-0.6,0.6-1.6,0.6-2.9v-2.7c0-1.4-0.2-2.5-0.6-3.1C91,18.5,90.4,18.2,89.6,18.2z"/>
		<path class="st0" d="M210.5,18.4h-1.8v4.7h1.8c0.6,0,1.1-0.2,1.4-0.6s0.5-1,0.5-1.7C212.4,19.2,211.7,18.4,210.5,18.4z"/>
		<polygon class="st0" points="164.4,25.6 167.3,25.6 165.8,20 		"/>
		<path class="st0" d="M64.8,18.4h-2.2v4.9h2.2c0.6,0,1.1-0.2,1.4-0.6c0.3-0.4,0.5-1,0.5-1.7c0-0.8-0.2-1.4-0.5-1.9
			C65.9,18.7,65.4,18.4,64.8,18.4z"/>
		<path class="st0" d="M264.4,13.6v-1.5V8.5V7.3H21.7v1.2v3.6v1.5v27.2h242.7v1.5H21.7V48h12.5h217.6h12.6V13.6z M68.5,24.6
			c-0.9,0.9-2.2,1.3-3.8,1.3h-2.1v5.5h-3.2V15.8h5.3c1.5,0,2.8,0.5,3.7,1.4c0.9,1,1.4,2.2,1.4,3.7C69.9,22.5,69.4,23.7,68.5,24.6z
			 M82.5,31.4h-3.4l-2.4-5.7h-1.6v5.7H72V15.8h5c1.6,0,2.8,0.4,3.7,1.2c0.9,0.8,1.3,2,1.3,3.5c0,2.1-0.8,3.5-2.3,4.4l2.7,6.4V31.4z
			 M95.2,25c0,2.1-0.5,3.7-1.5,4.9c-1,1.2-2.4,1.7-4.1,1.7c-1.8,0-3.1-0.6-4.1-1.7c-1-1.1-1.5-2.8-1.5-4.8v-2.7c0-2.1,0.5-3.8,1.5-5
			c1-1.2,2.4-1.8,4.1-1.8c1.7,0,3.1,0.6,4.1,1.8c1,1.2,1.5,2.8,1.5,5V25z M105.8,26.6c0,1.5-0.4,2.7-1.3,3.7
			c-0.8,0.9-1.9,1.4-3.3,1.4c-1.4,0-2.5-0.4-3.3-1.3s-1.2-2-1.2-3.6h3.2c0,1.5,0.5,2.2,1.4,2.2c0.9,0,1.4-0.9,1.4-2.6V15.8h3.2V26.6
			z M117.2,31.4h-9V15.8h9v2.6h-5.8v3.7h4.9v2.5h-4.9v4.1h5.8V31.4z M122.4,28.1c0.3,0.6,0.9,0.9,1.8,0.9c0.8,0,1.4-0.2,1.7-0.6
			c0.3-0.4,0.5-1.1,0.5-2.2h3.2c-0.1,1.8-0.6,3.1-1.5,4c-0.9,0.9-2.2,1.4-3.9,1.4c-1.8,0-3.1-0.6-4.1-1.7c-0.9-1.2-1.4-2.8-1.4-5
			v-2.6c0-2.1,0.5-3.8,1.5-5c1-1.2,2.3-1.7,4.1-1.7c1.7,0,3,0.5,3.9,1.4c0.9,1,1.4,2.3,1.5,4.1h-3.2c0-1.1-0.2-1.9-0.5-2.3
			s-0.9-0.6-1.7-0.6c-0.8,0-1.4,0.3-1.8,0.9c-0.4,0.6-0.5,1.6-0.6,2.9v3C121.9,26.5,122.1,27.6,122.4,28.1z M141.4,18.4h-3.9v13
			h-3.2v-13h-3.8v-2.6h10.8V18.4z M151.2,28c0.4,0.6,1.1,1,2.1,1c0.6,0,1.1-0.1,1.5-0.4l0.3-0.2v-2.9h-2.2v-2.4h5.4v6.5
			c-0.6,0.7-1.4,1.2-2.2,1.5c-0.9,0.3-1.9,0.5-2.9,0.5c-1.8,0-3.2-0.6-4.2-1.7c-1-1.1-1.5-2.7-1.5-4.9v-2.8c0-2.2,0.5-3.8,1.4-5
			c0.9-1.2,2.3-1.7,4.1-1.7c1.7,0,3,0.4,3.8,1.3c0.9,0.8,1.4,2.2,1.5,3.9h-3.1c-0.1-1-0.3-1.7-0.6-2c-0.3-0.4-0.8-0.5-1.5-0.5
			c-0.9,0-1.5,0.3-1.9,0.9s-0.6,1.6-0.6,3v2.8C150.6,26.4,150.8,27.4,151.2,28z M168.8,31.4l-0.8-3.2h-4.3l-0.8,3.2h-3.3l4.9-15.6
			h2.9l4.9,15.6H168.8z M182.4,31.4h-8.7V15.8h3.2v13h5.5V31.4z M192.9,31.4h-8.7V15.8h3.2v13h5.5V31.4z M203.7,31.4h-9V15.8h9v2.6
			h-5.8v3.7h4.9v2.5h-4.9v4.1h5.8V31.4z M216,31.4h-3.4l-2.4-5.7h-1.6v5.7h-3.2V15.8h5c1.6,0,2.8,0.4,3.7,1.2c0.9,0.8,1.3,2,1.3,3.5
			c0,2.1-0.8,3.5-2.3,4.4l2.7,6.4V31.4z M223.5,25.7v5.7h-3.2v-5.7l-4.2-10h3.4l2.4,7l2.4-7h3.4L223.5,25.7z"/>
		<rect x="21.7" y="1" class="st0" width="242.7" height="4.8"/>
		<path class="st0" d="M77,18.4h-1.8v4.7H77c0.6,0,1.1-0.2,1.4-0.6c0.3-0.4,0.5-1,0.5-1.7C78.9,19.2,78.2,18.4,77,18.4z"/>
		<polygon class="st2" points="264.4,7.3 264.4,5.8 264.4,5.8 21.7,5.8 21.7,5.8 21.7,7.3 21.7,7.3 264.4,7.3 		"/>
		<polygon class="st2" points="21.7,42.3 21.7,42.3 264.4,42.3 264.4,40.8 21.7,40.8 21.7,40.8 		"/>
		<path class="st3" d="M64.8,15.8h-5.3v15.6h3.2v-5.5h2.1c1.6,0,2.9-0.4,3.8-1.3c0.9-0.9,1.4-2.1,1.4-3.6c0-1.5-0.5-2.8-1.4-3.7
			C67.6,16.3,66.4,15.8,64.8,15.8z M66.2,22.7c-0.3,0.4-0.8,0.6-1.4,0.6h-2.2v-4.9h2.2c0.6,0,1,0.2,1.4,0.7c0.3,0.5,0.5,1.1,0.5,1.9
			C66.7,21.7,66.5,22.3,66.2,22.7z"/>
		<path class="st3" d="M82,20.5c0-1.5-0.4-2.7-1.3-3.5c-0.9-0.8-2.1-1.2-3.7-1.2h-5v15.6h3.2v-5.7h1.6l2.4,5.7h3.4v-0.2l-2.7-6.4
			C81.3,24,82,22.6,82,20.5z M78.4,22.4c-0.3,0.4-0.8,0.6-1.4,0.6h-1.8v-4.7H77c1.2,0,1.8,0.8,1.8,2.4C78.9,21.5,78.7,22,78.4,22.4z
			"/>
		<path class="st3" d="M89.6,15.6c-1.8,0-3.2,0.6-4.1,1.8c-1,1.2-1.5,2.9-1.5,5v2.7c0,2.1,0.5,3.7,1.5,4.8c1,1.2,2.4,1.7,4.1,1.7
			c1.8,0,3.1-0.6,4.1-1.7c1-1.2,1.5-2.8,1.5-4.9v-2.7c0-2.1-0.5-3.8-1.5-5C92.7,16.2,91.3,15.6,89.6,15.6z M92,25.1
			c0,1.3-0.2,2.3-0.6,2.9c-0.4,0.6-1,1-1.8,1c-0.9,0-1.5-0.3-1.9-1c-0.4-0.6-0.6-1.7-0.6-3v-2.8c0-1.4,0.2-2.4,0.6-3
			c0.4-0.7,1-1,1.9-1c0.8,0,1.5,0.3,1.9,1c0.4,0.7,0.6,1.7,0.6,3.1V25.1z"/>
		<path class="st3" d="M102.6,26.5c0,1.7-0.5,2.6-1.4,2.6c-0.9,0-1.4-0.7-1.4-2.2h-3.2c0,1.5,0.4,2.7,1.2,3.6s1.9,1.3,3.3,1.3
			c1.3,0,2.4-0.5,3.3-1.4c0.8-0.9,1.3-2.1,1.3-3.7V15.8h-3.2V26.5z"/>
		<polygon class="st3" points="111.4,24.7 116.3,24.7 116.3,22.1 111.4,22.1 111.4,18.4 117.2,18.4 117.2,15.8 108.2,15.8 
			108.2,31.4 117.2,31.4 117.2,28.8 111.4,28.8 		"/>
		<path class="st3" d="M122.5,19.1c0.4-0.6,0.9-0.9,1.8-0.9c0.8,0,1.4,0.2,1.7,0.6s0.5,1.2,0.5,2.3h3.2c-0.1-1.8-0.6-3.2-1.5-4.1
			c-0.9-1-2.2-1.4-3.9-1.4c-1.7,0-3.1,0.6-4.1,1.7c-1,1.2-1.5,2.8-1.5,5v2.6c0,2.2,0.5,3.8,1.4,5c0.9,1.2,2.3,1.7,4.1,1.7
			c1.7,0,3-0.5,3.9-1.4c0.9-0.9,1.4-2.3,1.5-4h-3.2c0,1.1-0.2,1.8-0.5,2.2c-0.3,0.4-0.9,0.6-1.7,0.6c-0.8,0-1.4-0.3-1.8-0.9
			c-0.3-0.6-0.5-1.6-0.5-3.2v-3C121.9,20.6,122.1,19.7,122.5,19.1z"/>
		<polygon class="st3" points="130.6,18.4 134.4,18.4 134.4,31.4 137.5,31.4 137.5,18.4 141.4,18.4 141.4,15.8 130.6,15.8 		"/>
		<path class="st3" d="M151.2,19.1c0.4-0.6,1-0.9,1.9-0.9c0.7,0,1.2,0.2,1.5,0.5c0.3,0.4,0.5,1,0.6,2h3.1c-0.1-1.8-0.6-3.1-1.5-3.9
			c-0.9-0.8-2.1-1.3-3.8-1.3c-1.8,0-3.2,0.6-4.1,1.7c-0.9,1.2-1.4,2.8-1.4,5v2.8c0,2.1,0.5,3.7,1.5,4.9c1,1.1,2.4,1.7,4.2,1.7
			c1.1,0,2-0.2,2.9-0.5c0.9-0.3,1.6-0.8,2.2-1.5v-6.5h-5.4v2.4h2.2v2.9l-0.3,0.2c-0.4,0.3-0.9,0.4-1.5,0.4c-1,0-1.7-0.3-2.1-1
			c-0.4-0.6-0.6-1.7-0.6-3.1v-2.8C150.6,20.7,150.8,19.7,151.2,19.1z"/>
		<path class="st3" d="M164.4,15.8l-4.9,15.6h3.3l0.8-3.2h4.3l0.8,3.2h3.4l-4.9-15.6H164.4z M164.4,25.6l1.5-5.6l1.5,5.6H164.4z"/>
		<polygon class="st3" points="176.8,15.8 173.7,15.8 173.7,31.4 182.4,31.4 182.4,28.8 176.8,28.8 		"/>
		<polygon class="st3" points="187.3,15.8 184.2,15.8 184.2,31.4 192.9,31.4 192.9,28.8 187.3,28.8 		"/>
		<polygon class="st3" points="197.9,24.7 202.8,24.7 202.8,22.1 197.9,22.1 197.9,18.4 203.7,18.4 203.7,15.8 194.7,15.8 
			194.7,31.4 203.7,31.4 203.7,28.8 197.9,28.8 		"/>
		<path class="st3" d="M215.5,20.5c0-1.5-0.4-2.7-1.3-3.5c-0.9-0.8-2.1-1.2-3.7-1.2h-5v15.6h3.2v-5.7h1.6l2.4,5.7h3.4v-0.2l-2.7-6.4
			C214.8,24,215.5,22.6,215.5,20.5z M211.9,22.4c-0.3,0.4-0.8,0.6-1.4,0.6h-1.8v-4.7h1.8c1.2,0,1.8,0.8,1.8,2.4
			C212.4,21.5,212.2,22,211.9,22.4z"/>
		<polygon class="st3" points="221.9,22.8 219.5,15.8 216.1,15.8 220.3,25.7 220.3,31.4 223.5,31.4 223.5,25.7 227.7,15.8 
			224.2,15.8 		"/>
	</g>
</g>
</svg>
