<?xml version="1.0" encoding="utf-8"?>
<!-- Generator: Adobe Illustrator 22.1.0, SVG Export Plug-In . SVG Version: 6.00 Build 0)  -->
<svg version="1.1" xmlns="http://www.w3.org/2000/svg" xmlns:xlink="http://www.w3.org/1999/xlink" x="0px" y="0px"
	 viewBox="0 0 450 82" style="enable-background:new 0 0 450 82;" xml:space="preserve">
<style type="text/css">
	.st0{fill:#29394B;}
	.st1{opacity:0.15;}
	.st2{fill:#1399AA;}
	.st3{fill:#EBEDF3;}
	.st4{font-family:'RobotoCondensed-Bold';}
	.st5{font-size:22px;}
</style>
<g id="Left_Side">
	<polygon class="st0" points="70.7,25 49.8,25 70.7,53.7 	"/>
	<polygon class="st1" points="70.7,25 49.8,25 70.7,53.7 	"/>
	<rect x="70.7" y="62.9" class="st0" width="12.5" height="9.2"/>
	<polygon class="st0" points="70.7,72 50,72.1 70.7,43.4 	"/>
	<polygon class="st2" points="53.3,67.5 75.7,67.5 78.2,69 52.2,69 	"/>
	<rect x="70.7" y="62.9" class="st1" width="12.5" height="9.2"/>
	<polygon class="st1" points="70.7,72 50,72.1 70.7,43.4 	"/>
	<polygon class="st2" points="77.5,64.6 83.2,67.9 83.2,69.3 75,64.6 	"/>
	<polygon class="st1" points="70.7,64.6 83.2,72.1 83.2,64.6 	"/>
	<polygon class="st2" points="53.5,30.2 75.9,30.2 75.9,28.7 52.4,28.7 	"/>
</g>
<g id="Right_Side">
	<polygon class="st0" points="313.3,25 334.2,25 313.3,53.6 	"/>
	<polygon class="st1" points="313.3,25 334.2,25 313.3,53.6 	"/>
	
		<rect x="300.8" y="62.8" transform="matrix(-1 -4.481982e-11 4.481982e-11 -1 614.0811 134.8267)" class="st0" width="12.5" height="9.2"/>
	<polygon class="st0" points="313.3,72 334,72 313.3,43.3 	"/>
	<g>
		<g>
			<path class="st0" d="M312.8,69.6c0,0.5,0,1.1,0.1,1.6c0,0.6,1,0.6,1,0c0-0.5,0-1.1-0.1-1.6C313.8,68.9,312.8,68.9,312.8,69.6
				L312.8,69.6z"/>
		</g>
	</g>
	<g>
		<g>
			<path class="st0" d="M313.3,71.9c0.6,0,0.6-1,0-1C312.7,70.9,312.7,71.9,313.3,71.9L313.3,71.9z"/>
		</g>
	</g>
	<g>
		<g>
			<path class="st0" d="M313.3,70c0.6,0,0.6-1,0-1C312.7,69,312.7,70,313.3,70L313.3,70z"/>
		</g>
	</g>
	<g>
		<g>
			<path class="st0" d="M313.8,66.9c0-0.6,0-1.3,0.2-1.8c0.2-0.6-0.8-0.9-1-0.3c-0.1,0.3-0.1,0.6-0.1,0.9c-0.1,0.4-0.1,0.7-0.1,1.1
				C312.8,67.6,313.8,67.6,313.8,66.9L313.8,66.9z"/>
		</g>
	</g>
	<polygon class="st2" points="330.7,67.5 308.3,67.5 305.8,69 331.8,69 	"/>
	
		<rect x="300.8" y="62.8" transform="matrix(-1 -4.481982e-11 4.481982e-11 -1 614.0811 134.8267)" class="st1" width="12.5" height="9.2"/>
	<polygon class="st1" points="313.3,72 334,72 313.3,43.3 	"/>
	<polygon class="st2" points="306.5,64.5 300.8,67.8 300.8,69.2 309,64.5 	"/>
	<polygon class="st1" points="313.3,64.5 300.8,72 300.8,64.5 	"/>
	<polygon class="st2" points="330.5,30.1 308.1,30.1 308.1,28.6 331.6,28.6 	"/>
</g>
<g id="Middle">
	<rect x="70.7" y="17.5" class="st0" width="242.7" height="47"/>
	<rect x="70.7" y="22.3" class="st2" width="242.7" height="1.5"/>
	<rect x="70.7" y="57.3" class="st2" width="242.7" height="1.5"/>
	<text transform="matrix(1 0 0 1 107.2366 47.9317)" class="st3 st4 st5">PROJECT GALLERY</text>
</g>
</svg>
