<?xml version="1.0" encoding="utf-8"?>
<!-- Generator: Adobe Illustrator 22.1.0, SVG Export Plug-In . SVG Version: 6.00 Build 0)  -->
<svg version="1.1" xmlns="http://www.w3.org/2000/svg" xmlns:xlink="http://www.w3.org/1999/xlink" x="0px" y="0px"
	 viewBox="0 0 377 69" style="enable-background:new 0 0 377 69;" xml:space="preserve">
<style type="text/css">
	.st0{fill:#0099AB;}
	.st1{fill:#FFFFFF;}
	.st2{fill:#EBEDF3;}
	.st3{font-family:'RobotoCondensed-Bold';}
	.st4{font-size:12px;}
</style>
<g id="Layer_1">
	<path class="st0" d="M15.9,16.5c0.3-1.8,0.4-3.6,0.4-5.4c0-1.1,0.2-3.5-1.4-3.8c-2.7-0.4-1.9,4-1,6.6c-2.2-2.5-6-6.3-7.2-2.9
		c-0.5,1.4,0.3,2.6,1.4,3.4c1.1,0.7,2.4,1,3.6,1.4c0.8,0.3,1.5,0.5,2.3,0.7c0,0-0.1,0-0.1,0.1c-0.5,0.6-1.1,1.1-1.8,1.6
		c-0.7,0.4-1.4,0.7-2.1,1.1c-0.4,0.2-0.4,1.1,0.2,1c1.7-0.3,3.3-1.7,4.2-3.1c0,0,0-0.1,0-0.1c-0.2,1-0.4,2.1-0.6,3.1
		c-0.2,0.8,1,0.9,1.2,0.2c0.3-0.9,0.5-1.8,0.6-2.7c2.9,1.9,5.8,3.6,8.8,5.3c-4.7,6.5-9.1,18.5,0.8,22.8c9.8,4.2,15.1-7,17.2-14.4
		c0,0,0,0,0-0.1c1,0.4,2.1,0.8,3.1,1.2l0.4-0.9C35.5,27.4,25.5,22.3,15.9,16.5z M11.5,14.5c-1.1-0.4-3.6-1-3.8-2.5
		c-0.2-1.4,1.2-1.2,1.9-0.6c0.7,0.5,1.3,1.1,1.9,1.7c0.8,0.7,1.5,1.5,2.2,2.3C13,15.1,12.3,14.8,11.5,14.5z M14,11.5
		c0-0.8-0.2-1.6,0.6-1.9c0.9-0.3,0.5,0.8,0.5,1.6c0,1.2-0.1,2.3-0.3,3.5C14.4,13.7,14,12.6,14,11.5z M29.8,25.5c2,1,4,1.9,6,2.8
		c-1.1,1.5-2.6,2.9-4.7,2C29.4,29.4,29.2,27.2,29.8,25.5z M41.1,30.9c-2,6.5-7,17.9-15.9,12.6c-7.8-4.6-2.9-14.4,0.4-20.2
		c1.2,0.6,2.4,1.3,3.6,1.9c-1.4,1.9-0.6,4.8,1.4,5.9c2,1.1,5.7,0.1,6-2.5c1.6,0.7,3.1,1.3,4.7,1.9C41.2,30.7,41.1,30.8,41.1,30.9z"
		/>
	<path class="st0" d="M99.4,39.9c-14.6-1.9-30.5-3.3-44.9-6.5c-3-0.7-6-1.4-9-2.3l-0.3,1c1.8,0.5,3.7,1,5.5,1.4
		c-2.9,6.3-5,17.9,4,19.9c9.5,2.1,14.8-8.7,16.1-16c2.4,0.4,4.8,0.8,7.2,1.1c-1.7,7.6-1.5,19.3,8.5,20.4c9.6,1,13.2-9.8,12.7-17.4
		c0,0,0,0,0-0.1c0.3,0,0.7,0.1,1,0.1c2.6,0.3,5.2,0.6,7.7,0.9c-2.2,7,0.7,18,9.2,18.9c9.3,1,11.2-10.4,11.3-17.1
		c0-0.3-0.1-0.5-0.3-0.7c1.2,0,2.5,0,3.7,0l0-1.7C121.2,42,110.4,41.4,99.4,39.9z M64.3,36.4c-0.4,2.2-2.6,4.1-4.9,3.4
		c-2.2-0.6-3.1-2.9-2.8-5C59.1,35.4,61.7,35.9,64.3,36.4z M69.4,37.3c-1.1,6.2-5.3,15.7-13.4,14.8c-9.1-1-5.5-12.5-4.1-18.3
		c1.3,0.3,2.6,0.6,3.9,0.9c-0.9,2.7,1,5.8,3.8,6.3c2.8,0.5,5.4-1.7,5.8-4.4c1,0.2,3,0.5,4.1,0.6C69.4,37.2,69.4,37.3,69.4,37.3z
		 M91.9,40.5c-0.4,2.3-2.6,4.3-5,3.2c-1.6-0.8-2.3-2.5-2.1-4.2C87.2,39.8,89.6,40.1,91.9,40.5z M85.8,57.2c-8.5-2-7.1-11.8-6.6-18.5
		c1.6,0.2,3.2,0.4,4.8,0.7c-0.5,2.2,0.8,4.7,2.9,5.5c2.7,1,6.2-1.3,6.2-4.2c1.7,0.2,3.3,0.4,5,0.7c-0.1,0.1-0.2,0.3-0.2,0.5
		C98.3,48.7,94.8,59.3,85.8,57.2z M120.8,43.3c0,2.2-1.6,4.4-4,4.2c-2.3-0.2-3.6-2.5-3.5-4.6C115.8,43.1,118.3,43.2,120.8,43.3z
		 M118,59.8c-8.4-0.3-9.8-11.1-9.1-17.3c1.3,0.1,2.5,0.2,3.7,0.3c-0.6,2.7,1.5,5.6,4.3,5.8c2.9,0.2,5.2-2.5,5.1-5.2
		c1.7,0.1,3.5,0.1,5.2,0.1c-0.1,0.1-0.3,0.3-0.3,0.6C126.8,49.8,126,60.1,118,59.8z"/>
	<path class="st0" d="M368.9,23.5c-2.3-0.8-4.9-1.2-7.3-1.5c1.7-0.5,3.4-1.2,4.8-2.4c1.1-1,3.5-3.2,1.8-4.8
		c-1.3-1.2-3.7-0.2-4.9,0.6c-1.7,1-3,2.6-3.6,4.4c0-1.6-0.7-3.3-1.7-4.5c-0.8-1-2.5-2.9-3.9-1.7c-1.3,1.1-0.6,3.4,0.1,4.5
		c0.9,1.5,2.4,2.7,3.9,3.6c-16.3,8.3-32.9,13.7-50.2,16.7c-0.1,0-0.2,0.1-0.4,0.1c-0.1,0-0.1,0.1-0.2,0.1c-0.2,0.1-0.4,0.1-0.6,0.2
		c-0.3,0.1-0.6,0.2-0.9,0.2c-0.4,0.1-0.7,0.3-1.1,0.3c0,0,0,0,0,0l0.2,1.3c1.5-0.2,2.9-0.5,4.4-0.7c-0.7,6.5,4.2,14.6,11.2,15.1
		c9.5,0.7,8.4-13.7,7.6-19.4c0,0,0,0,0,0c2.1-0.6,4.1-1.3,6.2-1.9c2.4,6.1,10.2,16.5,17.4,11.6c3.1-2.1,4.3-6.2,4.1-9.7
		c-0.1-2.6-0.9-7.7-3.5-9.3c2.3-1.1,4.6-2.3,6.9-3.5c0,0,0,0,0,0c1.2,1.5,2.4,3,3.7,4.4c0.4,0.5,1.2-0.2,0.8-0.7
		c-0.9-1.3-1.9-2.5-2.9-3.7c2.7,0.5,5.4,1.2,8.1,1.7C369.3,24.4,369.4,23.7,368.9,23.5z M319.7,37.6c0.3,1.7,0.6,4.6-1.8,4.7
		c-1.9,0.1-3.1-1.8-3.3-3.5C316.3,38.4,318.1,38,319.7,37.6z M319.5,53.1c-6.1-1.3-9-7.9-9.4-13.4c0,0,0-0.1,0-0.1
		c1.3-0.2,2.5-0.5,3.7-0.7c0.1,2.3,2,4.9,4.6,4.5c2.9-0.5,2.9-3.8,2.5-6.1c1.9-0.5,3.7-0.9,5.6-1.5
		C326.9,41.2,328.3,55.1,319.5,53.1z M345.5,29.1c-0.4,0.2-0.5,0.9,0,1.2c0.9,0.5,1,1.7,0.7,2.6c-0.4,1.1-1.5,1.6-2.7,1.6
		c-2,0-3.4-1.4-4.7-2.7C341,31,343.3,30.1,345.5,29.1z M354,37.9c-0.7,4.3-3.6,7.9-8.5,6.2c-5-1.7-8.1-6.4-10.3-11
		c1-0.3,1.9-0.7,2.9-1c1.6,2.5,4.8,4.7,7.8,3.1c2.3-1.2,2.6-4.6,0.3-6.1c-0.2-0.1-0.3-0.1-0.4-0.1c1.6-0.7,3.2-1.4,4.9-2.2
		c0,0,0.1,0.1,0.1,0.1C353.5,28.5,354.4,35.1,354,37.9z M354.5,15.6c-0.2-0.7,0.2-1.1,1-1.2c0.4,0.2,0.7,0.5,1,0.8
		c0.4,0.4,0.8,0.9,1.1,1.4c0.8,1.3,0.9,2.7,1,4.2C356.7,19.5,354.6,17.9,354.5,15.6z M360,21c0.5-1.3,1.2-2.5,2.1-3.4
		c0.7-0.7,1.6-1.3,2.5-1.7c1.1-0.5,1.6-1,1.8,0.6c0.2,1.4-0.1,1.5-1.3,2.4c-0.5,0.4-1.1,0.7-1.7,1C362.3,20.5,361.2,20.8,360,21z"/>
	<path class="st0" d="M215.1,45.6c-0.1-0.1-0.1-0.3,0-0.4c0-0.2,0-0.4-0.1-0.6c0-0.3-0.2-0.5-0.4-0.6c0.2,0,0.4,0,0.6-0.1
		c-0.1-0.1-0.1-0.1-0.2-0.2c0,0,0,0,0,0c-0.1,0.1-0.2,0.2-0.4,0.2c-0.2,0-0.4-0.1-0.4-0.3c0,0,0,0-0.1,0c0,0-0.1,0-0.1,0
		c-0.1,0-0.2,0-0.3-0.1c-0.1,0-0.1,0-0.1,0c0,0-0.1,0.1-0.1,0.1c-0.1,0.1-0.2,0.3-0.4,0.3c-0.2,0-0.4-0.1-0.5-0.3
		c0,0.1-0.1,0.1-0.2,0.1c-0.1,0.1-0.2,0.2-0.4,0.2c-0.3,0-0.4-0.2-0.5-0.4c0,0-0.1,0-0.1,0h-0.4c-0.1,0-0.1,0-0.2-0.1c0,0,0,0,0,0
		c-0.1,0-0.2,0-0.2,0c0,0,0,0,0,0c0,0,0,0,0,0c0.1,0,0,0,0,0c-0.1,0.1-0.2,0.1-0.3,0.1c-0.1,0-0.2,0-0.3-0.1c0,0,0,0-0.1,0
		c0,0,0,0,0,0c0,0,0,0,0,0c-0.1,0-0.1,0-0.2,0c-0.1,0-0.2,0-0.3,0c0,0,0,0-0.1,0c0,0,0,0,0,0c-0.1,0.1-0.2,0.1-0.3,0.1
		c-0.1,0-0.2,0-0.3-0.1c0,0.2-0.2,0.4-0.5,0.4c-0.3,0-0.4-0.2-0.5-0.4c0,0-0.1-0.1-0.1-0.1c-0.1,0-0.1,0-0.2,0c0,0.1,0,0.1,0,0.2
		c0,0.1-0.1,0.2-0.2,0.3c0,0-0.1,0-0.1,0c0,0,0,0-0.1,0c0,0,0,0,0,0c0,0,0,0,0,0c-0.2,0-0.3-0.1-0.4-0.2c-0.1,0.1-0.2,0.2-0.3,0.2
		c-0.2,0-0.3-0.1-0.4-0.3c-0.1,0.1-0.2,0.1-0.3,0.1c-0.2,0-0.3-0.1-0.4-0.2c0,0,0,0,0,0c0,0-0.1,0.1-0.1,0.1
		c-0.1,0.1-0.2,0.2-0.4,0.2c-0.2,0-0.4-0.1-0.5-0.3c0,0,0,0,0,0c-0.1,0-0.1,0.1-0.2,0.1c-0.1,0-0.1,0-0.1,0c-0.2,0-0.3,0-0.5,0
		c0,0,0,0-0.1,0c0,0,0,0-0.1,0c-0.1,0-0.2,0-0.3,0c0,0,0,0,0,0c0,0,0,0,0,0c-0.2,0-0.4,0-0.5,0c-0.1,0-0.2,0-0.3-0.1
		c-5.4,0.3-10.9,0.5-16.4,0.4c-14.7-0.2-30.7,0.3-45.3-1.3C137,42,133,42.5,130,42l-1,1c1.9,0.3,5.6-0.4,7.5-0.1
		c-2.2,6.6-2.9,18.4,6.3,19.3c9.7,1,13.7-10.4,14.2-17.8c2.4,0.1,4.9,0.2,7.3,0.3c-0.8,7.7,0.7,19.3,10.8,19.3
		c9.7-0.1,12-11.3,10.7-18.8c0,0,0,0,0-0.1c0.3,0,0.7,0,1,0c2.6,0,5.2,0,7.8,0c-1.4,7.2,2.7,17.8,11.3,17.7
		C214.7,62.8,215.6,52.4,215.1,45.6z M150.2,44.1c-0.1,2.2-2.1,4.4-4.5,4c-2.2-0.4-3.4-2.5-3.4-4.6C145,43.8,147.6,44,150.2,44.1z
		 M155.4,44.5c-0.4,6.3-3.4,16.2-11.6,16.3c-9.2,0-6.9-11.8-6.2-17.7c1.3,0.2,2.7,0.3,4,0.4c-0.6,2.8,1.6,5.7,4.5,5.8
		c2.9,0.2,5.2-2.3,5.3-5.1c1,0.1,3.1,0.1,4.1,0.2C155.4,44.4,155.4,44.4,155.4,44.5z M178.2,45c-0.2,2.3-2.1,4.6-4.6,3.8
		c-1.7-0.6-2.6-2.2-2.6-3.9C173.4,44.9,175.8,45,178.2,45z M174,62.3c-8.7-1-8.4-10.9-8.7-17.6c1.6,0,3.2,0.1,4.8,0.1
		c-0.3,2.2,1.3,4.6,3.5,5.1c2.8,0.7,6-2,5.6-4.9c1.7,0,3.4,0.1,5.1,0.1c-0.1,0.2-0.1,0.3-0.1,0.5C185.4,52.5,183.2,63.4,174,62.3z
		 M207.2,44.6c0.3,2.2-1.1,4.5-3.5,4.6c-2.3,0.1-3.9-2.1-4-4.2C202.2,44.9,204.7,44.7,207.2,44.6z M206.2,61.3
		c-8.3,0.7-11-9.9-11-16.2c1.3,0,2.5-0.1,3.8-0.1c-0.3,2.7,2.2,5.4,4.9,5.3c2.9-0.1,4.9-3.1,4.5-5.8c1.7-0.1,3.5-0.3,5.2-0.5
		c-0.1,0.1-0.2,0.3-0.2,0.6C213.9,50.3,214.3,60.6,206.2,61.3z"/>
	<path class="st0" d="M302.1,41.5c1.2-0.2,2.4-0.4,3.6-0.7l-0.3-1.7c-10.5,2.1-21.3,3.3-32.3,3.8c-14.7,0.7-30.6,2-45.3,1.4
		c-3.1-0.1-6.2-0.4-9.2-0.7l-0.1,1c1.9,0.2,3.8,0.3,5.7,0.4c-0.1,0.3-0.1,0.6-0.2,0.9c0.1,0.2,0,0.5-0.1,0.7
		c-1.4,6.9-0.8,17,7.8,17.4c9.7,0.4,13.1-11.2,13.1-18.6c2.4,0,4.9-0.1,7.3-0.1c-0.4,7.8,1.8,19.3,11.9,18.6
		c9.7-0.7,11.3-12,9.5-19.4c0,0,0,0,0-0.1c0.3,0,0.7,0,1,0c2.6-0.1,5.2-0.3,7.8-0.5c-1,7.2,3.8,17.6,12.3,17
		c9.3-0.6,9.2-12.2,8.2-18.8C302.5,41.8,302.3,41.6,302.1,41.5z M237.8,45.6c0,2.2-1.8,4.5-4.2,4.2c-0.2,0-0.4-0.1-0.6-0.2
		c0,0-0.1,0-0.1,0h0c0,0,0,0,0,0c0,0,0,0,0,0c-0.2,0-0.3-0.1-0.3-0.2c-0.1,0-0.1-0.1-0.2-0.1c-0.1,0-0.1,0-0.1-0.1
		c-1.3-0.8-2.1-2.3-2.1-3.9C232.5,45.6,235.2,45.6,237.8,45.6z M243,45.7c0,6.3-2.5,16.4-10.7,16.9c-9.2,0.6-7.6-11.3-7.2-17.3
		c1.3,0.1,2.7,0.1,4,0.2c-0.4,2.8,2,5.6,4.8,5.6c2.9,0,5-2.6,5-5.4c1,0,3.1-0.1,4.1-0.1C243,45.6,243,45.6,243,45.7z M265.8,44.8
		c0,2.3-1.8,4.7-4.4,4.1c-1.7-0.5-2.7-2.1-2.8-3.8C261,45,263.4,44.9,265.8,44.8z M262.6,62.4c-8.7-0.5-9.1-10.4-9.7-17
		c1.6,0,3.2-0.1,4.8-0.2c-0.2,2.2,1.6,4.5,3.8,4.9c2.9,0.5,5.8-2.4,5.3-5.3c1.7-0.1,3.4-0.1,5.1-0.2c-0.1,0.2-0.1,0.3-0.1,0.5
		C273.5,51.8,271.8,62.9,262.6,62.4z M287.1,43.8c0,0,0.1-0.1,0.1-0.1c0,0,0,0,0,0c0-0.1,0-0.1,0-0.2c2.5-0.2,5-0.5,7.5-0.9
		c0.4,2.1-0.9,4.6-3.2,4.8c-1.8,0.2-3.2-1-3.9-2.5c-0.1-0.1-0.1-0.1-0.1-0.3c0,0,0,0,0,0c0,0,0,0,0,0c0,0,0,0-0.1,0
		c-0.1,0-0.1,0-0.2,0c0,0,0,0,0,0c0,0-0.1,0-0.1-0.1c0,0,0,0,0-0.1c0,0,0-0.1,0-0.1c0,0,0,0,0-0.1c0,0,0-0.1,0-0.1c0,0,0,0,0-0.1
		c0,0,0-0.1,0-0.1c0,0,0,0,0-0.1C287,43.9,287.1,43.9,287.1,43.8C287.1,43.9,287.1,43.8,287.1,43.8z M294.8,59.4
		c-8.3,1.2-11.6-9.2-11.9-15.5c1.3-0.1,2.5-0.2,3.7-0.3c-0.2,2.7,2.5,5.2,5.2,4.9c2.8-0.3,4.7-3.4,4.1-6c1.7-0.2,3.4-0.5,5.1-0.8
		c-0.1,0.1-0.2,0.3-0.2,0.6C301.7,47.9,302.7,58.2,294.8,59.4z"/>
	<g>
		<g>
			<path class="st0" d="M217.2,43.5c-3.1,0.2-6.3,0.3-9.4-0.2c0,0-0.1,1,0,1c3.1,0.5,6.3,0.4,9.4,0.2
				C217.3,44.5,217.3,43.5,217.2,43.5L217.2,43.5z"/>
		</g>
	</g>
	<g>
		<g>
			<path class="st0" d="M211.7,44.3c2.3-0.1,4.5,0.5,6.8,0.3c0.1,0,0.1-1,0-1c-2.3,0.2-4.5-0.3-6.8-0.3
				C211.6,43.3,211.6,44.3,211.7,44.3L211.7,44.3z"/>
		</g>
	</g>
	<g>
		<g>
			<path class="st0" d="M213.7,44.6c3.5,0.6,7.1,1,10.6,1.3c0.1,0,0.1-1,0-1c-3.6-0.3-7.1-0.7-10.6-1.3
				C213.7,43.6,213.6,44.6,213.7,44.6L213.7,44.6z"/>
		</g>
	</g>
	<g>
		<g>
			<path class="st0" d="M224.3,45.7c1.7,0,3.4,0,5.1,0c0.1,0,0.1-1,0-1c-1.7,0-3.4,0-5.1,0C224.2,44.7,224.2,45.7,224.3,45.7
				L224.3,45.7z"/>
		</g>
	</g>
	<g>
		<g>
			<path class="st0" d="M229.3,45.9c2.3-0.1,4.7-0.1,7-0.2c0.1,0,0.1-1,0-1c-2.3,0.1-4.7,0.1-7,0.2
				C229.3,44.9,229.3,45.9,229.3,45.9L229.3,45.9z"/>
		</g>
	</g>
	<g>
		<g>
			<path class="st0" d="M208.3,44.7c1.8,0,3.7-0.1,5.5-0.1c0.1,0,0.1-1,0-1c-1.8,0-3.7,0.1-5.5,0.1
				C208.2,43.7,208.2,44.7,208.3,44.7L208.3,44.7z"/>
		</g>
	</g>
	<g>
		<g>
			<path class="st0" d="M216.3,44.4c7.2,0.3,14.5,0.7,21.7,0.8c0.1,0,0.1-1,0-1c-7.3-0.1-14.5-0.5-21.7-0.8
				C216.3,43.4,216.2,44.4,216.3,44.4L216.3,44.4z"/>
		</g>
	</g>
	<g>
		<g>
			<path class="st0" d="M216.6,44.5c11,1.2,22,1.5,33.1,0.8c0.1,0,0.1-1,0-1c-11,0.7-22.1,0.5-33.1-0.8
				C216.5,43.5,216.5,44.5,216.6,44.5L216.6,44.5z"/>
		</g>
	</g>
	<g>
		<g>
			<path class="st0" d="M213.7,44.1c-4-0.1-8-0.1-12-0.2c-0.1,0-0.1,1,0,1c4,0.1,8,0.1,12,0.2C213.8,45.1,213.8,44.1,213.7,44.1
				L213.7,44.1z"/>
		</g>
	</g>
	<g>
		<g>
			<path class="st0" d="M203.7,44.3c1.3,0,2.7,0,4,0c0.1,0,0.1-1,0-1c-1.3,0-2.7,0-4,0C203.6,43.3,203.6,44.3,203.7,44.3L203.7,44.3
				z"/>
		</g>
	</g>
	<g>
		<g>
			<path class="st0" d="M201.8,44.3c0.7,0,1.4,0.1,2.1,0c0.1,0,0.1-1,0-1c-0.7,0.1-1.4-0.1-2.1,0C201.7,43.3,201.7,44.3,201.8,44.3
				L201.8,44.3z"/>
		</g>
	</g>
	<g>
		<g>
			<path class="st0" d="M201.8,44.3c0.5,0,1,0.1,1.6,0c0.1,0,0.1-1,0-1c-0.5,0-1-0.1-1.6,0C201.7,43.3,201.8,44.3,201.8,44.3
				L201.8,44.3z"/>
		</g>
	</g>
	<g>
		<g>
			<path class="st0" d="M199.3,44.4c3.3-0.2,6.6-0.1,9.9,0.3c0,0,0.1-1,0-1c-3.3-0.4-6.6-0.5-9.9-0.3
				C199.2,43.4,199.2,44.4,199.3,44.4L199.3,44.4z"/>
		</g>
	</g>
	<g>
		<g>
			<path class="st0" d="M203.7,43.3c-0.3,0-0.5,0-0.8,0c-0.1,0-0.1,1,0,1c0.3,0,0.5,0,0.8,0C203.7,44.3,203.8,43.3,203.7,43.3
				L203.7,43.3z"/>
		</g>
	</g>
	<g>
		<g>
			<path class="st0" d="M203.7,43.3C203.7,43.3,203.6,43.3,203.7,43.3c-0.1,0-0.2,1-0.1,1c0,0,0,0,0.1,0
				C203.7,44.3,203.8,43.3,203.7,43.3L203.7,43.3z"/>
		</g>
	</g>
	<g>
		<g>
			<path class="st0" d="M203.7,43.3C203.7,43.3,203.7,43.3,203.7,43.3c0,0.3,0,0.7,0,1c0,0,0,0,0,0
				C203.7,44.3,203.9,43.3,203.7,43.3C203.7,43.3,203.7,43.3,203.7,43.3c0,0-0.2,0.9,0,1c0,0,0,0,0,0
				C203.7,44.3,203.9,43.4,203.7,43.3L203.7,43.3z"/>
		</g>
	</g>
	<g>
		<g>
			<path class="st0" d="M202,44.3c0.3,0,0.7,0,1,0.1c0,0,0.1-1,0-1c-0.3,0-0.6-0.1-1-0.1C201.9,43.3,201.9,44.3,202,44.3L202,44.3z"
				/>
		</g>
	</g>
	<g>
		<g>
			<path class="st0" d="M202.9,43.3c-0.1,0-0.2,0-0.3,0c-0.1,0-0.1,1,0,1c0.1,0,0.2,0,0.3,0C203,44.3,203,43.3,202.9,43.3
				L202.9,43.3z"/>
		</g>
	</g>
	<g>
		<g>
			<path class="st0" d="M202.9,43.3c-0.2,0-0.3,0-0.5,0c-0.1,0-0.1,1,0,1c0.2,0,0.3,0,0.5,0C203,44.3,203,43.3,202.9,43.3
				L202.9,43.3z"/>
		</g>
	</g>
	<g>
		<g>
			<path class="st0" d="M211.8,43.3c-0.4,0-0.7,0-1.1,0c-0.1,0-0.1,1,0,1c0.4,0,0.7,0,1.1,0C211.8,44.3,211.9,43.3,211.8,43.3
				L211.8,43.3z"/>
		</g>
	</g>
	<g>
		<g>
			<path class="st0" d="M210.7,43.3c-0.4,0-0.9,0-1.3,0c-0.1,0-0.1,1,0,1c0.4,0,0.9,0,1.3,0C210.8,44.3,210.8,43.3,210.7,43.3
				L210.7,43.3z"/>
		</g>
	</g>
	<g>
		<g>
			<path class="st0" d="M209.4,43.3c-0.5,0-1,0-1.5,0.1c-0.1,0-0.1,1,0,1c0.5,0,1,0,1.5-0.1C209.5,44.3,209.5,43.3,209.4,43.3
				L209.4,43.3z"/>
		</g>
	</g>
	<g>
		<g>
			<path class="st0" d="M207.5,44.3c0.5,0,1,0,1.5,0.1c0,0,0.1-1,0-1c-0.5-0.1-1-0.1-1.5-0.1C207.4,43.3,207.4,44.3,207.5,44.3
				L207.5,44.3z"/>
		</g>
	</g>
	<g>
		<g>
			<path class="st0" d="M215,46.1c0.1,0,0.1-1,0-1C215,45.1,215,46.1,215,46.1L215,46.1z"/>
		</g>
	</g>
	<g>
		<g>
			<path class="st0" d="M215,46c0.1,0,0.1-1,0-1C215,45,215,46,215,46L215,46z"/>
		</g>
	</g>
	<g>
		<g>
			<path class="st0" d="M216.3,43.4c-0.6,0-1.3,0-1.9,0.1c-0.1,0-0.1,1,0,1c0.6,0,1.3-0.1,1.9-0.1C216.4,44.4,216.4,43.5,216.3,43.4
				L216.3,43.4z"/>
		</g>
	</g>
	<g>
		<g>
			<path class="st0" d="M213.7,44.4c0.7,0,1.5,0.1,2.2,0.1c0.1,0,0.1-1,0-1c-0.7-0.1-1.5-0.1-2.2-0.1
				C213.6,43.4,213.6,44.4,213.7,44.4L213.7,44.4z"/>
		</g>
	</g>
	<g>
		<g>
			<path class="st0" d="M213.7,43.4c-0.3,0-0.5,0-0.8,0c-0.1,0-0.1,1,0,1c0.3,0,0.5,0,0.8,0C213.8,44.4,213.8,43.4,213.7,43.4
				L213.7,43.4z"/>
		</g>
	</g>
	<g>
		<g>
			<path class="st0" d="M223.8,46.2c0-0.1-0.1,0.1-0.1,0.1c0,0.1,0,0.2-0.1,0.3c0,0.2,0,0.5,0,0.7c0,0,0,0.4,0.1,0.2
				c0-0.3,0.2-0.5,0.2-0.8c0-0.1,0.1-0.6,0-0.7C223.8,45.9,223.9,46.1,223.8,46.2L223.8,46.2z"/>
		</g>
	</g>
	<g>
		<g>
			<path class="st0" d="M223.9,46c0,0.3-0.1,0.5-0.1,0.7c0,0.2,0,0.5,0,0.7c0,0,0,0.4,0.1,0.2c0-0.3,0.1-0.5,0.1-0.7
				c0-0.2,0-0.5,0-0.7C223.9,46.1,223.9,45.8,223.9,46L223.9,46z"/>
		</g>
	</g>
	<g>
		<g>
			<path class="st0" d="M223.8,47.1c0,0.5,0.1-0.1,0.1-0.2c0-0.2,0-0.5,0-0.7c0,0,0-0.4-0.1-0.2c-0.1,0.5-0.2,0.8-0.2,1.3
				c0,0.1,0,0.4,0.1,0.3C223.8,47.6,223.8,47.1,223.8,47.1L223.8,47.1z"/>
		</g>
	</g>
	<g>
		<g>
			<path class="st0" d="M223.8,46.2c0,0.2-0.1,0.5-0.2,0.7c0,0.2,0,0.5,0,0.7c0,0,0,0.4,0.1,0.2c0.1-0.4,0.2-0.7,0.2-1.1
				c0-0.2,0.1-0.6,0-0.7C223.8,45.9,223.8,46,223.8,46.2L223.8,46.2z"/>
		</g>
	</g>
	<g>
		<g>
			<path class="st0" d="M223.9,46.9c0,0,0,0.1,0,0.1c0.1-0.2,0-0.4,0-0.6c0-0.1-0.1-0.4-0.1-0.3c-0.1,0.3-0.1,0.5-0.1,0.8
				c0,0,0,0.5,0.1,0.5C223.9,47.3,223.9,46.9,223.9,46.9L223.9,46.9z"/>
		</g>
	</g>
	<g>
		<g>
			<path class="st0" d="M131.9,42.8c1.7,0.1,3.3,0.3,5,0.4c0.1,0,0.1-1,0-1c-1.7-0.1-3.3-0.3-5-0.4
				C131.8,41.8,131.8,42.8,131.9,42.8L131.9,42.8z"/>
		</g>
	</g>
	<g>
		<g>
			<path class="st0" d="M131.4,43.5c1.6-0.2,3.1,0,4.7,0.1c1.8,0.1,3.7,0,5.5,0.1c0.1,0,0.1-1,0-1c-1.8-0.1-3.7,0-5.5-0.1
				c-1.6-0.1-3.1-0.3-4.7-0.1C131.3,42.6,131.4,43.5,131.4,43.5L131.4,43.5z"/>
		</g>
	</g>
	<g>
		<g>
			<path class="st0" d="M138.5,42.3c-0.5,0-1.1-0.1-1.6-0.1c-0.1,0-0.1,1,0,1c0.5,0,1.1,0.1,1.6,0.1
				C138.5,43.3,138.6,42.3,138.5,42.3L138.5,42.3z"/>
		</g>
	</g>
	<g>
		<g>
			<path class="st0" d="M238,45.3c2.7-0.2,5.4,0.1,8,0.2c0.1,0,0.1-1,0-1c-2.7-0.1-5.4-0.4-8-0.2C237.9,44.3,237.9,45.3,238,45.3
				L238,45.3z"/>
		</g>
	</g>
	<g>
		<g>
			<path class="st0" d="M236.2,45.8c0.5,0,1-0.1,1.6-0.1c0.1,0,0.1-1,0-1c-0.5,0-1,0.2-1.6,0.1C236.2,44.8,236.2,45.7,236.2,45.8
				L236.2,45.8z"/>
		</g>
	</g>
	<g>
		<g>
			<path class="st0" d="M251.2,44.2c-0.5,0-1,0-1.5,0.1c-0.1,0-0.1,1,0,1c0.5,0,1-0.1,1.5-0.1C251.2,45.2,251.2,44.2,251.2,44.2
				L251.2,44.2z"/>
		</g>
	</g>
	<g>
		<g>
			<path class="st0" d="M24.7,24.7c1.6,0.1,2.9,1.1,4.3,1.6c0,0,0.2-0.9,0-1c-1.4-0.6-2.7-1.5-4.3-1.6
				C24.7,23.7,24.6,24.7,24.7,24.7L24.7,24.7z"/>
		</g>
	</g>
	<g>
		<g>
			<path class="st0" d="M29.1,25c-1.3,0-3.1-0.5-3.6-1.9c0,0.3,0,0.7,0,1c0.4,0,0.9,0.5,1.3,0.7c0.6,0.3,1.3,0.6,2,0.8
				c0-0.3,0-0.7,0-1c-0.2,0.3-1.7-0.5-2-0.7c-0.5-0.3-1.1-0.9-1.6-0.9c-0.1,0-0.1,1,0,1c0.4,0,0.6,0.3,0.9,0.5
				c0.3,0.2,0.7,0.4,1,0.6c0.3,0.2,1.5,0.9,1.7,0.5c0.1-0.1,0.1-0.9,0-1c-0.7-0.3-1.3-0.6-2-0.8c-0.4-0.2-0.9-0.7-1.3-0.7
				c-0.1,0,0,0.9,0,1c0.5,1.4,2.3,1.9,3.6,1.9C29.2,26,29.2,25,29.1,25L29.1,25z"/>
		</g>
	</g>
	<g>
		<g>
			<path class="st0" d="M25.7,43.3c2.1,0.1,4.2,0,6.2-0.2c1.6-0.2,3-0.5,4.2-1.8c1-1,1.8-2.7,1.8-4.2c-0.1-2.9-2.7-6.4-6-6
				c-2.1,0.2-4.2,0.3-6.2,0.2c-3.1-0.2-6.1,2.9-6,6C19.8,40.7,22.3,43.1,25.7,43.3L25.7,43.3z"/>
		</g>
	</g>
	<g>
		<g>
			<path class="st0" d="M27.3,45.5c2.6,0.7,5.5,0,7.3-2c1.1-1.2,1.8-2.6,1.8-4.2c0-1.5-0.7-3.2-1.8-4.2c-1.1-1-2.6-1.8-4.2-1.8
				c-1.5,0.1-3.2,0.6-4.2,1.8c-0.1,0.1-0.1,0.1-0.2,0.2c0.4-0.3,0.8-0.6,1.2-0.9c-0.1,0.1-0.2,0.1-0.4,0.2c0.5-0.2,1-0.4,1.4-0.6
				c-0.1,0-0.3,0.1-0.4,0.1c0.5-0.1,1.1-0.1,1.6-0.2c-0.1,0-0.2,0-0.3,0c0.5,0.1,1.1,0.1,1.6,0.2c-0.1,0-0.2,0-0.3-0.1
				c-1.5-0.4-3.3-0.2-4.6,0.6c-1.2,0.7-2.4,2.2-2.8,3.6c-0.3,1.5-0.3,3.3,0.6,4.6C24.5,44.1,25.7,45.1,27.3,45.5L27.3,45.5z"/>
		</g>
	</g>
	<g>
		<g>
			<path class="st0" d="M32.6,34.1c-0.2-1-0.6-1.9-1.2-2.7c-0.4-0.7-0.9-1.3-1.5-1.7c-0.6-0.5-1.3-0.9-2-1.1
				c-1.4-0.4-3.3-0.2-4.6,0.6c-1.3,0.8-2.4,2.1-2.8,3.6c-0.3,1.5-0.3,3.3,0.6,4.6c0.1,0.2,0.3,0.4,0.4,0.6c-0.2-0.5-0.4-1-0.6-1.4
				c0.1,0.2,0.2,0.4,0.2,0.7c0.3,1.4,1.5,2.9,2.8,3.6c1.3,0.8,3.2,1.1,4.6,0.6c1.5-0.5,2.9-1.4,3.6-2.8C32.8,37.3,33,35.8,32.6,34.1
				L32.6,34.1z"/>
		</g>
	</g>
	<g>
		<g>
			<path class="st0" d="M62.4,44.2c-0.5-0.7-1.1-1.6-1.8-2.2c-0.7-0.6-1.4-1.1-2.2-1.6c0.4,0.3,0.8,0.6,1.2,0.9
				c-0.1-0.1-0.2-0.1-0.2-0.2c0.3,0.4,0.6,0.8,0.9,1.2c-0.1-0.1-0.1-0.2-0.2-0.3c0.2,0.5,0.4,1,0.6,1.4c-0.3-0.7-0.4-1.4-0.8-2
				c-0.6-1-1.4-1.8-2.4-2.5c-1.2-0.8-3.2-1-4.6-0.6c-1.4,0.4-2.9,1.5-3.6,2.8c-0.7,1.4-1.1,3.1-0.6,4.6c0.5,1.6,1.4,2.7,2.8,3.6
				c0,0,0.1,0.1,0.1,0.1c-0.4-0.3-0.8-0.6-1.2-0.9c0,0,0.1,0.1,0.1,0.1c-0.3-0.4-0.6-0.8-0.9-1.2c0,0,0,0.1,0.1,0.1
				c-0.2-0.5-0.4-1-0.6-1.4c0.5,1.3,0.9,2.6,2,3.6c0.7,0.7,1.5,1.1,2.3,1.7c-0.4-0.3-0.8-0.6-1.2-0.9c0.3,0.2,0.5,0.5,0.7,0.7
				c-0.3-0.4-0.6-0.8-0.9-1.2c0.1,0.1,0.2,0.2,0.2,0.3c1,1.3,2,2.3,3.6,2.8c1.4,0.4,3.3,0.2,4.6-0.6c1.3-0.8,2.4-2.1,2.8-3.6
				C63.4,47.3,63.4,45.5,62.4,44.2L62.4,44.2z"/>
		</g>
	</g>
	<g>
		<g>
			<path class="st0" d="M55.3,52.3c7.7,0,7.7-12,0-12C47.6,40.3,47.6,52.3,55.3,52.3L55.3,52.3z"/>
		</g>
	</g>
	<g>
		<g>
			<path class="st0" d="M60.3,52.1c7.7,0,7.7-12,0-12C52.5,40.1,52.5,52.1,60.3,52.1L60.3,52.1z"/>
		</g>
	</g>
	<g>
		<g>
			<path class="st0" d="M79.3,53.1c0.9,1.4,1.8,2.9,3.3,3.7c2,1.1,4.4,1.7,6.6,1.1c2.1-0.6,3.9-1.8,5.1-3.7c1.1-1.7,1.1-4.5,0-6.2
				c-0.7-1.1-1.7-1.9-2.9-2.6c-2.7-1.5-6.7-0.8-8.2,2.2c-1.5,2.8-0.8,6.6,2.2,8.2c0.2,0.1,0.4,0.2,0.6,0.3c-0.4-0.3-0.8-0.6-1.2-0.9
				c0,0,0.1,0.1,0.1,0.1c-0.6-1.4-1.2-2.8-1.8-4.2c0,0.1,0,0.1,0,0.2c0.6-1.4,1.2-2.8,1.8-4.2c-0.1,0.1-0.2,0.3-0.4,0.4
				c0.4-0.3,0.8-0.6,1.2-0.9c-0.3,0.2-0.5,0.3-0.8,0.5c0.5-0.2,1-0.4,1.4-0.6c-0.1,0-0.2,0.1-0.3,0.1c0.5-0.1,1.1-0.1,1.6-0.2
				c-0.2,0-0.4,0-0.7,0c0.5,0.1,1.1,0.1,1.6,0.2c-0.4-0.1-0.8-0.2-1.2-0.4c0.5,0.2,1,0.4,1.4,0.6c-0.1,0-0.2-0.1-0.2-0.1
				c0.4,0.3,0.8,0.6,1.2,0.9c-0.1-0.1-0.2-0.2-0.3-0.4c0.3,0.4,0.6,0.8,0.9,1.2c-0.3-0.4-0.5-0.8-0.7-1.2c-1.6-2.7-5.5-3.9-8.2-2.2
				C78.8,46.7,77.6,50.3,79.3,53.1L79.3,53.1z"/>
		</g>
	</g>
	<g>
		<g>
			<path class="st0" d="M90.5,56.7c7.7,0,7.7-12,0-12C82.8,44.7,82.8,56.7,90.5,56.7L90.5,56.7z"/>
		</g>
	</g>
	<g>
		<g>
			<path class="st0" d="M91.2,56c7.7,0,7.7-12,0-12C83.5,44,83.5,56,91.2,56L91.2,56z"/>
		</g>
	</g>
	<g>
		<g>
			<path class="st0" d="M92.1,55.3c7.7,0,7.7-12,0-12C84.3,43.3,84.3,55.3,92.1,55.3L92.1,55.3z"/>
		</g>
	</g>
	<g>
		<g>
			<path class="st0" d="M83.8,55.1c7.7,0,7.7-12,0-12C76.1,43.1,76.1,55.1,83.8,55.1L83.8,55.1z"/>
		</g>
	</g>
	<g>
		<g>
			<path class="st0" d="M116.2,60.2c7.7,0,7.7-12,0-12C108.5,48.2,108.5,60.2,116.2,60.2L116.2,60.2z"/>
		</g>
	</g>
	<g>
		<g>
			<path class="st0" d="M119.6,59.7c7.7,0,7.7-12,0-12C111.9,47.7,111.9,59.7,119.6,59.7L119.6,59.7z"/>
		</g>
	</g>
	<g>
		<g>
			<path class="st0" d="M119.1,60.2c7.7,0,7.7-12,0-12C111.4,48.2,111.4,60.2,119.1,60.2L119.1,60.2z"/>
		</g>
	</g>
	<g>
		<g>
			<path class="st0" d="M121,58.6c7.7,0,7.7-12,0-12C113.3,46.6,113.3,58.6,121,58.6L121,58.6z"/>
		</g>
	</g>
	<g>
		<g>
			<path class="st0" d="M141.7,59.1c7.7,0,7.7-12,0-12C133.9,47.1,133.9,59.1,141.7,59.1L141.7,59.1z"/>
		</g>
	</g>
	<g>
		<g>
			<path class="st0" d="M142.3,60.8c7.7,0,7.7-12,0-12C134.6,48.8,134.6,60.8,142.3,60.8L142.3,60.8z"/>
		</g>
	</g>
	<g>
		<g>
			<path class="st0" d="M143.9,61.1c7.7,0,7.7-12,0-12C136.2,49.1,136.2,61.1,143.9,61.1L143.9,61.1z"/>
		</g>
	</g>
	<g>
		<g>
			<path class="st0" d="M145.5,60.8c7.7,0,7.7-12,0-12C137.7,48.8,137.7,60.8,145.5,60.8L145.5,60.8z"/>
		</g>
	</g>
	<g>
		<g>
			<path class="st0" d="M146.8,60.4c7.7,0,7.7-12,0-12C139,48.4,139,60.4,146.8,60.4L146.8,60.4z"/>
		</g>
	</g>
	<g>
		<g>
			<path class="st0" d="M166.9,58.9c0.6,0.5,1.2,1.1,1.8,1.6c1.5,1.3,3.3,2.8,5.4,2.5c0.8,0,1.6-0.1,2.3-0.5
				c0.7-0.2,1.4-0.7,1.9-1.2c1-1,1.8-2.7,1.8-4.2c-0.1-1.6-0.6-3.2-1.8-4.2c-1.1-1-2.7-1.9-4.2-1.8c-0.1,0-0.1,0-0.2,0
				c0.5,0.1,1.1,0.1,1.6,0.2c-0.1,0-0.1,0-0.2,0c0.5,0.2,1,0.4,1.4,0.6c0,0-0.1-0.1-0.1-0.1c0.4,0.3,0.8,0.6,1.2,0.9
				c-0.9-0.7-1.7-1.5-2.6-2.3c-1.2-1.1-2.6-1.8-4.2-1.8c-1.5,0-3.2,0.7-4.2,1.8c-1,1.1-1.8,2.6-1.8,4.2
				C165.3,56.2,165.8,57.8,166.9,58.9L166.9,58.9z"/>
		</g>
	</g>
	<g>
		<g>
			<path class="st0" d="M178.1,48.9c-1.1,0-2.2,0.3-3.1,0.8c-0.5,0.3-1,0.6-1.4,1c-0.5,0.5-0.9,1.2-1.4,1.8c0.3-0.4,0.6-0.8,0.9-1.2
				c-0.4,0.5-0.8,0.9-1.3,1.3c-1.1,0.9-1.8,2.8-1.8,4.2c0,1.5,0.7,3.2,1.8,4.2c1.1,1,2.6,1.8,4.2,1.8c0.5-0.1,1.1-0.1,1.6-0.2
				c1-0.3,1.9-0.8,2.6-1.5c1-0.9,1.8-2,2.6-3c-0.3,0.4-0.6,0.8-0.9,1.2c0,0,0.1-0.1,0.1-0.1c-0.4,0.3-0.8,0.6-1.2,0.9
				c0,0,0.1,0,0.1-0.1c-1,0.3-2,0.5-3,0.8c0,0,0.1,0,0.1,0c1.5,0,3.2-0.7,4.2-1.8c1-1,1.8-2.7,1.8-4.2c-0.1-1.6-0.6-3.2-1.8-4.2
				C181.1,49.6,179.7,48.9,178.1,48.9L178.1,48.9z"/>
		</g>
	</g>
	<g>
		<g>
			<path class="st0" d="M178.9,60.3c7.7,0,7.7-12,0-12C171.2,48.3,171.2,60.3,178.9,60.3L178.9,60.3z"/>
		</g>
	</g>
	<g>
		<g>
			<path class="st0" d="M205.1,61.9c1.5,0.2,3.3-0.2,4.6-1.1c0.5-0.3,1-0.7,1.5-1.2c0.4-0.5,0.8-1,1.1-1.5c0.2-0.3,0.5-0.7,0.7-1
				c0.8-1.2,1-3.2,0.6-4.6c-0.4-1.4-1.5-2.9-2.8-3.6c-1.4-0.7-3.1-1.1-4.6-0.6c-1.5,0.5-2.7,1.4-3.6,2.8c-0.3,0.4-0.6,0.9-0.9,1.3
				c0.3-0.4,0.6-0.8,0.9-1.2c-0.1,0.1-0.2,0.2-0.2,0.3c0.4-0.3,0.8-0.6,1.2-0.9c-0.1,0.1-0.2,0.1-0.3,0.2c0.5-0.2,1-0.4,1.4-0.6
				c-0.2,0.1-0.3,0.1-0.5,0.1c0.5-0.1,1.1-0.1,1.6-0.2c-0.3,0-0.5,0-0.8,0c-1.4-0.1-3.3,0.8-4.2,1.8c-1,1-1.8,2.7-1.8,4.2
				c0.1,1.6,0.6,3.2,1.8,4.2c0.4,0.3,0.8,0.6,1.2,0.9C203,61.7,204,61.9,205.1,61.9L205.1,61.9z"/>
		</g>
	</g>
	<g>
		<g>
			<path class="st0" d="M203.8,61.7c7.7,0,7.7-12,0-12C196.1,49.7,196,61.7,203.8,61.7L203.8,61.7z"/>
		</g>
	</g>
	<g>
		<g>
			<path class="st0" d="M202.7,61.4c7.7,0,7.7-12,0-12C195,49.4,195,61.4,202.7,61.4L202.7,61.4z"/>
		</g>
	</g>
	<g>
		<g>
			<path class="st0" d="M225.1,59.2c1.3,1.6,2.9,3.4,4.9,3.9c1.9,0.4,3.7,0.1,5.4-0.8c0.3-0.1,0.5-0.3,0.7-0.4c1.2-0.7-1.1,0.3,0,0
				c3-0.8,5.2-4.3,4.2-7.4c-1-3.1-4.1-5.1-7.4-4.2c-0.9,0.2-1.7,0.6-2.5,1.1c-0.2,0.1-0.4,0.2-0.6,0.3c-0.5,0.4,1.3-0.4,0.4-0.2
				c0.5-0.1,1.1-0.1,1.6-0.2c-0.1,0-0.2,0-0.2,0c1,0.3,2,0.5,3,0.8c0.2,0.1,1.2,1.1,0.6,0.4c-0.2-0.2-0.4-0.4-0.6-0.6
				c-0.4-0.4-0.7-0.8-1-1.2c-0.9-1.1-2.9-1.8-4.2-1.8c-1.5,0-3.2,0.7-4.2,1.8c-1,1.1-1.8,2.6-1.8,4.2
				C223.4,56.6,224.1,57.9,225.1,59.2L225.1,59.2z"/>
		</g>
	</g>
	<g>
		<g>
			<path class="st0" d="M226.1,59.2c1.3,1.6,2.9,3.4,4.9,3.9c1.9,0.4,3.7,0.1,5.4-0.8c0.3-0.1,0.5-0.3,0.7-0.4c1.2-0.7-1.1,0.3,0,0
				c3-0.8,5.2-4.3,4.2-7.4c-1-3.1-4.1-5.1-7.4-4.2c-0.9,0.2-1.7,0.6-2.5,1.1c-0.2,0.1-0.4,0.2-0.6,0.3c-0.5,0.4,1.3-0.4,0.4-0.2
				c0.5-0.1,1.1-0.1,1.6-0.2c-0.1,0-0.2,0-0.2,0c1,0.3,2,0.5,3,0.8c0.2,0.1,1.2,1.1,0.6,0.4c-0.2-0.2-0.4-0.4-0.6-0.6
				c-0.4-0.4-0.7-0.8-1-1.2c-0.9-1.1-2.9-1.8-4.2-1.8c-1.5,0-3.2,0.7-4.2,1.8c-1,1.1-1.8,2.6-1.8,4.2
				C224.4,56.6,225.1,57.9,226.1,59.2L226.1,59.2z"/>
		</g>
	</g>
	<g>
		<g>
			<path class="st0" d="M256.4,60c-1.4-1-0.2,0,0.1,0.4c0.2,0.3,0.5,0.6,0.7,0.8c1.3,1.2,2.8,2,4.6,2.3c3.4,0.5,6.5-2.4,8.8-4.5
				c2.3-2.1,2.3-6.4,0-8.5c-2.5-2.3-6-2.2-8.5,0c-0.2,0.2-0.5,0.4-0.7,0.7c-0.8,0.8,0.4-0.3-0.1,0.1c-0.6,0.4-1.1,0.8-1.7,1.1
				c1.5-0.2,3.1-0.4,4.6-0.6c0.4,0.1,0.8,0.4,1.1,0.7c0.4,0.3,0.4,0.3,0.1,0c-0.2-0.2-0.4-0.5-0.6-0.7c-0.7-0.8-1.5-1.5-2.4-2.1
				c-2.6-1.8-6.8-0.5-8.2,2.2C252.6,54.8,253.6,58,256.4,60L256.4,60z"/>
		</g>
	</g>
	<g>
		<g>
			<path class="st0" d="M294.6,47c-1.3,0.4-2.5,1.1-3.7,1.7c0.5-0.2,1-0.4,1.4-0.6c-0.3,0.1-0.5,0.2-0.8,0.2
				c0.5-0.1,1.1-0.1,1.6-0.2c-0.1,0-0.2,0-0.3,0c0.5,0.1,1.1,0.1,1.6,0.2c-0.1,0-0.2-0.1-0.3-0.1c0.5,0.2,1,0.4,1.4,0.6
				c-0.3-0.2-0.6-0.3-0.9-0.5c-2.8-1.4-6.6-0.8-8.2,2.2c-1.5,2.8-0.8,6.7,2.2,8.2c0.8,0.4,1.6,0.9,2.5,1.1c1.3,0.4,2.8,0.3,4.1,0
				c1.3-0.4,2.4-1.1,3.6-1.6c-0.5,0.2-1,0.4-1.4,0.6c0.2-0.1,0.3-0.1,0.5-0.2c3-1,5.2-4.2,4.2-7.4C301,48.2,297.7,45.9,294.6,47
				L294.6,47z"/>
		</g>
	</g>
	<g>
		<g>
			<path class="st0" d="M305.1,40.8c0.7,0.1,1.4-0.3,1.9-0.7c0.5-0.4,0-1.2-0.5-0.9c-0.4,0.3-0.9,0.6-1.4,0.5
				C304.4,39.8,304.4,40.8,305.1,40.8L305.1,40.8z"/>
		</g>
	</g>
	<g>
		<g>
			<path class="st0" d="M309.3,38.7c-0.5-0.1-1.1,0-1.6,0.2c-0.6,0.2-0.3,1.2,0.3,1c0.4-0.2,0.9-0.2,1.3-0.1
				C309.9,39.8,309.9,38.8,309.3,38.7L309.3,38.7z"/>
		</g>
	</g>
	<g>
		<g>
			<path class="st0" d="M309.2,39c-0.9-0.1-1.8,0-2.7,0.3c-0.6,0.2-0.3,1.2,0.3,1c0.8-0.3,1.6-0.3,2.4-0.2
				C309.8,40.1,309.8,39.1,309.2,39L309.2,39z"/>
		</g>
	</g>
	<g>
		<g>
			<path class="st0" d="M305.7,40.9c1.2-0.2,2.4-0.4,3.5-0.7c0.6-0.2,0.4-1.1-0.3-1c-1.2,0.3-2.3,0.6-3.5,0.7
				C304.8,40,305,41,305.7,40.9L305.7,40.9z"/>
		</g>
	</g>
	<g>
		<g>
			<path class="st0" d="M300.2,41.2c0.9,0,1.6-0.2,2.5-0.4c0.8-0.2,1.7-0.2,2.5-0.5c0.2-0.1,0.4-0.2,0.4-0.5c0-1-1.4-0.5-1.9-0.4
				c-2,0.3-4,0.7-6,1.2c-0.6,0.1-0.4,1.1,0.3,1c1.3-0.3,2.6-0.6,3.9-0.9c0.6-0.1,1.3-0.2,1.9-0.3c0.2,0,0.4-0.1,0.7-0.1
				c0.6,0,0.7-0.2,0.1-0.5c0.1-0.2,0.2-0.3,0.4-0.5c-0.6,0.2-1.4,0.2-2,0.4c-0.9,0.2-1.7,0.5-2.7,0.5
				C299.6,40.2,299.6,41.2,300.2,41.2L300.2,41.2z"/>
		</g>
	</g>
	<g>
		<g>
			<path class="st0" d="M319.7,54.6c7.7,0,7.7-12,0-12C312,42.6,312,54.6,319.7,54.6L319.7,54.6z"/>
		</g>
	</g>
	<g>
		<g>
			<path class="st0" d="M321.5,53.4c7.7,0,7.7-12,0-12C313.8,41.4,313.8,53.4,321.5,53.4L321.5,53.4z"/>
		</g>
	</g>
	<g>
		<g>
			<path class="st0" d="M348.1,45.7c7.7,0,7.7-12,0-12C340.4,33.7,340.4,45.7,348.1,45.7L348.1,45.7z"/>
		</g>
	</g>
	<g>
		<g>
			<path class="st0" d="M350.4,40.7c6.4,0,6.4-10,0-10C344,30.7,344,40.7,350.4,40.7L350.4,40.7z"/>
		</g>
	</g>
	<g>
		<g>
			<path class="st0" d="M349.7,29.1c-0.4-0.3-0.7-0.6-1-0.9c-1-1.1-3,0.1-2.5,1.5c0.3,0.8,0.7,1.6,1.1,2.4c0.8-0.6,1.6-1.2,2.4-1.8
				c-0.5-0.5-1.2-1.2-1.3-1.9c-0.1,0.5-0.3,1-0.4,1.5c0,0,0.1,0,0.1-0.1c-0.4,0.1-0.7,0.3-1.1,0.4c1.4,0.1,2.2,0.3,3.3-0.8
				c-0.4,0.1-0.7,0.3-1.1,0.4c0.5,0,1.1,0.7,1.3,1c0.2,0.2,0.4,0.4,0.6,0.7c0.2,0.2,0.3,0.4,0.4,0.6c0.2,0.3,0.2,0.2,0-0.3
				c0.1-0.4,0.3-0.7,0.4-1.1c0.7-0.6,0.4,0.1,0.6-0.5c0.1-0.3,0.1-0.9,0.1-1.2c0-0.8-0.1-1.6-0.4-2.4c-0.2-0.7-1.1-1.3-1.8-1
				c-0.5,0.2-0.8,0.4-1.1,0.9c-1.1,1.6,1.5,3.1,2.6,1.5c0,0,0.1-0.1,0.1-0.1c-0.3,0.2-0.6,0.5-0.9,0.7c0.1,0,0.1,0,0.2-0.1
				c-0.6-0.3-1.2-0.7-1.8-1c0.6,2.2-0.5,5.7,2.8,6c1.1,0.1,2.3-0.3,2.4-1.6c0.1-1.1-1.2-2.3-1.9-3.1c-0.8-0.8-1.8-1.8-3-1.9
				c-0.7-0.1-1,0.2-1.6,0.5c-0.2,0.1,0.4,0.1-0.2,0c-0.2,0-0.5-0.1-0.7-0.1c-1.1,0-1.9,1-1.6,2.1c0.3,1.2,1.2,2.3,2,3.1
				c1.2,1.2,3.2-0.3,2.4-1.8c-0.3-0.5-0.6-1.1-0.8-1.7c-0.8,0.5-1.7,1-2.5,1.5c0.5,0.5,1,1,1.6,1.4
				C349.8,32.8,351.3,30.2,349.7,29.1L349.7,29.1z"/>
		</g>
	</g>
	<g>
		<g>
			<path class="st0" d="M344.1,41.4c-3.2-2-5.3-5-6.2-8.6c-0.8,0.5-1.7,1-2.5,1.5c2.5,2.5,4.8,5.4,8.3,6.4c1.9,0.5,2.7-2.4,0.8-2.9
				c-2.9-0.8-4.9-3.6-7-5.6c-1.1-1.1-2.9,0-2.5,1.5c1,4.4,3.7,8,7.5,10.4C344.2,45,345.7,42.4,344.1,41.4L344.1,41.4z"/>
		</g>
	</g>
	<g>
		<g>
			<path class="st0" d="M344.6,35.3c-1.3-0.1-2,0.2-3.1-0.7c-1-0.9-2-1.7-3-2.6c-1.4-1.3-3.6,0.8-2.1,2.1c1.3,1.2,2.6,2.4,4,3.5
				c1.3,1,2.7,0.7,4.2,0.8C346.6,38.5,346.5,35.5,344.6,35.3L344.6,35.3z"/>
		</g>
	</g>
	<g>
		<g>
			<path class="st0" d="M346.1,30.4c1.9,0,1.9-3,0-3C344.2,27.4,344.2,30.4,346.1,30.4L346.1,30.4z"/>
		</g>
	</g>
	<g>
		<g>
			<path class="st0" d="M316.2,47.3c-1.3-1.5-1.5-3.4-1.9-5.3c-0.3-1.2-0.7-3-2-3.5c-0.6-0.3-1.3-0.3-1.8,0.2
				c-1.4,1.3,0,4.4,0.6,5.8c0.9,2.2,2,4.3,3.7,5.9c1.5,1.3,3.6-0.9,2.1-2.1c-2-1.7-4.1-5.7-4-8.4c-0.1,0.4-0.3,0.7-0.4,1.1
				c0,0,0.1-0.1,0.1-0.1c-0.6,0.1-1.2,0.2-1.8,0.2c0.9,0.4,1,3.8,1.3,4.6c0.4,1.4,1.1,2.6,2,3.7C315.3,50.9,317.4,48.8,316.2,47.3
				L316.2,47.3z"/>
		</g>
	</g>
	<g>
		<g>
			<path class="st0" d="M314.1,50.4c1.9,0,1.9-3,0-3C312.1,47.4,312.1,50.4,314.1,50.4L314.1,50.4z"/>
		</g>
	</g>
	<g>
		<g>
			<path class="st0" d="M318.6,43.5c-0.8-0.4-1.9-0.8-2.4-1.5c-0.6-0.8-0.9-2-1.2-2.9c-0.6-1.8-3.5-1-2.9,0.8
				c0.4,1.3,0.9,2.8,1.7,3.9c0.8,1.2,2.1,1.7,3.3,2.4C318.8,47,320.3,44.5,318.6,43.5L318.6,43.5z"/>
		</g>
	</g>
	<g>
		<g>
			<path class="st0" d="M320.3,36.8c0,1.5,0,3,0,4.5c0,1.9,3,1.9,3,0c0-1.5,0-3,0-4.5C323.3,34.9,320.3,34.9,320.3,36.8L320.3,36.8z
				"/>
		</g>
	</g>
	<g>
		<g>
			<path class="st0" d="M324.8,35.6c0,2.7,0,5.4,0,8.1c-0.1,1.9,2.9,1.9,3,0c0.1-2.7,0.1-5.4,0-8.1
				C327.7,33.7,324.7,33.7,324.8,35.6L324.8,35.6z"/>
		</g>
	</g>
	<g>
		<g>
			<path class="st0" d="M326.8,43.9c0-1.6-0.1-3.2-0.4-4.8c-0.2-1.2-0.3-3.1-1.6-3.7c-3.4-1.4-2.6,4.7-2.7,6.3c0,1.9,3,1.9,3,0
				c0-0.7,0-1.5,0-2.2c0-0.1,0-1.9-0.2-1.7c-0.4,0.1-0.7,0.3-1.1,0.4c0.1,0,0.2,0,0.3,0c-0.4-0.1-0.7-0.3-1.1-0.4
				c-0.1-0.2,0.1,0.9,0.2,1c0.1,0.6,0.2,1.2,0.3,1.8c0.1,1.1,0.2,2.2,0.2,3.3C323.8,45.9,326.8,45.9,326.8,43.9L326.8,43.9z"/>
		</g>
	</g>
	<g>
		<g>
			<path class="st0" d="M287.6,52.9c-0.8-2.8-1.9-5.8-2.1-8.8c-0.2-1.9-3.2-1.9-3,0c0.3,3.3,1.4,6.4,2.2,9.6
				C285.2,55.5,288.1,54.7,287.6,52.9L287.6,52.9z"/>
		</g>
	</g>
	<g>
		<g>
			<path class="st0" d="M283.4,45.5c0.5,1,1.4,1.9,2,2.8c0.7,1,1.2,2.1,1.7,3.2c0.3,0.8,1.4,0.9,2.1,0.5c0.8-0.4,0.9-1.3,0.5-2.1
				c-0.5-1.1-1-2.2-1.7-3.2c-0.6-1-1.5-1.8-2-2.8C285.1,42.3,282.5,43.8,283.4,45.5L283.4,45.5z"/>
		</g>
	</g>
	<g>
		<g>
			<path class="st0" d="M288.8,48c-0.4-0.1-0.5-0.7-0.7-1.2c-0.3-0.7-0.5-1.5-0.6-2.3c-0.2-1.9-3.2-1.9-3,0c0.1,1.4,0.5,2.7,1,4
				c0.4,1.1,1.2,2.1,2.4,2.3c0.8,0.1,1.6-0.2,1.8-1C290.1,49.1,289.6,48.1,288.8,48L288.8,48z"/>
		</g>
	</g>
	<g>
		<g>
			<path class="st0" d="M288.4,49.9c1.9,0,1.9-3,0-3C286.5,46.9,286.5,49.9,288.4,49.9L288.4,49.9z"/>
		</g>
	</g>
	<g>
		<g>
			<path class="st0" d="M297.5,47.5c0-1.1,0.9-2.1,1.2-3.2c0.4-1.5-0.1-3-1.8-3.2c-0.8-0.1-1.5,0.8-1.5,1.5c0,0.9,0.7,1.4,1.5,1.5
				c0.1,0,0.1,0,0.2,0c-0.4-0.1-0.7-0.3-1.1-0.4c-0.2-0.2-0.1-0.4-0.2-0.2c-0.1,0.1-0.1,0.3-0.1,0.4c-0.1,0.4-0.4,0.7-0.5,1.1
				c-0.4,0.8-0.7,1.7-0.7,2.6C294.5,49.4,297.5,49.4,297.5,47.5L297.5,47.5z"/>
		</g>
	</g>
	<g>
		<g>
			<path class="st0" d="M296.2,42.6c-0.1,2.4-0.1,4.8,0.2,7.2c0.2,1.9,3.2,1.9,3,0c-0.2-2.4-0.3-4.8-0.2-7.2
				C299.3,40.7,296.3,40.7,296.2,42.6L296.2,42.6z"/>
		</g>
	</g>
	<g>
		<g>
			<path class="st0" d="M298.5,41.6c0.2,3.2-0.2,6.4,0.5,9.6c0.4,1.9,3.3,1.1,2.9-0.8c-0.6-2.9-0.2-5.9-0.4-8.8
				C301.4,39.7,298.4,39.7,298.5,41.6L298.5,41.6z"/>
		</g>
	</g>
	<g>
		<g>
			<path class="st0" d="M252,45.7c-0.3,2.5,0.2,4.9,1.3,7.2c0.8,1.7,3.4,0.2,2.6-1.5c-0.8-1.8-1.1-3.7-0.9-5.7
				C255.2,43.8,252.2,43.8,252,45.7L252,45.7z"/>
		</g>
	</g>
	<g>
		<g>
			<path class="st0" d="M253.6,46.3c-0.2,1.7,0,3.3,0.5,4.9c0.6,1.8,3.5,1.1,2.9-0.8c-0.4-1.4-0.5-2.7-0.4-4.1
				c0.1-0.8-0.8-1.5-1.5-1.5C254.2,44.8,253.7,45.5,253.6,46.3L253.6,46.3z"/>
		</g>
	</g>
	<g>
		<g>
			<path class="st0" d="M255.1,45.7c0,2.3,0.3,4.7,2.2,6.2c0.6,0.5,1.5,0.6,2.1,0c0.5-0.5,0.6-1.6,0-2.1c-1.3-1-1.3-2.6-1.3-4.1
				C258,43.7,255,43.7,255.1,45.7L255.1,45.7z"/>
		</g>
	</g>
	<g>
		<g>
			<path class="st0" d="M259.5,49.5c0.1-1,0-1.9-0.8-2.7c-0.6-0.6-1.5-0.6-2.1,0c-0.6,0.6-0.6,1.6,0,2.1c0.1,0.1,0,0.1,0,0
				c0-0.1,0-0.1,0-0.2c-0.1,0.8,0.2,1.6,1,1.8C258.3,50.7,259.4,50.4,259.5,49.5L259.5,49.5z"/>
		</g>
	</g>
	<g>
		<g>
			<path class="st0" d="M267.3,50.8c0.9-1.4,2.4-3.2,2.3-4.9c-0.1-0.8-0.6-1.5-1.5-1.5c0,0,0,0,0,0c-0.8-0.3-1.6,0.3-1.8,1
				c-0.2,0.8,0.3,1.6,1,1.8c0.3,0.1,0.5,0.1,0.8,0.1c-0.5-0.5-1-1-1.5-1.5c0,0.5-0.5,1.1-0.7,1.6c-0.4,0.6-0.8,1.2-1.1,1.8
				C263.7,50.9,266.3,52.4,267.3,50.8L267.3,50.8z"/>
		</g>
	</g>
	<g>
		<g>
			<path class="st0" d="M267.9,45.6c0,1.7,0,3.4,0,5.1c0,1.9,3,1.9,3,0c0-1.7,0-3.4,0-5.1C270.9,43.7,267.9,43.7,267.9,45.6
				L267.9,45.6z"/>
		</g>
	</g>
	<g>
		<g>
			<path class="st0" d="M272.7,53c-0.2-2.9,0.2-5.8-0.5-8.6c-0.4-1.9-3.3-1.1-2.9,0.8c0.6,2.6,0.2,5.2,0.4,7.8
				C269.8,55,272.9,55,272.7,53L272.7,53z"/>
		</g>
	</g>
	<g>
		<g>
			<path class="st0" d="M227.2,51.8c-0.1-2-0.2-3.9,0.4-5.8c-1,0-1.9,0-2.9,0c0.2,0.6,0.6,0.8,1,1.3c-0.3-0.3,0.1,0.6,0.1,0.7
				c0.1,0.3,0.2,0.7,0.3,1c0.4,1.2,1.1,2.2,2.3,2.6c1.9,0.5,2.7-2.4,0.8-2.9c-0.4-0.1-0.6-1.9-0.8-2.3c-0.1-0.3-0.2-0.6-0.3-0.8
				c-0.2-0.2-0.9-1.3-0.6-0.3c-0.5-1.4-2.4-1.5-2.9,0c-0.7,2.1-0.7,4.3-0.5,6.6C224.3,53.7,227.3,53.8,227.2,51.8L227.2,51.8z"/>
		</g>
	</g>
	<g>
		<g>
			<path class="st0" d="M227,46.2c0.2,2-0.2,3.9,1.2,5.6c1.3,1.5,3.4-0.7,2.1-2.1c-0.7-0.8-0.3-2.5-0.3-3.5
				C229.8,44.3,226.8,44.3,227,46.2L227,46.2z"/>
		</g>
	</g>
	<g>
		<g>
			<path class="st0" d="M238.8,46.1c-0.6,1.6-1.6,3-2.8,4.3c-1.4,1.4,0.8,3.5,2.1,2.1c1.6-1.6,2.8-3.5,3.6-5.6
				c0.3-0.8-0.3-1.6-1-1.8C239.8,44.8,239.1,45.3,238.8,46.1L238.8,46.1z"/>
		</g>
	</g>
	<g>
		<g>
			<path class="st0" d="M241.3,56.2c-0.1-1.6-0.1-3.2,0-4.8c0.1-1.3,0.1-3.5,0.9-4.5c-0.3,0.2-0.6,0.5-0.9,0.7c-0.1,0-0.1,0-0.2,0
				c-0.3-0.3-0.7-0.7-1-1c0.3,1.3-0.2,3.1-0.4,4.4c-0.2,1.3-0.4,2.6-0.7,3.8c-0.4,1.9,2.5,2.7,2.9,0.8c0.4-1.9,3.2-11.8-1-11
				c-1.7,0.3-2,2.6-2.2,3.9c-0.4,2.6-0.4,5.2-0.3,7.8C238.4,58.2,241.4,58.2,241.3,56.2L241.3,56.2z"/>
		</g>
	</g>
	<g>
		<g>
			<path class="st0" d="M240.1,47.7c1.9,0,1.9-3,0-3C238.2,44.7,238.2,47.7,240.1,47.7L240.1,47.7z"/>
		</g>
	</g>
	<g>
		<g>
			<path class="st0" d="M242.1,47.7c1.9,0,1.9-3,0-3C240.2,44.7,240.2,47.7,242.1,47.7L242.1,47.7z"/>
		</g>
	</g>
	<g>
		<g>
			<path class="st0" d="M199.5,54.2c0-1.6,0-3.2-0.3-4.7c-0.3-1.6-0.4-3.3-0.8-4.9c-0.3-1.4-2-1.3-2.7-0.4c-1.3,1.8-0.8,2.6-0.1,4.5
				c0.7,1.9,0.8,3.8,1.5,5.7c0.7-0.6,1.5-1.1,2.2-1.7c-0.5-0.3-0.7-1.4-0.9-1.9c-0.1-0.2-0.7-1.9-0.6-2c1.2-1.5-0.9-3.6-2.1-2.1
				c-1.8,2.2-0.1,7.1,2.1,8.6c1.1,0.7,2.7-0.5,2.2-1.7c-0.5-1.4-0.8-2.8-1.1-4.2c-0.3-1.1-1.3-2.7-0.6-3.7c-0.9-0.1-1.8-0.2-2.7-0.4
				c0.3,1.4,0.4,2.8,0.7,4.2c0.3,1.6,0.4,3.1,0.3,4.6C196.4,56.2,199.4,56.2,199.5,54.2L199.5,54.2z"/>
		</g>
	</g>
	<g>
		<g>
			<path class="st0" d="M196.7,45.6c-0.3,2.7,1.7,4.8,3.6,6.3c0.6,0.5,1.5,0.6,2.1,0c0.5-0.5,0.6-1.6,0-2.1c-1.4-1.1-3-2.3-2.8-4.2
				c0.1-0.8-0.8-1.5-1.5-1.5C197.3,44.1,196.8,44.8,196.7,45.6L196.7,45.6z"/>
		</g>
	</g>
	<g>
		<g>
			<path class="st0" d="M209.4,49.4c0.5-1.3,1-2.6,1.6-3.8c-0.8,0.2-1.7,0.4-2.5,0.7c-0.2-0.2-0.2,1.3-0.2,1.5c0,0.5,0,1,0.2,1.4
				c0.3,0.8,1,1.5,1.9,1.6c0.9,0.1,1.6-0.5,1.9-1.3c0.3-0.8-0.3-2.7,0.6-3.2c-0.8-0.4-1.5-0.9-2.3-1.3c0.1,2.4,0.2,4.9-0.1,7.3
				c-0.3,1.9,2.7,1.9,3,0c0.3-2.4,0.1-4.9,0.1-7.3c0-1.2-1.2-1.8-2.3-1.3c-0.8,0.4-1.3,1.1-1.6,1.9c-0.1,0.4-0.2,0.7-0.2,1.1
				c0,0.4,0.1,1.5-0.1,1.8c0.4-0.2,0.9-0.5,1.3-0.7c0.5,0.5,0.7,0.6,0.6,0.2c0-0.2,0-0.5,0-0.7c0-0.4,0-0.8,0-1.2
				c0-0.8-0.1-1.3-0.7-1.9c-0.9-0.8-2.1-0.4-2.5,0.7c-0.5,1.3-1,2.6-1.6,3.8C205.8,50.4,208.7,51.2,209.4,49.4L209.4,49.4z"/>
		</g>
	</g>
	<g>
		<g>
			<path class="st0" d="M167.8,52.8c0.1-2.2-0.5-4.7,0.4-6.9c-0.9-0.1-1.8-0.2-2.7-0.4c0-0.1,0-0.1,0-0.2c0.7-0.2,1.4-0.4,2.1-0.5
				c0,0,0.1,0.1,0.1,0.1c-0.6-0.9-2.1-1-2.6,0c-1.3,2.5,2.2,4.8,4.1,5.8c1,0.5,2.7-0.4,2.2-1.7c-0.3-0.8-1.7-1.9-1.4-2.9
				c-0.6,0.3-1.2,0.7-1.8,1c0.1,0,0.1,0,0.2,0c-0.3-0.3-0.7-0.7-1-1c0.3,0.7,0.3,1.3,0.7,2c0.4,0.7,0.9,1.3,1.4,1.9
				c1.2,1.5,3.3-0.6,2.1-2.1c-0.7-0.8-0.9-1.5-1.3-2.5c-0.2-0.6-0.6-1.1-1.3-1.2c-0.8-0.1-1.6,0.2-1.8,1c-0.2,0.8,0,1.8,0.2,2.6
				c0.2,0.4,0.3,0.8,0.6,1.2c0.1,0.1,0.8,1.3,0.6,0.6c0.7-0.6,1.5-1.1,2.2-1.7c-0.9-0.5-2.8-1.4-3-2.6c-0.1,0.4-0.1,0.8-0.2,1.2
				c0-0.1,0.1-0.2,0.1-0.3c-0.9,0-1.7,0-2.6,0c0.3,0.4,0.5,0.7,1,1c0.7,0.4,1.7,0.2,2.1-0.5c0.4-0.7,0.4-1.3,0.3-2.1
				c-0.2-1.2-2.2-1.5-2.7-0.4c-1.2,2.7-0.7,5.5-0.9,8.4C164.7,54.7,167.7,54.7,167.8,52.8L167.8,52.8z"/>
		</g>
	</g>
	<g>
		<g>
			<path class="st0" d="M179,45.2c0.1,0.9-0.1,1.7-0.7,2.4c-1.3,1.4,0.8,3.5,2.1,2.1c1.1-1.2,1.8-2.8,1.6-4.5
				c-0.1-0.8-0.6-1.5-1.5-1.5C179.7,43.7,178.9,44.4,179,45.2L179,45.2z"/>
		</g>
	</g>
	<g>
		<g>
			<path class="st0" d="M181.7,47.4c0.2,0,0.6-0.1,0.8,0c-0.3-0.2-0.6-0.5-0.9-0.7c0.3,0.6,0.4,1.6,0.5,2.3c0.1,0.8,0.2,1.7,0.2,2.5
				c0.8-0.4,1.5-0.9,2.3-1.3c-1.3-0.7-1.9-2.5-2.4-3.8c-0.3-0.8-1-1.3-1.8-1c-0.7,0.2-1.3,1.1-1,1.8c0.8,2,1.7,4.5,3.8,5.5
				c1,0.5,2.3-0.1,2.3-1.3c-0.1-1.7-0.3-3.3-0.7-5c-0.2-0.7-0.3-1.5-1-1.9c-0.6-0.3-1.4-0.2-2-0.2C179.7,44.4,179.7,47.4,181.7,47.4
				L181.7,47.4z"/>
		</g>
	</g>
	<g>
		<g>
			<path class="st0" d="M150.8,45.2c0.1,2-0.1,4-0.6,5.9c-0.5,1.9,2.4,2.7,2.9,0.8c0.6-2.2,0.8-4.4,0.7-6.7
				C153.7,43.2,150.7,43.2,150.8,45.2L150.8,45.2z"/>
		</g>
	</g>
	<g>
		<g>
			<path class="st0" d="M149.6,47c-0.2,0.6-0.6,1.2-1.1,1.5c-0.7,0.4-1,1.3-0.5,2.1c0.4,0.7,1.4,1,2.1,0.5c1.2-0.8,2.1-1.9,2.5-3.3
				c0.2-0.7-0.3-1.7-1-1.8C150.6,45.8,149.8,46.2,149.6,47L149.6,47z"/>
		</g>
	</g>
	<g>
		<g>
			<path class="st0" d="M152.8,45.3c-0.2,2-0.8,3.9-1.6,5.7c-0.6,1.3-2,2.6-2.3,4c-0.2,0.9,0.4,2,1.4,1.9c0,0,0,0,0.1,0
				c0.8-0.1,1.5-0.6,1.5-1.5c0,0,0,0,0,0c-0.1-1.9-3.1-1.9-3,0c0,0,0,0,0,0c0.5-0.5,1-1,1.5-1.5c0,0,0,0-0.1,0
				c0.5,0.6,1,1.3,1.4,1.9c0.2-0.7,1.1-1.7,1.5-2.4c0.4-0.8,0.8-1.7,1.1-2.5c0.7-1.8,1.1-3.7,1.3-5.6
				C156.1,43.3,153,43.4,152.8,45.3L152.8,45.3z"/>
		</g>
	</g>
	<g>
		<g>
			<path class="st0" d="M151.9,55.8c1.9,0,1.9-3,0-3C150,52.8,150,55.8,151.9,55.8L151.9,55.8z"/>
		</g>
	</g>
	<g>
		<g>
			<path class="st0" d="M139.2,50.1c0.1-0.9,0-1.8,0-2.6c0-0.4,0-0.7,0.1-1.1c0.1-0.3,0.5-1,0.1-0.6c-0.4,0.1-0.8,0.1-1.2,0.2
				c-0.5-0.6-0.7-0.6-0.6-0.1c0,0.2,0,0.5,0.1,0.7c0.1,0.4,0.2,0.9,0.5,1.3c0.4,0.7,1.2,1.4,2,1.6c2.7,0.6,1.9-3.3,1.8-4.7
				c-0.1-1.9-2.9-1.9-3,0c-0.1,1.8,0.8,3.3,2.2,4.3c1.6,1.1,3.1-1.5,1.5-2.6c-0.6-0.4-0.7-1-0.7-1.7c-1,0-2,0-3,0
				c0.1,1,0.2,2.1,0.2,3.2c0.1-0.4,0.3-0.7,0.4-1.1c0,0-0.1,0.1-0.1,0.1c0.5-0.1,1-0.3,1.5-0.4c-0.5-0.1-0.5-1.9-0.7-2.3
				c-0.5-0.9-1.6-1.5-2.6-0.8c-2.1,1.5-1.3,4.7-1.5,6.8C136,52,139,52,139.2,50.1L139.2,50.1z"/>
		</g>
	</g>
	<g>
		<g>
			<path class="st0" d="M112.8,53.6c0-1.7-0.5-3.3-0.8-5c-0.2-1.7,0-3.5-0.3-5.2c-0.1-0.5-0.6-0.9-1-1c-2.8-1-2.4,3-2.3,4.5
				c0.2,2.6,0.1,6.1,1.7,8.2c1.1,1.5,3.7,0,2.6-1.5c-0.9-1.2-0.9-2.9-1.1-4.3c-0.2-1.5-0.6-3.4-0.3-4.9c-0.2,0.3-0.5,0.6-0.7,0.9
				c0.1,0,0.2-0.1,0.2-0.1c-0.4,0.1-0.8,0.1-1.2,0.2c0.1,0,0.2,0.1,0.2,0.1c-0.3-0.3-0.7-0.7-1-1c0.3,1.5,0,3.3,0.2,4.9
				c0.2,1.5,0.7,3.1,0.7,4.6C109.8,55.6,112.8,55.6,112.8,53.6L112.8,53.6z"/>
		</g>
	</g>
	<g>
		<g>
			<path class="st0" d="M110.3,43.8c0.1,1.6-0.1,2.9,0.6,4.4c0.7,1.5,1.6,3,2.5,4.3c1.1,1.6,3.7,0.1,2.6-1.5c-0.7-1.1-1.5-2.2-2-3.3
				c-0.7-1.3-0.6-2.4-0.7-3.8C113.2,41.8,110.2,41.8,110.3,43.8L110.3,43.8z"/>
		</g>
	</g>
	<g>
		<g>
			<path class="st0" d="M115,48c-0.2-0.3-0.5-0.5-0.7-0.8c-0.5-0.6-1.6-0.5-2.1,0c-0.6,0.6-0.5,1.5,0,2.1c0.2,0.3,0.5,0.5,0.7,0.8
				c0.5,0.6,1.6,0.5,2.1,0C115.6,49.5,115.6,48.6,115,48L115,48z"/>
		</g>
	</g>
	<g>
		<g>
			<path class="st0" d="M114.1,49.7c1.9,0,1.9-3,0-3C112.1,46.7,112.1,49.7,114.1,49.7L114.1,49.7z"/>
		</g>
	</g>
	<g>
		<g>
			<path class="st0" d="M122.4,48.3c0.7-0.5,1.2-1.1,1.6-1.9c0.2-0.4,0.3-0.8,0.4-1.2c0.1-0.4,0.1-0.9,0.3-1.2
				c-0.4,0.2-0.9,0.5-1.3,0.7c0.1,0,0.1,0,0.2,0c-0.4-0.1-0.7-0.3-1.1-0.4c0,0,0.1,0.1,0.1,0.1c-0.1-0.2-0.3-0.4-0.4-0.7
				c0.3,1,0.2,2.4,0.2,3.5c0,1.9,3,1.9,3,0c0-1,0-2.1-0.1-3.1c-0.1-1-0.3-2.3-1.5-2.4c-1.2-0.2-1.8,0.8-2.1,1.8
				c-0.2,0.6-0.3,1.7-0.9,2.2c-0.6,0.5-1,1.3-0.5,2.1C120.7,48.4,121.7,48.8,122.4,48.3L122.4,48.3z"/>
		</g>
	</g>
	<g>
		<g>
			<path class="st0" d="M124.1,44.7c0,1,0,2,0,2.9c0,0.5,0.3,2.1-0.1,2.5c-1.2,1.5,1.4,3,2.6,1.5c0.6-0.9,0.5-2.1,0.5-3.1
				c0-1.3,0-2.6,0-3.9C127.1,42.8,124.1,42.8,124.1,44.7L124.1,44.7z"/>
		</g>
	</g>
	<g>
		<g>
			<path class="st0" d="M126.4,45.6c1.9,0,1.9-3,0-3C124.5,42.6,124.5,45.6,126.4,45.6L126.4,45.6z"/>
		</g>
	</g>
	<g>
		<g>
			<path class="st0" d="M80.6,46.7c0.1-2.3,1.3-4.4,1.2-6.7c-0.1,0.4-0.3,0.7-0.4,1.1c-1.2-0.9-1.7-1-1.7-0.3c0,0.1,0,0.2,0,0.4
				c0,0.3,0.1,0.7,0.1,1c0.1,0.7,0.3,1.3,0.6,2c0.6,1.4,1.7,1.9,3.1,1.7c1.9-0.3,1.1-3.2-0.8-2.9c0.6-0.1,0.4,0,0.2-0.6
				c-0.1-0.3-0.2-0.7-0.3-1c-0.1-0.6,0.1-1.1-0.2-1.7c-0.4-1.1-1.8-1.7-2.8-1.1c-1.2,0.7-0.7,2.2-1.1,3.3c-0.5,1.6-0.9,3.2-0.9,4.9
				C77.6,48.6,80.6,48.6,80.6,46.7L80.6,46.7z"/>
		</g>
	</g>
	<g>
		<g>
			<path class="st0" d="M84.7,44.2c0-0.8,0-1.6,0-2.4c0-0.9,0-1.8-0.6-2.4c-1.1-1.1-2.5-0.3-3.8-0.9c-0.7-0.3-1.6-0.2-2.1,0.5
				c-0.4,0.6-0.2,1.7,0.5,2.1c0.7,0.3,1.3,0.5,2,0.6c0.3,0,0.6,0,0.9,0c0.1,0,0.3,0,0.4,0c0.3,0,0.3,0-0.1-0.1
				c-0.1-0.2-0.3-0.4-0.4-0.7c0.1,0.5,0,1.1,0,1.6c0,0.6,0,1.2,0,1.7C81.7,46.1,84.7,46.1,84.7,44.2L84.7,44.2z"/>
		</g>
	</g>
	<g>
		<g>
			<path class="st0" d="M94.6,44.5c0-0.4,0-0.8,0.1-1.2c0,0,0.1-0.3,0.1-0.3c-0.1,1-1.4,0-1.3-0.2c-0.1,0.2-0.1,0.9-0.1,1.2
				c0,0.6,0.3,1.2,0.9,1.5c0.9,0.5,2.3,0.8,3,0c0.8-0.8,0.5-2.3,0.5-3.4c0-1.9-3-1.9-3,0c0,0.7,0.1,1.4,0,2.1
				c0.1-0.3,0.1-0.5,0.2-0.8c0,0.1-0.1,0.1-0.1,0.2c0.2-0.2,0.4-0.4,0.5-0.5c0,0-0.1,0-0.1,0.1c0.3-0.1,0.5-0.1,0.8-0.2
				c-0.1,0-0.1,0-0.2,0c-0.3-0.1-0.3-0.1,0,0.1c0.1,0.2,0.3,0.4,0.4,0.7c0.1,0.3,0,0,0-0.1c0-0.2,0.1-0.5,0.1-0.7
				c0-0.5-0.1-1-0.3-1.4c-0.4-0.8-1.3-1.4-2.2-1.3c-1.9,0.2-2.6,2.6-2.4,4.2c0.1,0.8,0.6,1.5,1.5,1.5C93.9,46,94.7,45.3,94.6,44.5
				L94.6,44.5z"/>
		</g>
	</g>
	<g>
		<g>
			<path class="st0" d="M95.8,42c0,0.9,0,1.8,0,2.7c0,0.5,0,0.9,0,1.4c0,0.2,0.1,1,0.1,1c0.3-0.2,0.6-0.5,0.9-0.7c0,0-0.1,0-0.1,0
				c-1.8,0.6-1,3.5,0.8,2.9c1.3-0.4,1.4-1.6,1.4-2.8c0-1.5,0-3,0-4.6C98.8,40.1,95.8,40.1,95.8,42L95.8,42z"/>
		</g>
	</g>
	<g>
		<g>
			<path class="st0" d="M52,40.5c0.2-1.9,0.9-3.7,1.9-5.2c-0.9-0.3-1.9-0.5-2.8-0.8c0.1,1-0.2,2.1-0.3,3.1c-0.1,1,0,2.1,0.1,3.1
				c0.2,1.9,3.2,1.9,3,0c-0.1-1-0.2-2.1-0.1-3.1c0.1-1,0.5-2.1,0.3-3.1c-0.2-1.5-1.9-2.1-2.8-0.8c-1.4,2-2.1,4.3-2.4,6.8
				C48.8,42.4,51.8,42.4,52,40.5L52,40.5z"/>
		</g>
	</g>
	<g>
		<g>
			<path class="st0" d="M53,35.3c-0.2,2.3,0,4.6,0.3,6.9c0.3,1.9,3.2,1.1,2.9-0.8c-0.3-2-0.4-4.1-0.2-6.1
				C56.1,33.4,53.1,33.4,53,35.3L53,35.3z"/>
		</g>
	</g>
	<g>
		<g>
			<path class="st0" d="M55.3,40.1c1.9,0,1.9-3,0-3C53.3,37.1,53.3,40.1,55.3,40.1L55.3,40.1z"/>
		</g>
	</g>
	<g>
		<g>
			<path class="st0" d="M63,43c1.5-0.5,3.1-1,4.2-2.3c0.9-1.1,1.6-2.9,0.3-4c-0.6-0.6-1.6-0.6-2.4-0.2c-0.7,0.4-1,1.1-1.2,1.9
				c-0.5,1.4-1.5,2.6-2,4.1c-0.6,1.8,2.3,2.6,2.9,0.8c0.3-0.8,0.8-1.5,1.2-2.2c0.2-0.4,0.4-0.8,0.6-1.2c0.1-0.2,0.2-0.4,0.2-0.6
				c0.2-0.4,0.1-0.4-0.3,0c-0.3,0-0.5,0-0.8,0c-0.3-1-0.5-1.2-0.6-0.7c0,0.1-0.1,0.2-0.1,0.2c-0.2,0.2-0.4,0.4-0.6,0.6
				c-0.6,0.4-1.4,0.7-2.2,0.9C60.3,40.7,61.1,43.6,63,43L63,43z"/>
		</g>
	</g>
	<g>
		<g>
			<path class="st0" d="M65.7,47.3c0.5-1.6,1-3.2,1.7-4.7c0.3-0.7,0.7-1.4,1-2.2c0.1-0.3,0.3-0.6,0.4-0.9c0.3-0.7,0.2-0.8-0.4-0.4
				c-0.5-0.1-1-0.3-1.5-0.4c-0.1-0.1-0.1-0.2-0.2-0.2c0.1-0.4,0.1-0.8,0.2-1.2c-0.6,1.2-1.3,2.3-1.6,3.7c-0.3,1.3-0.4,2.6-1.1,3.8
				c-1,1.7,1.6,3.2,2.6,1.5c1.2-1.9,1-4.2,2-6.2c0.6-1.2,1.7-3.3-0.4-3.9c-2.2-0.6-2.2,2-2.8,3.2c-1,2.3-1.9,4.6-2.7,7.1
				C62.3,48.3,65.2,49.1,65.7,47.3L65.7,47.3z"/>
		</g>
	</g>
	<g>
		<g>
			<path class="st0" d="M68.5,42.4c0-0.6,0-1,0.3-1.7c0.3-0.7-0.3-1.7-1-1.8c-0.9-0.2-1.5,0.3-1.8,1c-0.3,0.8-0.4,1.6-0.4,2.5
				c0,0.8,0.7,1.5,1.5,1.5C67.8,43.9,68.6,43.2,68.5,42.4L68.5,42.4z"/>
		</g>
	</g>
	<g>
		<g>
			<path class="st0" d="M24.4,29.9c0.1-0.8,0.8-1.6,1.2-2.2c0.2-0.3,0.4-0.7,0.7-1c0.1-0.2,0.2-0.3,0.3-0.5c0.3-0.4,0.3-0.4-0.1-0.1
				c-0.4-0.1-0.8-0.1-1.2-0.2c0.1,0,0.1,0.1,0.2,0.1c-0.2-0.3-0.5-0.6-0.7-0.9c0,0.1,0,0.2,0,0.3c0.1-0.4,0.1-0.8,0.2-1.2
				c-0.7,1.6-2.3,4.3,0,5.5c0.8,0.5,1.9,0.2,2.6-0.4c0.8-0.8,0.7-2,1.4-2.7c-0.8-0.5-1.7-1-2.5-1.5c-0.6,2-0.4,4,0.6,5.9
				c0.9,1.7,3.5,0.2,2.6-1.5c-0.6-1.1-0.6-2.3-0.3-3.5c0.4-1.4-1.5-2.5-2.5-1.5c-0.5,0.5-0.9,1.1-1.1,1.7c-0.1,0.2-0.1,0.3-0.2,0.5
				c-0.2,0.5,0.2,0.8,1.3,0.6c0.2-0.1,0.3-0.8,0.4-1c0.3-0.7,0.6-1.2,0.4-1.9c-0.2-0.7-0.7-1.2-1.5-1.3c-1.6-0.2-2.3,1.4-3,2.5
				c-0.9,1.4-1.8,2.6-1.9,4.2C21.2,31.8,24.2,31.8,24.4,29.9L24.4,29.9z"/>
		</g>
	</g>
	<g>
		<g>
			<path class="st0" d="M34,33.9c2.1,0.5,3.3-1.2,4.3-2.9c-0.8,0.1-1.6,0.2-2.4,0.3c0.9,0.7,2.8,2.1,4.1,1.6
				c0.6-0.2,1.1-0.7,1.1-1.4c0-1.5-1.2-1.6-2.2-2.3c0.2,0.3,0.5,0.6,0.7,0.9c0,0,0-0.1,0-0.1c-0.2,0.6-0.5,1.1-0.7,1.7
				c0,0,0,0,0.1,0c-0.5,0-1,0-1.5,0c0,0,0,0,0.1,0c-0.2-0.7-0.4-1.4-0.5-2.1c0,0,0,0,0,0c-1,1.6,1.6,3.1,2.6,1.5c0,0,0,0,0,0
				c0.5-0.7,0.1-1.6-0.5-2.1c0,0,0,0-0.1,0c-0.4-0.3-1.1-0.2-1.5,0c0,0,0,0-0.1,0c-0.6,0.3-0.8,1.1-0.7,1.7c0.3,1.1,1.1,1,1.8,1.6
				c-0.1-0.4-0.3-0.7-0.4-1.1c0,0.1,0,0.1,0,0.2c0.4-0.5,0.7-1,1.1-1.4c0,0-0.1,0-0.1,0c0.3,0,0.5,0,0.8,0c-0.7-0.1-1.3-0.5-1.8-0.9
				c-0.7-0.6-1.8-0.6-2.4,0.3c-0.2,0.3-0.4,0.7-0.6,1c-0.1,0.1-0.2,0.2-0.3,0.4c-0.3,0.2-0.3,0.3,0,0.2C32.9,30.6,32.1,33.5,34,33.9
				L34,33.9z"/>
		</g>
	</g>
	<g>
		<g>
			<path class="st0" d="M39.8,30.2c-2.2,1.3-3.2,3.5-4.8,5.4c-1.2,1.5,0.9,3.6,2.1,2.1c1.4-1.6,2.3-3.8,4.2-4.9
				C43,31.8,41.5,29.2,39.8,30.2L39.8,30.2z"/>
		</g>
	</g>
	<g>
		<g>
			<path class="st0" d="M37.2,39.7c1.2-1.8,2.7-3.7,3.4-5.8c0.6-1.8-2.3-2.6-2.9-0.8c-0.6,1.8-2.1,3.5-3.1,5.1
				C33.6,39.8,36.2,41.3,37.2,39.7L37.2,39.7z"/>
		</g>
	</g>
	<g>
		<g>
			<path class="st0" d="M36,35.4c1.9,0,1.9-3,0-3C34,32.4,34,35.4,36,35.4L36,35.4z"/>
		</g>
	</g>
	<g>
		<g>
			<path class="st0" d="M36.9,31.6c1.9,0,1.9-3,0-3C35,28.6,35,31.6,36.9,31.6L36.9,31.6z"/>
		</g>
	</g>
	<g>
		<g>
			<path class="st1" d="M233.6,48.9c-0.5,0-1.1-0.2-1.4-0.6c-0.4-0.5-1.1,0.2-0.7,0.7c0.5,0.6,1.4,0.9,2.1,0.9
				C234.2,49.9,234.2,48.8,233.6,48.9L233.6,48.9z"/>
		</g>
	</g>
</g>
<g id="Layer_2">
	<text transform="matrix(0.9397 0.342 -0.342 0.9397 24.1356 40.6601)" class="st2 st3 st4">C</text>
	<text transform="matrix(0.9659 0.2588 -0.2588 0.9659 52.1355 49.66)" class="st2 st3 st4">A</text>
	<text transform="matrix(0.9903 0.1392 -0.1392 0.9903 83.1356 55.6599)" class="st2 st3 st4">S</text>
	<text transform="matrix(0.9962 8.715574e-02 -8.715574e-02 0.9962 114.1359 58.6603)" class="st2 st3 st4">E</text>
	<text transform="matrix(1 0 0 1 171.1358 59.6601)" class="st2 st3 st4">S</text>
	<text transform="matrix(0.9994 -3.489950e-02 3.489950e-02 0.9994 202.1358 60.6602)" class="st2 st3 st4">T</text>
	<text transform="matrix(0.9998 1.745241e-02 -1.745241e-02 0.9998 228.1359 61.6602)" class="st2 st3 st4">U</text>
	<text transform="matrix(0.9976 -6.975648e-02 6.975648e-02 0.9976 260.136 60.6603)" class="st2 st3 st4">D</text>
	<text transform="matrix(0.9925 -0.1219 0.1219 0.9925 292.1362 58.6605)" class="st2 st3 st4">I</text>
	<text transform="matrix(0.9511 -0.309 0.309 0.9511 319.136 52.6604)" class="st2 st3 st4">E</text>
	<text transform="matrix(0.8746 -0.4848 0.4848 0.8746 347.1361 44.6603)" class="st2 st3 st4">S</text>
</g>
</svg>
