<?xml version="1.0" encoding="utf-8"?>
<!-- Generator: Adobe Illustrator 15.0.0, SVG Export Plug-In . SVG Version: 6.00 Build 0)  -->
<!DOCTYPE svg PUBLIC "-//W3C//DTD SVG 1.1//EN" "http://www.w3.org/Graphics/SVG/1.1/DTD/svg11.dtd">
<svg version="1.1" id="Layer_1" xmlns="http://www.w3.org/2000/svg" xmlns:xlink="http://www.w3.org/1999/xlink" x="0px" y="0px"
	 width="1024px" height="405px" viewBox="0 0 1024 405" enable-background="new 0 0 1024 405" xml:space="preserve">
<text transform="matrix(1 0 0 1 283.3564 38.3379)" fill="#EEE0CB" font-family="'CambriaMath'" font-size="46.2238">/’Ɛl</text>
<text transform="matrix(1 0 0 1 353.8887 38.3379)" fill="#EEE0CB" font-family="'CambriaMath'" font-size="33.2811">Ə</text>
<text transform="matrix(1 0 0 1 375.6313 38.3379)" fill="#EEE0CB" font-family="'CambriaMath'" font-size="46.2238">n</text>
<text transform="matrix(1 0 0 1 401.4297 38.3379)" fill="#EEE0CB" font-family="'CambriaMath'" font-size="33.2811">Ə</text>
<text transform="matrix(1 0 0 1 423.1724 38.3379)" fill="#EEE0CB" font-family="'CambriaMath'" font-size="46.2238">r/  -  </text>
<text transform="matrix(1 0 0 1 521.0146 38.3379)" fill="#EEE0CB" font-family="'CambriaMath'" font-size="41.6014">el-uh-nawr  </text>
<text transform="matrix(1 0 0 1 230.5596 192.7432)" fill="#EEE0CB" font-family="'Cambria-Bold'" font-size="138.6713" letter-spacing="7">Eleanor</text>
<text transform="matrix(1 0 0 1 506.5762 246.3447)" fill="#EEE0CB" font-family="'Cambria-Bold'" font-size="34.6678"> </text>
<rect x="59.515" y="248" fill="none" width="923" height="157"/>
<text transform="matrix(1 0 0 1 96.5425 271.0742)"><tspan x="0" y="0" fill="#EEE0CB" font-family="'Cambria-Italic'" font-size="33">(proper noun)</tspan><tspan x="194.955" y="0" fill="#EEE0CB" font-family="'Cambria'" font-size="33"> </tspan><tspan x="202.222" y="0" fill="#587B7F" font-family="'Cambria-Bold'" font-size="33">User experience designer</tspan><tspan x="587.621" y="0" fill="#EEE0CB" font-family="'Cambria'" font-size="33">, user interface de</tspan><tspan x="837.994" y="0" fill="#EEE0CB" font-family="'Cambria'" font-size="33">-</tspan><tspan x="-6.816" y="39.6" fill="#EEE0CB" font-family="'Cambria'" font-size="33">signer, ethnographer, web developer, iOS developer, problem </tspan><tspan x="6.05" y="79.2" fill="#EEE0CB" font-family="'Cambria'" font-size="33">solver • </tspan><tspan x="122.243" y="79.2" font-family="'Cambria'" font-size="33"> </tspan><tspan x="129.51" y="79.2" fill="#587B7F" font-family="'Cambria-Italic'" font-size="33">Eleanor</tspan><tspan x="237.325" y="79.2" fill="#587B7F" font-family="'Cambria'" font-size="33"> has been working on some fun UX projects </tspan><tspan x="382.126" y="118.8" fill="#587B7F" font-family="'Cambria'" font-size="33">lately, </tspan></text>
</svg>
