<?xml version="1.0" encoding="utf-8"?>
<!-- Generator: Adobe Illustrator 15.0.0, SVG Export Plug-In . SVG Version: 6.00 Build 0)  -->
<!DOCTYPE svg PUBLIC "-//W3C//DTD SVG 1.1//EN" "http://www.w3.org/Graphics/SVG/1.1/DTD/svg11.dtd">
<svg version="1.1" id="Layer_1" xmlns="http://www.w3.org/2000/svg" xmlns:xlink="http://www.w3.org/1999/xlink" x="0px" y="0px"
	 width="1024px" height="400px" viewBox="0 0 1024 400" enable-background="new 0 0 1024 400" xml:space="preserve">
<text transform="matrix(1 0 0 1 283.3564 38.3379)" fill="#EEE0CB" font-family="'CambriaMath'" font-size="46.2238">/’Ɛl</text>
<text transform="matrix(1 0 0 1 353.8887 38.3379)" fill="#EEE0CB" font-family="'CambriaMath'" font-size="33.2811">Ə</text>
<text transform="matrix(1 0 0 1 375.6313 38.3379)" fill="#EEE0CB" font-family="'CambriaMath'" font-size="46.2238">n</text>
<text transform="matrix(1 0 0 1 401.4297 38.3379)" fill="#EEE0CB" font-family="'CambriaMath'" font-size="33.2811">Ə</text>
<text transform="matrix(1 0 0 1 423.1724 38.3379)" fill="#EEE0CB" font-family="'CambriaMath'" font-size="46.2238">r/  -  </text>
<text transform="matrix(1 0 0 1 521.0146 38.3379)" fill="#EEE0CB" font-family="'CambriaMath'" font-size="41.6014">el-uh-nawr  </text>
<text transform="matrix(1 0 0 1 230.5596 204.7432)" fill="#EEE0CB" font-family="'Cambria-Bold'" font-size="138.6713" letter-spacing="8">Eleanor</text>
<text transform="matrix(1 0 0 1 506.5762 246.3447)" fill="#EEE0CB" font-family="'Cambria-Bold'" font-size="34.6678"> </text>
<text transform="matrix(1 0 0 1 71.3315 292.5684)" fill="#EEE0CB" font-family="'Cambria-Italic'" font-size="36.979">(proper noun) </text>
<text transform="matrix(1 0 0 1 297.9355 292.5684)" fill="#587B7F" font-family="'Cambria-BoldItalic'" font-size="36.979">User experience designer</text>
<text transform="matrix(1 0 0 1 714.0762 292.5684)" fill="#EEE0CB" font-family="'Cambria-Italic'" font-size="36.979">, user interface </text>
<text transform="matrix(1 0 0 1 99.7334 338.792)" fill="#EEE0CB" font-family="'Cambria-Italic'" font-size="36.979">designer, ethnographer, web developer, iOS developer</text>
</svg>
