<?xml version="1.0" encoding="utf-8"?>
<!-- Generator: Adobe Illustrator 15.0.0, SVG Export Plug-In . SVG Version: 6.00 Build 0)  -->
<!DOCTYPE svg PUBLIC "-//W3C//DTD SVG 1.1//EN" "http://www.w3.org/Graphics/SVG/1.1/DTD/svg11.dtd">
<svg version="1.1" id="Layer_1" xmlns="http://www.w3.org/2000/svg" xmlns:xlink="http://www.w3.org/1999/xlink" x="0px" y="0px"
	 width="897.985px" height="466.949px" viewBox="56.515 0 897.985 466.949" enable-background="new 56.515 0 897.985 466.949"
	 xml:space="preserve">
<text transform="matrix(1 0 0 1 283.3564 38.3379)" fill="#EEE0CB" font-family="'CambriaMath'" font-size="46.2238">/’Ɛl</text>
<text transform="matrix(1 0 0 1 353.8887 38.3379)" fill="#EEE0CB" font-family="'CambriaMath'" font-size="33.2811">Ə</text>
<text transform="matrix(1 0 0 1 375.6313 38.3379)" fill="#EEE0CB" font-family="'CambriaMath'" font-size="46.2238">n</text>
<text transform="matrix(1 0 0 1 401.4297 38.3379)" fill="#EEE0CB" font-family="'CambriaMath'" font-size="33.2811">Ə</text>
<text transform="matrix(1 0 0 1 423.1724 38.3379)" fill="#EEE0CB" font-family="'CambriaMath'" font-size="46.2238">r/  -  </text>
<text transform="matrix(1 0 0 1 521.0146 38.3379)" fill="#EEE0CB" font-family="'CambriaMath'" font-size="41.6014">el-uh-nawr  </text>
<text transform="matrix(1 0 0 1 230.5596 192.7432)" fill="#EEE0CB" font-family="'Cambria-Bold'" font-size="138.6713" letter-spacing="5">Eleanor</text>
<text transform="matrix(1 0 0 1 506.5762 246.3447)" fill="#EEE0CB" font-family="'Cambria-Bold'" font-size="34.6678"> </text>
<rect x="59.515" y="248" fill="none" width="923" height="157"/>
<text transform="matrix(1 0 0 1 336.54 248)" fill="#EEE0CB" font-family="'Cambria'" font-size="33"> </text>
<text transform="matrix(1 0 0 1 979.5791 248)" fill="#EEE0CB" font-family="'Cambria'" font-size="33">-</text>
<text transform="matrix(1 0 0 1 147.6348 327.2002)" fill="#EEE0CB" font-family="'Cambria'" font-size="33"> </text>
<text transform="matrix(1 0 0 1 378.9102 327.2002)" fill="#587B7F" font-family="'Cambria'" font-size="33"> </text>
<text transform="matrix(1 0 0 1 523.7109 366.7998)" fill="#587B7F" font-family="'Cambria'" font-size="33"> </text>
<rect x="56.515" y="248.926" fill="none" width="929" height="156.074"/>
<text transform="matrix(1 0 0 1 96.543 272)" fill="#EEE0CB" font-family="'Cambria-Italic'" font-size="33">(proper noun) </text>
<text transform="matrix(1 0 0 1 298.7651 272)" fill="#587B7F" font-family="'Cambria-Bold'" font-size="33">User experience designer</text>
<text transform="matrix(1 0 0 1 684.1631 272)" fill="#EEE0CB" font-family="'Cambria'" font-size="33">, user interface </text>
<text transform="matrix(1 0 0 1 56.7832 311.5996)" fill="#EEE0CB" font-family="'Cambria'" font-size="33">designer, ethnographer, web developer, iOS developer •  </text>
<text transform="matrix(1 0 0 1 821.6689 311.5996)" fill="#587B7F" font-family="'Cambria-Italic'" font-size="33">   Eleanor</text>
<text transform="matrix(1 0 0 1 929.4824 311.5996)" fill="#587B7F" font-family="'Cambria'" font-size="33"> </text>
<text transform="matrix(1 0 0 1 203.769 351.2002)" fill="#587B7F" font-family="'Cambria'" font-size="33">has been working on some fun UX projects lately, </text>
<text transform="matrix(1 0 0 1 439.9893 390.7998)" fill="#587B7F" font-family="'Cambria'" font-size="33">take a look!</text>
<image overflow="visible" enable-background="new    " width="400" height="400" xlink:href="56639-down-arrow-in-a-circle.png"  transform="matrix(0.9999 0 0 0.9999 -7995.9746 -8085.9746)">
</image>
<image overflow="visible" width="400" height="400" xlink:href="56639-down-arrow-in-a-circle.png"  transform="matrix(0.1199 0 0 0.1199 497.04 419)">
</image>
</svg>
