<?xml version="1.0" encoding="utf-8"?>
<!-- Generator: Adobe Illustrator 22.1.0, SVG Export Plug-In . SVG Version: 6.00 Build 0)  -->
<svg version="1.1" id="Layer_1" xmlns="http://www.w3.org/2000/svg" xmlns:xlink="http://www.w3.org/1999/xlink" x="0px" y="0px"
	 viewBox="0 0 334.9 46" style="enable-background:new 0 0 334.9 46;" xml:space="preserve">
<style type="text/css">
	.st0{fill:#1399AA;}
	.st1{fill:#29394B;}
	.st2{fill:#EBEDF3;}
</style>
<g id="Layer_1_1_">
	<polygon class="st0" points="18.3,0 0.3,0 24.3,23 0.3,46.3 18.3,46.3 41.3,23 	"/>
	<rect x="40.3" y="-0.9" class="st1" width="258" height="47.2"/>
	<polygon class="st1" points="41.3,-0.2 41.4,23.9 17.2,-0.2 	"/>
	<polygon class="st1" points="42.1,46.2 42.1,21.4 17.2,46.3 	"/>
	<polygon class="st1" points="334.9,23 298.3,46 298.3,0 	"/>
	<path class="st1" d="M295.8,1.6c0.5,11.2-1.8,22.3-0.8,33.5c0,0.8,0.7,1.5,1.5,1.5c0.5,0,1-0.3,1.3-0.7c3-5.2,1.4-11.6,2.4-17.2
		c0.3-1.9-2.6-2.7-2.9-0.8c-0.8,5.2,0.6,11.9-2,16.5l2.8,0.8c-0.9-11.2,1.4-22.3,0.8-33.5C298.7-0.3,295.7-0.4,295.8,1.6z"/>
	<path class="st1" d="M299.1,44.1V33.4c0-0.8-0.7-1.5-1.5-1.5s-1.5,0.7-1.5,1.5v10.7c0,0.8,0.7,1.5,1.5,1.5S299.1,44.9,299.1,44.1z"
		/>
	<path class="st1" d="M297.5,2.8c0.8,0,1.5-0.7,1.5-1.5s-0.7-1.5-1.5-1.5S296,0.5,296,1.3S296.7,2.8,297.5,2.8z"/>
	<path class="st1" d="M297.4,46.2c0.8,0,1.5-0.7,1.5-1.5s-0.7-1.5-1.5-1.5s-1.5,0.7-1.5,1.5S296.5,46.2,297.4,46.2z"/>
</g>
<g>
	<path class="st2" d="M61.6,16.4h-3.9v13h-3.2v-13h-3.8v-2.6h10.8V16.4z"/>
	<path class="st2" d="M74.4,29.4h-3.1v-6.7h-4.7v6.7h-3.2V13.7h3.2V20h4.7v-6.3h3.1V29.4z"/>
	<path class="st2" d="M85,22.6h-4.9v4.1h5.8v2.6h-9V13.7h9v2.6h-5.8V20H85V22.6z"/>
	<path class="st2" d="M101,23.9v5.5h-3.2V13.7h5.3c1.5,0,2.8,0.5,3.7,1.4c0.9,1,1.4,2.2,1.4,3.7c0,1.5-0.5,2.7-1.4,3.6
		c-0.9,0.9-2.2,1.3-3.8,1.3H101z M101,21.2h2.2c0.6,0,1.1-0.2,1.4-0.6c0.3-0.4,0.5-1,0.5-1.7c0-0.8-0.2-1.4-0.5-1.9
		s-0.8-0.7-1.4-0.7H101V21.2z"/>
	<path class="st2" d="M115.1,23.6h-1.6v5.7h-3.2V13.7h5c1.6,0,2.8,0.4,3.7,1.2c0.9,0.8,1.3,2,1.3,3.5c0,2.1-0.8,3.5-2.3,4.4l2.7,6.4
		v0.2h-3.4L115.1,23.6z M113.5,21h1.8c0.6,0,1.1-0.2,1.4-0.6s0.5-1,0.5-1.7c0-1.6-0.6-2.4-1.8-2.4h-1.8V21z"/>
	<path class="st2" d="M133.6,22.9c0,2.1-0.5,3.7-1.5,4.9c-1,1.2-2.4,1.7-4.1,1.7c-1.8,0-3.1-0.6-4.1-1.7c-1-1.1-1.5-2.8-1.5-4.8
		v-2.7c0-2.1,0.5-3.8,1.5-5c1-1.2,2.4-1.8,4.1-1.8c1.7,0,3.1,0.6,4.1,1.8c1,1.2,1.5,2.8,1.5,5V22.9z M130.4,20.3
		c0-1.4-0.2-2.5-0.6-3.1s-1-1-1.9-1c-0.8,0-1.5,0.3-1.9,1c-0.4,0.7-0.6,1.7-0.6,3v2.8c0,1.4,0.2,2.4,0.6,3c0.4,0.6,1,1,1.9,1
		c0.8,0,1.4-0.3,1.8-1s0.6-1.6,0.6-2.9V20.3z"/>
	<path class="st2" d="M135.8,29.4V13.7h4.8c1.6,0,2.9,0.4,3.7,1.1c0.8,0.7,1.3,1.8,1.3,3.2c0,0.8-0.2,1.5-0.5,2.1
		c-0.4,0.6-0.8,1-1.4,1.3c0.7,0.2,1.2,0.6,1.6,1.2c0.4,0.6,0.6,1.4,0.6,2.2c0,1.5-0.4,2.7-1.3,3.4c-0.8,0.8-2,1.2-3.6,1.2H135.8z
		 M139,20.3h1.6c1.2,0,1.9-0.6,1.9-1.9c0-0.7-0.1-1.2-0.4-1.5c-0.3-0.3-0.8-0.5-1.4-0.5H139V20.3z M139,22.6v4.2h2
		c0.6,0,1-0.2,1.3-0.5s0.4-0.8,0.4-1.5c0-1.4-0.5-2.1-1.5-2.2H139z"/>
	<path class="st2" d="M151.3,26.7h5.5v2.6h-8.7V13.7h3.2V26.7z"/>
	<path class="st2" d="M166.8,22.6h-4.9v4.1h5.8v2.6h-9V13.7h9v2.6h-5.8V20h4.9V22.6z"/>
	<path class="st2" d="M173.6,13.7l3,11.3l2.9-11.3h4.1v15.6h-3.2v-4.2l0.3-6.5l-3.1,10.8h-2.1l-3.1-10.8l0.3,6.5v4.2h-3.2V13.7
		H173.6z"/>
</g>
</svg>
